G04 EAGLE Gerber RS-274X export*
G75*
%MOMM*%
%FSLAX34Y34*%
%LPD*%
%IN*%
%IPPOS*%
%AMOC8*
5,1,8,0,0,1.08239X$1,22.5*%
G01*
%ADD10C,0.000000*%
%ADD11C,0.254000*%


D10*
X30000Y0D02*
X890000Y0D01*
X920000Y30000D02*
X920000Y610000D01*
X890000Y640000D02*
X30000Y640000D01*
X0Y610000D02*
X0Y30000D01*
X0Y610000D02*
X9Y610725D01*
X35Y611449D01*
X79Y612173D01*
X140Y612895D01*
X219Y613616D01*
X315Y614335D01*
X428Y615051D01*
X559Y615764D01*
X707Y616474D01*
X872Y617179D01*
X1054Y617881D01*
X1253Y618578D01*
X1468Y619271D01*
X1701Y619957D01*
X1950Y620638D01*
X2215Y621313D01*
X2496Y621981D01*
X2794Y622642D01*
X3107Y623296D01*
X3436Y623942D01*
X3781Y624580D01*
X4141Y625209D01*
X4516Y625829D01*
X4906Y626440D01*
X5310Y627042D01*
X5729Y627634D01*
X6163Y628215D01*
X6610Y628786D01*
X7071Y629345D01*
X7545Y629894D01*
X8032Y630430D01*
X8532Y630955D01*
X9045Y631468D01*
X9570Y631968D01*
X10106Y632455D01*
X10655Y632929D01*
X11214Y633390D01*
X11785Y633837D01*
X12366Y634271D01*
X12958Y634690D01*
X13560Y635094D01*
X14171Y635484D01*
X14791Y635859D01*
X15420Y636219D01*
X16058Y636564D01*
X16704Y636893D01*
X17358Y637206D01*
X18019Y637504D01*
X18687Y637785D01*
X19362Y638050D01*
X20043Y638299D01*
X20729Y638532D01*
X21422Y638747D01*
X22119Y638946D01*
X22821Y639128D01*
X23526Y639293D01*
X24236Y639441D01*
X24949Y639572D01*
X25665Y639685D01*
X26384Y639781D01*
X27105Y639860D01*
X27827Y639921D01*
X28551Y639965D01*
X29275Y639991D01*
X30000Y640000D01*
X890000Y640000D02*
X890725Y639991D01*
X891449Y639965D01*
X892173Y639921D01*
X892895Y639860D01*
X893616Y639781D01*
X894335Y639685D01*
X895051Y639572D01*
X895764Y639441D01*
X896474Y639293D01*
X897179Y639128D01*
X897881Y638946D01*
X898578Y638747D01*
X899271Y638532D01*
X899957Y638299D01*
X900638Y638050D01*
X901313Y637785D01*
X901981Y637504D01*
X902642Y637206D01*
X903296Y636893D01*
X903942Y636564D01*
X904580Y636219D01*
X905209Y635859D01*
X905829Y635484D01*
X906440Y635094D01*
X907042Y634690D01*
X907634Y634271D01*
X908215Y633837D01*
X908786Y633390D01*
X909345Y632929D01*
X909894Y632455D01*
X910430Y631968D01*
X910955Y631468D01*
X911468Y630955D01*
X911968Y630430D01*
X912455Y629894D01*
X912929Y629345D01*
X913390Y628786D01*
X913837Y628215D01*
X914271Y627634D01*
X914690Y627042D01*
X915094Y626440D01*
X915484Y625829D01*
X915859Y625209D01*
X916219Y624580D01*
X916564Y623942D01*
X916893Y623296D01*
X917206Y622642D01*
X917504Y621981D01*
X917785Y621313D01*
X918050Y620638D01*
X918299Y619957D01*
X918532Y619271D01*
X918747Y618578D01*
X918946Y617881D01*
X919128Y617179D01*
X919293Y616474D01*
X919441Y615764D01*
X919572Y615051D01*
X919685Y614335D01*
X919781Y613616D01*
X919860Y612895D01*
X919921Y612173D01*
X919965Y611449D01*
X919991Y610725D01*
X920000Y610000D01*
X920000Y30000D02*
X919991Y29275D01*
X919965Y28551D01*
X919921Y27827D01*
X919860Y27105D01*
X919781Y26384D01*
X919685Y25665D01*
X919572Y24949D01*
X919441Y24236D01*
X919293Y23526D01*
X919128Y22821D01*
X918946Y22119D01*
X918747Y21422D01*
X918532Y20729D01*
X918299Y20043D01*
X918050Y19362D01*
X917785Y18687D01*
X917504Y18019D01*
X917206Y17358D01*
X916893Y16704D01*
X916564Y16058D01*
X916219Y15420D01*
X915859Y14791D01*
X915484Y14171D01*
X915094Y13560D01*
X914690Y12958D01*
X914271Y12366D01*
X913837Y11785D01*
X913390Y11214D01*
X912929Y10655D01*
X912455Y10106D01*
X911968Y9570D01*
X911468Y9045D01*
X910955Y8532D01*
X910430Y8032D01*
X909894Y7545D01*
X909345Y7071D01*
X908786Y6610D01*
X908215Y6163D01*
X907634Y5729D01*
X907042Y5310D01*
X906440Y4906D01*
X905829Y4516D01*
X905209Y4141D01*
X904580Y3781D01*
X903942Y3436D01*
X903296Y3107D01*
X902642Y2794D01*
X901981Y2496D01*
X901313Y2215D01*
X900638Y1950D01*
X899957Y1701D01*
X899271Y1468D01*
X898578Y1253D01*
X897881Y1054D01*
X897179Y872D01*
X896474Y707D01*
X895764Y559D01*
X895051Y428D01*
X894335Y315D01*
X893616Y219D01*
X892895Y140D01*
X892173Y79D01*
X891449Y35D01*
X890725Y9D01*
X890000Y0D01*
X30000Y0D02*
X29275Y9D01*
X28551Y35D01*
X27827Y79D01*
X27105Y140D01*
X26384Y219D01*
X25665Y315D01*
X24949Y428D01*
X24236Y559D01*
X23526Y707D01*
X22821Y872D01*
X22119Y1054D01*
X21422Y1253D01*
X20729Y1468D01*
X20043Y1701D01*
X19362Y1950D01*
X18687Y2215D01*
X18019Y2496D01*
X17358Y2794D01*
X16704Y3107D01*
X16058Y3436D01*
X15420Y3781D01*
X14791Y4141D01*
X14171Y4516D01*
X13560Y4906D01*
X12958Y5310D01*
X12366Y5729D01*
X11785Y6163D01*
X11214Y6610D01*
X10655Y7071D01*
X10106Y7545D01*
X9570Y8032D01*
X9045Y8532D01*
X8532Y9045D01*
X8032Y9570D01*
X7545Y10106D01*
X7071Y10655D01*
X6610Y11214D01*
X6163Y11785D01*
X5729Y12366D01*
X5310Y12958D01*
X4906Y13560D01*
X4516Y14171D01*
X4141Y14791D01*
X3781Y15420D01*
X3436Y16058D01*
X3107Y16704D01*
X2794Y17358D01*
X2496Y18019D01*
X2215Y18687D01*
X1950Y19362D01*
X1701Y20043D01*
X1468Y20729D01*
X1253Y21422D01*
X1054Y22119D01*
X872Y22821D01*
X707Y23526D01*
X559Y24236D01*
X428Y24949D01*
X315Y25665D01*
X219Y26384D01*
X140Y27105D01*
X79Y27827D01*
X35Y28551D01*
X9Y29275D01*
X0Y30000D01*
X573490Y48240D02*
X573495Y48645D01*
X573510Y49050D01*
X573535Y49455D01*
X573570Y49858D01*
X573614Y50261D01*
X573669Y50663D01*
X573733Y51063D01*
X573807Y51461D01*
X573891Y51857D01*
X573985Y52252D01*
X574088Y52643D01*
X574201Y53033D01*
X574323Y53419D01*
X574455Y53802D01*
X574596Y54182D01*
X574747Y54558D01*
X574906Y54931D01*
X575075Y55299D01*
X575253Y55663D01*
X575439Y56023D01*
X575635Y56378D01*
X575839Y56728D01*
X576051Y57073D01*
X576272Y57412D01*
X576502Y57747D01*
X576739Y58075D01*
X576984Y58397D01*
X577238Y58714D01*
X577498Y59024D01*
X577767Y59327D01*
X578043Y59624D01*
X578326Y59914D01*
X578616Y60197D01*
X578913Y60473D01*
X579216Y60742D01*
X579526Y61002D01*
X579843Y61256D01*
X580165Y61501D01*
X580493Y61738D01*
X580828Y61968D01*
X581167Y62189D01*
X581512Y62401D01*
X581862Y62605D01*
X582217Y62801D01*
X582577Y62987D01*
X582941Y63165D01*
X583309Y63334D01*
X583682Y63493D01*
X584058Y63644D01*
X584438Y63785D01*
X584821Y63917D01*
X585207Y64039D01*
X585597Y64152D01*
X585988Y64255D01*
X586383Y64349D01*
X586779Y64433D01*
X587177Y64507D01*
X587577Y64571D01*
X587979Y64626D01*
X588382Y64670D01*
X588785Y64705D01*
X589190Y64730D01*
X589595Y64745D01*
X590000Y64750D01*
X590405Y64745D01*
X590810Y64730D01*
X591215Y64705D01*
X591618Y64670D01*
X592021Y64626D01*
X592423Y64571D01*
X592823Y64507D01*
X593221Y64433D01*
X593617Y64349D01*
X594012Y64255D01*
X594403Y64152D01*
X594793Y64039D01*
X595179Y63917D01*
X595562Y63785D01*
X595942Y63644D01*
X596318Y63493D01*
X596691Y63334D01*
X597059Y63165D01*
X597423Y62987D01*
X597783Y62801D01*
X598138Y62605D01*
X598488Y62401D01*
X598833Y62189D01*
X599172Y61968D01*
X599507Y61738D01*
X599835Y61501D01*
X600157Y61256D01*
X600474Y61002D01*
X600784Y60742D01*
X601087Y60473D01*
X601384Y60197D01*
X601674Y59914D01*
X601957Y59624D01*
X602233Y59327D01*
X602502Y59024D01*
X602762Y58714D01*
X603016Y58397D01*
X603261Y58075D01*
X603498Y57747D01*
X603728Y57412D01*
X603949Y57073D01*
X604161Y56728D01*
X604365Y56378D01*
X604561Y56023D01*
X604747Y55663D01*
X604925Y55299D01*
X605094Y54931D01*
X605253Y54558D01*
X605404Y54182D01*
X605545Y53802D01*
X605677Y53419D01*
X605799Y53033D01*
X605912Y52643D01*
X606015Y52252D01*
X606109Y51857D01*
X606193Y51461D01*
X606267Y51063D01*
X606331Y50663D01*
X606386Y50261D01*
X606430Y49858D01*
X606465Y49455D01*
X606490Y49050D01*
X606505Y48645D01*
X606510Y48240D01*
X606505Y47835D01*
X606490Y47430D01*
X606465Y47025D01*
X606430Y46622D01*
X606386Y46219D01*
X606331Y45817D01*
X606267Y45417D01*
X606193Y45019D01*
X606109Y44623D01*
X606015Y44228D01*
X605912Y43837D01*
X605799Y43447D01*
X605677Y43061D01*
X605545Y42678D01*
X605404Y42298D01*
X605253Y41922D01*
X605094Y41549D01*
X604925Y41181D01*
X604747Y40817D01*
X604561Y40457D01*
X604365Y40102D01*
X604161Y39752D01*
X603949Y39407D01*
X603728Y39068D01*
X603498Y38733D01*
X603261Y38405D01*
X603016Y38083D01*
X602762Y37766D01*
X602502Y37456D01*
X602233Y37153D01*
X601957Y36856D01*
X601674Y36566D01*
X601384Y36283D01*
X601087Y36007D01*
X600784Y35738D01*
X600474Y35478D01*
X600157Y35224D01*
X599835Y34979D01*
X599507Y34742D01*
X599172Y34512D01*
X598833Y34291D01*
X598488Y34079D01*
X598138Y33875D01*
X597783Y33679D01*
X597423Y33493D01*
X597059Y33315D01*
X596691Y33146D01*
X596318Y32987D01*
X595942Y32836D01*
X595562Y32695D01*
X595179Y32563D01*
X594793Y32441D01*
X594403Y32328D01*
X594012Y32225D01*
X593617Y32131D01*
X593221Y32047D01*
X592823Y31973D01*
X592423Y31909D01*
X592021Y31854D01*
X591618Y31810D01*
X591215Y31775D01*
X590810Y31750D01*
X590405Y31735D01*
X590000Y31730D01*
X589595Y31735D01*
X589190Y31750D01*
X588785Y31775D01*
X588382Y31810D01*
X587979Y31854D01*
X587577Y31909D01*
X587177Y31973D01*
X586779Y32047D01*
X586383Y32131D01*
X585988Y32225D01*
X585597Y32328D01*
X585207Y32441D01*
X584821Y32563D01*
X584438Y32695D01*
X584058Y32836D01*
X583682Y32987D01*
X583309Y33146D01*
X582941Y33315D01*
X582577Y33493D01*
X582217Y33679D01*
X581862Y33875D01*
X581512Y34079D01*
X581167Y34291D01*
X580828Y34512D01*
X580493Y34742D01*
X580165Y34979D01*
X579843Y35224D01*
X579526Y35478D01*
X579216Y35738D01*
X578913Y36007D01*
X578616Y36283D01*
X578326Y36566D01*
X578043Y36856D01*
X577767Y37153D01*
X577498Y37456D01*
X577238Y37766D01*
X576984Y38083D01*
X576739Y38405D01*
X576502Y38733D01*
X576272Y39068D01*
X576051Y39407D01*
X575839Y39752D01*
X575635Y40102D01*
X575439Y40457D01*
X575253Y40817D01*
X575075Y41181D01*
X574906Y41549D01*
X574747Y41922D01*
X574596Y42298D01*
X574455Y42678D01*
X574323Y43061D01*
X574201Y43447D01*
X574088Y43837D01*
X573985Y44228D01*
X573891Y44623D01*
X573807Y45019D01*
X573733Y45417D01*
X573669Y45817D01*
X573614Y46219D01*
X573570Y46622D01*
X573535Y47025D01*
X573510Y47430D01*
X573495Y47835D01*
X573490Y48240D01*
X289410Y125000D02*
X289415Y125405D01*
X289430Y125810D01*
X289455Y126215D01*
X289490Y126618D01*
X289534Y127021D01*
X289589Y127423D01*
X289653Y127823D01*
X289727Y128221D01*
X289811Y128617D01*
X289905Y129012D01*
X290008Y129403D01*
X290121Y129793D01*
X290243Y130179D01*
X290375Y130562D01*
X290516Y130942D01*
X290667Y131318D01*
X290826Y131691D01*
X290995Y132059D01*
X291173Y132423D01*
X291359Y132783D01*
X291555Y133138D01*
X291759Y133488D01*
X291971Y133833D01*
X292192Y134172D01*
X292422Y134507D01*
X292659Y134835D01*
X292904Y135157D01*
X293158Y135474D01*
X293418Y135784D01*
X293687Y136087D01*
X293963Y136384D01*
X294246Y136674D01*
X294536Y136957D01*
X294833Y137233D01*
X295136Y137502D01*
X295446Y137762D01*
X295763Y138016D01*
X296085Y138261D01*
X296413Y138498D01*
X296748Y138728D01*
X297087Y138949D01*
X297432Y139161D01*
X297782Y139365D01*
X298137Y139561D01*
X298497Y139747D01*
X298861Y139925D01*
X299229Y140094D01*
X299602Y140253D01*
X299978Y140404D01*
X300358Y140545D01*
X300741Y140677D01*
X301127Y140799D01*
X301517Y140912D01*
X301908Y141015D01*
X302303Y141109D01*
X302699Y141193D01*
X303097Y141267D01*
X303497Y141331D01*
X303899Y141386D01*
X304302Y141430D01*
X304705Y141465D01*
X305110Y141490D01*
X305515Y141505D01*
X305920Y141510D01*
X306325Y141505D01*
X306730Y141490D01*
X307135Y141465D01*
X307538Y141430D01*
X307941Y141386D01*
X308343Y141331D01*
X308743Y141267D01*
X309141Y141193D01*
X309537Y141109D01*
X309932Y141015D01*
X310323Y140912D01*
X310713Y140799D01*
X311099Y140677D01*
X311482Y140545D01*
X311862Y140404D01*
X312238Y140253D01*
X312611Y140094D01*
X312979Y139925D01*
X313343Y139747D01*
X313703Y139561D01*
X314058Y139365D01*
X314408Y139161D01*
X314753Y138949D01*
X315092Y138728D01*
X315427Y138498D01*
X315755Y138261D01*
X316077Y138016D01*
X316394Y137762D01*
X316704Y137502D01*
X317007Y137233D01*
X317304Y136957D01*
X317594Y136674D01*
X317877Y136384D01*
X318153Y136087D01*
X318422Y135784D01*
X318682Y135474D01*
X318936Y135157D01*
X319181Y134835D01*
X319418Y134507D01*
X319648Y134172D01*
X319869Y133833D01*
X320081Y133488D01*
X320285Y133138D01*
X320481Y132783D01*
X320667Y132423D01*
X320845Y132059D01*
X321014Y131691D01*
X321173Y131318D01*
X321324Y130942D01*
X321465Y130562D01*
X321597Y130179D01*
X321719Y129793D01*
X321832Y129403D01*
X321935Y129012D01*
X322029Y128617D01*
X322113Y128221D01*
X322187Y127823D01*
X322251Y127423D01*
X322306Y127021D01*
X322350Y126618D01*
X322385Y126215D01*
X322410Y125810D01*
X322425Y125405D01*
X322430Y125000D01*
X322425Y124595D01*
X322410Y124190D01*
X322385Y123785D01*
X322350Y123382D01*
X322306Y122979D01*
X322251Y122577D01*
X322187Y122177D01*
X322113Y121779D01*
X322029Y121383D01*
X321935Y120988D01*
X321832Y120597D01*
X321719Y120207D01*
X321597Y119821D01*
X321465Y119438D01*
X321324Y119058D01*
X321173Y118682D01*
X321014Y118309D01*
X320845Y117941D01*
X320667Y117577D01*
X320481Y117217D01*
X320285Y116862D01*
X320081Y116512D01*
X319869Y116167D01*
X319648Y115828D01*
X319418Y115493D01*
X319181Y115165D01*
X318936Y114843D01*
X318682Y114526D01*
X318422Y114216D01*
X318153Y113913D01*
X317877Y113616D01*
X317594Y113326D01*
X317304Y113043D01*
X317007Y112767D01*
X316704Y112498D01*
X316394Y112238D01*
X316077Y111984D01*
X315755Y111739D01*
X315427Y111502D01*
X315092Y111272D01*
X314753Y111051D01*
X314408Y110839D01*
X314058Y110635D01*
X313703Y110439D01*
X313343Y110253D01*
X312979Y110075D01*
X312611Y109906D01*
X312238Y109747D01*
X311862Y109596D01*
X311482Y109455D01*
X311099Y109323D01*
X310713Y109201D01*
X310323Y109088D01*
X309932Y108985D01*
X309537Y108891D01*
X309141Y108807D01*
X308743Y108733D01*
X308343Y108669D01*
X307941Y108614D01*
X307538Y108570D01*
X307135Y108535D01*
X306730Y108510D01*
X306325Y108495D01*
X305920Y108490D01*
X305515Y108495D01*
X305110Y108510D01*
X304705Y108535D01*
X304302Y108570D01*
X303899Y108614D01*
X303497Y108669D01*
X303097Y108733D01*
X302699Y108807D01*
X302303Y108891D01*
X301908Y108985D01*
X301517Y109088D01*
X301127Y109201D01*
X300741Y109323D01*
X300358Y109455D01*
X299978Y109596D01*
X299602Y109747D01*
X299229Y109906D01*
X298861Y110075D01*
X298497Y110253D01*
X298137Y110439D01*
X297782Y110635D01*
X297432Y110839D01*
X297087Y111051D01*
X296748Y111272D01*
X296413Y111502D01*
X296085Y111739D01*
X295763Y111984D01*
X295446Y112238D01*
X295136Y112498D01*
X294833Y112767D01*
X294536Y113043D01*
X294246Y113326D01*
X293963Y113616D01*
X293687Y113913D01*
X293418Y114216D01*
X293158Y114526D01*
X292904Y114843D01*
X292659Y115165D01*
X292422Y115493D01*
X292192Y115828D01*
X291971Y116167D01*
X291759Y116512D01*
X291555Y116862D01*
X291359Y117217D01*
X291173Y117577D01*
X290995Y117941D01*
X290826Y118309D01*
X290667Y118682D01*
X290516Y119058D01*
X290375Y119438D01*
X290243Y119821D01*
X290121Y120207D01*
X290008Y120597D01*
X289905Y120988D01*
X289811Y121383D01*
X289727Y121779D01*
X289653Y122177D01*
X289589Y122577D01*
X289534Y122979D01*
X289490Y123382D01*
X289455Y123785D01*
X289430Y124190D01*
X289415Y124595D01*
X289410Y125000D01*
X408180Y126000D02*
X408185Y126405D01*
X408200Y126810D01*
X408225Y127215D01*
X408260Y127618D01*
X408304Y128021D01*
X408359Y128423D01*
X408423Y128823D01*
X408497Y129221D01*
X408581Y129617D01*
X408675Y130012D01*
X408778Y130403D01*
X408891Y130793D01*
X409013Y131179D01*
X409145Y131562D01*
X409286Y131942D01*
X409437Y132318D01*
X409596Y132691D01*
X409765Y133059D01*
X409943Y133423D01*
X410129Y133783D01*
X410325Y134138D01*
X410529Y134488D01*
X410741Y134833D01*
X410962Y135172D01*
X411192Y135507D01*
X411429Y135835D01*
X411674Y136157D01*
X411928Y136474D01*
X412188Y136784D01*
X412457Y137087D01*
X412733Y137384D01*
X413016Y137674D01*
X413306Y137957D01*
X413603Y138233D01*
X413906Y138502D01*
X414216Y138762D01*
X414533Y139016D01*
X414855Y139261D01*
X415183Y139498D01*
X415518Y139728D01*
X415857Y139949D01*
X416202Y140161D01*
X416552Y140365D01*
X416907Y140561D01*
X417267Y140747D01*
X417631Y140925D01*
X417999Y141094D01*
X418372Y141253D01*
X418748Y141404D01*
X419128Y141545D01*
X419511Y141677D01*
X419897Y141799D01*
X420287Y141912D01*
X420678Y142015D01*
X421073Y142109D01*
X421469Y142193D01*
X421867Y142267D01*
X422267Y142331D01*
X422669Y142386D01*
X423072Y142430D01*
X423475Y142465D01*
X423880Y142490D01*
X424285Y142505D01*
X424690Y142510D01*
X425095Y142505D01*
X425500Y142490D01*
X425905Y142465D01*
X426308Y142430D01*
X426711Y142386D01*
X427113Y142331D01*
X427513Y142267D01*
X427911Y142193D01*
X428307Y142109D01*
X428702Y142015D01*
X429093Y141912D01*
X429483Y141799D01*
X429869Y141677D01*
X430252Y141545D01*
X430632Y141404D01*
X431008Y141253D01*
X431381Y141094D01*
X431749Y140925D01*
X432113Y140747D01*
X432473Y140561D01*
X432828Y140365D01*
X433178Y140161D01*
X433523Y139949D01*
X433862Y139728D01*
X434197Y139498D01*
X434525Y139261D01*
X434847Y139016D01*
X435164Y138762D01*
X435474Y138502D01*
X435777Y138233D01*
X436074Y137957D01*
X436364Y137674D01*
X436647Y137384D01*
X436923Y137087D01*
X437192Y136784D01*
X437452Y136474D01*
X437706Y136157D01*
X437951Y135835D01*
X438188Y135507D01*
X438418Y135172D01*
X438639Y134833D01*
X438851Y134488D01*
X439055Y134138D01*
X439251Y133783D01*
X439437Y133423D01*
X439615Y133059D01*
X439784Y132691D01*
X439943Y132318D01*
X440094Y131942D01*
X440235Y131562D01*
X440367Y131179D01*
X440489Y130793D01*
X440602Y130403D01*
X440705Y130012D01*
X440799Y129617D01*
X440883Y129221D01*
X440957Y128823D01*
X441021Y128423D01*
X441076Y128021D01*
X441120Y127618D01*
X441155Y127215D01*
X441180Y126810D01*
X441195Y126405D01*
X441200Y126000D01*
X441195Y125595D01*
X441180Y125190D01*
X441155Y124785D01*
X441120Y124382D01*
X441076Y123979D01*
X441021Y123577D01*
X440957Y123177D01*
X440883Y122779D01*
X440799Y122383D01*
X440705Y121988D01*
X440602Y121597D01*
X440489Y121207D01*
X440367Y120821D01*
X440235Y120438D01*
X440094Y120058D01*
X439943Y119682D01*
X439784Y119309D01*
X439615Y118941D01*
X439437Y118577D01*
X439251Y118217D01*
X439055Y117862D01*
X438851Y117512D01*
X438639Y117167D01*
X438418Y116828D01*
X438188Y116493D01*
X437951Y116165D01*
X437706Y115843D01*
X437452Y115526D01*
X437192Y115216D01*
X436923Y114913D01*
X436647Y114616D01*
X436364Y114326D01*
X436074Y114043D01*
X435777Y113767D01*
X435474Y113498D01*
X435164Y113238D01*
X434847Y112984D01*
X434525Y112739D01*
X434197Y112502D01*
X433862Y112272D01*
X433523Y112051D01*
X433178Y111839D01*
X432828Y111635D01*
X432473Y111439D01*
X432113Y111253D01*
X431749Y111075D01*
X431381Y110906D01*
X431008Y110747D01*
X430632Y110596D01*
X430252Y110455D01*
X429869Y110323D01*
X429483Y110201D01*
X429093Y110088D01*
X428702Y109985D01*
X428307Y109891D01*
X427911Y109807D01*
X427513Y109733D01*
X427113Y109669D01*
X426711Y109614D01*
X426308Y109570D01*
X425905Y109535D01*
X425500Y109510D01*
X425095Y109495D01*
X424690Y109490D01*
X424285Y109495D01*
X423880Y109510D01*
X423475Y109535D01*
X423072Y109570D01*
X422669Y109614D01*
X422267Y109669D01*
X421867Y109733D01*
X421469Y109807D01*
X421073Y109891D01*
X420678Y109985D01*
X420287Y110088D01*
X419897Y110201D01*
X419511Y110323D01*
X419128Y110455D01*
X418748Y110596D01*
X418372Y110747D01*
X417999Y110906D01*
X417631Y111075D01*
X417267Y111253D01*
X416907Y111439D01*
X416552Y111635D01*
X416202Y111839D01*
X415857Y112051D01*
X415518Y112272D01*
X415183Y112502D01*
X414855Y112739D01*
X414533Y112984D01*
X414216Y113238D01*
X413906Y113498D01*
X413603Y113767D01*
X413306Y114043D01*
X413016Y114326D01*
X412733Y114616D01*
X412457Y114913D01*
X412188Y115216D01*
X411928Y115526D01*
X411674Y115843D01*
X411429Y116165D01*
X411192Y116493D01*
X410962Y116828D01*
X410741Y117167D01*
X410529Y117512D01*
X410325Y117862D01*
X410129Y118217D01*
X409943Y118577D01*
X409765Y118941D01*
X409596Y119309D01*
X409437Y119682D01*
X409286Y120058D01*
X409145Y120438D01*
X409013Y120821D01*
X408891Y121207D01*
X408778Y121597D01*
X408675Y121988D01*
X408581Y122383D01*
X408497Y122779D01*
X408423Y123177D01*
X408359Y123577D01*
X408304Y123979D01*
X408260Y124382D01*
X408225Y124785D01*
X408200Y125190D01*
X408185Y125595D01*
X408180Y126000D01*
X505990Y436760D02*
X505995Y437165D01*
X506010Y437570D01*
X506035Y437975D01*
X506070Y438378D01*
X506114Y438781D01*
X506169Y439183D01*
X506233Y439583D01*
X506307Y439981D01*
X506391Y440377D01*
X506485Y440772D01*
X506588Y441163D01*
X506701Y441553D01*
X506823Y441939D01*
X506955Y442322D01*
X507096Y442702D01*
X507247Y443078D01*
X507406Y443451D01*
X507575Y443819D01*
X507753Y444183D01*
X507939Y444543D01*
X508135Y444898D01*
X508339Y445248D01*
X508551Y445593D01*
X508772Y445932D01*
X509002Y446267D01*
X509239Y446595D01*
X509484Y446917D01*
X509738Y447234D01*
X509998Y447544D01*
X510267Y447847D01*
X510543Y448144D01*
X510826Y448434D01*
X511116Y448717D01*
X511413Y448993D01*
X511716Y449262D01*
X512026Y449522D01*
X512343Y449776D01*
X512665Y450021D01*
X512993Y450258D01*
X513328Y450488D01*
X513667Y450709D01*
X514012Y450921D01*
X514362Y451125D01*
X514717Y451321D01*
X515077Y451507D01*
X515441Y451685D01*
X515809Y451854D01*
X516182Y452013D01*
X516558Y452164D01*
X516938Y452305D01*
X517321Y452437D01*
X517707Y452559D01*
X518097Y452672D01*
X518488Y452775D01*
X518883Y452869D01*
X519279Y452953D01*
X519677Y453027D01*
X520077Y453091D01*
X520479Y453146D01*
X520882Y453190D01*
X521285Y453225D01*
X521690Y453250D01*
X522095Y453265D01*
X522500Y453270D01*
X522905Y453265D01*
X523310Y453250D01*
X523715Y453225D01*
X524118Y453190D01*
X524521Y453146D01*
X524923Y453091D01*
X525323Y453027D01*
X525721Y452953D01*
X526117Y452869D01*
X526512Y452775D01*
X526903Y452672D01*
X527293Y452559D01*
X527679Y452437D01*
X528062Y452305D01*
X528442Y452164D01*
X528818Y452013D01*
X529191Y451854D01*
X529559Y451685D01*
X529923Y451507D01*
X530283Y451321D01*
X530638Y451125D01*
X530988Y450921D01*
X531333Y450709D01*
X531672Y450488D01*
X532007Y450258D01*
X532335Y450021D01*
X532657Y449776D01*
X532974Y449522D01*
X533284Y449262D01*
X533587Y448993D01*
X533884Y448717D01*
X534174Y448434D01*
X534457Y448144D01*
X534733Y447847D01*
X535002Y447544D01*
X535262Y447234D01*
X535516Y446917D01*
X535761Y446595D01*
X535998Y446267D01*
X536228Y445932D01*
X536449Y445593D01*
X536661Y445248D01*
X536865Y444898D01*
X537061Y444543D01*
X537247Y444183D01*
X537425Y443819D01*
X537594Y443451D01*
X537753Y443078D01*
X537904Y442702D01*
X538045Y442322D01*
X538177Y441939D01*
X538299Y441553D01*
X538412Y441163D01*
X538515Y440772D01*
X538609Y440377D01*
X538693Y439981D01*
X538767Y439583D01*
X538831Y439183D01*
X538886Y438781D01*
X538930Y438378D01*
X538965Y437975D01*
X538990Y437570D01*
X539005Y437165D01*
X539010Y436760D01*
X539005Y436355D01*
X538990Y435950D01*
X538965Y435545D01*
X538930Y435142D01*
X538886Y434739D01*
X538831Y434337D01*
X538767Y433937D01*
X538693Y433539D01*
X538609Y433143D01*
X538515Y432748D01*
X538412Y432357D01*
X538299Y431967D01*
X538177Y431581D01*
X538045Y431198D01*
X537904Y430818D01*
X537753Y430442D01*
X537594Y430069D01*
X537425Y429701D01*
X537247Y429337D01*
X537061Y428977D01*
X536865Y428622D01*
X536661Y428272D01*
X536449Y427927D01*
X536228Y427588D01*
X535998Y427253D01*
X535761Y426925D01*
X535516Y426603D01*
X535262Y426286D01*
X535002Y425976D01*
X534733Y425673D01*
X534457Y425376D01*
X534174Y425086D01*
X533884Y424803D01*
X533587Y424527D01*
X533284Y424258D01*
X532974Y423998D01*
X532657Y423744D01*
X532335Y423499D01*
X532007Y423262D01*
X531672Y423032D01*
X531333Y422811D01*
X530988Y422599D01*
X530638Y422395D01*
X530283Y422199D01*
X529923Y422013D01*
X529559Y421835D01*
X529191Y421666D01*
X528818Y421507D01*
X528442Y421356D01*
X528062Y421215D01*
X527679Y421083D01*
X527293Y420961D01*
X526903Y420848D01*
X526512Y420745D01*
X526117Y420651D01*
X525721Y420567D01*
X525323Y420493D01*
X524923Y420429D01*
X524521Y420374D01*
X524118Y420330D01*
X523715Y420295D01*
X523310Y420270D01*
X522905Y420255D01*
X522500Y420250D01*
X522095Y420255D01*
X521690Y420270D01*
X521285Y420295D01*
X520882Y420330D01*
X520479Y420374D01*
X520077Y420429D01*
X519677Y420493D01*
X519279Y420567D01*
X518883Y420651D01*
X518488Y420745D01*
X518097Y420848D01*
X517707Y420961D01*
X517321Y421083D01*
X516938Y421215D01*
X516558Y421356D01*
X516182Y421507D01*
X515809Y421666D01*
X515441Y421835D01*
X515077Y422013D01*
X514717Y422199D01*
X514362Y422395D01*
X514012Y422599D01*
X513667Y422811D01*
X513328Y423032D01*
X512993Y423262D01*
X512665Y423499D01*
X512343Y423744D01*
X512026Y423998D01*
X511716Y424258D01*
X511413Y424527D01*
X511116Y424803D01*
X510826Y425086D01*
X510543Y425376D01*
X510267Y425673D01*
X509998Y425976D01*
X509738Y426286D01*
X509484Y426603D01*
X509239Y426925D01*
X509002Y427253D01*
X508772Y427588D01*
X508551Y427927D01*
X508339Y428272D01*
X508135Y428622D01*
X507939Y428977D01*
X507753Y429337D01*
X507575Y429701D01*
X507406Y430069D01*
X507247Y430442D01*
X507096Y430818D01*
X506955Y431198D01*
X506823Y431581D01*
X506701Y431967D01*
X506588Y432357D01*
X506485Y432748D01*
X506391Y433143D01*
X506307Y433539D01*
X506233Y433937D01*
X506169Y434337D01*
X506114Y434739D01*
X506070Y435142D01*
X506035Y435545D01*
X506010Y435950D01*
X505995Y436355D01*
X505990Y436760D01*
X28730Y285000D02*
X28735Y285405D01*
X28750Y285810D01*
X28775Y286215D01*
X28810Y286618D01*
X28854Y287021D01*
X28909Y287423D01*
X28973Y287823D01*
X29047Y288221D01*
X29131Y288617D01*
X29225Y289012D01*
X29328Y289403D01*
X29441Y289793D01*
X29563Y290179D01*
X29695Y290562D01*
X29836Y290942D01*
X29987Y291318D01*
X30146Y291691D01*
X30315Y292059D01*
X30493Y292423D01*
X30679Y292783D01*
X30875Y293138D01*
X31079Y293488D01*
X31291Y293833D01*
X31512Y294172D01*
X31742Y294507D01*
X31979Y294835D01*
X32224Y295157D01*
X32478Y295474D01*
X32738Y295784D01*
X33007Y296087D01*
X33283Y296384D01*
X33566Y296674D01*
X33856Y296957D01*
X34153Y297233D01*
X34456Y297502D01*
X34766Y297762D01*
X35083Y298016D01*
X35405Y298261D01*
X35733Y298498D01*
X36068Y298728D01*
X36407Y298949D01*
X36752Y299161D01*
X37102Y299365D01*
X37457Y299561D01*
X37817Y299747D01*
X38181Y299925D01*
X38549Y300094D01*
X38922Y300253D01*
X39298Y300404D01*
X39678Y300545D01*
X40061Y300677D01*
X40447Y300799D01*
X40837Y300912D01*
X41228Y301015D01*
X41623Y301109D01*
X42019Y301193D01*
X42417Y301267D01*
X42817Y301331D01*
X43219Y301386D01*
X43622Y301430D01*
X44025Y301465D01*
X44430Y301490D01*
X44835Y301505D01*
X45240Y301510D01*
X45645Y301505D01*
X46050Y301490D01*
X46455Y301465D01*
X46858Y301430D01*
X47261Y301386D01*
X47663Y301331D01*
X48063Y301267D01*
X48461Y301193D01*
X48857Y301109D01*
X49252Y301015D01*
X49643Y300912D01*
X50033Y300799D01*
X50419Y300677D01*
X50802Y300545D01*
X51182Y300404D01*
X51558Y300253D01*
X51931Y300094D01*
X52299Y299925D01*
X52663Y299747D01*
X53023Y299561D01*
X53378Y299365D01*
X53728Y299161D01*
X54073Y298949D01*
X54412Y298728D01*
X54747Y298498D01*
X55075Y298261D01*
X55397Y298016D01*
X55714Y297762D01*
X56024Y297502D01*
X56327Y297233D01*
X56624Y296957D01*
X56914Y296674D01*
X57197Y296384D01*
X57473Y296087D01*
X57742Y295784D01*
X58002Y295474D01*
X58256Y295157D01*
X58501Y294835D01*
X58738Y294507D01*
X58968Y294172D01*
X59189Y293833D01*
X59401Y293488D01*
X59605Y293138D01*
X59801Y292783D01*
X59987Y292423D01*
X60165Y292059D01*
X60334Y291691D01*
X60493Y291318D01*
X60644Y290942D01*
X60785Y290562D01*
X60917Y290179D01*
X61039Y289793D01*
X61152Y289403D01*
X61255Y289012D01*
X61349Y288617D01*
X61433Y288221D01*
X61507Y287823D01*
X61571Y287423D01*
X61626Y287021D01*
X61670Y286618D01*
X61705Y286215D01*
X61730Y285810D01*
X61745Y285405D01*
X61750Y285000D01*
X61745Y284595D01*
X61730Y284190D01*
X61705Y283785D01*
X61670Y283382D01*
X61626Y282979D01*
X61571Y282577D01*
X61507Y282177D01*
X61433Y281779D01*
X61349Y281383D01*
X61255Y280988D01*
X61152Y280597D01*
X61039Y280207D01*
X60917Y279821D01*
X60785Y279438D01*
X60644Y279058D01*
X60493Y278682D01*
X60334Y278309D01*
X60165Y277941D01*
X59987Y277577D01*
X59801Y277217D01*
X59605Y276862D01*
X59401Y276512D01*
X59189Y276167D01*
X58968Y275828D01*
X58738Y275493D01*
X58501Y275165D01*
X58256Y274843D01*
X58002Y274526D01*
X57742Y274216D01*
X57473Y273913D01*
X57197Y273616D01*
X56914Y273326D01*
X56624Y273043D01*
X56327Y272767D01*
X56024Y272498D01*
X55714Y272238D01*
X55397Y271984D01*
X55075Y271739D01*
X54747Y271502D01*
X54412Y271272D01*
X54073Y271051D01*
X53728Y270839D01*
X53378Y270635D01*
X53023Y270439D01*
X52663Y270253D01*
X52299Y270075D01*
X51931Y269906D01*
X51558Y269747D01*
X51182Y269596D01*
X50802Y269455D01*
X50419Y269323D01*
X50033Y269201D01*
X49643Y269088D01*
X49252Y268985D01*
X48857Y268891D01*
X48461Y268807D01*
X48063Y268733D01*
X47663Y268669D01*
X47261Y268614D01*
X46858Y268570D01*
X46455Y268535D01*
X46050Y268510D01*
X45645Y268495D01*
X45240Y268490D01*
X44835Y268495D01*
X44430Y268510D01*
X44025Y268535D01*
X43622Y268570D01*
X43219Y268614D01*
X42817Y268669D01*
X42417Y268733D01*
X42019Y268807D01*
X41623Y268891D01*
X41228Y268985D01*
X40837Y269088D01*
X40447Y269201D01*
X40061Y269323D01*
X39678Y269455D01*
X39298Y269596D01*
X38922Y269747D01*
X38549Y269906D01*
X38181Y270075D01*
X37817Y270253D01*
X37457Y270439D01*
X37102Y270635D01*
X36752Y270839D01*
X36407Y271051D01*
X36068Y271272D01*
X35733Y271502D01*
X35405Y271739D01*
X35083Y271984D01*
X34766Y272238D01*
X34456Y272498D01*
X34153Y272767D01*
X33856Y273043D01*
X33566Y273326D01*
X33283Y273616D01*
X33007Y273913D01*
X32738Y274216D01*
X32478Y274526D01*
X32224Y274843D01*
X31979Y275165D01*
X31742Y275493D01*
X31512Y275828D01*
X31291Y276167D01*
X31079Y276512D01*
X30875Y276862D01*
X30679Y277217D01*
X30493Y277577D01*
X30315Y277941D01*
X30146Y278309D01*
X29987Y278682D01*
X29836Y279058D01*
X29695Y279438D01*
X29563Y279821D01*
X29441Y280207D01*
X29328Y280597D01*
X29225Y280988D01*
X29131Y281383D01*
X29047Y281779D01*
X28973Y282177D01*
X28909Y282577D01*
X28854Y282979D01*
X28810Y283382D01*
X28775Y283785D01*
X28750Y284190D01*
X28735Y284595D01*
X28730Y285000D01*
X189000Y54900D02*
X189005Y55268D01*
X189018Y55636D01*
X189041Y56003D01*
X189072Y56370D01*
X189113Y56736D01*
X189162Y57101D01*
X189221Y57464D01*
X189288Y57826D01*
X189364Y58187D01*
X189450Y58545D01*
X189543Y58901D01*
X189646Y59254D01*
X189757Y59605D01*
X189877Y59953D01*
X190005Y60298D01*
X190142Y60640D01*
X190287Y60979D01*
X190440Y61313D01*
X190602Y61644D01*
X190771Y61971D01*
X190949Y62293D01*
X191134Y62612D01*
X191327Y62925D01*
X191528Y63234D01*
X191736Y63537D01*
X191952Y63835D01*
X192175Y64128D01*
X192405Y64416D01*
X192642Y64698D01*
X192886Y64973D01*
X193136Y65243D01*
X193393Y65507D01*
X193657Y65764D01*
X193927Y66014D01*
X194202Y66258D01*
X194484Y66495D01*
X194772Y66725D01*
X195065Y66948D01*
X195363Y67164D01*
X195666Y67372D01*
X195975Y67573D01*
X196288Y67766D01*
X196607Y67951D01*
X196929Y68129D01*
X197256Y68298D01*
X197587Y68460D01*
X197921Y68613D01*
X198260Y68758D01*
X198602Y68895D01*
X198947Y69023D01*
X199295Y69143D01*
X199646Y69254D01*
X199999Y69357D01*
X200355Y69450D01*
X200713Y69536D01*
X201074Y69612D01*
X201436Y69679D01*
X201799Y69738D01*
X202164Y69787D01*
X202530Y69828D01*
X202897Y69859D01*
X203264Y69882D01*
X203632Y69895D01*
X204000Y69900D01*
X204368Y69895D01*
X204736Y69882D01*
X205103Y69859D01*
X205470Y69828D01*
X205836Y69787D01*
X206201Y69738D01*
X206564Y69679D01*
X206926Y69612D01*
X207287Y69536D01*
X207645Y69450D01*
X208001Y69357D01*
X208354Y69254D01*
X208705Y69143D01*
X209053Y69023D01*
X209398Y68895D01*
X209740Y68758D01*
X210079Y68613D01*
X210413Y68460D01*
X210744Y68298D01*
X211071Y68129D01*
X211393Y67951D01*
X211712Y67766D01*
X212025Y67573D01*
X212334Y67372D01*
X212637Y67164D01*
X212935Y66948D01*
X213228Y66725D01*
X213516Y66495D01*
X213798Y66258D01*
X214073Y66014D01*
X214343Y65764D01*
X214607Y65507D01*
X214864Y65243D01*
X215114Y64973D01*
X215358Y64698D01*
X215595Y64416D01*
X215825Y64128D01*
X216048Y63835D01*
X216264Y63537D01*
X216472Y63234D01*
X216673Y62925D01*
X216866Y62612D01*
X217051Y62293D01*
X217229Y61971D01*
X217398Y61644D01*
X217560Y61313D01*
X217713Y60979D01*
X217858Y60640D01*
X217995Y60298D01*
X218123Y59953D01*
X218243Y59605D01*
X218354Y59254D01*
X218457Y58901D01*
X218550Y58545D01*
X218636Y58187D01*
X218712Y57826D01*
X218779Y57464D01*
X218838Y57101D01*
X218887Y56736D01*
X218928Y56370D01*
X218959Y56003D01*
X218982Y55636D01*
X218995Y55268D01*
X219000Y54900D01*
X218995Y54532D01*
X218982Y54164D01*
X218959Y53797D01*
X218928Y53430D01*
X218887Y53064D01*
X218838Y52699D01*
X218779Y52336D01*
X218712Y51974D01*
X218636Y51613D01*
X218550Y51255D01*
X218457Y50899D01*
X218354Y50546D01*
X218243Y50195D01*
X218123Y49847D01*
X217995Y49502D01*
X217858Y49160D01*
X217713Y48821D01*
X217560Y48487D01*
X217398Y48156D01*
X217229Y47829D01*
X217051Y47507D01*
X216866Y47188D01*
X216673Y46875D01*
X216472Y46566D01*
X216264Y46263D01*
X216048Y45965D01*
X215825Y45672D01*
X215595Y45384D01*
X215358Y45102D01*
X215114Y44827D01*
X214864Y44557D01*
X214607Y44293D01*
X214343Y44036D01*
X214073Y43786D01*
X213798Y43542D01*
X213516Y43305D01*
X213228Y43075D01*
X212935Y42852D01*
X212637Y42636D01*
X212334Y42428D01*
X212025Y42227D01*
X211712Y42034D01*
X211393Y41849D01*
X211071Y41671D01*
X210744Y41502D01*
X210413Y41340D01*
X210079Y41187D01*
X209740Y41042D01*
X209398Y40905D01*
X209053Y40777D01*
X208705Y40657D01*
X208354Y40546D01*
X208001Y40443D01*
X207645Y40350D01*
X207287Y40264D01*
X206926Y40188D01*
X206564Y40121D01*
X206201Y40062D01*
X205836Y40013D01*
X205470Y39972D01*
X205103Y39941D01*
X204736Y39918D01*
X204368Y39905D01*
X204000Y39900D01*
X203632Y39905D01*
X203264Y39918D01*
X202897Y39941D01*
X202530Y39972D01*
X202164Y40013D01*
X201799Y40062D01*
X201436Y40121D01*
X201074Y40188D01*
X200713Y40264D01*
X200355Y40350D01*
X199999Y40443D01*
X199646Y40546D01*
X199295Y40657D01*
X198947Y40777D01*
X198602Y40905D01*
X198260Y41042D01*
X197921Y41187D01*
X197587Y41340D01*
X197256Y41502D01*
X196929Y41671D01*
X196607Y41849D01*
X196288Y42034D01*
X195975Y42227D01*
X195666Y42428D01*
X195363Y42636D01*
X195065Y42852D01*
X194772Y43075D01*
X194484Y43305D01*
X194202Y43542D01*
X193927Y43786D01*
X193657Y44036D01*
X193393Y44293D01*
X193136Y44557D01*
X192886Y44827D01*
X192642Y45102D01*
X192405Y45384D01*
X192175Y45672D01*
X191952Y45965D01*
X191736Y46263D01*
X191528Y46566D01*
X191327Y46875D01*
X191134Y47188D01*
X190949Y47507D01*
X190771Y47829D01*
X190602Y48156D01*
X190440Y48487D01*
X190287Y48821D01*
X190142Y49160D01*
X190005Y49502D01*
X189877Y49847D01*
X189757Y50195D01*
X189646Y50546D01*
X189543Y50899D01*
X189450Y51255D01*
X189364Y51613D01*
X189288Y51974D01*
X189221Y52336D01*
X189162Y52699D01*
X189113Y53064D01*
X189072Y53430D01*
X189041Y53797D01*
X189018Y54164D01*
X189005Y54532D01*
X189000Y54900D01*
X21000Y54900D02*
X21005Y55268D01*
X21018Y55636D01*
X21041Y56003D01*
X21072Y56370D01*
X21113Y56736D01*
X21162Y57101D01*
X21221Y57464D01*
X21288Y57826D01*
X21364Y58187D01*
X21450Y58545D01*
X21543Y58901D01*
X21646Y59254D01*
X21757Y59605D01*
X21877Y59953D01*
X22005Y60298D01*
X22142Y60640D01*
X22287Y60979D01*
X22440Y61313D01*
X22602Y61644D01*
X22771Y61971D01*
X22949Y62293D01*
X23134Y62612D01*
X23327Y62925D01*
X23528Y63234D01*
X23736Y63537D01*
X23952Y63835D01*
X24175Y64128D01*
X24405Y64416D01*
X24642Y64698D01*
X24886Y64973D01*
X25136Y65243D01*
X25393Y65507D01*
X25657Y65764D01*
X25927Y66014D01*
X26202Y66258D01*
X26484Y66495D01*
X26772Y66725D01*
X27065Y66948D01*
X27363Y67164D01*
X27666Y67372D01*
X27975Y67573D01*
X28288Y67766D01*
X28607Y67951D01*
X28929Y68129D01*
X29256Y68298D01*
X29587Y68460D01*
X29921Y68613D01*
X30260Y68758D01*
X30602Y68895D01*
X30947Y69023D01*
X31295Y69143D01*
X31646Y69254D01*
X31999Y69357D01*
X32355Y69450D01*
X32713Y69536D01*
X33074Y69612D01*
X33436Y69679D01*
X33799Y69738D01*
X34164Y69787D01*
X34530Y69828D01*
X34897Y69859D01*
X35264Y69882D01*
X35632Y69895D01*
X36000Y69900D01*
X36368Y69895D01*
X36736Y69882D01*
X37103Y69859D01*
X37470Y69828D01*
X37836Y69787D01*
X38201Y69738D01*
X38564Y69679D01*
X38926Y69612D01*
X39287Y69536D01*
X39645Y69450D01*
X40001Y69357D01*
X40354Y69254D01*
X40705Y69143D01*
X41053Y69023D01*
X41398Y68895D01*
X41740Y68758D01*
X42079Y68613D01*
X42413Y68460D01*
X42744Y68298D01*
X43071Y68129D01*
X43393Y67951D01*
X43712Y67766D01*
X44025Y67573D01*
X44334Y67372D01*
X44637Y67164D01*
X44935Y66948D01*
X45228Y66725D01*
X45516Y66495D01*
X45798Y66258D01*
X46073Y66014D01*
X46343Y65764D01*
X46607Y65507D01*
X46864Y65243D01*
X47114Y64973D01*
X47358Y64698D01*
X47595Y64416D01*
X47825Y64128D01*
X48048Y63835D01*
X48264Y63537D01*
X48472Y63234D01*
X48673Y62925D01*
X48866Y62612D01*
X49051Y62293D01*
X49229Y61971D01*
X49398Y61644D01*
X49560Y61313D01*
X49713Y60979D01*
X49858Y60640D01*
X49995Y60298D01*
X50123Y59953D01*
X50243Y59605D01*
X50354Y59254D01*
X50457Y58901D01*
X50550Y58545D01*
X50636Y58187D01*
X50712Y57826D01*
X50779Y57464D01*
X50838Y57101D01*
X50887Y56736D01*
X50928Y56370D01*
X50959Y56003D01*
X50982Y55636D01*
X50995Y55268D01*
X51000Y54900D01*
X50995Y54532D01*
X50982Y54164D01*
X50959Y53797D01*
X50928Y53430D01*
X50887Y53064D01*
X50838Y52699D01*
X50779Y52336D01*
X50712Y51974D01*
X50636Y51613D01*
X50550Y51255D01*
X50457Y50899D01*
X50354Y50546D01*
X50243Y50195D01*
X50123Y49847D01*
X49995Y49502D01*
X49858Y49160D01*
X49713Y48821D01*
X49560Y48487D01*
X49398Y48156D01*
X49229Y47829D01*
X49051Y47507D01*
X48866Y47188D01*
X48673Y46875D01*
X48472Y46566D01*
X48264Y46263D01*
X48048Y45965D01*
X47825Y45672D01*
X47595Y45384D01*
X47358Y45102D01*
X47114Y44827D01*
X46864Y44557D01*
X46607Y44293D01*
X46343Y44036D01*
X46073Y43786D01*
X45798Y43542D01*
X45516Y43305D01*
X45228Y43075D01*
X44935Y42852D01*
X44637Y42636D01*
X44334Y42428D01*
X44025Y42227D01*
X43712Y42034D01*
X43393Y41849D01*
X43071Y41671D01*
X42744Y41502D01*
X42413Y41340D01*
X42079Y41187D01*
X41740Y41042D01*
X41398Y40905D01*
X41053Y40777D01*
X40705Y40657D01*
X40354Y40546D01*
X40001Y40443D01*
X39645Y40350D01*
X39287Y40264D01*
X38926Y40188D01*
X38564Y40121D01*
X38201Y40062D01*
X37836Y40013D01*
X37470Y39972D01*
X37103Y39941D01*
X36736Y39918D01*
X36368Y39905D01*
X36000Y39900D01*
X35632Y39905D01*
X35264Y39918D01*
X34897Y39941D01*
X34530Y39972D01*
X34164Y40013D01*
X33799Y40062D01*
X33436Y40121D01*
X33074Y40188D01*
X32713Y40264D01*
X32355Y40350D01*
X31999Y40443D01*
X31646Y40546D01*
X31295Y40657D01*
X30947Y40777D01*
X30602Y40905D01*
X30260Y41042D01*
X29921Y41187D01*
X29587Y41340D01*
X29256Y41502D01*
X28929Y41671D01*
X28607Y41849D01*
X28288Y42034D01*
X27975Y42227D01*
X27666Y42428D01*
X27363Y42636D01*
X27065Y42852D01*
X26772Y43075D01*
X26484Y43305D01*
X26202Y43542D01*
X25927Y43786D01*
X25657Y44036D01*
X25393Y44293D01*
X25136Y44557D01*
X24886Y44827D01*
X24642Y45102D01*
X24405Y45384D01*
X24175Y45672D01*
X23952Y45965D01*
X23736Y46263D01*
X23528Y46566D01*
X23327Y46875D01*
X23134Y47188D01*
X22949Y47507D01*
X22771Y47829D01*
X22602Y48156D01*
X22440Y48487D01*
X22287Y48821D01*
X22142Y49160D01*
X22005Y49502D01*
X21877Y49847D01*
X21757Y50195D01*
X21646Y50546D01*
X21543Y50899D01*
X21450Y51255D01*
X21364Y51613D01*
X21288Y51974D01*
X21221Y52336D01*
X21162Y52699D01*
X21113Y53064D01*
X21072Y53430D01*
X21041Y53797D01*
X21018Y54164D01*
X21005Y54532D01*
X21000Y54900D01*
X879000Y54900D02*
X879005Y55268D01*
X879018Y55636D01*
X879041Y56003D01*
X879072Y56370D01*
X879113Y56736D01*
X879162Y57101D01*
X879221Y57464D01*
X879288Y57826D01*
X879364Y58187D01*
X879450Y58545D01*
X879543Y58901D01*
X879646Y59254D01*
X879757Y59605D01*
X879877Y59953D01*
X880005Y60298D01*
X880142Y60640D01*
X880287Y60979D01*
X880440Y61313D01*
X880602Y61644D01*
X880771Y61971D01*
X880949Y62293D01*
X881134Y62612D01*
X881327Y62925D01*
X881528Y63234D01*
X881736Y63537D01*
X881952Y63835D01*
X882175Y64128D01*
X882405Y64416D01*
X882642Y64698D01*
X882886Y64973D01*
X883136Y65243D01*
X883393Y65507D01*
X883657Y65764D01*
X883927Y66014D01*
X884202Y66258D01*
X884484Y66495D01*
X884772Y66725D01*
X885065Y66948D01*
X885363Y67164D01*
X885666Y67372D01*
X885975Y67573D01*
X886288Y67766D01*
X886607Y67951D01*
X886929Y68129D01*
X887256Y68298D01*
X887587Y68460D01*
X887921Y68613D01*
X888260Y68758D01*
X888602Y68895D01*
X888947Y69023D01*
X889295Y69143D01*
X889646Y69254D01*
X889999Y69357D01*
X890355Y69450D01*
X890713Y69536D01*
X891074Y69612D01*
X891436Y69679D01*
X891799Y69738D01*
X892164Y69787D01*
X892530Y69828D01*
X892897Y69859D01*
X893264Y69882D01*
X893632Y69895D01*
X894000Y69900D01*
X894368Y69895D01*
X894736Y69882D01*
X895103Y69859D01*
X895470Y69828D01*
X895836Y69787D01*
X896201Y69738D01*
X896564Y69679D01*
X896926Y69612D01*
X897287Y69536D01*
X897645Y69450D01*
X898001Y69357D01*
X898354Y69254D01*
X898705Y69143D01*
X899053Y69023D01*
X899398Y68895D01*
X899740Y68758D01*
X900079Y68613D01*
X900413Y68460D01*
X900744Y68298D01*
X901071Y68129D01*
X901393Y67951D01*
X901712Y67766D01*
X902025Y67573D01*
X902334Y67372D01*
X902637Y67164D01*
X902935Y66948D01*
X903228Y66725D01*
X903516Y66495D01*
X903798Y66258D01*
X904073Y66014D01*
X904343Y65764D01*
X904607Y65507D01*
X904864Y65243D01*
X905114Y64973D01*
X905358Y64698D01*
X905595Y64416D01*
X905825Y64128D01*
X906048Y63835D01*
X906264Y63537D01*
X906472Y63234D01*
X906673Y62925D01*
X906866Y62612D01*
X907051Y62293D01*
X907229Y61971D01*
X907398Y61644D01*
X907560Y61313D01*
X907713Y60979D01*
X907858Y60640D01*
X907995Y60298D01*
X908123Y59953D01*
X908243Y59605D01*
X908354Y59254D01*
X908457Y58901D01*
X908550Y58545D01*
X908636Y58187D01*
X908712Y57826D01*
X908779Y57464D01*
X908838Y57101D01*
X908887Y56736D01*
X908928Y56370D01*
X908959Y56003D01*
X908982Y55636D01*
X908995Y55268D01*
X909000Y54900D01*
X908995Y54532D01*
X908982Y54164D01*
X908959Y53797D01*
X908928Y53430D01*
X908887Y53064D01*
X908838Y52699D01*
X908779Y52336D01*
X908712Y51974D01*
X908636Y51613D01*
X908550Y51255D01*
X908457Y50899D01*
X908354Y50546D01*
X908243Y50195D01*
X908123Y49847D01*
X907995Y49502D01*
X907858Y49160D01*
X907713Y48821D01*
X907560Y48487D01*
X907398Y48156D01*
X907229Y47829D01*
X907051Y47507D01*
X906866Y47188D01*
X906673Y46875D01*
X906472Y46566D01*
X906264Y46263D01*
X906048Y45965D01*
X905825Y45672D01*
X905595Y45384D01*
X905358Y45102D01*
X905114Y44827D01*
X904864Y44557D01*
X904607Y44293D01*
X904343Y44036D01*
X904073Y43786D01*
X903798Y43542D01*
X903516Y43305D01*
X903228Y43075D01*
X902935Y42852D01*
X902637Y42636D01*
X902334Y42428D01*
X902025Y42227D01*
X901712Y42034D01*
X901393Y41849D01*
X901071Y41671D01*
X900744Y41502D01*
X900413Y41340D01*
X900079Y41187D01*
X899740Y41042D01*
X899398Y40905D01*
X899053Y40777D01*
X898705Y40657D01*
X898354Y40546D01*
X898001Y40443D01*
X897645Y40350D01*
X897287Y40264D01*
X896926Y40188D01*
X896564Y40121D01*
X896201Y40062D01*
X895836Y40013D01*
X895470Y39972D01*
X895103Y39941D01*
X894736Y39918D01*
X894368Y39905D01*
X894000Y39900D01*
X893632Y39905D01*
X893264Y39918D01*
X892897Y39941D01*
X892530Y39972D01*
X892164Y40013D01*
X891799Y40062D01*
X891436Y40121D01*
X891074Y40188D01*
X890713Y40264D01*
X890355Y40350D01*
X889999Y40443D01*
X889646Y40546D01*
X889295Y40657D01*
X888947Y40777D01*
X888602Y40905D01*
X888260Y41042D01*
X887921Y41187D01*
X887587Y41340D01*
X887256Y41502D01*
X886929Y41671D01*
X886607Y41849D01*
X886288Y42034D01*
X885975Y42227D01*
X885666Y42428D01*
X885363Y42636D01*
X885065Y42852D01*
X884772Y43075D01*
X884484Y43305D01*
X884202Y43542D01*
X883927Y43786D01*
X883657Y44036D01*
X883393Y44293D01*
X883136Y44557D01*
X882886Y44827D01*
X882642Y45102D01*
X882405Y45384D01*
X882175Y45672D01*
X881952Y45965D01*
X881736Y46263D01*
X881528Y46566D01*
X881327Y46875D01*
X881134Y47188D01*
X880949Y47507D01*
X880771Y47829D01*
X880602Y48156D01*
X880440Y48487D01*
X880287Y48821D01*
X880142Y49160D01*
X880005Y49502D01*
X879877Y49847D01*
X879757Y50195D01*
X879646Y50546D01*
X879543Y50899D01*
X879450Y51255D01*
X879364Y51613D01*
X879288Y51974D01*
X879221Y52336D01*
X879162Y52699D01*
X879113Y53064D01*
X879072Y53430D01*
X879041Y53797D01*
X879018Y54164D01*
X879005Y54532D01*
X879000Y54900D01*
X711000Y54900D02*
X711005Y55268D01*
X711018Y55636D01*
X711041Y56003D01*
X711072Y56370D01*
X711113Y56736D01*
X711162Y57101D01*
X711221Y57464D01*
X711288Y57826D01*
X711364Y58187D01*
X711450Y58545D01*
X711543Y58901D01*
X711646Y59254D01*
X711757Y59605D01*
X711877Y59953D01*
X712005Y60298D01*
X712142Y60640D01*
X712287Y60979D01*
X712440Y61313D01*
X712602Y61644D01*
X712771Y61971D01*
X712949Y62293D01*
X713134Y62612D01*
X713327Y62925D01*
X713528Y63234D01*
X713736Y63537D01*
X713952Y63835D01*
X714175Y64128D01*
X714405Y64416D01*
X714642Y64698D01*
X714886Y64973D01*
X715136Y65243D01*
X715393Y65507D01*
X715657Y65764D01*
X715927Y66014D01*
X716202Y66258D01*
X716484Y66495D01*
X716772Y66725D01*
X717065Y66948D01*
X717363Y67164D01*
X717666Y67372D01*
X717975Y67573D01*
X718288Y67766D01*
X718607Y67951D01*
X718929Y68129D01*
X719256Y68298D01*
X719587Y68460D01*
X719921Y68613D01*
X720260Y68758D01*
X720602Y68895D01*
X720947Y69023D01*
X721295Y69143D01*
X721646Y69254D01*
X721999Y69357D01*
X722355Y69450D01*
X722713Y69536D01*
X723074Y69612D01*
X723436Y69679D01*
X723799Y69738D01*
X724164Y69787D01*
X724530Y69828D01*
X724897Y69859D01*
X725264Y69882D01*
X725632Y69895D01*
X726000Y69900D01*
X726368Y69895D01*
X726736Y69882D01*
X727103Y69859D01*
X727470Y69828D01*
X727836Y69787D01*
X728201Y69738D01*
X728564Y69679D01*
X728926Y69612D01*
X729287Y69536D01*
X729645Y69450D01*
X730001Y69357D01*
X730354Y69254D01*
X730705Y69143D01*
X731053Y69023D01*
X731398Y68895D01*
X731740Y68758D01*
X732079Y68613D01*
X732413Y68460D01*
X732744Y68298D01*
X733071Y68129D01*
X733393Y67951D01*
X733712Y67766D01*
X734025Y67573D01*
X734334Y67372D01*
X734637Y67164D01*
X734935Y66948D01*
X735228Y66725D01*
X735516Y66495D01*
X735798Y66258D01*
X736073Y66014D01*
X736343Y65764D01*
X736607Y65507D01*
X736864Y65243D01*
X737114Y64973D01*
X737358Y64698D01*
X737595Y64416D01*
X737825Y64128D01*
X738048Y63835D01*
X738264Y63537D01*
X738472Y63234D01*
X738673Y62925D01*
X738866Y62612D01*
X739051Y62293D01*
X739229Y61971D01*
X739398Y61644D01*
X739560Y61313D01*
X739713Y60979D01*
X739858Y60640D01*
X739995Y60298D01*
X740123Y59953D01*
X740243Y59605D01*
X740354Y59254D01*
X740457Y58901D01*
X740550Y58545D01*
X740636Y58187D01*
X740712Y57826D01*
X740779Y57464D01*
X740838Y57101D01*
X740887Y56736D01*
X740928Y56370D01*
X740959Y56003D01*
X740982Y55636D01*
X740995Y55268D01*
X741000Y54900D01*
X740995Y54532D01*
X740982Y54164D01*
X740959Y53797D01*
X740928Y53430D01*
X740887Y53064D01*
X740838Y52699D01*
X740779Y52336D01*
X740712Y51974D01*
X740636Y51613D01*
X740550Y51255D01*
X740457Y50899D01*
X740354Y50546D01*
X740243Y50195D01*
X740123Y49847D01*
X739995Y49502D01*
X739858Y49160D01*
X739713Y48821D01*
X739560Y48487D01*
X739398Y48156D01*
X739229Y47829D01*
X739051Y47507D01*
X738866Y47188D01*
X738673Y46875D01*
X738472Y46566D01*
X738264Y46263D01*
X738048Y45965D01*
X737825Y45672D01*
X737595Y45384D01*
X737358Y45102D01*
X737114Y44827D01*
X736864Y44557D01*
X736607Y44293D01*
X736343Y44036D01*
X736073Y43786D01*
X735798Y43542D01*
X735516Y43305D01*
X735228Y43075D01*
X734935Y42852D01*
X734637Y42636D01*
X734334Y42428D01*
X734025Y42227D01*
X733712Y42034D01*
X733393Y41849D01*
X733071Y41671D01*
X732744Y41502D01*
X732413Y41340D01*
X732079Y41187D01*
X731740Y41042D01*
X731398Y40905D01*
X731053Y40777D01*
X730705Y40657D01*
X730354Y40546D01*
X730001Y40443D01*
X729645Y40350D01*
X729287Y40264D01*
X728926Y40188D01*
X728564Y40121D01*
X728201Y40062D01*
X727836Y40013D01*
X727470Y39972D01*
X727103Y39941D01*
X726736Y39918D01*
X726368Y39905D01*
X726000Y39900D01*
X725632Y39905D01*
X725264Y39918D01*
X724897Y39941D01*
X724530Y39972D01*
X724164Y40013D01*
X723799Y40062D01*
X723436Y40121D01*
X723074Y40188D01*
X722713Y40264D01*
X722355Y40350D01*
X721999Y40443D01*
X721646Y40546D01*
X721295Y40657D01*
X720947Y40777D01*
X720602Y40905D01*
X720260Y41042D01*
X719921Y41187D01*
X719587Y41340D01*
X719256Y41502D01*
X718929Y41671D01*
X718607Y41849D01*
X718288Y42034D01*
X717975Y42227D01*
X717666Y42428D01*
X717363Y42636D01*
X717065Y42852D01*
X716772Y43075D01*
X716484Y43305D01*
X716202Y43542D01*
X715927Y43786D01*
X715657Y44036D01*
X715393Y44293D01*
X715136Y44557D01*
X714886Y44827D01*
X714642Y45102D01*
X714405Y45384D01*
X714175Y45672D01*
X713952Y45965D01*
X713736Y46263D01*
X713528Y46566D01*
X713327Y46875D01*
X713134Y47188D01*
X712949Y47507D01*
X712771Y47829D01*
X712602Y48156D01*
X712440Y48487D01*
X712287Y48821D01*
X712142Y49160D01*
X712005Y49502D01*
X711877Y49847D01*
X711757Y50195D01*
X711646Y50546D01*
X711543Y50899D01*
X711450Y51255D01*
X711364Y51613D01*
X711288Y51974D01*
X711221Y52336D01*
X711162Y52699D01*
X711113Y53064D01*
X711072Y53430D01*
X711041Y53797D01*
X711018Y54164D01*
X711005Y54532D01*
X711000Y54900D01*
D11*
X0Y30000D02*
X114Y27385D01*
X456Y24791D01*
X1022Y22235D01*
X1809Y19739D01*
X2811Y17321D01*
X4019Y15000D01*
X5425Y12793D01*
X7019Y10716D01*
X8787Y8787D01*
X10716Y7019D01*
X12793Y5425D01*
X15000Y4019D01*
X17321Y2811D01*
X19739Y1809D01*
X22235Y1022D01*
X24791Y456D01*
X27385Y114D01*
X30000Y0D01*
X890000Y0D01*
X892615Y114D01*
X895209Y456D01*
X897765Y1022D01*
X900261Y1809D01*
X902679Y2811D01*
X905000Y4019D01*
X907207Y5425D01*
X909284Y7019D01*
X911213Y8787D01*
X912981Y10716D01*
X914575Y12793D01*
X915981Y15000D01*
X917189Y17321D01*
X918191Y19739D01*
X918978Y22235D01*
X919544Y24791D01*
X919886Y27385D01*
X920000Y30000D01*
X920000Y610000D01*
X919886Y612615D01*
X919544Y615209D01*
X918978Y617765D01*
X918191Y620261D01*
X917189Y622679D01*
X915981Y625000D01*
X914575Y627207D01*
X912981Y629284D01*
X911213Y631213D01*
X909284Y632981D01*
X907207Y634575D01*
X905000Y635981D01*
X902679Y637189D01*
X900261Y638191D01*
X897765Y638978D01*
X895209Y639544D01*
X892615Y639886D01*
X890000Y640000D01*
X30000Y640000D01*
X27385Y639886D01*
X24791Y639544D01*
X22235Y638978D01*
X19739Y638191D01*
X17321Y637189D01*
X15000Y635981D01*
X12793Y634575D01*
X10716Y632981D01*
X8787Y631213D01*
X7019Y629284D01*
X5425Y627207D01*
X4019Y625000D01*
X2811Y622679D01*
X1809Y620261D01*
X1022Y617765D01*
X456Y615209D01*
X114Y612615D01*
X0Y610000D01*
X0Y30000D01*
X573490Y48780D02*
X573561Y49859D01*
X573702Y50931D01*
X573913Y51991D01*
X574192Y53035D01*
X574540Y54059D01*
X574954Y55057D01*
X575432Y56027D01*
X575972Y56963D01*
X576573Y57862D01*
X577231Y58719D01*
X577944Y59532D01*
X578708Y60297D01*
X579521Y61009D01*
X580378Y61667D01*
X581277Y62268D01*
X582213Y62808D01*
X583183Y63286D01*
X584181Y63700D01*
X585205Y64048D01*
X586249Y64327D01*
X587309Y64538D01*
X588381Y64679D01*
X589460Y64750D01*
X590540Y64750D01*
X591619Y64679D01*
X592691Y64538D01*
X593751Y64327D01*
X594795Y64048D01*
X595819Y63700D01*
X596817Y63286D01*
X597787Y62808D01*
X598723Y62268D01*
X599622Y61667D01*
X600479Y61009D01*
X601292Y60297D01*
X602057Y59532D01*
X602769Y58719D01*
X603427Y57862D01*
X604028Y56963D01*
X604568Y56027D01*
X605046Y55057D01*
X605460Y54059D01*
X605808Y53035D01*
X606087Y51991D01*
X606298Y50931D01*
X606439Y49859D01*
X606510Y48780D01*
X606510Y47700D01*
X606439Y46621D01*
X606298Y45549D01*
X606087Y44489D01*
X605808Y43445D01*
X605460Y42421D01*
X605046Y41423D01*
X604568Y40453D01*
X604028Y39517D01*
X603427Y38618D01*
X602769Y37761D01*
X602057Y36948D01*
X601292Y36184D01*
X600479Y35471D01*
X599622Y34813D01*
X598723Y34212D01*
X597787Y33672D01*
X596817Y33194D01*
X595819Y32780D01*
X594795Y32432D01*
X593751Y32153D01*
X592691Y31942D01*
X591619Y31801D01*
X590540Y31730D01*
X589460Y31730D01*
X588381Y31801D01*
X587309Y31942D01*
X586249Y32153D01*
X585205Y32432D01*
X584181Y32780D01*
X583183Y33194D01*
X582213Y33672D01*
X581277Y34212D01*
X580378Y34813D01*
X579521Y35471D01*
X578708Y36184D01*
X577944Y36948D01*
X577231Y37761D01*
X576573Y38618D01*
X575972Y39517D01*
X575432Y40453D01*
X574954Y41423D01*
X574540Y42421D01*
X574192Y43445D01*
X573913Y44489D01*
X573702Y45549D01*
X573561Y46621D01*
X573490Y47700D01*
X573490Y48780D01*
X289410Y125540D02*
X289481Y126619D01*
X289622Y127691D01*
X289833Y128751D01*
X290112Y129795D01*
X290460Y130819D01*
X290874Y131817D01*
X291352Y132787D01*
X291892Y133723D01*
X292493Y134622D01*
X293151Y135479D01*
X293864Y136292D01*
X294628Y137057D01*
X295441Y137769D01*
X296298Y138427D01*
X297197Y139028D01*
X298133Y139568D01*
X299103Y140046D01*
X300101Y140460D01*
X301125Y140808D01*
X302169Y141087D01*
X303229Y141298D01*
X304301Y141439D01*
X305380Y141510D01*
X306460Y141510D01*
X307539Y141439D01*
X308611Y141298D01*
X309671Y141087D01*
X310715Y140808D01*
X311739Y140460D01*
X312737Y140046D01*
X313707Y139568D01*
X314643Y139028D01*
X315542Y138427D01*
X316399Y137769D01*
X317212Y137057D01*
X317977Y136292D01*
X318689Y135479D01*
X319347Y134622D01*
X319948Y133723D01*
X320488Y132787D01*
X320966Y131817D01*
X321380Y130819D01*
X321728Y129795D01*
X322007Y128751D01*
X322218Y127691D01*
X322359Y126619D01*
X322430Y125540D01*
X322430Y124460D01*
X322359Y123381D01*
X322218Y122309D01*
X322007Y121249D01*
X321728Y120205D01*
X321380Y119181D01*
X320966Y118183D01*
X320488Y117213D01*
X319948Y116277D01*
X319347Y115378D01*
X318689Y114521D01*
X317977Y113708D01*
X317212Y112944D01*
X316399Y112231D01*
X315542Y111573D01*
X314643Y110972D01*
X313707Y110432D01*
X312737Y109954D01*
X311739Y109540D01*
X310715Y109192D01*
X309671Y108913D01*
X308611Y108702D01*
X307539Y108561D01*
X306460Y108490D01*
X305380Y108490D01*
X304301Y108561D01*
X303229Y108702D01*
X302169Y108913D01*
X301125Y109192D01*
X300101Y109540D01*
X299103Y109954D01*
X298133Y110432D01*
X297197Y110972D01*
X296298Y111573D01*
X295441Y112231D01*
X294628Y112944D01*
X293864Y113708D01*
X293151Y114521D01*
X292493Y115378D01*
X291892Y116277D01*
X291352Y117213D01*
X290874Y118183D01*
X290460Y119181D01*
X290112Y120205D01*
X289833Y121249D01*
X289622Y122309D01*
X289481Y123381D01*
X289410Y124460D01*
X289410Y125540D01*
X408180Y126540D02*
X408251Y127619D01*
X408392Y128691D01*
X408603Y129751D01*
X408882Y130795D01*
X409230Y131819D01*
X409644Y132817D01*
X410122Y133787D01*
X410662Y134723D01*
X411263Y135622D01*
X411921Y136479D01*
X412634Y137292D01*
X413398Y138057D01*
X414211Y138769D01*
X415068Y139427D01*
X415967Y140028D01*
X416903Y140568D01*
X417873Y141046D01*
X418871Y141460D01*
X419895Y141808D01*
X420939Y142087D01*
X421999Y142298D01*
X423071Y142439D01*
X424150Y142510D01*
X425230Y142510D01*
X426309Y142439D01*
X427381Y142298D01*
X428441Y142087D01*
X429485Y141808D01*
X430509Y141460D01*
X431507Y141046D01*
X432477Y140568D01*
X433413Y140028D01*
X434312Y139427D01*
X435169Y138769D01*
X435982Y138057D01*
X436747Y137292D01*
X437459Y136479D01*
X438117Y135622D01*
X438718Y134723D01*
X439258Y133787D01*
X439736Y132817D01*
X440150Y131819D01*
X440498Y130795D01*
X440777Y129751D01*
X440988Y128691D01*
X441129Y127619D01*
X441200Y126540D01*
X441200Y125460D01*
X441129Y124381D01*
X440988Y123309D01*
X440777Y122249D01*
X440498Y121205D01*
X440150Y120181D01*
X439736Y119183D01*
X439258Y118213D01*
X438718Y117277D01*
X438117Y116378D01*
X437459Y115521D01*
X436747Y114708D01*
X435982Y113944D01*
X435169Y113231D01*
X434312Y112573D01*
X433413Y111972D01*
X432477Y111432D01*
X431507Y110954D01*
X430509Y110540D01*
X429485Y110192D01*
X428441Y109913D01*
X427381Y109702D01*
X426309Y109561D01*
X425230Y109490D01*
X424150Y109490D01*
X423071Y109561D01*
X421999Y109702D01*
X420939Y109913D01*
X419895Y110192D01*
X418871Y110540D01*
X417873Y110954D01*
X416903Y111432D01*
X415967Y111972D01*
X415068Y112573D01*
X414211Y113231D01*
X413398Y113944D01*
X412634Y114708D01*
X411921Y115521D01*
X411263Y116378D01*
X410662Y117277D01*
X410122Y118213D01*
X409644Y119183D01*
X409230Y120181D01*
X408882Y121205D01*
X408603Y122249D01*
X408392Y123309D01*
X408251Y124381D01*
X408180Y125460D01*
X408180Y126540D01*
X539010Y436220D02*
X538939Y435141D01*
X538798Y434069D01*
X538587Y433009D01*
X538308Y431965D01*
X537960Y430941D01*
X537546Y429943D01*
X537068Y428973D01*
X536528Y428037D01*
X535927Y427138D01*
X535269Y426281D01*
X534557Y425468D01*
X533792Y424704D01*
X532979Y423991D01*
X532122Y423333D01*
X531223Y422732D01*
X530287Y422192D01*
X529317Y421714D01*
X528319Y421300D01*
X527295Y420952D01*
X526251Y420673D01*
X525191Y420462D01*
X524119Y420321D01*
X523040Y420250D01*
X521960Y420250D01*
X520881Y420321D01*
X519809Y420462D01*
X518749Y420673D01*
X517705Y420952D01*
X516681Y421300D01*
X515683Y421714D01*
X514713Y422192D01*
X513777Y422732D01*
X512878Y423333D01*
X512021Y423991D01*
X511208Y424704D01*
X510444Y425468D01*
X509731Y426281D01*
X509073Y427138D01*
X508472Y428037D01*
X507932Y428973D01*
X507454Y429943D01*
X507040Y430941D01*
X506692Y431965D01*
X506413Y433009D01*
X506202Y434069D01*
X506061Y435141D01*
X505990Y436220D01*
X505990Y437300D01*
X506061Y438379D01*
X506202Y439451D01*
X506413Y440511D01*
X506692Y441555D01*
X507040Y442579D01*
X507454Y443577D01*
X507932Y444547D01*
X508472Y445483D01*
X509073Y446382D01*
X509731Y447239D01*
X510444Y448052D01*
X511208Y448817D01*
X512021Y449529D01*
X512878Y450187D01*
X513777Y450788D01*
X514713Y451328D01*
X515683Y451806D01*
X516681Y452220D01*
X517705Y452568D01*
X518749Y452847D01*
X519809Y453058D01*
X520881Y453199D01*
X521960Y453270D01*
X523040Y453270D01*
X524119Y453199D01*
X525191Y453058D01*
X526251Y452847D01*
X527295Y452568D01*
X528319Y452220D01*
X529317Y451806D01*
X530287Y451328D01*
X531223Y450788D01*
X532122Y450187D01*
X532979Y449529D01*
X533792Y448817D01*
X534557Y448052D01*
X535269Y447239D01*
X535927Y446382D01*
X536528Y445483D01*
X537068Y444547D01*
X537546Y443577D01*
X537960Y442579D01*
X538308Y441555D01*
X538587Y440511D01*
X538798Y439451D01*
X538939Y438379D01*
X539010Y437300D01*
X539010Y436220D01*
X45780Y301510D02*
X46859Y301439D01*
X47931Y301298D01*
X48991Y301087D01*
X50035Y300808D01*
X51059Y300460D01*
X52057Y300046D01*
X53027Y299568D01*
X53963Y299028D01*
X54862Y298427D01*
X55719Y297769D01*
X56532Y297057D01*
X57297Y296292D01*
X58009Y295479D01*
X58667Y294622D01*
X59268Y293723D01*
X59808Y292787D01*
X60286Y291817D01*
X60700Y290819D01*
X61048Y289795D01*
X61327Y288751D01*
X61538Y287691D01*
X61679Y286619D01*
X61750Y285540D01*
X61750Y284460D01*
X61679Y283381D01*
X61538Y282309D01*
X61327Y281249D01*
X61048Y280205D01*
X60700Y279181D01*
X60286Y278183D01*
X59808Y277213D01*
X59268Y276277D01*
X58667Y275378D01*
X58009Y274521D01*
X57297Y273708D01*
X56532Y272944D01*
X55719Y272231D01*
X54862Y271573D01*
X53963Y270972D01*
X53027Y270432D01*
X52057Y269954D01*
X51059Y269540D01*
X50035Y269192D01*
X48991Y268913D01*
X47931Y268702D01*
X46859Y268561D01*
X45780Y268490D01*
X44700Y268490D01*
X43621Y268561D01*
X42549Y268702D01*
X41489Y268913D01*
X40445Y269192D01*
X39421Y269540D01*
X38423Y269954D01*
X37453Y270432D01*
X36517Y270972D01*
X35618Y271573D01*
X34761Y272231D01*
X33948Y272944D01*
X33184Y273708D01*
X32471Y274521D01*
X31813Y275378D01*
X31212Y276277D01*
X30672Y277213D01*
X30194Y278183D01*
X29780Y279181D01*
X29432Y280205D01*
X29153Y281249D01*
X28942Y282309D01*
X28801Y283381D01*
X28730Y284460D01*
X28730Y285540D01*
X28801Y286619D01*
X28942Y287691D01*
X29153Y288751D01*
X29432Y289795D01*
X29780Y290819D01*
X30194Y291817D01*
X30672Y292787D01*
X31212Y293723D01*
X31813Y294622D01*
X32471Y295479D01*
X33184Y296292D01*
X33948Y297057D01*
X34761Y297769D01*
X35618Y298427D01*
X36517Y299028D01*
X37453Y299568D01*
X38423Y300046D01*
X39421Y300460D01*
X40445Y300808D01*
X41489Y301087D01*
X42549Y301298D01*
X43621Y301439D01*
X44700Y301510D01*
X45780Y301510D01*
X219000Y54364D02*
X218924Y53296D01*
X218771Y52235D01*
X218543Y51188D01*
X218241Y50160D01*
X217867Y49156D01*
X217422Y48181D01*
X216908Y47241D01*
X216329Y46340D01*
X215687Y45482D01*
X214985Y44672D01*
X214228Y43915D01*
X213418Y43213D01*
X212560Y42571D01*
X211659Y41992D01*
X210719Y41478D01*
X209744Y41033D01*
X208740Y40659D01*
X207712Y40357D01*
X206665Y40129D01*
X205604Y39976D01*
X204536Y39900D01*
X203464Y39900D01*
X202396Y39976D01*
X201335Y40129D01*
X200288Y40357D01*
X199260Y40659D01*
X198256Y41033D01*
X197281Y41478D01*
X196341Y41992D01*
X195440Y42571D01*
X194582Y43213D01*
X193772Y43915D01*
X193015Y44672D01*
X192313Y45482D01*
X191671Y46340D01*
X191092Y47241D01*
X190578Y48181D01*
X190133Y49156D01*
X189759Y50160D01*
X189457Y51188D01*
X189229Y52235D01*
X189076Y53296D01*
X189000Y54364D01*
X189000Y55436D01*
X189076Y56504D01*
X189229Y57565D01*
X189457Y58612D01*
X189759Y59640D01*
X190133Y60644D01*
X190578Y61619D01*
X191092Y62559D01*
X191671Y63460D01*
X192313Y64318D01*
X193015Y65128D01*
X193772Y65885D01*
X194582Y66587D01*
X195440Y67229D01*
X196341Y67808D01*
X197281Y68322D01*
X198256Y68767D01*
X199260Y69141D01*
X200288Y69443D01*
X201335Y69671D01*
X202396Y69824D01*
X203464Y69900D01*
X204536Y69900D01*
X205604Y69824D01*
X206665Y69671D01*
X207712Y69443D01*
X208740Y69141D01*
X209744Y68767D01*
X210719Y68322D01*
X211659Y67808D01*
X212560Y67229D01*
X213418Y66587D01*
X214228Y65885D01*
X214985Y65128D01*
X215687Y64318D01*
X216329Y63460D01*
X216908Y62559D01*
X217422Y61619D01*
X217867Y60644D01*
X218241Y59640D01*
X218543Y58612D01*
X218771Y57565D01*
X218924Y56504D01*
X219000Y55436D01*
X219000Y54364D01*
X51000Y54364D02*
X50924Y53296D01*
X50771Y52235D01*
X50543Y51188D01*
X50241Y50160D01*
X49867Y49156D01*
X49422Y48181D01*
X48908Y47241D01*
X48329Y46340D01*
X47687Y45482D01*
X46985Y44672D01*
X46228Y43915D01*
X45418Y43213D01*
X44560Y42571D01*
X43659Y41992D01*
X42719Y41478D01*
X41744Y41033D01*
X40740Y40659D01*
X39712Y40357D01*
X38665Y40129D01*
X37604Y39976D01*
X36536Y39900D01*
X35464Y39900D01*
X34396Y39976D01*
X33335Y40129D01*
X32288Y40357D01*
X31260Y40659D01*
X30256Y41033D01*
X29281Y41478D01*
X28341Y41992D01*
X27440Y42571D01*
X26582Y43213D01*
X25772Y43915D01*
X25015Y44672D01*
X24313Y45482D01*
X23671Y46340D01*
X23092Y47241D01*
X22578Y48181D01*
X22133Y49156D01*
X21759Y50160D01*
X21457Y51188D01*
X21229Y52235D01*
X21076Y53296D01*
X21000Y54364D01*
X21000Y55436D01*
X21076Y56504D01*
X21229Y57565D01*
X21457Y58612D01*
X21759Y59640D01*
X22133Y60644D01*
X22578Y61619D01*
X23092Y62559D01*
X23671Y63460D01*
X24313Y64318D01*
X25015Y65128D01*
X25772Y65885D01*
X26582Y66587D01*
X27440Y67229D01*
X28341Y67808D01*
X29281Y68322D01*
X30256Y68767D01*
X31260Y69141D01*
X32288Y69443D01*
X33335Y69671D01*
X34396Y69824D01*
X35464Y69900D01*
X36536Y69900D01*
X37604Y69824D01*
X38665Y69671D01*
X39712Y69443D01*
X40740Y69141D01*
X41744Y68767D01*
X42719Y68322D01*
X43659Y67808D01*
X44560Y67229D01*
X45418Y66587D01*
X46228Y65885D01*
X46985Y65128D01*
X47687Y64318D01*
X48329Y63460D01*
X48908Y62559D01*
X49422Y61619D01*
X49867Y60644D01*
X50241Y59640D01*
X50543Y58612D01*
X50771Y57565D01*
X50924Y56504D01*
X51000Y55436D01*
X51000Y54364D01*
X909000Y54364D02*
X908924Y53296D01*
X908771Y52235D01*
X908543Y51188D01*
X908241Y50160D01*
X907867Y49156D01*
X907422Y48181D01*
X906908Y47241D01*
X906329Y46340D01*
X905687Y45482D01*
X904985Y44672D01*
X904228Y43915D01*
X903418Y43213D01*
X902560Y42571D01*
X901659Y41992D01*
X900719Y41478D01*
X899744Y41033D01*
X898740Y40659D01*
X897712Y40357D01*
X896665Y40129D01*
X895604Y39976D01*
X894536Y39900D01*
X893464Y39900D01*
X892396Y39976D01*
X891335Y40129D01*
X890288Y40357D01*
X889260Y40659D01*
X888256Y41033D01*
X887281Y41478D01*
X886341Y41992D01*
X885440Y42571D01*
X884582Y43213D01*
X883772Y43915D01*
X883015Y44672D01*
X882313Y45482D01*
X881671Y46340D01*
X881092Y47241D01*
X880578Y48181D01*
X880133Y49156D01*
X879759Y50160D01*
X879457Y51188D01*
X879229Y52235D01*
X879076Y53296D01*
X879000Y54364D01*
X879000Y55436D01*
X879076Y56504D01*
X879229Y57565D01*
X879457Y58612D01*
X879759Y59640D01*
X880133Y60644D01*
X880578Y61619D01*
X881092Y62559D01*
X881671Y63460D01*
X882313Y64318D01*
X883015Y65128D01*
X883772Y65885D01*
X884582Y66587D01*
X885440Y67229D01*
X886341Y67808D01*
X887281Y68322D01*
X888256Y68767D01*
X889260Y69141D01*
X890288Y69443D01*
X891335Y69671D01*
X892396Y69824D01*
X893464Y69900D01*
X894536Y69900D01*
X895604Y69824D01*
X896665Y69671D01*
X897712Y69443D01*
X898740Y69141D01*
X899744Y68767D01*
X900719Y68322D01*
X901659Y67808D01*
X902560Y67229D01*
X903418Y66587D01*
X904228Y65885D01*
X904985Y65128D01*
X905687Y64318D01*
X906329Y63460D01*
X906908Y62559D01*
X907422Y61619D01*
X907867Y60644D01*
X908241Y59640D01*
X908543Y58612D01*
X908771Y57565D01*
X908924Y56504D01*
X909000Y55436D01*
X909000Y54364D01*
X741000Y54364D02*
X740924Y53296D01*
X740771Y52235D01*
X740543Y51188D01*
X740241Y50160D01*
X739867Y49156D01*
X739422Y48181D01*
X738908Y47241D01*
X738329Y46340D01*
X737687Y45482D01*
X736985Y44672D01*
X736228Y43915D01*
X735418Y43213D01*
X734560Y42571D01*
X733659Y41992D01*
X732719Y41478D01*
X731744Y41033D01*
X730740Y40659D01*
X729712Y40357D01*
X728665Y40129D01*
X727604Y39976D01*
X726536Y39900D01*
X725464Y39900D01*
X724396Y39976D01*
X723335Y40129D01*
X722288Y40357D01*
X721260Y40659D01*
X720256Y41033D01*
X719281Y41478D01*
X718341Y41992D01*
X717440Y42571D01*
X716582Y43213D01*
X715772Y43915D01*
X715015Y44672D01*
X714313Y45482D01*
X713671Y46340D01*
X713092Y47241D01*
X712578Y48181D01*
X712133Y49156D01*
X711759Y50160D01*
X711457Y51188D01*
X711229Y52235D01*
X711076Y53296D01*
X711000Y54364D01*
X711000Y55436D01*
X711076Y56504D01*
X711229Y57565D01*
X711457Y58612D01*
X711759Y59640D01*
X712133Y60644D01*
X712578Y61619D01*
X713092Y62559D01*
X713671Y63460D01*
X714313Y64318D01*
X715015Y65128D01*
X715772Y65885D01*
X716582Y66587D01*
X717440Y67229D01*
X718341Y67808D01*
X719281Y68322D01*
X720256Y68767D01*
X721260Y69141D01*
X722288Y69443D01*
X723335Y69671D01*
X724396Y69824D01*
X725464Y69900D01*
X726536Y69900D01*
X727604Y69824D01*
X728665Y69671D01*
X729712Y69443D01*
X730740Y69141D01*
X731744Y68767D01*
X732719Y68322D01*
X733659Y67808D01*
X734560Y67229D01*
X735418Y66587D01*
X736228Y65885D01*
X736985Y65128D01*
X737687Y64318D01*
X738329Y63460D01*
X738908Y62559D01*
X739422Y61619D01*
X739867Y60644D01*
X740241Y59640D01*
X740543Y58612D01*
X740771Y57565D01*
X740924Y56504D01*
X741000Y55436D01*
X741000Y54364D01*
M02*
