G04 EAGLE Gerber RS-274X export*
G75*
%MOMM*%
%FSLAX34Y34*%
%LPD*%
%INSilkscreen Bottom*%
%IPPOS*%
%AMOC8*
5,1,8,0,0,1.08239X$1,22.5*%
G01*
%ADD10C,0.203200*%
%ADD11C,0.152400*%
%ADD12C,0.127000*%
%ADD13C,0.101600*%


D10*
X638984Y514384D02*
X633791Y491016D01*
X628598Y506595D01*
X623405Y491016D01*
X618212Y514384D01*
X610706Y491016D02*
X600321Y491016D01*
X610706Y491016D02*
X610706Y514384D01*
X600321Y514384D01*
X602917Y503998D02*
X610706Y503998D01*
X586238Y491016D02*
X586095Y491018D01*
X585952Y491024D01*
X585809Y491034D01*
X585667Y491048D01*
X585525Y491065D01*
X585383Y491087D01*
X585242Y491112D01*
X585102Y491142D01*
X584963Y491175D01*
X584825Y491212D01*
X584688Y491253D01*
X584552Y491297D01*
X584417Y491346D01*
X584284Y491398D01*
X584152Y491453D01*
X584022Y491513D01*
X583893Y491576D01*
X583766Y491642D01*
X583642Y491712D01*
X583519Y491785D01*
X583398Y491862D01*
X583279Y491941D01*
X583163Y492025D01*
X583048Y492111D01*
X582937Y492200D01*
X582827Y492293D01*
X582721Y492388D01*
X582617Y492487D01*
X582516Y492588D01*
X582417Y492692D01*
X582322Y492798D01*
X582229Y492908D01*
X582140Y493019D01*
X582054Y493134D01*
X581971Y493250D01*
X581891Y493369D01*
X581814Y493490D01*
X581741Y493612D01*
X581671Y493737D01*
X581605Y493864D01*
X581542Y493993D01*
X581482Y494123D01*
X581427Y494255D01*
X581375Y494388D01*
X581326Y494523D01*
X581282Y494659D01*
X581241Y494796D01*
X581204Y494934D01*
X581171Y495073D01*
X581141Y495213D01*
X581116Y495354D01*
X581094Y495496D01*
X581077Y495638D01*
X581063Y495780D01*
X581053Y495923D01*
X581047Y496066D01*
X581045Y496209D01*
X586238Y491016D02*
X586501Y491019D01*
X586763Y491029D01*
X587025Y491044D01*
X587286Y491066D01*
X587547Y491094D01*
X587807Y491129D01*
X588067Y491170D01*
X588325Y491216D01*
X588582Y491269D01*
X588838Y491329D01*
X589092Y491394D01*
X589345Y491465D01*
X589595Y491542D01*
X589844Y491626D01*
X590091Y491715D01*
X590336Y491810D01*
X590578Y491911D01*
X590818Y492018D01*
X591055Y492130D01*
X591289Y492248D01*
X591521Y492372D01*
X591749Y492501D01*
X591975Y492636D01*
X592197Y492776D01*
X592415Y492921D01*
X592631Y493071D01*
X592842Y493227D01*
X593050Y493387D01*
X593253Y493553D01*
X593453Y493723D01*
X593649Y493898D01*
X593840Y494077D01*
X594027Y494261D01*
X593379Y509191D02*
X593377Y509334D01*
X593371Y509477D01*
X593361Y509620D01*
X593347Y509762D01*
X593330Y509904D01*
X593308Y510046D01*
X593283Y510187D01*
X593253Y510327D01*
X593220Y510466D01*
X593183Y510604D01*
X593142Y510741D01*
X593098Y510877D01*
X593049Y511012D01*
X592997Y511145D01*
X592942Y511277D01*
X592882Y511407D01*
X592819Y511536D01*
X592753Y511663D01*
X592683Y511788D01*
X592610Y511910D01*
X592533Y512031D01*
X592453Y512150D01*
X592370Y512266D01*
X592284Y512381D01*
X592195Y512492D01*
X592102Y512602D01*
X592007Y512708D01*
X591908Y512812D01*
X591807Y512913D01*
X591703Y513012D01*
X591597Y513107D01*
X591487Y513200D01*
X591376Y513289D01*
X591261Y513375D01*
X591145Y513458D01*
X591026Y513538D01*
X590905Y513615D01*
X590783Y513688D01*
X590658Y513758D01*
X590531Y513824D01*
X590402Y513887D01*
X590272Y513947D01*
X590140Y514002D01*
X590007Y514054D01*
X589872Y514103D01*
X589736Y514147D01*
X589599Y514188D01*
X589461Y514225D01*
X589322Y514258D01*
X589182Y514288D01*
X589041Y514313D01*
X588899Y514335D01*
X588757Y514352D01*
X588615Y514366D01*
X588472Y514376D01*
X588329Y514382D01*
X588186Y514384D01*
X587954Y514381D01*
X587722Y514373D01*
X587490Y514359D01*
X587259Y514340D01*
X587028Y514315D01*
X586798Y514285D01*
X586569Y514249D01*
X586341Y514208D01*
X586113Y514161D01*
X585887Y514109D01*
X585662Y514051D01*
X585439Y513988D01*
X585217Y513920D01*
X584997Y513847D01*
X584779Y513768D01*
X584562Y513685D01*
X584348Y513596D01*
X584136Y513502D01*
X583926Y513403D01*
X583718Y513299D01*
X583514Y513190D01*
X583311Y513076D01*
X583112Y512957D01*
X582915Y512834D01*
X582722Y512706D01*
X582531Y512574D01*
X582344Y512437D01*
X590783Y504647D02*
X590906Y504722D01*
X591027Y504800D01*
X591146Y504882D01*
X591262Y504966D01*
X591376Y505054D01*
X591488Y505145D01*
X591598Y505239D01*
X591704Y505336D01*
X591808Y505436D01*
X591909Y505538D01*
X592008Y505644D01*
X592103Y505752D01*
X592196Y505862D01*
X592285Y505975D01*
X592371Y506091D01*
X592455Y506208D01*
X592534Y506328D01*
X592611Y506450D01*
X592684Y506574D01*
X592754Y506700D01*
X592820Y506828D01*
X592883Y506958D01*
X592942Y507089D01*
X592998Y507222D01*
X593050Y507357D01*
X593098Y507493D01*
X593143Y507630D01*
X593183Y507768D01*
X593220Y507907D01*
X593254Y508047D01*
X593283Y508188D01*
X593308Y508330D01*
X593330Y508473D01*
X593348Y508616D01*
X593361Y508759D01*
X593371Y508903D01*
X593377Y509047D01*
X593379Y509191D01*
X583642Y500753D02*
X583519Y500678D01*
X583398Y500600D01*
X583279Y500518D01*
X583163Y500434D01*
X583049Y500346D01*
X582937Y500255D01*
X582828Y500161D01*
X582721Y500064D01*
X582617Y499964D01*
X582516Y499862D01*
X582417Y499756D01*
X582322Y499648D01*
X582229Y499538D01*
X582140Y499425D01*
X582054Y499310D01*
X581971Y499192D01*
X581891Y499072D01*
X581814Y498950D01*
X581741Y498826D01*
X581671Y498700D01*
X581605Y498572D01*
X581542Y498442D01*
X581483Y498311D01*
X581427Y498178D01*
X581375Y498043D01*
X581327Y497907D01*
X581282Y497770D01*
X581242Y497632D01*
X581205Y497493D01*
X581172Y497353D01*
X581142Y497212D01*
X581117Y497070D01*
X581095Y496927D01*
X581077Y496784D01*
X581064Y496641D01*
X581054Y496497D01*
X581048Y496353D01*
X581046Y496209D01*
X583642Y500753D02*
X590782Y504647D01*
X568746Y514384D02*
X568746Y491016D01*
X575237Y514384D02*
X562255Y514384D01*
X555030Y491016D02*
X544644Y491016D01*
X555030Y491016D02*
X555030Y514384D01*
X544644Y514384D01*
X547240Y503998D02*
X555030Y503998D01*
X536895Y514384D02*
X536895Y491016D01*
X536895Y514384D02*
X530404Y514384D01*
X530245Y514382D01*
X530086Y514376D01*
X529926Y514366D01*
X529768Y514353D01*
X529609Y514335D01*
X529452Y514314D01*
X529294Y514288D01*
X529138Y514259D01*
X528982Y514226D01*
X528827Y514189D01*
X528673Y514149D01*
X528520Y514104D01*
X528368Y514056D01*
X528217Y514005D01*
X528068Y513949D01*
X527920Y513890D01*
X527774Y513827D01*
X527629Y513761D01*
X527486Y513691D01*
X527344Y513618D01*
X527205Y513541D01*
X527067Y513461D01*
X526931Y513377D01*
X526798Y513290D01*
X526666Y513200D01*
X526537Y513107D01*
X526411Y513010D01*
X526286Y512911D01*
X526164Y512808D01*
X526045Y512703D01*
X525928Y512594D01*
X525814Y512483D01*
X525703Y512369D01*
X525594Y512252D01*
X525489Y512133D01*
X525386Y512011D01*
X525287Y511886D01*
X525190Y511760D01*
X525097Y511631D01*
X525007Y511499D01*
X524920Y511366D01*
X524836Y511230D01*
X524756Y511092D01*
X524679Y510953D01*
X524606Y510811D01*
X524536Y510668D01*
X524470Y510523D01*
X524407Y510377D01*
X524348Y510229D01*
X524292Y510080D01*
X524241Y509929D01*
X524193Y509777D01*
X524148Y509624D01*
X524108Y509470D01*
X524071Y509315D01*
X524038Y509159D01*
X524009Y509003D01*
X523983Y508845D01*
X523962Y508688D01*
X523944Y508529D01*
X523931Y508371D01*
X523921Y508211D01*
X523915Y508052D01*
X523913Y507893D01*
X523915Y507734D01*
X523921Y507575D01*
X523931Y507415D01*
X523944Y507257D01*
X523962Y507098D01*
X523983Y506941D01*
X524009Y506783D01*
X524038Y506627D01*
X524071Y506471D01*
X524108Y506316D01*
X524148Y506162D01*
X524193Y506009D01*
X524241Y505857D01*
X524292Y505706D01*
X524348Y505557D01*
X524407Y505409D01*
X524470Y505263D01*
X524536Y505118D01*
X524606Y504975D01*
X524679Y504833D01*
X524756Y504694D01*
X524836Y504556D01*
X524920Y504420D01*
X525007Y504287D01*
X525097Y504155D01*
X525190Y504026D01*
X525287Y503900D01*
X525386Y503775D01*
X525489Y503653D01*
X525594Y503534D01*
X525703Y503417D01*
X525814Y503303D01*
X525928Y503192D01*
X526045Y503083D01*
X526164Y502978D01*
X526286Y502875D01*
X526411Y502776D01*
X526537Y502679D01*
X526666Y502586D01*
X526798Y502496D01*
X526931Y502409D01*
X527067Y502325D01*
X527205Y502245D01*
X527344Y502168D01*
X527486Y502095D01*
X527629Y502025D01*
X527774Y501959D01*
X527920Y501896D01*
X528068Y501837D01*
X528217Y501781D01*
X528368Y501730D01*
X528520Y501682D01*
X528673Y501637D01*
X528827Y501597D01*
X528982Y501560D01*
X529138Y501527D01*
X529294Y501498D01*
X529452Y501472D01*
X529609Y501451D01*
X529768Y501433D01*
X529926Y501420D01*
X530086Y501410D01*
X530245Y501404D01*
X530404Y501402D01*
X536895Y501402D01*
X529106Y501402D02*
X523913Y491016D01*
X515384Y491016D02*
X515384Y514384D01*
X502402Y491016D01*
X502402Y514384D01*
X481954Y514384D02*
X481954Y491016D01*
X481954Y514384D02*
X471568Y514384D01*
X471568Y503998D02*
X481954Y503998D01*
X464579Y507893D02*
X464579Y497507D01*
X464579Y507893D02*
X464577Y508052D01*
X464571Y508211D01*
X464561Y508371D01*
X464548Y508529D01*
X464530Y508688D01*
X464509Y508845D01*
X464483Y509003D01*
X464454Y509159D01*
X464421Y509315D01*
X464384Y509470D01*
X464344Y509624D01*
X464299Y509777D01*
X464251Y509929D01*
X464200Y510080D01*
X464144Y510229D01*
X464085Y510377D01*
X464022Y510523D01*
X463956Y510668D01*
X463886Y510811D01*
X463813Y510953D01*
X463736Y511092D01*
X463656Y511230D01*
X463572Y511366D01*
X463485Y511499D01*
X463395Y511631D01*
X463302Y511760D01*
X463205Y511886D01*
X463106Y512011D01*
X463003Y512133D01*
X462898Y512252D01*
X462789Y512369D01*
X462678Y512483D01*
X462564Y512594D01*
X462447Y512703D01*
X462328Y512808D01*
X462206Y512911D01*
X462081Y513010D01*
X461955Y513107D01*
X461826Y513200D01*
X461694Y513290D01*
X461561Y513377D01*
X461425Y513461D01*
X461287Y513541D01*
X461148Y513618D01*
X461006Y513691D01*
X460863Y513761D01*
X460718Y513827D01*
X460572Y513890D01*
X460424Y513949D01*
X460275Y514005D01*
X460124Y514056D01*
X459972Y514104D01*
X459819Y514149D01*
X459665Y514189D01*
X459510Y514226D01*
X459354Y514259D01*
X459198Y514288D01*
X459040Y514314D01*
X458883Y514335D01*
X458724Y514353D01*
X458566Y514366D01*
X458406Y514376D01*
X458247Y514382D01*
X458088Y514384D01*
X457929Y514382D01*
X457770Y514376D01*
X457610Y514366D01*
X457452Y514353D01*
X457293Y514335D01*
X457136Y514314D01*
X456978Y514288D01*
X456822Y514259D01*
X456666Y514226D01*
X456511Y514189D01*
X456357Y514149D01*
X456204Y514104D01*
X456052Y514056D01*
X455901Y514005D01*
X455752Y513949D01*
X455604Y513890D01*
X455458Y513827D01*
X455313Y513761D01*
X455170Y513691D01*
X455028Y513618D01*
X454889Y513541D01*
X454751Y513461D01*
X454615Y513377D01*
X454482Y513290D01*
X454350Y513200D01*
X454221Y513107D01*
X454095Y513010D01*
X453970Y512911D01*
X453848Y512808D01*
X453729Y512703D01*
X453612Y512594D01*
X453498Y512483D01*
X453387Y512369D01*
X453278Y512252D01*
X453173Y512133D01*
X453070Y512011D01*
X452971Y511886D01*
X452874Y511760D01*
X452781Y511631D01*
X452691Y511499D01*
X452604Y511366D01*
X452520Y511230D01*
X452440Y511092D01*
X452363Y510953D01*
X452290Y510811D01*
X452220Y510668D01*
X452154Y510523D01*
X452091Y510377D01*
X452032Y510229D01*
X451976Y510080D01*
X451925Y509929D01*
X451877Y509777D01*
X451832Y509624D01*
X451792Y509470D01*
X451755Y509315D01*
X451722Y509159D01*
X451693Y509003D01*
X451667Y508845D01*
X451646Y508688D01*
X451628Y508529D01*
X451615Y508371D01*
X451605Y508211D01*
X451599Y508052D01*
X451597Y507893D01*
X451597Y497507D01*
X451599Y497348D01*
X451605Y497189D01*
X451615Y497029D01*
X451628Y496871D01*
X451646Y496712D01*
X451667Y496555D01*
X451693Y496397D01*
X451722Y496241D01*
X451755Y496085D01*
X451792Y495930D01*
X451832Y495776D01*
X451877Y495623D01*
X451925Y495471D01*
X451976Y495320D01*
X452032Y495171D01*
X452091Y495023D01*
X452154Y494877D01*
X452220Y494732D01*
X452290Y494589D01*
X452363Y494447D01*
X452440Y494308D01*
X452520Y494170D01*
X452604Y494034D01*
X452691Y493901D01*
X452781Y493769D01*
X452874Y493640D01*
X452971Y493514D01*
X453070Y493389D01*
X453173Y493267D01*
X453278Y493148D01*
X453387Y493031D01*
X453498Y492917D01*
X453612Y492806D01*
X453729Y492697D01*
X453848Y492592D01*
X453970Y492489D01*
X454095Y492390D01*
X454221Y492293D01*
X454350Y492200D01*
X454482Y492110D01*
X454615Y492023D01*
X454751Y491939D01*
X454889Y491859D01*
X455028Y491782D01*
X455170Y491709D01*
X455313Y491639D01*
X455458Y491573D01*
X455604Y491510D01*
X455752Y491451D01*
X455901Y491395D01*
X456052Y491344D01*
X456204Y491296D01*
X456357Y491251D01*
X456511Y491211D01*
X456666Y491174D01*
X456822Y491141D01*
X456978Y491112D01*
X457136Y491086D01*
X457293Y491065D01*
X457452Y491047D01*
X457610Y491034D01*
X457770Y491024D01*
X457929Y491018D01*
X458088Y491016D01*
X458247Y491018D01*
X458406Y491024D01*
X458566Y491034D01*
X458724Y491047D01*
X458883Y491065D01*
X459040Y491086D01*
X459198Y491112D01*
X459354Y491141D01*
X459510Y491174D01*
X459665Y491211D01*
X459819Y491251D01*
X459972Y491296D01*
X460124Y491344D01*
X460275Y491395D01*
X460424Y491451D01*
X460572Y491510D01*
X460718Y491573D01*
X460863Y491639D01*
X461006Y491709D01*
X461148Y491782D01*
X461287Y491859D01*
X461425Y491939D01*
X461561Y492023D01*
X461694Y492110D01*
X461826Y492200D01*
X461955Y492293D01*
X462081Y492390D01*
X462206Y492489D01*
X462328Y492592D01*
X462447Y492697D01*
X462564Y492806D01*
X462678Y492917D01*
X462789Y493031D01*
X462898Y493148D01*
X463003Y493267D01*
X463106Y493389D01*
X463205Y493514D01*
X463302Y493640D01*
X463395Y493769D01*
X463485Y493901D01*
X463572Y494034D01*
X463656Y494170D01*
X463736Y494308D01*
X463813Y494447D01*
X463886Y494589D01*
X463956Y494732D01*
X464022Y494877D01*
X464085Y495023D01*
X464144Y495171D01*
X464200Y495320D01*
X464251Y495471D01*
X464299Y495623D01*
X464344Y495776D01*
X464384Y495930D01*
X464421Y496085D01*
X464454Y496241D01*
X464483Y496397D01*
X464509Y496555D01*
X464530Y496712D01*
X464548Y496871D01*
X464561Y497029D01*
X464571Y497189D01*
X464577Y497348D01*
X464579Y497507D01*
X442941Y491016D02*
X442941Y514384D01*
X436450Y514384D01*
X436291Y514382D01*
X436132Y514376D01*
X435972Y514366D01*
X435814Y514353D01*
X435655Y514335D01*
X435498Y514314D01*
X435340Y514288D01*
X435184Y514259D01*
X435028Y514226D01*
X434873Y514189D01*
X434719Y514149D01*
X434566Y514104D01*
X434414Y514056D01*
X434263Y514005D01*
X434114Y513949D01*
X433966Y513890D01*
X433820Y513827D01*
X433675Y513761D01*
X433532Y513691D01*
X433390Y513618D01*
X433251Y513541D01*
X433113Y513461D01*
X432977Y513377D01*
X432844Y513290D01*
X432712Y513200D01*
X432583Y513107D01*
X432457Y513010D01*
X432332Y512911D01*
X432210Y512808D01*
X432091Y512703D01*
X431974Y512594D01*
X431860Y512483D01*
X431749Y512369D01*
X431640Y512252D01*
X431535Y512133D01*
X431432Y512011D01*
X431333Y511886D01*
X431236Y511760D01*
X431143Y511631D01*
X431053Y511499D01*
X430966Y511366D01*
X430882Y511230D01*
X430802Y511092D01*
X430725Y510953D01*
X430652Y510811D01*
X430582Y510668D01*
X430516Y510523D01*
X430453Y510377D01*
X430394Y510229D01*
X430338Y510080D01*
X430287Y509929D01*
X430239Y509777D01*
X430194Y509624D01*
X430154Y509470D01*
X430117Y509315D01*
X430084Y509159D01*
X430055Y509003D01*
X430029Y508845D01*
X430008Y508688D01*
X429990Y508529D01*
X429977Y508371D01*
X429967Y508211D01*
X429961Y508052D01*
X429959Y507893D01*
X429961Y507734D01*
X429967Y507575D01*
X429977Y507415D01*
X429990Y507257D01*
X430008Y507098D01*
X430029Y506941D01*
X430055Y506783D01*
X430084Y506627D01*
X430117Y506471D01*
X430154Y506316D01*
X430194Y506162D01*
X430239Y506009D01*
X430287Y505857D01*
X430338Y505706D01*
X430394Y505557D01*
X430453Y505409D01*
X430516Y505263D01*
X430582Y505118D01*
X430652Y504975D01*
X430725Y504833D01*
X430802Y504694D01*
X430882Y504556D01*
X430966Y504420D01*
X431053Y504287D01*
X431143Y504155D01*
X431236Y504026D01*
X431333Y503900D01*
X431432Y503775D01*
X431535Y503653D01*
X431640Y503534D01*
X431749Y503417D01*
X431860Y503303D01*
X431974Y503192D01*
X432091Y503083D01*
X432210Y502978D01*
X432332Y502875D01*
X432457Y502776D01*
X432583Y502679D01*
X432712Y502586D01*
X432844Y502496D01*
X432977Y502409D01*
X433113Y502325D01*
X433251Y502245D01*
X433390Y502168D01*
X433532Y502095D01*
X433675Y502025D01*
X433820Y501959D01*
X433966Y501896D01*
X434114Y501837D01*
X434263Y501781D01*
X434414Y501730D01*
X434566Y501682D01*
X434719Y501637D01*
X434873Y501597D01*
X435028Y501560D01*
X435184Y501527D01*
X435340Y501498D01*
X435498Y501472D01*
X435655Y501451D01*
X435814Y501433D01*
X435972Y501420D01*
X436132Y501410D01*
X436291Y501404D01*
X436450Y501402D01*
X442941Y501402D01*
X435152Y501402D02*
X429959Y491016D01*
X421336Y491016D02*
X421336Y514384D01*
X413547Y501402D01*
X405758Y514384D01*
X405758Y491016D01*
X396376Y497507D02*
X396376Y514384D01*
X396375Y497507D02*
X396373Y497348D01*
X396367Y497189D01*
X396357Y497029D01*
X396344Y496871D01*
X396326Y496712D01*
X396305Y496555D01*
X396279Y496397D01*
X396250Y496241D01*
X396217Y496085D01*
X396180Y495930D01*
X396140Y495776D01*
X396095Y495623D01*
X396047Y495471D01*
X395996Y495320D01*
X395940Y495171D01*
X395881Y495023D01*
X395818Y494877D01*
X395752Y494732D01*
X395682Y494589D01*
X395609Y494447D01*
X395532Y494308D01*
X395452Y494170D01*
X395368Y494034D01*
X395281Y493901D01*
X395191Y493769D01*
X395098Y493640D01*
X395001Y493514D01*
X394902Y493389D01*
X394799Y493267D01*
X394694Y493148D01*
X394585Y493031D01*
X394474Y492917D01*
X394360Y492806D01*
X394243Y492697D01*
X394124Y492592D01*
X394002Y492489D01*
X393877Y492390D01*
X393751Y492293D01*
X393622Y492200D01*
X393490Y492110D01*
X393357Y492023D01*
X393221Y491939D01*
X393083Y491859D01*
X392944Y491782D01*
X392802Y491709D01*
X392659Y491639D01*
X392514Y491573D01*
X392368Y491510D01*
X392220Y491451D01*
X392071Y491395D01*
X391920Y491344D01*
X391768Y491296D01*
X391615Y491251D01*
X391461Y491211D01*
X391306Y491174D01*
X391150Y491141D01*
X390994Y491112D01*
X390836Y491086D01*
X390679Y491065D01*
X390520Y491047D01*
X390362Y491034D01*
X390202Y491024D01*
X390043Y491018D01*
X389884Y491016D01*
X389725Y491018D01*
X389566Y491024D01*
X389406Y491034D01*
X389248Y491047D01*
X389089Y491065D01*
X388932Y491086D01*
X388774Y491112D01*
X388618Y491141D01*
X388462Y491174D01*
X388307Y491211D01*
X388153Y491251D01*
X388000Y491296D01*
X387848Y491344D01*
X387697Y491395D01*
X387548Y491451D01*
X387400Y491510D01*
X387254Y491573D01*
X387109Y491639D01*
X386966Y491709D01*
X386824Y491782D01*
X386685Y491859D01*
X386547Y491939D01*
X386411Y492023D01*
X386278Y492110D01*
X386146Y492200D01*
X386017Y492293D01*
X385891Y492390D01*
X385766Y492489D01*
X385644Y492592D01*
X385525Y492697D01*
X385408Y492806D01*
X385294Y492917D01*
X385183Y493031D01*
X385074Y493148D01*
X384969Y493267D01*
X384866Y493389D01*
X384767Y493514D01*
X384670Y493640D01*
X384577Y493769D01*
X384487Y493901D01*
X384400Y494034D01*
X384316Y494170D01*
X384236Y494308D01*
X384159Y494447D01*
X384086Y494589D01*
X384016Y494732D01*
X383950Y494877D01*
X383887Y495023D01*
X383828Y495171D01*
X383772Y495320D01*
X383721Y495471D01*
X383673Y495623D01*
X383628Y495776D01*
X383588Y495930D01*
X383551Y496085D01*
X383518Y496241D01*
X383489Y496397D01*
X383463Y496555D01*
X383442Y496712D01*
X383424Y496871D01*
X383411Y497029D01*
X383401Y497189D01*
X383395Y497348D01*
X383393Y497507D01*
X383393Y514384D01*
X374080Y514384D02*
X374080Y491016D01*
X363695Y491016D01*
X358004Y491016D02*
X350215Y514384D01*
X342425Y491016D01*
X344373Y496858D02*
X356057Y496858D01*
X323932Y491016D02*
X323932Y514384D01*
X317441Y514384D01*
X317282Y514382D01*
X317123Y514376D01*
X316963Y514366D01*
X316805Y514353D01*
X316646Y514335D01*
X316489Y514314D01*
X316331Y514288D01*
X316175Y514259D01*
X316019Y514226D01*
X315864Y514189D01*
X315710Y514149D01*
X315557Y514104D01*
X315405Y514056D01*
X315254Y514005D01*
X315105Y513949D01*
X314957Y513890D01*
X314811Y513827D01*
X314666Y513761D01*
X314523Y513691D01*
X314381Y513618D01*
X314242Y513541D01*
X314104Y513461D01*
X313968Y513377D01*
X313835Y513290D01*
X313703Y513200D01*
X313574Y513107D01*
X313448Y513010D01*
X313323Y512911D01*
X313201Y512808D01*
X313082Y512703D01*
X312965Y512594D01*
X312851Y512483D01*
X312740Y512369D01*
X312631Y512252D01*
X312526Y512133D01*
X312423Y512011D01*
X312324Y511886D01*
X312227Y511760D01*
X312134Y511631D01*
X312044Y511499D01*
X311957Y511366D01*
X311873Y511230D01*
X311793Y511092D01*
X311716Y510953D01*
X311643Y510811D01*
X311573Y510668D01*
X311507Y510523D01*
X311444Y510377D01*
X311385Y510229D01*
X311329Y510080D01*
X311278Y509929D01*
X311230Y509777D01*
X311185Y509624D01*
X311145Y509470D01*
X311108Y509315D01*
X311075Y509159D01*
X311046Y509003D01*
X311020Y508845D01*
X310999Y508688D01*
X310981Y508529D01*
X310968Y508371D01*
X310958Y508211D01*
X310952Y508052D01*
X310950Y507893D01*
X310952Y507734D01*
X310958Y507575D01*
X310968Y507415D01*
X310981Y507257D01*
X310999Y507098D01*
X311020Y506941D01*
X311046Y506783D01*
X311075Y506627D01*
X311108Y506471D01*
X311145Y506316D01*
X311185Y506162D01*
X311230Y506009D01*
X311278Y505857D01*
X311329Y505706D01*
X311385Y505557D01*
X311444Y505409D01*
X311507Y505263D01*
X311573Y505118D01*
X311643Y504975D01*
X311716Y504833D01*
X311793Y504694D01*
X311873Y504556D01*
X311957Y504420D01*
X312044Y504287D01*
X312134Y504155D01*
X312227Y504026D01*
X312324Y503900D01*
X312423Y503775D01*
X312526Y503653D01*
X312631Y503534D01*
X312740Y503417D01*
X312851Y503303D01*
X312965Y503192D01*
X313082Y503083D01*
X313201Y502978D01*
X313323Y502875D01*
X313448Y502776D01*
X313574Y502679D01*
X313703Y502586D01*
X313835Y502496D01*
X313968Y502409D01*
X314104Y502325D01*
X314242Y502245D01*
X314381Y502168D01*
X314523Y502095D01*
X314666Y502025D01*
X314811Y501959D01*
X314957Y501896D01*
X315105Y501837D01*
X315254Y501781D01*
X315405Y501730D01*
X315557Y501682D01*
X315710Y501637D01*
X315864Y501597D01*
X316019Y501560D01*
X316175Y501527D01*
X316331Y501498D01*
X316489Y501472D01*
X316646Y501451D01*
X316805Y501433D01*
X316963Y501420D01*
X317123Y501410D01*
X317282Y501404D01*
X317441Y501402D01*
X323932Y501402D01*
X316143Y501402D02*
X310950Y491016D01*
X304415Y491016D02*
X296626Y514384D01*
X288837Y491016D01*
X290784Y496858D02*
X302468Y496858D01*
X277069Y491016D02*
X271876Y491016D01*
X277069Y491016D02*
X277212Y491018D01*
X277355Y491024D01*
X277498Y491034D01*
X277640Y491048D01*
X277782Y491065D01*
X277924Y491087D01*
X278065Y491112D01*
X278205Y491142D01*
X278344Y491175D01*
X278482Y491212D01*
X278619Y491253D01*
X278755Y491297D01*
X278890Y491346D01*
X279023Y491398D01*
X279155Y491453D01*
X279285Y491513D01*
X279414Y491576D01*
X279541Y491642D01*
X279666Y491712D01*
X279788Y491785D01*
X279909Y491862D01*
X280028Y491942D01*
X280144Y492025D01*
X280259Y492111D01*
X280370Y492200D01*
X280480Y492293D01*
X280586Y492388D01*
X280690Y492487D01*
X280791Y492588D01*
X280890Y492692D01*
X280985Y492798D01*
X281078Y492908D01*
X281167Y493019D01*
X281253Y493134D01*
X281336Y493250D01*
X281416Y493369D01*
X281493Y493490D01*
X281566Y493612D01*
X281636Y493737D01*
X281702Y493864D01*
X281765Y493993D01*
X281825Y494123D01*
X281880Y494255D01*
X281932Y494388D01*
X281981Y494523D01*
X282025Y494659D01*
X282066Y494796D01*
X282103Y494934D01*
X282136Y495073D01*
X282166Y495213D01*
X282191Y495354D01*
X282213Y495496D01*
X282230Y495638D01*
X282244Y495780D01*
X282254Y495923D01*
X282260Y496066D01*
X282262Y496209D01*
X282262Y509191D01*
X282260Y509334D01*
X282254Y509477D01*
X282244Y509620D01*
X282230Y509762D01*
X282213Y509904D01*
X282191Y510046D01*
X282166Y510187D01*
X282136Y510327D01*
X282103Y510466D01*
X282066Y510604D01*
X282025Y510741D01*
X281981Y510877D01*
X281932Y511012D01*
X281880Y511145D01*
X281825Y511277D01*
X281765Y511407D01*
X281702Y511536D01*
X281636Y511663D01*
X281566Y511788D01*
X281493Y511910D01*
X281416Y512031D01*
X281336Y512150D01*
X281253Y512266D01*
X281167Y512381D01*
X281078Y512492D01*
X280985Y512602D01*
X280890Y512708D01*
X280791Y512812D01*
X280690Y512913D01*
X280586Y513012D01*
X280480Y513107D01*
X280370Y513200D01*
X280259Y513289D01*
X280144Y513375D01*
X280028Y513458D01*
X279909Y513538D01*
X279788Y513615D01*
X279666Y513688D01*
X279541Y513758D01*
X279414Y513824D01*
X279285Y513887D01*
X279155Y513947D01*
X279023Y514002D01*
X278890Y514054D01*
X278755Y514103D01*
X278619Y514147D01*
X278482Y514188D01*
X278344Y514225D01*
X278205Y514258D01*
X278065Y514288D01*
X277924Y514313D01*
X277782Y514335D01*
X277640Y514352D01*
X277498Y514366D01*
X277355Y514376D01*
X277212Y514382D01*
X277069Y514384D01*
X271876Y514384D01*
X262524Y514384D02*
X262524Y491016D01*
X265120Y491016D02*
X259928Y491016D01*
X259928Y514384D02*
X265120Y514384D01*
X251616Y514384D02*
X251616Y491016D01*
X238634Y491016D02*
X251616Y514384D01*
X238634Y514384D02*
X238634Y491016D01*
X220258Y503998D02*
X216363Y503998D01*
X216363Y491016D01*
X224153Y491016D01*
X224296Y491018D01*
X224439Y491024D01*
X224582Y491034D01*
X224724Y491048D01*
X224866Y491065D01*
X225008Y491087D01*
X225149Y491112D01*
X225289Y491142D01*
X225428Y491175D01*
X225566Y491212D01*
X225703Y491253D01*
X225839Y491297D01*
X225974Y491346D01*
X226107Y491398D01*
X226239Y491453D01*
X226369Y491513D01*
X226498Y491576D01*
X226625Y491642D01*
X226749Y491712D01*
X226872Y491785D01*
X226993Y491862D01*
X227112Y491942D01*
X227228Y492025D01*
X227343Y492111D01*
X227454Y492200D01*
X227564Y492293D01*
X227670Y492388D01*
X227774Y492487D01*
X227875Y492588D01*
X227974Y492692D01*
X228069Y492798D01*
X228162Y492908D01*
X228251Y493019D01*
X228337Y493134D01*
X228420Y493250D01*
X228500Y493369D01*
X228577Y493490D01*
X228650Y493612D01*
X228720Y493737D01*
X228786Y493864D01*
X228849Y493993D01*
X228909Y494123D01*
X228964Y494255D01*
X229016Y494388D01*
X229065Y494523D01*
X229109Y494659D01*
X229150Y494796D01*
X229187Y494934D01*
X229220Y495073D01*
X229250Y495213D01*
X229275Y495354D01*
X229297Y495496D01*
X229314Y495638D01*
X229328Y495780D01*
X229338Y495923D01*
X229344Y496066D01*
X229346Y496209D01*
X229345Y496209D02*
X229345Y509191D01*
X229346Y509191D02*
X229344Y509334D01*
X229338Y509477D01*
X229328Y509620D01*
X229314Y509762D01*
X229297Y509904D01*
X229275Y510046D01*
X229250Y510187D01*
X229220Y510327D01*
X229187Y510466D01*
X229150Y510604D01*
X229109Y510741D01*
X229065Y510877D01*
X229016Y511012D01*
X228964Y511145D01*
X228909Y511277D01*
X228849Y511407D01*
X228786Y511536D01*
X228720Y511663D01*
X228650Y511788D01*
X228577Y511910D01*
X228500Y512031D01*
X228420Y512150D01*
X228337Y512266D01*
X228251Y512381D01*
X228162Y512492D01*
X228069Y512602D01*
X227974Y512708D01*
X227875Y512812D01*
X227774Y512913D01*
X227670Y513012D01*
X227564Y513107D01*
X227454Y513200D01*
X227343Y513289D01*
X227228Y513375D01*
X227112Y513458D01*
X226993Y513538D01*
X226872Y513615D01*
X226750Y513688D01*
X226625Y513758D01*
X226498Y513824D01*
X226369Y513887D01*
X226239Y513947D01*
X226107Y514002D01*
X225974Y514054D01*
X225839Y514103D01*
X225703Y514147D01*
X225566Y514188D01*
X225428Y514225D01*
X225289Y514258D01*
X225149Y514288D01*
X225008Y514313D01*
X224866Y514335D01*
X224724Y514352D01*
X224582Y514366D01*
X224439Y514376D01*
X224296Y514382D01*
X224153Y514384D01*
X216363Y514384D01*
D11*
X399238Y610762D02*
X399238Y627018D01*
X394722Y627018D01*
X394589Y627016D01*
X394457Y627010D01*
X394325Y627000D01*
X394193Y626987D01*
X394061Y626969D01*
X393931Y626948D01*
X393800Y626923D01*
X393671Y626894D01*
X393543Y626861D01*
X393415Y626825D01*
X393289Y626785D01*
X393164Y626741D01*
X393040Y626693D01*
X392918Y626642D01*
X392797Y626587D01*
X392678Y626529D01*
X392560Y626467D01*
X392445Y626402D01*
X392331Y626333D01*
X392220Y626262D01*
X392111Y626186D01*
X392004Y626108D01*
X391899Y626027D01*
X391797Y625942D01*
X391697Y625855D01*
X391600Y625765D01*
X391505Y625672D01*
X391414Y625576D01*
X391325Y625478D01*
X391239Y625377D01*
X391156Y625273D01*
X391076Y625167D01*
X391000Y625059D01*
X390926Y624949D01*
X390856Y624836D01*
X390789Y624722D01*
X390726Y624605D01*
X390666Y624487D01*
X390609Y624367D01*
X390556Y624245D01*
X390507Y624122D01*
X390461Y623998D01*
X390419Y623872D01*
X390381Y623745D01*
X390346Y623617D01*
X390315Y623488D01*
X390288Y623359D01*
X390265Y623228D01*
X390245Y623097D01*
X390230Y622965D01*
X390218Y622833D01*
X390210Y622701D01*
X390206Y622568D01*
X390206Y622436D01*
X390210Y622303D01*
X390218Y622171D01*
X390230Y622039D01*
X390245Y621907D01*
X390265Y621776D01*
X390288Y621645D01*
X390315Y621516D01*
X390346Y621387D01*
X390381Y621259D01*
X390419Y621132D01*
X390461Y621006D01*
X390507Y620882D01*
X390556Y620759D01*
X390609Y620637D01*
X390666Y620517D01*
X390726Y620399D01*
X390789Y620282D01*
X390856Y620168D01*
X390926Y620055D01*
X391000Y619945D01*
X391076Y619837D01*
X391156Y619731D01*
X391239Y619627D01*
X391325Y619526D01*
X391414Y619428D01*
X391505Y619332D01*
X391600Y619239D01*
X391697Y619149D01*
X391797Y619062D01*
X391899Y618977D01*
X392004Y618896D01*
X392111Y618818D01*
X392220Y618742D01*
X392331Y618671D01*
X392445Y618602D01*
X392560Y618537D01*
X392678Y618475D01*
X392797Y618417D01*
X392918Y618362D01*
X393040Y618311D01*
X393164Y618263D01*
X393289Y618219D01*
X393415Y618179D01*
X393543Y618143D01*
X393671Y618110D01*
X393800Y618081D01*
X393931Y618056D01*
X394061Y618035D01*
X394193Y618017D01*
X394325Y618004D01*
X394457Y617994D01*
X394589Y617988D01*
X394722Y617986D01*
X394722Y617987D02*
X399238Y617987D01*
X393819Y617987D02*
X390207Y610762D01*
X383148Y610762D02*
X375923Y610762D01*
X383148Y610762D02*
X383148Y627018D01*
X375923Y627018D01*
X377729Y619793D02*
X383148Y619793D01*
X371054Y627018D02*
X365636Y610762D01*
X360217Y627018D01*
X354520Y610762D02*
X350005Y610762D01*
X349872Y610764D01*
X349740Y610770D01*
X349608Y610780D01*
X349476Y610793D01*
X349344Y610811D01*
X349214Y610832D01*
X349083Y610857D01*
X348954Y610886D01*
X348826Y610919D01*
X348698Y610955D01*
X348572Y610995D01*
X348447Y611039D01*
X348323Y611087D01*
X348201Y611138D01*
X348080Y611193D01*
X347961Y611251D01*
X347843Y611313D01*
X347728Y611378D01*
X347614Y611447D01*
X347503Y611518D01*
X347394Y611594D01*
X347287Y611672D01*
X347182Y611753D01*
X347080Y611838D01*
X346980Y611925D01*
X346883Y612015D01*
X346788Y612108D01*
X346697Y612204D01*
X346608Y612302D01*
X346522Y612403D01*
X346439Y612507D01*
X346359Y612613D01*
X346283Y612721D01*
X346209Y612831D01*
X346139Y612944D01*
X346072Y613058D01*
X346009Y613175D01*
X345949Y613293D01*
X345892Y613413D01*
X345839Y613535D01*
X345790Y613658D01*
X345744Y613782D01*
X345702Y613908D01*
X345664Y614035D01*
X345629Y614163D01*
X345598Y614292D01*
X345571Y614421D01*
X345548Y614552D01*
X345528Y614683D01*
X345513Y614815D01*
X345501Y614947D01*
X345493Y615079D01*
X345489Y615212D01*
X345489Y615344D01*
X345493Y615477D01*
X345501Y615609D01*
X345513Y615741D01*
X345528Y615873D01*
X345548Y616004D01*
X345571Y616135D01*
X345598Y616264D01*
X345629Y616393D01*
X345664Y616521D01*
X345702Y616648D01*
X345744Y616774D01*
X345790Y616898D01*
X345839Y617021D01*
X345892Y617143D01*
X345949Y617263D01*
X346009Y617381D01*
X346072Y617498D01*
X346139Y617612D01*
X346209Y617725D01*
X346283Y617835D01*
X346359Y617943D01*
X346439Y618049D01*
X346522Y618153D01*
X346608Y618254D01*
X346697Y618352D01*
X346788Y618448D01*
X346883Y618541D01*
X346980Y618631D01*
X347080Y618718D01*
X347182Y618803D01*
X347287Y618884D01*
X347394Y618962D01*
X347503Y619038D01*
X347614Y619109D01*
X347728Y619178D01*
X347843Y619243D01*
X347961Y619305D01*
X348080Y619363D01*
X348201Y619418D01*
X348323Y619469D01*
X348447Y619517D01*
X348572Y619561D01*
X348698Y619601D01*
X348826Y619637D01*
X348954Y619670D01*
X349083Y619699D01*
X349214Y619724D01*
X349344Y619745D01*
X349476Y619763D01*
X349608Y619776D01*
X349740Y619786D01*
X349872Y619792D01*
X350005Y619794D01*
X349101Y627018D02*
X354520Y627018D01*
X349101Y627018D02*
X348982Y627016D01*
X348862Y627010D01*
X348743Y627000D01*
X348625Y626986D01*
X348506Y626969D01*
X348389Y626947D01*
X348272Y626922D01*
X348157Y626892D01*
X348042Y626859D01*
X347928Y626822D01*
X347816Y626782D01*
X347705Y626737D01*
X347596Y626689D01*
X347488Y626638D01*
X347382Y626583D01*
X347278Y626524D01*
X347176Y626462D01*
X347076Y626397D01*
X346978Y626328D01*
X346882Y626256D01*
X346789Y626181D01*
X346699Y626104D01*
X346611Y626023D01*
X346526Y625939D01*
X346444Y625852D01*
X346364Y625763D01*
X346288Y625671D01*
X346214Y625577D01*
X346144Y625480D01*
X346077Y625382D01*
X346013Y625281D01*
X345953Y625177D01*
X345896Y625072D01*
X345843Y624965D01*
X345793Y624857D01*
X345747Y624747D01*
X345705Y624635D01*
X345666Y624522D01*
X345631Y624408D01*
X345600Y624293D01*
X345572Y624176D01*
X345549Y624059D01*
X345529Y623942D01*
X345513Y623823D01*
X345501Y623704D01*
X345493Y623585D01*
X345489Y623466D01*
X345489Y623346D01*
X345493Y623227D01*
X345501Y623108D01*
X345513Y622989D01*
X345529Y622870D01*
X345549Y622753D01*
X345572Y622636D01*
X345600Y622519D01*
X345631Y622404D01*
X345666Y622290D01*
X345705Y622177D01*
X345747Y622065D01*
X345793Y621955D01*
X345843Y621847D01*
X345896Y621740D01*
X345953Y621635D01*
X346013Y621531D01*
X346077Y621430D01*
X346144Y621332D01*
X346214Y621235D01*
X346288Y621141D01*
X346364Y621049D01*
X346444Y620960D01*
X346526Y620873D01*
X346611Y620789D01*
X346699Y620708D01*
X346789Y620631D01*
X346882Y620556D01*
X346978Y620484D01*
X347076Y620415D01*
X347176Y620350D01*
X347278Y620288D01*
X347382Y620229D01*
X347488Y620174D01*
X347596Y620123D01*
X347705Y620075D01*
X347816Y620030D01*
X347928Y619990D01*
X348042Y619953D01*
X348157Y619920D01*
X348272Y619890D01*
X348389Y619865D01*
X348506Y619843D01*
X348625Y619826D01*
X348743Y619812D01*
X348862Y619802D01*
X348982Y619796D01*
X349101Y619794D01*
X349101Y619793D02*
X352714Y619793D01*
X339568Y610762D02*
X338664Y610762D01*
X339568Y610762D02*
X339568Y611665D01*
X338664Y611665D01*
X338664Y610762D01*
X340019Y607150D01*
X323568Y619793D02*
X319052Y619793D01*
X319052Y619794D02*
X318919Y619792D01*
X318787Y619786D01*
X318655Y619776D01*
X318523Y619763D01*
X318391Y619745D01*
X318261Y619724D01*
X318130Y619699D01*
X318001Y619670D01*
X317873Y619637D01*
X317745Y619601D01*
X317619Y619561D01*
X317494Y619517D01*
X317370Y619469D01*
X317248Y619418D01*
X317127Y619363D01*
X317008Y619305D01*
X316890Y619243D01*
X316775Y619178D01*
X316661Y619109D01*
X316550Y619038D01*
X316441Y618962D01*
X316334Y618884D01*
X316229Y618803D01*
X316127Y618718D01*
X316027Y618631D01*
X315930Y618541D01*
X315835Y618448D01*
X315744Y618352D01*
X315655Y618254D01*
X315569Y618153D01*
X315486Y618049D01*
X315406Y617943D01*
X315330Y617835D01*
X315256Y617725D01*
X315186Y617612D01*
X315119Y617498D01*
X315056Y617381D01*
X314996Y617263D01*
X314939Y617143D01*
X314886Y617021D01*
X314837Y616898D01*
X314791Y616774D01*
X314749Y616648D01*
X314711Y616521D01*
X314676Y616393D01*
X314645Y616264D01*
X314618Y616135D01*
X314595Y616004D01*
X314575Y615873D01*
X314560Y615741D01*
X314548Y615609D01*
X314540Y615477D01*
X314536Y615344D01*
X314536Y615212D01*
X314540Y615079D01*
X314548Y614947D01*
X314560Y614815D01*
X314575Y614683D01*
X314595Y614552D01*
X314618Y614421D01*
X314645Y614292D01*
X314676Y614163D01*
X314711Y614035D01*
X314749Y613908D01*
X314791Y613782D01*
X314837Y613658D01*
X314886Y613535D01*
X314939Y613413D01*
X314996Y613293D01*
X315056Y613175D01*
X315119Y613058D01*
X315186Y612944D01*
X315256Y612831D01*
X315330Y612721D01*
X315406Y612613D01*
X315486Y612507D01*
X315569Y612403D01*
X315655Y612302D01*
X315744Y612204D01*
X315835Y612108D01*
X315930Y612015D01*
X316027Y611925D01*
X316127Y611838D01*
X316229Y611753D01*
X316334Y611672D01*
X316441Y611594D01*
X316550Y611518D01*
X316661Y611447D01*
X316775Y611378D01*
X316890Y611313D01*
X317008Y611251D01*
X317127Y611193D01*
X317248Y611138D01*
X317370Y611087D01*
X317494Y611039D01*
X317619Y610995D01*
X317745Y610955D01*
X317873Y610919D01*
X318001Y610886D01*
X318130Y610857D01*
X318261Y610832D01*
X318391Y610811D01*
X318523Y610793D01*
X318655Y610780D01*
X318787Y610770D01*
X318919Y610764D01*
X319052Y610762D01*
X323568Y610762D01*
X323568Y627018D01*
X319052Y627018D01*
X318933Y627016D01*
X318813Y627010D01*
X318694Y627000D01*
X318576Y626986D01*
X318457Y626969D01*
X318340Y626947D01*
X318223Y626922D01*
X318108Y626892D01*
X317993Y626859D01*
X317879Y626822D01*
X317767Y626782D01*
X317656Y626737D01*
X317547Y626689D01*
X317439Y626638D01*
X317333Y626583D01*
X317229Y626524D01*
X317127Y626462D01*
X317027Y626397D01*
X316929Y626328D01*
X316833Y626256D01*
X316740Y626181D01*
X316650Y626104D01*
X316562Y626023D01*
X316477Y625939D01*
X316395Y625852D01*
X316315Y625763D01*
X316239Y625671D01*
X316165Y625577D01*
X316095Y625480D01*
X316028Y625382D01*
X315964Y625281D01*
X315904Y625177D01*
X315847Y625072D01*
X315794Y624965D01*
X315744Y624857D01*
X315698Y624747D01*
X315656Y624635D01*
X315617Y624522D01*
X315582Y624408D01*
X315551Y624293D01*
X315523Y624176D01*
X315500Y624059D01*
X315480Y623942D01*
X315464Y623823D01*
X315452Y623704D01*
X315444Y623585D01*
X315440Y623466D01*
X315440Y623346D01*
X315444Y623227D01*
X315452Y623108D01*
X315464Y622989D01*
X315480Y622870D01*
X315500Y622753D01*
X315523Y622636D01*
X315551Y622519D01*
X315582Y622404D01*
X315617Y622290D01*
X315656Y622177D01*
X315698Y622065D01*
X315744Y621955D01*
X315794Y621847D01*
X315847Y621740D01*
X315904Y621635D01*
X315964Y621531D01*
X316028Y621430D01*
X316095Y621332D01*
X316165Y621235D01*
X316239Y621141D01*
X316315Y621049D01*
X316395Y620960D01*
X316477Y620873D01*
X316562Y620789D01*
X316650Y620708D01*
X316740Y620631D01*
X316833Y620556D01*
X316929Y620484D01*
X317027Y620415D01*
X317127Y620350D01*
X317229Y620288D01*
X317333Y620229D01*
X317439Y620174D01*
X317547Y620123D01*
X317656Y620075D01*
X317767Y620030D01*
X317879Y619990D01*
X317993Y619953D01*
X318108Y619920D01*
X318223Y619890D01*
X318340Y619865D01*
X318457Y619843D01*
X318576Y619826D01*
X318694Y619812D01*
X318813Y619802D01*
X318933Y619796D01*
X319052Y619794D01*
X308147Y615278D02*
X308147Y627018D01*
X308148Y615278D02*
X308146Y615145D01*
X308140Y615013D01*
X308130Y614881D01*
X308117Y614749D01*
X308099Y614617D01*
X308078Y614487D01*
X308053Y614356D01*
X308024Y614227D01*
X307991Y614099D01*
X307955Y613971D01*
X307915Y613845D01*
X307871Y613720D01*
X307823Y613596D01*
X307772Y613474D01*
X307717Y613353D01*
X307659Y613234D01*
X307597Y613116D01*
X307532Y613001D01*
X307463Y612887D01*
X307392Y612776D01*
X307316Y612667D01*
X307238Y612560D01*
X307157Y612455D01*
X307072Y612353D01*
X306985Y612253D01*
X306895Y612156D01*
X306802Y612061D01*
X306706Y611970D01*
X306608Y611881D01*
X306507Y611795D01*
X306403Y611712D01*
X306297Y611632D01*
X306189Y611556D01*
X306079Y611482D01*
X305966Y611412D01*
X305852Y611345D01*
X305735Y611282D01*
X305617Y611222D01*
X305497Y611165D01*
X305375Y611112D01*
X305252Y611063D01*
X305128Y611017D01*
X305002Y610975D01*
X304875Y610937D01*
X304747Y610902D01*
X304618Y610871D01*
X304489Y610844D01*
X304358Y610821D01*
X304227Y610801D01*
X304095Y610786D01*
X303963Y610774D01*
X303831Y610766D01*
X303698Y610762D01*
X303566Y610762D01*
X303433Y610766D01*
X303301Y610774D01*
X303169Y610786D01*
X303037Y610801D01*
X302906Y610821D01*
X302775Y610844D01*
X302646Y610871D01*
X302517Y610902D01*
X302389Y610937D01*
X302262Y610975D01*
X302136Y611017D01*
X302012Y611063D01*
X301889Y611112D01*
X301767Y611165D01*
X301647Y611222D01*
X301529Y611282D01*
X301412Y611345D01*
X301298Y611412D01*
X301185Y611482D01*
X301075Y611556D01*
X300967Y611632D01*
X300861Y611712D01*
X300757Y611795D01*
X300656Y611881D01*
X300558Y611970D01*
X300462Y612061D01*
X300369Y612156D01*
X300279Y612253D01*
X300192Y612353D01*
X300107Y612455D01*
X300026Y612560D01*
X299948Y612667D01*
X299872Y612776D01*
X299801Y612887D01*
X299732Y613001D01*
X299667Y613116D01*
X299605Y613234D01*
X299547Y613353D01*
X299492Y613474D01*
X299441Y613596D01*
X299393Y613720D01*
X299349Y613845D01*
X299309Y613971D01*
X299273Y614099D01*
X299240Y614227D01*
X299211Y614356D01*
X299186Y614487D01*
X299165Y614617D01*
X299147Y614749D01*
X299134Y614881D01*
X299124Y615013D01*
X299118Y615145D01*
X299116Y615278D01*
X299116Y627018D01*
X290606Y627018D02*
X290606Y610762D01*
X292412Y610762D02*
X288800Y610762D01*
X288800Y627018D02*
X292412Y627018D01*
X282066Y627018D02*
X282066Y610762D01*
X274841Y610762D01*
X268548Y610762D02*
X268548Y627018D01*
X264033Y627018D01*
X263902Y627016D01*
X263770Y627010D01*
X263639Y627001D01*
X263509Y626987D01*
X263378Y626970D01*
X263249Y626949D01*
X263120Y626925D01*
X262992Y626896D01*
X262864Y626864D01*
X262738Y626828D01*
X262613Y626789D01*
X262488Y626746D01*
X262366Y626699D01*
X262244Y626649D01*
X262124Y626595D01*
X262006Y626538D01*
X261890Y626477D01*
X261775Y626413D01*
X261662Y626346D01*
X261551Y626275D01*
X261443Y626201D01*
X261336Y626124D01*
X261232Y626044D01*
X261130Y625961D01*
X261031Y625876D01*
X260934Y625787D01*
X260840Y625695D01*
X260748Y625601D01*
X260659Y625504D01*
X260574Y625405D01*
X260491Y625303D01*
X260411Y625199D01*
X260334Y625092D01*
X260260Y624984D01*
X260189Y624873D01*
X260122Y624760D01*
X260058Y624645D01*
X259997Y624529D01*
X259940Y624411D01*
X259886Y624291D01*
X259836Y624169D01*
X259789Y624047D01*
X259746Y623922D01*
X259707Y623797D01*
X259671Y623671D01*
X259639Y623543D01*
X259610Y623415D01*
X259586Y623286D01*
X259565Y623157D01*
X259548Y623026D01*
X259534Y622896D01*
X259525Y622765D01*
X259519Y622633D01*
X259517Y622502D01*
X259517Y615278D01*
X259519Y615147D01*
X259525Y615015D01*
X259534Y614884D01*
X259548Y614754D01*
X259565Y614623D01*
X259586Y614494D01*
X259610Y614365D01*
X259639Y614237D01*
X259671Y614109D01*
X259707Y613983D01*
X259746Y613858D01*
X259789Y613733D01*
X259836Y613611D01*
X259886Y613489D01*
X259940Y613369D01*
X259997Y613251D01*
X260058Y613135D01*
X260122Y613020D01*
X260189Y612907D01*
X260260Y612796D01*
X260334Y612688D01*
X260411Y612581D01*
X260491Y612477D01*
X260574Y612375D01*
X260659Y612276D01*
X260748Y612179D01*
X260840Y612085D01*
X260934Y611993D01*
X261031Y611904D01*
X261130Y611819D01*
X261232Y611736D01*
X261336Y611656D01*
X261443Y611579D01*
X261551Y611505D01*
X261662Y611434D01*
X261775Y611367D01*
X261890Y611303D01*
X262006Y611242D01*
X262124Y611185D01*
X262244Y611131D01*
X262366Y611081D01*
X262488Y611034D01*
X262613Y610991D01*
X262738Y610952D01*
X262864Y610916D01*
X262992Y610884D01*
X263120Y610855D01*
X263249Y610831D01*
X263378Y610810D01*
X263509Y610793D01*
X263639Y610779D01*
X263770Y610770D01*
X263902Y610764D01*
X264033Y610762D01*
X268548Y610762D01*
X252396Y623406D02*
X247880Y627018D01*
X247880Y610762D01*
X243365Y610762D02*
X252396Y610762D01*
X519238Y27018D02*
X519238Y10762D01*
X512013Y10762D01*
X506242Y15278D02*
X506242Y22502D01*
X506240Y22635D01*
X506234Y22767D01*
X506224Y22899D01*
X506211Y23031D01*
X506193Y23163D01*
X506172Y23293D01*
X506147Y23424D01*
X506118Y23553D01*
X506085Y23681D01*
X506049Y23809D01*
X506009Y23935D01*
X505965Y24060D01*
X505917Y24184D01*
X505866Y24306D01*
X505811Y24427D01*
X505753Y24546D01*
X505691Y24664D01*
X505626Y24779D01*
X505557Y24893D01*
X505486Y25004D01*
X505410Y25113D01*
X505332Y25220D01*
X505251Y25325D01*
X505166Y25427D01*
X505079Y25527D01*
X504989Y25624D01*
X504896Y25719D01*
X504800Y25810D01*
X504702Y25899D01*
X504601Y25985D01*
X504497Y26068D01*
X504391Y26148D01*
X504283Y26224D01*
X504173Y26298D01*
X504060Y26368D01*
X503946Y26435D01*
X503829Y26498D01*
X503711Y26558D01*
X503591Y26615D01*
X503469Y26668D01*
X503346Y26717D01*
X503222Y26763D01*
X503096Y26805D01*
X502969Y26843D01*
X502841Y26878D01*
X502712Y26909D01*
X502583Y26936D01*
X502452Y26959D01*
X502321Y26979D01*
X502189Y26994D01*
X502057Y27006D01*
X501925Y27014D01*
X501792Y27018D01*
X501660Y27018D01*
X501527Y27014D01*
X501395Y27006D01*
X501263Y26994D01*
X501131Y26979D01*
X501000Y26959D01*
X500869Y26936D01*
X500740Y26909D01*
X500611Y26878D01*
X500483Y26843D01*
X500356Y26805D01*
X500230Y26763D01*
X500106Y26717D01*
X499983Y26668D01*
X499861Y26615D01*
X499741Y26558D01*
X499623Y26498D01*
X499506Y26435D01*
X499392Y26368D01*
X499279Y26298D01*
X499169Y26224D01*
X499061Y26148D01*
X498955Y26068D01*
X498851Y25985D01*
X498750Y25899D01*
X498652Y25810D01*
X498556Y25719D01*
X498463Y25624D01*
X498373Y25527D01*
X498286Y25427D01*
X498201Y25325D01*
X498120Y25220D01*
X498042Y25113D01*
X497966Y25004D01*
X497895Y24893D01*
X497826Y24779D01*
X497761Y24664D01*
X497699Y24546D01*
X497641Y24427D01*
X497586Y24306D01*
X497535Y24184D01*
X497487Y24060D01*
X497443Y23935D01*
X497403Y23809D01*
X497367Y23681D01*
X497334Y23553D01*
X497305Y23424D01*
X497280Y23293D01*
X497259Y23163D01*
X497241Y23031D01*
X497228Y22899D01*
X497218Y22767D01*
X497212Y22635D01*
X497210Y22502D01*
X497211Y22502D02*
X497211Y15278D01*
X497210Y15278D02*
X497212Y15145D01*
X497218Y15013D01*
X497228Y14881D01*
X497241Y14749D01*
X497259Y14617D01*
X497280Y14487D01*
X497305Y14356D01*
X497334Y14227D01*
X497367Y14099D01*
X497403Y13971D01*
X497443Y13845D01*
X497487Y13720D01*
X497535Y13596D01*
X497586Y13474D01*
X497641Y13353D01*
X497699Y13234D01*
X497761Y13116D01*
X497826Y13001D01*
X497895Y12887D01*
X497966Y12776D01*
X498042Y12667D01*
X498120Y12560D01*
X498201Y12455D01*
X498286Y12353D01*
X498373Y12253D01*
X498463Y12156D01*
X498556Y12061D01*
X498652Y11970D01*
X498750Y11881D01*
X498851Y11795D01*
X498955Y11712D01*
X499061Y11632D01*
X499169Y11556D01*
X499279Y11482D01*
X499392Y11412D01*
X499506Y11345D01*
X499623Y11282D01*
X499741Y11222D01*
X499861Y11165D01*
X499983Y11112D01*
X500106Y11063D01*
X500230Y11017D01*
X500356Y10975D01*
X500483Y10937D01*
X500611Y10902D01*
X500740Y10871D01*
X500869Y10844D01*
X501000Y10821D01*
X501131Y10801D01*
X501263Y10786D01*
X501395Y10774D01*
X501527Y10766D01*
X501660Y10762D01*
X501792Y10762D01*
X501925Y10766D01*
X502057Y10774D01*
X502189Y10786D01*
X502321Y10801D01*
X502452Y10821D01*
X502583Y10844D01*
X502712Y10871D01*
X502841Y10902D01*
X502969Y10937D01*
X503096Y10975D01*
X503222Y11017D01*
X503346Y11063D01*
X503469Y11112D01*
X503591Y11165D01*
X503711Y11222D01*
X503829Y11282D01*
X503946Y11345D01*
X504060Y11412D01*
X504173Y11482D01*
X504283Y11556D01*
X504391Y11632D01*
X504497Y11712D01*
X504601Y11795D01*
X504702Y11881D01*
X504800Y11970D01*
X504896Y12061D01*
X504989Y12156D01*
X505079Y12253D01*
X505166Y12353D01*
X505251Y12455D01*
X505332Y12560D01*
X505410Y12667D01*
X505486Y12776D01*
X505557Y12887D01*
X505626Y13001D01*
X505691Y13116D01*
X505753Y13234D01*
X505811Y13353D01*
X505866Y13474D01*
X505917Y13596D01*
X505965Y13720D01*
X506009Y13845D01*
X506049Y13971D01*
X506085Y14099D01*
X506118Y14227D01*
X506147Y14356D01*
X506172Y14487D01*
X506193Y14617D01*
X506211Y14749D01*
X506224Y14881D01*
X506234Y15013D01*
X506240Y15145D01*
X506242Y15278D01*
X491236Y27018D02*
X487623Y10762D01*
X484011Y21599D01*
X480398Y10762D01*
X476786Y27018D01*
X463377Y27018D02*
X457959Y10762D01*
X452540Y27018D01*
X446843Y22502D02*
X446843Y15278D01*
X446844Y22502D02*
X446842Y22635D01*
X446836Y22767D01*
X446826Y22899D01*
X446813Y23031D01*
X446795Y23163D01*
X446774Y23293D01*
X446749Y23424D01*
X446720Y23553D01*
X446687Y23681D01*
X446651Y23809D01*
X446611Y23935D01*
X446567Y24060D01*
X446519Y24184D01*
X446468Y24306D01*
X446413Y24427D01*
X446355Y24546D01*
X446293Y24664D01*
X446228Y24779D01*
X446159Y24893D01*
X446088Y25004D01*
X446012Y25113D01*
X445934Y25220D01*
X445853Y25325D01*
X445768Y25427D01*
X445681Y25527D01*
X445591Y25624D01*
X445498Y25719D01*
X445402Y25810D01*
X445304Y25899D01*
X445203Y25985D01*
X445099Y26068D01*
X444993Y26148D01*
X444885Y26224D01*
X444775Y26298D01*
X444662Y26368D01*
X444548Y26435D01*
X444431Y26498D01*
X444313Y26558D01*
X444193Y26615D01*
X444071Y26668D01*
X443948Y26717D01*
X443824Y26763D01*
X443698Y26805D01*
X443571Y26843D01*
X443443Y26878D01*
X443314Y26909D01*
X443185Y26936D01*
X443054Y26959D01*
X442923Y26979D01*
X442791Y26994D01*
X442659Y27006D01*
X442527Y27014D01*
X442394Y27018D01*
X442262Y27018D01*
X442129Y27014D01*
X441997Y27006D01*
X441865Y26994D01*
X441733Y26979D01*
X441602Y26959D01*
X441471Y26936D01*
X441342Y26909D01*
X441213Y26878D01*
X441085Y26843D01*
X440958Y26805D01*
X440832Y26763D01*
X440708Y26717D01*
X440585Y26668D01*
X440463Y26615D01*
X440343Y26558D01*
X440225Y26498D01*
X440108Y26435D01*
X439994Y26368D01*
X439881Y26298D01*
X439771Y26224D01*
X439663Y26148D01*
X439557Y26068D01*
X439453Y25985D01*
X439352Y25899D01*
X439254Y25810D01*
X439158Y25719D01*
X439065Y25624D01*
X438975Y25527D01*
X438888Y25427D01*
X438803Y25325D01*
X438722Y25220D01*
X438644Y25113D01*
X438568Y25004D01*
X438497Y24893D01*
X438428Y24779D01*
X438363Y24664D01*
X438301Y24546D01*
X438243Y24427D01*
X438188Y24306D01*
X438137Y24184D01*
X438089Y24060D01*
X438045Y23935D01*
X438005Y23809D01*
X437969Y23681D01*
X437936Y23553D01*
X437907Y23424D01*
X437882Y23293D01*
X437861Y23163D01*
X437843Y23031D01*
X437830Y22899D01*
X437820Y22767D01*
X437814Y22635D01*
X437812Y22502D01*
X437812Y15278D01*
X437814Y15145D01*
X437820Y15013D01*
X437830Y14881D01*
X437843Y14749D01*
X437861Y14617D01*
X437882Y14487D01*
X437907Y14356D01*
X437936Y14227D01*
X437969Y14099D01*
X438005Y13971D01*
X438045Y13845D01*
X438089Y13720D01*
X438137Y13596D01*
X438188Y13474D01*
X438243Y13353D01*
X438301Y13234D01*
X438363Y13116D01*
X438428Y13001D01*
X438497Y12887D01*
X438568Y12776D01*
X438644Y12667D01*
X438722Y12560D01*
X438803Y12455D01*
X438888Y12353D01*
X438975Y12253D01*
X439065Y12156D01*
X439158Y12061D01*
X439254Y11970D01*
X439352Y11881D01*
X439453Y11795D01*
X439557Y11712D01*
X439663Y11632D01*
X439771Y11556D01*
X439881Y11482D01*
X439994Y11412D01*
X440108Y11345D01*
X440225Y11282D01*
X440343Y11222D01*
X440463Y11165D01*
X440585Y11112D01*
X440708Y11063D01*
X440832Y11017D01*
X440958Y10975D01*
X441085Y10937D01*
X441213Y10902D01*
X441342Y10871D01*
X441471Y10844D01*
X441602Y10821D01*
X441733Y10801D01*
X441865Y10786D01*
X441997Y10774D01*
X442129Y10766D01*
X442262Y10762D01*
X442394Y10762D01*
X442527Y10766D01*
X442659Y10774D01*
X442791Y10786D01*
X442923Y10801D01*
X443054Y10821D01*
X443185Y10844D01*
X443314Y10871D01*
X443443Y10902D01*
X443571Y10937D01*
X443698Y10975D01*
X443824Y11017D01*
X443948Y11063D01*
X444071Y11112D01*
X444193Y11165D01*
X444313Y11222D01*
X444431Y11282D01*
X444548Y11345D01*
X444662Y11412D01*
X444775Y11482D01*
X444885Y11556D01*
X444993Y11632D01*
X445099Y11712D01*
X445203Y11795D01*
X445304Y11881D01*
X445402Y11970D01*
X445498Y12061D01*
X445591Y12156D01*
X445681Y12253D01*
X445768Y12353D01*
X445853Y12455D01*
X445934Y12560D01*
X446012Y12667D01*
X446088Y12776D01*
X446159Y12887D01*
X446228Y13001D01*
X446293Y13116D01*
X446355Y13234D01*
X446413Y13353D01*
X446468Y13474D01*
X446519Y13596D01*
X446567Y13720D01*
X446611Y13845D01*
X446651Y13971D01*
X446687Y14099D01*
X446720Y14227D01*
X446749Y14356D01*
X446774Y14487D01*
X446795Y14617D01*
X446813Y14749D01*
X446826Y14881D01*
X446836Y15013D01*
X446842Y15145D01*
X446844Y15278D01*
X430661Y10762D02*
X430661Y27018D01*
X430661Y10762D02*
X423436Y10762D01*
X414191Y10762D02*
X414191Y27018D01*
X409676Y27018D02*
X418707Y27018D01*
X399602Y27018D02*
X405021Y10762D01*
X394184Y10762D02*
X399602Y27018D01*
X395538Y14826D02*
X403666Y14826D01*
X381644Y19793D02*
X378934Y19793D01*
X378934Y10762D01*
X384353Y10762D01*
X384471Y10764D01*
X384589Y10770D01*
X384707Y10779D01*
X384824Y10793D01*
X384941Y10810D01*
X385058Y10831D01*
X385173Y10856D01*
X385288Y10885D01*
X385402Y10918D01*
X385514Y10954D01*
X385625Y10994D01*
X385735Y11037D01*
X385844Y11084D01*
X385951Y11134D01*
X386056Y11189D01*
X386159Y11246D01*
X386260Y11307D01*
X386360Y11371D01*
X386457Y11438D01*
X386552Y11508D01*
X386644Y11582D01*
X386735Y11658D01*
X386822Y11738D01*
X386907Y11820D01*
X386989Y11905D01*
X387069Y11992D01*
X387145Y12083D01*
X387219Y12175D01*
X387289Y12270D01*
X387356Y12367D01*
X387420Y12467D01*
X387481Y12568D01*
X387538Y12671D01*
X387593Y12776D01*
X387643Y12883D01*
X387690Y12992D01*
X387733Y13102D01*
X387773Y13213D01*
X387809Y13325D01*
X387842Y13439D01*
X387871Y13554D01*
X387896Y13669D01*
X387917Y13786D01*
X387934Y13903D01*
X387948Y14020D01*
X387957Y14138D01*
X387963Y14256D01*
X387965Y14374D01*
X387965Y23406D01*
X387963Y23524D01*
X387957Y23642D01*
X387948Y23760D01*
X387934Y23877D01*
X387917Y23994D01*
X387896Y24111D01*
X387871Y24226D01*
X387842Y24341D01*
X387809Y24455D01*
X387773Y24567D01*
X387733Y24678D01*
X387690Y24788D01*
X387643Y24897D01*
X387593Y25004D01*
X387538Y25109D01*
X387481Y25212D01*
X387420Y25313D01*
X387356Y25413D01*
X387289Y25510D01*
X387219Y25605D01*
X387145Y25697D01*
X387069Y25788D01*
X386989Y25875D01*
X386907Y25960D01*
X386822Y26042D01*
X386735Y26122D01*
X386644Y26198D01*
X386552Y26272D01*
X386457Y26342D01*
X386360Y26409D01*
X386260Y26473D01*
X386159Y26534D01*
X386056Y26591D01*
X385951Y26646D01*
X385844Y26696D01*
X385735Y26743D01*
X385625Y26786D01*
X385514Y26826D01*
X385402Y26862D01*
X385288Y26895D01*
X385173Y26924D01*
X385058Y26949D01*
X384941Y26970D01*
X384824Y26987D01*
X384707Y27001D01*
X384589Y27010D01*
X384471Y27016D01*
X384353Y27018D01*
X378934Y27018D01*
X371262Y10762D02*
X364037Y10762D01*
X371262Y10762D02*
X371262Y27018D01*
X364037Y27018D01*
X365844Y19793D02*
X371262Y19793D01*
X889238Y27018D02*
X889238Y10762D01*
X889238Y19793D02*
X880207Y19793D01*
X880207Y27018D02*
X880207Y10762D01*
X871696Y10762D02*
X871696Y27018D01*
X873503Y10762D02*
X869890Y10762D01*
X869890Y27018D02*
X873503Y27018D01*
X856864Y19793D02*
X854155Y19793D01*
X854155Y10762D01*
X859574Y10762D01*
X859692Y10764D01*
X859810Y10770D01*
X859928Y10779D01*
X860045Y10793D01*
X860162Y10810D01*
X860279Y10831D01*
X860394Y10856D01*
X860509Y10885D01*
X860623Y10918D01*
X860735Y10954D01*
X860846Y10994D01*
X860956Y11037D01*
X861065Y11084D01*
X861172Y11134D01*
X861277Y11189D01*
X861380Y11246D01*
X861481Y11307D01*
X861581Y11371D01*
X861678Y11438D01*
X861773Y11508D01*
X861865Y11582D01*
X861956Y11658D01*
X862043Y11738D01*
X862128Y11820D01*
X862210Y11905D01*
X862290Y11992D01*
X862366Y12083D01*
X862440Y12175D01*
X862510Y12270D01*
X862577Y12367D01*
X862641Y12467D01*
X862702Y12568D01*
X862759Y12671D01*
X862814Y12776D01*
X862864Y12883D01*
X862911Y12992D01*
X862954Y13102D01*
X862994Y13213D01*
X863030Y13325D01*
X863063Y13439D01*
X863092Y13554D01*
X863117Y13669D01*
X863138Y13786D01*
X863155Y13903D01*
X863169Y14020D01*
X863178Y14138D01*
X863184Y14256D01*
X863186Y14374D01*
X863186Y23406D01*
X863184Y23524D01*
X863178Y23642D01*
X863169Y23760D01*
X863155Y23877D01*
X863138Y23994D01*
X863117Y24111D01*
X863092Y24226D01*
X863063Y24341D01*
X863030Y24455D01*
X862994Y24567D01*
X862954Y24678D01*
X862911Y24788D01*
X862864Y24897D01*
X862814Y25004D01*
X862759Y25109D01*
X862702Y25212D01*
X862641Y25313D01*
X862577Y25413D01*
X862510Y25510D01*
X862440Y25605D01*
X862366Y25697D01*
X862290Y25788D01*
X862210Y25875D01*
X862128Y25960D01*
X862043Y26042D01*
X861956Y26122D01*
X861865Y26198D01*
X861773Y26272D01*
X861678Y26342D01*
X861581Y26409D01*
X861481Y26473D01*
X861380Y26534D01*
X861277Y26591D01*
X861172Y26646D01*
X861065Y26696D01*
X860956Y26743D01*
X860846Y26786D01*
X860735Y26826D01*
X860623Y26862D01*
X860509Y26895D01*
X860394Y26924D01*
X860279Y26949D01*
X860162Y26970D01*
X860045Y26987D01*
X859928Y27001D01*
X859810Y27010D01*
X859692Y27016D01*
X859574Y27018D01*
X854155Y27018D01*
X846513Y27018D02*
X846513Y10762D01*
X846513Y19793D02*
X837482Y19793D01*
X837482Y27018D02*
X837482Y10762D01*
X817508Y10762D02*
X822927Y27018D01*
X812090Y27018D02*
X817508Y10762D01*
X806392Y15278D02*
X806392Y22502D01*
X806393Y22502D02*
X806391Y22635D01*
X806385Y22767D01*
X806375Y22899D01*
X806362Y23031D01*
X806344Y23163D01*
X806323Y23293D01*
X806298Y23424D01*
X806269Y23553D01*
X806236Y23681D01*
X806200Y23809D01*
X806160Y23935D01*
X806116Y24060D01*
X806068Y24184D01*
X806017Y24306D01*
X805962Y24427D01*
X805904Y24546D01*
X805842Y24664D01*
X805777Y24779D01*
X805708Y24893D01*
X805637Y25004D01*
X805561Y25113D01*
X805483Y25220D01*
X805402Y25325D01*
X805317Y25427D01*
X805230Y25527D01*
X805140Y25624D01*
X805047Y25719D01*
X804951Y25810D01*
X804853Y25899D01*
X804752Y25985D01*
X804648Y26068D01*
X804542Y26148D01*
X804434Y26224D01*
X804324Y26298D01*
X804211Y26368D01*
X804097Y26435D01*
X803980Y26498D01*
X803862Y26558D01*
X803742Y26615D01*
X803620Y26668D01*
X803497Y26717D01*
X803373Y26763D01*
X803247Y26805D01*
X803120Y26843D01*
X802992Y26878D01*
X802863Y26909D01*
X802734Y26936D01*
X802603Y26959D01*
X802472Y26979D01*
X802340Y26994D01*
X802208Y27006D01*
X802076Y27014D01*
X801943Y27018D01*
X801811Y27018D01*
X801678Y27014D01*
X801546Y27006D01*
X801414Y26994D01*
X801282Y26979D01*
X801151Y26959D01*
X801020Y26936D01*
X800891Y26909D01*
X800762Y26878D01*
X800634Y26843D01*
X800507Y26805D01*
X800381Y26763D01*
X800257Y26717D01*
X800134Y26668D01*
X800012Y26615D01*
X799892Y26558D01*
X799774Y26498D01*
X799657Y26435D01*
X799543Y26368D01*
X799430Y26298D01*
X799320Y26224D01*
X799212Y26148D01*
X799106Y26068D01*
X799002Y25985D01*
X798901Y25899D01*
X798803Y25810D01*
X798707Y25719D01*
X798614Y25624D01*
X798524Y25527D01*
X798437Y25427D01*
X798352Y25325D01*
X798271Y25220D01*
X798193Y25113D01*
X798117Y25004D01*
X798046Y24893D01*
X797977Y24779D01*
X797912Y24664D01*
X797850Y24546D01*
X797792Y24427D01*
X797737Y24306D01*
X797686Y24184D01*
X797638Y24060D01*
X797594Y23935D01*
X797554Y23809D01*
X797518Y23681D01*
X797485Y23553D01*
X797456Y23424D01*
X797431Y23293D01*
X797410Y23163D01*
X797392Y23031D01*
X797379Y22899D01*
X797369Y22767D01*
X797363Y22635D01*
X797361Y22502D01*
X797361Y15278D01*
X797363Y15145D01*
X797369Y15013D01*
X797379Y14881D01*
X797392Y14749D01*
X797410Y14617D01*
X797431Y14487D01*
X797456Y14356D01*
X797485Y14227D01*
X797518Y14099D01*
X797554Y13971D01*
X797594Y13845D01*
X797638Y13720D01*
X797686Y13596D01*
X797737Y13474D01*
X797792Y13353D01*
X797850Y13234D01*
X797912Y13116D01*
X797977Y13001D01*
X798046Y12887D01*
X798117Y12776D01*
X798193Y12667D01*
X798271Y12560D01*
X798352Y12455D01*
X798437Y12353D01*
X798524Y12253D01*
X798614Y12156D01*
X798707Y12061D01*
X798803Y11970D01*
X798901Y11881D01*
X799002Y11795D01*
X799106Y11712D01*
X799212Y11632D01*
X799320Y11556D01*
X799430Y11482D01*
X799543Y11412D01*
X799657Y11345D01*
X799774Y11282D01*
X799892Y11222D01*
X800012Y11165D01*
X800134Y11112D01*
X800257Y11063D01*
X800381Y11017D01*
X800507Y10975D01*
X800634Y10937D01*
X800762Y10902D01*
X800891Y10871D01*
X801020Y10844D01*
X801151Y10821D01*
X801282Y10801D01*
X801414Y10786D01*
X801546Y10774D01*
X801678Y10766D01*
X801811Y10762D01*
X801943Y10762D01*
X802076Y10766D01*
X802208Y10774D01*
X802340Y10786D01*
X802472Y10801D01*
X802603Y10821D01*
X802734Y10844D01*
X802863Y10871D01*
X802992Y10902D01*
X803120Y10937D01*
X803247Y10975D01*
X803373Y11017D01*
X803497Y11063D01*
X803620Y11112D01*
X803742Y11165D01*
X803862Y11222D01*
X803980Y11282D01*
X804097Y11345D01*
X804211Y11412D01*
X804324Y11482D01*
X804434Y11556D01*
X804542Y11632D01*
X804648Y11712D01*
X804752Y11795D01*
X804853Y11881D01*
X804951Y11970D01*
X805047Y12061D01*
X805140Y12156D01*
X805230Y12253D01*
X805317Y12353D01*
X805402Y12455D01*
X805483Y12560D01*
X805561Y12667D01*
X805637Y12776D01*
X805708Y12887D01*
X805777Y13001D01*
X805842Y13116D01*
X805904Y13234D01*
X805962Y13353D01*
X806017Y13474D01*
X806068Y13596D01*
X806116Y13720D01*
X806160Y13845D01*
X806200Y13971D01*
X806236Y14099D01*
X806269Y14227D01*
X806298Y14356D01*
X806323Y14487D01*
X806344Y14617D01*
X806362Y14749D01*
X806375Y14881D01*
X806385Y15013D01*
X806391Y15145D01*
X806393Y15278D01*
X790210Y10762D02*
X790210Y27018D01*
X790210Y10762D02*
X782986Y10762D01*
X773741Y10762D02*
X773741Y27018D01*
X778256Y27018D02*
X769225Y27018D01*
X759152Y27018D02*
X764570Y10762D01*
X753733Y10762D02*
X759152Y27018D01*
X755088Y14826D02*
X763216Y14826D01*
X741193Y19793D02*
X738484Y19793D01*
X738484Y10762D01*
X743902Y10762D01*
X744020Y10764D01*
X744138Y10770D01*
X744256Y10779D01*
X744373Y10793D01*
X744490Y10810D01*
X744607Y10831D01*
X744722Y10856D01*
X744837Y10885D01*
X744951Y10918D01*
X745063Y10954D01*
X745174Y10994D01*
X745284Y11037D01*
X745393Y11084D01*
X745500Y11134D01*
X745605Y11189D01*
X745708Y11246D01*
X745809Y11307D01*
X745909Y11371D01*
X746006Y11438D01*
X746101Y11508D01*
X746193Y11582D01*
X746284Y11658D01*
X746371Y11738D01*
X746456Y11820D01*
X746538Y11905D01*
X746618Y11992D01*
X746694Y12083D01*
X746768Y12175D01*
X746838Y12270D01*
X746905Y12367D01*
X746969Y12467D01*
X747030Y12568D01*
X747087Y12671D01*
X747142Y12776D01*
X747192Y12883D01*
X747239Y12992D01*
X747282Y13102D01*
X747322Y13213D01*
X747358Y13325D01*
X747391Y13439D01*
X747420Y13554D01*
X747445Y13669D01*
X747466Y13786D01*
X747483Y13903D01*
X747497Y14020D01*
X747506Y14138D01*
X747512Y14256D01*
X747514Y14374D01*
X747515Y14374D02*
X747515Y23406D01*
X747514Y23406D02*
X747512Y23524D01*
X747506Y23642D01*
X747497Y23760D01*
X747483Y23877D01*
X747466Y23994D01*
X747445Y24111D01*
X747420Y24226D01*
X747391Y24341D01*
X747358Y24455D01*
X747322Y24567D01*
X747282Y24678D01*
X747239Y24788D01*
X747192Y24897D01*
X747142Y25004D01*
X747087Y25109D01*
X747030Y25212D01*
X746969Y25313D01*
X746905Y25413D01*
X746838Y25510D01*
X746768Y25605D01*
X746694Y25697D01*
X746618Y25788D01*
X746538Y25875D01*
X746456Y25960D01*
X746371Y26042D01*
X746284Y26122D01*
X746193Y26198D01*
X746101Y26272D01*
X746006Y26342D01*
X745909Y26409D01*
X745809Y26473D01*
X745708Y26534D01*
X745605Y26591D01*
X745500Y26646D01*
X745393Y26696D01*
X745284Y26743D01*
X745174Y26786D01*
X745063Y26826D01*
X744951Y26862D01*
X744837Y26895D01*
X744722Y26924D01*
X744607Y26949D01*
X744490Y26970D01*
X744373Y26987D01*
X744256Y27001D01*
X744138Y27010D01*
X744020Y27016D01*
X743902Y27018D01*
X738484Y27018D01*
X730812Y10762D02*
X723587Y10762D01*
X730812Y10762D02*
X730812Y27018D01*
X723587Y27018D01*
X725393Y19793D02*
X730812Y19793D01*
X859238Y80762D02*
X859238Y97018D01*
X859238Y89793D02*
X850207Y89793D01*
X850207Y97018D02*
X850207Y80762D01*
X838570Y80762D02*
X843989Y97018D01*
X833152Y97018D02*
X838570Y80762D01*
X827316Y87084D02*
X816478Y87084D01*
X821897Y92502D02*
X821897Y81665D01*
X792545Y80762D02*
X792545Y97018D01*
X792545Y89793D02*
X783514Y89793D01*
X783514Y97018D02*
X783514Y80762D01*
X771877Y80762D02*
X777296Y97018D01*
X766458Y97018D02*
X771877Y80762D01*
X760622Y87084D02*
X749785Y87084D01*
X79238Y207084D02*
X68401Y207084D01*
X73819Y201665D02*
X73819Y212502D01*
X61662Y213406D02*
X57146Y217018D01*
X57146Y200762D01*
X52631Y200762D02*
X61662Y200762D01*
X41063Y217018D02*
X40938Y217016D01*
X40813Y217010D01*
X40688Y217001D01*
X40564Y216987D01*
X40440Y216970D01*
X40316Y216949D01*
X40194Y216924D01*
X40072Y216895D01*
X39951Y216863D01*
X39831Y216827D01*
X39712Y216787D01*
X39595Y216744D01*
X39479Y216697D01*
X39364Y216646D01*
X39252Y216592D01*
X39140Y216534D01*
X39031Y216474D01*
X38924Y216409D01*
X38818Y216342D01*
X38715Y216271D01*
X38614Y216197D01*
X38515Y216120D01*
X38419Y216040D01*
X38325Y215957D01*
X38234Y215872D01*
X38145Y215783D01*
X38060Y215692D01*
X37977Y215598D01*
X37897Y215502D01*
X37820Y215403D01*
X37746Y215302D01*
X37675Y215199D01*
X37608Y215093D01*
X37543Y214986D01*
X37483Y214877D01*
X37425Y214765D01*
X37371Y214653D01*
X37320Y214538D01*
X37273Y214422D01*
X37230Y214305D01*
X37190Y214186D01*
X37154Y214066D01*
X37122Y213945D01*
X37093Y213823D01*
X37068Y213701D01*
X37047Y213577D01*
X37030Y213453D01*
X37016Y213329D01*
X37007Y213204D01*
X37001Y213079D01*
X36999Y212954D01*
X41063Y217018D02*
X41206Y217016D01*
X41348Y217010D01*
X41491Y217000D01*
X41633Y216987D01*
X41774Y216969D01*
X41916Y216948D01*
X42056Y216923D01*
X42196Y216894D01*
X42335Y216861D01*
X42473Y216824D01*
X42610Y216784D01*
X42745Y216740D01*
X42880Y216692D01*
X43013Y216640D01*
X43145Y216585D01*
X43275Y216526D01*
X43403Y216464D01*
X43530Y216398D01*
X43655Y216329D01*
X43778Y216257D01*
X43899Y216181D01*
X44017Y216102D01*
X44134Y216019D01*
X44248Y215934D01*
X44360Y215845D01*
X44469Y215754D01*
X44576Y215659D01*
X44681Y215562D01*
X44782Y215461D01*
X44881Y215358D01*
X44977Y215253D01*
X45070Y215144D01*
X45160Y215033D01*
X45247Y214920D01*
X45331Y214805D01*
X45411Y214687D01*
X45489Y214567D01*
X45563Y214445D01*
X45633Y214321D01*
X45701Y214195D01*
X45764Y214067D01*
X45825Y213938D01*
X45882Y213807D01*
X45935Y213675D01*
X45984Y213541D01*
X46030Y213406D01*
X38354Y209793D02*
X38260Y209885D01*
X38170Y209979D01*
X38082Y210076D01*
X37997Y210176D01*
X37915Y210278D01*
X37836Y210383D01*
X37761Y210490D01*
X37689Y210599D01*
X37620Y210710D01*
X37554Y210824D01*
X37492Y210939D01*
X37433Y211056D01*
X37378Y211175D01*
X37327Y211295D01*
X37279Y211417D01*
X37234Y211540D01*
X37194Y211664D01*
X37157Y211790D01*
X37124Y211917D01*
X37095Y212044D01*
X37069Y212173D01*
X37048Y212302D01*
X37030Y212432D01*
X37017Y212562D01*
X37007Y212692D01*
X37001Y212823D01*
X36999Y212954D01*
X38354Y209793D02*
X46030Y200762D01*
X36999Y200762D01*
X25884Y200762D02*
X31302Y217018D01*
X20465Y217018D02*
X25884Y200762D01*
X222089Y109238D02*
X227508Y92982D01*
X216670Y92982D02*
X222089Y109238D01*
X218025Y97046D02*
X226153Y97046D01*
X207400Y92982D02*
X203788Y92982D01*
X207400Y92982D02*
X207518Y92984D01*
X207636Y92990D01*
X207754Y92999D01*
X207871Y93013D01*
X207988Y93030D01*
X208105Y93051D01*
X208220Y93076D01*
X208335Y93105D01*
X208449Y93138D01*
X208561Y93174D01*
X208672Y93214D01*
X208782Y93257D01*
X208891Y93304D01*
X208998Y93354D01*
X209103Y93409D01*
X209206Y93466D01*
X209307Y93527D01*
X209407Y93591D01*
X209504Y93658D01*
X209599Y93728D01*
X209691Y93802D01*
X209782Y93878D01*
X209869Y93958D01*
X209954Y94040D01*
X210036Y94125D01*
X210116Y94212D01*
X210192Y94303D01*
X210266Y94395D01*
X210336Y94490D01*
X210403Y94587D01*
X210467Y94687D01*
X210528Y94788D01*
X210585Y94891D01*
X210640Y94996D01*
X210690Y95103D01*
X210737Y95212D01*
X210780Y95322D01*
X210820Y95433D01*
X210856Y95545D01*
X210889Y95659D01*
X210918Y95774D01*
X210943Y95889D01*
X210964Y96006D01*
X210981Y96123D01*
X210995Y96240D01*
X211004Y96358D01*
X211010Y96476D01*
X211012Y96594D01*
X211013Y96594D02*
X211013Y105626D01*
X211012Y105626D02*
X211010Y105744D01*
X211004Y105862D01*
X210995Y105980D01*
X210981Y106097D01*
X210964Y106214D01*
X210943Y106331D01*
X210918Y106446D01*
X210889Y106561D01*
X210856Y106675D01*
X210820Y106787D01*
X210780Y106898D01*
X210737Y107008D01*
X210690Y107117D01*
X210640Y107224D01*
X210585Y107329D01*
X210528Y107432D01*
X210467Y107533D01*
X210403Y107633D01*
X210336Y107730D01*
X210266Y107825D01*
X210192Y107917D01*
X210116Y108008D01*
X210036Y108095D01*
X209954Y108180D01*
X209869Y108262D01*
X209782Y108342D01*
X209691Y108418D01*
X209599Y108492D01*
X209504Y108562D01*
X209407Y108629D01*
X209307Y108693D01*
X209206Y108754D01*
X209103Y108811D01*
X208998Y108866D01*
X208891Y108916D01*
X208782Y108963D01*
X208672Y109006D01*
X208561Y109046D01*
X208449Y109082D01*
X208335Y109115D01*
X208220Y109144D01*
X208105Y109169D01*
X207988Y109190D01*
X207871Y109207D01*
X207754Y109221D01*
X207636Y109230D01*
X207518Y109236D01*
X207400Y109238D01*
X203788Y109238D01*
X194374Y92982D02*
X190762Y92982D01*
X194374Y92982D02*
X194492Y92984D01*
X194610Y92990D01*
X194728Y92999D01*
X194845Y93013D01*
X194962Y93030D01*
X195079Y93051D01*
X195194Y93076D01*
X195309Y93105D01*
X195423Y93138D01*
X195535Y93174D01*
X195646Y93214D01*
X195756Y93257D01*
X195865Y93304D01*
X195972Y93354D01*
X196077Y93409D01*
X196180Y93466D01*
X196281Y93527D01*
X196381Y93591D01*
X196478Y93658D01*
X196573Y93728D01*
X196665Y93802D01*
X196756Y93878D01*
X196843Y93958D01*
X196928Y94040D01*
X197010Y94125D01*
X197090Y94212D01*
X197166Y94303D01*
X197240Y94395D01*
X197310Y94490D01*
X197377Y94587D01*
X197441Y94687D01*
X197502Y94788D01*
X197559Y94891D01*
X197614Y94996D01*
X197664Y95103D01*
X197711Y95212D01*
X197754Y95322D01*
X197794Y95433D01*
X197830Y95545D01*
X197863Y95659D01*
X197892Y95774D01*
X197917Y95889D01*
X197938Y96006D01*
X197955Y96123D01*
X197969Y96240D01*
X197978Y96358D01*
X197984Y96476D01*
X197986Y96594D01*
X197987Y96594D02*
X197987Y105626D01*
X197986Y105626D02*
X197984Y105744D01*
X197978Y105862D01*
X197969Y105980D01*
X197955Y106097D01*
X197938Y106214D01*
X197917Y106331D01*
X197892Y106446D01*
X197863Y106561D01*
X197830Y106675D01*
X197794Y106787D01*
X197754Y106898D01*
X197711Y107008D01*
X197664Y107117D01*
X197614Y107224D01*
X197559Y107329D01*
X197502Y107432D01*
X197441Y107533D01*
X197377Y107633D01*
X197310Y107730D01*
X197240Y107825D01*
X197166Y107917D01*
X197090Y108008D01*
X197010Y108095D01*
X196928Y108180D01*
X196843Y108262D01*
X196756Y108342D01*
X196665Y108418D01*
X196573Y108492D01*
X196478Y108562D01*
X196381Y108629D01*
X196281Y108693D01*
X196180Y108754D01*
X196077Y108811D01*
X195972Y108866D01*
X195865Y108916D01*
X195756Y108963D01*
X195646Y109006D01*
X195535Y109046D01*
X195423Y109082D01*
X195309Y109115D01*
X195194Y109144D01*
X195079Y109169D01*
X194962Y109190D01*
X194845Y109207D01*
X194728Y109221D01*
X194610Y109230D01*
X194492Y109236D01*
X194374Y109238D01*
X190762Y109238D01*
X162013Y76412D02*
X162013Y73703D01*
X162013Y76412D02*
X152982Y76412D01*
X152982Y70994D01*
X152984Y70876D01*
X152990Y70758D01*
X152999Y70640D01*
X153013Y70523D01*
X153030Y70406D01*
X153051Y70289D01*
X153076Y70174D01*
X153105Y70059D01*
X153138Y69945D01*
X153174Y69833D01*
X153214Y69722D01*
X153257Y69612D01*
X153304Y69503D01*
X153354Y69396D01*
X153409Y69291D01*
X153466Y69188D01*
X153527Y69087D01*
X153591Y68987D01*
X153658Y68890D01*
X153728Y68795D01*
X153802Y68703D01*
X153878Y68612D01*
X153958Y68525D01*
X154040Y68440D01*
X154125Y68358D01*
X154212Y68278D01*
X154303Y68202D01*
X154395Y68128D01*
X154490Y68058D01*
X154587Y67991D01*
X154687Y67927D01*
X154788Y67866D01*
X154891Y67809D01*
X154996Y67754D01*
X155103Y67704D01*
X155212Y67657D01*
X155322Y67614D01*
X155433Y67574D01*
X155545Y67538D01*
X155659Y67505D01*
X155774Y67476D01*
X155889Y67451D01*
X156006Y67430D01*
X156123Y67413D01*
X156240Y67399D01*
X156358Y67390D01*
X156476Y67384D01*
X156594Y67382D01*
X156594Y67381D02*
X165626Y67381D01*
X165626Y67382D02*
X165744Y67384D01*
X165862Y67390D01*
X165980Y67399D01*
X166097Y67413D01*
X166214Y67430D01*
X166331Y67451D01*
X166446Y67476D01*
X166561Y67505D01*
X166675Y67538D01*
X166787Y67574D01*
X166898Y67614D01*
X167008Y67657D01*
X167117Y67704D01*
X167224Y67754D01*
X167329Y67808D01*
X167432Y67866D01*
X167533Y67927D01*
X167633Y67991D01*
X167730Y68058D01*
X167825Y68128D01*
X167917Y68202D01*
X168008Y68278D01*
X168095Y68358D01*
X168180Y68440D01*
X168262Y68525D01*
X168342Y68612D01*
X168418Y68703D01*
X168492Y68795D01*
X168562Y68890D01*
X168629Y68987D01*
X168693Y69087D01*
X168754Y69188D01*
X168811Y69291D01*
X168865Y69396D01*
X168916Y69503D01*
X168963Y69612D01*
X169006Y69722D01*
X169046Y69833D01*
X169082Y69945D01*
X169115Y70059D01*
X169144Y70174D01*
X169169Y70289D01*
X169190Y70406D01*
X169207Y70523D01*
X169221Y70640D01*
X169230Y70758D01*
X169236Y70876D01*
X169238Y70994D01*
X169238Y76412D01*
X169238Y84146D02*
X152982Y84146D01*
X169238Y84146D02*
X169238Y88662D01*
X169236Y88795D01*
X169230Y88927D01*
X169220Y89059D01*
X169207Y89191D01*
X169189Y89323D01*
X169168Y89453D01*
X169143Y89584D01*
X169114Y89713D01*
X169081Y89841D01*
X169045Y89969D01*
X169005Y90095D01*
X168961Y90220D01*
X168913Y90344D01*
X168862Y90466D01*
X168807Y90587D01*
X168749Y90706D01*
X168687Y90824D01*
X168622Y90939D01*
X168553Y91053D01*
X168482Y91164D01*
X168406Y91273D01*
X168328Y91380D01*
X168247Y91485D01*
X168162Y91587D01*
X168075Y91687D01*
X167985Y91784D01*
X167892Y91879D01*
X167796Y91970D01*
X167698Y92059D01*
X167597Y92145D01*
X167493Y92228D01*
X167387Y92308D01*
X167279Y92384D01*
X167169Y92458D01*
X167056Y92528D01*
X166942Y92595D01*
X166825Y92658D01*
X166707Y92718D01*
X166587Y92775D01*
X166465Y92828D01*
X166342Y92877D01*
X166218Y92923D01*
X166092Y92965D01*
X165965Y93003D01*
X165837Y93038D01*
X165708Y93069D01*
X165579Y93096D01*
X165448Y93119D01*
X165317Y93139D01*
X165185Y93154D01*
X165053Y93166D01*
X164921Y93174D01*
X164788Y93178D01*
X164656Y93178D01*
X164523Y93174D01*
X164391Y93166D01*
X164259Y93154D01*
X164127Y93139D01*
X163996Y93119D01*
X163865Y93096D01*
X163736Y93069D01*
X163607Y93038D01*
X163479Y93003D01*
X163352Y92965D01*
X163226Y92923D01*
X163102Y92877D01*
X162979Y92828D01*
X162857Y92775D01*
X162737Y92718D01*
X162619Y92658D01*
X162502Y92595D01*
X162388Y92528D01*
X162275Y92458D01*
X162165Y92384D01*
X162057Y92308D01*
X161951Y92228D01*
X161847Y92145D01*
X161746Y92059D01*
X161648Y91970D01*
X161552Y91879D01*
X161459Y91784D01*
X161369Y91687D01*
X161282Y91587D01*
X161197Y91485D01*
X161116Y91380D01*
X161038Y91273D01*
X160962Y91164D01*
X160891Y91053D01*
X160822Y90939D01*
X160757Y90824D01*
X160695Y90706D01*
X160637Y90587D01*
X160582Y90466D01*
X160531Y90344D01*
X160483Y90220D01*
X160439Y90095D01*
X160399Y89969D01*
X160363Y89841D01*
X160330Y89713D01*
X160301Y89584D01*
X160276Y89453D01*
X160255Y89323D01*
X160237Y89191D01*
X160224Y89059D01*
X160214Y88927D01*
X160208Y88795D01*
X160206Y88662D01*
X160207Y88662D02*
X160207Y84146D01*
X160207Y89565D02*
X152982Y93177D01*
X152982Y100207D02*
X169238Y100207D01*
X152982Y109238D01*
X169238Y109238D01*
X129238Y70599D02*
X112982Y70599D01*
X129238Y70599D02*
X129238Y75115D01*
X129236Y75248D01*
X129230Y75380D01*
X129220Y75512D01*
X129207Y75644D01*
X129189Y75776D01*
X129168Y75906D01*
X129143Y76037D01*
X129114Y76166D01*
X129081Y76294D01*
X129045Y76422D01*
X129005Y76548D01*
X128961Y76673D01*
X128913Y76797D01*
X128862Y76919D01*
X128807Y77040D01*
X128749Y77159D01*
X128687Y77277D01*
X128622Y77392D01*
X128553Y77506D01*
X128482Y77617D01*
X128406Y77726D01*
X128328Y77833D01*
X128247Y77938D01*
X128162Y78040D01*
X128075Y78140D01*
X127985Y78237D01*
X127892Y78332D01*
X127796Y78423D01*
X127698Y78512D01*
X127597Y78598D01*
X127493Y78681D01*
X127387Y78761D01*
X127279Y78837D01*
X127169Y78911D01*
X127056Y78981D01*
X126942Y79048D01*
X126825Y79111D01*
X126707Y79171D01*
X126587Y79228D01*
X126465Y79281D01*
X126342Y79330D01*
X126218Y79376D01*
X126092Y79418D01*
X125965Y79456D01*
X125837Y79491D01*
X125708Y79522D01*
X125579Y79549D01*
X125448Y79572D01*
X125317Y79592D01*
X125185Y79607D01*
X125053Y79619D01*
X124921Y79627D01*
X124788Y79631D01*
X124656Y79631D01*
X124523Y79627D01*
X124391Y79619D01*
X124259Y79607D01*
X124127Y79592D01*
X123996Y79572D01*
X123865Y79549D01*
X123736Y79522D01*
X123607Y79491D01*
X123479Y79456D01*
X123352Y79418D01*
X123226Y79376D01*
X123102Y79330D01*
X122979Y79281D01*
X122857Y79228D01*
X122737Y79171D01*
X122619Y79111D01*
X122502Y79048D01*
X122388Y78981D01*
X122275Y78911D01*
X122165Y78837D01*
X122057Y78761D01*
X121951Y78681D01*
X121847Y78598D01*
X121746Y78512D01*
X121648Y78423D01*
X121552Y78332D01*
X121459Y78237D01*
X121369Y78140D01*
X121282Y78040D01*
X121197Y77938D01*
X121116Y77833D01*
X121038Y77726D01*
X120962Y77617D01*
X120891Y77506D01*
X120822Y77392D01*
X120757Y77277D01*
X120695Y77159D01*
X120637Y77040D01*
X120582Y76919D01*
X120531Y76797D01*
X120483Y76673D01*
X120439Y76548D01*
X120399Y76422D01*
X120363Y76294D01*
X120330Y76166D01*
X120301Y76037D01*
X120276Y75906D01*
X120255Y75776D01*
X120237Y75644D01*
X120224Y75512D01*
X120214Y75380D01*
X120208Y75248D01*
X120206Y75115D01*
X120207Y75115D02*
X120207Y70599D01*
X120207Y76018D02*
X112982Y79630D01*
X112982Y86690D02*
X112982Y93915D01*
X112982Y86690D02*
X129238Y86690D01*
X129238Y93915D01*
X122013Y92108D02*
X122013Y86690D01*
X129238Y100207D02*
X112982Y100207D01*
X129238Y100207D02*
X129238Y104722D01*
X129236Y104853D01*
X129230Y104985D01*
X129221Y105116D01*
X129207Y105246D01*
X129190Y105377D01*
X129169Y105506D01*
X129145Y105635D01*
X129116Y105763D01*
X129084Y105891D01*
X129048Y106017D01*
X129009Y106142D01*
X128966Y106267D01*
X128919Y106389D01*
X128869Y106511D01*
X128815Y106631D01*
X128758Y106749D01*
X128697Y106865D01*
X128633Y106980D01*
X128566Y107093D01*
X128495Y107204D01*
X128421Y107312D01*
X128344Y107419D01*
X128264Y107523D01*
X128181Y107625D01*
X128096Y107724D01*
X128007Y107821D01*
X127915Y107915D01*
X127821Y108007D01*
X127724Y108096D01*
X127625Y108181D01*
X127523Y108264D01*
X127419Y108344D01*
X127312Y108421D01*
X127204Y108495D01*
X127093Y108566D01*
X126980Y108633D01*
X126865Y108697D01*
X126749Y108758D01*
X126631Y108815D01*
X126511Y108869D01*
X126389Y108919D01*
X126267Y108966D01*
X126142Y109009D01*
X126017Y109048D01*
X125891Y109084D01*
X125763Y109116D01*
X125635Y109145D01*
X125506Y109169D01*
X125377Y109190D01*
X125246Y109207D01*
X125116Y109221D01*
X124985Y109230D01*
X124853Y109236D01*
X124722Y109238D01*
X117498Y109238D01*
X117367Y109236D01*
X117235Y109230D01*
X117104Y109221D01*
X116974Y109207D01*
X116843Y109190D01*
X116714Y109169D01*
X116585Y109145D01*
X116457Y109116D01*
X116329Y109084D01*
X116203Y109048D01*
X116078Y109009D01*
X115953Y108966D01*
X115831Y108919D01*
X115709Y108869D01*
X115589Y108815D01*
X115471Y108758D01*
X115355Y108697D01*
X115240Y108633D01*
X115127Y108566D01*
X115016Y108495D01*
X114908Y108421D01*
X114801Y108344D01*
X114697Y108264D01*
X114595Y108181D01*
X114496Y108096D01*
X114399Y108007D01*
X114305Y107915D01*
X114213Y107821D01*
X114124Y107724D01*
X114039Y107625D01*
X113956Y107523D01*
X113876Y107419D01*
X113799Y107312D01*
X113725Y107204D01*
X113654Y107093D01*
X113587Y106980D01*
X113523Y106865D01*
X113462Y106749D01*
X113405Y106631D01*
X113351Y106511D01*
X113301Y106389D01*
X113254Y106267D01*
X113211Y106142D01*
X113172Y106017D01*
X113136Y105891D01*
X113104Y105763D01*
X113075Y105635D01*
X113051Y105506D01*
X113030Y105377D01*
X113013Y105246D01*
X112999Y105116D01*
X112990Y104985D01*
X112984Y104853D01*
X112982Y104722D01*
X112982Y100207D01*
X82013Y75891D02*
X82013Y73182D01*
X82013Y75891D02*
X72982Y75891D01*
X72982Y70473D01*
X72984Y70355D01*
X72990Y70237D01*
X72999Y70119D01*
X73013Y70002D01*
X73030Y69885D01*
X73051Y69768D01*
X73076Y69653D01*
X73105Y69538D01*
X73138Y69424D01*
X73174Y69312D01*
X73214Y69201D01*
X73257Y69091D01*
X73304Y68982D01*
X73354Y68875D01*
X73409Y68770D01*
X73466Y68667D01*
X73527Y68566D01*
X73591Y68466D01*
X73658Y68369D01*
X73728Y68274D01*
X73802Y68182D01*
X73878Y68091D01*
X73958Y68004D01*
X74040Y67919D01*
X74125Y67837D01*
X74212Y67757D01*
X74303Y67681D01*
X74395Y67607D01*
X74490Y67537D01*
X74587Y67470D01*
X74687Y67406D01*
X74788Y67345D01*
X74891Y67288D01*
X74996Y67233D01*
X75103Y67183D01*
X75212Y67136D01*
X75322Y67093D01*
X75433Y67053D01*
X75545Y67017D01*
X75659Y66984D01*
X75774Y66955D01*
X75889Y66930D01*
X76006Y66909D01*
X76123Y66892D01*
X76240Y66878D01*
X76358Y66869D01*
X76476Y66863D01*
X76594Y66861D01*
X76594Y66860D02*
X85626Y66860D01*
X85626Y66861D02*
X85744Y66863D01*
X85862Y66869D01*
X85980Y66878D01*
X86097Y66892D01*
X86214Y66909D01*
X86331Y66930D01*
X86446Y66955D01*
X86561Y66984D01*
X86675Y67017D01*
X86787Y67053D01*
X86898Y67093D01*
X87008Y67136D01*
X87117Y67183D01*
X87224Y67233D01*
X87329Y67287D01*
X87432Y67345D01*
X87533Y67406D01*
X87633Y67470D01*
X87730Y67537D01*
X87825Y67607D01*
X87917Y67681D01*
X88008Y67757D01*
X88095Y67837D01*
X88180Y67919D01*
X88262Y68004D01*
X88342Y68091D01*
X88418Y68182D01*
X88492Y68274D01*
X88562Y68369D01*
X88629Y68466D01*
X88693Y68566D01*
X88754Y68667D01*
X88811Y68770D01*
X88865Y68875D01*
X88916Y68982D01*
X88963Y69091D01*
X89006Y69201D01*
X89046Y69312D01*
X89082Y69424D01*
X89115Y69538D01*
X89144Y69653D01*
X89169Y69768D01*
X89190Y69885D01*
X89207Y70002D01*
X89221Y70119D01*
X89230Y70237D01*
X89236Y70355D01*
X89238Y70473D01*
X89238Y75891D01*
X89238Y83534D02*
X72982Y83534D01*
X72982Y92565D02*
X89238Y83534D01*
X89238Y92565D02*
X72982Y92565D01*
X72982Y100207D02*
X89238Y100207D01*
X89238Y104722D01*
X89236Y104853D01*
X89230Y104985D01*
X89221Y105116D01*
X89207Y105246D01*
X89190Y105377D01*
X89169Y105506D01*
X89145Y105635D01*
X89116Y105763D01*
X89084Y105891D01*
X89048Y106017D01*
X89009Y106142D01*
X88966Y106267D01*
X88919Y106389D01*
X88869Y106511D01*
X88815Y106631D01*
X88758Y106749D01*
X88697Y106865D01*
X88633Y106980D01*
X88566Y107093D01*
X88495Y107204D01*
X88421Y107312D01*
X88344Y107419D01*
X88264Y107523D01*
X88181Y107625D01*
X88096Y107724D01*
X88007Y107821D01*
X87915Y107915D01*
X87821Y108007D01*
X87724Y108096D01*
X87625Y108181D01*
X87523Y108264D01*
X87419Y108344D01*
X87312Y108421D01*
X87204Y108495D01*
X87093Y108566D01*
X86980Y108633D01*
X86865Y108697D01*
X86749Y108758D01*
X86631Y108815D01*
X86511Y108869D01*
X86389Y108919D01*
X86267Y108966D01*
X86142Y109009D01*
X86017Y109048D01*
X85891Y109084D01*
X85763Y109116D01*
X85635Y109145D01*
X85506Y109169D01*
X85377Y109190D01*
X85246Y109207D01*
X85116Y109221D01*
X84985Y109230D01*
X84853Y109236D01*
X84722Y109238D01*
X77498Y109238D01*
X77367Y109236D01*
X77235Y109230D01*
X77104Y109221D01*
X76974Y109207D01*
X76843Y109190D01*
X76714Y109169D01*
X76585Y109145D01*
X76457Y109116D01*
X76329Y109084D01*
X76203Y109048D01*
X76078Y109009D01*
X75953Y108966D01*
X75831Y108919D01*
X75709Y108869D01*
X75589Y108815D01*
X75471Y108758D01*
X75355Y108697D01*
X75240Y108633D01*
X75127Y108566D01*
X75016Y108495D01*
X74908Y108421D01*
X74801Y108344D01*
X74697Y108264D01*
X74595Y108181D01*
X74496Y108096D01*
X74399Y108007D01*
X74305Y107915D01*
X74213Y107821D01*
X74124Y107724D01*
X74039Y107625D01*
X73956Y107523D01*
X73876Y107419D01*
X73799Y107312D01*
X73725Y107204D01*
X73654Y107093D01*
X73587Y106980D01*
X73523Y106865D01*
X73462Y106749D01*
X73405Y106631D01*
X73351Y106511D01*
X73301Y106389D01*
X73254Y106267D01*
X73211Y106142D01*
X73172Y106017D01*
X73136Y105891D01*
X73104Y105763D01*
X73075Y105635D01*
X73051Y105506D01*
X73030Y105377D01*
X73013Y105246D01*
X72999Y105116D01*
X72990Y104985D01*
X72984Y104853D01*
X72982Y104722D01*
X72982Y100207D01*
X200207Y209793D02*
X202916Y209793D01*
X200207Y209793D02*
X200207Y200762D01*
X205626Y200762D01*
X205744Y200764D01*
X205862Y200770D01*
X205980Y200779D01*
X206097Y200793D01*
X206214Y200810D01*
X206331Y200831D01*
X206446Y200856D01*
X206561Y200885D01*
X206675Y200918D01*
X206787Y200954D01*
X206898Y200994D01*
X207008Y201037D01*
X207117Y201084D01*
X207224Y201134D01*
X207329Y201189D01*
X207432Y201246D01*
X207533Y201307D01*
X207633Y201371D01*
X207730Y201438D01*
X207825Y201508D01*
X207917Y201582D01*
X208008Y201658D01*
X208095Y201738D01*
X208180Y201820D01*
X208262Y201905D01*
X208342Y201992D01*
X208418Y202083D01*
X208492Y202175D01*
X208562Y202270D01*
X208629Y202367D01*
X208693Y202467D01*
X208754Y202568D01*
X208811Y202671D01*
X208866Y202776D01*
X208916Y202883D01*
X208963Y202992D01*
X209006Y203102D01*
X209046Y203213D01*
X209082Y203325D01*
X209115Y203439D01*
X209144Y203554D01*
X209169Y203669D01*
X209190Y203786D01*
X209207Y203903D01*
X209221Y204020D01*
X209230Y204138D01*
X209236Y204256D01*
X209238Y204374D01*
X209238Y213406D01*
X209236Y213524D01*
X209230Y213642D01*
X209221Y213760D01*
X209207Y213877D01*
X209190Y213994D01*
X209169Y214111D01*
X209144Y214226D01*
X209115Y214341D01*
X209082Y214455D01*
X209046Y214567D01*
X209006Y214678D01*
X208963Y214788D01*
X208916Y214897D01*
X208866Y215004D01*
X208811Y215109D01*
X208754Y215212D01*
X208693Y215313D01*
X208629Y215413D01*
X208562Y215510D01*
X208492Y215605D01*
X208418Y215697D01*
X208342Y215788D01*
X208262Y215875D01*
X208180Y215960D01*
X208095Y216042D01*
X208008Y216122D01*
X207917Y216198D01*
X207825Y216272D01*
X207730Y216342D01*
X207633Y216409D01*
X207533Y216473D01*
X207432Y216534D01*
X207329Y216591D01*
X207224Y216646D01*
X207117Y216696D01*
X207008Y216743D01*
X206898Y216786D01*
X206787Y216826D01*
X206675Y216862D01*
X206561Y216895D01*
X206446Y216924D01*
X206331Y216949D01*
X206214Y216970D01*
X206097Y216987D01*
X205980Y217001D01*
X205862Y217010D01*
X205744Y217016D01*
X205626Y217018D01*
X200207Y217018D01*
X192565Y217018D02*
X192565Y200762D01*
X183534Y200762D02*
X192565Y217018D01*
X183534Y217018D02*
X183534Y200762D01*
X175891Y200762D02*
X175891Y217018D01*
X171376Y217018D01*
X171245Y217016D01*
X171113Y217010D01*
X170982Y217001D01*
X170852Y216987D01*
X170721Y216970D01*
X170592Y216949D01*
X170463Y216925D01*
X170335Y216896D01*
X170207Y216864D01*
X170081Y216828D01*
X169956Y216789D01*
X169831Y216746D01*
X169709Y216699D01*
X169587Y216649D01*
X169467Y216595D01*
X169349Y216538D01*
X169233Y216477D01*
X169118Y216413D01*
X169005Y216346D01*
X168894Y216275D01*
X168786Y216201D01*
X168679Y216124D01*
X168575Y216044D01*
X168473Y215961D01*
X168374Y215876D01*
X168277Y215787D01*
X168183Y215695D01*
X168091Y215601D01*
X168002Y215504D01*
X167917Y215405D01*
X167834Y215303D01*
X167754Y215199D01*
X167677Y215092D01*
X167603Y214984D01*
X167532Y214873D01*
X167465Y214760D01*
X167401Y214645D01*
X167340Y214529D01*
X167283Y214411D01*
X167229Y214291D01*
X167179Y214169D01*
X167132Y214047D01*
X167089Y213922D01*
X167050Y213797D01*
X167014Y213671D01*
X166982Y213543D01*
X166953Y213415D01*
X166929Y213286D01*
X166908Y213157D01*
X166891Y213026D01*
X166877Y212896D01*
X166868Y212765D01*
X166862Y212633D01*
X166860Y212502D01*
X166860Y205278D01*
X166862Y205147D01*
X166868Y205015D01*
X166877Y204884D01*
X166891Y204754D01*
X166908Y204623D01*
X166929Y204494D01*
X166953Y204365D01*
X166982Y204237D01*
X167014Y204109D01*
X167050Y203983D01*
X167089Y203858D01*
X167132Y203733D01*
X167179Y203611D01*
X167229Y203489D01*
X167283Y203369D01*
X167340Y203251D01*
X167401Y203135D01*
X167465Y203020D01*
X167532Y202907D01*
X167603Y202796D01*
X167677Y202688D01*
X167754Y202581D01*
X167834Y202477D01*
X167917Y202375D01*
X168002Y202276D01*
X168091Y202179D01*
X168183Y202085D01*
X168277Y201993D01*
X168374Y201904D01*
X168473Y201819D01*
X168575Y201736D01*
X168679Y201656D01*
X168786Y201579D01*
X168894Y201505D01*
X169005Y201434D01*
X169118Y201367D01*
X169233Y201303D01*
X169349Y201242D01*
X169467Y201185D01*
X169587Y201131D01*
X169709Y201081D01*
X169831Y201034D01*
X169956Y200991D01*
X170081Y200952D01*
X170207Y200916D01*
X170335Y200884D01*
X170463Y200855D01*
X170592Y200831D01*
X170721Y200810D01*
X170852Y200793D01*
X170982Y200779D01*
X171113Y200770D01*
X171245Y200764D01*
X171376Y200762D01*
X175891Y200762D01*
D12*
X627865Y307135D02*
X627865Y318565D01*
X624690Y318565D01*
X624579Y318563D01*
X624469Y318557D01*
X624358Y318548D01*
X624248Y318534D01*
X624139Y318517D01*
X624030Y318496D01*
X623922Y318471D01*
X623815Y318442D01*
X623709Y318410D01*
X623604Y318374D01*
X623501Y318334D01*
X623399Y318291D01*
X623298Y318244D01*
X623199Y318193D01*
X623103Y318140D01*
X623008Y318083D01*
X622915Y318022D01*
X622824Y317959D01*
X622735Y317892D01*
X622649Y317822D01*
X622566Y317749D01*
X622484Y317674D01*
X622406Y317596D01*
X622331Y317514D01*
X622258Y317431D01*
X622188Y317345D01*
X622121Y317256D01*
X622058Y317165D01*
X621997Y317072D01*
X621940Y316978D01*
X621887Y316881D01*
X621836Y316782D01*
X621789Y316681D01*
X621746Y316579D01*
X621706Y316476D01*
X621670Y316371D01*
X621638Y316265D01*
X621609Y316158D01*
X621584Y316050D01*
X621563Y315941D01*
X621546Y315832D01*
X621532Y315722D01*
X621523Y315611D01*
X621517Y315501D01*
X621515Y315390D01*
X621517Y315279D01*
X621523Y315169D01*
X621532Y315058D01*
X621546Y314948D01*
X621563Y314839D01*
X621584Y314730D01*
X621609Y314622D01*
X621638Y314515D01*
X621670Y314409D01*
X621706Y314304D01*
X621746Y314201D01*
X621789Y314099D01*
X621836Y313998D01*
X621887Y313899D01*
X621940Y313803D01*
X621997Y313708D01*
X622058Y313615D01*
X622121Y313524D01*
X622188Y313435D01*
X622258Y313349D01*
X622331Y313266D01*
X622406Y313184D01*
X622484Y313106D01*
X622566Y313031D01*
X622649Y312958D01*
X622735Y312888D01*
X622824Y312821D01*
X622915Y312758D01*
X623008Y312697D01*
X623103Y312640D01*
X623199Y312587D01*
X623298Y312536D01*
X623399Y312489D01*
X623501Y312446D01*
X623604Y312406D01*
X623709Y312370D01*
X623815Y312338D01*
X623922Y312309D01*
X624030Y312284D01*
X624139Y312263D01*
X624248Y312246D01*
X624358Y312232D01*
X624469Y312223D01*
X624579Y312217D01*
X624690Y312215D01*
X627865Y312215D01*
X624055Y312215D02*
X621515Y307135D01*
X616518Y316025D02*
X613343Y318565D01*
X613343Y307135D01*
X616518Y307135D02*
X610168Y307135D01*
X605088Y316025D02*
X601913Y318565D01*
X601913Y307135D01*
X605088Y307135D02*
X598738Y307135D01*
D13*
X600785Y440808D02*
X600785Y452492D01*
X597540Y452492D01*
X597427Y452490D01*
X597314Y452484D01*
X597201Y452474D01*
X597088Y452460D01*
X596976Y452443D01*
X596865Y452421D01*
X596755Y452396D01*
X596645Y452366D01*
X596537Y452333D01*
X596430Y452296D01*
X596324Y452256D01*
X596220Y452211D01*
X596117Y452163D01*
X596016Y452112D01*
X595917Y452057D01*
X595820Y451999D01*
X595725Y451937D01*
X595632Y451872D01*
X595542Y451804D01*
X595454Y451733D01*
X595368Y451658D01*
X595285Y451581D01*
X595205Y451501D01*
X595128Y451418D01*
X595053Y451332D01*
X594982Y451244D01*
X594914Y451154D01*
X594849Y451061D01*
X594787Y450966D01*
X594729Y450869D01*
X594674Y450770D01*
X594623Y450669D01*
X594575Y450566D01*
X594530Y450462D01*
X594490Y450356D01*
X594453Y450249D01*
X594420Y450141D01*
X594390Y450031D01*
X594365Y449921D01*
X594343Y449810D01*
X594326Y449698D01*
X594312Y449585D01*
X594302Y449472D01*
X594296Y449359D01*
X594294Y449246D01*
X594296Y449133D01*
X594302Y449020D01*
X594312Y448907D01*
X594326Y448794D01*
X594343Y448682D01*
X594365Y448571D01*
X594390Y448461D01*
X594420Y448351D01*
X594453Y448243D01*
X594490Y448136D01*
X594530Y448030D01*
X594575Y447926D01*
X594623Y447823D01*
X594674Y447722D01*
X594729Y447623D01*
X594787Y447526D01*
X594849Y447431D01*
X594914Y447338D01*
X594982Y447248D01*
X595053Y447160D01*
X595128Y447074D01*
X595205Y446991D01*
X595285Y446911D01*
X595368Y446834D01*
X595454Y446759D01*
X595542Y446688D01*
X595632Y446620D01*
X595725Y446555D01*
X595820Y446493D01*
X595917Y446435D01*
X596016Y446380D01*
X596117Y446329D01*
X596220Y446281D01*
X596324Y446236D01*
X596430Y446196D01*
X596537Y446159D01*
X596645Y446126D01*
X596755Y446096D01*
X596865Y446071D01*
X596976Y446049D01*
X597088Y446032D01*
X597201Y446018D01*
X597314Y446008D01*
X597427Y446002D01*
X597540Y446000D01*
X597540Y446001D02*
X600785Y446001D01*
X596891Y446001D02*
X594294Y440808D01*
X589429Y449896D02*
X586184Y452492D01*
X586184Y440808D01*
X589429Y440808D02*
X582938Y440808D01*
X577999Y451194D02*
X577999Y452492D01*
X571508Y452492D01*
X574754Y440808D01*
M02*
