G04 EAGLE Gerber RS-274X export*
G75*
%MOMM*%
%FSLAX34Y34*%
%LPD*%
%INSolderpaste Top*%
%IPPOS*%
%AMOC8*
5,1,8,0,0,1.08239X$1,22.5*%
G01*
%ADD10R,1.500000X1.300000*%
%ADD11R,1.440000X1.000000*%
%ADD12R,1.440000X1.200000*%
%ADD13R,1.300000X1.500000*%
%ADD14R,0.973900X1.717900*%
%ADD15R,5.543900X7.000900*%
%ADD16R,2.700000X1.800000*%
%ADD17R,7.230000X5.600000*%
%ADD18R,1.200000X1.200000*%


D10*
X430000Y409500D03*
X430000Y390500D03*
X430000Y459500D03*
X430000Y440500D03*
X457000Y409500D03*
X457000Y390500D03*
X457000Y460500D03*
X457000Y441500D03*
X206000Y374500D03*
X206000Y355500D03*
X228000Y355500D03*
X228000Y374500D03*
X400500Y409500D03*
X400500Y390500D03*
X400500Y459500D03*
X400500Y440500D03*
X280000Y459500D03*
X280000Y440500D03*
X310000Y459500D03*
X310000Y440500D03*
X340000Y440500D03*
X340000Y459500D03*
X370000Y440500D03*
X370000Y459500D03*
X249000Y374500D03*
X249000Y355500D03*
D11*
X188000Y401000D03*
X210000Y420000D03*
D12*
X210000Y403000D03*
D11*
X188000Y420000D03*
D10*
X183000Y355500D03*
X183000Y374500D03*
D13*
X187500Y472000D03*
X168500Y472000D03*
X187500Y449000D03*
X168500Y449000D03*
D14*
X703700Y525459D03*
X749300Y525459D03*
D15*
X726500Y593126D03*
D16*
X749500Y454000D03*
X749500Y498000D03*
D17*
X861500Y388500D03*
X861500Y283500D03*
D18*
X190000Y589500D03*
X190000Y610500D03*
X220000Y589500D03*
X220000Y610500D03*
X280000Y589500D03*
X280000Y610500D03*
D10*
X140000Y360500D03*
X140000Y379500D03*
D18*
X250000Y589500D03*
X250000Y610500D03*
D10*
X110000Y360500D03*
X110000Y379500D03*
M02*
