G04 EAGLE Gerber RS-274X export*
G75*
%MOMM*%
%FSLAX34Y34*%
%LPD*%
%INSoldermask Bottom*%
%IPPOS*%
%AMOC8*
5,1,8,0,0,1.08239X$1,22.5*%
G01*
%ADD10C,1.828800*%
%ADD11R,1.703200X1.503200*%
%ADD12C,1.879600*%
%ADD13C,1.879600*%
%ADD14C,3.505200*%
%ADD15C,1.524000*%
%ADD16R,2.303200X2.303200*%
%ADD17C,3.203200*%
%ADD18R,3.060700X3.060700*%
%ADD19R,2.153200X2.153200*%
%ADD20C,0.959600*%


D10*
X291900Y342900D03*
X317300Y342900D03*
X317300Y419100D03*
X291900Y419100D03*
X342700Y342900D03*
X368100Y342900D03*
X342700Y419100D03*
X368100Y419100D03*
D11*
X615000Y349000D03*
X615000Y330000D03*
D12*
X591500Y470800D03*
X591500Y369200D03*
X615000Y380800D03*
X615000Y279200D03*
D13*
X615400Y231882D02*
X615400Y215118D01*
X590000Y215118D02*
X590000Y231882D01*
X564600Y231882D02*
X564600Y215118D01*
D14*
X590000Y48240D03*
D13*
X331320Y291878D02*
X331320Y308642D01*
X305920Y308642D02*
X305920Y291878D01*
X280520Y291878D02*
X280520Y308642D01*
D14*
X305920Y125000D03*
D13*
X450090Y292878D02*
X450090Y309642D01*
X424690Y309642D02*
X424690Y292878D01*
X399290Y292878D02*
X399290Y309642D01*
D14*
X424690Y126000D03*
D13*
X497100Y253118D02*
X497100Y269882D01*
X522500Y269882D02*
X522500Y253118D01*
X547900Y253118D02*
X547900Y269882D01*
D14*
X522500Y436760D03*
D13*
X228882Y259600D02*
X212118Y259600D01*
X212118Y285000D02*
X228882Y285000D01*
X228882Y310400D02*
X212118Y310400D01*
D14*
X45240Y285000D03*
D11*
X592000Y409500D03*
X592000Y428500D03*
D15*
X708100Y402300D02*
X721308Y402300D01*
X721308Y427700D02*
X708100Y427700D01*
X631900Y427700D02*
X618692Y427700D01*
X618692Y402300D02*
X631900Y402300D01*
X806000Y597626D02*
X806000Y610834D01*
X806000Y485104D02*
X806000Y471896D01*
D16*
X204000Y127900D03*
X162000Y127900D03*
X120000Y127900D03*
X78000Y127900D03*
X36000Y127900D03*
X78000Y182900D03*
X36000Y182900D03*
X120000Y182900D03*
X162000Y182900D03*
X204000Y182900D03*
D17*
X204000Y54900D03*
X36000Y54900D03*
D16*
X894000Y127900D03*
X852000Y127900D03*
X810000Y127900D03*
X768000Y127900D03*
X726000Y127900D03*
X768000Y182900D03*
X726000Y182900D03*
X810000Y182900D03*
X852000Y182900D03*
X894000Y182900D03*
D17*
X894000Y54900D03*
X726000Y54900D03*
D18*
X540000Y595800D03*
X616200Y595800D03*
X616200Y545000D03*
X540000Y545000D03*
X30000Y595800D03*
X106200Y595800D03*
X106200Y545000D03*
X30000Y545000D03*
D11*
X30000Y360500D03*
X30000Y379500D03*
X80000Y360500D03*
X80000Y379500D03*
D15*
X870000Y597626D02*
X870000Y610834D01*
X870000Y485104D02*
X870000Y471896D01*
X902000Y597626D02*
X902000Y610834D01*
X902000Y485104D02*
X902000Y471896D01*
X838000Y597626D02*
X838000Y610834D01*
X838000Y485104D02*
X838000Y471896D01*
D19*
X810000Y240000D03*
X810000Y399000D03*
X810000Y286000D03*
X810000Y445000D03*
D20*
X226000Y396000D03*
X564000Y410000D03*
X170000Y419000D03*
X183000Y340000D03*
X258000Y340000D03*
X241000Y394000D03*
X580000Y275000D03*
X114000Y156000D03*
X81000Y156000D03*
X375000Y286000D03*
X465000Y330000D03*
X399000Y260000D03*
X251000Y275000D03*
X257660Y314350D03*
X400000Y364000D03*
X30000Y410000D03*
X70000Y420000D03*
M02*
