G04 EAGLE Gerber RS-274X export*
G75*
%MOMM*%
%FSLAX34Y34*%
%LPD*%
%INBottom Copper*%
%IPPOS*%
%AMOC8*
5,1,8,0,0,1.08239X$1,22.5*%
G01*
%ADD10C,1.625600*%
%ADD11R,1.500000X1.300000*%
%ADD12C,1.676400*%
%ADD13C,1.676400*%
%ADD14C,1.320800*%
%ADD15R,2.100000X2.100000*%
%ADD16R,2.857500X2.857500*%
%ADD17R,1.950000X1.950000*%
%ADD18C,0.756400*%
%ADD19C,1.000000*%
%ADD20C,1.270000*%
%ADD21C,0.609600*%
%ADD22C,0.812800*%
%ADD23C,0.200000*%
%ADD24C,2.540000*%
%ADD25C,2.000000*%

G36*
X562823Y10162D02*
X562823Y10162D01*
X562840Y10161D01*
X563045Y10182D01*
X563251Y10201D01*
X563268Y10205D01*
X563285Y10207D01*
X563481Y10264D01*
X563682Y10319D01*
X563697Y10327D01*
X563714Y10331D01*
X563897Y10422D01*
X564085Y10512D01*
X564099Y10522D01*
X564114Y10530D01*
X564279Y10653D01*
X564447Y10774D01*
X564458Y10787D01*
X564472Y10797D01*
X564613Y10947D01*
X564756Y11096D01*
X564766Y11111D01*
X564777Y11123D01*
X564889Y11296D01*
X565003Y11468D01*
X565010Y11484D01*
X565019Y11498D01*
X565099Y11689D01*
X565180Y11879D01*
X565184Y11895D01*
X565191Y11911D01*
X565235Y12113D01*
X565282Y12314D01*
X565282Y12331D01*
X565286Y12347D01*
X565294Y12554D01*
X565304Y12760D01*
X565302Y12777D01*
X565302Y12794D01*
X565273Y12999D01*
X565246Y13203D01*
X565241Y13219D01*
X565238Y13236D01*
X565173Y13432D01*
X565110Y13628D01*
X565102Y13643D01*
X565097Y13660D01*
X564998Y13840D01*
X564901Y14023D01*
X564891Y14036D01*
X564883Y14051D01*
X564753Y14211D01*
X564625Y14374D01*
X564612Y14386D01*
X564602Y14399D01*
X564446Y14533D01*
X564359Y14610D01*
X556463Y22506D01*
X550945Y32063D01*
X548089Y42722D01*
X548089Y53758D01*
X550945Y64417D01*
X556463Y73974D01*
X564266Y81777D01*
X573823Y87295D01*
X584482Y90151D01*
X595518Y90151D01*
X606177Y87295D01*
X615734Y81777D01*
X623537Y73974D01*
X629055Y64417D01*
X631911Y53758D01*
X631911Y42722D01*
X629055Y32063D01*
X623537Y22506D01*
X615645Y14614D01*
X615579Y14568D01*
X615567Y14556D01*
X615553Y14546D01*
X615411Y14397D01*
X615265Y14250D01*
X615256Y14236D01*
X615244Y14224D01*
X615129Y14051D01*
X615013Y13881D01*
X615006Y13866D01*
X614997Y13852D01*
X614915Y13663D01*
X614830Y13474D01*
X614826Y13457D01*
X614820Y13441D01*
X614773Y13242D01*
X614723Y13040D01*
X614722Y13023D01*
X614718Y13006D01*
X614708Y12801D01*
X614695Y12594D01*
X614697Y12577D01*
X614696Y12560D01*
X614723Y12355D01*
X614747Y12150D01*
X614752Y12134D01*
X614754Y12117D01*
X614817Y11920D01*
X614877Y11723D01*
X614884Y11708D01*
X614890Y11692D01*
X614986Y11509D01*
X615080Y11325D01*
X615091Y11312D01*
X615099Y11297D01*
X615227Y11134D01*
X615352Y10971D01*
X615364Y10959D01*
X615375Y10946D01*
X615530Y10809D01*
X615682Y10670D01*
X615696Y10661D01*
X615709Y10649D01*
X615885Y10542D01*
X616060Y10432D01*
X616076Y10426D01*
X616091Y10417D01*
X616283Y10343D01*
X616475Y10266D01*
X616492Y10263D01*
X616508Y10257D01*
X616711Y10218D01*
X616913Y10177D01*
X616930Y10176D01*
X616946Y10173D01*
X617194Y10161D01*
X648000Y10161D01*
X648050Y10165D01*
X648100Y10163D01*
X648272Y10185D01*
X648445Y10201D01*
X648493Y10214D01*
X648543Y10220D01*
X648708Y10273D01*
X648876Y10319D01*
X648921Y10341D01*
X648968Y10356D01*
X649122Y10437D01*
X649278Y10512D01*
X649319Y10542D01*
X649363Y10565D01*
X649500Y10672D01*
X649640Y10774D01*
X649675Y10810D01*
X649714Y10841D01*
X649830Y10971D01*
X649950Y11096D01*
X649977Y11138D01*
X650011Y11176D01*
X650101Y11324D01*
X650197Y11468D01*
X650217Y11514D01*
X650243Y11557D01*
X650305Y11719D01*
X650374Y11879D01*
X650385Y11927D01*
X650403Y11974D01*
X650436Y12145D01*
X650475Y12314D01*
X650478Y12364D01*
X650487Y12413D01*
X650499Y12660D01*
X650499Y627340D01*
X650495Y627390D01*
X650497Y627440D01*
X650475Y627612D01*
X650459Y627785D01*
X650446Y627833D01*
X650440Y627883D01*
X650387Y628048D01*
X650341Y628216D01*
X650319Y628261D01*
X650304Y628308D01*
X650223Y628462D01*
X650148Y628618D01*
X650118Y628659D01*
X650095Y628703D01*
X649988Y628840D01*
X649886Y628980D01*
X649850Y629015D01*
X649819Y629054D01*
X649689Y629170D01*
X649564Y629290D01*
X649522Y629317D01*
X649484Y629351D01*
X649336Y629441D01*
X649192Y629537D01*
X649145Y629557D01*
X649103Y629583D01*
X648941Y629645D01*
X648781Y629714D01*
X648733Y629725D01*
X648686Y629743D01*
X648515Y629776D01*
X648346Y629815D01*
X648296Y629818D01*
X648247Y629827D01*
X648000Y629839D01*
X30000Y629839D01*
X29963Y629836D01*
X29837Y629834D01*
X27573Y629686D01*
X27453Y629667D01*
X27332Y629658D01*
X27163Y629621D01*
X27132Y629617D01*
X27118Y629612D01*
X27090Y629606D01*
X22717Y628434D01*
X22527Y628364D01*
X22335Y628297D01*
X22311Y628285D01*
X22298Y628280D01*
X22272Y628265D01*
X22115Y628184D01*
X18194Y625921D01*
X18029Y625805D01*
X17860Y625690D01*
X17840Y625672D01*
X17829Y625664D01*
X17808Y625643D01*
X17677Y625524D01*
X14476Y622323D01*
X14346Y622167D01*
X14213Y622013D01*
X14198Y621991D01*
X14190Y621980D01*
X14175Y621955D01*
X14079Y621806D01*
X11816Y617885D01*
X11730Y617701D01*
X11642Y617518D01*
X11633Y617493D01*
X11628Y617480D01*
X11620Y617451D01*
X11566Y617283D01*
X10864Y614664D01*
X10861Y614647D01*
X10856Y614632D01*
X10823Y614428D01*
X10788Y614224D01*
X10788Y614207D01*
X10785Y614191D01*
X10789Y613985D01*
X10791Y613777D01*
X10794Y613761D01*
X10794Y613744D01*
X10835Y613541D01*
X10873Y613338D01*
X10879Y613323D01*
X10882Y613306D01*
X10959Y613114D01*
X11032Y612921D01*
X11041Y612907D01*
X11047Y612891D01*
X11156Y612717D01*
X11263Y612539D01*
X11274Y612526D01*
X11283Y612512D01*
X11421Y612359D01*
X11559Y612204D01*
X11572Y612193D01*
X11583Y612181D01*
X11747Y612054D01*
X11909Y611926D01*
X11924Y611918D01*
X11937Y611908D01*
X12121Y611813D01*
X12303Y611716D01*
X12319Y611711D01*
X12334Y611703D01*
X12531Y611643D01*
X12728Y611579D01*
X12745Y611577D01*
X12761Y611572D01*
X12967Y611547D01*
X13171Y611520D01*
X13188Y611521D01*
X13204Y611519D01*
X13411Y611531D01*
X13617Y611541D01*
X13634Y611545D01*
X13650Y611546D01*
X13852Y611595D01*
X14053Y611641D01*
X14068Y611647D01*
X14084Y611651D01*
X14274Y611736D01*
X14463Y611817D01*
X14477Y611826D01*
X14493Y611833D01*
X14664Y611949D01*
X14836Y612063D01*
X14848Y612074D01*
X14862Y612084D01*
X14867Y612088D01*
X45116Y612088D01*
X46288Y610916D01*
X46288Y580684D01*
X45116Y579512D01*
X14884Y579512D01*
X14427Y579968D01*
X14322Y580056D01*
X14224Y580151D01*
X14151Y580199D01*
X14084Y580255D01*
X13965Y580322D01*
X13852Y580398D01*
X13772Y580432D01*
X13696Y580475D01*
X13567Y580521D01*
X13441Y580575D01*
X13357Y580595D01*
X13275Y580624D01*
X13140Y580645D01*
X13006Y580676D01*
X12920Y580681D01*
X12834Y580694D01*
X12697Y580692D01*
X12560Y580698D01*
X12474Y580687D01*
X12387Y580685D01*
X12253Y580658D01*
X12117Y580641D01*
X12034Y580614D01*
X11949Y580597D01*
X11822Y580547D01*
X11692Y580505D01*
X11615Y580464D01*
X11534Y580432D01*
X11418Y580360D01*
X11297Y580296D01*
X11229Y580242D01*
X11155Y580196D01*
X11053Y580104D01*
X10946Y580020D01*
X10888Y579955D01*
X10824Y579896D01*
X10740Y579788D01*
X10649Y579686D01*
X10604Y579611D01*
X10551Y579542D01*
X10488Y579421D01*
X10417Y579304D01*
X10386Y579223D01*
X10346Y579146D01*
X10306Y579015D01*
X10257Y578887D01*
X10240Y578802D01*
X10215Y578719D01*
X10199Y578583D01*
X10173Y578448D01*
X10166Y578312D01*
X10162Y578275D01*
X10163Y578252D01*
X10161Y578201D01*
X10161Y562599D01*
X10173Y562462D01*
X10176Y562326D01*
X10193Y562241D01*
X10201Y562154D01*
X10237Y562022D01*
X10264Y561888D01*
X10296Y561807D01*
X10319Y561723D01*
X10378Y561600D01*
X10429Y561473D01*
X10475Y561399D01*
X10512Y561321D01*
X10593Y561210D01*
X10665Y561094D01*
X10723Y561029D01*
X10774Y560959D01*
X10873Y560864D01*
X10965Y560762D01*
X11034Y560709D01*
X11096Y560649D01*
X11210Y560573D01*
X11319Y560490D01*
X11396Y560450D01*
X11468Y560402D01*
X11594Y560348D01*
X11716Y560285D01*
X11799Y560259D01*
X11879Y560225D01*
X12011Y560194D01*
X12143Y560154D01*
X12229Y560143D01*
X12314Y560124D01*
X12450Y560117D01*
X12586Y560101D01*
X12673Y560106D01*
X12760Y560102D01*
X12895Y560119D01*
X13032Y560127D01*
X13117Y560148D01*
X13203Y560159D01*
X13333Y560201D01*
X13466Y560233D01*
X13546Y560268D01*
X13628Y560295D01*
X13749Y560359D01*
X13874Y560414D01*
X13946Y560463D01*
X14023Y560504D01*
X14131Y560589D01*
X14244Y560666D01*
X14345Y560757D01*
X14374Y560780D01*
X14390Y560798D01*
X14427Y560832D01*
X14884Y561288D01*
X45116Y561288D01*
X46288Y560116D01*
X46288Y529884D01*
X45116Y528712D01*
X14884Y528712D01*
X14427Y529168D01*
X14322Y529256D01*
X14224Y529351D01*
X14151Y529399D01*
X14084Y529455D01*
X13965Y529522D01*
X13852Y529598D01*
X13772Y529632D01*
X13696Y529675D01*
X13567Y529721D01*
X13441Y529775D01*
X13357Y529795D01*
X13275Y529824D01*
X13140Y529845D01*
X13006Y529876D01*
X12920Y529881D01*
X12834Y529894D01*
X12697Y529892D01*
X12560Y529898D01*
X12474Y529887D01*
X12387Y529885D01*
X12253Y529858D01*
X12117Y529841D01*
X12034Y529814D01*
X11949Y529797D01*
X11822Y529747D01*
X11692Y529705D01*
X11615Y529664D01*
X11534Y529632D01*
X11418Y529560D01*
X11297Y529496D01*
X11229Y529442D01*
X11155Y529396D01*
X11053Y529304D01*
X10946Y529220D01*
X10888Y529155D01*
X10824Y529096D01*
X10740Y528988D01*
X10649Y528886D01*
X10604Y528811D01*
X10551Y528742D01*
X10488Y528621D01*
X10417Y528504D01*
X10386Y528423D01*
X10346Y528346D01*
X10306Y528215D01*
X10257Y528087D01*
X10240Y528002D01*
X10215Y527919D01*
X10199Y527783D01*
X10173Y527648D01*
X10166Y527512D01*
X10162Y527475D01*
X10163Y527452D01*
X10161Y527401D01*
X10161Y315225D01*
X10173Y315089D01*
X10176Y314952D01*
X10193Y314867D01*
X10201Y314780D01*
X10237Y314648D01*
X10264Y314514D01*
X10296Y314434D01*
X10319Y314350D01*
X10378Y314226D01*
X10429Y314099D01*
X10475Y314025D01*
X10512Y313947D01*
X10593Y313836D01*
X10665Y313720D01*
X10723Y313655D01*
X10774Y313585D01*
X10873Y313490D01*
X10965Y313389D01*
X11034Y313336D01*
X11096Y313275D01*
X11210Y313200D01*
X11319Y313116D01*
X11396Y313076D01*
X11468Y313028D01*
X11594Y312974D01*
X11716Y312911D01*
X11799Y312886D01*
X11879Y312851D01*
X12012Y312820D01*
X12143Y312780D01*
X12229Y312770D01*
X12314Y312750D01*
X12450Y312743D01*
X12586Y312727D01*
X12673Y312732D01*
X12760Y312728D01*
X12895Y312746D01*
X13032Y312754D01*
X13117Y312774D01*
X13203Y312786D01*
X13333Y312827D01*
X13466Y312859D01*
X13545Y312895D01*
X13628Y312921D01*
X13749Y312985D01*
X13874Y313041D01*
X13946Y313090D01*
X14023Y313130D01*
X14131Y313215D01*
X14244Y313292D01*
X14345Y313384D01*
X14374Y313406D01*
X14390Y313424D01*
X14427Y313458D01*
X19506Y318537D01*
X29063Y324055D01*
X39722Y326911D01*
X50758Y326911D01*
X61417Y324055D01*
X70974Y318537D01*
X78777Y310734D01*
X84295Y301177D01*
X87151Y290518D01*
X87151Y279482D01*
X84295Y268823D01*
X78777Y259266D01*
X70974Y251463D01*
X61417Y245945D01*
X50758Y243089D01*
X39722Y243089D01*
X29063Y245945D01*
X19506Y251463D01*
X14427Y256542D01*
X14322Y256630D01*
X14224Y256725D01*
X14151Y256773D01*
X14084Y256828D01*
X13966Y256896D01*
X13852Y256972D01*
X13772Y257006D01*
X13696Y257049D01*
X13567Y257095D01*
X13441Y257149D01*
X13357Y257168D01*
X13275Y257197D01*
X13139Y257219D01*
X13006Y257250D01*
X12920Y257254D01*
X12834Y257268D01*
X12697Y257265D01*
X12560Y257272D01*
X12474Y257261D01*
X12387Y257259D01*
X12253Y257232D01*
X12117Y257214D01*
X12034Y257188D01*
X11949Y257171D01*
X11822Y257120D01*
X11692Y257079D01*
X11615Y257038D01*
X11534Y257006D01*
X11418Y256934D01*
X11297Y256870D01*
X11229Y256816D01*
X11155Y256770D01*
X11053Y256678D01*
X10946Y256594D01*
X10888Y256528D01*
X10824Y256470D01*
X10740Y256362D01*
X10649Y256259D01*
X10604Y256185D01*
X10551Y256116D01*
X10488Y255995D01*
X10417Y255878D01*
X10386Y255796D01*
X10346Y255719D01*
X10306Y255589D01*
X10257Y255461D01*
X10240Y255375D01*
X10215Y255292D01*
X10199Y255157D01*
X10173Y255022D01*
X10166Y254885D01*
X10162Y254849D01*
X10163Y254825D01*
X10161Y254775D01*
X10161Y69794D01*
X10162Y69777D01*
X10161Y69761D01*
X10182Y69555D01*
X10201Y69349D01*
X10205Y69333D01*
X10207Y69316D01*
X10264Y69118D01*
X10319Y68918D01*
X10326Y68903D01*
X10331Y68887D01*
X10422Y68703D01*
X10512Y68515D01*
X10522Y68502D01*
X10530Y68487D01*
X10653Y68322D01*
X10774Y68154D01*
X10786Y68142D01*
X10796Y68129D01*
X10947Y67987D01*
X11096Y67844D01*
X11110Y67835D01*
X11123Y67823D01*
X11295Y67712D01*
X11468Y67597D01*
X11484Y67590D01*
X11498Y67581D01*
X11689Y67502D01*
X11879Y67420D01*
X11895Y67416D01*
X11910Y67410D01*
X12113Y67365D01*
X12314Y67319D01*
X12330Y67318D01*
X12347Y67314D01*
X12554Y67307D01*
X12760Y67297D01*
X12776Y67299D01*
X12793Y67298D01*
X12999Y67328D01*
X13203Y67354D01*
X13219Y67359D01*
X13235Y67362D01*
X13432Y67427D01*
X13628Y67490D01*
X13643Y67498D01*
X13659Y67503D01*
X13841Y67602D01*
X14023Y67699D01*
X14036Y67709D01*
X14051Y67717D01*
X14211Y67847D01*
X14374Y67975D01*
X14385Y67988D01*
X14398Y67998D01*
X14533Y68154D01*
X14671Y68309D01*
X14679Y68324D01*
X14690Y68336D01*
X14824Y68544D01*
X15866Y70349D01*
X20551Y75034D01*
X26288Y78346D01*
X32688Y80061D01*
X39312Y80061D01*
X45712Y78346D01*
X51449Y75034D01*
X56134Y70349D01*
X59446Y64612D01*
X61161Y58212D01*
X61161Y51588D01*
X59446Y45188D01*
X56134Y39451D01*
X51449Y34766D01*
X45712Y31454D01*
X39312Y29739D01*
X32688Y29739D01*
X26288Y31454D01*
X20551Y34766D01*
X15866Y39451D01*
X14824Y41256D01*
X14815Y41269D01*
X14808Y41285D01*
X14686Y41452D01*
X14567Y41621D01*
X14555Y41633D01*
X14546Y41646D01*
X14397Y41789D01*
X14249Y41935D01*
X14236Y41944D01*
X14224Y41956D01*
X14051Y42070D01*
X13881Y42187D01*
X13865Y42194D01*
X13852Y42203D01*
X13661Y42285D01*
X13473Y42369D01*
X13457Y42373D01*
X13441Y42380D01*
X13241Y42427D01*
X13039Y42476D01*
X13022Y42478D01*
X13006Y42481D01*
X12801Y42491D01*
X12593Y42505D01*
X12577Y42503D01*
X12560Y42503D01*
X12356Y42477D01*
X12150Y42453D01*
X12134Y42448D01*
X12117Y42446D01*
X11921Y42383D01*
X11722Y42323D01*
X11707Y42315D01*
X11692Y42310D01*
X11509Y42214D01*
X11325Y42119D01*
X11312Y42109D01*
X11297Y42101D01*
X11134Y41973D01*
X10970Y41848D01*
X10959Y41835D01*
X10946Y41825D01*
X10808Y41670D01*
X10669Y41517D01*
X10660Y41503D01*
X10649Y41491D01*
X10542Y41314D01*
X10432Y41139D01*
X10426Y41123D01*
X10417Y41109D01*
X10343Y40916D01*
X10266Y40724D01*
X10263Y40708D01*
X10257Y40692D01*
X10218Y40488D01*
X10177Y40286D01*
X10176Y40270D01*
X10173Y40253D01*
X10161Y40006D01*
X10161Y30000D01*
X10164Y29963D01*
X10166Y29837D01*
X10314Y27573D01*
X10333Y27453D01*
X10342Y27332D01*
X10379Y27163D01*
X10383Y27132D01*
X10388Y27118D01*
X10394Y27090D01*
X11566Y22717D01*
X11636Y22527D01*
X11703Y22335D01*
X11715Y22311D01*
X11720Y22298D01*
X11735Y22272D01*
X11816Y22115D01*
X14079Y18194D01*
X14195Y18029D01*
X14310Y17860D01*
X14328Y17840D01*
X14336Y17829D01*
X14357Y17808D01*
X14476Y17677D01*
X17677Y14476D01*
X17833Y14346D01*
X17987Y14213D01*
X18009Y14198D01*
X18020Y14190D01*
X18045Y14175D01*
X18194Y14079D01*
X22115Y11816D01*
X22145Y11802D01*
X22173Y11783D01*
X22329Y11716D01*
X22482Y11642D01*
X22508Y11633D01*
X22520Y11628D01*
X22548Y11620D01*
X22554Y11618D01*
X22583Y11606D01*
X22618Y11598D01*
X22717Y11566D01*
X27090Y10394D01*
X27210Y10373D01*
X27327Y10343D01*
X27499Y10323D01*
X27530Y10318D01*
X27544Y10318D01*
X27573Y10314D01*
X29837Y10166D01*
X29874Y10167D01*
X30000Y10161D01*
X562806Y10161D01*
X562823Y10162D01*
G37*
%LPC*%
G36*
X300402Y83089D02*
X300402Y83089D01*
X289743Y85945D01*
X280186Y91463D01*
X272383Y99266D01*
X266865Y108823D01*
X264009Y119482D01*
X264009Y130518D01*
X266865Y141177D01*
X272383Y150734D01*
X280186Y158537D01*
X289743Y164055D01*
X299750Y166736D01*
X299863Y166777D01*
X299979Y166809D01*
X300072Y166854D01*
X300169Y166890D01*
X300273Y166950D01*
X300382Y167002D01*
X300465Y167063D01*
X300555Y167116D01*
X300646Y167194D01*
X300743Y167264D01*
X300815Y167339D01*
X300894Y167406D01*
X300970Y167500D01*
X301053Y167586D01*
X301110Y167673D01*
X301176Y167753D01*
X301234Y167858D01*
X301300Y167958D01*
X301341Y168054D01*
X301391Y168144D01*
X301430Y168258D01*
X301477Y168369D01*
X301501Y168469D01*
X301534Y168568D01*
X301551Y168687D01*
X301578Y168804D01*
X301583Y168907D01*
X301598Y169010D01*
X301594Y169130D01*
X301600Y169250D01*
X301587Y169352D01*
X301584Y169456D01*
X301558Y169574D01*
X301543Y169693D01*
X301511Y169791D01*
X301490Y169893D01*
X301444Y170004D01*
X301407Y170118D01*
X301359Y170210D01*
X301319Y170306D01*
X301254Y170407D01*
X301198Y170513D01*
X301134Y170595D01*
X301078Y170682D01*
X300996Y170770D01*
X300922Y170864D01*
X300844Y170933D01*
X300774Y171009D01*
X300678Y171081D01*
X300588Y171161D01*
X300499Y171214D01*
X300416Y171277D01*
X300309Y171330D01*
X300206Y171393D01*
X300109Y171430D01*
X300017Y171476D01*
X299901Y171510D01*
X299789Y171553D01*
X299687Y171573D01*
X299588Y171602D01*
X299469Y171614D01*
X299350Y171637D01*
X299173Y171646D01*
X299144Y171649D01*
X299130Y171648D01*
X299103Y171649D01*
X285994Y171649D01*
X285808Y171633D01*
X285622Y171621D01*
X285586Y171613D01*
X285549Y171609D01*
X285369Y171560D01*
X285188Y171516D01*
X285154Y171501D01*
X285119Y171491D01*
X284950Y171410D01*
X284780Y171334D01*
X284749Y171314D01*
X284716Y171298D01*
X284565Y171188D01*
X284410Y171083D01*
X284373Y171049D01*
X284354Y171036D01*
X284329Y171009D01*
X284227Y170917D01*
X234130Y120821D01*
X231061Y119549D01*
X219000Y119549D01*
X218950Y119545D01*
X218900Y119547D01*
X218728Y119525D01*
X218555Y119509D01*
X218507Y119496D01*
X218457Y119490D01*
X218292Y119437D01*
X218124Y119391D01*
X218079Y119369D01*
X218032Y119354D01*
X217878Y119273D01*
X217722Y119198D01*
X217681Y119168D01*
X217637Y119145D01*
X217500Y119038D01*
X217360Y118936D01*
X217325Y118900D01*
X217286Y118869D01*
X217170Y118739D01*
X217050Y118614D01*
X217023Y118572D01*
X216989Y118534D01*
X216899Y118386D01*
X216803Y118242D01*
X216783Y118196D01*
X216757Y118153D01*
X216695Y117991D01*
X216626Y117831D01*
X216615Y117783D01*
X216597Y117736D01*
X216564Y117565D01*
X216525Y117396D01*
X216522Y117346D01*
X216513Y117297D01*
X216501Y117050D01*
X216501Y116571D01*
X215329Y115399D01*
X209500Y115399D01*
X209450Y115395D01*
X209400Y115397D01*
X209228Y115375D01*
X209055Y115359D01*
X209007Y115346D01*
X208957Y115340D01*
X208792Y115287D01*
X208624Y115241D01*
X208579Y115219D01*
X208532Y115204D01*
X208378Y115123D01*
X208222Y115048D01*
X208181Y115018D01*
X208137Y114995D01*
X208000Y114888D01*
X207860Y114786D01*
X207825Y114750D01*
X207786Y114719D01*
X207670Y114589D01*
X207550Y114464D01*
X207523Y114422D01*
X207489Y114384D01*
X207399Y114236D01*
X207303Y114092D01*
X207283Y114046D01*
X207257Y114003D01*
X207195Y113841D01*
X207126Y113681D01*
X207115Y113633D01*
X207097Y113586D01*
X207064Y113415D01*
X207025Y113246D01*
X207022Y113196D01*
X207013Y113147D01*
X207001Y112900D01*
X207001Y102757D01*
X191243Y86999D01*
X108757Y86999D01*
X106268Y89489D01*
X106267Y89489D01*
X99489Y96267D01*
X96999Y98757D01*
X96999Y307722D01*
X96983Y307908D01*
X96971Y308094D01*
X96963Y308130D01*
X96959Y308167D01*
X96910Y308347D01*
X96866Y308528D01*
X96851Y308562D01*
X96841Y308597D01*
X96760Y308766D01*
X96684Y308936D01*
X96664Y308967D01*
X96648Y309000D01*
X96538Y309151D01*
X96433Y309306D01*
X96399Y309343D01*
X96386Y309362D01*
X96359Y309388D01*
X96267Y309489D01*
X69489Y336267D01*
X69346Y336387D01*
X69206Y336511D01*
X69175Y336530D01*
X69146Y336554D01*
X68984Y336646D01*
X68825Y336743D01*
X68790Y336756D01*
X68758Y336774D01*
X68582Y336836D01*
X68408Y336903D01*
X68371Y336910D01*
X68336Y336923D01*
X68152Y336952D01*
X67969Y336987D01*
X67919Y336990D01*
X67895Y336993D01*
X67858Y336992D01*
X67722Y336999D01*
X49257Y336999D01*
X46767Y339489D01*
X34989Y351267D01*
X34846Y351387D01*
X34706Y351511D01*
X34675Y351530D01*
X34646Y351554D01*
X34484Y351646D01*
X34325Y351743D01*
X34290Y351756D01*
X34258Y351774D01*
X34082Y351836D01*
X33908Y351903D01*
X33871Y351910D01*
X33836Y351923D01*
X33652Y351952D01*
X33469Y351987D01*
X33419Y351990D01*
X33395Y351993D01*
X33358Y351992D01*
X33222Y351999D01*
X21671Y351999D01*
X20499Y353171D01*
X20499Y367829D01*
X20903Y368233D01*
X20935Y368271D01*
X20972Y368305D01*
X21078Y368442D01*
X21190Y368576D01*
X21214Y368619D01*
X21245Y368659D01*
X21325Y368813D01*
X21410Y368964D01*
X21427Y369011D01*
X21450Y369056D01*
X21501Y369221D01*
X21559Y369385D01*
X21566Y369435D01*
X21581Y369483D01*
X21602Y369655D01*
X21629Y369826D01*
X21628Y369876D01*
X21634Y369926D01*
X21624Y370100D01*
X21620Y370273D01*
X21610Y370322D01*
X21607Y370372D01*
X21566Y370540D01*
X21532Y370711D01*
X21514Y370758D01*
X21502Y370806D01*
X21431Y370965D01*
X21367Y371126D01*
X21341Y371168D01*
X21321Y371214D01*
X21223Y371358D01*
X21131Y371505D01*
X21098Y371542D01*
X21069Y371584D01*
X20903Y371767D01*
X20499Y372171D01*
X20499Y386829D01*
X21671Y388001D01*
X24500Y388001D01*
X24550Y388005D01*
X24600Y388003D01*
X24772Y388025D01*
X24945Y388041D01*
X24993Y388054D01*
X25043Y388060D01*
X25208Y388113D01*
X25376Y388159D01*
X25421Y388181D01*
X25468Y388196D01*
X25622Y388277D01*
X25778Y388352D01*
X25819Y388382D01*
X25863Y388405D01*
X26000Y388512D01*
X26140Y388614D01*
X26175Y388650D01*
X26214Y388681D01*
X26330Y388811D01*
X26450Y388936D01*
X26477Y388978D01*
X26511Y389016D01*
X26601Y389164D01*
X26697Y389308D01*
X26717Y389354D01*
X26743Y389397D01*
X26805Y389559D01*
X26874Y389719D01*
X26885Y389767D01*
X26903Y389814D01*
X26936Y389985D01*
X26975Y390154D01*
X26978Y390203D01*
X26987Y390253D01*
X26999Y390500D01*
X26999Y403787D01*
X26983Y403973D01*
X26971Y404160D01*
X26963Y404195D01*
X26959Y404232D01*
X26910Y404413D01*
X26866Y404594D01*
X26851Y404627D01*
X26841Y404663D01*
X26760Y404832D01*
X26684Y405002D01*
X26664Y405032D01*
X26648Y405066D01*
X26538Y405217D01*
X26433Y405371D01*
X26399Y405409D01*
X26386Y405428D01*
X26359Y405453D01*
X26267Y405555D01*
X25098Y406724D01*
X24217Y408850D01*
X24217Y411150D01*
X25098Y413276D01*
X26724Y414902D01*
X28850Y415783D01*
X31150Y415783D01*
X33276Y414902D01*
X34902Y413276D01*
X35783Y411150D01*
X35783Y408850D01*
X34902Y406724D01*
X33733Y405555D01*
X33613Y405411D01*
X33489Y405272D01*
X33470Y405240D01*
X33446Y405212D01*
X33354Y405050D01*
X33257Y404890D01*
X33244Y404856D01*
X33226Y404824D01*
X33164Y404648D01*
X33097Y404473D01*
X33090Y404437D01*
X33077Y404402D01*
X33048Y404218D01*
X33013Y404035D01*
X33010Y403984D01*
X33007Y403961D01*
X33008Y403924D01*
X33001Y403787D01*
X33001Y390500D01*
X33005Y390450D01*
X33003Y390400D01*
X33025Y390228D01*
X33041Y390055D01*
X33054Y390007D01*
X33060Y389957D01*
X33113Y389792D01*
X33159Y389624D01*
X33181Y389579D01*
X33196Y389532D01*
X33277Y389378D01*
X33352Y389222D01*
X33382Y389181D01*
X33405Y389137D01*
X33512Y389000D01*
X33614Y388860D01*
X33650Y388825D01*
X33681Y388786D01*
X33811Y388670D01*
X33936Y388550D01*
X33978Y388523D01*
X34016Y388489D01*
X34164Y388399D01*
X34308Y388303D01*
X34354Y388283D01*
X34397Y388257D01*
X34559Y388195D01*
X34719Y388126D01*
X34767Y388115D01*
X34814Y388097D01*
X34985Y388064D01*
X35154Y388025D01*
X35204Y388022D01*
X35253Y388013D01*
X35500Y388001D01*
X38329Y388001D01*
X39501Y386829D01*
X39501Y372171D01*
X39097Y371767D01*
X39065Y371729D01*
X39027Y371695D01*
X38922Y371558D01*
X38810Y371424D01*
X38786Y371381D01*
X38755Y371341D01*
X38675Y371187D01*
X38590Y371036D01*
X38573Y370989D01*
X38550Y370944D01*
X38499Y370778D01*
X38441Y370615D01*
X38433Y370565D01*
X38419Y370517D01*
X38398Y370345D01*
X38371Y370174D01*
X38372Y370124D01*
X38366Y370074D01*
X38376Y369900D01*
X38380Y369727D01*
X38390Y369678D01*
X38393Y369628D01*
X38434Y369459D01*
X38468Y369289D01*
X38486Y369243D01*
X38498Y369194D01*
X38569Y369035D01*
X38633Y368874D01*
X38659Y368831D01*
X38680Y368786D01*
X38777Y368642D01*
X38869Y368495D01*
X38902Y368458D01*
X38931Y368416D01*
X39097Y368233D01*
X39501Y367829D01*
X39501Y356278D01*
X39517Y356092D01*
X39529Y355906D01*
X39537Y355870D01*
X39541Y355833D01*
X39590Y355653D01*
X39634Y355472D01*
X39649Y355438D01*
X39659Y355403D01*
X39740Y355234D01*
X39816Y355064D01*
X39836Y355033D01*
X39852Y355000D01*
X39962Y354849D01*
X40067Y354694D01*
X40101Y354657D01*
X40114Y354638D01*
X40141Y354612D01*
X40233Y354511D01*
X51011Y343733D01*
X51154Y343613D01*
X51294Y343489D01*
X51325Y343470D01*
X51354Y343446D01*
X51516Y343354D01*
X51675Y343257D01*
X51710Y343244D01*
X51742Y343226D01*
X51918Y343164D01*
X52092Y343097D01*
X52129Y343090D01*
X52163Y343077D01*
X52348Y343048D01*
X52531Y343013D01*
X52581Y343010D01*
X52605Y343007D01*
X52642Y343008D01*
X52778Y343001D01*
X71243Y343001D01*
X100511Y313733D01*
X102733Y311511D01*
X102838Y311423D01*
X102936Y311328D01*
X103009Y311280D01*
X103076Y311225D01*
X103195Y311157D01*
X103308Y311081D01*
X103388Y311047D01*
X103464Y311004D01*
X103593Y310958D01*
X103719Y310904D01*
X103803Y310885D01*
X103885Y310856D01*
X104021Y310834D01*
X104154Y310803D01*
X104240Y310799D01*
X104326Y310785D01*
X104463Y310788D01*
X104600Y310781D01*
X104686Y310792D01*
X104773Y310794D01*
X104907Y310821D01*
X105043Y310839D01*
X105126Y310865D01*
X105211Y310882D01*
X105338Y310933D01*
X105468Y310974D01*
X105545Y311015D01*
X105626Y311047D01*
X105742Y311119D01*
X105863Y311183D01*
X105931Y311237D01*
X106005Y311283D01*
X106107Y311375D01*
X106214Y311459D01*
X106272Y311525D01*
X106336Y311583D01*
X106420Y311691D01*
X106511Y311794D01*
X106556Y311868D01*
X106609Y311937D01*
X106672Y312058D01*
X106743Y312175D01*
X106774Y312256D01*
X106814Y312334D01*
X106854Y312464D01*
X106903Y312592D01*
X106920Y312678D01*
X106945Y312761D01*
X106961Y312896D01*
X106987Y313031D01*
X106994Y313168D01*
X106998Y313204D01*
X106997Y313228D01*
X106999Y313278D01*
X106999Y328222D01*
X106983Y328408D01*
X106971Y328594D01*
X106963Y328630D01*
X106959Y328667D01*
X106910Y328847D01*
X106866Y329028D01*
X106851Y329062D01*
X106841Y329097D01*
X106760Y329266D01*
X106684Y329436D01*
X106664Y329467D01*
X106648Y329500D01*
X106538Y329651D01*
X106433Y329806D01*
X106399Y329843D01*
X106386Y329862D01*
X106359Y329888D01*
X106267Y329989D01*
X84989Y351267D01*
X84846Y351387D01*
X84706Y351511D01*
X84675Y351530D01*
X84646Y351554D01*
X84484Y351646D01*
X84325Y351743D01*
X84290Y351756D01*
X84258Y351774D01*
X84082Y351836D01*
X83908Y351903D01*
X83871Y351910D01*
X83836Y351923D01*
X83652Y351952D01*
X83469Y351987D01*
X83419Y351990D01*
X83395Y351993D01*
X83358Y351992D01*
X83222Y351999D01*
X71671Y351999D01*
X70499Y353171D01*
X70499Y367829D01*
X70903Y368233D01*
X70935Y368271D01*
X70972Y368305D01*
X71078Y368442D01*
X71190Y368576D01*
X71214Y368619D01*
X71245Y368659D01*
X71325Y368813D01*
X71410Y368964D01*
X71427Y369011D01*
X71450Y369056D01*
X71501Y369221D01*
X71559Y369385D01*
X71566Y369435D01*
X71581Y369483D01*
X71602Y369655D01*
X71629Y369826D01*
X71628Y369876D01*
X71634Y369926D01*
X71624Y370100D01*
X71620Y370273D01*
X71610Y370322D01*
X71607Y370372D01*
X71566Y370540D01*
X71532Y370711D01*
X71514Y370758D01*
X71502Y370806D01*
X71431Y370965D01*
X71367Y371126D01*
X71341Y371168D01*
X71321Y371214D01*
X71223Y371358D01*
X71131Y371505D01*
X71098Y371542D01*
X71069Y371584D01*
X70903Y371767D01*
X70499Y372171D01*
X70499Y386829D01*
X71671Y388001D01*
X74500Y388001D01*
X74550Y388005D01*
X74600Y388003D01*
X74772Y388025D01*
X74945Y388041D01*
X74993Y388054D01*
X75043Y388060D01*
X75208Y388113D01*
X75376Y388159D01*
X75421Y388181D01*
X75468Y388196D01*
X75622Y388277D01*
X75778Y388352D01*
X75819Y388382D01*
X75863Y388405D01*
X76000Y388512D01*
X76140Y388614D01*
X76175Y388650D01*
X76214Y388681D01*
X76330Y388811D01*
X76450Y388936D01*
X76477Y388978D01*
X76511Y389016D01*
X76601Y389164D01*
X76697Y389308D01*
X76717Y389354D01*
X76743Y389397D01*
X76805Y389559D01*
X76874Y389719D01*
X76885Y389767D01*
X76903Y389814D01*
X76936Y389985D01*
X76975Y390154D01*
X76978Y390203D01*
X76987Y390253D01*
X76999Y390500D01*
X76999Y407722D01*
X76983Y407908D01*
X76971Y408094D01*
X76963Y408130D01*
X76959Y408167D01*
X76910Y408347D01*
X76866Y408528D01*
X76851Y408562D01*
X76841Y408597D01*
X76760Y408766D01*
X76684Y408936D01*
X76664Y408967D01*
X76648Y409000D01*
X76538Y409151D01*
X76433Y409306D01*
X76399Y409343D01*
X76386Y409362D01*
X76359Y409388D01*
X76267Y409489D01*
X72271Y413485D01*
X72128Y413605D01*
X71988Y413729D01*
X71957Y413748D01*
X71928Y413772D01*
X71766Y413864D01*
X71607Y413961D01*
X71572Y413974D01*
X71540Y413992D01*
X71364Y414054D01*
X71190Y414121D01*
X71153Y414128D01*
X71118Y414141D01*
X70934Y414170D01*
X70751Y414205D01*
X70701Y414208D01*
X70677Y414211D01*
X70640Y414210D01*
X70504Y414217D01*
X68850Y414217D01*
X66724Y415098D01*
X65098Y416724D01*
X64217Y418850D01*
X64217Y421150D01*
X65098Y423276D01*
X66724Y424902D01*
X68850Y425783D01*
X71150Y425783D01*
X73276Y424902D01*
X74902Y423276D01*
X75783Y421150D01*
X75783Y419496D01*
X75799Y419310D01*
X75811Y419124D01*
X75819Y419088D01*
X75823Y419051D01*
X75872Y418871D01*
X75916Y418690D01*
X75931Y418656D01*
X75941Y418621D01*
X76022Y418452D01*
X76098Y418282D01*
X76118Y418251D01*
X76134Y418218D01*
X76244Y418067D01*
X76349Y417912D01*
X76383Y417875D01*
X76396Y417856D01*
X76423Y417830D01*
X76515Y417729D01*
X83001Y411243D01*
X83001Y390500D01*
X83005Y390450D01*
X83003Y390400D01*
X83025Y390228D01*
X83041Y390055D01*
X83054Y390007D01*
X83060Y389957D01*
X83113Y389792D01*
X83159Y389624D01*
X83181Y389579D01*
X83196Y389532D01*
X83277Y389378D01*
X83352Y389222D01*
X83382Y389181D01*
X83405Y389137D01*
X83512Y389000D01*
X83614Y388860D01*
X83650Y388825D01*
X83681Y388786D01*
X83811Y388670D01*
X83936Y388550D01*
X83978Y388523D01*
X84016Y388489D01*
X84164Y388399D01*
X84308Y388303D01*
X84354Y388283D01*
X84397Y388257D01*
X84559Y388195D01*
X84719Y388126D01*
X84767Y388115D01*
X84814Y388097D01*
X84985Y388064D01*
X85154Y388025D01*
X85204Y388022D01*
X85253Y388013D01*
X85500Y388001D01*
X88329Y388001D01*
X89501Y386829D01*
X89501Y372171D01*
X89097Y371767D01*
X89065Y371729D01*
X89027Y371695D01*
X88922Y371558D01*
X88810Y371424D01*
X88786Y371381D01*
X88755Y371341D01*
X88675Y371187D01*
X88590Y371036D01*
X88573Y370989D01*
X88550Y370944D01*
X88499Y370778D01*
X88441Y370615D01*
X88433Y370565D01*
X88419Y370517D01*
X88398Y370345D01*
X88371Y370174D01*
X88372Y370124D01*
X88366Y370074D01*
X88376Y369900D01*
X88380Y369727D01*
X88390Y369678D01*
X88393Y369628D01*
X88434Y369459D01*
X88468Y369289D01*
X88486Y369243D01*
X88498Y369194D01*
X88569Y369035D01*
X88633Y368874D01*
X88659Y368831D01*
X88680Y368786D01*
X88777Y368642D01*
X88869Y368495D01*
X88902Y368458D01*
X88931Y368416D01*
X89097Y368233D01*
X89501Y367829D01*
X89501Y356278D01*
X89517Y356092D01*
X89529Y355906D01*
X89537Y355870D01*
X89541Y355833D01*
X89590Y355653D01*
X89634Y355472D01*
X89649Y355438D01*
X89659Y355403D01*
X89740Y355234D01*
X89816Y355064D01*
X89836Y355033D01*
X89852Y355000D01*
X89962Y354849D01*
X90067Y354694D01*
X90101Y354657D01*
X90114Y354638D01*
X90141Y354612D01*
X90233Y354511D01*
X113001Y331743D01*
X113001Y242278D01*
X113017Y242092D01*
X113029Y241906D01*
X113037Y241870D01*
X113041Y241833D01*
X113090Y241653D01*
X113134Y241472D01*
X113149Y241438D01*
X113159Y241403D01*
X113240Y241234D01*
X113316Y241064D01*
X113336Y241033D01*
X113352Y241000D01*
X113462Y240849D01*
X113567Y240694D01*
X113601Y240657D01*
X113614Y240638D01*
X113641Y240612D01*
X113733Y240511D01*
X143001Y211243D01*
X143001Y152178D01*
X143017Y151992D01*
X143029Y151806D01*
X143037Y151770D01*
X143041Y151733D01*
X143090Y151553D01*
X143134Y151372D01*
X143149Y151338D01*
X143159Y151303D01*
X143240Y151134D01*
X143316Y150964D01*
X143336Y150933D01*
X143352Y150900D01*
X143462Y150749D01*
X143567Y150594D01*
X143601Y150557D01*
X143614Y150538D01*
X143641Y150512D01*
X143733Y150411D01*
X153011Y141133D01*
X153154Y141013D01*
X153294Y140889D01*
X153325Y140870D01*
X153354Y140846D01*
X153516Y140754D01*
X153675Y140657D01*
X153710Y140644D01*
X153742Y140626D01*
X153918Y140564D01*
X154092Y140497D01*
X154129Y140490D01*
X154164Y140477D01*
X154348Y140448D01*
X154531Y140413D01*
X154581Y140410D01*
X154605Y140407D01*
X154642Y140408D01*
X154778Y140401D01*
X157556Y140401D01*
X157742Y140417D01*
X157928Y140429D01*
X157964Y140437D01*
X158001Y140441D01*
X158181Y140490D01*
X158362Y140534D01*
X158396Y140549D01*
X158431Y140559D01*
X158600Y140640D01*
X158770Y140716D01*
X158801Y140736D01*
X158834Y140752D01*
X158985Y140862D01*
X159140Y140967D01*
X159177Y141001D01*
X159196Y141014D01*
X159221Y141041D01*
X159323Y141133D01*
X175270Y157079D01*
X178339Y158351D01*
X215506Y158351D01*
X215692Y158367D01*
X215878Y158379D01*
X215914Y158387D01*
X215951Y158391D01*
X216131Y158440D01*
X216312Y158484D01*
X216346Y158499D01*
X216381Y158509D01*
X216550Y158590D01*
X216720Y158666D01*
X216751Y158686D01*
X216784Y158702D01*
X216935Y158812D01*
X217090Y158917D01*
X217127Y158951D01*
X217146Y158964D01*
X217171Y158991D01*
X217273Y159083D01*
X296837Y238647D01*
X296957Y238790D01*
X297081Y238930D01*
X297100Y238961D01*
X297124Y238990D01*
X297216Y239152D01*
X297313Y239311D01*
X297326Y239346D01*
X297344Y239378D01*
X297406Y239554D01*
X297473Y239728D01*
X297480Y239765D01*
X297493Y239800D01*
X297522Y239984D01*
X297557Y240167D01*
X297560Y240217D01*
X297563Y240241D01*
X297562Y240278D01*
X297569Y240414D01*
X297569Y284510D01*
X297553Y284696D01*
X297541Y284883D01*
X297533Y284918D01*
X297529Y284955D01*
X297480Y285135D01*
X297436Y285317D01*
X297421Y285350D01*
X297411Y285386D01*
X297330Y285554D01*
X297254Y285725D01*
X297234Y285755D01*
X297218Y285788D01*
X297186Y285832D01*
X295529Y289833D01*
X295466Y289954D01*
X295411Y290079D01*
X295362Y290151D01*
X295322Y290228D01*
X295238Y290336D01*
X295162Y290450D01*
X295101Y290512D01*
X295048Y290581D01*
X294946Y290672D01*
X294850Y290771D01*
X294780Y290821D01*
X294715Y290879D01*
X294598Y290951D01*
X294487Y291030D01*
X294409Y291068D01*
X294335Y291113D01*
X294207Y291163D01*
X294083Y291222D01*
X293999Y291244D01*
X293918Y291276D01*
X293784Y291302D01*
X293652Y291338D01*
X293565Y291345D01*
X293480Y291362D01*
X293343Y291364D01*
X293207Y291376D01*
X293120Y291367D01*
X293034Y291369D01*
X292898Y291346D01*
X292762Y291333D01*
X292679Y291310D01*
X292593Y291296D01*
X292464Y291249D01*
X292332Y291213D01*
X292254Y291175D01*
X292172Y291145D01*
X292054Y291077D01*
X291931Y291017D01*
X291860Y290966D01*
X291785Y290922D01*
X291681Y290834D01*
X291570Y290753D01*
X291510Y290690D01*
X291444Y290634D01*
X291356Y290529D01*
X291262Y290430D01*
X291215Y290357D01*
X291159Y290290D01*
X291092Y290171D01*
X291017Y290056D01*
X290958Y289933D01*
X290940Y289901D01*
X290933Y289878D01*
X290911Y289833D01*
X289322Y285997D01*
X286401Y283076D01*
X282585Y281495D01*
X278455Y281495D01*
X274639Y283076D01*
X271718Y285997D01*
X270137Y289813D01*
X270137Y310707D01*
X271718Y314523D01*
X273699Y316505D01*
X273787Y316610D01*
X273882Y316708D01*
X273930Y316781D01*
X273986Y316848D01*
X274053Y316967D01*
X274129Y317080D01*
X274164Y317160D01*
X274207Y317236D01*
X274252Y317365D01*
X274306Y317491D01*
X274326Y317575D01*
X274355Y317657D01*
X274376Y317793D01*
X274407Y317926D01*
X274412Y318012D01*
X274425Y318098D01*
X274423Y318235D01*
X274429Y318372D01*
X274418Y318458D01*
X274416Y318545D01*
X274389Y318679D01*
X274372Y318815D01*
X274345Y318898D01*
X274328Y318983D01*
X274278Y319110D01*
X274236Y319240D01*
X274195Y319317D01*
X274163Y319398D01*
X274091Y319514D01*
X274027Y319635D01*
X273973Y319703D01*
X273927Y319777D01*
X273835Y319879D01*
X273751Y319986D01*
X273686Y320044D01*
X273627Y320108D01*
X273519Y320192D01*
X273417Y320283D01*
X273342Y320328D01*
X273273Y320381D01*
X273152Y320444D01*
X273035Y320515D01*
X272954Y320546D01*
X272877Y320586D01*
X272746Y320626D01*
X272618Y320675D01*
X272533Y320692D01*
X272450Y320717D01*
X272314Y320733D01*
X272179Y320759D01*
X272043Y320766D01*
X272006Y320770D01*
X271983Y320769D01*
X271932Y320771D01*
X266318Y320771D01*
X266225Y320763D01*
X266132Y320764D01*
X266003Y320743D01*
X265873Y320731D01*
X265783Y320707D01*
X265691Y320691D01*
X265568Y320647D01*
X265443Y320613D01*
X265358Y320572D01*
X265270Y320541D01*
X265157Y320476D01*
X265040Y320420D01*
X264964Y320365D01*
X264883Y320318D01*
X264784Y320234D01*
X264678Y320158D01*
X264613Y320090D01*
X264542Y320030D01*
X264459Y319930D01*
X264368Y319836D01*
X264317Y319758D01*
X264257Y319686D01*
X264193Y319572D01*
X264121Y319464D01*
X264084Y319378D01*
X264038Y319296D01*
X263996Y319173D01*
X263944Y319053D01*
X263923Y318963D01*
X263892Y318874D01*
X263872Y318745D01*
X263843Y318618D01*
X263838Y318525D01*
X263824Y318433D01*
X263827Y318302D01*
X263821Y318172D01*
X263833Y318080D01*
X263835Y317986D01*
X263862Y317858D01*
X263879Y317729D01*
X263907Y317640D01*
X263926Y317549D01*
X264009Y317316D01*
X264661Y315743D01*
X264661Y311957D01*
X263595Y309384D01*
X262433Y308222D01*
X262313Y308079D01*
X262189Y307939D01*
X262170Y307908D01*
X262146Y307879D01*
X262054Y307717D01*
X261957Y307558D01*
X261944Y307523D01*
X261926Y307491D01*
X261864Y307315D01*
X261797Y307141D01*
X261790Y307105D01*
X261777Y307070D01*
X261748Y306885D01*
X261713Y306702D01*
X261710Y306652D01*
X261707Y306629D01*
X261708Y306592D01*
X261701Y306455D01*
X261701Y277307D01*
X260635Y274734D01*
X254966Y269065D01*
X252393Y267999D01*
X249607Y267999D01*
X247034Y269065D01*
X245065Y271034D01*
X243999Y273607D01*
X243999Y276393D01*
X245065Y278966D01*
X246967Y280868D01*
X247070Y280990D01*
X247094Y281015D01*
X247102Y281028D01*
X247211Y281151D01*
X247230Y281182D01*
X247254Y281211D01*
X247346Y281373D01*
X247443Y281532D01*
X247456Y281567D01*
X247474Y281599D01*
X247536Y281775D01*
X247603Y281949D01*
X247610Y281985D01*
X247623Y282020D01*
X247652Y282205D01*
X247687Y282388D01*
X247690Y282438D01*
X247693Y282461D01*
X247692Y282498D01*
X247699Y282635D01*
X247699Y311783D01*
X248765Y314356D01*
X250666Y316257D01*
X250758Y316367D01*
X250857Y316471D01*
X250901Y316538D01*
X250953Y316600D01*
X251023Y316724D01*
X251102Y316844D01*
X251155Y316956D01*
X251174Y316988D01*
X251182Y317013D01*
X251208Y317068D01*
X251311Y317315D01*
X251339Y317405D01*
X251376Y317491D01*
X251405Y317617D01*
X251444Y317742D01*
X251456Y317835D01*
X251477Y317926D01*
X251483Y318056D01*
X251500Y318185D01*
X251494Y318278D01*
X251499Y318372D01*
X251482Y318501D01*
X251475Y318631D01*
X251454Y318722D01*
X251441Y318815D01*
X251402Y318939D01*
X251372Y319066D01*
X251334Y319151D01*
X251306Y319240D01*
X251245Y319356D01*
X251193Y319475D01*
X251141Y319552D01*
X251097Y319635D01*
X251016Y319738D01*
X250944Y319846D01*
X250878Y319913D01*
X250821Y319986D01*
X250723Y320073D01*
X250632Y320166D01*
X250556Y320221D01*
X250486Y320283D01*
X250375Y320350D01*
X250269Y320426D01*
X250185Y320466D01*
X250105Y320515D01*
X249983Y320561D01*
X249865Y320617D01*
X249775Y320642D01*
X249688Y320675D01*
X249560Y320700D01*
X249434Y320734D01*
X249341Y320741D01*
X249249Y320759D01*
X249002Y320771D01*
X239228Y320771D01*
X239091Y320759D01*
X238955Y320756D01*
X238870Y320739D01*
X238783Y320731D01*
X238651Y320695D01*
X238517Y320668D01*
X238436Y320636D01*
X238352Y320613D01*
X238229Y320554D01*
X238102Y320503D01*
X238028Y320457D01*
X237950Y320420D01*
X237838Y320339D01*
X237723Y320267D01*
X237658Y320209D01*
X237588Y320158D01*
X237493Y320059D01*
X237391Y319967D01*
X237338Y319898D01*
X237278Y319836D01*
X237202Y319722D01*
X237119Y319613D01*
X237079Y319536D01*
X237031Y319464D01*
X236977Y319338D01*
X236914Y319216D01*
X236888Y319133D01*
X236854Y319053D01*
X236823Y318920D01*
X236783Y318789D01*
X236772Y318703D01*
X236753Y318618D01*
X236746Y318482D01*
X236730Y318346D01*
X236735Y318259D01*
X236731Y318172D01*
X236748Y318037D01*
X236756Y317900D01*
X236777Y317815D01*
X236788Y317729D01*
X236830Y317599D01*
X236862Y317466D01*
X236898Y317386D01*
X236924Y317304D01*
X236988Y317183D01*
X237043Y317058D01*
X237092Y316986D01*
X237133Y316909D01*
X237218Y316801D01*
X237295Y316688D01*
X237386Y316587D01*
X237409Y316558D01*
X237427Y316542D01*
X237461Y316505D01*
X237684Y316281D01*
X239265Y312465D01*
X239265Y308335D01*
X237684Y304519D01*
X234763Y301598D01*
X230927Y300009D01*
X230806Y299946D01*
X230681Y299891D01*
X230609Y299842D01*
X230532Y299802D01*
X230423Y299718D01*
X230310Y299642D01*
X230248Y299581D01*
X230179Y299528D01*
X230088Y299426D01*
X229989Y299330D01*
X229939Y299260D01*
X229881Y299195D01*
X229809Y299078D01*
X229729Y298967D01*
X229692Y298889D01*
X229647Y298814D01*
X229597Y298687D01*
X229538Y298563D01*
X229516Y298479D01*
X229484Y298398D01*
X229458Y298264D01*
X229422Y298132D01*
X229415Y298045D01*
X229398Y297960D01*
X229396Y297823D01*
X229384Y297687D01*
X229393Y297600D01*
X229391Y297513D01*
X229414Y297378D01*
X229427Y297242D01*
X229450Y297159D01*
X229464Y297073D01*
X229510Y296944D01*
X229547Y296812D01*
X229585Y296734D01*
X229615Y296652D01*
X229683Y296534D01*
X229743Y296410D01*
X229794Y296340D01*
X229838Y296265D01*
X229926Y296160D01*
X230007Y296050D01*
X230070Y295990D01*
X230126Y295924D01*
X230231Y295837D01*
X230330Y295742D01*
X230403Y295694D01*
X230470Y295639D01*
X230589Y295572D01*
X230704Y295497D01*
X230827Y295438D01*
X230859Y295420D01*
X230882Y295413D01*
X230927Y295391D01*
X234763Y293802D01*
X237684Y290881D01*
X239265Y287065D01*
X239265Y282935D01*
X237684Y279119D01*
X234763Y276198D01*
X230927Y274609D01*
X230806Y274546D01*
X230681Y274491D01*
X230609Y274442D01*
X230532Y274402D01*
X230423Y274318D01*
X230310Y274242D01*
X230248Y274181D01*
X230179Y274128D01*
X230088Y274026D01*
X229989Y273930D01*
X229939Y273860D01*
X229881Y273795D01*
X229809Y273678D01*
X229729Y273567D01*
X229692Y273489D01*
X229647Y273414D01*
X229597Y273287D01*
X229538Y273163D01*
X229516Y273079D01*
X229484Y272998D01*
X229458Y272864D01*
X229422Y272732D01*
X229415Y272645D01*
X229398Y272560D01*
X229396Y272423D01*
X229384Y272287D01*
X229393Y272200D01*
X229391Y272113D01*
X229414Y271978D01*
X229427Y271842D01*
X229450Y271759D01*
X229464Y271673D01*
X229511Y271544D01*
X229547Y271412D01*
X229585Y271334D01*
X229615Y271252D01*
X229683Y271134D01*
X229743Y271010D01*
X229794Y270940D01*
X229838Y270865D01*
X229926Y270760D01*
X230007Y270650D01*
X230070Y270590D01*
X230126Y270524D01*
X230231Y270437D01*
X230330Y270342D01*
X230403Y270294D01*
X230470Y270239D01*
X230589Y270172D01*
X230704Y270097D01*
X230827Y270038D01*
X230859Y270020D01*
X230882Y270013D01*
X230927Y269991D01*
X234763Y268402D01*
X237684Y265481D01*
X239265Y261665D01*
X239265Y257535D01*
X237684Y253719D01*
X234763Y250798D01*
X230947Y249217D01*
X210053Y249217D01*
X206237Y250798D01*
X205167Y251867D01*
X205024Y251987D01*
X204885Y252111D01*
X204853Y252130D01*
X204825Y252154D01*
X204662Y252246D01*
X204503Y252343D01*
X204468Y252356D01*
X204436Y252374D01*
X204260Y252436D01*
X204086Y252503D01*
X204050Y252510D01*
X204015Y252522D01*
X203831Y252552D01*
X203647Y252587D01*
X203597Y252590D01*
X203574Y252593D01*
X203537Y252592D01*
X203400Y252599D01*
X199007Y252599D01*
X196434Y253665D01*
X184065Y266034D01*
X182999Y268607D01*
X182999Y321393D01*
X184065Y323966D01*
X186386Y326286D01*
X186386Y326287D01*
X188832Y328733D01*
X188920Y328838D01*
X189015Y328936D01*
X189063Y329009D01*
X189119Y329076D01*
X189186Y329195D01*
X189262Y329308D01*
X189296Y329388D01*
X189339Y329464D01*
X189385Y329593D01*
X189439Y329719D01*
X189459Y329803D01*
X189488Y329885D01*
X189509Y330021D01*
X189540Y330154D01*
X189544Y330240D01*
X189558Y330326D01*
X189555Y330463D01*
X189562Y330600D01*
X189551Y330686D01*
X189549Y330773D01*
X189522Y330907D01*
X189505Y331043D01*
X189478Y331126D01*
X189461Y331211D01*
X189411Y331338D01*
X189369Y331468D01*
X189328Y331545D01*
X189296Y331626D01*
X189224Y331742D01*
X189160Y331863D01*
X189106Y331931D01*
X189060Y332005D01*
X188968Y332107D01*
X188884Y332214D01*
X188819Y332272D01*
X188760Y332336D01*
X188652Y332420D01*
X188549Y332511D01*
X188475Y332556D01*
X188406Y332609D01*
X188285Y332672D01*
X188168Y332743D01*
X188087Y332774D01*
X188009Y332814D01*
X187879Y332854D01*
X187751Y332903D01*
X187665Y332920D01*
X187582Y332945D01*
X187447Y332961D01*
X187312Y332987D01*
X187176Y332994D01*
X187139Y332998D01*
X187115Y332997D01*
X187065Y332999D01*
X181607Y332999D01*
X179034Y334065D01*
X177065Y336034D01*
X175999Y338607D01*
X175999Y341393D01*
X177065Y343966D01*
X179034Y345935D01*
X181607Y347001D01*
X201065Y347001D01*
X201251Y347017D01*
X201437Y347029D01*
X201473Y347037D01*
X201510Y347041D01*
X201690Y347090D01*
X201871Y347134D01*
X201905Y347149D01*
X201941Y347159D01*
X202109Y347240D01*
X202279Y347316D01*
X202310Y347336D01*
X202343Y347352D01*
X202494Y347462D01*
X202649Y347567D01*
X202686Y347601D01*
X202705Y347614D01*
X202731Y347641D01*
X202832Y347733D01*
X218267Y363168D01*
X218387Y363311D01*
X218511Y363451D01*
X218530Y363482D01*
X218554Y363511D01*
X218646Y363673D01*
X218743Y363832D01*
X218756Y363867D01*
X218774Y363899D01*
X218836Y364075D01*
X218903Y364249D01*
X218910Y364285D01*
X218923Y364320D01*
X218952Y364505D01*
X218987Y364688D01*
X218990Y364738D01*
X218993Y364761D01*
X218992Y364798D01*
X218999Y364935D01*
X218999Y392065D01*
X218983Y392251D01*
X218971Y392437D01*
X218963Y392473D01*
X218959Y392510D01*
X218910Y392690D01*
X218866Y392871D01*
X218851Y392905D01*
X218841Y392941D01*
X218760Y393109D01*
X218684Y393279D01*
X218664Y393310D01*
X218648Y393343D01*
X218538Y393494D01*
X218433Y393649D01*
X218399Y393686D01*
X218386Y393705D01*
X218359Y393731D01*
X218267Y393832D01*
X205832Y406267D01*
X205689Y406387D01*
X205549Y406511D01*
X205518Y406530D01*
X205489Y406554D01*
X205327Y406646D01*
X205168Y406743D01*
X205133Y406756D01*
X205101Y406774D01*
X204925Y406836D01*
X204751Y406903D01*
X204715Y406910D01*
X204680Y406923D01*
X204495Y406952D01*
X204312Y406987D01*
X204262Y406990D01*
X204239Y406993D01*
X204202Y406992D01*
X204065Y406999D01*
X173607Y406999D01*
X171034Y408065D01*
X164065Y415034D01*
X162999Y417607D01*
X162999Y420393D01*
X164065Y422966D01*
X166034Y424935D01*
X168607Y426001D01*
X171393Y426001D01*
X173966Y424935D01*
X177168Y421733D01*
X177311Y421613D01*
X177451Y421489D01*
X177482Y421470D01*
X177511Y421446D01*
X177673Y421354D01*
X177832Y421257D01*
X177867Y421244D01*
X177899Y421226D01*
X178075Y421164D01*
X178249Y421097D01*
X178285Y421090D01*
X178320Y421077D01*
X178505Y421048D01*
X178688Y421013D01*
X178738Y421010D01*
X178761Y421007D01*
X178798Y421008D01*
X178935Y421001D01*
X209393Y421001D01*
X211966Y419935D01*
X231935Y399966D01*
X233001Y397393D01*
X233001Y382833D01*
X233009Y382740D01*
X233008Y382646D01*
X233029Y382518D01*
X233041Y382388D01*
X233065Y382298D01*
X233081Y382206D01*
X233125Y382083D01*
X233159Y381957D01*
X233200Y381873D01*
X233231Y381785D01*
X233296Y381672D01*
X233352Y381555D01*
X233407Y381479D01*
X233454Y381398D01*
X233538Y381298D01*
X233614Y381193D01*
X233682Y381128D01*
X233742Y381057D01*
X233843Y380973D01*
X233936Y380883D01*
X234014Y380832D01*
X234086Y380772D01*
X234200Y380708D01*
X234308Y380636D01*
X234394Y380599D01*
X234476Y380553D01*
X234599Y380511D01*
X234719Y380459D01*
X234810Y380438D01*
X234898Y380407D01*
X235027Y380387D01*
X235154Y380358D01*
X235247Y380353D01*
X235339Y380339D01*
X235470Y380342D01*
X235600Y380336D01*
X235692Y380348D01*
X235786Y380350D01*
X235914Y380377D01*
X236043Y380393D01*
X236132Y380422D01*
X236223Y380441D01*
X236456Y380524D01*
X237607Y381001D01*
X262193Y381001D01*
X264766Y379935D01*
X290940Y353761D01*
X291083Y353641D01*
X291223Y353517D01*
X291254Y353498D01*
X291283Y353474D01*
X291445Y353382D01*
X291604Y353285D01*
X291639Y353272D01*
X291671Y353254D01*
X291847Y353192D01*
X292021Y353125D01*
X292057Y353118D01*
X292092Y353105D01*
X292277Y353076D01*
X292460Y353041D01*
X292510Y353038D01*
X292533Y353035D01*
X292570Y353036D01*
X292707Y353029D01*
X293915Y353029D01*
X297637Y351487D01*
X300487Y348637D01*
X302029Y344915D01*
X302029Y340885D01*
X300928Y338228D01*
X300900Y338139D01*
X300863Y338053D01*
X300834Y337927D01*
X300795Y337802D01*
X300783Y337709D01*
X300762Y337618D01*
X300756Y337488D01*
X300739Y337359D01*
X300745Y337265D01*
X300740Y337172D01*
X300757Y337043D01*
X300764Y336913D01*
X300786Y336822D01*
X300798Y336729D01*
X300837Y336605D01*
X300867Y336478D01*
X300905Y336393D01*
X300933Y336304D01*
X300994Y336189D01*
X301046Y336069D01*
X301099Y335991D01*
X301142Y335909D01*
X301223Y335807D01*
X301296Y335698D01*
X301361Y335631D01*
X301419Y335558D01*
X301516Y335471D01*
X301607Y335378D01*
X301683Y335323D01*
X301753Y335261D01*
X301864Y335194D01*
X301970Y335118D01*
X302055Y335078D01*
X302134Y335029D01*
X302256Y334982D01*
X302374Y334927D01*
X302464Y334902D01*
X302551Y334869D01*
X302680Y334844D01*
X302805Y334810D01*
X302898Y334803D01*
X302990Y334785D01*
X303237Y334773D01*
X305963Y334773D01*
X306056Y334781D01*
X306149Y334780D01*
X306278Y334801D01*
X306408Y334813D01*
X306498Y334837D01*
X306590Y334853D01*
X306713Y334897D01*
X306838Y334931D01*
X306923Y334972D01*
X307011Y335003D01*
X307124Y335068D01*
X307241Y335124D01*
X307317Y335179D01*
X307398Y335226D01*
X307497Y335310D01*
X307603Y335386D01*
X307668Y335454D01*
X307739Y335514D01*
X307822Y335614D01*
X307913Y335708D01*
X307964Y335786D01*
X308024Y335858D01*
X308088Y335972D01*
X308160Y336080D01*
X308197Y336166D01*
X308243Y336248D01*
X308285Y336371D01*
X308337Y336491D01*
X308358Y336581D01*
X308388Y336670D01*
X308408Y336799D01*
X308438Y336926D01*
X308443Y337019D01*
X308457Y337111D01*
X308454Y337242D01*
X308460Y337372D01*
X308448Y337464D01*
X308446Y337558D01*
X308419Y337686D01*
X308402Y337815D01*
X308374Y337904D01*
X308355Y337995D01*
X308272Y338228D01*
X307171Y340885D01*
X307171Y344915D01*
X308713Y348637D01*
X311563Y351487D01*
X315285Y353029D01*
X319315Y353029D01*
X323037Y351487D01*
X325887Y348637D01*
X327429Y344915D01*
X327429Y340885D01*
X326328Y338228D01*
X326300Y338139D01*
X326263Y338053D01*
X326234Y337927D01*
X326195Y337802D01*
X326183Y337709D01*
X326162Y337618D01*
X326156Y337488D01*
X326139Y337359D01*
X326145Y337265D01*
X326140Y337172D01*
X326157Y337043D01*
X326164Y336913D01*
X326186Y336822D01*
X326198Y336729D01*
X326237Y336605D01*
X326267Y336478D01*
X326305Y336393D01*
X326333Y336304D01*
X326394Y336189D01*
X326446Y336069D01*
X326499Y335991D01*
X326542Y335909D01*
X326623Y335807D01*
X326696Y335698D01*
X326761Y335631D01*
X326819Y335558D01*
X326916Y335471D01*
X327007Y335378D01*
X327083Y335323D01*
X327153Y335261D01*
X327264Y335194D01*
X327370Y335118D01*
X327455Y335078D01*
X327534Y335029D01*
X327656Y334982D01*
X327774Y334927D01*
X327864Y334902D01*
X327951Y334869D01*
X328080Y334844D01*
X328205Y334810D01*
X328298Y334803D01*
X328390Y334785D01*
X328637Y334773D01*
X331363Y334773D01*
X331456Y334781D01*
X331549Y334780D01*
X331678Y334801D01*
X331808Y334813D01*
X331898Y334837D01*
X331990Y334853D01*
X332113Y334897D01*
X332238Y334931D01*
X332323Y334972D01*
X332411Y335003D01*
X332524Y335068D01*
X332641Y335124D01*
X332717Y335179D01*
X332798Y335226D01*
X332897Y335310D01*
X333003Y335386D01*
X333068Y335454D01*
X333139Y335514D01*
X333222Y335614D01*
X333313Y335708D01*
X333364Y335786D01*
X333424Y335858D01*
X333488Y335972D01*
X333560Y336080D01*
X333597Y336166D01*
X333643Y336248D01*
X333685Y336371D01*
X333737Y336491D01*
X333758Y336581D01*
X333788Y336670D01*
X333808Y336799D01*
X333838Y336926D01*
X333843Y337019D01*
X333857Y337111D01*
X333854Y337242D01*
X333860Y337372D01*
X333848Y337464D01*
X333846Y337558D01*
X333819Y337686D01*
X333802Y337815D01*
X333774Y337904D01*
X333755Y337995D01*
X333672Y338228D01*
X332571Y340885D01*
X332571Y344915D01*
X334113Y348637D01*
X336963Y351487D01*
X340685Y353029D01*
X344715Y353029D01*
X348437Y351487D01*
X351287Y348637D01*
X352902Y344739D01*
X352998Y344555D01*
X353092Y344370D01*
X353101Y344357D01*
X353109Y344343D01*
X353237Y344179D01*
X353361Y344014D01*
X353373Y344003D01*
X353383Y343990D01*
X353538Y343852D01*
X353690Y343712D01*
X353704Y343703D01*
X353716Y343692D01*
X353893Y343583D01*
X354068Y343473D01*
X354082Y343467D01*
X354096Y343458D01*
X354289Y343383D01*
X354481Y343305D01*
X354497Y343301D01*
X354512Y343296D01*
X354716Y343256D01*
X354919Y343213D01*
X354935Y343213D01*
X354950Y343209D01*
X355159Y343206D01*
X355365Y343201D01*
X355381Y343203D01*
X355397Y343203D01*
X355602Y343237D01*
X355807Y343268D01*
X355822Y343273D01*
X355838Y343276D01*
X356033Y343346D01*
X356229Y343413D01*
X356243Y343421D01*
X356258Y343426D01*
X356438Y343529D01*
X356619Y343631D01*
X356632Y343641D01*
X356646Y343649D01*
X356804Y343783D01*
X356964Y343915D01*
X356975Y343927D01*
X356987Y343937D01*
X357118Y344096D01*
X357253Y344255D01*
X357261Y344269D01*
X357272Y344281D01*
X357373Y344462D01*
X357477Y344642D01*
X357482Y344657D01*
X357490Y344671D01*
X357558Y344867D01*
X357628Y345062D01*
X357633Y345083D01*
X357636Y345093D01*
X357640Y345119D01*
X357679Y345304D01*
X357694Y345398D01*
X358213Y346995D01*
X358975Y348492D01*
X359962Y349850D01*
X361150Y351038D01*
X362508Y352025D01*
X364005Y352787D01*
X365601Y353306D01*
X365601Y342900D01*
X365605Y342850D01*
X365603Y342801D01*
X365625Y342629D01*
X365640Y342455D01*
X365654Y342407D01*
X365660Y342358D01*
X365713Y342192D01*
X365759Y342025D01*
X365781Y341980D01*
X365796Y341932D01*
X365877Y341779D01*
X365952Y341622D01*
X365982Y341581D01*
X366005Y341537D01*
X366112Y341401D01*
X366214Y341260D01*
X366250Y341225D01*
X366281Y341186D01*
X366411Y341071D01*
X366536Y340951D01*
X366578Y340923D01*
X366615Y340890D01*
X366764Y340800D01*
X366908Y340703D01*
X366954Y340684D01*
X366997Y340658D01*
X367159Y340595D01*
X367318Y340526D01*
X367367Y340515D01*
X367414Y340497D01*
X367585Y340464D01*
X367753Y340425D01*
X367803Y340423D01*
X367853Y340413D01*
X368100Y340401D01*
X368150Y340406D01*
X368200Y340403D01*
X368372Y340425D01*
X368545Y340441D01*
X368593Y340454D01*
X368643Y340461D01*
X368808Y340513D01*
X368976Y340559D01*
X369021Y340581D01*
X369069Y340596D01*
X369222Y340677D01*
X369378Y340753D01*
X369419Y340782D01*
X369463Y340806D01*
X369600Y340913D01*
X369740Y341015D01*
X369775Y341051D01*
X369814Y341082D01*
X369930Y341212D01*
X370050Y341337D01*
X370078Y341378D01*
X370111Y341416D01*
X370201Y341564D01*
X370297Y341709D01*
X370317Y341755D01*
X370343Y341797D01*
X370405Y341959D01*
X370474Y342119D01*
X370485Y342167D01*
X370503Y342214D01*
X370536Y342385D01*
X370575Y342554D01*
X370578Y342604D01*
X370587Y342653D01*
X370599Y342900D01*
X370599Y353306D01*
X372195Y352787D01*
X373692Y352025D01*
X375050Y351038D01*
X376238Y349850D01*
X377225Y348492D01*
X377987Y346995D01*
X378125Y346571D01*
X378200Y346395D01*
X378271Y346217D01*
X378288Y346189D01*
X378301Y346160D01*
X378406Y346000D01*
X378507Y345838D01*
X378529Y345814D01*
X378546Y345787D01*
X378679Y345648D01*
X378807Y345506D01*
X378832Y345487D01*
X378855Y345463D01*
X379009Y345351D01*
X379161Y345234D01*
X379189Y345219D01*
X379215Y345200D01*
X379387Y345117D01*
X379558Y345029D01*
X379589Y345019D01*
X379617Y345005D01*
X379802Y344954D01*
X379985Y344898D01*
X380017Y344894D01*
X380048Y344885D01*
X380238Y344867D01*
X380428Y344845D01*
X380460Y344847D01*
X380492Y344844D01*
X380683Y344860D01*
X380874Y344871D01*
X380905Y344879D01*
X380937Y344882D01*
X381123Y344932D01*
X381308Y344977D01*
X381337Y344990D01*
X381369Y344999D01*
X381542Y345081D01*
X381716Y345158D01*
X381743Y345176D01*
X381772Y345190D01*
X381928Y345302D01*
X382086Y345409D01*
X382118Y345439D01*
X382135Y345451D01*
X382160Y345477D01*
X382269Y345576D01*
X392267Y355574D01*
X392387Y355717D01*
X392511Y355856D01*
X392530Y355888D01*
X392554Y355916D01*
X392646Y356079D01*
X392743Y356238D01*
X392756Y356273D01*
X392774Y356305D01*
X392836Y356481D01*
X392903Y356655D01*
X392910Y356691D01*
X392923Y356726D01*
X392952Y356910D01*
X392987Y357094D01*
X392990Y357144D01*
X392993Y357167D01*
X392992Y357204D01*
X392999Y357341D01*
X392999Y365393D01*
X394065Y367966D01*
X396034Y369935D01*
X398607Y371001D01*
X401393Y371001D01*
X403966Y369935D01*
X405935Y367966D01*
X407001Y365393D01*
X407001Y356470D01*
X407013Y356334D01*
X407016Y356197D01*
X407033Y356112D01*
X407041Y356026D01*
X407077Y355893D01*
X407104Y355760D01*
X407136Y355679D01*
X407159Y355595D01*
X407218Y355471D01*
X407269Y355344D01*
X407315Y355271D01*
X407352Y355192D01*
X407433Y355081D01*
X407505Y354965D01*
X407563Y354901D01*
X407614Y354830D01*
X407713Y354735D01*
X407805Y354634D01*
X407874Y354581D01*
X407936Y354521D01*
X408050Y354445D01*
X408159Y354362D01*
X408236Y354322D01*
X408308Y354273D01*
X408434Y354219D01*
X408556Y354156D01*
X408639Y354131D01*
X408719Y354096D01*
X408852Y354066D01*
X408983Y354025D01*
X409069Y354015D01*
X409154Y353995D01*
X409290Y353989D01*
X409426Y353972D01*
X409513Y353977D01*
X409600Y353973D01*
X409735Y353991D01*
X409872Y353999D01*
X409957Y354020D01*
X410043Y354031D01*
X410173Y354072D01*
X410306Y354105D01*
X410385Y354140D01*
X410468Y354166D01*
X410589Y354230D01*
X410714Y354286D01*
X410786Y354335D01*
X410863Y354376D01*
X410971Y354460D01*
X411084Y354537D01*
X411185Y354629D01*
X411214Y354652D01*
X411230Y354669D01*
X411267Y354703D01*
X443178Y386614D01*
X445499Y388935D01*
X448072Y390001D01*
X516094Y390001D01*
X516213Y390011D01*
X516334Y390012D01*
X516435Y390031D01*
X516539Y390041D01*
X516655Y390073D01*
X516773Y390095D01*
X516869Y390132D01*
X516969Y390159D01*
X517078Y390211D01*
X517190Y390254D01*
X517278Y390307D01*
X517372Y390352D01*
X517470Y390423D01*
X517572Y390485D01*
X517650Y390553D01*
X517734Y390614D01*
X517817Y390701D01*
X517907Y390780D01*
X517972Y390862D01*
X518043Y390936D01*
X518110Y391036D01*
X518185Y391131D01*
X518233Y391222D01*
X518291Y391308D01*
X518338Y391419D01*
X518395Y391525D01*
X518427Y391623D01*
X518468Y391719D01*
X518495Y391836D01*
X518532Y391950D01*
X518545Y392053D01*
X518569Y392154D01*
X518575Y392273D01*
X518591Y392393D01*
X518586Y392497D01*
X518591Y392600D01*
X518575Y392719D01*
X518570Y392839D01*
X518547Y392940D01*
X518533Y393043D01*
X518497Y393157D01*
X518470Y393274D01*
X518429Y393370D01*
X518398Y393468D01*
X518341Y393575D01*
X518294Y393685D01*
X518237Y393772D01*
X518189Y393863D01*
X518114Y393958D01*
X518048Y394058D01*
X517976Y394133D01*
X517912Y394214D01*
X517822Y394294D01*
X517739Y394381D01*
X517656Y394442D01*
X517578Y394511D01*
X517475Y394573D01*
X517378Y394644D01*
X517285Y394689D01*
X517197Y394743D01*
X517084Y394786D01*
X516976Y394838D01*
X516808Y394892D01*
X516780Y394903D01*
X516766Y394906D01*
X516741Y394914D01*
X506323Y397705D01*
X496766Y403223D01*
X488963Y411026D01*
X483445Y420583D01*
X480589Y431242D01*
X480589Y442278D01*
X483445Y452937D01*
X488963Y462494D01*
X496766Y470297D01*
X506323Y475815D01*
X516982Y478671D01*
X528018Y478671D01*
X538677Y475815D01*
X548234Y470297D01*
X556037Y462494D01*
X561555Y452937D01*
X564411Y442278D01*
X564411Y431242D01*
X561529Y420486D01*
X561463Y420345D01*
X561454Y420312D01*
X561441Y420281D01*
X561398Y420096D01*
X561350Y419912D01*
X561348Y419879D01*
X561340Y419846D01*
X561331Y419657D01*
X561316Y419467D01*
X561320Y419434D01*
X561318Y419400D01*
X561342Y419212D01*
X561362Y419023D01*
X561371Y418990D01*
X561376Y418957D01*
X561433Y418776D01*
X561486Y418593D01*
X561501Y418563D01*
X561511Y418532D01*
X561600Y418364D01*
X561685Y418193D01*
X561705Y418166D01*
X561720Y418137D01*
X561838Y417987D01*
X561951Y417835D01*
X561976Y417812D01*
X561996Y417786D01*
X562139Y417660D01*
X562277Y417530D01*
X562306Y417512D01*
X562331Y417489D01*
X562493Y417391D01*
X562653Y417287D01*
X562684Y417275D01*
X562712Y417257D01*
X562889Y417189D01*
X563065Y417116D01*
X563098Y417109D01*
X563129Y417097D01*
X563316Y417061D01*
X563502Y417020D01*
X563535Y417019D01*
X563568Y417013D01*
X563815Y417001D01*
X565393Y417001D01*
X566140Y416691D01*
X566277Y416648D01*
X566411Y416597D01*
X566490Y416582D01*
X566567Y416558D01*
X566709Y416540D01*
X566850Y416513D01*
X566973Y416507D01*
X567010Y416502D01*
X567037Y416504D01*
X567097Y416501D01*
X581136Y416501D01*
X581272Y416513D01*
X581409Y416516D01*
X581494Y416533D01*
X581581Y416541D01*
X581713Y416577D01*
X581847Y416604D01*
X581928Y416636D01*
X582012Y416659D01*
X582135Y416718D01*
X582262Y416769D01*
X582336Y416815D01*
X582414Y416852D01*
X582526Y416933D01*
X582641Y417005D01*
X582706Y417063D01*
X582776Y417114D01*
X582871Y417213D01*
X582972Y417305D01*
X583026Y417374D01*
X583086Y417436D01*
X583161Y417550D01*
X583245Y417659D01*
X583285Y417736D01*
X583333Y417808D01*
X583387Y417934D01*
X583450Y418056D01*
X583476Y418139D01*
X583510Y418219D01*
X583541Y418352D01*
X583581Y418483D01*
X583592Y418569D01*
X583611Y418654D01*
X583618Y418790D01*
X583634Y418926D01*
X583629Y419013D01*
X583633Y419100D01*
X583616Y419235D01*
X583607Y419372D01*
X583587Y419457D01*
X583576Y419543D01*
X583534Y419673D01*
X583502Y419806D01*
X583466Y419885D01*
X583440Y419968D01*
X583376Y420089D01*
X583321Y420214D01*
X583272Y420286D01*
X583231Y420363D01*
X583146Y420471D01*
X583069Y420584D01*
X582978Y420685D01*
X582955Y420714D01*
X582937Y420730D01*
X582903Y420767D01*
X582499Y421171D01*
X582499Y435829D01*
X584267Y437597D01*
X584387Y437740D01*
X584511Y437879D01*
X584530Y437911D01*
X584554Y437940D01*
X584646Y438102D01*
X584743Y438261D01*
X584756Y438296D01*
X584774Y438328D01*
X584836Y438504D01*
X584903Y438678D01*
X584910Y438714D01*
X584923Y438749D01*
X584952Y438934D01*
X584987Y439117D01*
X584990Y439167D01*
X584993Y439190D01*
X584992Y439227D01*
X584999Y439364D01*
X584999Y461582D01*
X584983Y461768D01*
X584971Y461954D01*
X584963Y461990D01*
X584959Y462027D01*
X584910Y462207D01*
X584866Y462388D01*
X584851Y462422D01*
X584841Y462458D01*
X584760Y462626D01*
X584684Y462796D01*
X584664Y462827D01*
X584648Y462860D01*
X584538Y463011D01*
X584433Y463166D01*
X584399Y463203D01*
X584386Y463222D01*
X584359Y463248D01*
X584267Y463349D01*
X582698Y464919D01*
X581117Y468735D01*
X581117Y472865D01*
X582698Y476681D01*
X585619Y479602D01*
X589435Y481183D01*
X593565Y481183D01*
X597381Y479602D01*
X600302Y476681D01*
X601883Y472865D01*
X601883Y468735D01*
X600302Y464919D01*
X599733Y464349D01*
X599613Y464206D01*
X599489Y464067D01*
X599470Y464035D01*
X599446Y464006D01*
X599354Y463845D01*
X599257Y463685D01*
X599244Y463650D01*
X599226Y463618D01*
X599164Y463442D01*
X599097Y463268D01*
X599090Y463232D01*
X599077Y463197D01*
X599048Y463012D01*
X599013Y462829D01*
X599010Y462779D01*
X599007Y462756D01*
X599008Y462719D01*
X599001Y462582D01*
X599001Y439364D01*
X599017Y439178D01*
X599029Y438992D01*
X599037Y438956D01*
X599041Y438919D01*
X599090Y438739D01*
X599134Y438558D01*
X599149Y438524D01*
X599159Y438488D01*
X599240Y438320D01*
X599316Y438150D01*
X599336Y438119D01*
X599352Y438086D01*
X599462Y437935D01*
X599567Y437780D01*
X599601Y437743D01*
X599614Y437724D01*
X599641Y437698D01*
X599733Y437597D01*
X601897Y435433D01*
X602040Y435313D01*
X602179Y435189D01*
X602211Y435170D01*
X602240Y435146D01*
X602402Y435054D01*
X602561Y434957D01*
X602596Y434944D01*
X602628Y434926D01*
X602804Y434864D01*
X602978Y434797D01*
X603014Y434790D01*
X603049Y434777D01*
X603234Y434748D01*
X603417Y434713D01*
X603467Y434710D01*
X603490Y434707D01*
X603527Y434708D01*
X603664Y434701D01*
X612611Y434701D01*
X612753Y434714D01*
X612897Y434717D01*
X612976Y434733D01*
X613056Y434741D01*
X613194Y434779D01*
X613334Y434808D01*
X613450Y434849D01*
X613486Y434859D01*
X613511Y434871D01*
X613567Y434891D01*
X616980Y436305D01*
X633612Y436305D01*
X636774Y434995D01*
X639195Y432574D01*
X640505Y429412D01*
X640505Y425988D01*
X639195Y422826D01*
X636774Y420405D01*
X633612Y419095D01*
X616980Y419095D01*
X613567Y420509D01*
X613431Y420552D01*
X613297Y420603D01*
X613218Y420618D01*
X613141Y420642D01*
X612999Y420660D01*
X612858Y420687D01*
X612735Y420693D01*
X612698Y420698D01*
X612671Y420696D01*
X612611Y420699D01*
X603664Y420699D01*
X603528Y420687D01*
X603391Y420684D01*
X603306Y420667D01*
X603219Y420659D01*
X603087Y420623D01*
X602953Y420596D01*
X602872Y420564D01*
X602788Y420541D01*
X602665Y420482D01*
X602538Y420431D01*
X602464Y420385D01*
X602386Y420348D01*
X602274Y420267D01*
X602159Y420195D01*
X602094Y420137D01*
X602024Y420086D01*
X601929Y419987D01*
X601827Y419895D01*
X601774Y419826D01*
X601714Y419764D01*
X601639Y419650D01*
X601555Y419541D01*
X601515Y419464D01*
X601467Y419392D01*
X601413Y419266D01*
X601350Y419144D01*
X601324Y419061D01*
X601290Y418981D01*
X601259Y418848D01*
X601219Y418717D01*
X601208Y418631D01*
X601189Y418546D01*
X601182Y418410D01*
X601166Y418274D01*
X601171Y418187D01*
X601167Y418100D01*
X601184Y417964D01*
X601193Y417828D01*
X601213Y417743D01*
X601224Y417657D01*
X601266Y417527D01*
X601298Y417394D01*
X601334Y417314D01*
X601360Y417232D01*
X601424Y417111D01*
X601480Y416986D01*
X601501Y416954D01*
X601501Y402171D01*
X600329Y400999D01*
X583671Y400999D01*
X582903Y401767D01*
X582760Y401887D01*
X582621Y402011D01*
X582589Y402030D01*
X582560Y402054D01*
X582398Y402146D01*
X582239Y402243D01*
X582204Y402256D01*
X582172Y402274D01*
X581996Y402336D01*
X581822Y402403D01*
X581786Y402410D01*
X581751Y402423D01*
X581566Y402452D01*
X581383Y402487D01*
X581333Y402490D01*
X581310Y402493D01*
X581273Y402492D01*
X581136Y402499D01*
X563107Y402499D01*
X560534Y403565D01*
X558065Y406034D01*
X557440Y407543D01*
X557397Y407625D01*
X557363Y407712D01*
X557294Y407823D01*
X557233Y407938D01*
X557176Y408012D01*
X557126Y408091D01*
X557039Y408188D01*
X556959Y408291D01*
X556889Y408353D01*
X556827Y408423D01*
X556723Y408502D01*
X556626Y408589D01*
X556547Y408638D01*
X556473Y408695D01*
X556357Y408755D01*
X556246Y408823D01*
X556159Y408857D01*
X556076Y408900D01*
X555951Y408938D01*
X555830Y408986D01*
X555738Y409004D01*
X555649Y409031D01*
X555520Y409047D01*
X555392Y409072D01*
X555298Y409073D01*
X555205Y409084D01*
X555075Y409077D01*
X554945Y409078D01*
X554853Y409063D01*
X554759Y409058D01*
X554633Y409027D01*
X554504Y409005D01*
X554416Y408974D01*
X554325Y408952D01*
X554206Y408899D01*
X554084Y408855D01*
X554002Y408809D01*
X553917Y408771D01*
X553809Y408697D01*
X553696Y408632D01*
X553625Y408572D01*
X553548Y408520D01*
X553364Y408353D01*
X548234Y403223D01*
X538677Y397705D01*
X528259Y394914D01*
X528147Y394873D01*
X528031Y394841D01*
X527937Y394796D01*
X527840Y394760D01*
X527736Y394700D01*
X527628Y394648D01*
X527544Y394587D01*
X527455Y394534D01*
X527363Y394456D01*
X527266Y394386D01*
X527194Y394311D01*
X527116Y394244D01*
X527040Y394150D01*
X526957Y394064D01*
X526899Y393977D01*
X526834Y393897D01*
X526776Y393792D01*
X526709Y393692D01*
X526668Y393596D01*
X526618Y393506D01*
X526580Y393392D01*
X526532Y393281D01*
X526509Y393181D01*
X526476Y393082D01*
X526458Y392963D01*
X526431Y392846D01*
X526426Y392743D01*
X526411Y392640D01*
X526415Y392520D01*
X526409Y392400D01*
X526422Y392298D01*
X526426Y392194D01*
X526451Y392076D01*
X526467Y391957D01*
X526498Y391859D01*
X526520Y391757D01*
X526566Y391646D01*
X526602Y391532D01*
X526651Y391440D01*
X526690Y391344D01*
X526755Y391243D01*
X526811Y391137D01*
X526876Y391055D01*
X526931Y390968D01*
X527013Y390880D01*
X527088Y390786D01*
X527165Y390717D01*
X527236Y390641D01*
X527332Y390569D01*
X527422Y390489D01*
X527510Y390436D01*
X527593Y390373D01*
X527701Y390320D01*
X527803Y390257D01*
X527900Y390220D01*
X527993Y390174D01*
X528108Y390140D01*
X528220Y390097D01*
X528322Y390077D01*
X528421Y390048D01*
X528541Y390036D01*
X528659Y390013D01*
X528836Y390004D01*
X528866Y390001D01*
X528879Y390002D01*
X528906Y390001D01*
X579093Y390001D01*
X581666Y388935D01*
X583986Y386614D01*
X590286Y380315D01*
X590429Y380195D01*
X590569Y380071D01*
X590600Y380052D01*
X590629Y380028D01*
X590791Y379936D01*
X590950Y379839D01*
X590985Y379826D01*
X591017Y379808D01*
X591193Y379746D01*
X591367Y379679D01*
X591403Y379672D01*
X591438Y379659D01*
X591623Y379630D01*
X591806Y379595D01*
X591856Y379592D01*
X591879Y379589D01*
X591916Y379590D01*
X592053Y379583D01*
X593565Y379583D01*
X597381Y378002D01*
X600302Y375081D01*
X601883Y371265D01*
X601883Y367135D01*
X600302Y363319D01*
X599251Y362267D01*
X599163Y362162D01*
X599068Y362064D01*
X599020Y361991D01*
X598964Y361924D01*
X598897Y361805D01*
X598821Y361692D01*
X598786Y361612D01*
X598743Y361536D01*
X598698Y361407D01*
X598644Y361281D01*
X598624Y361197D01*
X598595Y361115D01*
X598574Y360980D01*
X598543Y360846D01*
X598538Y360760D01*
X598525Y360674D01*
X598527Y360537D01*
X598521Y360400D01*
X598532Y360314D01*
X598534Y360227D01*
X598561Y360093D01*
X598578Y359957D01*
X598605Y359874D01*
X598622Y359789D01*
X598672Y359662D01*
X598714Y359532D01*
X598755Y359455D01*
X598787Y359374D01*
X598859Y359258D01*
X598923Y359137D01*
X598977Y359069D01*
X599023Y358995D01*
X599115Y358893D01*
X599199Y358786D01*
X599264Y358728D01*
X599323Y358664D01*
X599431Y358580D01*
X599533Y358489D01*
X599608Y358444D01*
X599677Y358391D01*
X599798Y358328D01*
X599915Y358257D01*
X599996Y358226D01*
X600073Y358186D01*
X600204Y358146D01*
X600332Y358097D01*
X600417Y358080D01*
X600500Y358055D01*
X600636Y358039D01*
X600771Y358013D01*
X600907Y358006D01*
X600944Y358002D01*
X600967Y358003D01*
X601018Y358001D01*
X605500Y358001D01*
X605550Y358005D01*
X605600Y358003D01*
X605772Y358025D01*
X605945Y358041D01*
X605993Y358054D01*
X606043Y358060D01*
X606208Y358113D01*
X606376Y358159D01*
X606421Y358181D01*
X606468Y358196D01*
X606622Y358277D01*
X606778Y358352D01*
X606819Y358382D01*
X606863Y358405D01*
X607000Y358512D01*
X607140Y358614D01*
X607175Y358650D01*
X607214Y358681D01*
X607330Y358811D01*
X607450Y358936D01*
X607477Y358978D01*
X607511Y359016D01*
X607601Y359164D01*
X607697Y359308D01*
X607717Y359354D01*
X607743Y359397D01*
X607805Y359559D01*
X607874Y359719D01*
X607885Y359767D01*
X607903Y359814D01*
X607936Y359985D01*
X607975Y360154D01*
X607978Y360204D01*
X607987Y360253D01*
X607999Y360500D01*
X607999Y372082D01*
X607983Y372268D01*
X607971Y372454D01*
X607963Y372490D01*
X607959Y372527D01*
X607910Y372707D01*
X607866Y372888D01*
X607851Y372922D01*
X607841Y372958D01*
X607760Y373126D01*
X607684Y373296D01*
X607664Y373327D01*
X607648Y373360D01*
X607538Y373511D01*
X607433Y373666D01*
X607399Y373703D01*
X607386Y373722D01*
X607359Y373748D01*
X607267Y373849D01*
X606198Y374919D01*
X604617Y378735D01*
X604617Y382865D01*
X606198Y386681D01*
X609119Y389602D01*
X612315Y390926D01*
X612374Y390957D01*
X612436Y390980D01*
X612571Y391060D01*
X612711Y391133D01*
X612763Y391174D01*
X612820Y391208D01*
X612939Y391311D01*
X613064Y391408D01*
X613108Y391457D01*
X613158Y391500D01*
X613256Y391623D01*
X613362Y391740D01*
X613396Y391797D01*
X613438Y391848D01*
X613513Y391986D01*
X613596Y392121D01*
X613620Y392182D01*
X613651Y392240D01*
X613701Y392390D01*
X613758Y392537D01*
X613771Y392601D01*
X613792Y392664D01*
X613814Y392820D01*
X613844Y392975D01*
X613845Y393041D01*
X613855Y393107D01*
X613849Y393264D01*
X613851Y393422D01*
X613840Y393487D01*
X613838Y393553D01*
X613804Y393707D01*
X613778Y393862D01*
X613756Y393925D01*
X613742Y393989D01*
X613681Y394134D01*
X613628Y394283D01*
X613595Y394340D01*
X613569Y394401D01*
X613484Y394534D01*
X613405Y394670D01*
X613362Y394721D01*
X613326Y394776D01*
X613218Y394891D01*
X613117Y395011D01*
X613066Y395054D01*
X613021Y395102D01*
X612828Y395257D01*
X612735Y395325D01*
X611717Y396343D01*
X610871Y397507D01*
X610217Y398790D01*
X609889Y399801D01*
X629401Y399801D01*
X629401Y393155D01*
X623362Y393155D01*
X623225Y393143D01*
X623089Y393140D01*
X623004Y393123D01*
X622917Y393115D01*
X622785Y393079D01*
X622651Y393052D01*
X622570Y393020D01*
X622486Y392997D01*
X622363Y392938D01*
X622236Y392887D01*
X622162Y392841D01*
X622084Y392804D01*
X621973Y392723D01*
X621857Y392651D01*
X621792Y392593D01*
X621722Y392542D01*
X621627Y392443D01*
X621525Y392351D01*
X621472Y392282D01*
X621412Y392220D01*
X621336Y392106D01*
X621253Y391997D01*
X621213Y391920D01*
X621165Y391848D01*
X621111Y391722D01*
X621048Y391600D01*
X621022Y391517D01*
X620988Y391437D01*
X620957Y391304D01*
X620917Y391173D01*
X620906Y391087D01*
X620887Y391002D01*
X620880Y390866D01*
X620864Y390730D01*
X620869Y390643D01*
X620865Y390556D01*
X620882Y390421D01*
X620890Y390284D01*
X620911Y390199D01*
X620922Y390113D01*
X620964Y389983D01*
X620996Y389850D01*
X621031Y389771D01*
X621058Y389688D01*
X621122Y389567D01*
X621177Y389442D01*
X621226Y389370D01*
X621267Y389293D01*
X621352Y389185D01*
X621429Y389072D01*
X621520Y388971D01*
X621543Y388942D01*
X621561Y388926D01*
X621595Y388889D01*
X623802Y386681D01*
X625383Y382865D01*
X625383Y378735D01*
X623802Y374919D01*
X622733Y373849D01*
X622613Y373706D01*
X622489Y373567D01*
X622470Y373535D01*
X622446Y373506D01*
X622354Y373345D01*
X622257Y373185D01*
X622244Y373150D01*
X622226Y373118D01*
X622164Y372942D01*
X622097Y372768D01*
X622090Y372732D01*
X622077Y372697D01*
X622048Y372512D01*
X622013Y372329D01*
X622010Y372279D01*
X622007Y372256D01*
X622008Y372219D01*
X622001Y372082D01*
X622001Y359864D01*
X622017Y359678D01*
X622029Y359492D01*
X622037Y359456D01*
X622041Y359419D01*
X622090Y359239D01*
X622134Y359058D01*
X622149Y359024D01*
X622159Y358988D01*
X622240Y358820D01*
X622316Y358650D01*
X622336Y358619D01*
X622352Y358586D01*
X622462Y358435D01*
X622567Y358280D01*
X622601Y358243D01*
X622614Y358224D01*
X622641Y358198D01*
X622733Y358097D01*
X624501Y356329D01*
X624501Y341671D01*
X624479Y341649D01*
X624446Y341611D01*
X624409Y341577D01*
X624303Y341439D01*
X624192Y341306D01*
X624167Y341263D01*
X624137Y341223D01*
X624057Y341069D01*
X623971Y340918D01*
X623955Y340871D01*
X623932Y340826D01*
X623881Y340660D01*
X623823Y340497D01*
X623815Y340447D01*
X623801Y340399D01*
X623780Y340227D01*
X623753Y340055D01*
X623754Y340005D01*
X623748Y339956D01*
X623758Y339783D01*
X623761Y339609D01*
X623771Y339560D01*
X623774Y339510D01*
X623815Y339342D01*
X623850Y339171D01*
X623868Y339124D01*
X623880Y339076D01*
X623950Y338918D01*
X624015Y338756D01*
X624041Y338713D01*
X624061Y338668D01*
X624159Y338524D01*
X624251Y338377D01*
X624284Y338340D01*
X624312Y338298D01*
X624479Y338115D01*
X624533Y338060D01*
X624868Y337481D01*
X625041Y336834D01*
X625041Y333249D01*
X615750Y333249D01*
X615700Y333245D01*
X615650Y333247D01*
X615479Y333225D01*
X615305Y333209D01*
X615257Y333196D01*
X615207Y333190D01*
X615042Y333137D01*
X615012Y333129D01*
X614983Y333135D01*
X614936Y333153D01*
X614765Y333186D01*
X614596Y333225D01*
X614546Y333228D01*
X614497Y333237D01*
X614250Y333249D01*
X604959Y333249D01*
X604959Y336834D01*
X605132Y337481D01*
X605467Y338060D01*
X605521Y338115D01*
X605554Y338153D01*
X605591Y338187D01*
X605697Y338324D01*
X605808Y338457D01*
X605833Y338501D01*
X605863Y338541D01*
X605943Y338695D01*
X606029Y338846D01*
X606045Y338893D01*
X606068Y338937D01*
X606119Y339103D01*
X606177Y339267D01*
X606185Y339317D01*
X606199Y339365D01*
X606220Y339537D01*
X606247Y339708D01*
X606246Y339758D01*
X606252Y339808D01*
X606242Y339981D01*
X606239Y340155D01*
X606229Y340204D01*
X606226Y340254D01*
X606184Y340423D01*
X606150Y340593D01*
X606132Y340639D01*
X606120Y340688D01*
X606049Y340847D01*
X605985Y341008D01*
X605959Y341050D01*
X605939Y341096D01*
X605841Y341240D01*
X605749Y341387D01*
X605716Y341424D01*
X605688Y341466D01*
X605521Y341649D01*
X605486Y341684D01*
X605475Y341772D01*
X605459Y341945D01*
X605446Y341993D01*
X605440Y342043D01*
X605387Y342208D01*
X605341Y342376D01*
X605319Y342421D01*
X605304Y342468D01*
X605223Y342622D01*
X605148Y342778D01*
X605118Y342819D01*
X605095Y342863D01*
X604988Y343000D01*
X604886Y343140D01*
X604850Y343175D01*
X604819Y343214D01*
X604689Y343330D01*
X604564Y343450D01*
X604522Y343477D01*
X604484Y343511D01*
X604336Y343601D01*
X604192Y343697D01*
X604146Y343717D01*
X604103Y343743D01*
X603941Y343805D01*
X603781Y343874D01*
X603733Y343885D01*
X603686Y343903D01*
X603515Y343936D01*
X603346Y343975D01*
X603296Y343978D01*
X603247Y343987D01*
X603000Y343999D01*
X448200Y343999D01*
X448014Y343983D01*
X447828Y343971D01*
X447792Y343963D01*
X447755Y343959D01*
X447574Y343910D01*
X447394Y343866D01*
X447360Y343851D01*
X447324Y343841D01*
X447156Y343760D01*
X446985Y343684D01*
X446955Y343664D01*
X446921Y343648D01*
X446770Y343538D01*
X446616Y343433D01*
X446578Y343399D01*
X446559Y343386D01*
X446534Y343359D01*
X446432Y343267D01*
X432423Y329258D01*
X432303Y329114D01*
X432179Y328975D01*
X432160Y328943D01*
X432136Y328915D01*
X432044Y328753D01*
X431947Y328593D01*
X431934Y328559D01*
X431916Y328526D01*
X431854Y328350D01*
X431787Y328176D01*
X431780Y328140D01*
X431767Y328105D01*
X431738Y327921D01*
X431703Y327738D01*
X431700Y327687D01*
X431697Y327664D01*
X431698Y327627D01*
X431691Y327490D01*
X431691Y318360D01*
X431707Y318174D01*
X431719Y317988D01*
X431727Y317952D01*
X431731Y317915D01*
X431780Y317735D01*
X431824Y317554D01*
X431839Y317520D01*
X431849Y317484D01*
X431930Y317316D01*
X432006Y317146D01*
X432026Y317115D01*
X432042Y317082D01*
X432152Y316930D01*
X432257Y316776D01*
X432291Y316739D01*
X432304Y316720D01*
X432331Y316694D01*
X432423Y316593D01*
X433492Y315523D01*
X435081Y311687D01*
X435144Y311566D01*
X435199Y311441D01*
X435248Y311369D01*
X435288Y311292D01*
X435372Y311183D01*
X435448Y311070D01*
X435509Y311008D01*
X435562Y310939D01*
X435664Y310848D01*
X435760Y310749D01*
X435830Y310699D01*
X435895Y310641D01*
X436012Y310569D01*
X436123Y310489D01*
X436201Y310452D01*
X436276Y310407D01*
X436403Y310357D01*
X436527Y310298D01*
X436611Y310276D01*
X436692Y310244D01*
X436826Y310218D01*
X436958Y310182D01*
X437045Y310175D01*
X437130Y310158D01*
X437267Y310156D01*
X437403Y310144D01*
X437490Y310153D01*
X437577Y310151D01*
X437712Y310174D01*
X437848Y310187D01*
X437931Y310210D01*
X438017Y310224D01*
X438146Y310270D01*
X438278Y310307D01*
X438356Y310345D01*
X438438Y310375D01*
X438556Y310443D01*
X438680Y310503D01*
X438750Y310554D01*
X438825Y310598D01*
X438930Y310686D01*
X439040Y310767D01*
X439100Y310830D01*
X439166Y310886D01*
X439253Y310991D01*
X439348Y311090D01*
X439396Y311163D01*
X439451Y311230D01*
X439518Y311349D01*
X439593Y311464D01*
X439652Y311587D01*
X439670Y311619D01*
X439677Y311642D01*
X439699Y311687D01*
X441288Y315523D01*
X444209Y318444D01*
X448025Y320025D01*
X452155Y320025D01*
X455971Y318444D01*
X458893Y315523D01*
X458974Y315367D01*
X459052Y315204D01*
X459078Y315169D01*
X459098Y315130D01*
X459209Y314988D01*
X459314Y314842D01*
X459346Y314812D01*
X459372Y314778D01*
X459507Y314657D01*
X459636Y314533D01*
X459673Y314509D01*
X459705Y314479D01*
X459858Y314385D01*
X460008Y314285D01*
X460048Y314268D01*
X460085Y314245D01*
X460253Y314180D01*
X460419Y314108D01*
X460461Y314099D01*
X460501Y314083D01*
X460678Y314048D01*
X460854Y314007D01*
X460897Y314005D01*
X460940Y313997D01*
X461120Y313994D01*
X461300Y313985D01*
X461343Y313991D01*
X461386Y313990D01*
X461564Y314019D01*
X461743Y314043D01*
X461784Y314056D01*
X461827Y314063D01*
X461997Y314124D01*
X462168Y314178D01*
X462207Y314199D01*
X462248Y314213D01*
X462404Y314303D01*
X462563Y314387D01*
X462597Y314414D01*
X462635Y314436D01*
X462772Y314552D01*
X462914Y314664D01*
X462943Y314696D01*
X462976Y314724D01*
X463091Y314863D01*
X463211Y314998D01*
X463233Y315035D01*
X463261Y315068D01*
X463349Y315226D01*
X463443Y315379D01*
X463458Y315420D01*
X463480Y315458D01*
X463539Y315628D01*
X463603Y315796D01*
X463611Y315839D01*
X463626Y315880D01*
X463653Y316058D01*
X463687Y316235D01*
X463690Y316295D01*
X463694Y316321D01*
X463693Y316359D01*
X463699Y316482D01*
X463699Y320365D01*
X463683Y320551D01*
X463671Y320737D01*
X463663Y320773D01*
X463659Y320810D01*
X463610Y320990D01*
X463566Y321171D01*
X463551Y321205D01*
X463541Y321241D01*
X463460Y321409D01*
X463384Y321579D01*
X463364Y321610D01*
X463348Y321643D01*
X463238Y321794D01*
X463133Y321949D01*
X463099Y321986D01*
X463086Y322005D01*
X463059Y322031D01*
X462967Y322132D01*
X459065Y326034D01*
X457999Y328607D01*
X457999Y331393D01*
X459065Y333966D01*
X461034Y335935D01*
X463607Y337001D01*
X466393Y337001D01*
X468966Y335935D01*
X476635Y328266D01*
X477701Y325693D01*
X477701Y286307D01*
X476635Y283734D01*
X460966Y268065D01*
X458393Y266999D01*
X407935Y266999D01*
X407799Y266987D01*
X407662Y266984D01*
X407577Y266967D01*
X407490Y266959D01*
X407358Y266923D01*
X407224Y266896D01*
X407143Y266864D01*
X407059Y266841D01*
X406936Y266782D01*
X406809Y266731D01*
X406735Y266685D01*
X406657Y266648D01*
X406546Y266567D01*
X406430Y266495D01*
X406365Y266437D01*
X406295Y266386D01*
X406200Y266287D01*
X406099Y266195D01*
X406045Y266126D01*
X405985Y266064D01*
X405910Y265950D01*
X405826Y265841D01*
X405786Y265764D01*
X405738Y265692D01*
X405684Y265566D01*
X405621Y265444D01*
X405596Y265361D01*
X405561Y265281D01*
X405530Y265148D01*
X405490Y265017D01*
X405480Y264931D01*
X405460Y264846D01*
X405453Y264710D01*
X405437Y264574D01*
X405442Y264487D01*
X405438Y264400D01*
X405455Y264265D01*
X405464Y264128D01*
X405484Y264043D01*
X405495Y263957D01*
X405537Y263827D01*
X405569Y263694D01*
X405605Y263615D01*
X405631Y263532D01*
X405695Y263411D01*
X405751Y263286D01*
X405799Y263214D01*
X405840Y263137D01*
X405925Y263029D01*
X406002Y262916D01*
X406094Y262815D01*
X406116Y262786D01*
X406134Y262770D01*
X406168Y262733D01*
X439668Y229233D01*
X439811Y229113D01*
X439951Y228989D01*
X439982Y228970D01*
X440011Y228946D01*
X440173Y228854D01*
X440332Y228757D01*
X440367Y228744D01*
X440399Y228726D01*
X440575Y228664D01*
X440749Y228597D01*
X440785Y228590D01*
X440820Y228577D01*
X441005Y228548D01*
X441188Y228513D01*
X441238Y228510D01*
X441261Y228507D01*
X441298Y228508D01*
X441435Y228501D01*
X467065Y228501D01*
X467251Y228517D01*
X467437Y228529D01*
X467473Y228537D01*
X467510Y228541D01*
X467690Y228590D01*
X467871Y228634D01*
X467905Y228649D01*
X467941Y228659D01*
X468109Y228740D01*
X468279Y228816D01*
X468310Y228836D01*
X468343Y228852D01*
X468494Y228962D01*
X468649Y229067D01*
X468686Y229101D01*
X468705Y229114D01*
X468731Y229141D01*
X468832Y229233D01*
X486689Y247089D01*
X486693Y247095D01*
X486698Y247099D01*
X486833Y247262D01*
X486975Y247432D01*
X486979Y247438D01*
X486983Y247443D01*
X487089Y247633D01*
X487196Y247821D01*
X487198Y247827D01*
X487201Y247833D01*
X487272Y248037D01*
X487344Y248242D01*
X487345Y248249D01*
X487347Y248255D01*
X487380Y248464D01*
X487415Y248683D01*
X487415Y248690D01*
X487416Y248696D01*
X487410Y248915D01*
X487406Y249130D01*
X487405Y249136D01*
X487405Y249143D01*
X487360Y249358D01*
X487318Y249568D01*
X487315Y249574D01*
X487314Y249580D01*
X487231Y249813D01*
X486717Y251053D01*
X486717Y271947D01*
X488298Y275763D01*
X491219Y278684D01*
X495035Y280265D01*
X499165Y280265D01*
X502981Y278684D01*
X505902Y275763D01*
X507491Y271927D01*
X507554Y271806D01*
X507609Y271681D01*
X507658Y271609D01*
X507698Y271532D01*
X507782Y271424D01*
X507858Y271310D01*
X507919Y271248D01*
X507972Y271179D01*
X508074Y271088D01*
X508170Y270989D01*
X508240Y270939D01*
X508305Y270881D01*
X508422Y270809D01*
X508533Y270730D01*
X508611Y270692D01*
X508685Y270647D01*
X508813Y270597D01*
X508937Y270538D01*
X509021Y270516D01*
X509102Y270484D01*
X509236Y270458D01*
X509368Y270422D01*
X509455Y270415D01*
X509540Y270398D01*
X509677Y270396D01*
X509813Y270384D01*
X509900Y270393D01*
X509986Y270391D01*
X510122Y270414D01*
X510258Y270427D01*
X510341Y270450D01*
X510427Y270464D01*
X510556Y270511D01*
X510688Y270547D01*
X510766Y270585D01*
X510848Y270615D01*
X510966Y270683D01*
X511089Y270743D01*
X511160Y270794D01*
X511235Y270838D01*
X511339Y270926D01*
X511450Y271007D01*
X511510Y271070D01*
X511576Y271126D01*
X511664Y271231D01*
X511758Y271330D01*
X511805Y271403D01*
X511861Y271470D01*
X511928Y271589D01*
X512003Y271704D01*
X512062Y271827D01*
X512080Y271859D01*
X512087Y271882D01*
X512109Y271927D01*
X513698Y275763D01*
X516619Y278684D01*
X520435Y280265D01*
X524565Y280265D01*
X528381Y278684D01*
X531302Y275763D01*
X532891Y271927D01*
X532954Y271806D01*
X533009Y271681D01*
X533058Y271609D01*
X533098Y271532D01*
X533182Y271424D01*
X533258Y271310D01*
X533319Y271248D01*
X533372Y271179D01*
X533474Y271088D01*
X533570Y270989D01*
X533640Y270939D01*
X533705Y270881D01*
X533822Y270809D01*
X533933Y270730D01*
X534011Y270692D01*
X534085Y270647D01*
X534213Y270597D01*
X534337Y270538D01*
X534421Y270516D01*
X534502Y270484D01*
X534636Y270458D01*
X534768Y270422D01*
X534855Y270415D01*
X534940Y270398D01*
X535077Y270396D01*
X535213Y270384D01*
X535300Y270393D01*
X535386Y270391D01*
X535522Y270414D01*
X535658Y270427D01*
X535741Y270450D01*
X535827Y270464D01*
X535956Y270511D01*
X536088Y270547D01*
X536166Y270585D01*
X536248Y270615D01*
X536366Y270683D01*
X536489Y270743D01*
X536560Y270794D01*
X536635Y270838D01*
X536739Y270926D01*
X536850Y271007D01*
X536910Y271070D01*
X536976Y271126D01*
X537064Y271231D01*
X537158Y271330D01*
X537205Y271403D01*
X537261Y271470D01*
X537328Y271589D01*
X537403Y271704D01*
X537462Y271827D01*
X537480Y271859D01*
X537487Y271882D01*
X537509Y271927D01*
X539098Y275763D01*
X542019Y278684D01*
X545835Y280265D01*
X549965Y280265D01*
X553781Y278684D01*
X556702Y275763D01*
X558283Y271947D01*
X558283Y251053D01*
X556702Y247237D01*
X553781Y244316D01*
X549965Y242735D01*
X545835Y242735D01*
X542019Y244316D01*
X539098Y247237D01*
X537509Y251073D01*
X537446Y251194D01*
X537391Y251319D01*
X537342Y251391D01*
X537302Y251468D01*
X537218Y251577D01*
X537142Y251690D01*
X537081Y251752D01*
X537028Y251821D01*
X536926Y251912D01*
X536830Y252011D01*
X536760Y252061D01*
X536695Y252119D01*
X536578Y252191D01*
X536467Y252271D01*
X536389Y252308D01*
X536314Y252353D01*
X536187Y252403D01*
X536063Y252462D01*
X535979Y252484D01*
X535898Y252516D01*
X535764Y252542D01*
X535632Y252578D01*
X535545Y252585D01*
X535460Y252602D01*
X535323Y252604D01*
X535187Y252616D01*
X535100Y252607D01*
X535013Y252609D01*
X534878Y252586D01*
X534742Y252573D01*
X534659Y252550D01*
X534573Y252536D01*
X534444Y252490D01*
X534312Y252453D01*
X534234Y252415D01*
X534152Y252385D01*
X534034Y252317D01*
X533910Y252257D01*
X533840Y252206D01*
X533765Y252162D01*
X533660Y252074D01*
X533550Y251993D01*
X533490Y251930D01*
X533424Y251874D01*
X533337Y251769D01*
X533242Y251670D01*
X533194Y251597D01*
X533139Y251530D01*
X533072Y251411D01*
X532997Y251296D01*
X532938Y251173D01*
X532920Y251141D01*
X532913Y251118D01*
X532891Y251073D01*
X531302Y247237D01*
X528381Y244316D01*
X524565Y242735D01*
X520435Y242735D01*
X516619Y244316D01*
X513698Y247237D01*
X512109Y251073D01*
X512046Y251194D01*
X511991Y251319D01*
X511942Y251391D01*
X511902Y251468D01*
X511818Y251577D01*
X511742Y251690D01*
X511681Y251752D01*
X511628Y251821D01*
X511526Y251912D01*
X511430Y252011D01*
X511360Y252061D01*
X511295Y252119D01*
X511178Y252191D01*
X511067Y252271D01*
X510989Y252308D01*
X510914Y252353D01*
X510787Y252403D01*
X510663Y252462D01*
X510579Y252484D01*
X510498Y252516D01*
X510364Y252542D01*
X510232Y252578D01*
X510145Y252585D01*
X510060Y252602D01*
X509923Y252604D01*
X509787Y252616D01*
X509700Y252607D01*
X509613Y252609D01*
X509478Y252586D01*
X509342Y252573D01*
X509259Y252550D01*
X509173Y252536D01*
X509044Y252490D01*
X508912Y252453D01*
X508834Y252415D01*
X508752Y252385D01*
X508634Y252317D01*
X508510Y252257D01*
X508440Y252206D01*
X508365Y252162D01*
X508260Y252074D01*
X508150Y251993D01*
X508090Y251930D01*
X508024Y251874D01*
X507937Y251769D01*
X507842Y251670D01*
X507794Y251597D01*
X507739Y251530D01*
X507672Y251411D01*
X507597Y251296D01*
X507538Y251173D01*
X507520Y251141D01*
X507513Y251118D01*
X507491Y251073D01*
X505902Y247237D01*
X503906Y245241D01*
X503814Y245131D01*
X503716Y245027D01*
X503671Y244960D01*
X503620Y244898D01*
X503549Y244773D01*
X503470Y244654D01*
X503418Y244542D01*
X503399Y244510D01*
X503390Y244484D01*
X503364Y244430D01*
X503035Y243634D01*
X474966Y215565D01*
X472393Y214499D01*
X436107Y214499D01*
X433534Y215565D01*
X393065Y256034D01*
X391999Y258607D01*
X391999Y261393D01*
X392890Y263544D01*
X392918Y263633D01*
X392955Y263719D01*
X392985Y263845D01*
X393024Y263970D01*
X393035Y264063D01*
X393056Y264154D01*
X393063Y264284D01*
X393079Y264413D01*
X393074Y264507D01*
X393079Y264600D01*
X393062Y264729D01*
X393055Y264859D01*
X393033Y264950D01*
X393021Y265043D01*
X392981Y265167D01*
X392951Y265294D01*
X392914Y265379D01*
X392885Y265468D01*
X392824Y265583D01*
X392772Y265703D01*
X392720Y265781D01*
X392676Y265863D01*
X392596Y265966D01*
X392523Y266074D01*
X392458Y266141D01*
X392400Y266214D01*
X392302Y266301D01*
X392212Y266394D01*
X392136Y266449D01*
X392066Y266511D01*
X391954Y266578D01*
X391848Y266654D01*
X391764Y266694D01*
X391684Y266743D01*
X391563Y266790D01*
X391445Y266845D01*
X391354Y266870D01*
X391267Y266903D01*
X391139Y266928D01*
X391013Y266962D01*
X390920Y266969D01*
X390828Y266987D01*
X390581Y266999D01*
X358935Y266999D01*
X358749Y266983D01*
X358563Y266971D01*
X358527Y266963D01*
X358490Y266959D01*
X358310Y266910D01*
X358129Y266866D01*
X358095Y266851D01*
X358059Y266841D01*
X357891Y266760D01*
X357721Y266684D01*
X357690Y266664D01*
X357657Y266648D01*
X357506Y266538D01*
X357351Y266433D01*
X357314Y266399D01*
X357295Y266386D01*
X357269Y266359D01*
X357168Y266267D01*
X346966Y256065D01*
X344393Y254999D01*
X324607Y254999D01*
X322034Y256065D01*
X319714Y258386D01*
X318537Y259562D01*
X318432Y259650D01*
X318334Y259745D01*
X318261Y259793D01*
X318194Y259849D01*
X318076Y259916D01*
X317962Y259992D01*
X317882Y260026D01*
X317806Y260069D01*
X317677Y260115D01*
X317551Y260169D01*
X317467Y260189D01*
X317385Y260218D01*
X317249Y260239D01*
X317116Y260270D01*
X317030Y260274D01*
X316944Y260288D01*
X316807Y260285D01*
X316670Y260292D01*
X316584Y260281D01*
X316497Y260279D01*
X316363Y260252D01*
X316227Y260235D01*
X316144Y260208D01*
X316059Y260191D01*
X315932Y260141D01*
X315802Y260099D01*
X315725Y260058D01*
X315644Y260026D01*
X315528Y259954D01*
X315407Y259890D01*
X315338Y259836D01*
X315265Y259790D01*
X315163Y259698D01*
X315056Y259614D01*
X314998Y259549D01*
X314934Y259490D01*
X314850Y259382D01*
X314759Y259279D01*
X314714Y259205D01*
X314661Y259136D01*
X314598Y259015D01*
X314527Y258898D01*
X314496Y258817D01*
X314456Y258739D01*
X314416Y258609D01*
X314367Y258481D01*
X314350Y258395D01*
X314325Y258312D01*
X314309Y258177D01*
X314283Y258042D01*
X314276Y257906D01*
X314272Y257869D01*
X314273Y257845D01*
X314271Y257795D01*
X314271Y234259D01*
X312999Y231190D01*
X224730Y142921D01*
X221661Y141649D01*
X219000Y141649D01*
X218950Y141645D01*
X218900Y141647D01*
X218728Y141625D01*
X218555Y141609D01*
X218507Y141596D01*
X218457Y141590D01*
X218292Y141537D01*
X218124Y141491D01*
X218079Y141469D01*
X218032Y141454D01*
X217878Y141373D01*
X217722Y141298D01*
X217681Y141268D01*
X217637Y141245D01*
X217500Y141138D01*
X217360Y141036D01*
X217325Y141000D01*
X217286Y140969D01*
X217170Y140839D01*
X217050Y140714D01*
X217023Y140672D01*
X216989Y140634D01*
X216899Y140486D01*
X216803Y140342D01*
X216783Y140296D01*
X216757Y140253D01*
X216695Y140091D01*
X216626Y139931D01*
X216615Y139883D01*
X216597Y139836D01*
X216564Y139665D01*
X216525Y139496D01*
X216522Y139446D01*
X216513Y139397D01*
X216501Y139150D01*
X216501Y138750D01*
X216505Y138700D01*
X216503Y138650D01*
X216525Y138478D01*
X216541Y138305D01*
X216554Y138257D01*
X216560Y138207D01*
X216613Y138042D01*
X216659Y137874D01*
X216681Y137829D01*
X216696Y137782D01*
X216777Y137628D01*
X216852Y137472D01*
X216882Y137431D01*
X216905Y137387D01*
X217012Y137250D01*
X217114Y137110D01*
X217150Y137075D01*
X217181Y137036D01*
X217311Y136920D01*
X217436Y136800D01*
X217478Y136773D01*
X217516Y136739D01*
X217664Y136649D01*
X217808Y136553D01*
X217854Y136533D01*
X217897Y136507D01*
X218059Y136445D01*
X218219Y136376D01*
X218267Y136365D01*
X218314Y136347D01*
X218485Y136314D01*
X218654Y136275D01*
X218704Y136272D01*
X218753Y136263D01*
X219000Y136251D01*
X224906Y136251D01*
X225092Y136267D01*
X225278Y136279D01*
X225314Y136287D01*
X225351Y136291D01*
X225531Y136340D01*
X225712Y136384D01*
X225746Y136399D01*
X225781Y136409D01*
X225950Y136490D01*
X226120Y136566D01*
X226151Y136586D01*
X226184Y136602D01*
X226335Y136712D01*
X226490Y136817D01*
X226527Y136851D01*
X226546Y136864D01*
X226571Y136891D01*
X226673Y136983D01*
X276770Y187079D01*
X279839Y188351D01*
X553977Y188351D01*
X554163Y188367D01*
X554349Y188379D01*
X554385Y188387D01*
X554422Y188391D01*
X554603Y188440D01*
X554783Y188484D01*
X554817Y188499D01*
X554853Y188509D01*
X555021Y188590D01*
X555192Y188666D01*
X555222Y188686D01*
X555256Y188702D01*
X555407Y188812D01*
X555561Y188917D01*
X555599Y188951D01*
X555618Y188964D01*
X555643Y188991D01*
X555745Y189083D01*
X567131Y200469D01*
X567218Y200574D01*
X567313Y200672D01*
X567361Y200745D01*
X567417Y200812D01*
X567484Y200930D01*
X567560Y201044D01*
X567595Y201124D01*
X567638Y201200D01*
X567683Y201329D01*
X567737Y201455D01*
X567757Y201539D01*
X567786Y201621D01*
X567808Y201757D01*
X567838Y201890D01*
X567843Y201976D01*
X567857Y202062D01*
X567854Y202199D01*
X567861Y202336D01*
X567849Y202422D01*
X567848Y202509D01*
X567821Y202643D01*
X567803Y202779D01*
X567777Y202862D01*
X567759Y202947D01*
X567709Y203074D01*
X567667Y203204D01*
X567627Y203281D01*
X567595Y203362D01*
X567522Y203478D01*
X567458Y203599D01*
X567404Y203667D01*
X567358Y203741D01*
X567267Y203843D01*
X567182Y203950D01*
X567117Y204008D01*
X567059Y204072D01*
X566950Y204156D01*
X566848Y204247D01*
X566774Y204292D01*
X566705Y204345D01*
X566583Y204408D01*
X566466Y204479D01*
X566385Y204510D01*
X566308Y204550D01*
X566177Y204590D01*
X566049Y204639D01*
X565964Y204656D01*
X565881Y204681D01*
X565745Y204697D01*
X565611Y204723D01*
X565474Y204730D01*
X565437Y204734D01*
X565414Y204733D01*
X565363Y204735D01*
X562535Y204735D01*
X558719Y206316D01*
X555798Y209237D01*
X554217Y213053D01*
X554217Y233947D01*
X555798Y237763D01*
X558719Y240684D01*
X562535Y242265D01*
X566665Y242265D01*
X570481Y240684D01*
X573402Y237763D01*
X574991Y233927D01*
X575054Y233806D01*
X575109Y233681D01*
X575158Y233609D01*
X575198Y233532D01*
X575282Y233423D01*
X575358Y233310D01*
X575419Y233248D01*
X575472Y233179D01*
X575574Y233088D01*
X575670Y232990D01*
X575740Y232939D01*
X575805Y232881D01*
X575921Y232809D01*
X576033Y232730D01*
X576112Y232692D01*
X576186Y232647D01*
X576313Y232597D01*
X576437Y232538D01*
X576521Y232516D01*
X576602Y232484D01*
X576736Y232458D01*
X576868Y232422D01*
X576955Y232415D01*
X577040Y232398D01*
X577177Y232396D01*
X577313Y232385D01*
X577400Y232393D01*
X577487Y232391D01*
X577622Y232414D01*
X577758Y232427D01*
X577841Y232450D01*
X577927Y232464D01*
X578056Y232511D01*
X578188Y232547D01*
X578266Y232586D01*
X578348Y232615D01*
X578466Y232683D01*
X578590Y232743D01*
X578660Y232794D01*
X578735Y232838D01*
X578840Y232926D01*
X578950Y233007D01*
X579010Y233070D01*
X579076Y233126D01*
X579164Y233231D01*
X579258Y233330D01*
X579306Y233403D01*
X579361Y233470D01*
X579428Y233589D01*
X579503Y233704D01*
X579562Y233827D01*
X579580Y233859D01*
X579587Y233882D01*
X579609Y233927D01*
X581198Y237763D01*
X584119Y240684D01*
X587935Y242265D01*
X592065Y242265D01*
X595881Y240684D01*
X598802Y237763D01*
X600391Y233927D01*
X600454Y233806D01*
X600509Y233681D01*
X600558Y233609D01*
X600598Y233532D01*
X600682Y233423D01*
X600758Y233310D01*
X600819Y233248D01*
X600872Y233179D01*
X600974Y233088D01*
X601070Y232989D01*
X601140Y232939D01*
X601205Y232881D01*
X601322Y232809D01*
X601433Y232729D01*
X601511Y232692D01*
X601586Y232647D01*
X601713Y232597D01*
X601837Y232538D01*
X601921Y232516D01*
X602002Y232484D01*
X602136Y232458D01*
X602268Y232422D01*
X602355Y232415D01*
X602440Y232398D01*
X602577Y232396D01*
X602713Y232384D01*
X602800Y232393D01*
X602887Y232391D01*
X603022Y232414D01*
X603158Y232427D01*
X603241Y232450D01*
X603327Y232464D01*
X603456Y232510D01*
X603588Y232547D01*
X603666Y232585D01*
X603748Y232615D01*
X603866Y232683D01*
X603990Y232743D01*
X604060Y232794D01*
X604135Y232838D01*
X604240Y232926D01*
X604350Y233007D01*
X604410Y233070D01*
X604476Y233126D01*
X604563Y233231D01*
X604658Y233330D01*
X604706Y233403D01*
X604761Y233470D01*
X604828Y233589D01*
X604903Y233704D01*
X604962Y233827D01*
X604980Y233859D01*
X604987Y233882D01*
X605009Y233927D01*
X606598Y237763D01*
X608603Y239769D01*
X608723Y239912D01*
X608847Y240051D01*
X608866Y240083D01*
X608890Y240112D01*
X608982Y240273D01*
X609079Y240433D01*
X609092Y240468D01*
X609110Y240500D01*
X609172Y240676D01*
X609239Y240850D01*
X609246Y240886D01*
X609259Y240921D01*
X609288Y241106D01*
X609323Y241289D01*
X609326Y241339D01*
X609329Y241362D01*
X609328Y241399D01*
X609335Y241536D01*
X609335Y269146D01*
X609319Y269332D01*
X609307Y269518D01*
X609299Y269554D01*
X609295Y269591D01*
X609246Y269771D01*
X609202Y269952D01*
X609187Y269986D01*
X609177Y270022D01*
X609096Y270190D01*
X609020Y270360D01*
X609000Y270391D01*
X608984Y270424D01*
X608875Y270575D01*
X608769Y270730D01*
X608735Y270767D01*
X608722Y270786D01*
X608695Y270812D01*
X608603Y270913D01*
X606198Y273319D01*
X604617Y277135D01*
X604617Y281265D01*
X606198Y285081D01*
X609119Y288002D01*
X612935Y289583D01*
X617065Y289583D01*
X620881Y288002D01*
X623802Y285081D01*
X625383Y281265D01*
X625383Y277135D01*
X623802Y273319D01*
X622197Y271713D01*
X622077Y271570D01*
X621953Y271431D01*
X621934Y271399D01*
X621910Y271370D01*
X621818Y271209D01*
X621721Y271049D01*
X621708Y271014D01*
X621690Y270982D01*
X621628Y270806D01*
X621561Y270632D01*
X621554Y270596D01*
X621541Y270561D01*
X621512Y270376D01*
X621477Y270193D01*
X621474Y270143D01*
X621471Y270120D01*
X621472Y270083D01*
X621465Y269946D01*
X621465Y241536D01*
X621481Y241350D01*
X621493Y241164D01*
X621501Y241128D01*
X621505Y241091D01*
X621554Y240911D01*
X621598Y240730D01*
X621613Y240696D01*
X621623Y240660D01*
X621704Y240492D01*
X621780Y240322D01*
X621800Y240291D01*
X621816Y240258D01*
X621926Y240107D01*
X622031Y239952D01*
X622065Y239915D01*
X622078Y239896D01*
X622105Y239870D01*
X622197Y239769D01*
X624202Y237763D01*
X625783Y233947D01*
X625783Y213053D01*
X624202Y209237D01*
X621281Y206316D01*
X617465Y204735D01*
X613335Y204735D01*
X609519Y206316D01*
X606598Y209237D01*
X605009Y213073D01*
X604946Y213194D01*
X604891Y213319D01*
X604842Y213391D01*
X604802Y213468D01*
X604718Y213576D01*
X604642Y213690D01*
X604581Y213752D01*
X604528Y213821D01*
X604426Y213912D01*
X604330Y214011D01*
X604260Y214061D01*
X604195Y214119D01*
X604078Y214191D01*
X603967Y214270D01*
X603889Y214308D01*
X603815Y214353D01*
X603687Y214403D01*
X603563Y214462D01*
X603479Y214484D01*
X603398Y214516D01*
X603264Y214542D01*
X603132Y214578D01*
X603045Y214585D01*
X602960Y214602D01*
X602823Y214604D01*
X602687Y214616D01*
X602600Y214607D01*
X602514Y214609D01*
X602378Y214586D01*
X602242Y214573D01*
X602159Y214550D01*
X602073Y214536D01*
X601944Y214489D01*
X601812Y214453D01*
X601734Y214415D01*
X601652Y214385D01*
X601534Y214317D01*
X601411Y214257D01*
X601340Y214206D01*
X601265Y214162D01*
X601161Y214074D01*
X601050Y213993D01*
X600990Y213930D01*
X600924Y213874D01*
X600836Y213769D01*
X600742Y213670D01*
X600695Y213597D01*
X600639Y213530D01*
X600572Y213411D01*
X600497Y213296D01*
X600438Y213173D01*
X600420Y213141D01*
X600413Y213118D01*
X600391Y213073D01*
X598802Y209237D01*
X597793Y208228D01*
X597701Y208117D01*
X597602Y208014D01*
X597558Y207947D01*
X597507Y207885D01*
X597436Y207760D01*
X597357Y207640D01*
X597304Y207529D01*
X597286Y207496D01*
X597277Y207471D01*
X597251Y207417D01*
X596935Y206654D01*
X565902Y175621D01*
X563202Y172921D01*
X560133Y171649D01*
X435239Y171649D01*
X435119Y171639D01*
X434999Y171638D01*
X434897Y171619D01*
X434794Y171609D01*
X434678Y171577D01*
X434560Y171555D01*
X434463Y171518D01*
X434363Y171491D01*
X434255Y171439D01*
X434143Y171396D01*
X434054Y171343D01*
X433960Y171298D01*
X433863Y171227D01*
X433760Y171165D01*
X433683Y171097D01*
X433599Y171036D01*
X433515Y170949D01*
X433425Y170870D01*
X433361Y170788D01*
X433289Y170714D01*
X433223Y170614D01*
X433148Y170519D01*
X433099Y170428D01*
X433042Y170342D01*
X432994Y170231D01*
X432938Y170125D01*
X432906Y170027D01*
X432865Y169931D01*
X432838Y169814D01*
X432801Y169700D01*
X432787Y169597D01*
X432764Y169496D01*
X432758Y169377D01*
X432742Y169257D01*
X432747Y169153D01*
X432742Y169050D01*
X432757Y168931D01*
X432763Y168811D01*
X432786Y168710D01*
X432799Y168607D01*
X432836Y168493D01*
X432863Y168376D01*
X432903Y168280D01*
X432935Y168182D01*
X432991Y168075D01*
X433038Y167965D01*
X433096Y167878D01*
X433144Y167787D01*
X433218Y167692D01*
X433285Y167592D01*
X433356Y167517D01*
X433420Y167436D01*
X433510Y167356D01*
X433593Y167269D01*
X433677Y167208D01*
X433754Y167139D01*
X433857Y167077D01*
X433954Y167006D01*
X434048Y166961D01*
X434136Y166907D01*
X434248Y166864D01*
X434356Y166812D01*
X434525Y166758D01*
X434553Y166747D01*
X434566Y166744D01*
X434592Y166736D01*
X440867Y165055D01*
X450424Y159537D01*
X458227Y151734D01*
X463745Y142177D01*
X466601Y131518D01*
X466601Y120482D01*
X463745Y109823D01*
X458227Y100266D01*
X450424Y92463D01*
X440867Y86945D01*
X430208Y84089D01*
X419172Y84089D01*
X408513Y86945D01*
X398956Y92463D01*
X391153Y100266D01*
X385635Y109823D01*
X382779Y120482D01*
X382779Y131518D01*
X385635Y142177D01*
X391153Y151734D01*
X398956Y159537D01*
X408513Y165055D01*
X414788Y166736D01*
X414901Y166777D01*
X415017Y166809D01*
X415110Y166854D01*
X415207Y166890D01*
X415311Y166950D01*
X415420Y167002D01*
X415504Y167063D01*
X415593Y167116D01*
X415684Y167194D01*
X415781Y167264D01*
X415853Y167339D01*
X415932Y167406D01*
X416008Y167500D01*
X416091Y167586D01*
X416148Y167673D01*
X416214Y167753D01*
X416271Y167858D01*
X416338Y167958D01*
X416379Y168054D01*
X416429Y168144D01*
X416468Y168258D01*
X416515Y168369D01*
X416539Y168469D01*
X416572Y168568D01*
X416589Y168687D01*
X416616Y168804D01*
X416621Y168907D01*
X416636Y169010D01*
X416632Y169130D01*
X416638Y169250D01*
X416625Y169352D01*
X416622Y169456D01*
X416596Y169574D01*
X416581Y169693D01*
X416549Y169791D01*
X416528Y169893D01*
X416482Y170004D01*
X416445Y170118D01*
X416397Y170210D01*
X416357Y170306D01*
X416292Y170407D01*
X416236Y170513D01*
X416172Y170594D01*
X416116Y170682D01*
X416034Y170770D01*
X415960Y170864D01*
X415882Y170933D01*
X415812Y171009D01*
X415716Y171081D01*
X415626Y171161D01*
X415537Y171214D01*
X415454Y171277D01*
X415347Y171330D01*
X415244Y171393D01*
X415147Y171430D01*
X415055Y171476D01*
X414939Y171510D01*
X414827Y171553D01*
X414725Y171573D01*
X414626Y171602D01*
X414507Y171614D01*
X414388Y171637D01*
X414211Y171646D01*
X414182Y171649D01*
X414168Y171648D01*
X414141Y171649D01*
X312737Y171649D01*
X312617Y171639D01*
X312497Y171638D01*
X312395Y171619D01*
X312292Y171609D01*
X312176Y171577D01*
X312058Y171555D01*
X311961Y171518D01*
X311861Y171491D01*
X311753Y171439D01*
X311641Y171396D01*
X311552Y171343D01*
X311458Y171298D01*
X311361Y171227D01*
X311258Y171165D01*
X311181Y171097D01*
X311097Y171036D01*
X311013Y170949D01*
X310923Y170870D01*
X310859Y170788D01*
X310787Y170714D01*
X310721Y170614D01*
X310646Y170519D01*
X310597Y170428D01*
X310540Y170342D01*
X310492Y170231D01*
X310436Y170125D01*
X310404Y170027D01*
X310363Y169931D01*
X310336Y169814D01*
X310299Y169700D01*
X310285Y169597D01*
X310262Y169496D01*
X310256Y169377D01*
X310240Y169257D01*
X310245Y169153D01*
X310240Y169050D01*
X310255Y168931D01*
X310261Y168811D01*
X310284Y168710D01*
X310297Y168607D01*
X310334Y168493D01*
X310361Y168376D01*
X310401Y168280D01*
X310433Y168182D01*
X310489Y168075D01*
X310536Y167965D01*
X310594Y167878D01*
X310642Y167787D01*
X310716Y167692D01*
X310783Y167592D01*
X310854Y167517D01*
X310918Y167436D01*
X311008Y167356D01*
X311091Y167269D01*
X311175Y167208D01*
X311252Y167139D01*
X311355Y167077D01*
X311452Y167006D01*
X311546Y166961D01*
X311634Y166907D01*
X311746Y166864D01*
X311854Y166812D01*
X312023Y166758D01*
X312051Y166747D01*
X312064Y166744D01*
X312090Y166736D01*
X322097Y164055D01*
X331654Y158537D01*
X339457Y150734D01*
X344975Y141177D01*
X347831Y130518D01*
X347831Y119482D01*
X344975Y108823D01*
X339457Y99266D01*
X331654Y91463D01*
X322097Y85945D01*
X311438Y83089D01*
X300402Y83089D01*
G37*
%LPD*%
G36*
X187908Y93017D02*
X187908Y93017D01*
X188094Y93029D01*
X188130Y93037D01*
X188167Y93041D01*
X188347Y93090D01*
X188528Y93134D01*
X188562Y93149D01*
X188597Y93159D01*
X188766Y93240D01*
X188936Y93316D01*
X188967Y93336D01*
X189000Y93352D01*
X189151Y93462D01*
X189306Y93567D01*
X189343Y93601D01*
X189362Y93614D01*
X189388Y93641D01*
X189489Y93733D01*
X200267Y104511D01*
X200387Y104654D01*
X200511Y104794D01*
X200530Y104825D01*
X200554Y104854D01*
X200646Y105016D01*
X200743Y105175D01*
X200756Y105210D01*
X200774Y105242D01*
X200836Y105418D01*
X200903Y105592D01*
X200910Y105629D01*
X200923Y105664D01*
X200952Y105848D01*
X200987Y106031D01*
X200990Y106081D01*
X200993Y106105D01*
X200992Y106142D01*
X200999Y106278D01*
X200999Y112900D01*
X200995Y112950D01*
X200997Y113000D01*
X200975Y113172D01*
X200959Y113345D01*
X200946Y113393D01*
X200940Y113443D01*
X200887Y113608D01*
X200841Y113776D01*
X200819Y113821D01*
X200804Y113868D01*
X200723Y114022D01*
X200648Y114178D01*
X200618Y114219D01*
X200595Y114263D01*
X200488Y114400D01*
X200386Y114540D01*
X200350Y114575D01*
X200319Y114614D01*
X200189Y114730D01*
X200064Y114850D01*
X200022Y114877D01*
X199984Y114911D01*
X199836Y115001D01*
X199692Y115097D01*
X199646Y115117D01*
X199603Y115143D01*
X199441Y115205D01*
X199281Y115274D01*
X199233Y115285D01*
X199186Y115303D01*
X199015Y115336D01*
X198846Y115375D01*
X198796Y115378D01*
X198747Y115387D01*
X198500Y115399D01*
X192671Y115399D01*
X191499Y116571D01*
X191499Y139150D01*
X191495Y139200D01*
X191497Y139250D01*
X191475Y139422D01*
X191459Y139595D01*
X191446Y139643D01*
X191440Y139693D01*
X191387Y139858D01*
X191341Y140026D01*
X191319Y140071D01*
X191304Y140118D01*
X191223Y140272D01*
X191148Y140428D01*
X191118Y140469D01*
X191095Y140513D01*
X190988Y140650D01*
X190886Y140790D01*
X190850Y140825D01*
X190819Y140864D01*
X190689Y140980D01*
X190564Y141100D01*
X190522Y141127D01*
X190484Y141161D01*
X190336Y141251D01*
X190192Y141347D01*
X190146Y141367D01*
X190103Y141393D01*
X189941Y141455D01*
X189781Y141524D01*
X189733Y141535D01*
X189686Y141553D01*
X189515Y141586D01*
X189346Y141625D01*
X189296Y141628D01*
X189247Y141637D01*
X189000Y141649D01*
X184494Y141649D01*
X184308Y141633D01*
X184122Y141621D01*
X184086Y141613D01*
X184049Y141609D01*
X183869Y141560D01*
X183688Y141516D01*
X183654Y141501D01*
X183619Y141491D01*
X183450Y141410D01*
X183280Y141334D01*
X183249Y141314D01*
X183216Y141298D01*
X183065Y141188D01*
X182910Y141083D01*
X182873Y141049D01*
X182854Y141036D01*
X182829Y141009D01*
X182727Y140917D01*
X175233Y133423D01*
X175113Y133280D01*
X174989Y133140D01*
X174970Y133109D01*
X174946Y133080D01*
X174854Y132918D01*
X174757Y132759D01*
X174744Y132724D01*
X174726Y132692D01*
X174664Y132516D01*
X174597Y132342D01*
X174590Y132305D01*
X174577Y132270D01*
X174548Y132086D01*
X174513Y131903D01*
X174510Y131853D01*
X174507Y131829D01*
X174508Y131792D01*
X174501Y131656D01*
X174501Y116571D01*
X173329Y115399D01*
X150671Y115399D01*
X149499Y116571D01*
X149499Y135122D01*
X149494Y135182D01*
X149496Y135223D01*
X149481Y135340D01*
X149471Y135494D01*
X149463Y135530D01*
X149459Y135567D01*
X149444Y135624D01*
X149438Y135666D01*
X149401Y135782D01*
X149366Y135928D01*
X149351Y135962D01*
X149341Y135997D01*
X149316Y136049D01*
X149303Y136092D01*
X149243Y136203D01*
X149184Y136336D01*
X149164Y136367D01*
X149148Y136400D01*
X149116Y136444D01*
X149093Y136486D01*
X149012Y136590D01*
X148933Y136706D01*
X148899Y136743D01*
X148886Y136762D01*
X148859Y136788D01*
X148839Y136810D01*
X148817Y136837D01*
X148800Y136852D01*
X148767Y136889D01*
X136999Y148657D01*
X136999Y169272D01*
X136987Y169409D01*
X136984Y169545D01*
X136967Y169631D01*
X136959Y169717D01*
X136923Y169849D01*
X136896Y169983D01*
X136864Y170064D01*
X136841Y170148D01*
X136782Y170272D01*
X136731Y170399D01*
X136685Y170472D01*
X136648Y170551D01*
X136567Y170662D01*
X136495Y170778D01*
X136437Y170842D01*
X136386Y170913D01*
X136287Y171007D01*
X136195Y171109D01*
X136126Y171162D01*
X136064Y171222D01*
X135950Y171298D01*
X135841Y171381D01*
X135764Y171421D01*
X135692Y171469D01*
X135566Y171524D01*
X135444Y171586D01*
X135361Y171612D01*
X135281Y171646D01*
X135148Y171677D01*
X135017Y171718D01*
X134931Y171728D01*
X134846Y171748D01*
X134710Y171754D01*
X134574Y171771D01*
X134487Y171765D01*
X134400Y171770D01*
X134265Y171752D01*
X134128Y171744D01*
X134043Y171723D01*
X133957Y171712D01*
X133827Y171671D01*
X133694Y171638D01*
X133614Y171603D01*
X133532Y171576D01*
X133411Y171512D01*
X133286Y171457D01*
X133214Y171408D01*
X133137Y171367D01*
X133029Y171283D01*
X132916Y171206D01*
X132815Y171114D01*
X132786Y171091D01*
X132770Y171074D01*
X132733Y171040D01*
X132060Y170367D01*
X131481Y170032D01*
X130834Y169859D01*
X123499Y169859D01*
X123499Y181900D01*
X123495Y181950D01*
X123497Y182000D01*
X123475Y182171D01*
X123459Y182345D01*
X123446Y182393D01*
X123440Y182443D01*
X123387Y182608D01*
X123341Y182775D01*
X123319Y182821D01*
X123304Y182868D01*
X123284Y182905D01*
X123305Y182959D01*
X123374Y183119D01*
X123385Y183167D01*
X123403Y183214D01*
X123436Y183385D01*
X123475Y183554D01*
X123478Y183604D01*
X123487Y183653D01*
X123499Y183900D01*
X123499Y195941D01*
X130834Y195941D01*
X131481Y195768D01*
X132060Y195433D01*
X132733Y194760D01*
X132838Y194672D01*
X132936Y194578D01*
X133009Y194530D01*
X133076Y194474D01*
X133195Y194406D01*
X133308Y194331D01*
X133388Y194296D01*
X133464Y194253D01*
X133593Y194208D01*
X133719Y194154D01*
X133803Y194134D01*
X133885Y194105D01*
X134020Y194083D01*
X134154Y194052D01*
X134240Y194048D01*
X134326Y194034D01*
X134463Y194037D01*
X134600Y194030D01*
X134686Y194042D01*
X134773Y194043D01*
X134907Y194070D01*
X135043Y194088D01*
X135126Y194114D01*
X135211Y194132D01*
X135338Y194182D01*
X135468Y194224D01*
X135545Y194264D01*
X135626Y194296D01*
X135742Y194369D01*
X135863Y194433D01*
X135932Y194487D01*
X136005Y194532D01*
X136107Y194624D01*
X136214Y194709D01*
X136272Y194774D01*
X136336Y194832D01*
X136420Y194941D01*
X136511Y195043D01*
X136556Y195117D01*
X136609Y195186D01*
X136672Y195308D01*
X136743Y195425D01*
X136774Y195506D01*
X136814Y195583D01*
X136854Y195714D01*
X136903Y195842D01*
X136920Y195927D01*
X136945Y196010D01*
X136961Y196146D01*
X136987Y196280D01*
X136994Y196417D01*
X136998Y196454D01*
X136997Y196477D01*
X136999Y196528D01*
X136999Y207722D01*
X136983Y207908D01*
X136971Y208094D01*
X136963Y208130D01*
X136959Y208167D01*
X136910Y208347D01*
X136866Y208528D01*
X136851Y208562D01*
X136841Y208597D01*
X136760Y208765D01*
X136684Y208936D01*
X136664Y208967D01*
X136648Y209000D01*
X136538Y209151D01*
X136433Y209306D01*
X136399Y209343D01*
X136386Y209362D01*
X136359Y209388D01*
X136267Y209489D01*
X109489Y236267D01*
X107267Y238489D01*
X107162Y238577D01*
X107064Y238672D01*
X106991Y238720D01*
X106924Y238775D01*
X106805Y238843D01*
X106692Y238919D01*
X106612Y238953D01*
X106536Y238996D01*
X106407Y239042D01*
X106281Y239096D01*
X106197Y239115D01*
X106115Y239144D01*
X105979Y239166D01*
X105846Y239197D01*
X105760Y239201D01*
X105674Y239215D01*
X105537Y239212D01*
X105400Y239219D01*
X105314Y239208D01*
X105227Y239206D01*
X105093Y239179D01*
X104957Y239161D01*
X104874Y239135D01*
X104789Y239118D01*
X104662Y239067D01*
X104532Y239026D01*
X104455Y238985D01*
X104374Y238953D01*
X104258Y238881D01*
X104137Y238817D01*
X104069Y238763D01*
X103995Y238717D01*
X103893Y238625D01*
X103786Y238541D01*
X103728Y238475D01*
X103664Y238417D01*
X103580Y238309D01*
X103489Y238206D01*
X103444Y238132D01*
X103391Y238063D01*
X103328Y237942D01*
X103257Y237825D01*
X103226Y237744D01*
X103186Y237666D01*
X103146Y237536D01*
X103097Y237408D01*
X103080Y237322D01*
X103055Y237239D01*
X103039Y237104D01*
X103013Y236969D01*
X103006Y236832D01*
X103002Y236796D01*
X103003Y236772D01*
X103001Y236722D01*
X103001Y196528D01*
X103013Y196391D01*
X103016Y196255D01*
X103033Y196169D01*
X103041Y196083D01*
X103077Y195951D01*
X103104Y195817D01*
X103136Y195736D01*
X103159Y195652D01*
X103218Y195528D01*
X103269Y195401D01*
X103315Y195328D01*
X103352Y195249D01*
X103433Y195138D01*
X103505Y195022D01*
X103563Y194958D01*
X103614Y194887D01*
X103713Y194793D01*
X103805Y194691D01*
X103874Y194638D01*
X103936Y194578D01*
X104050Y194502D01*
X104159Y194419D01*
X104236Y194379D01*
X104308Y194331D01*
X104434Y194276D01*
X104556Y194214D01*
X104639Y194188D01*
X104719Y194154D01*
X104852Y194123D01*
X104983Y194082D01*
X105069Y194072D01*
X105154Y194052D01*
X105290Y194046D01*
X105426Y194029D01*
X105513Y194035D01*
X105600Y194030D01*
X105735Y194048D01*
X105872Y194056D01*
X105957Y194077D01*
X106043Y194088D01*
X106173Y194129D01*
X106306Y194162D01*
X106386Y194197D01*
X106468Y194224D01*
X106589Y194288D01*
X106714Y194343D01*
X106786Y194392D01*
X106863Y194433D01*
X106971Y194517D01*
X107084Y194594D01*
X107185Y194686D01*
X107214Y194709D01*
X107230Y194726D01*
X107267Y194760D01*
X107940Y195433D01*
X108519Y195768D01*
X109166Y195941D01*
X116501Y195941D01*
X116501Y183900D01*
X116505Y183850D01*
X116503Y183800D01*
X116525Y183629D01*
X116541Y183455D01*
X116554Y183407D01*
X116560Y183357D01*
X116613Y183192D01*
X116659Y183025D01*
X116681Y182979D01*
X116696Y182932D01*
X116716Y182895D01*
X116695Y182841D01*
X116626Y182681D01*
X116615Y182633D01*
X116597Y182586D01*
X116564Y182415D01*
X116525Y182246D01*
X116522Y182196D01*
X116513Y182147D01*
X116501Y181900D01*
X116501Y169859D01*
X109166Y169859D01*
X108519Y170032D01*
X107940Y170367D01*
X107267Y171040D01*
X107162Y171128D01*
X107064Y171222D01*
X106991Y171270D01*
X106924Y171326D01*
X106805Y171394D01*
X106692Y171469D01*
X106612Y171504D01*
X106536Y171547D01*
X106407Y171592D01*
X106281Y171646D01*
X106197Y171666D01*
X106115Y171695D01*
X105980Y171717D01*
X105846Y171748D01*
X105760Y171752D01*
X105674Y171766D01*
X105537Y171763D01*
X105400Y171770D01*
X105314Y171758D01*
X105227Y171757D01*
X105093Y171730D01*
X104957Y171712D01*
X104874Y171686D01*
X104789Y171668D01*
X104662Y171618D01*
X104532Y171576D01*
X104455Y171536D01*
X104374Y171504D01*
X104258Y171431D01*
X104137Y171367D01*
X104068Y171313D01*
X103995Y171268D01*
X103893Y171176D01*
X103786Y171091D01*
X103728Y171026D01*
X103664Y170968D01*
X103580Y170859D01*
X103489Y170757D01*
X103444Y170683D01*
X103391Y170614D01*
X103328Y170492D01*
X103257Y170375D01*
X103226Y170294D01*
X103186Y170217D01*
X103146Y170086D01*
X103097Y169958D01*
X103080Y169873D01*
X103055Y169790D01*
X103039Y169654D01*
X103013Y169520D01*
X103006Y169383D01*
X103002Y169346D01*
X103003Y169323D01*
X103001Y169272D01*
X103001Y140764D01*
X103013Y140627D01*
X103016Y140491D01*
X103033Y140406D01*
X103041Y140319D01*
X103077Y140187D01*
X103104Y140053D01*
X103136Y139972D01*
X103159Y139888D01*
X103218Y139765D01*
X103269Y139638D01*
X103315Y139564D01*
X103352Y139486D01*
X103433Y139375D01*
X103505Y139259D01*
X103563Y139194D01*
X103614Y139124D01*
X103713Y139029D01*
X103805Y138927D01*
X103874Y138874D01*
X103936Y138814D01*
X104050Y138738D01*
X104159Y138655D01*
X104236Y138615D01*
X104308Y138567D01*
X104434Y138513D01*
X104556Y138450D01*
X104639Y138424D01*
X104719Y138390D01*
X104852Y138359D01*
X104983Y138319D01*
X105069Y138308D01*
X105154Y138289D01*
X105290Y138282D01*
X105426Y138266D01*
X105513Y138271D01*
X105600Y138267D01*
X105735Y138284D01*
X105872Y138292D01*
X105957Y138313D01*
X106043Y138324D01*
X106173Y138366D01*
X106306Y138398D01*
X106385Y138433D01*
X106468Y138460D01*
X106589Y138524D01*
X106714Y138579D01*
X106786Y138628D01*
X106863Y138669D01*
X106971Y138754D01*
X107084Y138831D01*
X107185Y138922D01*
X107214Y138945D01*
X107230Y138963D01*
X107267Y138997D01*
X108671Y140401D01*
X131329Y140401D01*
X132501Y139229D01*
X132501Y116571D01*
X131329Y115399D01*
X108671Y115399D01*
X107267Y116803D01*
X107162Y116891D01*
X107064Y116986D01*
X106991Y117034D01*
X106924Y117090D01*
X106805Y117157D01*
X106692Y117233D01*
X106612Y117267D01*
X106536Y117310D01*
X106407Y117356D01*
X106281Y117410D01*
X106197Y117430D01*
X106115Y117459D01*
X105979Y117480D01*
X105846Y117511D01*
X105760Y117516D01*
X105674Y117529D01*
X105537Y117527D01*
X105400Y117533D01*
X105314Y117522D01*
X105227Y117520D01*
X105093Y117493D01*
X104957Y117476D01*
X104874Y117449D01*
X104789Y117432D01*
X104662Y117382D01*
X104532Y117340D01*
X104455Y117299D01*
X104374Y117267D01*
X104258Y117195D01*
X104137Y117131D01*
X104069Y117077D01*
X103995Y117031D01*
X103893Y116939D01*
X103786Y116855D01*
X103728Y116790D01*
X103664Y116731D01*
X103580Y116623D01*
X103489Y116521D01*
X103444Y116446D01*
X103391Y116377D01*
X103328Y116256D01*
X103257Y116139D01*
X103226Y116058D01*
X103186Y115981D01*
X103146Y115850D01*
X103097Y115722D01*
X103080Y115636D01*
X103055Y115554D01*
X103039Y115418D01*
X103013Y115283D01*
X103006Y115147D01*
X103002Y115110D01*
X103003Y115087D01*
X103001Y115036D01*
X103001Y102278D01*
X103017Y102092D01*
X103029Y101906D01*
X103037Y101870D01*
X103041Y101833D01*
X103090Y101653D01*
X103134Y101472D01*
X103149Y101438D01*
X103159Y101403D01*
X103240Y101234D01*
X103316Y101064D01*
X103336Y101033D01*
X103352Y101000D01*
X103462Y100849D01*
X103567Y100694D01*
X103601Y100657D01*
X103614Y100638D01*
X103641Y100612D01*
X103733Y100511D01*
X110511Y93733D01*
X110654Y93613D01*
X110794Y93489D01*
X110825Y93470D01*
X110854Y93446D01*
X111016Y93354D01*
X111175Y93257D01*
X111210Y93244D01*
X111242Y93226D01*
X111418Y93164D01*
X111592Y93097D01*
X111629Y93090D01*
X111663Y93077D01*
X111848Y93048D01*
X112031Y93013D01*
X112081Y93010D01*
X112105Y93007D01*
X112142Y93008D01*
X112278Y93001D01*
X187722Y93001D01*
X187908Y93017D01*
G37*
%LPC*%
G36*
X200688Y29739D02*
X200688Y29739D01*
X194288Y31454D01*
X188551Y34766D01*
X183866Y39451D01*
X180554Y45188D01*
X178839Y51588D01*
X178839Y58212D01*
X180554Y64612D01*
X183866Y70349D01*
X188551Y75034D01*
X194288Y78346D01*
X200688Y80061D01*
X207312Y80061D01*
X213712Y78346D01*
X219449Y75034D01*
X224134Y70349D01*
X227446Y64612D01*
X229161Y58212D01*
X229161Y51588D01*
X227446Y45188D01*
X224134Y39451D01*
X219449Y34766D01*
X213712Y31454D01*
X207312Y29739D01*
X200688Y29739D01*
G37*
%LPD*%
%LPC*%
G36*
X601084Y579512D02*
X601084Y579512D01*
X599912Y580684D01*
X599912Y610916D01*
X601084Y612088D01*
X631316Y612088D01*
X632488Y610916D01*
X632488Y580684D01*
X631316Y579512D01*
X601084Y579512D01*
G37*
%LPD*%
%LPC*%
G36*
X91084Y579512D02*
X91084Y579512D01*
X89912Y580684D01*
X89912Y610916D01*
X91084Y612088D01*
X121316Y612088D01*
X122488Y610916D01*
X122488Y580684D01*
X121316Y579512D01*
X91084Y579512D01*
G37*
%LPD*%
%LPC*%
G36*
X524884Y579512D02*
X524884Y579512D01*
X523712Y580684D01*
X523712Y610916D01*
X524884Y612088D01*
X555116Y612088D01*
X556288Y610916D01*
X556288Y580684D01*
X555116Y579512D01*
X524884Y579512D01*
G37*
%LPD*%
%LPC*%
G36*
X524884Y528712D02*
X524884Y528712D01*
X523712Y529884D01*
X523712Y560116D01*
X524884Y561288D01*
X555116Y561288D01*
X556288Y560116D01*
X556288Y529884D01*
X555116Y528712D01*
X524884Y528712D01*
G37*
%LPD*%
%LPC*%
G36*
X601084Y528712D02*
X601084Y528712D01*
X599912Y529884D01*
X599912Y560116D01*
X601084Y561288D01*
X631316Y561288D01*
X632488Y560116D01*
X632488Y529884D01*
X631316Y528712D01*
X601084Y528712D01*
G37*
%LPD*%
%LPC*%
G36*
X91084Y528712D02*
X91084Y528712D01*
X89912Y529884D01*
X89912Y560116D01*
X91084Y561288D01*
X121316Y561288D01*
X122488Y560116D01*
X122488Y529884D01*
X121316Y528712D01*
X91084Y528712D01*
G37*
%LPD*%
%LPC*%
G36*
X192671Y170399D02*
X192671Y170399D01*
X191499Y171571D01*
X191499Y194229D01*
X192671Y195401D01*
X215329Y195401D01*
X216501Y194229D01*
X216501Y171571D01*
X215329Y170399D01*
X192671Y170399D01*
G37*
%LPD*%
%LPC*%
G36*
X150671Y170399D02*
X150671Y170399D01*
X149499Y171571D01*
X149499Y194229D01*
X150671Y195401D01*
X173329Y195401D01*
X174501Y194229D01*
X174501Y171571D01*
X173329Y170399D01*
X150671Y170399D01*
G37*
%LPD*%
%LPC*%
G36*
X66671Y115399D02*
X66671Y115399D01*
X65499Y116571D01*
X65499Y139229D01*
X66671Y140401D01*
X89329Y140401D01*
X90501Y139229D01*
X90501Y116571D01*
X89329Y115399D01*
X66671Y115399D01*
G37*
%LPD*%
%LPC*%
G36*
X24671Y115399D02*
X24671Y115399D01*
X23499Y116571D01*
X23499Y139229D01*
X24671Y140401D01*
X47329Y140401D01*
X48501Y139229D01*
X48501Y116571D01*
X47329Y115399D01*
X24671Y115399D01*
G37*
%LPD*%
%LPC*%
G36*
X294399Y419100D02*
X294399Y419100D01*
X294399Y429506D01*
X295995Y428987D01*
X297492Y428225D01*
X298850Y427238D01*
X300038Y426050D01*
X301025Y424692D01*
X301787Y423195D01*
X302306Y421598D01*
X302321Y421504D01*
X302372Y421302D01*
X302420Y421101D01*
X302426Y421087D01*
X302430Y421071D01*
X302516Y420881D01*
X302599Y420692D01*
X302608Y420679D01*
X302614Y420664D01*
X302733Y420493D01*
X302848Y420321D01*
X302859Y420310D01*
X302868Y420297D01*
X303014Y420150D01*
X303159Y420001D01*
X303172Y419992D01*
X303183Y419980D01*
X303353Y419862D01*
X303522Y419741D01*
X303537Y419734D01*
X303550Y419725D01*
X303738Y419639D01*
X303926Y419550D01*
X303941Y419546D01*
X303956Y419539D01*
X304156Y419488D01*
X304357Y419434D01*
X304373Y419432D01*
X304389Y419428D01*
X304595Y419413D01*
X304802Y419396D01*
X304818Y419397D01*
X304834Y419396D01*
X305041Y419419D01*
X305247Y419438D01*
X305263Y419443D01*
X305279Y419444D01*
X305478Y419503D01*
X305677Y419559D01*
X305692Y419566D01*
X305707Y419570D01*
X305892Y419664D01*
X306079Y419754D01*
X306092Y419764D01*
X306106Y419771D01*
X306272Y419896D01*
X306439Y420018D01*
X306450Y420030D01*
X306463Y420039D01*
X306604Y420192D01*
X306747Y420342D01*
X306756Y420355D01*
X306767Y420367D01*
X306879Y420542D01*
X306992Y420715D01*
X307002Y420734D01*
X307007Y420743D01*
X307017Y420768D01*
X307098Y420939D01*
X308713Y424837D01*
X311563Y427687D01*
X315285Y429229D01*
X319315Y429229D01*
X323037Y427687D01*
X325887Y424837D01*
X327429Y421115D01*
X327429Y417085D01*
X325887Y413363D01*
X323037Y410513D01*
X319315Y408971D01*
X315285Y408971D01*
X311563Y410513D01*
X308713Y413363D01*
X307098Y417261D01*
X307002Y417445D01*
X306908Y417630D01*
X306899Y417643D01*
X306891Y417657D01*
X306763Y417821D01*
X306639Y417986D01*
X306627Y417997D01*
X306617Y418010D01*
X306462Y418148D01*
X306310Y418288D01*
X306296Y418297D01*
X306284Y418308D01*
X306107Y418417D01*
X305932Y418527D01*
X305918Y418533D01*
X305904Y418542D01*
X305711Y418617D01*
X305519Y418695D01*
X305503Y418699D01*
X305488Y418704D01*
X305284Y418744D01*
X305081Y418787D01*
X305065Y418787D01*
X305050Y418791D01*
X304841Y418794D01*
X304635Y418799D01*
X304619Y418797D01*
X304603Y418797D01*
X304398Y418763D01*
X304193Y418732D01*
X304178Y418727D01*
X304162Y418724D01*
X303967Y418654D01*
X303771Y418587D01*
X303757Y418579D01*
X303742Y418574D01*
X303562Y418470D01*
X303381Y418369D01*
X303368Y418359D01*
X303354Y418351D01*
X303196Y418217D01*
X303036Y418085D01*
X303025Y418073D01*
X303013Y418063D01*
X302882Y417904D01*
X302747Y417745D01*
X302739Y417731D01*
X302728Y417719D01*
X302626Y417537D01*
X302523Y417358D01*
X302518Y417343D01*
X302510Y417329D01*
X302442Y417133D01*
X302372Y416938D01*
X302367Y416917D01*
X302364Y416907D01*
X302360Y416881D01*
X302321Y416696D01*
X302306Y416602D01*
X301787Y415005D01*
X301025Y413508D01*
X300038Y412150D01*
X298850Y410962D01*
X297492Y409975D01*
X295995Y409213D01*
X294399Y408694D01*
X294399Y419100D01*
G37*
%LPD*%
%LPC*%
G36*
X366085Y408971D02*
X366085Y408971D01*
X362363Y410513D01*
X359513Y413363D01*
X357971Y417085D01*
X357971Y421115D01*
X359513Y424837D01*
X362363Y427687D01*
X366085Y429229D01*
X370115Y429229D01*
X373837Y427687D01*
X376687Y424837D01*
X378229Y421115D01*
X378229Y417085D01*
X376687Y413363D01*
X373837Y410513D01*
X370115Y408971D01*
X366085Y408971D01*
G37*
%LPD*%
%LPC*%
G36*
X340685Y408971D02*
X340685Y408971D01*
X336963Y410513D01*
X334113Y413363D01*
X332571Y417085D01*
X332571Y421115D01*
X334113Y424837D01*
X336963Y427687D01*
X340685Y429229D01*
X344715Y429229D01*
X348437Y427687D01*
X351287Y424837D01*
X352829Y421115D01*
X352829Y417085D01*
X351287Y413363D01*
X348437Y410513D01*
X344715Y408971D01*
X340685Y408971D01*
G37*
%LPD*%
%LPC*%
G36*
X609889Y404799D02*
X609889Y404799D01*
X610217Y405810D01*
X610871Y407093D01*
X611717Y408257D01*
X612735Y409275D01*
X613899Y410121D01*
X615182Y410775D01*
X616551Y411220D01*
X617972Y411445D01*
X629401Y411445D01*
X629401Y404799D01*
X609889Y404799D01*
G37*
%LPD*%
%LPC*%
G36*
X81499Y186399D02*
X81499Y186399D01*
X81499Y195941D01*
X88834Y195941D01*
X89481Y195768D01*
X90060Y195433D01*
X90533Y194960D01*
X90868Y194381D01*
X91041Y193734D01*
X91041Y186399D01*
X81499Y186399D01*
G37*
%LPD*%
%LPC*%
G36*
X39499Y186399D02*
X39499Y186399D01*
X39499Y195941D01*
X46834Y195941D01*
X47481Y195768D01*
X48060Y195433D01*
X48533Y194960D01*
X48868Y194381D01*
X49041Y193734D01*
X49041Y186399D01*
X39499Y186399D01*
G37*
%LPD*%
%LPC*%
G36*
X22959Y186399D02*
X22959Y186399D01*
X22959Y193734D01*
X23132Y194381D01*
X23467Y194960D01*
X23940Y195433D01*
X24519Y195768D01*
X25166Y195941D01*
X32501Y195941D01*
X32501Y186399D01*
X22959Y186399D01*
G37*
%LPD*%
%LPC*%
G36*
X64959Y186399D02*
X64959Y186399D01*
X64959Y193734D01*
X65132Y194381D01*
X65467Y194960D01*
X65940Y195433D01*
X66519Y195768D01*
X67166Y195941D01*
X74501Y195941D01*
X74501Y186399D01*
X64959Y186399D01*
G37*
%LPD*%
%LPC*%
G36*
X81499Y169859D02*
X81499Y169859D01*
X81499Y179401D01*
X91041Y179401D01*
X91041Y172066D01*
X90868Y171419D01*
X90533Y170840D01*
X90060Y170367D01*
X89481Y170032D01*
X88834Y169859D01*
X81499Y169859D01*
G37*
%LPD*%
%LPC*%
G36*
X39499Y169859D02*
X39499Y169859D01*
X39499Y179401D01*
X49041Y179401D01*
X49041Y172066D01*
X48868Y171419D01*
X48533Y170840D01*
X48060Y170367D01*
X47481Y170032D01*
X46834Y169859D01*
X39499Y169859D01*
G37*
%LPD*%
%LPC*%
G36*
X67166Y169859D02*
X67166Y169859D01*
X66519Y170032D01*
X65940Y170367D01*
X65467Y170840D01*
X65132Y171419D01*
X64959Y172066D01*
X64959Y179401D01*
X74501Y179401D01*
X74501Y169859D01*
X67166Y169859D01*
G37*
%LPD*%
%LPC*%
G36*
X25166Y169859D02*
X25166Y169859D01*
X24519Y170032D01*
X23940Y170367D01*
X23467Y170840D01*
X23132Y171419D01*
X22959Y172066D01*
X22959Y179401D01*
X32501Y179401D01*
X32501Y169859D01*
X25166Y169859D01*
G37*
%LPD*%
%LPC*%
G36*
X281494Y421599D02*
X281494Y421599D01*
X282013Y423195D01*
X282775Y424692D01*
X283762Y426050D01*
X284950Y427238D01*
X286308Y428225D01*
X287805Y428987D01*
X289401Y429506D01*
X289401Y421599D01*
X281494Y421599D01*
G37*
%LPD*%
%LPC*%
G36*
X287805Y409213D02*
X287805Y409213D01*
X286308Y409975D01*
X284950Y410962D01*
X283762Y412150D01*
X282775Y413508D01*
X282013Y415005D01*
X281494Y416601D01*
X289401Y416601D01*
X289401Y408694D01*
X287805Y409213D01*
G37*
%LPD*%
%LPC*%
G36*
X618249Y320959D02*
X618249Y320959D01*
X618249Y326751D01*
X625041Y326751D01*
X625041Y323166D01*
X624868Y322519D01*
X624533Y321940D01*
X624060Y321467D01*
X623481Y321132D01*
X622834Y320959D01*
X618249Y320959D01*
G37*
%LPD*%
%LPC*%
G36*
X607166Y320959D02*
X607166Y320959D01*
X606519Y321132D01*
X605940Y321467D01*
X605467Y321940D01*
X605132Y322519D01*
X604959Y323166D01*
X604959Y326751D01*
X611751Y326751D01*
X611751Y320959D01*
X607166Y320959D01*
G37*
%LPD*%
%LPC*%
G36*
X634399Y404799D02*
X634399Y404799D01*
X634399Y411103D01*
X635410Y410775D01*
X636693Y410121D01*
X637857Y409275D01*
X638875Y408257D01*
X639721Y407093D01*
X640375Y405810D01*
X640703Y404799D01*
X634399Y404799D01*
G37*
%LPD*%
%LPC*%
G36*
X634399Y399801D02*
X634399Y399801D01*
X640703Y399801D01*
X640375Y398790D01*
X639721Y397507D01*
X638875Y396343D01*
X637857Y395325D01*
X636693Y394479D01*
X635410Y393825D01*
X634399Y393497D01*
X634399Y399801D01*
G37*
%LPD*%
D10*
X291900Y342900D03*
X317300Y342900D03*
X317300Y419100D03*
X291900Y419100D03*
X342700Y342900D03*
X368100Y342900D03*
X342700Y419100D03*
X368100Y419100D03*
D11*
X615000Y349000D03*
X615000Y330000D03*
D12*
X591500Y470800D03*
X591500Y369200D03*
X615000Y380800D03*
X615000Y279200D03*
D13*
X615400Y231882D02*
X615400Y215118D01*
X590000Y215118D02*
X590000Y231882D01*
X564600Y231882D02*
X564600Y215118D01*
X331320Y291878D02*
X331320Y308642D01*
X305920Y308642D02*
X305920Y291878D01*
X280520Y291878D02*
X280520Y308642D01*
X450090Y309642D02*
X450090Y292878D01*
X424690Y292878D02*
X424690Y309642D01*
X399290Y309642D02*
X399290Y292878D01*
X497100Y269882D02*
X497100Y253118D01*
X522500Y253118D02*
X522500Y269882D01*
X547900Y269882D02*
X547900Y253118D01*
X228882Y259600D02*
X212118Y259600D01*
X212118Y285000D02*
X228882Y285000D01*
X228882Y310400D02*
X212118Y310400D01*
D11*
X592000Y409500D03*
X592000Y428500D03*
D14*
X708100Y402300D02*
X721308Y402300D01*
X721308Y427700D02*
X708100Y427700D01*
X631900Y427700D02*
X618692Y427700D01*
X618692Y402300D02*
X631900Y402300D01*
X806000Y597626D02*
X806000Y610834D01*
X806000Y485104D02*
X806000Y471896D01*
D15*
X204000Y127900D03*
X162000Y127900D03*
X120000Y127900D03*
X78000Y127900D03*
X36000Y127900D03*
X78000Y182900D03*
X36000Y182900D03*
X120000Y182900D03*
X162000Y182900D03*
X204000Y182900D03*
X894000Y127900D03*
X852000Y127900D03*
X810000Y127900D03*
X768000Y127900D03*
X726000Y127900D03*
X768000Y182900D03*
X726000Y182900D03*
X810000Y182900D03*
X852000Y182900D03*
X894000Y182900D03*
D16*
X540000Y595800D03*
X616200Y595800D03*
X616200Y545000D03*
X540000Y545000D03*
X30000Y595800D03*
X106200Y595800D03*
X106200Y545000D03*
X30000Y545000D03*
D11*
X30000Y360500D03*
X30000Y379500D03*
X80000Y360500D03*
X80000Y379500D03*
D14*
X870000Y597626D02*
X870000Y610834D01*
X870000Y485104D02*
X870000Y471896D01*
X902000Y597626D02*
X902000Y610834D01*
X902000Y485104D02*
X902000Y471896D01*
X838000Y597626D02*
X838000Y610834D01*
X838000Y485104D02*
X838000Y471896D01*
D17*
X810000Y240000D03*
X810000Y399000D03*
X810000Y286000D03*
X810000Y445000D03*
D18*
X226000Y396000D03*
D19*
X226000Y361000D01*
X564500Y409500D02*
X592000Y409500D01*
X564500Y409500D02*
X564000Y410000D01*
D18*
X564000Y410000D03*
X170000Y419000D03*
D19*
X175000Y414000D01*
X208000Y414000D02*
X226000Y396000D01*
X208000Y414000D02*
X175000Y414000D01*
D18*
X183000Y340000D03*
D19*
X205000Y340000D01*
X226000Y361000D01*
X260800Y374000D02*
X291900Y342900D01*
X239000Y374000D02*
X226000Y361000D01*
X239000Y374000D02*
X260800Y374000D01*
D18*
X258000Y340000D03*
D19*
X289000Y340000D01*
X291900Y342900D01*
D18*
X241000Y394000D03*
X580000Y275000D03*
D20*
X615000Y330000D02*
X630000Y330000D01*
D21*
X120000Y182900D02*
X120000Y162000D01*
D18*
X114000Y156000D03*
X81000Y156000D03*
D21*
X114000Y156000D02*
X120000Y162000D01*
D18*
X375000Y286000D03*
D19*
X382718Y293718D01*
X382718Y316253D01*
X449465Y383000D01*
X577700Y383000D02*
X591500Y369200D01*
X577700Y383000D02*
X449465Y383000D01*
D20*
X615000Y223900D02*
X615400Y223500D01*
D22*
X615400Y278800D01*
X615000Y279200D01*
D19*
X615000Y349000D02*
X615000Y380800D01*
X444265Y351000D02*
X424690Y331425D01*
X424690Y301260D01*
X613000Y351000D02*
X615000Y349000D01*
X613000Y351000D02*
X444265Y351000D01*
X591500Y470800D02*
X592000Y470300D01*
X592000Y428500D01*
X592800Y427700D02*
X631900Y427700D01*
X592800Y427700D02*
X592000Y428500D01*
X305920Y300260D02*
X305920Y282080D01*
X326000Y262000D01*
X355000Y274000D02*
X457000Y274000D01*
X470700Y324300D02*
X465000Y330000D01*
X470700Y324300D02*
X470700Y287700D01*
D18*
X465000Y330000D03*
D19*
X470700Y287700D02*
X457000Y274000D01*
X355000Y274000D02*
X343000Y262000D01*
X326000Y262000D01*
D20*
X305920Y235920D02*
X305920Y300260D01*
X180000Y150000D02*
X160000Y130000D01*
X160000Y129900D01*
X162000Y127900D01*
X220000Y150000D02*
X305920Y235920D01*
X220000Y150000D02*
X180000Y150000D01*
D23*
X110000Y330500D02*
X80000Y360500D01*
X110000Y240000D02*
X140000Y210000D01*
X140000Y149900D02*
X160000Y129900D01*
X110000Y240000D02*
X110000Y330500D01*
X140000Y210000D02*
X140000Y149900D01*
D20*
X589856Y223356D02*
X590000Y223500D01*
X589856Y223356D02*
X589856Y211385D01*
X558472Y180000D01*
X281500Y180000D01*
X229400Y127900D01*
X204000Y127900D01*
D23*
X50500Y340000D02*
X30000Y360500D01*
X100000Y100000D02*
X110000Y90000D01*
X204000Y104000D02*
X204000Y127900D01*
X70000Y340000D02*
X50500Y340000D01*
X70000Y340000D02*
X100000Y310000D01*
X100000Y100000D01*
X110000Y90000D02*
X190000Y90000D01*
X204000Y104000D01*
D19*
X497100Y247600D02*
X497100Y261500D01*
X497100Y247600D02*
X471000Y221500D01*
X437500Y221500D01*
X399000Y260000D01*
D18*
X399000Y260000D03*
X251000Y275000D03*
D19*
X254700Y278700D01*
X257660Y313350D02*
X257660Y314350D01*
X257660Y313350D02*
X254700Y310390D01*
X254700Y278700D01*
D18*
X257660Y314350D03*
D19*
X374366Y327772D02*
X400000Y353406D01*
X400000Y364000D01*
D18*
X400000Y364000D03*
D19*
X197772Y327772D02*
X190000Y320000D01*
X190000Y270000D01*
X200400Y259600D02*
X220500Y259600D01*
X197772Y327772D02*
X374366Y327772D01*
X200400Y259600D02*
X190000Y270000D01*
D24*
X726000Y182900D02*
X768000Y182900D01*
X768000Y127900D01*
X726000Y127900D01*
X726000Y182900D01*
D25*
X768000Y182900D02*
X768000Y412000D01*
X750000Y430000D01*
X710400Y430000D01*
X708100Y427700D01*
D23*
X30000Y410000D02*
X30000Y379500D01*
D18*
X30000Y410000D03*
X70000Y420000D03*
D23*
X80000Y410000D01*
X80000Y379500D01*
M02*
