M48
;GenerationSoftware,Autodesk,EAGLE,9.5.1*%
;CreationDate,2019-12-12T01:51:10Z*%
FMAT,2
ICI,OFF
METRIC,TZ,000.000
T8C0.350
T7C0.813
T6C1.118
T5C1.300
T4C1.400
T3C1.905
T2C3.000
T1C3.302
%
G90
M71
T1
X52250Y43676
X59000Y4824
X30592Y12500
X42469Y12600
X4524Y28500
T2
X20400Y5490
X3600Y5490
X72600Y5490
X89400Y5490
T3
X3000Y59580
X54000Y54500
X61620Y54500
X61620Y59580
X54000Y59580
X10620Y59580
X10620Y54500
X3000Y54500
T4
X89400Y18290
X85200Y18290
X81000Y18290
X72600Y18290
X76800Y18290
X72600Y12790
X76800Y12790
X81000Y12790
X85200Y12790
X20400Y18290
X89400Y12790
X16200Y18290
X12000Y18290
X3600Y18290
X7800Y18290
X3600Y12790
X7800Y12790
X12000Y12790
X20400Y12790
X16200Y12790
T5
X81000Y24000
X81000Y39900
X81000Y28600
X81000Y44500
T6
X33132Y30026
X30592Y30026
X28052Y30026
X45009Y30126
X42469Y30126
X39929Y30126
X49710Y26150
X61500Y38080
X54790Y26150
X22050Y25960
X22050Y28500
X22050Y31040
X52250Y26150
X59150Y47080
X59150Y36920
X61500Y27920
X61540Y22350
X59000Y22350
X56460Y22350
T7
X70810Y40230
X34270Y41910
X36810Y34290
X34270Y34290
X29190Y41910
X31730Y41910
X31730Y34290
X29190Y34290
X63190Y42770
X87000Y60423
X87000Y47850
X90200Y60423
X90200Y47850
X83800Y60423
X83800Y47850
X63190Y40230
X80600Y60423
X80600Y47850
X36810Y41910
X70810Y42770
T8
X25100Y27500
X7000Y42000
X3000Y41000
X40000Y36400
X25766Y31435
X39900Y26000
X46500Y33000
X37500Y28600
X8100Y15600
X11400Y15600
X22600Y39600
X24100Y39400
X25800Y34000
X18300Y34000
X17000Y41900
X56400Y41000
X58000Y27500
M30