%MOIN*%
%OFA0B0*%
%FSLAX34Y34*%
%IPPOS*%
%LPD*%
%AMOC8*
5,1,8,0,0,$1,112.5*%
%AMOC80*
5,1,8,0,0,$1,22.5*%
%AMOC81*
5,1,8,0,0,$1,22.5*%
%AMOC80*
5,1,8,0,0,$1,22.5*%
%AMOC81*
5,1,8,0,0,$1,22.5*%
%AMOC80*
5,1,8,0,0,$1,112.5*%
%ADD10C,0.16548031496062993*%
%ADD11R,0.070992125984251975X0.059181102362204731*%
%ADD12R,0.062992125984251982X0.051181102362204731*%
%ADD13C,0.12611023622047243*%
%ADD14R,0.059181102362204731X0.070992125984251975*%
%ADD15R,0.051181102362204731X0.062992125984251982*%
%ADD16R,0.072960629921259845X0.072960629921259845*%
%ADD17R,0.059181102362204731X0.06705511811023622*%
%ADD18R,0.051181102362204731X0.059055118110236227*%
%ADD19R,0.031622047244094488X0.057212598425196853*%
%ADD20R,0.023622047244094488X0.049212598425196853*%
%ADD21C,0.060000000000000005*%
%ADD22R,0.056000000000000008X0.096000000000000016*%
%ADD23R,0.048000000000000008X0.088*%
%ADD24R,0.14973228346456693X0.094614173228346463*%
%ADD25R,0.14173228346456693X0.086614173228346469*%
%ADD26R,0.06705511811023622X0.059181102362204731*%
%ADD27R,0.059055118110236227X0.051181102362204731*%
%ADD28R,0.11429921259842521X0.11429921259842521*%
%ADD29R,0.047685039370078744X0.047685039370078744*%
%ADD30R,0.0847716535433071X0.0847716535433071*%
%ADD31C,0.037779527559055122*%
%ADD42C,0.116*%
%ADD43C,0.168*%
%ADD44C,0.11252755905511812*%
%ADD45R,0.11252755905511812X0.11252755905511812*%
%ADD46C,0.12571653543307088*%
%ADD47C,0.135*%
%ADD48C,0.1265*%
%ADD49C,0.20485039370078742*%
%ADD50C,0.113*%
%ADD51R,0.090677165354330708X0.090677165354330708*%
%ADD52C,0.12611023622047243*%
%ADD53C,0.065086614173228349*%
%ADD54C,0.090677165354330708*%
%ADD55C,0.0642992125984252*%
%ADD56R,0.083X0.083*%
%ADD57R,0.055244094488188983X0.055244094488188983*%
%ADD58R,0.047244094488188976X0.047244094488188976*%
%ADD59R,0.059181102362204731X0.06705511811023622*%
%ADD60R,0.051181102362204731X0.059055118110236227*%
%ADD61R,0.12050000000000001X0.12050000000000001*%
%ADD62C,0.16548031496062993*%
%ADD63R,0.148X0.148*%
%ADD64C,0.037779527559055122*%
%ADD65C,0.20485039370078742*%
%ADD66C,0.113*%
%ADD67R,0.090677165354330708X0.090677165354330708*%
%ADD68C,0.12611023622047243*%
%ADD69C,0.065086614173228349*%
%ADD70C,0.090677165354330708*%
%ADD71C,0.0642992125984252*%
%ADD72R,0.055244094488188983X0.055244094488188983*%
%ADD73R,0.047244094488188976X0.047244094488188976*%
%ADD74R,0.059181102362204731X0.06705511811023622*%
%ADD75R,0.051181102362204731X0.059055118110236227*%
%ADD76R,0.083X0.083*%
%ADD77R,0.12050000000000001X0.12050000000000001*%
%ADD78C,0.16548031496062993*%
%ADD79R,0.148X0.148*%
%ADD80C,0.16548031496062993*%
%ADD81C,0.132*%
%ADD82P,0.1428754724409449X8X292.5*%
%ADD83R,0.06705511811023622X0.059181102362204731*%
%ADD84R,0.059055118110236227X0.051181102362204731*%
%ADD85C,0.097763779527559061*%
%ADD86C,0.12788188976377954*%
%ADD87R,0.10248818897637797X0.10248818897637797*%
%ADD88C,0.060000000000000005*%
%ADD89R,0.090677165354330708X0.090677165354330708*%
%ADD90C,0.12611023622047243*%
%ADD91C,0.133*%
%ADD92C,0.12729133858267719*%
%ADD93C,0.0879212598425197*%
%ADD94R,0.12050000000000001X0.12050000000000001*%
%ADD95R,0.070007874015748039X0.070007874015748039*%
%ADD96C,0.057212598425196853*%
%ADD97C,0.17335433070866144*%
%ADD98R,0.0847716535433071X0.0847716535433071*%
%ADD99R,0.13398425196850394X0.078866141732283471*%
%ADD100R,0.12598425196850396X0.070866141732283464*%
%ADD101C,0.037779527559055122*%
%ADD102C,0.072000000000000008*%
%ADD103C,0.074*%
%ADD104C,0.138*%
%ADD105C,0.060000000000000005*%
%ADD106R,0.090677165354330708X0.090677165354330708*%
%ADD107C,0.12611023622047243*%
%ADD108R,0.12050000000000001X0.12050000000000001*%
%ADD109C,0.0965*%
%ADD110R,0.0847716535433071X0.0847716535433071*%
%ADD111R,0.059181102362204731X0.06705511811023622*%
%ADD112R,0.051181102362204731X0.059055118110236227*%
%ADD113R,0.06705511811023622X0.059181102362204731*%
%ADD114R,0.059055118110236227X0.051181102362204731*%
%ADD115C,0.037779527559055122*%
G75*
G01*
D10*
X0123622Y0034251D02*
X0097637Y0036948D03*
X0120472Y0036948D03*
X0097637Y0069035D03*
X0120472Y0069035D03*
D11*
X0116174Y0044418D03*
D12*
X0116174Y0044418D03*
D11*
X0116174Y0043670D03*
D12*
X0116174Y0043670D03*
D11*
X0115379Y0046652D03*
D12*
X0115379Y0046652D03*
D11*
X0115379Y0045904D03*
D12*
X0115379Y0045904D03*
D13*
X0098377Y0066080D03*
X0114951Y0065830D03*
D11*
X0096280Y0039020D03*
D12*
X0096280Y0039020D03*
D11*
X0096280Y0038272D03*
D12*
X0096280Y0038272D03*
D11*
X0101679Y0048083D03*
D12*
X0101679Y0048083D03*
D11*
X0101679Y0048831D03*
D12*
X0101679Y0048831D03*
D14*
X0098212Y0039424D03*
D15*
X0098212Y0039424D03*
D14*
X0097464Y0039424D03*
D15*
X0097464Y0039424D03*
D11*
X0098287Y0041018D03*
D12*
X0098287Y0041018D03*
D11*
X0098287Y0041766D03*
D12*
X0098287Y0041766D03*
D14*
X0113999Y0048683D03*
D15*
X0113999Y0048683D03*
D14*
X0114747Y0048683D03*
D15*
X0114747Y0048683D03*
D14*
X0113999Y0047699D03*
D15*
X0113999Y0047699D03*
D14*
X0114747Y0047699D03*
D15*
X0114747Y0047699D03*
D16*
X0105748Y0044481D03*
X0107748Y0044481D03*
X0108748Y0044481D03*
X0109748Y0044481D03*
X0109748Y0046481D03*
X0108748Y0046481D03*
X0107748Y0046481D03*
X0105748Y0046481D03*
X0110748Y0044481D03*
X0110748Y0046481D03*
D17*
X0112905Y0046583D03*
D18*
X0112905Y0046583D03*
D17*
X0113653Y0046583D03*
D18*
X0113653Y0046583D03*
D19*
X0102202Y0046724D03*
D20*
X0102202Y0046724D03*
D19*
X0102576Y0046724D03*
D20*
X0102576Y0046724D03*
D19*
X0102950Y0046724D03*
D20*
X0102950Y0046724D03*
D19*
X0102950Y0045739D03*
D20*
X0102950Y0045739D03*
D19*
X0102576Y0045739D03*
D20*
X0102576Y0045739D03*
D19*
X0102202Y0045739D03*
D20*
X0102202Y0045739D03*
D21*
X0100740Y0048194D02*
X0100220Y0048194D01*
X0100220Y0049194D02*
X0100740Y0049194D01*
X0100740Y0054194D02*
X0100220Y0054194D01*
X0097740Y0054194D02*
X0097220Y0054194D01*
X0100220Y0050194D02*
X0100740Y0050194D01*
X0100740Y0051194D02*
X0100220Y0051194D01*
X0100220Y0053194D02*
X0100740Y0053194D01*
X0100740Y0052194D02*
X0100220Y0052194D01*
X0097740Y0053194D02*
X0097220Y0053194D01*
X0097220Y0052194D02*
X0097740Y0052194D01*
X0097740Y0051194D02*
X0097220Y0051194D01*
X0097220Y0050194D02*
X0097740Y0050194D01*
X0097740Y0049194D02*
X0097220Y0049194D01*
X0097220Y0048194D02*
X0097740Y0048194D01*
X0106028Y0048144D02*
X0106548Y0048144D01*
X0106548Y0049144D02*
X0106028Y0049144D01*
X0106028Y0054144D02*
X0106548Y0054144D01*
X0103548Y0054144D02*
X0103028Y0054144D01*
X0106028Y0050144D02*
X0106548Y0050144D01*
X0106548Y0051144D02*
X0106028Y0051144D01*
X0106028Y0053144D02*
X0106548Y0053144D01*
X0106548Y0052144D02*
X0106028Y0052144D01*
X0103548Y0053144D02*
X0103028Y0053144D01*
X0103028Y0052144D02*
X0103548Y0052144D01*
X0103548Y0051144D02*
X0103028Y0051144D01*
X0103028Y0050144D02*
X0103548Y0050144D01*
X0103548Y0049144D02*
X0103028Y0049144D01*
X0103028Y0048144D02*
X0103548Y0048144D01*
X0115563Y0047695D02*
X0116083Y0047695D01*
X0116083Y0048695D02*
X0115563Y0048695D01*
X0113083Y0048695D02*
X0112563Y0048695D01*
X0112563Y0047695D02*
X0113083Y0047695D01*
X0115563Y0049695D02*
X0116083Y0049695D01*
X0116083Y0050695D02*
X0115563Y0050695D01*
X0113083Y0049695D02*
X0112563Y0049695D01*
X0112563Y0050695D02*
X0113083Y0050695D01*
X0111237Y0048194D02*
X0110717Y0048194D01*
X0110717Y0049194D02*
X0111237Y0049194D01*
X0111237Y0054194D02*
X0110717Y0054194D01*
X0108237Y0054194D02*
X0107717Y0054194D01*
X0110717Y0050194D02*
X0111237Y0050194D01*
X0111237Y0051194D02*
X0110717Y0051194D01*
X0110717Y0053194D02*
X0111237Y0053194D01*
X0111237Y0052194D02*
X0110717Y0052194D01*
X0108237Y0053194D02*
X0107717Y0053194D01*
X0107717Y0052194D02*
X0108237Y0052194D01*
X0108237Y0051194D02*
X0107717Y0051194D01*
X0107717Y0050194D02*
X0108237Y0050194D01*
X0108237Y0049194D02*
X0107717Y0049194D01*
X0107717Y0048194D02*
X0108237Y0048194D01*
D22*
X0112785Y0045471D03*
D23*
X0112785Y0045471D03*
D22*
X0113695Y0045471D03*
D23*
X0113695Y0045471D03*
D22*
X0114605Y0045471D03*
D23*
X0114605Y0045471D03*
D24*
X0113695Y0043031D03*
D25*
X0113695Y0043031D03*
D17*
X0109102Y0048025D03*
D18*
X0109102Y0048025D03*
D17*
X0109850Y0048025D03*
D18*
X0109850Y0048025D03*
D17*
X0109064Y0049186D03*
D18*
X0109064Y0049186D03*
D17*
X0109812Y0049186D03*
D18*
X0109812Y0049186D03*
D26*
X0097250Y0040979D03*
D27*
X0097250Y0040979D03*
D26*
X0097250Y0041727D03*
D27*
X0097250Y0041727D03*
D26*
X0096262Y0041707D03*
D27*
X0096262Y0041707D03*
D26*
X0096262Y0040959D03*
D27*
X0096262Y0040959D03*
D26*
X0101718Y0051003D03*
D27*
X0101718Y0051003D03*
D26*
X0101718Y0050255D03*
D27*
X0101718Y0050255D03*
D17*
X0104398Y0049301D03*
D18*
X0104398Y0049301D03*
D17*
X0105146Y0049301D03*
D18*
X0105146Y0049301D03*
D17*
X0102981Y0044375D03*
D18*
X0102981Y0044375D03*
D17*
X0102233Y0044375D03*
D18*
X0102233Y0044375D03*
D13*
X0120552Y0065620D03*
D11*
X0116350Y0046687D03*
D12*
X0116350Y0046687D03*
D11*
X0116350Y0045939D03*
D12*
X0116350Y0045939D03*
D17*
X0104402Y0048216D03*
D18*
X0104402Y0048216D03*
D17*
X0105150Y0048216D03*
D18*
X0105150Y0048216D03*
D26*
X0101238Y0046668D03*
D27*
X0101238Y0046668D03*
D26*
X0101238Y0045920D03*
D27*
X0101238Y0045920D03*
D14*
X0106301Y0056940D03*
D15*
X0106301Y0056940D03*
D14*
X0107050Y0056940D03*
D15*
X0107050Y0056940D03*
D14*
X0106750Y0061207D03*
D15*
X0106750Y0061207D03*
D14*
X0106001Y0061207D03*
D15*
X0106001Y0061207D03*
D14*
X0097234Y0060828D03*
D15*
X0097234Y0060828D03*
D14*
X0096486Y0060828D03*
D15*
X0096486Y0060828D03*
D14*
X0096886Y0056140D03*
D15*
X0096886Y0056140D03*
D14*
X0097634Y0056140D03*
D15*
X0097634Y0056140D03*
D14*
X0119274Y0056790D03*
D15*
X0119274Y0056790D03*
D14*
X0120022Y0056790D03*
D15*
X0120022Y0056790D03*
D14*
X0120122Y0061118D03*
D15*
X0120122Y0061118D03*
D14*
X0119374Y0061118D03*
D15*
X0119374Y0061118D03*
D14*
X0114407Y0056540D03*
D15*
X0114407Y0056540D03*
D14*
X0115155Y0056540D03*
D15*
X0115155Y0056540D03*
D14*
X0115105Y0059518D03*
D15*
X0115105Y0059518D03*
D14*
X0114357Y0059518D03*
D15*
X0114357Y0059518D03*
D14*
X0101763Y0056740D03*
D15*
X0101763Y0056740D03*
D14*
X0102511Y0056740D03*
D15*
X0102511Y0056740D03*
D14*
X0101861Y0060668D03*
D15*
X0101861Y0060668D03*
D14*
X0101113Y0060668D03*
D15*
X0101113Y0060668D03*
D14*
X0109629Y0056900D03*
D15*
X0109629Y0056900D03*
D14*
X0110377Y0056900D03*
D15*
X0110377Y0056900D03*
D14*
X0110127Y0059468D03*
D15*
X0110127Y0059468D03*
D14*
X0109379Y0059468D03*
D15*
X0109379Y0059468D03*
D17*
X0114038Y0052742D03*
D18*
X0114038Y0052742D03*
D17*
X0114786Y0052742D03*
D18*
X0114786Y0052742D03*
D13*
X0114185Y0036712D03*
X0117492Y0036712D03*
D28*
X0114185Y0039586D03*
X0115838Y0039586D03*
X0117492Y0039586D03*
D13*
X0107285Y0036712D03*
X0110592Y0036712D03*
D28*
X0107285Y0039586D03*
X0108938Y0039586D03*
X0110592Y0039586D03*
X0103709Y0039785D03*
X0102055Y0039785D03*
X0100401Y0039785D03*
X0103709Y0041950D03*
X0102055Y0041950D03*
X0100401Y0041950D03*
D29*
X0105922Y0042601D03*
X0106922Y0042601D03*
D10*
X0112322Y0059901D03*
D30*
X0112322Y0061870D03*
X0111337Y0057933D03*
X0113306Y0057933D03*
D10*
X0103472Y0059801D03*
D30*
X0103472Y0061770D03*
X0102487Y0057833D03*
X0104456Y0057833D03*
D10*
X0107972Y0059951D03*
D30*
X0107972Y0061920D03*
X0106987Y0057983D03*
X0108956Y0057983D03*
D10*
X0098822Y0059651D03*
D30*
X0098822Y0061620D03*
X0097837Y0057683D03*
X0099806Y0057683D03*
D10*
X0121622Y0059851D03*
D30*
X0121622Y0061820D03*
X0120637Y0057883D03*
X0122606Y0057883D03*
D10*
X0116772Y0059751D03*
D30*
X0116772Y0061720D03*
X0115787Y0057783D03*
X0117756Y0057783D03*
D13*
X0103922Y0065901D03*
X0109572Y0065851D03*
D31*
X0116122Y0045051D03*
X0098772Y0040251D03*
X0117522Y0042251D03*
X0121072Y0042351D03*
X0101172Y0044251D03*
X0118822Y0048451D03*
X0122322Y0048501D03*
X0113772Y0049451D03*
X0115372Y0043601D03*
X0112072Y0043601D03*
X0119922Y0045401D03*
X0115322Y0044001D03*
X0112072Y0044001D03*
X0122622Y0046301D03*
X0104822Y0050101D03*
X0114296Y0046576D03*
G04 next file*
G04 EAGLE Gerber RS-274X export*
G75*
G01*
D42*
X0068503Y0000000D02*
X0096397Y0021501D03*
X0092807Y0021501D03*
X0096397Y0019751D03*
X0092807Y0019751D03*
D43*
X0098807Y0024031D03*
X0090407Y0024031D03*
X0090407Y0017221D03*
X0098807Y0017221D03*
D44*
X0115665Y0020444D03*
D45*
X0115665Y0022196D03*
D44*
X0112074Y0020444D03*
X0112074Y0022196D03*
X0115665Y0018692D03*
X0112074Y0018692D03*
D46*
X0109669Y0016165D03*
X0109669Y0024724D03*
X0118070Y0024724D03*
X0118070Y0016165D03*
D42*
X0080362Y0022510D03*
X0080362Y0020800D03*
X0080362Y0019090D03*
D47*
X0080362Y0016980D03*
X0080362Y0024620D03*
D48*
X0075200Y0003336D02*
X0075200Y0002151D01*
X0078893Y0002151D02*
X0078893Y0003336D01*
X0103846Y0003336D02*
X0103846Y0002151D01*
X0111082Y0002151D02*
X0111082Y0003336D01*
X0115562Y0003336D02*
X0115562Y0002151D01*
X0107838Y0002151D02*
X0107838Y0003336D01*
X0118618Y0003336D02*
X0118618Y0002151D01*
G04 next file*
G04 EAGLE Gerber RS-274X export*
G75*
G01*
D49*
X0000000Y0000000D02*
X0031889Y0021456D03*
X0037795Y0021456D03*
D50*
X0018577Y0005153D03*
X0021777Y0005153D03*
X0016877Y0020053D03*
X0023477Y0020053D03*
D49*
X0011515Y0023263D03*
X0028838Y0023263D03*
X0011515Y0002003D03*
X0028838Y0002003D03*
D51*
X0007637Y0005035D03*
X0005984Y0005035D03*
X0004330Y0005035D03*
X0002677Y0005035D03*
X0001023Y0005035D03*
X0002677Y0007200D03*
X0001023Y0007200D03*
X0004330Y0007200D03*
X0005984Y0007200D03*
X0007637Y0007200D03*
D52*
X0007637Y0002161D03*
X0001023Y0002161D03*
D53*
X0005413Y0016732D03*
X0002460Y0016732D03*
D54*
X0007027Y0012007D03*
X0000846Y0012007D03*
D55*
X0005070Y0010433D03*
X0001228Y0010433D03*
D51*
X0035669Y0019586D03*
X0034015Y0019586D03*
X0034015Y0021751D03*
X0035669Y0021751D03*
D56*
X0056692Y0007283D03*
X0048692Y0007283D03*
X0052692Y0001283D03*
X0033692Y0002783D03*
X0033692Y0005783D03*
D57*
X0001555Y0015354D03*
D58*
X0001555Y0015354D03*
D57*
X0002381Y0015354D03*
D58*
X0002381Y0015354D03*
D59*
X0002342Y0018110D03*
D60*
X0002342Y0018110D03*
D59*
X0001594Y0018110D03*
D60*
X0001594Y0018110D03*
D51*
X0066692Y0005035D03*
X0065039Y0005035D03*
X0063385Y0005035D03*
X0061732Y0005035D03*
X0060078Y0005035D03*
X0061732Y0007200D03*
X0060078Y0007200D03*
X0063385Y0007200D03*
X0065039Y0007200D03*
X0066692Y0007200D03*
D52*
X0066692Y0002161D03*
X0060078Y0002161D03*
D61*
X0001181Y0023456D03*
X0004181Y0023456D03*
X0004181Y0021456D03*
X0001181Y0021456D03*
X0063385Y0023456D03*
X0066385Y0023456D03*
X0066385Y0021456D03*
X0063385Y0021456D03*
D62*
X0056889Y0014929D03*
X0056889Y0018929D03*
X0042716Y0018929D03*
X0042716Y0014929D03*
D63*
X0044094Y0021929D03*
X0044094Y0011929D03*
X0055511Y0011929D03*
X0055511Y0021929D03*
D57*
X0005511Y0018523D03*
D58*
X0005511Y0018523D03*
D57*
X0005511Y0017696D03*
D58*
X0005511Y0017696D03*
D59*
X0003562Y0018110D03*
D60*
X0003562Y0018110D03*
D59*
X0004311Y0018110D03*
D60*
X0004311Y0018110D03*
D64*
X0003149Y0015944D03*
G04 next file*
G04 EAGLE Gerber RS-274X export*
G75*
G01*
D65*
X0000000Y0025984D02*
X0029330Y0048769D03*
X0033513Y0048720D03*
D66*
X0049090Y0046127D03*
X0045890Y0046127D03*
X0050790Y0031227D03*
X0044190Y0031227D03*
D65*
X0056151Y0028017D03*
X0038828Y0028017D03*
X0056151Y0049277D03*
X0038828Y0049277D03*
D67*
X0066692Y0031019D03*
X0065039Y0031019D03*
X0063385Y0031019D03*
X0061732Y0031019D03*
X0060078Y0031019D03*
X0061732Y0033185D03*
X0060078Y0033185D03*
X0063385Y0033185D03*
X0065039Y0033185D03*
X0066692Y0033185D03*
D68*
X0066692Y0028145D03*
X0060078Y0028145D03*
D69*
X0065255Y0042913D03*
X0062303Y0042913D03*
D70*
X0060688Y0038188D03*
X0066870Y0038188D03*
D71*
X0062055Y0036614D03*
X0065897Y0036614D03*
D67*
X0031929Y0043799D03*
X0030275Y0043799D03*
X0030275Y0045964D03*
X0031929Y0045964D03*
D72*
X0060462Y0042716D03*
D73*
X0060462Y0042716D03*
D72*
X0061289Y0042716D03*
D73*
X0061289Y0042716D03*
D74*
X0061446Y0044488D03*
D75*
X0061446Y0044488D03*
D74*
X0060698Y0044488D03*
D75*
X0060698Y0044488D03*
D76*
X0010629Y0027362D03*
X0018629Y0027362D03*
X0014629Y0033362D03*
X0033629Y0031862D03*
X0033629Y0028862D03*
D72*
X0064645Y0044438D03*
D73*
X0064645Y0044438D03*
D72*
X0065472Y0044438D03*
D73*
X0065472Y0044438D03*
D74*
X0062716Y0044438D03*
D75*
X0062716Y0044438D03*
D74*
X0063464Y0044438D03*
D75*
X0063464Y0044438D03*
D67*
X0007637Y0031019D03*
X0005984Y0031019D03*
X0004330Y0031019D03*
X0002677Y0031019D03*
X0001023Y0031019D03*
X0002677Y0033185D03*
X0001023Y0033185D03*
X0004330Y0033185D03*
X0005984Y0033185D03*
X0007637Y0033185D03*
D68*
X0007637Y0028145D03*
X0001023Y0028145D03*
D77*
X0001574Y0049440D03*
X0004574Y0049440D03*
X0004574Y0047440D03*
X0001574Y0047440D03*
X0058858Y0049440D03*
X0061858Y0049440D03*
X0061858Y0047440D03*
X0058858Y0047440D03*
D78*
X0024606Y0040716D03*
X0024606Y0044716D03*
X0010088Y0044765D03*
X0010088Y0040765D03*
D79*
X0023031Y0047716D03*
X0023031Y0037716D03*
X0011614Y0037716D03*
X0011614Y0047716D03*
D77*
X0063238Y0049440D03*
X0066238Y0049440D03*
X0066238Y0047440D03*
X0063238Y0047440D03*
G04 next file*
G04 EAGLE Gerber RS-274X export*
G75*
G01*
D80*
X0000000Y0051968D02*
X0006661Y0074704D03*
X0010661Y0074704D03*
D81*
X0041929Y0067444D03*
D82*
X0041929Y0064444D03*
D83*
X0049507Y0072224D03*
D84*
X0049507Y0072224D03*
D83*
X0049507Y0071476D03*
D84*
X0049507Y0071476D03*
D85*
X0016165Y0064515D03*
X0016165Y0063433D03*
D86*
X0016165Y0068208D03*
X0016165Y0061909D03*
X0034425Y0068307D03*
X0034425Y0063976D03*
X0034425Y0066141D03*
X0034425Y0061811D03*
D85*
X0016165Y0065602D03*
D83*
X0043799Y0072559D03*
D84*
X0043799Y0072559D03*
D83*
X0043799Y0073307D03*
D84*
X0043799Y0073307D03*
D87*
X0051574Y0062755D03*
X0051574Y0061417D03*
X0055488Y0062755D03*
X0055480Y0061417D03*
X0051574Y0065511D03*
X0051574Y0064173D03*
X0055488Y0065511D03*
X0055480Y0064173D03*
X0051968Y0071614D03*
X0051968Y0070275D03*
X0055881Y0071614D03*
X0055873Y0070275D03*
X0051968Y0074370D03*
X0051968Y0073031D03*
X0055881Y0074370D03*
X0055873Y0073031D03*
D88*
X0021531Y0054043D02*
X0021011Y0054043D01*
X0021011Y0053043D02*
X0021531Y0053043D01*
X0024531Y0053043D02*
X0025051Y0053043D01*
X0025051Y0054043D02*
X0024531Y0054043D01*
D83*
X0041633Y0072755D03*
D84*
X0041633Y0072755D03*
D83*
X0041633Y0073503D03*
D84*
X0041633Y0073503D03*
D89*
X0060078Y0069980D03*
X0061732Y0069980D03*
X0063385Y0069980D03*
X0065039Y0069980D03*
X0066692Y0069980D03*
X0065039Y0067814D03*
X0066692Y0067814D03*
X0063385Y0067814D03*
X0061732Y0067814D03*
X0060078Y0067814D03*
X0007637Y0057003D03*
X0005984Y0057003D03*
X0004330Y0057003D03*
X0002677Y0057003D03*
X0001023Y0057003D03*
X0002677Y0059169D03*
X0001023Y0059169D03*
X0004330Y0059169D03*
X0005984Y0059169D03*
X0007637Y0059169D03*
D90*
X0007637Y0054129D03*
X0001023Y0054129D03*
D89*
X0066692Y0057003D03*
X0065039Y0057003D03*
X0063385Y0057003D03*
X0061732Y0057003D03*
X0060078Y0057003D03*
X0061732Y0059169D03*
X0060078Y0059169D03*
X0063385Y0059169D03*
X0065039Y0059169D03*
X0066692Y0059169D03*
D90*
X0066692Y0054129D03*
X0060078Y0054129D03*
D91*
X0019057Y0070608D03*
X0019057Y0059608D03*
X0032025Y0070608D03*
X0032025Y0059608D03*
D92*
X0017667Y0071643D03*
X0033415Y0071643D03*
X0017667Y0058572D03*
D93*
X0022505Y0059608D03*
X0028576Y0070608D03*
D92*
X0033415Y0058572D03*
D94*
X0001181Y0075047D03*
X0004181Y0075047D03*
X0004181Y0073047D03*
X0001181Y0073047D03*
X0058661Y0075047D03*
X0061661Y0075047D03*
X0061661Y0073047D03*
X0058661Y0073047D03*
D95*
X0048868Y0059202D03*
X0049868Y0059202D03*
X0050868Y0059202D03*
X0051868Y0059202D03*
D96*
X0049868Y0058352D03*
D97*
X0064566Y0054330D03*
X0064566Y0074015D03*
X0035728Y0074015D03*
X0035728Y0054330D03*
X0013385Y0074015D03*
X0013385Y0054330D03*
D98*
X0001181Y0062204D03*
X0001181Y0068464D03*
X0001181Y0064015D03*
X0001181Y0070275D03*
D99*
X0007480Y0061496D03*
D100*
X0007480Y0061496D03*
D99*
X0007480Y0063700D03*
D100*
X0007480Y0063700D03*
D99*
X0007480Y0065039D03*
D100*
X0007480Y0065039D03*
D99*
X0007480Y0067244D03*
D100*
X0007480Y0067244D03*
D99*
X0002755Y0067244D03*
D100*
X0002755Y0067244D03*
D99*
X0002755Y0065039D03*
D100*
X0002755Y0065039D03*
D99*
X0002755Y0063700D03*
D100*
X0002755Y0063700D03*
D99*
X0002755Y0061496D03*
D100*
X0002755Y0061496D03*
D101*
X0045275Y0075590D03*
X0047244Y0073228D03*
X0048818Y0075984D03*
X0050393Y0074803D03*
X0048818Y0071653D03*
X0043700Y0075590D03*
X0042519Y0074015D03*
X0041338Y0075696D03*
G04 next file*
G04 EAGLE Gerber RS-274X export*
G75*
G01*
D102*
X0093700Y0034251D02*
X0077838Y0043074D03*
X0076838Y0043074D03*
X0076838Y0040074D03*
X0077838Y0040074D03*
X0075838Y0043074D03*
X0074838Y0043074D03*
X0075838Y0040074D03*
X0074838Y0040074D03*
D103*
X0069787Y0045319D02*
X0069787Y0045979D01*
X0070787Y0045979D02*
X0070787Y0045319D01*
X0071787Y0045319D02*
X0071787Y0045979D01*
D104*
X0070787Y0052549D03*
D105*
X0077862Y0062129D02*
X0077862Y0062649D01*
X0076862Y0062649D02*
X0076862Y0062129D01*
X0076862Y0059129D02*
X0076862Y0058609D01*
X0077862Y0058609D02*
X0077862Y0059129D01*
D106*
X0088665Y0042283D03*
X0088665Y0040629D03*
X0088665Y0038976D03*
X0088665Y0037322D03*
X0088665Y0035669D03*
X0086500Y0037322D03*
X0086500Y0035669D03*
X0086500Y0038976D03*
X0086500Y0040629D03*
X0086500Y0042283D03*
D107*
X0091539Y0042283D03*
X0091539Y0035669D03*
D106*
X0088665Y0069448D03*
X0088665Y0067795D03*
X0088665Y0066141D03*
X0088665Y0064488D03*
X0088665Y0062834D03*
X0086500Y0064488D03*
X0086500Y0062834D03*
X0086500Y0066141D03*
X0086500Y0067795D03*
X0086500Y0069448D03*
D107*
X0091539Y0069448D03*
X0091539Y0062834D03*
D108*
X0070244Y0055511D03*
X0070244Y0058511D03*
X0072244Y0058511D03*
X0072244Y0055511D03*
X0070244Y0035433D03*
X0070244Y0038433D03*
X0072244Y0038433D03*
X0072244Y0035433D03*
D109*
X0075628Y0068897D02*
X0076513Y0068897D01*
X0070513Y0068897D02*
X0069628Y0068897D01*
D110*
X0084251Y0066141D03*
X0077992Y0066141D03*
X0082440Y0066141D03*
X0076181Y0066141D03*
D103*
X0075102Y0046018D02*
X0075102Y0045358D01*
X0076102Y0045358D02*
X0076102Y0046018D01*
X0077102Y0046018D02*
X0077102Y0045358D01*
D104*
X0076102Y0052588D03*
D103*
X0086322Y0046018D02*
X0086322Y0045358D01*
X0087322Y0045358D02*
X0087322Y0046018D01*
X0088322Y0046018D02*
X0088322Y0045358D01*
D104*
X0087322Y0052588D03*
D103*
X0080535Y0046018D02*
X0080535Y0045358D01*
X0081535Y0045358D02*
X0081535Y0046018D01*
X0082535Y0046018D02*
X0082535Y0045358D01*
D104*
X0081535Y0052588D03*
D111*
X0084704Y0047125D03*
D112*
X0084704Y0047125D03*
D111*
X0085452Y0047125D03*
D112*
X0085452Y0047125D03*
D113*
X0079409Y0045688D03*
D114*
X0079409Y0045688D03*
D113*
X0079409Y0046437D03*
D114*
X0079409Y0046437D03*
D109*
X0076473Y0067440D02*
X0075588Y0067440D01*
X0070473Y0067440D02*
X0069588Y0067440D01*
D115*
X0074921Y0054566D03*
X0080472Y0054685D03*
X0086555Y0054744D03*
X0075393Y0049606D03*
X0076338Y0048661D03*
M02*