%MOIN*%
%OFA0B0*%
%FSLAX34Y34*%
%IPPOS*%
%LPD*%
%AMOC8*
5,1,8,0,0,$1,112.5*%
%AMOC80*
5,1,8,0,0,$1,22.5*%
%AMOC81*
5,1,8,0,0,$1,22.5*%
%AMOC80*
5,1,8,0,0,$1,22.5*%
%AMOC81*
5,1,8,0,0,$1,22.5*%
%AMOC80*
5,1,8,0,0,$1,112.5*%
%ADD10C,0.16548031496062993*%
%ADD11C,0.12611023622047243*%
%ADD12R,0.072960629921259845X0.072960629921259845*%
%ADD13C,0.060000000000000005*%
%ADD14R,0.28359055118110238X0.25406299212598427*%
%ADD15R,0.27559055118110237X0.24606299212598426*%
%ADD16R,0.12611023622047243X0.06705511811023622*%
%ADD17R,0.11811023622047245X0.059055118110236227*%
%ADD18C,0.013740393700787402*%
%ADD19C,0.0058070866141732283*%
%ADD20R,0.11429921259842521X0.11429921259842521*%
%ADD21R,0.047685039370078744X0.047685039370078744*%
%ADD22R,0.0627244094488189X0.04382677165354331*%
%ADD23R,0.054724409448818893X0.03582677165354331*%
%ADD24R,0.045007874015748031X0.0642992125984252*%
%ADD25R,0.037007874015748031X0.0562992125984252*%
%ADD26R,0.0642992125984252X0.045007874015748031*%
%ADD27R,0.0562992125984252X0.037007874015748031*%
%ADD28R,0.0847716535433071X0.0847716535433071*%
%ADD29C,0.037779527559055122*%
%ADD40C,0.116*%
%ADD41C,0.168*%
%ADD42C,0.11252755905511812*%
%ADD43R,0.11252755905511812X0.11252755905511812*%
%ADD44C,0.12571653543307088*%
%ADD45C,0.135*%
%ADD46C,0.1265*%
%ADD47C,0.20485039370078742*%
%ADD48C,0.113*%
%ADD49R,0.090677165354330708X0.090677165354330708*%
%ADD50C,0.12611023622047243*%
%ADD51C,0.065086614173228349*%
%ADD52C,0.090677165354330708*%
%ADD53C,0.0642992125984252*%
%ADD54R,0.083X0.083*%
%ADD55R,0.12050000000000001X0.12050000000000001*%
%ADD56C,0.16548031496062993*%
%ADD57R,0.148X0.148*%
%ADD58C,0.037779527559055122*%
%ADD59C,0.20485039370078742*%
%ADD60C,0.113*%
%ADD61R,0.090677165354330708X0.090677165354330708*%
%ADD62C,0.12611023622047243*%
%ADD63C,0.065086614173228349*%
%ADD64C,0.090677165354330708*%
%ADD65C,0.0642992125984252*%
%ADD66R,0.083X0.083*%
%ADD67R,0.12050000000000001X0.12050000000000001*%
%ADD68C,0.16548031496062993*%
%ADD69R,0.148X0.148*%
%ADD70R,0.063118110236220479X0.047370078740157487*%
%ADD71R,0.055118110236220472X0.03937007874015748*%
%ADD72R,0.06705511811023622X0.059181102362204731*%
%ADD73R,0.059055118110236227X0.051181102362204731*%
%ADD74R,0.029653543307086614X0.055244094488188983*%
%ADD75R,0.021653543307086617X0.047244094488188976*%
%ADD76R,0.059181102362204731X0.06705511811023622*%
%ADD77R,0.051181102362204731X0.059055118110236227*%
%ADD78R,0.13201574803149607X0.50012598425196853*%
%ADD79R,0.12401574803149606X0.49212598425196852*%
%ADD80R,0.40170078740157483X0.12020472440944882*%
%ADD81R,0.39370078740157483X0.11220472440944883*%
%ADD82R,0.29264566929133862X0.22847244094488192*%
%ADD83R,0.28464566929133861X0.22047244094488189*%
%ADD84C,0.16548031496062993*%
%ADD85C,0.132*%
%ADD86P,0.1428754724409449X8X292.5*%
%ADD87R,0.036346456692913386X0.024141732283464567*%
%ADD88R,0.028346456692913385X0.016141732283464567*%
%ADD89R,0.168X0.228*%
%ADD90R,0.16X0.22000000000000003*%
%ADD91R,0.055244094488188983X0.055244094488188983*%
%ADD92R,0.047244094488188976X0.047244094488188976*%
%ADD93C,0.097763779527559061*%
%ADD94C,0.12788188976377954*%
%ADD95R,0.10248818897637797X0.10248818897637797*%
%ADD96C,0.060000000000000005*%
%ADD97R,0.078866141732283471X0.11429921259842521*%
%ADD98R,0.070866141732283464X0.10629921259842522*%
%ADD99R,0.090677165354330708X0.090677165354330708*%
%ADD100C,0.12611023622047243*%
%ADD101C,0.133*%
%ADD102C,0.12729133858267719*%
%ADD103C,0.0879212598425197*%
%ADD104R,0.12050000000000001X0.12050000000000001*%
%ADD105R,0.070007874015748039X0.070007874015748039*%
%ADD106C,0.057212598425196853*%
%ADD107C,0.17335433070866144*%
%ADD108R,0.0847716535433071X0.0847716535433071*%
%ADD109C,0.037779527559055122*%
%ADD110R,0.059181102362204731X0.06705511811023622*%
%ADD111R,0.051181102362204731X0.059055118110236227*%
%ADD112R,0.06705511811023622X0.059181102362204731*%
%ADD113R,0.059055118110236227X0.051181102362204731*%
%ADD114C,0.072000000000000008*%
%ADD115C,0.074*%
%ADD116C,0.138*%
%ADD117C,0.060000000000000005*%
%ADD118R,0.075633858267716542X0.046342519685039371*%
%ADD119R,0.067633858267716535X0.038342519685039371*%
%ADD120R,0.28362598425196855X0.22626377952755905*%
%ADD121R,0.27562598425196849X0.21826377952755907*%
%ADD122R,0.078866141732283471X0.11429921259842521*%
%ADD123R,0.070866141732283464X0.10629921259842522*%
%ADD124R,0.22847244094488192X0.29264566929133862*%
%ADD125R,0.22047244094488189X0.28464566929133861*%
%ADD126R,0.090677165354330708X0.090677165354330708*%
%ADD127C,0.12611023622047243*%
%ADD128R,0.12050000000000001X0.12050000000000001*%
%ADD129R,0.055244094488188983X0.055244094488188983*%
%ADD130R,0.047244094488188976X0.047244094488188976*%
%ADD131C,0.0965*%
%ADD132R,0.0847716535433071X0.0847716535433071*%
%ADD133C,0.037779527559055122*%
G75*
G01*
D10*
X0123622Y0034251D02*
X0097637Y0036948D03*
X0120472Y0036948D03*
X0097637Y0069035D03*
X0120472Y0069035D03*
D11*
X0098377Y0066080D03*
X0114951Y0065830D03*
D12*
X0105748Y0044481D03*
X0107748Y0044481D03*
X0108748Y0044481D03*
X0109748Y0044481D03*
X0109748Y0046481D03*
X0108748Y0046481D03*
X0107748Y0046481D03*
X0105748Y0046481D03*
X0110748Y0044481D03*
X0110748Y0046481D03*
D13*
X0100740Y0048194D02*
X0100220Y0048194D01*
X0100220Y0049194D02*
X0100740Y0049194D01*
X0100740Y0054194D02*
X0100220Y0054194D01*
X0097740Y0054194D02*
X0097220Y0054194D01*
X0100220Y0050194D02*
X0100740Y0050194D01*
X0100740Y0051194D02*
X0100220Y0051194D01*
X0100220Y0053194D02*
X0100740Y0053194D01*
X0100740Y0052194D02*
X0100220Y0052194D01*
X0097740Y0053194D02*
X0097220Y0053194D01*
X0097220Y0052194D02*
X0097740Y0052194D01*
X0097740Y0051194D02*
X0097220Y0051194D01*
X0097220Y0050194D02*
X0097740Y0050194D01*
X0097740Y0049194D02*
X0097220Y0049194D01*
X0097220Y0048194D02*
X0097740Y0048194D01*
X0106028Y0048144D02*
X0106548Y0048144D01*
X0106548Y0049144D02*
X0106028Y0049144D01*
X0106028Y0054144D02*
X0106548Y0054144D01*
X0103548Y0054144D02*
X0103028Y0054144D01*
X0106028Y0050144D02*
X0106548Y0050144D01*
X0106548Y0051144D02*
X0106028Y0051144D01*
X0106028Y0053144D02*
X0106548Y0053144D01*
X0106548Y0052144D02*
X0106028Y0052144D01*
X0103548Y0053144D02*
X0103028Y0053144D01*
X0103028Y0052144D02*
X0103548Y0052144D01*
X0103548Y0051144D02*
X0103028Y0051144D01*
X0103028Y0050144D02*
X0103548Y0050144D01*
X0103548Y0049144D02*
X0103028Y0049144D01*
X0103028Y0048144D02*
X0103548Y0048144D01*
X0115563Y0047695D02*
X0116083Y0047695D01*
X0116083Y0048695D02*
X0115563Y0048695D01*
X0113083Y0048695D02*
X0112563Y0048695D01*
X0112563Y0047695D02*
X0113083Y0047695D01*
X0115563Y0049695D02*
X0116083Y0049695D01*
X0116083Y0050695D02*
X0115563Y0050695D01*
X0113083Y0049695D02*
X0112563Y0049695D01*
X0112563Y0050695D02*
X0113083Y0050695D01*
X0111237Y0048194D02*
X0110717Y0048194D01*
X0110717Y0049194D02*
X0111237Y0049194D01*
X0111237Y0054194D02*
X0110717Y0054194D01*
X0108237Y0054194D02*
X0107717Y0054194D01*
X0110717Y0050194D02*
X0111237Y0050194D01*
X0111237Y0051194D02*
X0110717Y0051194D01*
X0110717Y0053194D02*
X0111237Y0053194D01*
X0111237Y0052194D02*
X0110717Y0052194D01*
X0108237Y0053194D02*
X0107717Y0053194D01*
X0107717Y0052194D02*
X0108237Y0052194D01*
X0108237Y0051194D02*
X0107717Y0051194D01*
X0107717Y0050194D02*
X0108237Y0050194D01*
X0108237Y0049194D02*
X0107717Y0049194D01*
X0107717Y0048194D02*
X0108237Y0048194D01*
D11*
X0120552Y0065620D03*
D14*
X0097172Y0045151D03*
D15*
X0097172Y0045151D03*
D16*
X0099770Y0044251D03*
D17*
X0099770Y0044251D03*
D16*
X0099770Y0046049D03*
D17*
X0099770Y0046049D03*
D18*
X0121209Y0043886D02*
X0121209Y0043168D01*
X0121034Y0043168D01*
X0121034Y0043886D01*
X0121209Y0043886D01*
X0121078Y0043886D02*
X0121078Y0043168D01*
D19*
X0121209Y0043168D02*
X0121209Y0043886D01*
X0121209Y0043168D02*
X0121034Y0043168D01*
X0121034Y0043886D01*
X0121209Y0043886D01*
X0121154Y0043886D02*
X0121154Y0043168D01*
X0121098Y0043168D02*
X0121098Y0043886D01*
X0121043Y0043886D02*
X0121043Y0043168D01*
D18*
X0121709Y0043168D02*
X0121709Y0043886D01*
X0121709Y0043168D02*
X0121534Y0043168D01*
X0121534Y0043886D01*
X0121709Y0043886D01*
X0121578Y0043886D02*
X0121578Y0043168D01*
D19*
X0121709Y0043168D02*
X0121709Y0043886D01*
X0121709Y0043168D02*
X0121534Y0043168D01*
X0121534Y0043886D01*
X0121709Y0043886D01*
X0121654Y0043886D02*
X0121654Y0043168D01*
X0121598Y0043168D02*
X0121598Y0043886D01*
X0121543Y0043886D02*
X0121543Y0043168D01*
D18*
X0122209Y0043168D02*
X0122209Y0043886D01*
X0122209Y0043168D02*
X0122034Y0043168D01*
X0122034Y0043886D01*
X0122209Y0043886D01*
X0122078Y0043886D02*
X0122078Y0043168D01*
D19*
X0122209Y0043168D02*
X0122209Y0043886D01*
X0122209Y0043168D02*
X0122034Y0043168D01*
X0122034Y0043886D01*
X0122209Y0043886D01*
X0122154Y0043886D02*
X0122154Y0043168D01*
X0122098Y0043168D02*
X0122098Y0043886D01*
X0122043Y0043886D02*
X0122043Y0043168D01*
D18*
X0122709Y0043168D02*
X0122709Y0043886D01*
X0122709Y0043168D02*
X0122534Y0043168D01*
X0122534Y0043886D01*
X0122709Y0043886D01*
X0122578Y0043886D02*
X0122578Y0043168D01*
D19*
X0122709Y0043168D02*
X0122709Y0043886D01*
X0122709Y0043168D02*
X0122534Y0043168D01*
X0122534Y0043886D01*
X0122709Y0043886D01*
X0122654Y0043886D02*
X0122654Y0043168D01*
X0122598Y0043168D02*
X0122598Y0043886D01*
X0122543Y0043886D02*
X0122543Y0043168D01*
D18*
X0122709Y0045117D02*
X0122709Y0045835D01*
X0122709Y0045117D02*
X0122534Y0045117D01*
X0122534Y0045835D01*
X0122709Y0045835D01*
X0122578Y0045835D02*
X0122578Y0045117D01*
D19*
X0122709Y0045117D02*
X0122709Y0045835D01*
X0122709Y0045117D02*
X0122534Y0045117D01*
X0122534Y0045835D01*
X0122709Y0045835D01*
X0122654Y0045835D02*
X0122654Y0045117D01*
X0122598Y0045117D02*
X0122598Y0045835D01*
X0122543Y0045835D02*
X0122543Y0045117D01*
D18*
X0122209Y0045117D02*
X0122209Y0045835D01*
X0122209Y0045117D02*
X0122034Y0045117D01*
X0122034Y0045835D01*
X0122209Y0045835D01*
X0122078Y0045835D02*
X0122078Y0045117D01*
D19*
X0122209Y0045117D02*
X0122209Y0045835D01*
X0122209Y0045117D02*
X0122034Y0045117D01*
X0122034Y0045835D01*
X0122209Y0045835D01*
X0122154Y0045835D02*
X0122154Y0045117D01*
X0122098Y0045117D02*
X0122098Y0045835D01*
X0122043Y0045835D02*
X0122043Y0045117D01*
D18*
X0121709Y0045117D02*
X0121709Y0045835D01*
X0121709Y0045117D02*
X0121534Y0045117D01*
X0121534Y0045835D01*
X0121709Y0045835D01*
X0121578Y0045835D02*
X0121578Y0045117D01*
D19*
X0121709Y0045117D02*
X0121709Y0045835D01*
X0121709Y0045117D02*
X0121534Y0045117D01*
X0121534Y0045835D01*
X0121709Y0045835D01*
X0121654Y0045835D02*
X0121654Y0045117D01*
X0121598Y0045117D02*
X0121598Y0045835D01*
X0121543Y0045835D02*
X0121543Y0045117D01*
D18*
X0121209Y0045117D02*
X0121209Y0045835D01*
X0121209Y0045117D02*
X0121034Y0045117D01*
X0121034Y0045835D01*
X0121209Y0045835D01*
X0121078Y0045835D02*
X0121078Y0045117D01*
D19*
X0121209Y0045117D02*
X0121209Y0045835D01*
X0121209Y0045117D02*
X0121034Y0045117D01*
X0121034Y0045835D01*
X0121209Y0045835D01*
X0121154Y0045835D02*
X0121154Y0045117D01*
X0121098Y0045117D02*
X0121098Y0045835D01*
X0121043Y0045835D02*
X0121043Y0045117D01*
D18*
X0117859Y0043786D02*
X0117859Y0043068D01*
X0117684Y0043068D01*
X0117684Y0043786D01*
X0117859Y0043786D01*
X0117728Y0043786D02*
X0117728Y0043068D01*
D19*
X0117859Y0043068D02*
X0117859Y0043786D01*
X0117859Y0043068D02*
X0117684Y0043068D01*
X0117684Y0043786D01*
X0117859Y0043786D01*
X0117804Y0043786D02*
X0117804Y0043068D01*
X0117748Y0043068D02*
X0117748Y0043786D01*
X0117693Y0043786D02*
X0117693Y0043068D01*
D18*
X0118359Y0043068D02*
X0118359Y0043786D01*
X0118359Y0043068D02*
X0118184Y0043068D01*
X0118184Y0043786D01*
X0118359Y0043786D01*
X0118228Y0043786D02*
X0118228Y0043068D01*
D19*
X0118359Y0043068D02*
X0118359Y0043786D01*
X0118359Y0043068D02*
X0118184Y0043068D01*
X0118184Y0043786D01*
X0118359Y0043786D01*
X0118304Y0043786D02*
X0118304Y0043068D01*
X0118248Y0043068D02*
X0118248Y0043786D01*
X0118193Y0043786D02*
X0118193Y0043068D01*
D18*
X0118859Y0043068D02*
X0118859Y0043786D01*
X0118859Y0043068D02*
X0118684Y0043068D01*
X0118684Y0043786D01*
X0118859Y0043786D01*
X0118728Y0043786D02*
X0118728Y0043068D01*
D19*
X0118859Y0043068D02*
X0118859Y0043786D01*
X0118859Y0043068D02*
X0118684Y0043068D01*
X0118684Y0043786D01*
X0118859Y0043786D01*
X0118804Y0043786D02*
X0118804Y0043068D01*
X0118748Y0043068D02*
X0118748Y0043786D01*
X0118693Y0043786D02*
X0118693Y0043068D01*
D18*
X0119359Y0043068D02*
X0119359Y0043786D01*
X0119359Y0043068D02*
X0119184Y0043068D01*
X0119184Y0043786D01*
X0119359Y0043786D01*
X0119228Y0043786D02*
X0119228Y0043068D01*
D19*
X0119359Y0043068D02*
X0119359Y0043786D01*
X0119359Y0043068D02*
X0119184Y0043068D01*
X0119184Y0043786D01*
X0119359Y0043786D01*
X0119304Y0043786D02*
X0119304Y0043068D01*
X0119248Y0043068D02*
X0119248Y0043786D01*
X0119193Y0043786D02*
X0119193Y0043068D01*
D18*
X0119359Y0045017D02*
X0119359Y0045735D01*
X0119359Y0045017D02*
X0119184Y0045017D01*
X0119184Y0045735D01*
X0119359Y0045735D01*
X0119228Y0045735D02*
X0119228Y0045017D01*
D19*
X0119359Y0045017D02*
X0119359Y0045735D01*
X0119359Y0045017D02*
X0119184Y0045017D01*
X0119184Y0045735D01*
X0119359Y0045735D01*
X0119304Y0045735D02*
X0119304Y0045017D01*
X0119248Y0045017D02*
X0119248Y0045735D01*
X0119193Y0045735D02*
X0119193Y0045017D01*
D18*
X0118859Y0045017D02*
X0118859Y0045735D01*
X0118859Y0045017D02*
X0118684Y0045017D01*
X0118684Y0045735D01*
X0118859Y0045735D01*
X0118728Y0045735D02*
X0118728Y0045017D01*
D19*
X0118859Y0045017D02*
X0118859Y0045735D01*
X0118859Y0045017D02*
X0118684Y0045017D01*
X0118684Y0045735D01*
X0118859Y0045735D01*
X0118804Y0045735D02*
X0118804Y0045017D01*
X0118748Y0045017D02*
X0118748Y0045735D01*
X0118693Y0045735D02*
X0118693Y0045017D01*
D18*
X0118359Y0045017D02*
X0118359Y0045735D01*
X0118359Y0045017D02*
X0118184Y0045017D01*
X0118184Y0045735D01*
X0118359Y0045735D01*
X0118228Y0045735D02*
X0118228Y0045017D01*
D19*
X0118359Y0045017D02*
X0118359Y0045735D01*
X0118359Y0045017D02*
X0118184Y0045017D01*
X0118184Y0045735D01*
X0118359Y0045735D01*
X0118304Y0045735D02*
X0118304Y0045017D01*
X0118248Y0045017D02*
X0118248Y0045735D01*
X0118193Y0045735D02*
X0118193Y0045017D01*
D18*
X0117859Y0045017D02*
X0117859Y0045735D01*
X0117859Y0045017D02*
X0117684Y0045017D01*
X0117684Y0045735D01*
X0117859Y0045735D01*
X0117728Y0045735D02*
X0117728Y0045017D01*
D19*
X0117859Y0045017D02*
X0117859Y0045735D01*
X0117859Y0045017D02*
X0117684Y0045017D01*
X0117684Y0045735D01*
X0117859Y0045735D01*
X0117804Y0045735D02*
X0117804Y0045017D01*
X0117748Y0045017D02*
X0117748Y0045735D01*
X0117693Y0045735D02*
X0117693Y0045017D01*
D11*
X0114185Y0036712D03*
X0117492Y0036712D03*
D20*
X0114185Y0039586D03*
X0115838Y0039586D03*
X0117492Y0039586D03*
D11*
X0107285Y0036712D03*
X0110592Y0036712D03*
D20*
X0107285Y0039586D03*
X0108938Y0039586D03*
X0110592Y0039586D03*
X0103709Y0039785D03*
X0102055Y0039785D03*
X0100401Y0039785D03*
X0103709Y0041950D03*
X0102055Y0041950D03*
X0100401Y0041950D03*
D21*
X0105922Y0042601D03*
X0106922Y0042601D03*
D22*
X0121022Y0046979D03*
D23*
X0121022Y0046979D03*
D22*
X0121022Y0047624D03*
D23*
X0121022Y0047624D03*
D24*
X0122444Y0042351D03*
D25*
X0122444Y0042351D03*
D24*
X0121799Y0042351D03*
D25*
X0121799Y0042351D03*
D26*
X0122272Y0046979D03*
D27*
X0122272Y0046979D03*
D26*
X0122272Y0047624D03*
D27*
X0122272Y0047624D03*
D24*
X0119294Y0042301D03*
D25*
X0119294Y0042301D03*
D24*
X0118649Y0042301D03*
D25*
X0118649Y0042301D03*
D26*
X0118822Y0046879D03*
D27*
X0118822Y0046879D03*
D26*
X0118822Y0047524D03*
D27*
X0118822Y0047524D03*
D22*
X0117522Y0046879D03*
D23*
X0117522Y0046879D03*
D22*
X0117522Y0047524D03*
D23*
X0117522Y0047524D03*
D10*
X0112322Y0059901D03*
D28*
X0112322Y0061870D03*
X0111337Y0057933D03*
X0113306Y0057933D03*
D10*
X0103472Y0059801D03*
D28*
X0103472Y0061770D03*
X0102487Y0057833D03*
X0104456Y0057833D03*
D10*
X0107972Y0059951D03*
D28*
X0107972Y0061920D03*
X0106987Y0057983D03*
X0108956Y0057983D03*
D10*
X0098822Y0059651D03*
D28*
X0098822Y0061620D03*
X0097837Y0057683D03*
X0099806Y0057683D03*
D10*
X0121622Y0059851D03*
D28*
X0121622Y0061820D03*
X0120637Y0057883D03*
X0122606Y0057883D03*
D10*
X0116772Y0059751D03*
D28*
X0116772Y0061720D03*
X0115787Y0057783D03*
X0117756Y0057783D03*
D11*
X0103922Y0065901D03*
X0109572Y0065851D03*
D29*
X0116122Y0045051D03*
X0098772Y0040251D03*
X0117522Y0042251D03*
X0121072Y0042351D03*
X0101172Y0044251D03*
X0118822Y0048451D03*
X0122322Y0048501D03*
X0113772Y0049451D03*
X0115372Y0043601D03*
X0112072Y0043601D03*
X0119922Y0045401D03*
X0115322Y0044001D03*
X0112072Y0044001D03*
X0122622Y0046301D03*
X0104822Y0050101D03*
X0114296Y0046576D03*
G04 next file*
G04 EAGLE Gerber RS-274X export*
G75*
G01*
D40*
X0068503Y0000000D02*
X0096397Y0021501D03*
X0092807Y0021501D03*
X0096397Y0019751D03*
X0092807Y0019751D03*
D41*
X0098807Y0024031D03*
X0090407Y0024031D03*
X0090407Y0017221D03*
X0098807Y0017221D03*
D42*
X0115665Y0020444D03*
D43*
X0115665Y0022196D03*
D42*
X0112074Y0020444D03*
X0112074Y0022196D03*
X0115665Y0018692D03*
X0112074Y0018692D03*
D44*
X0109669Y0016165D03*
X0109669Y0024724D03*
X0118070Y0024724D03*
X0118070Y0016165D03*
D40*
X0080362Y0022510D03*
X0080362Y0020800D03*
X0080362Y0019090D03*
D45*
X0080362Y0016980D03*
X0080362Y0024620D03*
D46*
X0075200Y0003336D02*
X0075200Y0002151D01*
X0078893Y0002151D02*
X0078893Y0003336D01*
X0103846Y0003336D02*
X0103846Y0002151D01*
X0111082Y0002151D02*
X0111082Y0003336D01*
X0115562Y0003336D02*
X0115562Y0002151D01*
X0107838Y0002151D02*
X0107838Y0003336D01*
X0118618Y0003336D02*
X0118618Y0002151D01*
G04 next file*
G04 EAGLE Gerber RS-274X export*
G75*
G01*
D47*
X0000000Y0000000D02*
X0031889Y0021456D03*
X0037795Y0021456D03*
D48*
X0018577Y0005153D03*
X0021777Y0005153D03*
X0016877Y0020053D03*
X0023477Y0020053D03*
D47*
X0011515Y0023263D03*
X0028838Y0023263D03*
X0011515Y0002003D03*
X0028838Y0002003D03*
D49*
X0007637Y0005035D03*
X0005984Y0005035D03*
X0004330Y0005035D03*
X0002677Y0005035D03*
X0001023Y0005035D03*
X0002677Y0007200D03*
X0001023Y0007200D03*
X0004330Y0007200D03*
X0005984Y0007200D03*
X0007637Y0007200D03*
D50*
X0007637Y0002161D03*
X0001023Y0002161D03*
D51*
X0005413Y0016732D03*
X0002460Y0016732D03*
D52*
X0007027Y0012007D03*
X0000846Y0012007D03*
D53*
X0005070Y0010433D03*
X0001228Y0010433D03*
D49*
X0035669Y0019586D03*
X0034015Y0019586D03*
X0034015Y0021751D03*
X0035669Y0021751D03*
D54*
X0056692Y0007283D03*
X0048692Y0007283D03*
X0052692Y0001283D03*
X0033692Y0002783D03*
X0033692Y0005783D03*
D49*
X0066692Y0005035D03*
X0065039Y0005035D03*
X0063385Y0005035D03*
X0061732Y0005035D03*
X0060078Y0005035D03*
X0061732Y0007200D03*
X0060078Y0007200D03*
X0063385Y0007200D03*
X0065039Y0007200D03*
X0066692Y0007200D03*
D50*
X0066692Y0002161D03*
X0060078Y0002161D03*
D55*
X0001181Y0023456D03*
X0004181Y0023456D03*
X0004181Y0021456D03*
X0001181Y0021456D03*
X0063385Y0023456D03*
X0066385Y0023456D03*
X0066385Y0021456D03*
X0063385Y0021456D03*
D56*
X0056889Y0014929D03*
X0056889Y0018929D03*
X0042716Y0018929D03*
X0042716Y0014929D03*
D57*
X0044094Y0021929D03*
X0044094Y0011929D03*
X0055511Y0011929D03*
X0055511Y0021929D03*
D58*
X0003149Y0015944D03*
G04 next file*
G04 EAGLE Gerber RS-274X export*
G75*
G01*
D59*
X0000000Y0025984D02*
X0029330Y0048769D03*
X0033513Y0048720D03*
D60*
X0049090Y0046127D03*
X0045890Y0046127D03*
X0050790Y0031227D03*
X0044190Y0031227D03*
D59*
X0056151Y0028017D03*
X0038828Y0028017D03*
X0056151Y0049277D03*
X0038828Y0049277D03*
D61*
X0066692Y0031019D03*
X0065039Y0031019D03*
X0063385Y0031019D03*
X0061732Y0031019D03*
X0060078Y0031019D03*
X0061732Y0033185D03*
X0060078Y0033185D03*
X0063385Y0033185D03*
X0065039Y0033185D03*
X0066692Y0033185D03*
D62*
X0066692Y0028145D03*
X0060078Y0028145D03*
D63*
X0065255Y0042913D03*
X0062303Y0042913D03*
D64*
X0060688Y0038188D03*
X0066870Y0038188D03*
D65*
X0062055Y0036614D03*
X0065897Y0036614D03*
D61*
X0031929Y0043799D03*
X0030275Y0043799D03*
X0030275Y0045964D03*
X0031929Y0045964D03*
D66*
X0010629Y0027362D03*
X0018629Y0027362D03*
X0014629Y0033362D03*
X0033629Y0031862D03*
X0033629Y0028862D03*
D61*
X0007637Y0031019D03*
X0005984Y0031019D03*
X0004330Y0031019D03*
X0002677Y0031019D03*
X0001023Y0031019D03*
X0002677Y0033185D03*
X0001023Y0033185D03*
X0004330Y0033185D03*
X0005984Y0033185D03*
X0007637Y0033185D03*
D62*
X0007637Y0028145D03*
X0001023Y0028145D03*
D67*
X0001574Y0049440D03*
X0004574Y0049440D03*
X0004574Y0047440D03*
X0001574Y0047440D03*
X0058858Y0049440D03*
X0061858Y0049440D03*
X0061858Y0047440D03*
X0058858Y0047440D03*
D68*
X0024606Y0040716D03*
X0024606Y0044716D03*
X0010088Y0044765D03*
X0010088Y0040765D03*
D69*
X0023031Y0047716D03*
X0023031Y0037716D03*
X0011614Y0037716D03*
X0011614Y0047716D03*
D67*
X0063238Y0049440D03*
X0066238Y0049440D03*
X0066238Y0047440D03*
X0063238Y0047440D03*
G04 next file*
G04 EAGLE Gerber RS-274X export*
G75*
G01*
D70*
X0000000Y0051968D02*
X0045925Y0074192D03*
D71*
X0045925Y0074192D03*
D70*
X0045925Y0074940D03*
D71*
X0045925Y0074940D03*
D70*
X0045059Y0074566D03*
D71*
X0045059Y0074566D03*
D72*
X0047066Y0074940D03*
D73*
X0047066Y0074940D03*
D72*
X0047066Y0074192D03*
D73*
X0047066Y0074192D03*
D74*
X0048937Y0075442D03*
D75*
X0048937Y0075442D03*
D74*
X0048562Y0075442D03*
D75*
X0048562Y0075442D03*
D74*
X0048188Y0075442D03*
D75*
X0048188Y0075442D03*
D74*
X0048188Y0074419D03*
D75*
X0048188Y0074419D03*
D74*
X0048937Y0074419D03*
D75*
X0048937Y0074419D03*
D76*
X0047933Y0073070D03*
D77*
X0047933Y0073070D03*
D76*
X0048681Y0073070D03*
D77*
X0048681Y0073070D03*
D78*
X0006230Y0069980D03*
D79*
X0006230Y0069980D03*
D78*
X0012273Y0069980D03*
D79*
X0012273Y0069980D03*
D80*
X0011614Y0065127D03*
D81*
X0011614Y0065127D03*
D80*
X0011614Y0062037D03*
D81*
X0011614Y0062037D03*
D80*
X0007283Y0065127D03*
D81*
X0007283Y0065127D03*
D80*
X0007283Y0062037D03*
D81*
X0007283Y0062037D03*
D82*
X0003248Y0064763D03*
D83*
X0003248Y0064763D03*
D82*
X0003248Y0068897D03*
D83*
X0003248Y0068897D03*
D84*
X0006661Y0074704D03*
X0010661Y0074704D03*
D85*
X0041929Y0067444D03*
D86*
X0041929Y0064444D03*
D76*
X0046515Y0073051D03*
D77*
X0046515Y0073051D03*
D76*
X0045767Y0073051D03*
D77*
X0045767Y0073051D03*
D76*
X0045649Y0071535D03*
D77*
X0045649Y0071535D03*
D76*
X0046397Y0071535D03*
D77*
X0046397Y0071535D03*
D87*
X0046076Y0064086D03*
D88*
X0046076Y0064086D03*
D87*
X0046076Y0063586D03*
D88*
X0046076Y0063586D03*
D87*
X0046076Y0063086D03*
D88*
X0046076Y0063086D03*
D87*
X0046076Y0062586D03*
D88*
X0046076Y0062586D03*
D89*
X0047570Y0063336D03*
D90*
X0047570Y0063336D03*
D87*
X0046076Y0067039D03*
D88*
X0046076Y0067039D03*
D87*
X0046076Y0066539D03*
D88*
X0046076Y0066539D03*
D87*
X0046076Y0066039D03*
D88*
X0046076Y0066039D03*
D87*
X0046076Y0065539D03*
D88*
X0046076Y0065539D03*
D89*
X0047570Y0066289D03*
D90*
X0047570Y0066289D03*
D87*
X0046076Y0070041D03*
D88*
X0046076Y0070041D03*
D87*
X0046076Y0069541D03*
D88*
X0046076Y0069541D03*
D87*
X0046076Y0069041D03*
D88*
X0046076Y0069041D03*
D87*
X0046076Y0068541D03*
D88*
X0046076Y0068541D03*
D89*
X0047570Y0069291D03*
D90*
X0047570Y0069291D03*
D91*
X0049950Y0072263D03*
D92*
X0049950Y0072263D03*
D91*
X0049950Y0071437D03*
D92*
X0049950Y0071437D03*
D93*
X0016165Y0064515D03*
X0016165Y0063433D03*
D94*
X0016165Y0068208D03*
X0016165Y0061909D03*
X0034425Y0068307D03*
X0034425Y0063976D03*
X0034425Y0066141D03*
X0034425Y0061811D03*
D93*
X0016165Y0065602D03*
D91*
X0044114Y0074803D03*
D92*
X0044114Y0074803D03*
D91*
X0043287Y0074803D03*
D92*
X0043287Y0074803D03*
D95*
X0051574Y0062755D03*
X0051574Y0061417D03*
X0055488Y0062755D03*
X0055480Y0061417D03*
X0051574Y0065511D03*
X0051574Y0064173D03*
X0055488Y0065511D03*
X0055480Y0064173D03*
X0051968Y0071614D03*
X0051968Y0070275D03*
X0055881Y0071614D03*
X0055873Y0070275D03*
X0051968Y0074370D03*
X0051968Y0073031D03*
X0055881Y0074370D03*
X0055873Y0073031D03*
D96*
X0021531Y0054043D02*
X0021011Y0054043D01*
X0021011Y0053043D02*
X0021531Y0053043D01*
X0024531Y0053043D02*
X0025051Y0053043D01*
X0025051Y0054043D02*
X0024531Y0054043D01*
D97*
X0017696Y0054625D03*
D98*
X0017696Y0054625D03*
D97*
X0015964Y0054625D03*
D98*
X0015964Y0054625D03*
D91*
X0042145Y0074803D03*
D92*
X0042145Y0074803D03*
D91*
X0041318Y0074803D03*
D92*
X0041318Y0074803D03*
D99*
X0060078Y0069980D03*
X0061732Y0069980D03*
X0063385Y0069980D03*
X0065039Y0069980D03*
X0066692Y0069980D03*
X0065039Y0067814D03*
X0066692Y0067814D03*
X0063385Y0067814D03*
X0061732Y0067814D03*
X0060078Y0067814D03*
X0007637Y0057003D03*
X0005984Y0057003D03*
X0004330Y0057003D03*
X0002677Y0057003D03*
X0001023Y0057003D03*
X0002677Y0059169D03*
X0001023Y0059169D03*
X0004330Y0059169D03*
X0005984Y0059169D03*
X0007637Y0059169D03*
D100*
X0007637Y0054129D03*
X0001023Y0054129D03*
D99*
X0066692Y0057003D03*
X0065039Y0057003D03*
X0063385Y0057003D03*
X0061732Y0057003D03*
X0060078Y0057003D03*
X0061732Y0059169D03*
X0060078Y0059169D03*
X0063385Y0059169D03*
X0065039Y0059169D03*
X0066692Y0059169D03*
D100*
X0066692Y0054129D03*
X0060078Y0054129D03*
D101*
X0019057Y0070608D03*
X0019057Y0059608D03*
X0032025Y0070608D03*
X0032025Y0059608D03*
D102*
X0017667Y0071643D03*
X0033415Y0071643D03*
X0017667Y0058572D03*
D103*
X0022505Y0059608D03*
X0028576Y0070608D03*
D102*
X0033415Y0058572D03*
D104*
X0001181Y0075047D03*
X0004181Y0075047D03*
X0004181Y0073047D03*
X0001181Y0073047D03*
X0058661Y0075047D03*
X0061661Y0075047D03*
X0061661Y0073047D03*
X0058661Y0073047D03*
D105*
X0048868Y0059202D03*
X0049868Y0059202D03*
X0050868Y0059202D03*
X0051868Y0059202D03*
D106*
X0049868Y0058352D03*
D107*
X0064566Y0054330D03*
X0064566Y0074015D03*
X0035728Y0074015D03*
X0035728Y0054330D03*
X0013385Y0074015D03*
X0013385Y0054330D03*
D108*
X0001181Y0062204D03*
X0001181Y0068464D03*
X0001181Y0064015D03*
X0001181Y0070275D03*
D91*
X0011397Y0055610D03*
D92*
X0011397Y0055610D03*
D91*
X0012224Y0055610D03*
D92*
X0012224Y0055610D03*
D76*
X0009468Y0055610D03*
D77*
X0009468Y0055610D03*
D76*
X0010216Y0055610D03*
D77*
X0010216Y0055610D03*
D72*
X0047391Y0071525D03*
D73*
X0047391Y0071525D03*
D72*
X0047391Y0072273D03*
D73*
X0047391Y0072273D03*
D109*
X0045275Y0075590D03*
X0047244Y0073228D03*
X0048818Y0075984D03*
X0050393Y0074803D03*
X0048818Y0071653D03*
X0043700Y0075590D03*
X0042519Y0074015D03*
X0041338Y0075696D03*
G04 next file*
G04 EAGLE Gerber RS-274X export*
G75*
G01*
D110*
X0093700Y0034251D02*
X0074389Y0044232D03*
D111*
X0074389Y0044232D03*
D110*
X0073641Y0044232D03*
D111*
X0073641Y0044232D03*
D110*
X0076240Y0044232D03*
D111*
X0076240Y0044232D03*
D110*
X0075492Y0044232D03*
D111*
X0075492Y0044232D03*
D112*
X0078543Y0038366D03*
D113*
X0078543Y0038366D03*
D112*
X0078543Y0039114D03*
D113*
X0078543Y0039114D03*
D112*
X0077125Y0038366D03*
D113*
X0077125Y0038366D03*
D112*
X0077125Y0039114D03*
D113*
X0077125Y0039114D03*
D112*
X0075944Y0039114D03*
D113*
X0075944Y0039114D03*
D112*
X0075944Y0038366D03*
D113*
X0075944Y0038366D03*
D112*
X0074763Y0039114D03*
D113*
X0074763Y0039114D03*
D112*
X0074763Y0038366D03*
D113*
X0074763Y0038366D03*
D114*
X0077838Y0043074D03*
X0076838Y0043074D03*
X0076838Y0040074D03*
X0077838Y0040074D03*
X0075838Y0043074D03*
X0074838Y0043074D03*
X0075838Y0040074D03*
X0074838Y0040074D03*
D110*
X0079192Y0040393D03*
D111*
X0079192Y0040393D03*
D110*
X0079940Y0040393D03*
D111*
X0079940Y0040393D03*
D115*
X0069787Y0045319D02*
X0069787Y0045979D01*
X0070787Y0045979D02*
X0070787Y0045319D01*
X0071787Y0045319D02*
X0071787Y0045979D01*
D116*
X0070787Y0052549D03*
D110*
X0075334Y0057480D03*
D111*
X0075334Y0057480D03*
D110*
X0076082Y0057480D03*
D111*
X0076082Y0057480D03*
D117*
X0077862Y0062129D02*
X0077862Y0062649D01*
X0076862Y0062649D02*
X0076862Y0062129D01*
X0076862Y0059129D02*
X0076862Y0058609D01*
X0077862Y0058609D02*
X0077862Y0059129D01*
D112*
X0073582Y0042696D03*
D113*
X0073582Y0042696D03*
D112*
X0073582Y0041948D03*
D113*
X0073582Y0041948D03*
D110*
X0079232Y0041259D03*
D111*
X0079232Y0041259D03*
D110*
X0079980Y0041259D03*
D111*
X0079980Y0041259D03*
D118*
X0073013Y0061956D03*
D119*
X0073013Y0061956D03*
D118*
X0073013Y0063751D03*
D119*
X0073013Y0063751D03*
D120*
X0070349Y0062854D03*
D121*
X0070349Y0062854D03*
D122*
X0075826Y0063759D03*
D123*
X0075826Y0063759D03*
D122*
X0074094Y0063759D03*
D123*
X0074094Y0063759D03*
D124*
X0078405Y0068169D03*
D125*
X0078405Y0068169D03*
D124*
X0082539Y0068169D03*
D125*
X0082539Y0068169D03*
D126*
X0088665Y0042283D03*
X0088665Y0040629D03*
X0088665Y0038976D03*
X0088665Y0037322D03*
X0088665Y0035669D03*
X0086500Y0037322D03*
X0086500Y0035669D03*
X0086500Y0038976D03*
X0086500Y0040629D03*
X0086500Y0042283D03*
D127*
X0091539Y0042283D03*
X0091539Y0035669D03*
D126*
X0088665Y0069448D03*
X0088665Y0067795D03*
X0088665Y0066141D03*
X0088665Y0064488D03*
X0088665Y0062834D03*
X0086500Y0064488D03*
X0086500Y0062834D03*
X0086500Y0066141D03*
X0086500Y0067795D03*
X0086500Y0069448D03*
D127*
X0091539Y0069448D03*
X0091539Y0062834D03*
D128*
X0070244Y0055511D03*
X0070244Y0058511D03*
X0072244Y0058511D03*
X0072244Y0055511D03*
X0070244Y0035433D03*
X0070244Y0038433D03*
X0072244Y0038433D03*
X0072244Y0035433D03*
D129*
X0085629Y0055216D03*
D130*
X0085629Y0055216D03*
D129*
X0085629Y0054389D03*
D130*
X0085629Y0054389D03*
D112*
X0084724Y0054507D03*
D113*
X0084724Y0054507D03*
D112*
X0084724Y0055255D03*
D113*
X0084724Y0055255D03*
D129*
X0079724Y0055098D03*
D130*
X0079724Y0055098D03*
D129*
X0079724Y0054271D03*
D130*
X0079724Y0054271D03*
D112*
X0078858Y0048602D03*
D113*
X0078858Y0048602D03*
D112*
X0078858Y0049350D03*
D113*
X0078858Y0049350D03*
D129*
X0074291Y0055216D03*
D130*
X0074291Y0055216D03*
D129*
X0074291Y0054389D03*
D130*
X0074291Y0054389D03*
D112*
X0073425Y0052618D03*
D113*
X0073425Y0052618D03*
D112*
X0073425Y0053366D03*
D113*
X0073425Y0053366D03*
D129*
X0070492Y0041259D03*
D130*
X0070492Y0041259D03*
D129*
X0069665Y0041259D03*
D130*
X0069665Y0041259D03*
D110*
X0070649Y0040236D03*
D111*
X0070649Y0040236D03*
D110*
X0069901Y0040236D03*
D111*
X0069901Y0040236D03*
D131*
X0075628Y0068897D02*
X0076513Y0068897D01*
X0070513Y0068897D02*
X0069628Y0068897D01*
D132*
X0084251Y0066141D03*
X0077992Y0066141D03*
X0082440Y0066141D03*
X0076181Y0066141D03*
D115*
X0075102Y0046018D02*
X0075102Y0045358D01*
X0076102Y0045358D02*
X0076102Y0046018D01*
X0077102Y0046018D02*
X0077102Y0045358D01*
D116*
X0076102Y0052588D03*
D112*
X0077637Y0055610D03*
D113*
X0077637Y0055610D03*
D112*
X0077637Y0056358D03*
D113*
X0077637Y0056358D03*
D112*
X0073976Y0045570D03*
D113*
X0073976Y0045570D03*
D112*
X0073976Y0046318D03*
D113*
X0073976Y0046318D03*
D115*
X0086322Y0046018D02*
X0086322Y0045358D01*
X0087322Y0045358D02*
X0087322Y0046018D01*
X0088322Y0046018D02*
X0088322Y0045358D01*
D116*
X0087322Y0052588D03*
D112*
X0084488Y0049232D03*
D113*
X0084488Y0049232D03*
D112*
X0084488Y0049980D03*
D113*
X0084488Y0049980D03*
D112*
X0085078Y0044862D03*
D113*
X0085078Y0044862D03*
D112*
X0085078Y0045610D03*
D113*
X0085078Y0045610D03*
D115*
X0080535Y0045358D02*
X0080535Y0046018D01*
X0081535Y0046018D02*
X0081535Y0045358D01*
X0082535Y0045358D02*
X0082535Y0046018D01*
D116*
X0081535Y0052588D03*
D129*
X0069665Y0042165D03*
D130*
X0069665Y0042165D03*
D129*
X0070492Y0042165D03*
D130*
X0070492Y0042165D03*
D110*
X0070688Y0043110D03*
D111*
X0070688Y0043110D03*
D110*
X0069940Y0043110D03*
D111*
X0069940Y0043110D03*
D129*
X0083425Y0056751D03*
D130*
X0083425Y0056751D03*
D129*
X0083425Y0055925D03*
D130*
X0083425Y0055925D03*
D112*
X0083543Y0058484D03*
D113*
X0083543Y0058484D03*
D112*
X0083543Y0057736D03*
D113*
X0083543Y0057736D03*
D131*
X0076473Y0067440D02*
X0075588Y0067440D01*
X0070473Y0067440D02*
X0069588Y0067440D01*
D133*
X0074921Y0054566D03*
X0080472Y0054685D03*
X0086555Y0054744D03*
X0075393Y0049606D03*
X0076338Y0048661D03*
M02*