%
M48
METRIC,000.000
T09C0.35
T08C0.50
T07C0.81
T06C1.10
T05C1.30
T04C1.80
T03C2.00
T02C3.00
T01C4.00
T10C1.77
T11C1.83
T12C2.01
T13C2.21
T14C2.99
T15C3.05
T16C0.83
T17C0.85
T18C1.27
T19C1.40
T20C1.78
T21C1.91
T22C2.54
T23C5.00
T24C1.02
T25C1.05
T26C1.25
T27C1.52
T28C1.60
T29C2.03
T30C3.03
T31C3.18
T32C4.20
T33C1.12
T34C1.50
T35C3.30
%
T09
X290314Y118304
X266248Y127259
X294950Y114432
X311460Y117607
X284663Y111765
X292918Y111765
X304602Y115321
X284663Y110749
X293045Y110749
X288981Y125608
X310698Y123195
X301808Y123068
X256976Y112400
X307523Y107574
X298506Y107320
X250881Y102240
X008000Y040500
X115000Y192000
X124000Y182000
X128000Y190000
X124000Y193000
X120000Y186000
X105000Y192270
X108000Y188000
X111000Y192000
X204400Y138900
X219850Y139050
X191500Y126000
X193900Y123600
X190300Y138600
T08
X269042Y108209
X271582Y108209
T07
X262352Y137526
X269972Y127366
X269972Y129906
X269972Y134986
X269972Y132446
X262352Y134986
X262352Y132446
X262352Y129906
X262352Y127366
X262352Y124826
X262352Y122286
X294191Y121146
X294191Y123687
X286571Y123687
X286571Y121146
X294191Y126227
X294191Y128767
X286571Y126227
X286571Y128767
X281883Y122413
X281883Y124953
X281883Y137653
X274263Y137653
X281883Y127493
X281883Y130032
X281883Y135113
X281883Y132573
X274263Y135113
X274263Y132573
X274263Y130032
X274263Y127493
X274263Y124953
X274263Y122413
X255221Y122413
X255221Y124953
X255221Y137653
X247601Y137653
X255221Y127493
X255221Y130032
X255221Y135113
X255221Y132573
X247601Y135113
X247601Y132573
X247601Y130032
X247601Y127493
X247601Y124953
X247601Y122413
X269972Y122286
X269972Y124826
X269972Y137526
X062310Y137270
X062310Y134730
X054690Y134730
X054690Y137270
X190090Y101790
X192630Y101790
X197710Y109410
X195170Y109410
X195170Y101790
X197770Y150190
X195230Y150190
X195230Y157810
X197770Y157810
X192630Y109410
X190090Y109410
X197710Y101790
T06
X268602Y112982
X273682Y112982
X276222Y112982
X278762Y112982
X278762Y118062
X276222Y118062
X273682Y118062
X268602Y118062
X281302Y112982
X281302Y118062
T05
X282798Y147151
X287798Y147151
X262819Y156897
X265319Y146897
X274249Y157278
X271749Y147278
X276749Y147278
X251008Y156516
X248507Y146516
X253508Y146516
X308920Y157024
X306420Y147024
X311420Y147024
X296601Y156769
X294101Y146770
X299101Y146770
X285298Y157151
X260319Y146897
X003000Y178500
X003000Y158000
X003000Y173900
X003000Y162600
X214000Y168000
X198100Y168000
X209400Y168000
X193500Y168000
T04
X259221Y106554
X263421Y106554
X255021Y101054
X263421Y101054
X280904Y100550
X276704Y100550
X298430Y100550
X294230Y100550
X290030Y100550
X272504Y100550
X259221Y101054
X255021Y106554
T03
X249879Y167845
X291976Y167209
X306203Y166675
X278313Y167264
X263962Y167391
X144500Y037920
X144500Y048080
X108500Y048080
X108500Y037920
X025625Y113705
X062500Y113580
X062500Y103420
X025625Y103545
X016920Y189750
X027080Y189750
T02
X272504Y093250
X280904Y093250
X290030Y093250
X298430Y093250
X152600Y005490
X019400Y005490
X002600Y005490
X169400Y005490
X169400Y071490
X152600Y071490
X019400Y071490
X002600Y071490
X152600Y137490
X169400Y137490
X002600Y137490
X019400Y137490
X232510Y159600
X232510Y107400
X232510Y090600
X232510Y176400
T01
X285298Y152151
X262819Y151897
X306000Y175350
X274249Y152278
X251008Y151516
X308920Y152024
X296601Y151769
X248000Y093850
X306000Y093850
X248000Y175350
T10
X293790Y051930
X293790Y056380
X284670Y051930
X284670Y056380
X293790Y047480
X284670Y047480
T11
X244849Y054615
X235730Y054615
X244849Y050170
X235730Y050170
X204120Y057177
X204120Y052833
X204120Y048490
T12
X191010Y006970
X200390Y006970
X263770Y006970
X282150Y006970
X293530Y006970
X273909Y006970
X301290Y006970
T13
X204120Y043131
X204120Y062536
T14
X278560Y041060
X278560Y062800
X299900Y062800
X299900Y041060
T15
X250970Y061041
X229634Y061041
X229634Y043744
X250970Y043744
T16
X003120Y026500
X012880Y026500
X157620Y093000
X167380Y093000
T17
X013750Y042500
X006250Y042500
X165750Y109000
X158250Y109000
T18
X144000Y018500
X123680Y018500
X133840Y003260
X085580Y007070
X085580Y014690
X037160Y084740
X085420Y073310
X027000Y069500
X085420Y080930
X047320Y069500
T19
X002150Y030500
X090600Y049750
X086400Y049750
X015200Y012790
X090600Y055250
X169400Y012790
X161000Y012790
X156800Y012790
X152600Y012790
X156800Y018290
X152600Y018290
X161000Y018290
X165200Y018290
X019400Y012790
X011000Y012790
X006800Y012790
X002600Y012790
X165200Y012790
X006800Y018290
X002600Y018290
X011000Y018290
X015200Y018290
X019400Y018290
X086400Y055250
X017850Y030500
X169400Y018290
X169400Y078789
X165200Y078789
X161000Y078789
X156800Y078789
X152600Y078789
X156800Y084289
X152600Y084289
X161000Y084289
X165200Y084289
X169400Y084289
X002600Y078789
X006800Y084289
X011000Y084289
X015200Y084289
X019400Y084289
X002600Y084289
X081100Y116750
X019400Y078789
X015200Y078789
X011000Y078789
X076900Y116750
X076900Y111250
X081100Y111250
X006800Y078789
X169850Y097000
X154150Y097000
X165200Y172250
X019400Y150290
X152600Y144790
X156800Y144790
X161000Y144790
X165200Y144790
X156800Y150290
X152600Y177750
X156800Y177750
X161000Y177750
X165200Y177750
X169400Y177750
X169400Y144790
X169400Y172250
X161000Y172250
X156800Y172250
X152600Y172250
X019400Y144790
X015200Y144790
X011000Y144790
X006800Y144790
X002600Y144790
X006800Y150290
X002600Y150290
X011000Y150290
X015200Y150290
X152600Y150290
X161000Y150290
X165200Y150290
X169400Y150290
X225210Y168000
X225210Y163800
X225210Y159600
X219710Y163800
X219710Y159600
X219710Y172200
X219710Y176400
X219710Y103200
X225210Y107400
X225210Y103200
X225210Y099000
X225210Y094800
X225210Y090600
X219710Y094800
X219710Y090600
X219710Y099000
X219710Y168000
X219710Y107400
X225210Y176400
X225210Y172200
T20
X047186Y013090
X055314Y013090
X042868Y050936
X059632Y050936
X124689Y117164
X116561Y117164
X129007Y079319
X112243Y079319
T21
X161000Y054500
X010620Y054500
X010620Y059580
X003000Y059580
X003000Y054500
X161000Y059580
X168620Y059580
X168620Y054500
X160625Y125580
X168245Y125580
X168245Y120500
X160625Y120500
X004000Y120500
X004000Y125580
X011620Y125580
X011620Y120500
X149500Y125580
X157120Y125580
X157120Y120500
X149500Y120500
X149000Y185540
X156620Y185540
X156620Y190620
X149000Y190620
X003000Y185540
X003000Y190620
X010620Y185540
X010620Y190620
X183500Y097620
X178420Y097620
X178420Y090000
X183500Y141000
X183500Y148620
X178420Y148620
X178420Y141000
X183500Y090000
T22
X141000Y055700
X112000Y055700
X112000Y030300
X141000Y030300
X029500Y121200
X029500Y095800
X058500Y095800
X058500Y121200
T23
X029250Y059090
X073250Y059090
X029250Y005090
X073250Y005090
X081000Y054500
X096000Y054500
X142625Y071165
X098625Y071165
X142625Y125164
X098625Y125164
X074500Y123875
X085125Y123750
T24
X106500Y171310
X106500Y163690
T25
X131745Y150375
X126665Y150375
X124125Y150375
X129205Y150375
T26
X126665Y148215
T27
X041060Y163870
X041060Y161120
X041060Y166630
T28
X141940Y188900
X132000Y185500
X141940Y181900
X141920Y178500
X141920Y185500
X132000Y188900
X131000Y159400
X131000Y156000
X140940Y159400
X140920Y156000
X131000Y166400
X131000Y163000
X140940Y166400
X140920Y163000
X132000Y181900
X132000Y178500
T29
X072585Y179345
X057165Y151405
X041060Y173250
X041060Y157250
X087440Y173500
X087440Y162500
X087440Y168000
X087440Y157000
T30
X044875Y148775
X084875Y148775
X044875Y181975
X084875Y181975
T31
X048405Y151405
X081345Y179345
X048405Y179345
X081345Y151405
T32
X090750Y138000
X090750Y188000
X164000Y188000
X164000Y138000
X034000Y138000
X034000Y188000
T33
X193300Y116050
X177260Y115950
X182340Y115950
X179800Y115950
X190760Y116050
X195840Y116050
X219260Y116050
X221800Y116050
X224340Y116050
X204560Y116050
X207100Y116050
X209640Y116050
T34
X177880Y171300
X193120Y171300
X177980Y175000
X193220Y175000
T35
X179800Y133476
X193300Y133576
X221800Y133576
X207100Y133576
M30