%
M48
METRIC,000.000
T01C0.50
%
T01
X011487Y130250
X010487Y130250
X009487Y130250
X008487Y130250
X007487Y130250
X006487Y130250
X006586Y131750
X007586Y131750
X008586Y131750
X009586Y131750
X010586Y131750
X011586Y131750
X047487Y130250
X046487Y130250
X045487Y130250
X044487Y130250
X043487Y130250
X042487Y130250
X042586Y131750
X043586Y131750
X044586Y131750
X045586Y131750
X046586Y131750
X047586Y131750
X121206Y130250
X120206Y130250
X119206Y130250
X118206Y130250
X117206Y130250
X116586Y131750
X117586Y131750
X118586Y131750
X119586Y131750
X120586Y131750
X121586Y131750
X166206Y130250
X165206Y130250
X164206Y130250
X163206Y130250
X162206Y130250
X161206Y130250
X161586Y131750
X162586Y131750
X163586Y131750
X164586Y131750
X165586Y131750
X017487Y064250
X016487Y064250
X015487Y064250
X014487Y064250
X013487Y064250
X013305Y065750
X014305Y065750
X015305Y065750
X016305Y065750
X017305Y065750
X018305Y065750
X064487Y064250
X063487Y064250
X062487Y064250
X061487Y064250
X060487Y064250
X059487Y064250
X059305Y065750
X060305Y065750
X061305Y065750
X062305Y065750
X063305Y065750
X064305Y065750
X113206Y064250
X112206Y064250
X111206Y064250
X110206Y064250
X109206Y064250
X108206Y064250
X108305Y065750
X109305Y065750
X110305Y065750
X111305Y065750
X112305Y065750
X113305Y065750
X157206Y064250
X156206Y064250
X155206Y064250
X154206Y064250
X153206Y064250
X152206Y064250
X152305Y065750
X153305Y065750
X154305Y065750
X155305Y065750
X156305Y065750
X173750Y018178
X173750Y017178
X173750Y016178
X173750Y015178
X173750Y014178
X172250Y013896
X172250Y014896
X172250Y015896
X172250Y016896
X172250Y017896
X172250Y018896
X173750Y054178
X173750Y053178
X173750Y052178
X173750Y051178
X173750Y050178
X173750Y049178
X172250Y048896
X172250Y049896
X172250Y050896
X172250Y051896
X172250Y052896
X172250Y053896
X172250Y100896
X172250Y101896
X172250Y102896
X172250Y103896
X172250Y104896
X172250Y105896
X173750Y106310
X173750Y105310
X173750Y104310
X173750Y103310
X173750Y102310
X173750Y101310
X172250Y144896
X172250Y145896
X172250Y146896
X172250Y147896
X172250Y148896
X173750Y149310
X173750Y148310
X173750Y147310
X173750Y146310
X173750Y145310
X173750Y144310
X172250Y168896
X172250Y169896
X172250Y170896
X172250Y171896
X172250Y172896
X172250Y173896
X173750Y173310
X173750Y172310
X173750Y171310
X173750Y170310
X173750Y169310
X240322Y172332
X240322Y171332
X240322Y170332
X240322Y169332
X240322Y168332
X240322Y167332
X238250Y167896
X238250Y168896
X238250Y169896
X238250Y170896
X238250Y171896
X238250Y172896
X240322Y118332
X240322Y117332
X240322Y116332
X240322Y115332
X240322Y114332
X238250Y113896
X238250Y114896
X238250Y115896
X238250Y116896
X238250Y117896
X238250Y118896
X192785Y085250
X191785Y085250
X190785Y085250
X189785Y085250
X188785Y085250
X188586Y086750
X189586Y086750
X190586Y086750
X191586Y086750
X192586Y086750
X193586Y086750
X228785Y085250
X227785Y085250
X226785Y085250
X225785Y085250
X224785Y085250
X223785Y085250
X223586Y086750
X224586Y086750
X225586Y086750
X226586Y086750
X227586Y086750
X228586Y086750
X252787Y086961
X253787Y086958
X254787Y086954
X255787Y086951
X256787Y086947
X257787Y086944
X257785Y085250
X256785Y085250
X255785Y085250
X254785Y085250
X253785Y085250
X252785Y085250
X296786Y086809
X297786Y086806
X298786Y086802
X299786Y086799
X300786Y086795
X301786Y086792
X301785Y085250
X300785Y085250
X299785Y085250
X298785Y085250
X297785Y085250
X296785Y085250
M30