%
M48
METRIC,000.000
T01C0.50
%
T01
X181750Y019591
X181750Y018591
X181750Y017591
X181750Y016591
X181750Y015591
X181750Y014591
X180250Y014896
X180250Y015896
X180250Y016896
X180250Y017896
X180250Y018896
X180250Y019896
X181750Y065591
X181750Y064591
X181750Y063591
X181750Y062591
X181750Y061591
X181750Y060591
X180250Y060896
X180250Y061896
X180250Y062896
X180250Y063896
X180250Y064896
X181750Y103591
X181750Y102591
X181750Y101591
X181750Y100591
X181750Y099591
X181750Y098591
X180250Y098896
X180250Y099896
X180250Y100896
X180250Y101896
X180250Y102896
X180250Y103896
X181750Y138591
X181750Y137591
X181750Y136591
X181750Y135591
X181750Y134591
X181750Y133591
X180250Y133896
X180250Y134896
X180250Y135896
X180250Y136896
X180250Y137896
X180250Y195896
X180250Y196896
X180250Y197896
X180250Y198896
X180250Y199896
X180250Y200896
X181792Y201139
X181790Y200139
X181789Y199139
X181787Y198139
X181785Y197139
X181783Y196139
X207487Y172250
X206487Y172250
X205487Y172250
X204487Y172250
X203487Y172250
X202487Y172250
X202935Y173750
X203935Y173750
X204935Y173750
X205935Y173750
X206935Y173750
X207935Y173750
X232487Y172250
X231487Y172250
X230487Y172250
X229487Y172250
X228487Y172250
X227487Y172250
X227935Y173750
X228935Y173750
X229935Y173750
X230935Y173750
X231935Y173750
X246250Y151615
X246250Y152615
X246250Y153615
X246250Y154615
X246250Y155615
X246250Y156615
X247750Y156310
X247750Y155310
X247750Y154310
X247750Y153310
X247750Y152310
X247750Y151310
X246250Y110615
X246250Y111615
X246250Y112615
X246250Y113615
X246250Y114615
X246250Y115615
X247750Y115310
X247750Y114310
X247750Y113310
X247750Y112310
X247750Y111310
X247750Y110310
X246250Y062896
X246250Y063896
X246250Y064896
X246250Y065896
X246250Y066896
X246250Y067896
X247750Y067310
X247750Y066310
X247750Y065310
X247750Y064310
X247750Y063310
X247750Y062310
X246250Y019896
X246250Y020896
X246250Y021896
X246250Y022896
X246250Y023896
X246250Y024896
X247750Y024310
X247750Y023310
X247750Y022310
X247750Y021310
X247750Y020310
X247750Y019310
X313750Y021591
X313750Y020591
X313750Y019591
X313750Y018591
X313750Y017591
X313750Y016591
X312250Y016896
X312250Y017896
X312250Y018896
X312250Y019896
X312250Y020896
X312250Y021896
X313750Y065591
X313750Y064591
X313750Y063591
X313750Y062591
X313750Y061591
X312250Y060896
X312250Y061896
X312250Y062896
X312250Y063896
X312250Y064896
X312250Y065896
X313750Y116310
X313750Y115310
X313750Y114310
X313750Y113310
X313750Y112310
X313750Y111310
X312250Y111896
X312250Y112896
X312250Y113896
X312250Y114896
X312250Y115896
X312250Y116896
X313750Y152310
X313750Y151310
X313750Y150310
X313750Y149310
X313750Y148310
X313750Y147310
X312250Y147896
X312250Y148896
X312250Y149896
X312250Y150896
X312250Y151896
X312250Y152896
X269206Y172250
X268206Y172250
X267206Y172250
X266206Y172250
X265206Y172250
X264206Y172250
X263935Y173750
X264935Y173750
X265935Y173750
X266935Y173750
X267935Y173750
X268935Y173750
X299206Y172250
X298206Y172250
X297206Y172250
X296206Y172250
X295206Y172250
X294206Y172250
X293935Y173750
X294935Y173750
X295935Y173750
X296935Y173750
X297935Y173750
X298935Y173750
X334206Y172250
X333206Y172250
X332206Y172250
X331206Y172250
X330206Y172250
X329206Y172250
X329429Y173750
X330429Y173750
X331429Y173750
X332429Y173750
X333429Y173750
X334429Y173750
X360206Y172250
X359206Y172250
X358206Y172250
X357206Y172250
X356206Y172250
X355206Y172250
X355429Y173750
X356429Y173750
X357429Y173750
X358429Y173750
X359429Y173750
X360429Y173750
X378250Y148896
X378250Y149896
X378250Y150896
X378250Y151896
X378250Y152896
X378250Y153896
X379750Y153328
X379750Y152328
X379750Y151328
X379750Y150328
X379750Y149328
X378250Y109896
X378250Y110896
X378250Y111896
X378250Y112896
X378250Y113896
X378250Y114896
X379750Y115328
X379750Y114328
X379750Y113328
X379750Y112328
X379750Y111328
X379750Y110328
X378250Y065896
X378250Y066896
X378250Y067896
X378250Y068896
X378250Y069896
X379944Y070294
X379941Y069294
X379937Y068294
X379934Y067294
X379930Y066294
X379927Y065294
X378250Y030896
X378250Y031896
X378250Y032896
X378250Y033896
X378250Y034896
X378250Y035896
X379827Y036294
X379823Y035294
X379820Y034294
X379816Y033294
X379813Y032294
X379809Y031294
X402414Y087677
X401414Y087677
X400414Y087677
X399414Y087677
X398414Y087677
X397729Y089199
X398729Y089199
X399729Y089199
X400729Y089199
X401729Y089199
X402729Y089199
X443414Y087677
X442414Y087677
X441414Y087677
X440414Y087677
X439414Y087677
X438729Y089199
X439729Y089199
X440729Y089199
X441729Y089199
X442729Y089199
X443729Y089199
X389429Y173750
X390429Y173750
X391429Y173750
X392429Y173750
X393429Y173750
X394429Y173750
X393935Y172250
X392935Y172250
X391935Y172250
X390935Y172250
X389935Y172250
X388935Y172250
X427586Y173750
X428586Y173750
X429586Y173750
X430586Y173750
X431586Y173750
X432586Y173750
X431935Y172250
X430935Y172250
X429935Y172250
X428935Y172250
X427935Y172250
X426935Y172250
X466586Y173750
X467586Y173750
X468586Y173750
X469586Y173750
X470586Y173750
X471586Y173750
X471935Y172250
X470935Y172250
X469935Y172250
X468935Y172250
X467935Y172250
X466935Y172250
X402750Y189310
X402750Y188310
X402750Y187310
X402750Y186310
X402750Y185310
X401250Y184607
X401250Y185607
X401250Y186607
X401250Y187607
X401250Y188607
X401250Y189607
X402750Y220310
X402750Y219310
X402750Y218310
X402750Y217310
X402750Y216310
X402750Y215310
X401250Y215607
X401250Y216607
X401250Y217607
X401250Y218607
X401250Y219607
X401250Y220607
X315435Y211679
X315435Y212679
X315435Y213679
X315435Y214679
X315435Y215679
X315434Y216679
X317750Y216178
X317750Y215178
X317750Y214178
X317750Y213178
X317750Y212178
X315438Y185679
X315438Y186679
X315438Y187679
X315438Y188679
X315438Y189679
X315438Y190679
X317750Y190178
X317750Y189178
X317750Y188178
X317750Y187178
X317750Y186178
M30