G04 EAGLE Gerber RS-274X export*
G75*
%MOMM*%
%FSLAX34Y34*%
%LPD*%
%INSilkscreen Top*%
%IPPOS*%
%AMOC8*
5,1,8,0,0,1.08239X$1,22.5*%
G01*
%ADD10C,0.152400*%
%ADD11C,4.000000*%
%ADD12C,0.254000*%
%ADD13C,0.101600*%
%ADD14C,0.120000*%
%ADD15R,0.200000X0.200000*%
%ADD16C,0.127000*%
%ADD17C,0.203200*%
%ADD18C,0.010000*%


D10*
X180762Y627084D02*
X191599Y627084D01*
X186181Y621665D02*
X186181Y632502D01*
X198338Y633406D02*
X202854Y637018D01*
X202854Y620762D01*
X198338Y620762D02*
X207370Y620762D01*
X223001Y632954D02*
X222999Y633079D01*
X222993Y633204D01*
X222984Y633329D01*
X222970Y633453D01*
X222953Y633577D01*
X222932Y633701D01*
X222907Y633823D01*
X222878Y633945D01*
X222846Y634066D01*
X222810Y634186D01*
X222770Y634305D01*
X222727Y634422D01*
X222680Y634538D01*
X222629Y634653D01*
X222575Y634765D01*
X222517Y634877D01*
X222457Y634986D01*
X222392Y635093D01*
X222325Y635199D01*
X222254Y635302D01*
X222180Y635403D01*
X222103Y635502D01*
X222023Y635598D01*
X221940Y635692D01*
X221855Y635783D01*
X221766Y635872D01*
X221675Y635957D01*
X221581Y636040D01*
X221485Y636120D01*
X221386Y636197D01*
X221285Y636271D01*
X221182Y636342D01*
X221076Y636409D01*
X220969Y636474D01*
X220860Y636534D01*
X220748Y636592D01*
X220636Y636646D01*
X220521Y636697D01*
X220405Y636744D01*
X220288Y636787D01*
X220169Y636827D01*
X220049Y636863D01*
X219928Y636895D01*
X219806Y636924D01*
X219684Y636949D01*
X219560Y636970D01*
X219436Y636987D01*
X219312Y637001D01*
X219187Y637010D01*
X219062Y637016D01*
X218937Y637018D01*
X218794Y637016D01*
X218652Y637010D01*
X218509Y637000D01*
X218367Y636987D01*
X218226Y636969D01*
X218084Y636948D01*
X217944Y636923D01*
X217804Y636894D01*
X217665Y636861D01*
X217527Y636824D01*
X217390Y636784D01*
X217255Y636740D01*
X217120Y636692D01*
X216987Y636640D01*
X216855Y636585D01*
X216725Y636526D01*
X216597Y636464D01*
X216470Y636398D01*
X216345Y636329D01*
X216222Y636257D01*
X216102Y636181D01*
X215983Y636102D01*
X215866Y636019D01*
X215752Y635934D01*
X215640Y635845D01*
X215531Y635754D01*
X215424Y635659D01*
X215319Y635562D01*
X215218Y635461D01*
X215119Y635358D01*
X215023Y635253D01*
X214930Y635144D01*
X214840Y635033D01*
X214753Y634920D01*
X214669Y634805D01*
X214589Y634687D01*
X214511Y634567D01*
X214437Y634445D01*
X214367Y634321D01*
X214299Y634195D01*
X214236Y634067D01*
X214175Y633938D01*
X214118Y633807D01*
X214065Y633675D01*
X214016Y633541D01*
X213970Y633406D01*
X221646Y629793D02*
X221740Y629885D01*
X221830Y629979D01*
X221918Y630076D01*
X222003Y630176D01*
X222085Y630278D01*
X222164Y630383D01*
X222239Y630490D01*
X222311Y630599D01*
X222380Y630710D01*
X222446Y630824D01*
X222508Y630939D01*
X222567Y631056D01*
X222622Y631175D01*
X222673Y631295D01*
X222721Y631417D01*
X222766Y631540D01*
X222806Y631664D01*
X222843Y631790D01*
X222876Y631917D01*
X222905Y632044D01*
X222931Y632173D01*
X222952Y632302D01*
X222970Y632432D01*
X222983Y632562D01*
X222993Y632692D01*
X222999Y632823D01*
X223001Y632954D01*
X221646Y629793D02*
X213970Y620762D01*
X223001Y620762D01*
X234116Y620762D02*
X228698Y637018D01*
X239535Y637018D02*
X234116Y620762D01*
X244572Y618956D02*
X251797Y618956D01*
X262635Y620762D02*
X262753Y620764D01*
X262871Y620770D01*
X262989Y620779D01*
X263106Y620793D01*
X263223Y620810D01*
X263340Y620831D01*
X263455Y620856D01*
X263570Y620885D01*
X263684Y620918D01*
X263796Y620954D01*
X263907Y620994D01*
X264017Y621037D01*
X264126Y621084D01*
X264233Y621134D01*
X264338Y621189D01*
X264441Y621246D01*
X264542Y621307D01*
X264642Y621371D01*
X264739Y621438D01*
X264834Y621508D01*
X264926Y621582D01*
X265017Y621658D01*
X265104Y621738D01*
X265189Y621820D01*
X265271Y621905D01*
X265351Y621992D01*
X265427Y622083D01*
X265501Y622175D01*
X265571Y622270D01*
X265638Y622367D01*
X265702Y622467D01*
X265763Y622568D01*
X265820Y622671D01*
X265875Y622776D01*
X265925Y622883D01*
X265972Y622992D01*
X266015Y623102D01*
X266055Y623213D01*
X266091Y623325D01*
X266124Y623439D01*
X266153Y623554D01*
X266178Y623669D01*
X266199Y623786D01*
X266216Y623903D01*
X266230Y624020D01*
X266239Y624138D01*
X266245Y624256D01*
X266247Y624374D01*
X262635Y620762D02*
X262452Y620764D01*
X262270Y620771D01*
X262088Y620782D01*
X261906Y620797D01*
X261724Y620817D01*
X261543Y620840D01*
X261363Y620869D01*
X261183Y620901D01*
X261004Y620938D01*
X260827Y620979D01*
X260650Y621025D01*
X260474Y621074D01*
X260300Y621128D01*
X260126Y621186D01*
X259955Y621248D01*
X259785Y621314D01*
X259616Y621385D01*
X259449Y621459D01*
X259284Y621537D01*
X259121Y621619D01*
X258960Y621705D01*
X258801Y621795D01*
X258644Y621889D01*
X258490Y621986D01*
X258338Y622087D01*
X258188Y622192D01*
X258041Y622300D01*
X257897Y622411D01*
X257755Y622526D01*
X257616Y622645D01*
X257480Y622767D01*
X257347Y622892D01*
X257217Y623020D01*
X257668Y633406D02*
X257670Y633524D01*
X257676Y633642D01*
X257685Y633760D01*
X257699Y633877D01*
X257716Y633994D01*
X257737Y634111D01*
X257762Y634226D01*
X257791Y634341D01*
X257824Y634455D01*
X257860Y634567D01*
X257900Y634678D01*
X257943Y634788D01*
X257990Y634897D01*
X258040Y635004D01*
X258095Y635109D01*
X258152Y635212D01*
X258213Y635313D01*
X258277Y635413D01*
X258344Y635510D01*
X258414Y635605D01*
X258488Y635697D01*
X258564Y635788D01*
X258644Y635875D01*
X258726Y635960D01*
X258811Y636042D01*
X258898Y636122D01*
X258989Y636198D01*
X259081Y636272D01*
X259176Y636342D01*
X259273Y636409D01*
X259373Y636473D01*
X259474Y636534D01*
X259577Y636592D01*
X259682Y636646D01*
X259789Y636696D01*
X259898Y636743D01*
X260008Y636787D01*
X260119Y636826D01*
X260232Y636862D01*
X260345Y636895D01*
X260460Y636924D01*
X260575Y636949D01*
X260692Y636970D01*
X260809Y636987D01*
X260926Y637001D01*
X261044Y637010D01*
X261162Y637016D01*
X261280Y637018D01*
X261441Y637016D01*
X261603Y637010D01*
X261764Y637001D01*
X261925Y636987D01*
X262085Y636970D01*
X262245Y636949D01*
X262405Y636924D01*
X262564Y636895D01*
X262722Y636863D01*
X262879Y636827D01*
X263035Y636787D01*
X263191Y636743D01*
X263345Y636695D01*
X263498Y636644D01*
X263650Y636590D01*
X263801Y636531D01*
X263950Y636470D01*
X264097Y636404D01*
X264243Y636335D01*
X264388Y636263D01*
X264530Y636187D01*
X264671Y636108D01*
X264810Y636026D01*
X264946Y635940D01*
X265081Y635851D01*
X265214Y635759D01*
X265344Y635663D01*
X259473Y630245D02*
X259372Y630307D01*
X259272Y630372D01*
X259175Y630441D01*
X259080Y630513D01*
X258987Y630587D01*
X258897Y630665D01*
X258809Y630746D01*
X258724Y630829D01*
X258642Y630915D01*
X258563Y631004D01*
X258486Y631095D01*
X258413Y631189D01*
X258342Y631285D01*
X258275Y631383D01*
X258211Y631483D01*
X258150Y631586D01*
X258093Y631690D01*
X258039Y631796D01*
X257989Y631904D01*
X257942Y632013D01*
X257898Y632124D01*
X257858Y632236D01*
X257822Y632350D01*
X257790Y632464D01*
X257761Y632580D01*
X257736Y632696D01*
X257715Y632813D01*
X257698Y632931D01*
X257684Y633049D01*
X257675Y633168D01*
X257669Y633287D01*
X257667Y633406D01*
X264441Y627535D02*
X264542Y627473D01*
X264642Y627408D01*
X264739Y627339D01*
X264834Y627267D01*
X264927Y627193D01*
X265017Y627115D01*
X265105Y627034D01*
X265190Y626951D01*
X265272Y626865D01*
X265351Y626776D01*
X265428Y626685D01*
X265501Y626591D01*
X265572Y626495D01*
X265639Y626397D01*
X265703Y626297D01*
X265764Y626194D01*
X265821Y626090D01*
X265875Y625984D01*
X265925Y625876D01*
X265972Y625767D01*
X266016Y625656D01*
X266056Y625544D01*
X266092Y625430D01*
X266124Y625316D01*
X266153Y625200D01*
X266178Y625084D01*
X266199Y624967D01*
X266216Y624849D01*
X266230Y624731D01*
X266239Y624612D01*
X266245Y624493D01*
X266247Y624374D01*
X264441Y627535D02*
X259474Y630245D01*
X271423Y620762D02*
X276842Y637018D01*
X282260Y620762D01*
X280906Y624826D02*
X272778Y624826D01*
X288508Y620762D02*
X288508Y637018D01*
X295733Y637018D01*
X295733Y629793D02*
X288508Y629793D01*
X302055Y620762D02*
X309280Y620762D01*
X302055Y620762D02*
X302055Y637018D01*
X309280Y637018D01*
X307474Y629793D02*
X302055Y629793D01*
X880762Y467018D02*
X880762Y450762D01*
X880762Y459793D02*
X889793Y459793D01*
X889793Y467018D02*
X889793Y450762D01*
X901430Y450762D02*
X896011Y467018D01*
X906849Y467018D02*
X901430Y450762D01*
X912685Y457084D02*
X923522Y457084D01*
X929601Y448956D02*
X936826Y448956D01*
X943287Y450762D02*
X943287Y467018D01*
X947802Y467018D01*
X947933Y467016D01*
X948065Y467010D01*
X948196Y467001D01*
X948326Y466987D01*
X948457Y466970D01*
X948586Y466949D01*
X948715Y466925D01*
X948843Y466896D01*
X948971Y466864D01*
X949097Y466828D01*
X949222Y466789D01*
X949347Y466746D01*
X949469Y466699D01*
X949591Y466649D01*
X949711Y466595D01*
X949829Y466538D01*
X949945Y466477D01*
X950060Y466413D01*
X950173Y466346D01*
X950284Y466275D01*
X950392Y466201D01*
X950499Y466124D01*
X950603Y466044D01*
X950705Y465961D01*
X950804Y465876D01*
X950901Y465787D01*
X950995Y465695D01*
X951087Y465601D01*
X951176Y465504D01*
X951261Y465405D01*
X951344Y465303D01*
X951424Y465199D01*
X951501Y465092D01*
X951575Y464984D01*
X951646Y464873D01*
X951713Y464760D01*
X951777Y464645D01*
X951838Y464529D01*
X951895Y464411D01*
X951949Y464291D01*
X951999Y464169D01*
X952046Y464047D01*
X952089Y463922D01*
X952128Y463797D01*
X952164Y463671D01*
X952196Y463543D01*
X952225Y463415D01*
X952249Y463286D01*
X952270Y463157D01*
X952287Y463026D01*
X952301Y462896D01*
X952310Y462765D01*
X952316Y462633D01*
X952318Y462502D01*
X952318Y455278D01*
X952316Y455147D01*
X952310Y455015D01*
X952301Y454884D01*
X952287Y454754D01*
X952270Y454623D01*
X952249Y454494D01*
X952225Y454365D01*
X952196Y454237D01*
X952164Y454109D01*
X952128Y453983D01*
X952089Y453858D01*
X952046Y453733D01*
X951999Y453611D01*
X951949Y453489D01*
X951895Y453369D01*
X951838Y453251D01*
X951777Y453135D01*
X951713Y453020D01*
X951646Y452907D01*
X951575Y452796D01*
X951501Y452688D01*
X951424Y452581D01*
X951344Y452477D01*
X951261Y452375D01*
X951176Y452276D01*
X951087Y452179D01*
X950995Y452085D01*
X950901Y451993D01*
X950804Y451904D01*
X950705Y451819D01*
X950603Y451736D01*
X950499Y451656D01*
X950392Y451579D01*
X950284Y451505D01*
X950173Y451434D01*
X950060Y451367D01*
X949945Y451303D01*
X949829Y451242D01*
X949711Y451185D01*
X949591Y451131D01*
X949469Y451081D01*
X949347Y451034D01*
X949222Y450991D01*
X949097Y450952D01*
X948971Y450916D01*
X948843Y450884D01*
X948715Y450855D01*
X948586Y450831D01*
X948456Y450810D01*
X948326Y450793D01*
X948196Y450779D01*
X948065Y450770D01*
X947933Y450764D01*
X947802Y450762D01*
X943287Y450762D01*
X960052Y450762D02*
X960052Y467018D01*
X964567Y467018D01*
X964700Y467016D01*
X964832Y467010D01*
X964964Y467000D01*
X965096Y466987D01*
X965228Y466969D01*
X965358Y466948D01*
X965489Y466923D01*
X965618Y466894D01*
X965746Y466861D01*
X965874Y466825D01*
X966000Y466785D01*
X966125Y466741D01*
X966249Y466693D01*
X966371Y466642D01*
X966492Y466587D01*
X966611Y466529D01*
X966729Y466467D01*
X966844Y466402D01*
X966958Y466333D01*
X967069Y466262D01*
X967178Y466186D01*
X967285Y466108D01*
X967390Y466027D01*
X967492Y465942D01*
X967592Y465855D01*
X967689Y465765D01*
X967784Y465672D01*
X967875Y465576D01*
X967964Y465478D01*
X968050Y465377D01*
X968133Y465273D01*
X968213Y465167D01*
X968289Y465059D01*
X968363Y464949D01*
X968433Y464836D01*
X968500Y464722D01*
X968563Y464605D01*
X968623Y464487D01*
X968680Y464367D01*
X968733Y464245D01*
X968782Y464122D01*
X968828Y463998D01*
X968870Y463872D01*
X968908Y463745D01*
X968943Y463617D01*
X968974Y463488D01*
X969001Y463359D01*
X969024Y463228D01*
X969044Y463097D01*
X969059Y462965D01*
X969071Y462833D01*
X969079Y462701D01*
X969083Y462568D01*
X969083Y462436D01*
X969079Y462303D01*
X969071Y462171D01*
X969059Y462039D01*
X969044Y461907D01*
X969024Y461776D01*
X969001Y461645D01*
X968974Y461516D01*
X968943Y461387D01*
X968908Y461259D01*
X968870Y461132D01*
X968828Y461006D01*
X968782Y460882D01*
X968733Y460759D01*
X968680Y460637D01*
X968623Y460517D01*
X968563Y460399D01*
X968500Y460282D01*
X968433Y460168D01*
X968363Y460055D01*
X968289Y459945D01*
X968213Y459837D01*
X968133Y459731D01*
X968050Y459627D01*
X967964Y459526D01*
X967875Y459428D01*
X967784Y459332D01*
X967689Y459239D01*
X967592Y459149D01*
X967492Y459062D01*
X967390Y458977D01*
X967285Y458896D01*
X967178Y458818D01*
X967069Y458742D01*
X966958Y458671D01*
X966844Y458602D01*
X966729Y458537D01*
X966611Y458475D01*
X966492Y458417D01*
X966371Y458362D01*
X966249Y458311D01*
X966125Y458263D01*
X966000Y458219D01*
X965874Y458179D01*
X965746Y458143D01*
X965618Y458110D01*
X965489Y458081D01*
X965358Y458056D01*
X965228Y458035D01*
X965096Y458017D01*
X964964Y458004D01*
X964832Y457994D01*
X964700Y457988D01*
X964567Y457986D01*
X964567Y457987D02*
X960052Y457987D01*
X965470Y457987D02*
X969083Y450762D01*
X980107Y459342D02*
X974688Y467018D01*
X980107Y459342D02*
X985526Y467018D01*
X980107Y459342D02*
X980107Y450762D01*
X940762Y550762D02*
X940762Y567018D01*
X949793Y550762D01*
X949793Y567018D01*
X960487Y550762D02*
X964100Y550762D01*
X960487Y550762D02*
X960369Y550764D01*
X960251Y550770D01*
X960133Y550779D01*
X960016Y550793D01*
X959899Y550810D01*
X959782Y550831D01*
X959667Y550856D01*
X959552Y550885D01*
X959438Y550918D01*
X959326Y550954D01*
X959215Y550994D01*
X959105Y551037D01*
X958996Y551084D01*
X958889Y551134D01*
X958784Y551189D01*
X958681Y551246D01*
X958580Y551307D01*
X958480Y551371D01*
X958383Y551438D01*
X958288Y551508D01*
X958196Y551582D01*
X958105Y551658D01*
X958018Y551738D01*
X957933Y551820D01*
X957851Y551905D01*
X957771Y551992D01*
X957695Y552083D01*
X957621Y552175D01*
X957551Y552270D01*
X957484Y552367D01*
X957420Y552467D01*
X957359Y552568D01*
X957302Y552671D01*
X957247Y552776D01*
X957197Y552883D01*
X957150Y552992D01*
X957107Y553102D01*
X957067Y553213D01*
X957031Y553325D01*
X956998Y553439D01*
X956969Y553554D01*
X956944Y553669D01*
X956923Y553786D01*
X956906Y553903D01*
X956892Y554020D01*
X956883Y554138D01*
X956877Y554256D01*
X956875Y554374D01*
X956875Y563406D01*
X956877Y563524D01*
X956883Y563642D01*
X956892Y563760D01*
X956906Y563877D01*
X956923Y563994D01*
X956944Y564111D01*
X956969Y564226D01*
X956998Y564341D01*
X957031Y564455D01*
X957067Y564567D01*
X957107Y564678D01*
X957150Y564788D01*
X957197Y564897D01*
X957247Y565004D01*
X957301Y565109D01*
X957359Y565212D01*
X957420Y565313D01*
X957484Y565413D01*
X957551Y565510D01*
X957621Y565605D01*
X957695Y565697D01*
X957771Y565788D01*
X957851Y565875D01*
X957933Y565960D01*
X958018Y566042D01*
X958105Y566122D01*
X958196Y566198D01*
X958288Y566272D01*
X958383Y566342D01*
X958480Y566409D01*
X958580Y566473D01*
X958681Y566534D01*
X958784Y566591D01*
X958889Y566645D01*
X958996Y566696D01*
X959105Y566743D01*
X959215Y566786D01*
X959326Y566826D01*
X959438Y566862D01*
X959552Y566895D01*
X959667Y566924D01*
X959782Y566949D01*
X959899Y566970D01*
X960016Y566987D01*
X960133Y567001D01*
X960251Y567010D01*
X960369Y567016D01*
X960487Y567018D01*
X964100Y567018D01*
X1682982Y230762D02*
X1699238Y230762D01*
X1690207Y230762D02*
X1690207Y239793D01*
X1682982Y239793D02*
X1699238Y239793D01*
X1699238Y251430D02*
X1682982Y246011D01*
X1682982Y256849D02*
X1699238Y251430D01*
X1692916Y262685D02*
X1692916Y273522D01*
X1687498Y268103D02*
X1698335Y268103D01*
X1701044Y279601D02*
X1701044Y286826D01*
X1699238Y293287D02*
X1682982Y293287D01*
X1682982Y297802D01*
X1682984Y297933D01*
X1682990Y298065D01*
X1682999Y298196D01*
X1683013Y298326D01*
X1683030Y298457D01*
X1683051Y298586D01*
X1683075Y298715D01*
X1683104Y298843D01*
X1683136Y298971D01*
X1683172Y299097D01*
X1683211Y299222D01*
X1683254Y299347D01*
X1683301Y299469D01*
X1683351Y299591D01*
X1683405Y299711D01*
X1683462Y299829D01*
X1683523Y299945D01*
X1683587Y300060D01*
X1683654Y300173D01*
X1683725Y300284D01*
X1683799Y300392D01*
X1683876Y300499D01*
X1683956Y300603D01*
X1684039Y300705D01*
X1684124Y300804D01*
X1684213Y300901D01*
X1684305Y300995D01*
X1684399Y301087D01*
X1684496Y301176D01*
X1684595Y301261D01*
X1684697Y301344D01*
X1684801Y301424D01*
X1684908Y301501D01*
X1685016Y301575D01*
X1685127Y301646D01*
X1685240Y301713D01*
X1685355Y301777D01*
X1685471Y301838D01*
X1685589Y301895D01*
X1685709Y301949D01*
X1685831Y301999D01*
X1685953Y302046D01*
X1686078Y302089D01*
X1686203Y302128D01*
X1686329Y302164D01*
X1686457Y302196D01*
X1686585Y302225D01*
X1686714Y302249D01*
X1686843Y302270D01*
X1686974Y302287D01*
X1687104Y302301D01*
X1687235Y302310D01*
X1687367Y302316D01*
X1687498Y302318D01*
X1694722Y302318D01*
X1694853Y302316D01*
X1694985Y302310D01*
X1695116Y302301D01*
X1695246Y302287D01*
X1695377Y302270D01*
X1695506Y302249D01*
X1695635Y302225D01*
X1695763Y302196D01*
X1695891Y302164D01*
X1696017Y302128D01*
X1696142Y302089D01*
X1696267Y302046D01*
X1696389Y301999D01*
X1696511Y301949D01*
X1696631Y301895D01*
X1696749Y301838D01*
X1696865Y301777D01*
X1696980Y301713D01*
X1697093Y301646D01*
X1697204Y301575D01*
X1697312Y301501D01*
X1697419Y301424D01*
X1697523Y301344D01*
X1697625Y301261D01*
X1697724Y301176D01*
X1697821Y301087D01*
X1697915Y300995D01*
X1698007Y300901D01*
X1698096Y300804D01*
X1698181Y300705D01*
X1698264Y300603D01*
X1698344Y300499D01*
X1698421Y300392D01*
X1698495Y300284D01*
X1698566Y300173D01*
X1698633Y300060D01*
X1698697Y299945D01*
X1698758Y299829D01*
X1698815Y299711D01*
X1698869Y299591D01*
X1698919Y299469D01*
X1698966Y299347D01*
X1699009Y299222D01*
X1699048Y299097D01*
X1699084Y298971D01*
X1699116Y298843D01*
X1699145Y298715D01*
X1699169Y298586D01*
X1699190Y298456D01*
X1699207Y298326D01*
X1699221Y298196D01*
X1699230Y298065D01*
X1699236Y297933D01*
X1699238Y297802D01*
X1699238Y293287D01*
X1699238Y310052D02*
X1682982Y310052D01*
X1682982Y314567D01*
X1682984Y314700D01*
X1682990Y314832D01*
X1683000Y314964D01*
X1683013Y315096D01*
X1683031Y315228D01*
X1683052Y315358D01*
X1683077Y315489D01*
X1683106Y315618D01*
X1683139Y315746D01*
X1683175Y315874D01*
X1683215Y316000D01*
X1683259Y316125D01*
X1683307Y316249D01*
X1683358Y316371D01*
X1683413Y316492D01*
X1683471Y316611D01*
X1683533Y316729D01*
X1683598Y316844D01*
X1683667Y316958D01*
X1683738Y317069D01*
X1683814Y317178D01*
X1683892Y317285D01*
X1683973Y317390D01*
X1684058Y317492D01*
X1684145Y317592D01*
X1684235Y317689D01*
X1684328Y317784D01*
X1684424Y317875D01*
X1684522Y317964D01*
X1684623Y318050D01*
X1684727Y318133D01*
X1684833Y318213D01*
X1684941Y318289D01*
X1685051Y318363D01*
X1685164Y318433D01*
X1685278Y318500D01*
X1685395Y318563D01*
X1685513Y318623D01*
X1685633Y318680D01*
X1685755Y318733D01*
X1685878Y318782D01*
X1686002Y318828D01*
X1686128Y318870D01*
X1686255Y318908D01*
X1686383Y318943D01*
X1686512Y318974D01*
X1686641Y319001D01*
X1686772Y319024D01*
X1686903Y319044D01*
X1687035Y319059D01*
X1687167Y319071D01*
X1687299Y319079D01*
X1687432Y319083D01*
X1687564Y319083D01*
X1687697Y319079D01*
X1687829Y319071D01*
X1687961Y319059D01*
X1688093Y319044D01*
X1688224Y319024D01*
X1688355Y319001D01*
X1688484Y318974D01*
X1688613Y318943D01*
X1688741Y318908D01*
X1688868Y318870D01*
X1688994Y318828D01*
X1689118Y318782D01*
X1689241Y318733D01*
X1689363Y318680D01*
X1689483Y318623D01*
X1689601Y318563D01*
X1689718Y318500D01*
X1689832Y318433D01*
X1689945Y318363D01*
X1690055Y318289D01*
X1690163Y318213D01*
X1690269Y318133D01*
X1690373Y318050D01*
X1690474Y317964D01*
X1690572Y317875D01*
X1690668Y317784D01*
X1690761Y317689D01*
X1690851Y317592D01*
X1690938Y317492D01*
X1691023Y317390D01*
X1691104Y317285D01*
X1691182Y317178D01*
X1691258Y317069D01*
X1691329Y316958D01*
X1691398Y316844D01*
X1691463Y316729D01*
X1691525Y316611D01*
X1691583Y316492D01*
X1691638Y316371D01*
X1691689Y316249D01*
X1691737Y316125D01*
X1691781Y316000D01*
X1691821Y315874D01*
X1691857Y315746D01*
X1691890Y315618D01*
X1691919Y315489D01*
X1691944Y315358D01*
X1691965Y315228D01*
X1691983Y315096D01*
X1691996Y314964D01*
X1692006Y314832D01*
X1692012Y314700D01*
X1692014Y314567D01*
X1692013Y314567D02*
X1692013Y310052D01*
X1692013Y315470D02*
X1699238Y319083D01*
X1690658Y330107D02*
X1682982Y324688D01*
X1690658Y330107D02*
X1682982Y335526D01*
X1690658Y330107D02*
X1699238Y330107D01*
X1659238Y230762D02*
X1642982Y230762D01*
X1650207Y230762D02*
X1650207Y239793D01*
X1642982Y239793D02*
X1659238Y239793D01*
X1659238Y251430D02*
X1642982Y246011D01*
X1642982Y256849D02*
X1659238Y251430D01*
X1652916Y262685D02*
X1652916Y273522D01*
X1661044Y279601D02*
X1661044Y286826D01*
X1659238Y293287D02*
X1642982Y293287D01*
X1642982Y297802D01*
X1642984Y297933D01*
X1642990Y298065D01*
X1642999Y298196D01*
X1643013Y298326D01*
X1643030Y298457D01*
X1643051Y298586D01*
X1643075Y298715D01*
X1643104Y298843D01*
X1643136Y298971D01*
X1643172Y299097D01*
X1643211Y299222D01*
X1643254Y299347D01*
X1643301Y299469D01*
X1643351Y299591D01*
X1643405Y299711D01*
X1643462Y299829D01*
X1643523Y299945D01*
X1643587Y300060D01*
X1643654Y300173D01*
X1643725Y300284D01*
X1643799Y300392D01*
X1643876Y300499D01*
X1643956Y300603D01*
X1644039Y300705D01*
X1644124Y300804D01*
X1644213Y300901D01*
X1644305Y300995D01*
X1644399Y301087D01*
X1644496Y301176D01*
X1644595Y301261D01*
X1644697Y301344D01*
X1644801Y301424D01*
X1644908Y301501D01*
X1645016Y301575D01*
X1645127Y301646D01*
X1645240Y301713D01*
X1645355Y301777D01*
X1645471Y301838D01*
X1645589Y301895D01*
X1645709Y301949D01*
X1645831Y301999D01*
X1645953Y302046D01*
X1646078Y302089D01*
X1646203Y302128D01*
X1646329Y302164D01*
X1646457Y302196D01*
X1646585Y302225D01*
X1646714Y302249D01*
X1646843Y302270D01*
X1646974Y302287D01*
X1647104Y302301D01*
X1647235Y302310D01*
X1647367Y302316D01*
X1647498Y302318D01*
X1654722Y302318D01*
X1654853Y302316D01*
X1654985Y302310D01*
X1655116Y302301D01*
X1655246Y302287D01*
X1655377Y302270D01*
X1655506Y302249D01*
X1655635Y302225D01*
X1655763Y302196D01*
X1655891Y302164D01*
X1656017Y302128D01*
X1656142Y302089D01*
X1656267Y302046D01*
X1656389Y301999D01*
X1656511Y301949D01*
X1656631Y301895D01*
X1656749Y301838D01*
X1656865Y301777D01*
X1656980Y301713D01*
X1657093Y301646D01*
X1657204Y301575D01*
X1657312Y301501D01*
X1657419Y301424D01*
X1657523Y301344D01*
X1657625Y301261D01*
X1657724Y301176D01*
X1657821Y301087D01*
X1657915Y300995D01*
X1658007Y300901D01*
X1658096Y300804D01*
X1658181Y300705D01*
X1658264Y300603D01*
X1658344Y300499D01*
X1658421Y300392D01*
X1658495Y300284D01*
X1658566Y300173D01*
X1658633Y300060D01*
X1658697Y299945D01*
X1658758Y299829D01*
X1658815Y299711D01*
X1658869Y299591D01*
X1658919Y299469D01*
X1658966Y299347D01*
X1659009Y299222D01*
X1659048Y299097D01*
X1659084Y298971D01*
X1659116Y298843D01*
X1659145Y298715D01*
X1659169Y298586D01*
X1659190Y298456D01*
X1659207Y298326D01*
X1659221Y298196D01*
X1659230Y298065D01*
X1659236Y297933D01*
X1659238Y297802D01*
X1659238Y293287D01*
X1659238Y310052D02*
X1642982Y310052D01*
X1642982Y314567D01*
X1642984Y314700D01*
X1642990Y314832D01*
X1643000Y314964D01*
X1643013Y315096D01*
X1643031Y315228D01*
X1643052Y315358D01*
X1643077Y315489D01*
X1643106Y315618D01*
X1643139Y315746D01*
X1643175Y315874D01*
X1643215Y316000D01*
X1643259Y316125D01*
X1643307Y316249D01*
X1643358Y316371D01*
X1643413Y316492D01*
X1643471Y316611D01*
X1643533Y316729D01*
X1643598Y316844D01*
X1643667Y316958D01*
X1643738Y317069D01*
X1643814Y317178D01*
X1643892Y317285D01*
X1643973Y317390D01*
X1644058Y317492D01*
X1644145Y317592D01*
X1644235Y317689D01*
X1644328Y317784D01*
X1644424Y317875D01*
X1644522Y317964D01*
X1644623Y318050D01*
X1644727Y318133D01*
X1644833Y318213D01*
X1644941Y318289D01*
X1645051Y318363D01*
X1645164Y318433D01*
X1645278Y318500D01*
X1645395Y318563D01*
X1645513Y318623D01*
X1645633Y318680D01*
X1645755Y318733D01*
X1645878Y318782D01*
X1646002Y318828D01*
X1646128Y318870D01*
X1646255Y318908D01*
X1646383Y318943D01*
X1646512Y318974D01*
X1646641Y319001D01*
X1646772Y319024D01*
X1646903Y319044D01*
X1647035Y319059D01*
X1647167Y319071D01*
X1647299Y319079D01*
X1647432Y319083D01*
X1647564Y319083D01*
X1647697Y319079D01*
X1647829Y319071D01*
X1647961Y319059D01*
X1648093Y319044D01*
X1648224Y319024D01*
X1648355Y319001D01*
X1648484Y318974D01*
X1648613Y318943D01*
X1648741Y318908D01*
X1648868Y318870D01*
X1648994Y318828D01*
X1649118Y318782D01*
X1649241Y318733D01*
X1649363Y318680D01*
X1649483Y318623D01*
X1649601Y318563D01*
X1649718Y318500D01*
X1649832Y318433D01*
X1649945Y318363D01*
X1650055Y318289D01*
X1650163Y318213D01*
X1650269Y318133D01*
X1650373Y318050D01*
X1650474Y317964D01*
X1650572Y317875D01*
X1650668Y317784D01*
X1650761Y317689D01*
X1650851Y317592D01*
X1650938Y317492D01*
X1651023Y317390D01*
X1651104Y317285D01*
X1651182Y317178D01*
X1651258Y317069D01*
X1651329Y316958D01*
X1651398Y316844D01*
X1651463Y316729D01*
X1651525Y316611D01*
X1651583Y316492D01*
X1651638Y316371D01*
X1651689Y316249D01*
X1651737Y316125D01*
X1651781Y316000D01*
X1651821Y315874D01*
X1651857Y315746D01*
X1651890Y315618D01*
X1651919Y315489D01*
X1651944Y315358D01*
X1651965Y315228D01*
X1651983Y315096D01*
X1651996Y314964D01*
X1652006Y314832D01*
X1652012Y314700D01*
X1652014Y314567D01*
X1652013Y314567D02*
X1652013Y310052D01*
X1652013Y315470D02*
X1659238Y319083D01*
X1650658Y330107D02*
X1642982Y324688D01*
X1650658Y330107D02*
X1642982Y335526D01*
X1650658Y330107D02*
X1659238Y330107D01*
X1661044Y340563D02*
X1661044Y347788D01*
X1659238Y352825D02*
X1642982Y358243D01*
X1659238Y363662D01*
X1655174Y362307D02*
X1655174Y354179D01*
X1654722Y369880D02*
X1642982Y369880D01*
X1654722Y369880D02*
X1654855Y369882D01*
X1654987Y369888D01*
X1655119Y369898D01*
X1655251Y369911D01*
X1655383Y369929D01*
X1655513Y369950D01*
X1655644Y369975D01*
X1655773Y370004D01*
X1655901Y370037D01*
X1656029Y370073D01*
X1656155Y370113D01*
X1656280Y370157D01*
X1656404Y370205D01*
X1656526Y370256D01*
X1656647Y370311D01*
X1656766Y370369D01*
X1656884Y370431D01*
X1656999Y370496D01*
X1657113Y370565D01*
X1657224Y370636D01*
X1657333Y370712D01*
X1657440Y370790D01*
X1657545Y370871D01*
X1657647Y370956D01*
X1657747Y371043D01*
X1657844Y371133D01*
X1657939Y371226D01*
X1658030Y371322D01*
X1658119Y371420D01*
X1658205Y371521D01*
X1658288Y371625D01*
X1658368Y371731D01*
X1658444Y371839D01*
X1658518Y371949D01*
X1658588Y372062D01*
X1658655Y372176D01*
X1658718Y372293D01*
X1658778Y372411D01*
X1658835Y372531D01*
X1658888Y372653D01*
X1658937Y372776D01*
X1658983Y372900D01*
X1659025Y373026D01*
X1659063Y373153D01*
X1659098Y373281D01*
X1659129Y373410D01*
X1659156Y373539D01*
X1659179Y373670D01*
X1659199Y373801D01*
X1659214Y373933D01*
X1659226Y374065D01*
X1659234Y374197D01*
X1659238Y374330D01*
X1659238Y374462D01*
X1659234Y374595D01*
X1659226Y374727D01*
X1659214Y374859D01*
X1659199Y374991D01*
X1659179Y375122D01*
X1659156Y375253D01*
X1659129Y375382D01*
X1659098Y375511D01*
X1659063Y375639D01*
X1659025Y375766D01*
X1658983Y375892D01*
X1658937Y376016D01*
X1658888Y376139D01*
X1658835Y376261D01*
X1658778Y376381D01*
X1658718Y376499D01*
X1658655Y376616D01*
X1658588Y376730D01*
X1658518Y376843D01*
X1658444Y376953D01*
X1658368Y377061D01*
X1658288Y377167D01*
X1658205Y377271D01*
X1658119Y377372D01*
X1658030Y377470D01*
X1657939Y377566D01*
X1657844Y377659D01*
X1657747Y377749D01*
X1657647Y377836D01*
X1657545Y377921D01*
X1657440Y378002D01*
X1657333Y378080D01*
X1657224Y378156D01*
X1657113Y378227D01*
X1656999Y378296D01*
X1656884Y378361D01*
X1656766Y378423D01*
X1656647Y378481D01*
X1656526Y378536D01*
X1656404Y378587D01*
X1656280Y378635D01*
X1656155Y378679D01*
X1656029Y378719D01*
X1655901Y378755D01*
X1655773Y378788D01*
X1655644Y378817D01*
X1655513Y378842D01*
X1655383Y378863D01*
X1655251Y378881D01*
X1655119Y378894D01*
X1654987Y378904D01*
X1654855Y378910D01*
X1654722Y378912D01*
X1654722Y378911D02*
X1642982Y378911D01*
X1642982Y395966D02*
X1659238Y385129D01*
X1659238Y395966D02*
X1642982Y385129D01*
X1579238Y230762D02*
X1562982Y230762D01*
X1570207Y230762D02*
X1570207Y239793D01*
X1562982Y239793D02*
X1579238Y239793D01*
X1579238Y251430D02*
X1562982Y246011D01*
X1562982Y256849D02*
X1579238Y251430D01*
X1572916Y262685D02*
X1572916Y273522D01*
X1581044Y279601D02*
X1581044Y286826D01*
X1579238Y293287D02*
X1562982Y293287D01*
X1562982Y297802D01*
X1562984Y297933D01*
X1562990Y298065D01*
X1562999Y298196D01*
X1563013Y298326D01*
X1563030Y298457D01*
X1563051Y298586D01*
X1563075Y298715D01*
X1563104Y298843D01*
X1563136Y298971D01*
X1563172Y299097D01*
X1563211Y299222D01*
X1563254Y299347D01*
X1563301Y299469D01*
X1563351Y299591D01*
X1563405Y299711D01*
X1563462Y299829D01*
X1563523Y299945D01*
X1563587Y300060D01*
X1563654Y300173D01*
X1563725Y300284D01*
X1563799Y300392D01*
X1563876Y300499D01*
X1563956Y300603D01*
X1564039Y300705D01*
X1564124Y300804D01*
X1564213Y300901D01*
X1564305Y300995D01*
X1564399Y301087D01*
X1564496Y301176D01*
X1564595Y301261D01*
X1564697Y301344D01*
X1564801Y301424D01*
X1564908Y301501D01*
X1565016Y301575D01*
X1565127Y301646D01*
X1565240Y301713D01*
X1565355Y301777D01*
X1565471Y301838D01*
X1565589Y301895D01*
X1565709Y301949D01*
X1565831Y301999D01*
X1565953Y302046D01*
X1566078Y302089D01*
X1566203Y302128D01*
X1566329Y302164D01*
X1566457Y302196D01*
X1566585Y302225D01*
X1566714Y302249D01*
X1566843Y302270D01*
X1566974Y302287D01*
X1567104Y302301D01*
X1567235Y302310D01*
X1567367Y302316D01*
X1567498Y302318D01*
X1574722Y302318D01*
X1574853Y302316D01*
X1574985Y302310D01*
X1575116Y302301D01*
X1575246Y302287D01*
X1575377Y302270D01*
X1575506Y302249D01*
X1575635Y302225D01*
X1575763Y302196D01*
X1575891Y302164D01*
X1576017Y302128D01*
X1576142Y302089D01*
X1576267Y302046D01*
X1576389Y301999D01*
X1576511Y301949D01*
X1576631Y301895D01*
X1576749Y301838D01*
X1576865Y301777D01*
X1576980Y301713D01*
X1577093Y301646D01*
X1577204Y301575D01*
X1577312Y301501D01*
X1577419Y301424D01*
X1577523Y301344D01*
X1577625Y301261D01*
X1577724Y301176D01*
X1577821Y301087D01*
X1577915Y300995D01*
X1578007Y300901D01*
X1578096Y300804D01*
X1578181Y300705D01*
X1578264Y300603D01*
X1578344Y300499D01*
X1578421Y300392D01*
X1578495Y300284D01*
X1578566Y300173D01*
X1578633Y300060D01*
X1578697Y299945D01*
X1578758Y299829D01*
X1578815Y299711D01*
X1578869Y299591D01*
X1578919Y299469D01*
X1578966Y299347D01*
X1579009Y299222D01*
X1579048Y299097D01*
X1579084Y298971D01*
X1579116Y298843D01*
X1579145Y298715D01*
X1579169Y298586D01*
X1579190Y298456D01*
X1579207Y298326D01*
X1579221Y298196D01*
X1579230Y298065D01*
X1579236Y297933D01*
X1579238Y297802D01*
X1579238Y293287D01*
X1579238Y310052D02*
X1562982Y310052D01*
X1562982Y314567D01*
X1562984Y314700D01*
X1562990Y314832D01*
X1563000Y314964D01*
X1563013Y315096D01*
X1563031Y315228D01*
X1563052Y315358D01*
X1563077Y315489D01*
X1563106Y315618D01*
X1563139Y315746D01*
X1563175Y315874D01*
X1563215Y316000D01*
X1563259Y316125D01*
X1563307Y316249D01*
X1563358Y316371D01*
X1563413Y316492D01*
X1563471Y316611D01*
X1563533Y316729D01*
X1563598Y316844D01*
X1563667Y316958D01*
X1563738Y317069D01*
X1563814Y317178D01*
X1563892Y317285D01*
X1563973Y317390D01*
X1564058Y317492D01*
X1564145Y317592D01*
X1564235Y317689D01*
X1564328Y317784D01*
X1564424Y317875D01*
X1564522Y317964D01*
X1564623Y318050D01*
X1564727Y318133D01*
X1564833Y318213D01*
X1564941Y318289D01*
X1565051Y318363D01*
X1565164Y318433D01*
X1565278Y318500D01*
X1565395Y318563D01*
X1565513Y318623D01*
X1565633Y318680D01*
X1565755Y318733D01*
X1565878Y318782D01*
X1566002Y318828D01*
X1566128Y318870D01*
X1566255Y318908D01*
X1566383Y318943D01*
X1566512Y318974D01*
X1566641Y319001D01*
X1566772Y319024D01*
X1566903Y319044D01*
X1567035Y319059D01*
X1567167Y319071D01*
X1567299Y319079D01*
X1567432Y319083D01*
X1567564Y319083D01*
X1567697Y319079D01*
X1567829Y319071D01*
X1567961Y319059D01*
X1568093Y319044D01*
X1568224Y319024D01*
X1568355Y319001D01*
X1568484Y318974D01*
X1568613Y318943D01*
X1568741Y318908D01*
X1568868Y318870D01*
X1568994Y318828D01*
X1569118Y318782D01*
X1569241Y318733D01*
X1569363Y318680D01*
X1569483Y318623D01*
X1569601Y318563D01*
X1569718Y318500D01*
X1569832Y318433D01*
X1569945Y318363D01*
X1570055Y318289D01*
X1570163Y318213D01*
X1570269Y318133D01*
X1570373Y318050D01*
X1570474Y317964D01*
X1570572Y317875D01*
X1570668Y317784D01*
X1570761Y317689D01*
X1570851Y317592D01*
X1570938Y317492D01*
X1571023Y317390D01*
X1571104Y317285D01*
X1571182Y317178D01*
X1571258Y317069D01*
X1571329Y316958D01*
X1571398Y316844D01*
X1571463Y316729D01*
X1571525Y316611D01*
X1571583Y316492D01*
X1571638Y316371D01*
X1571689Y316249D01*
X1571737Y316125D01*
X1571781Y316000D01*
X1571821Y315874D01*
X1571857Y315746D01*
X1571890Y315618D01*
X1571919Y315489D01*
X1571944Y315358D01*
X1571965Y315228D01*
X1571983Y315096D01*
X1571996Y314964D01*
X1572006Y314832D01*
X1572012Y314700D01*
X1572014Y314567D01*
X1572013Y314567D02*
X1572013Y310052D01*
X1572013Y315470D02*
X1579238Y319083D01*
X1570658Y330107D02*
X1562982Y324688D01*
X1570658Y330107D02*
X1562982Y335526D01*
X1570658Y330107D02*
X1579238Y330107D01*
X1539238Y230762D02*
X1522982Y230762D01*
X1530207Y230762D02*
X1530207Y239793D01*
X1522982Y239793D02*
X1539238Y239793D01*
X1539238Y251430D02*
X1522982Y246011D01*
X1522982Y256849D02*
X1539238Y251430D01*
X1532916Y262685D02*
X1532916Y273522D01*
X1541044Y279601D02*
X1541044Y286826D01*
X1539238Y293287D02*
X1522982Y293287D01*
X1522982Y297802D01*
X1522984Y297933D01*
X1522990Y298065D01*
X1522999Y298196D01*
X1523013Y298326D01*
X1523030Y298457D01*
X1523051Y298586D01*
X1523075Y298715D01*
X1523104Y298843D01*
X1523136Y298971D01*
X1523172Y299097D01*
X1523211Y299222D01*
X1523254Y299347D01*
X1523301Y299469D01*
X1523351Y299591D01*
X1523405Y299711D01*
X1523462Y299829D01*
X1523523Y299945D01*
X1523587Y300060D01*
X1523654Y300173D01*
X1523725Y300284D01*
X1523799Y300392D01*
X1523876Y300499D01*
X1523956Y300603D01*
X1524039Y300705D01*
X1524124Y300804D01*
X1524213Y300901D01*
X1524305Y300995D01*
X1524399Y301087D01*
X1524496Y301176D01*
X1524595Y301261D01*
X1524697Y301344D01*
X1524801Y301424D01*
X1524908Y301501D01*
X1525016Y301575D01*
X1525127Y301646D01*
X1525240Y301713D01*
X1525355Y301777D01*
X1525471Y301838D01*
X1525589Y301895D01*
X1525709Y301949D01*
X1525831Y301999D01*
X1525953Y302046D01*
X1526078Y302089D01*
X1526203Y302128D01*
X1526329Y302164D01*
X1526457Y302196D01*
X1526585Y302225D01*
X1526714Y302249D01*
X1526843Y302270D01*
X1526974Y302287D01*
X1527104Y302301D01*
X1527235Y302310D01*
X1527367Y302316D01*
X1527498Y302318D01*
X1534722Y302318D01*
X1534853Y302316D01*
X1534985Y302310D01*
X1535116Y302301D01*
X1535246Y302287D01*
X1535377Y302270D01*
X1535506Y302249D01*
X1535635Y302225D01*
X1535763Y302196D01*
X1535891Y302164D01*
X1536017Y302128D01*
X1536142Y302089D01*
X1536267Y302046D01*
X1536389Y301999D01*
X1536511Y301949D01*
X1536631Y301895D01*
X1536749Y301838D01*
X1536865Y301777D01*
X1536980Y301713D01*
X1537093Y301646D01*
X1537204Y301575D01*
X1537312Y301501D01*
X1537419Y301424D01*
X1537523Y301344D01*
X1537625Y301261D01*
X1537724Y301176D01*
X1537821Y301087D01*
X1537915Y300995D01*
X1538007Y300901D01*
X1538096Y300804D01*
X1538181Y300705D01*
X1538264Y300603D01*
X1538344Y300499D01*
X1538421Y300392D01*
X1538495Y300284D01*
X1538566Y300173D01*
X1538633Y300060D01*
X1538697Y299945D01*
X1538758Y299829D01*
X1538815Y299711D01*
X1538869Y299591D01*
X1538919Y299469D01*
X1538966Y299347D01*
X1539009Y299222D01*
X1539048Y299097D01*
X1539084Y298971D01*
X1539116Y298843D01*
X1539145Y298715D01*
X1539169Y298586D01*
X1539190Y298456D01*
X1539207Y298326D01*
X1539221Y298196D01*
X1539230Y298065D01*
X1539236Y297933D01*
X1539238Y297802D01*
X1539238Y293287D01*
X1539238Y310052D02*
X1522982Y310052D01*
X1522982Y314567D01*
X1522984Y314700D01*
X1522990Y314832D01*
X1523000Y314964D01*
X1523013Y315096D01*
X1523031Y315228D01*
X1523052Y315358D01*
X1523077Y315489D01*
X1523106Y315618D01*
X1523139Y315746D01*
X1523175Y315874D01*
X1523215Y316000D01*
X1523259Y316125D01*
X1523307Y316249D01*
X1523358Y316371D01*
X1523413Y316492D01*
X1523471Y316611D01*
X1523533Y316729D01*
X1523598Y316844D01*
X1523667Y316958D01*
X1523738Y317069D01*
X1523814Y317178D01*
X1523892Y317285D01*
X1523973Y317390D01*
X1524058Y317492D01*
X1524145Y317592D01*
X1524235Y317689D01*
X1524328Y317784D01*
X1524424Y317875D01*
X1524522Y317964D01*
X1524623Y318050D01*
X1524727Y318133D01*
X1524833Y318213D01*
X1524941Y318289D01*
X1525051Y318363D01*
X1525164Y318433D01*
X1525278Y318500D01*
X1525395Y318563D01*
X1525513Y318623D01*
X1525633Y318680D01*
X1525755Y318733D01*
X1525878Y318782D01*
X1526002Y318828D01*
X1526128Y318870D01*
X1526255Y318908D01*
X1526383Y318943D01*
X1526512Y318974D01*
X1526641Y319001D01*
X1526772Y319024D01*
X1526903Y319044D01*
X1527035Y319059D01*
X1527167Y319071D01*
X1527299Y319079D01*
X1527432Y319083D01*
X1527564Y319083D01*
X1527697Y319079D01*
X1527829Y319071D01*
X1527961Y319059D01*
X1528093Y319044D01*
X1528224Y319024D01*
X1528355Y319001D01*
X1528484Y318974D01*
X1528613Y318943D01*
X1528741Y318908D01*
X1528868Y318870D01*
X1528994Y318828D01*
X1529118Y318782D01*
X1529241Y318733D01*
X1529363Y318680D01*
X1529483Y318623D01*
X1529601Y318563D01*
X1529718Y318500D01*
X1529832Y318433D01*
X1529945Y318363D01*
X1530055Y318289D01*
X1530163Y318213D01*
X1530269Y318133D01*
X1530373Y318050D01*
X1530474Y317964D01*
X1530572Y317875D01*
X1530668Y317784D01*
X1530761Y317689D01*
X1530851Y317592D01*
X1530938Y317492D01*
X1531023Y317390D01*
X1531104Y317285D01*
X1531182Y317178D01*
X1531258Y317069D01*
X1531329Y316958D01*
X1531398Y316844D01*
X1531463Y316729D01*
X1531525Y316611D01*
X1531583Y316492D01*
X1531638Y316371D01*
X1531689Y316249D01*
X1531737Y316125D01*
X1531781Y316000D01*
X1531821Y315874D01*
X1531857Y315746D01*
X1531890Y315618D01*
X1531919Y315489D01*
X1531944Y315358D01*
X1531965Y315228D01*
X1531983Y315096D01*
X1531996Y314964D01*
X1532006Y314832D01*
X1532012Y314700D01*
X1532014Y314567D01*
X1532013Y314567D02*
X1532013Y310052D01*
X1532013Y315470D02*
X1539238Y319083D01*
X1530658Y330107D02*
X1522982Y324688D01*
X1530658Y330107D02*
X1522982Y335526D01*
X1530658Y330107D02*
X1539238Y330107D01*
X1602982Y230762D02*
X1619238Y230762D01*
X1619238Y239793D02*
X1602982Y230762D01*
X1602982Y239793D02*
X1619238Y239793D01*
X1619238Y250487D02*
X1619238Y254100D01*
X1619238Y250487D02*
X1619236Y250369D01*
X1619230Y250251D01*
X1619221Y250133D01*
X1619207Y250016D01*
X1619190Y249899D01*
X1619169Y249782D01*
X1619144Y249667D01*
X1619115Y249552D01*
X1619082Y249438D01*
X1619046Y249326D01*
X1619006Y249215D01*
X1618963Y249105D01*
X1618916Y248996D01*
X1618866Y248889D01*
X1618811Y248784D01*
X1618754Y248681D01*
X1618693Y248580D01*
X1618629Y248480D01*
X1618562Y248383D01*
X1618492Y248288D01*
X1618418Y248196D01*
X1618342Y248105D01*
X1618262Y248018D01*
X1618180Y247933D01*
X1618095Y247851D01*
X1618008Y247771D01*
X1617917Y247695D01*
X1617825Y247621D01*
X1617730Y247551D01*
X1617633Y247484D01*
X1617533Y247420D01*
X1617432Y247359D01*
X1617329Y247302D01*
X1617224Y247247D01*
X1617117Y247197D01*
X1617008Y247150D01*
X1616898Y247107D01*
X1616787Y247067D01*
X1616675Y247031D01*
X1616561Y246998D01*
X1616446Y246969D01*
X1616331Y246944D01*
X1616214Y246923D01*
X1616097Y246906D01*
X1615980Y246892D01*
X1615862Y246883D01*
X1615744Y246877D01*
X1615626Y246875D01*
X1606594Y246875D01*
X1606594Y246874D02*
X1606476Y246876D01*
X1606358Y246882D01*
X1606240Y246891D01*
X1606122Y246905D01*
X1606005Y246922D01*
X1605889Y246943D01*
X1605774Y246968D01*
X1605659Y246997D01*
X1605545Y247030D01*
X1605433Y247066D01*
X1605321Y247106D01*
X1605211Y247149D01*
X1605103Y247196D01*
X1604996Y247247D01*
X1604891Y247301D01*
X1604788Y247358D01*
X1604686Y247419D01*
X1604587Y247483D01*
X1604490Y247550D01*
X1604395Y247621D01*
X1604302Y247694D01*
X1604212Y247771D01*
X1604124Y247850D01*
X1604039Y247932D01*
X1603957Y248017D01*
X1603878Y248105D01*
X1603801Y248195D01*
X1603728Y248288D01*
X1603657Y248382D01*
X1603590Y248480D01*
X1603526Y248579D01*
X1603465Y248680D01*
X1603408Y248784D01*
X1603354Y248889D01*
X1603303Y248996D01*
X1603256Y249104D01*
X1603213Y249214D01*
X1603173Y249326D01*
X1603137Y249438D01*
X1603104Y249552D01*
X1603075Y249667D01*
X1603050Y249782D01*
X1603029Y249898D01*
X1603012Y250015D01*
X1602998Y250133D01*
X1602989Y250251D01*
X1602983Y250369D01*
X1602981Y250487D01*
X1602982Y250487D02*
X1602982Y254100D01*
X20207Y219793D02*
X20207Y217084D01*
X20207Y219793D02*
X29238Y219793D01*
X29238Y214374D01*
X29236Y214256D01*
X29230Y214138D01*
X29221Y214020D01*
X29207Y213903D01*
X29190Y213786D01*
X29169Y213669D01*
X29144Y213554D01*
X29115Y213439D01*
X29082Y213325D01*
X29046Y213213D01*
X29006Y213102D01*
X28963Y212992D01*
X28916Y212883D01*
X28866Y212776D01*
X28811Y212671D01*
X28754Y212568D01*
X28693Y212467D01*
X28629Y212367D01*
X28562Y212270D01*
X28492Y212175D01*
X28418Y212083D01*
X28342Y211992D01*
X28262Y211905D01*
X28180Y211820D01*
X28095Y211738D01*
X28008Y211658D01*
X27917Y211582D01*
X27825Y211508D01*
X27730Y211438D01*
X27633Y211371D01*
X27533Y211307D01*
X27432Y211246D01*
X27329Y211189D01*
X27224Y211134D01*
X27117Y211084D01*
X27008Y211037D01*
X26898Y210994D01*
X26787Y210954D01*
X26675Y210918D01*
X26561Y210885D01*
X26446Y210856D01*
X26331Y210831D01*
X26214Y210810D01*
X26097Y210793D01*
X25980Y210779D01*
X25862Y210770D01*
X25744Y210764D01*
X25626Y210762D01*
X16594Y210762D01*
X16476Y210764D01*
X16358Y210770D01*
X16240Y210779D01*
X16122Y210793D01*
X16005Y210810D01*
X15889Y210831D01*
X15774Y210856D01*
X15659Y210885D01*
X15545Y210918D01*
X15433Y210954D01*
X15321Y210994D01*
X15211Y211037D01*
X15103Y211084D01*
X14996Y211135D01*
X14891Y211189D01*
X14788Y211246D01*
X14686Y211307D01*
X14587Y211371D01*
X14490Y211438D01*
X14395Y211509D01*
X14302Y211582D01*
X14212Y211659D01*
X14124Y211738D01*
X14039Y211820D01*
X13957Y211905D01*
X13878Y211993D01*
X13801Y212083D01*
X13728Y212176D01*
X13657Y212270D01*
X13590Y212368D01*
X13526Y212467D01*
X13465Y212568D01*
X13408Y212672D01*
X13354Y212777D01*
X13303Y212884D01*
X13256Y212992D01*
X13213Y213102D01*
X13173Y213214D01*
X13137Y213326D01*
X13104Y213440D01*
X13075Y213555D01*
X13050Y213670D01*
X13029Y213786D01*
X13012Y213903D01*
X12998Y214021D01*
X12989Y214139D01*
X12983Y214257D01*
X12981Y214375D01*
X12982Y214374D02*
X12982Y219793D01*
X12982Y227435D02*
X29238Y227435D01*
X29238Y236466D02*
X12982Y227435D01*
X12982Y236466D02*
X29238Y236466D01*
X29238Y244109D02*
X12982Y244109D01*
X12982Y248624D01*
X12984Y248755D01*
X12990Y248887D01*
X12999Y249018D01*
X13013Y249148D01*
X13030Y249279D01*
X13051Y249408D01*
X13075Y249537D01*
X13104Y249665D01*
X13136Y249793D01*
X13172Y249919D01*
X13211Y250044D01*
X13254Y250169D01*
X13301Y250291D01*
X13351Y250413D01*
X13405Y250533D01*
X13462Y250651D01*
X13523Y250767D01*
X13587Y250882D01*
X13654Y250995D01*
X13725Y251106D01*
X13799Y251214D01*
X13876Y251321D01*
X13956Y251425D01*
X14039Y251527D01*
X14124Y251626D01*
X14213Y251723D01*
X14305Y251817D01*
X14399Y251909D01*
X14496Y251998D01*
X14595Y252083D01*
X14697Y252166D01*
X14801Y252246D01*
X14908Y252323D01*
X15016Y252397D01*
X15127Y252468D01*
X15240Y252535D01*
X15355Y252599D01*
X15471Y252660D01*
X15589Y252717D01*
X15709Y252771D01*
X15831Y252821D01*
X15953Y252868D01*
X16078Y252911D01*
X16203Y252950D01*
X16329Y252986D01*
X16457Y253018D01*
X16585Y253047D01*
X16714Y253071D01*
X16843Y253092D01*
X16974Y253109D01*
X17104Y253123D01*
X17235Y253132D01*
X17367Y253138D01*
X17498Y253140D01*
X24722Y253140D01*
X24853Y253138D01*
X24985Y253132D01*
X25116Y253123D01*
X25246Y253109D01*
X25377Y253092D01*
X25506Y253071D01*
X25635Y253047D01*
X25763Y253018D01*
X25891Y252986D01*
X26017Y252950D01*
X26142Y252911D01*
X26267Y252868D01*
X26389Y252821D01*
X26511Y252771D01*
X26631Y252717D01*
X26749Y252660D01*
X26865Y252599D01*
X26980Y252535D01*
X27093Y252468D01*
X27204Y252397D01*
X27312Y252323D01*
X27419Y252246D01*
X27523Y252166D01*
X27625Y252083D01*
X27724Y251998D01*
X27821Y251909D01*
X27915Y251817D01*
X28007Y251723D01*
X28096Y251626D01*
X28181Y251527D01*
X28264Y251425D01*
X28344Y251321D01*
X28421Y251214D01*
X28495Y251106D01*
X28566Y250995D01*
X28633Y250882D01*
X28697Y250767D01*
X28758Y250651D01*
X28815Y250533D01*
X28869Y250413D01*
X28919Y250291D01*
X28966Y250169D01*
X29009Y250044D01*
X29048Y249919D01*
X29084Y249793D01*
X29116Y249665D01*
X29145Y249537D01*
X29169Y249408D01*
X29190Y249278D01*
X29207Y249148D01*
X29221Y249018D01*
X29230Y248887D01*
X29236Y248755D01*
X29238Y248624D01*
X29238Y244109D01*
X52982Y216181D02*
X69238Y210762D01*
X69238Y221599D02*
X52982Y216181D01*
X65174Y220245D02*
X65174Y212117D01*
X56594Y227296D02*
X52982Y231812D01*
X69238Y231812D01*
X69238Y236327D02*
X69238Y227296D01*
X92982Y216181D02*
X109238Y210762D01*
X109238Y221599D02*
X92982Y216181D01*
X105174Y220245D02*
X105174Y212117D01*
X92982Y232263D02*
X92984Y232388D01*
X92990Y232513D01*
X92999Y232638D01*
X93013Y232762D01*
X93030Y232886D01*
X93051Y233010D01*
X93076Y233132D01*
X93105Y233254D01*
X93137Y233375D01*
X93173Y233495D01*
X93213Y233614D01*
X93256Y233731D01*
X93303Y233847D01*
X93354Y233962D01*
X93408Y234074D01*
X93466Y234186D01*
X93526Y234295D01*
X93591Y234402D01*
X93658Y234508D01*
X93729Y234611D01*
X93803Y234712D01*
X93880Y234811D01*
X93960Y234907D01*
X94043Y235001D01*
X94128Y235092D01*
X94217Y235181D01*
X94308Y235266D01*
X94402Y235349D01*
X94498Y235429D01*
X94597Y235506D01*
X94698Y235580D01*
X94801Y235651D01*
X94907Y235718D01*
X95014Y235783D01*
X95123Y235843D01*
X95235Y235901D01*
X95347Y235955D01*
X95462Y236006D01*
X95578Y236053D01*
X95695Y236096D01*
X95814Y236136D01*
X95934Y236172D01*
X96055Y236204D01*
X96177Y236233D01*
X96299Y236258D01*
X96423Y236279D01*
X96547Y236296D01*
X96671Y236310D01*
X96796Y236319D01*
X96921Y236325D01*
X97046Y236327D01*
X92982Y232263D02*
X92984Y232120D01*
X92990Y231978D01*
X93000Y231835D01*
X93013Y231693D01*
X93031Y231552D01*
X93052Y231410D01*
X93077Y231270D01*
X93106Y231130D01*
X93139Y230991D01*
X93176Y230853D01*
X93216Y230716D01*
X93260Y230581D01*
X93308Y230446D01*
X93360Y230313D01*
X93415Y230181D01*
X93474Y230051D01*
X93536Y229923D01*
X93602Y229796D01*
X93671Y229671D01*
X93743Y229548D01*
X93819Y229427D01*
X93898Y229309D01*
X93981Y229192D01*
X94066Y229078D01*
X94155Y228966D01*
X94246Y228857D01*
X94341Y228750D01*
X94438Y228645D01*
X94539Y228544D01*
X94642Y228445D01*
X94747Y228349D01*
X94856Y228256D01*
X94967Y228166D01*
X95080Y228079D01*
X95195Y227995D01*
X95313Y227915D01*
X95433Y227837D01*
X95555Y227763D01*
X95679Y227693D01*
X95805Y227625D01*
X95933Y227562D01*
X96062Y227501D01*
X96193Y227444D01*
X96325Y227391D01*
X96459Y227342D01*
X96594Y227296D01*
X100207Y234972D02*
X100115Y235066D01*
X100021Y235156D01*
X99924Y235244D01*
X99824Y235329D01*
X99722Y235411D01*
X99617Y235489D01*
X99510Y235565D01*
X99401Y235637D01*
X99290Y235706D01*
X99176Y235772D01*
X99061Y235834D01*
X98944Y235893D01*
X98825Y235948D01*
X98705Y235999D01*
X98583Y236047D01*
X98460Y236092D01*
X98336Y236132D01*
X98210Y236169D01*
X98083Y236202D01*
X97956Y236231D01*
X97827Y236257D01*
X97698Y236278D01*
X97568Y236296D01*
X97438Y236309D01*
X97308Y236319D01*
X97177Y236325D01*
X97046Y236327D01*
X100207Y234973D02*
X109238Y227296D01*
X109238Y236327D01*
X132982Y210762D02*
X149238Y210762D01*
X149238Y219793D02*
X132982Y210762D01*
X132982Y219793D02*
X149238Y219793D01*
X149238Y230487D02*
X149238Y234100D01*
X149238Y230487D02*
X149236Y230369D01*
X149230Y230251D01*
X149221Y230133D01*
X149207Y230016D01*
X149190Y229899D01*
X149169Y229782D01*
X149144Y229667D01*
X149115Y229552D01*
X149082Y229438D01*
X149046Y229326D01*
X149006Y229215D01*
X148963Y229105D01*
X148916Y228996D01*
X148866Y228889D01*
X148811Y228784D01*
X148754Y228681D01*
X148693Y228580D01*
X148629Y228480D01*
X148562Y228383D01*
X148492Y228288D01*
X148418Y228196D01*
X148342Y228105D01*
X148262Y228018D01*
X148180Y227933D01*
X148095Y227851D01*
X148008Y227771D01*
X147917Y227695D01*
X147825Y227621D01*
X147730Y227551D01*
X147633Y227484D01*
X147533Y227420D01*
X147432Y227359D01*
X147329Y227302D01*
X147224Y227247D01*
X147117Y227197D01*
X147008Y227150D01*
X146898Y227107D01*
X146787Y227067D01*
X146675Y227031D01*
X146561Y226998D01*
X146446Y226969D01*
X146331Y226944D01*
X146214Y226923D01*
X146097Y226906D01*
X145980Y226892D01*
X145862Y226883D01*
X145744Y226877D01*
X145626Y226875D01*
X136594Y226875D01*
X136594Y226874D02*
X136476Y226876D01*
X136358Y226882D01*
X136240Y226891D01*
X136122Y226905D01*
X136005Y226922D01*
X135889Y226943D01*
X135774Y226968D01*
X135659Y226997D01*
X135545Y227030D01*
X135433Y227066D01*
X135321Y227106D01*
X135211Y227149D01*
X135103Y227196D01*
X134996Y227247D01*
X134891Y227301D01*
X134788Y227358D01*
X134686Y227419D01*
X134587Y227483D01*
X134490Y227550D01*
X134395Y227621D01*
X134302Y227694D01*
X134212Y227771D01*
X134124Y227850D01*
X134039Y227932D01*
X133957Y228017D01*
X133878Y228105D01*
X133801Y228195D01*
X133728Y228288D01*
X133657Y228382D01*
X133590Y228480D01*
X133526Y228579D01*
X133465Y228680D01*
X133408Y228784D01*
X133354Y228889D01*
X133303Y228996D01*
X133256Y229104D01*
X133213Y229214D01*
X133173Y229326D01*
X133137Y229438D01*
X133104Y229552D01*
X133075Y229667D01*
X133050Y229782D01*
X133029Y229898D01*
X133012Y230015D01*
X132998Y230133D01*
X132989Y230251D01*
X132983Y230369D01*
X132981Y230487D01*
X132982Y230487D02*
X132982Y234100D01*
X172982Y210762D02*
X189238Y210762D01*
X189238Y219793D02*
X172982Y210762D01*
X172982Y219793D02*
X189238Y219793D01*
X189238Y230487D02*
X189238Y234100D01*
X189238Y230487D02*
X189236Y230369D01*
X189230Y230251D01*
X189221Y230133D01*
X189207Y230016D01*
X189190Y229899D01*
X189169Y229782D01*
X189144Y229667D01*
X189115Y229552D01*
X189082Y229438D01*
X189046Y229326D01*
X189006Y229215D01*
X188963Y229105D01*
X188916Y228996D01*
X188866Y228889D01*
X188811Y228784D01*
X188754Y228681D01*
X188693Y228580D01*
X188629Y228480D01*
X188562Y228383D01*
X188492Y228288D01*
X188418Y228196D01*
X188342Y228105D01*
X188262Y228018D01*
X188180Y227933D01*
X188095Y227851D01*
X188008Y227771D01*
X187917Y227695D01*
X187825Y227621D01*
X187730Y227551D01*
X187633Y227484D01*
X187533Y227420D01*
X187432Y227359D01*
X187329Y227302D01*
X187224Y227247D01*
X187117Y227197D01*
X187008Y227150D01*
X186898Y227107D01*
X186787Y227067D01*
X186675Y227031D01*
X186561Y226998D01*
X186446Y226969D01*
X186331Y226944D01*
X186214Y226923D01*
X186097Y226906D01*
X185980Y226892D01*
X185862Y226883D01*
X185744Y226877D01*
X185626Y226875D01*
X176594Y226875D01*
X176594Y226874D02*
X176476Y226876D01*
X176358Y226882D01*
X176240Y226891D01*
X176122Y226905D01*
X176005Y226922D01*
X175889Y226943D01*
X175774Y226968D01*
X175659Y226997D01*
X175545Y227030D01*
X175433Y227066D01*
X175321Y227106D01*
X175211Y227149D01*
X175103Y227196D01*
X174996Y227247D01*
X174891Y227301D01*
X174788Y227358D01*
X174686Y227419D01*
X174587Y227483D01*
X174490Y227550D01*
X174395Y227621D01*
X174302Y227694D01*
X174212Y227771D01*
X174124Y227850D01*
X174039Y227932D01*
X173957Y228017D01*
X173878Y228105D01*
X173801Y228195D01*
X173728Y228288D01*
X173657Y228382D01*
X173590Y228480D01*
X173526Y228579D01*
X173465Y228680D01*
X173408Y228784D01*
X173354Y228889D01*
X173303Y228996D01*
X173256Y229104D01*
X173213Y229214D01*
X173173Y229326D01*
X173137Y229438D01*
X173104Y229552D01*
X173075Y229667D01*
X173050Y229782D01*
X173029Y229898D01*
X173012Y230015D01*
X172998Y230133D01*
X172989Y230251D01*
X172983Y230369D01*
X172981Y230487D01*
X172982Y230487D02*
X172982Y234100D01*
X242916Y21599D02*
X242916Y10762D01*
X237498Y16181D02*
X248335Y16181D01*
X236594Y28338D02*
X232982Y32854D01*
X249238Y32854D01*
X249238Y28338D02*
X249238Y37370D01*
X237046Y53001D02*
X236921Y52999D01*
X236796Y52993D01*
X236671Y52984D01*
X236547Y52970D01*
X236423Y52953D01*
X236299Y52932D01*
X236177Y52907D01*
X236055Y52878D01*
X235934Y52846D01*
X235814Y52810D01*
X235695Y52770D01*
X235578Y52727D01*
X235462Y52680D01*
X235347Y52629D01*
X235235Y52575D01*
X235123Y52517D01*
X235014Y52457D01*
X234907Y52392D01*
X234801Y52325D01*
X234698Y52254D01*
X234597Y52180D01*
X234498Y52103D01*
X234402Y52023D01*
X234308Y51940D01*
X234217Y51855D01*
X234128Y51766D01*
X234043Y51675D01*
X233960Y51581D01*
X233880Y51485D01*
X233803Y51386D01*
X233729Y51285D01*
X233658Y51182D01*
X233591Y51076D01*
X233526Y50969D01*
X233466Y50860D01*
X233408Y50748D01*
X233354Y50636D01*
X233303Y50521D01*
X233256Y50405D01*
X233213Y50288D01*
X233173Y50169D01*
X233137Y50049D01*
X233105Y49928D01*
X233076Y49806D01*
X233051Y49684D01*
X233030Y49560D01*
X233013Y49436D01*
X232999Y49312D01*
X232990Y49187D01*
X232984Y49062D01*
X232982Y48937D01*
X232984Y48794D01*
X232990Y48652D01*
X233000Y48509D01*
X233013Y48367D01*
X233031Y48226D01*
X233052Y48084D01*
X233077Y47944D01*
X233106Y47804D01*
X233139Y47665D01*
X233176Y47527D01*
X233216Y47390D01*
X233260Y47255D01*
X233308Y47120D01*
X233360Y46987D01*
X233415Y46855D01*
X233474Y46725D01*
X233536Y46597D01*
X233602Y46470D01*
X233671Y46345D01*
X233743Y46222D01*
X233819Y46101D01*
X233898Y45983D01*
X233981Y45866D01*
X234066Y45752D01*
X234155Y45640D01*
X234246Y45531D01*
X234341Y45424D01*
X234438Y45319D01*
X234539Y45218D01*
X234642Y45119D01*
X234747Y45023D01*
X234856Y44930D01*
X234967Y44840D01*
X235080Y44753D01*
X235195Y44669D01*
X235313Y44589D01*
X235433Y44511D01*
X235555Y44437D01*
X235679Y44367D01*
X235805Y44299D01*
X235933Y44236D01*
X236062Y44175D01*
X236193Y44118D01*
X236325Y44065D01*
X236459Y44016D01*
X236594Y43970D01*
X240207Y51646D02*
X240115Y51740D01*
X240021Y51830D01*
X239924Y51918D01*
X239824Y52003D01*
X239722Y52085D01*
X239617Y52163D01*
X239510Y52239D01*
X239401Y52311D01*
X239290Y52380D01*
X239176Y52446D01*
X239061Y52508D01*
X238944Y52567D01*
X238825Y52622D01*
X238705Y52673D01*
X238583Y52721D01*
X238460Y52766D01*
X238336Y52806D01*
X238210Y52843D01*
X238083Y52876D01*
X237956Y52905D01*
X237827Y52931D01*
X237698Y52952D01*
X237568Y52970D01*
X237438Y52983D01*
X237308Y52993D01*
X237177Y52999D01*
X237046Y53001D01*
X240207Y51646D02*
X249238Y43970D01*
X249238Y53001D01*
X249238Y64116D02*
X232982Y58698D01*
X232982Y69535D02*
X249238Y64116D01*
X251044Y74572D02*
X251044Y81797D01*
X249238Y92635D02*
X249236Y92753D01*
X249230Y92871D01*
X249221Y92989D01*
X249207Y93106D01*
X249190Y93223D01*
X249169Y93340D01*
X249144Y93455D01*
X249115Y93570D01*
X249082Y93684D01*
X249046Y93796D01*
X249006Y93907D01*
X248963Y94017D01*
X248916Y94126D01*
X248866Y94233D01*
X248811Y94338D01*
X248754Y94441D01*
X248693Y94542D01*
X248629Y94642D01*
X248562Y94739D01*
X248492Y94834D01*
X248418Y94926D01*
X248342Y95017D01*
X248262Y95104D01*
X248180Y95189D01*
X248095Y95271D01*
X248008Y95351D01*
X247917Y95427D01*
X247825Y95501D01*
X247730Y95571D01*
X247633Y95638D01*
X247533Y95702D01*
X247432Y95763D01*
X247329Y95820D01*
X247224Y95875D01*
X247117Y95925D01*
X247008Y95972D01*
X246898Y96015D01*
X246787Y96055D01*
X246675Y96091D01*
X246561Y96124D01*
X246446Y96153D01*
X246331Y96178D01*
X246214Y96199D01*
X246097Y96216D01*
X245980Y96230D01*
X245862Y96239D01*
X245744Y96245D01*
X245626Y96247D01*
X249238Y92635D02*
X249236Y92452D01*
X249229Y92270D01*
X249218Y92088D01*
X249203Y91906D01*
X249183Y91724D01*
X249160Y91543D01*
X249131Y91363D01*
X249099Y91183D01*
X249062Y91004D01*
X249021Y90827D01*
X248975Y90650D01*
X248926Y90474D01*
X248872Y90300D01*
X248814Y90126D01*
X248752Y89955D01*
X248686Y89785D01*
X248615Y89616D01*
X248541Y89449D01*
X248463Y89284D01*
X248381Y89121D01*
X248295Y88960D01*
X248205Y88801D01*
X248111Y88644D01*
X248014Y88490D01*
X247913Y88338D01*
X247808Y88188D01*
X247700Y88041D01*
X247589Y87897D01*
X247474Y87755D01*
X247355Y87616D01*
X247233Y87480D01*
X247108Y87347D01*
X246980Y87217D01*
X236594Y87668D02*
X236476Y87670D01*
X236358Y87676D01*
X236240Y87685D01*
X236123Y87699D01*
X236006Y87716D01*
X235889Y87737D01*
X235774Y87762D01*
X235659Y87791D01*
X235545Y87824D01*
X235433Y87860D01*
X235322Y87900D01*
X235212Y87943D01*
X235103Y87990D01*
X234996Y88040D01*
X234891Y88095D01*
X234788Y88152D01*
X234687Y88213D01*
X234587Y88277D01*
X234490Y88344D01*
X234395Y88414D01*
X234303Y88488D01*
X234212Y88564D01*
X234125Y88644D01*
X234040Y88726D01*
X233958Y88811D01*
X233878Y88898D01*
X233802Y88989D01*
X233728Y89081D01*
X233658Y89176D01*
X233591Y89273D01*
X233527Y89373D01*
X233466Y89474D01*
X233409Y89577D01*
X233354Y89682D01*
X233304Y89789D01*
X233257Y89898D01*
X233214Y90008D01*
X233174Y90119D01*
X233138Y90231D01*
X233105Y90345D01*
X233076Y90460D01*
X233051Y90575D01*
X233030Y90692D01*
X233013Y90809D01*
X232999Y90926D01*
X232990Y91044D01*
X232984Y91162D01*
X232982Y91280D01*
X232984Y91441D01*
X232990Y91603D01*
X232999Y91764D01*
X233013Y91925D01*
X233030Y92085D01*
X233051Y92245D01*
X233076Y92405D01*
X233105Y92564D01*
X233137Y92722D01*
X233173Y92879D01*
X233213Y93035D01*
X233257Y93191D01*
X233305Y93345D01*
X233356Y93498D01*
X233410Y93650D01*
X233469Y93801D01*
X233530Y93950D01*
X233596Y94097D01*
X233665Y94243D01*
X233737Y94388D01*
X233813Y94530D01*
X233892Y94671D01*
X233974Y94810D01*
X234060Y94946D01*
X234149Y95081D01*
X234241Y95214D01*
X234337Y95344D01*
X239755Y89473D02*
X239693Y89372D01*
X239628Y89272D01*
X239559Y89175D01*
X239487Y89080D01*
X239413Y88987D01*
X239335Y88897D01*
X239254Y88809D01*
X239171Y88724D01*
X239085Y88642D01*
X238996Y88563D01*
X238905Y88486D01*
X238811Y88413D01*
X238715Y88342D01*
X238617Y88275D01*
X238517Y88211D01*
X238414Y88150D01*
X238310Y88093D01*
X238204Y88039D01*
X238096Y87989D01*
X237987Y87942D01*
X237876Y87898D01*
X237764Y87858D01*
X237650Y87822D01*
X237536Y87790D01*
X237420Y87761D01*
X237304Y87736D01*
X237187Y87715D01*
X237069Y87698D01*
X236951Y87684D01*
X236832Y87675D01*
X236713Y87669D01*
X236594Y87667D01*
X242465Y94441D02*
X242527Y94542D01*
X242592Y94642D01*
X242661Y94739D01*
X242733Y94834D01*
X242807Y94927D01*
X242885Y95017D01*
X242966Y95105D01*
X243049Y95190D01*
X243135Y95272D01*
X243224Y95351D01*
X243315Y95428D01*
X243409Y95501D01*
X243505Y95572D01*
X243603Y95639D01*
X243703Y95703D01*
X243806Y95764D01*
X243910Y95821D01*
X244016Y95875D01*
X244124Y95925D01*
X244233Y95972D01*
X244344Y96016D01*
X244456Y96056D01*
X244570Y96092D01*
X244684Y96124D01*
X244800Y96153D01*
X244916Y96178D01*
X245033Y96199D01*
X245151Y96216D01*
X245269Y96230D01*
X245388Y96239D01*
X245507Y96245D01*
X245626Y96247D01*
X242465Y94441D02*
X239755Y89474D01*
X249238Y101423D02*
X232982Y106842D01*
X249238Y112260D01*
X245174Y110906D02*
X245174Y102778D01*
X249238Y118508D02*
X232982Y118508D01*
X232982Y125733D01*
X240207Y125733D02*
X240207Y118508D01*
X249238Y132055D02*
X249238Y139280D01*
X249238Y132055D02*
X232982Y132055D01*
X232982Y139280D01*
X240207Y137474D02*
X240207Y132055D01*
D11*
X720000Y550000D02*
X720000Y680000D01*
X720000Y550000D02*
X930000Y340000D01*
X930000Y-30000D01*
X720000Y550000D02*
X720000Y680000D01*
X720000Y550000D02*
X930000Y340000D01*
X930000Y-30000D01*
X720000Y550000D02*
X720000Y680000D01*
X720000Y550000D02*
X930000Y340000D01*
X930000Y-30000D01*
D10*
X220000Y321400D02*
X220096Y329192D01*
X220382Y336979D01*
X220860Y344757D01*
X221529Y352520D01*
X222388Y360265D01*
X223436Y367987D01*
X224674Y375680D01*
X226101Y383341D01*
X227715Y390965D01*
X229515Y398546D01*
X231501Y406081D01*
X233671Y413565D01*
X236025Y420994D01*
X238560Y428363D01*
X241275Y435667D01*
X244168Y442902D01*
X247238Y450064D01*
X250483Y457149D01*
X253901Y464152D01*
X257490Y471068D01*
X261247Y477895D01*
X265171Y484628D01*
X269259Y491262D01*
X273508Y497794D01*
X277917Y504219D01*
X282482Y510535D01*
X287200Y516736D01*
X292069Y522820D01*
X297086Y528782D01*
X302248Y534620D01*
X307552Y540329D01*
X312994Y545906D01*
X318571Y551348D01*
X324280Y556652D01*
X330118Y561814D01*
X336080Y566831D01*
X342164Y571700D01*
X348365Y576418D01*
X354681Y580983D01*
X361106Y585392D01*
X367638Y589641D01*
X374272Y593729D01*
X381005Y597653D01*
X387832Y601410D01*
X394748Y604999D01*
X401751Y608417D01*
X408836Y611662D01*
X415998Y614732D01*
X423233Y617625D01*
X430537Y620340D01*
X437906Y622875D01*
X445335Y625229D01*
X452819Y627399D01*
X460354Y629385D01*
X467935Y631185D01*
X475559Y632799D01*
X483220Y634226D01*
X490913Y635464D01*
X498635Y636512D01*
X506380Y637371D01*
X514143Y638040D01*
X521921Y638518D01*
X529708Y638804D01*
X537500Y638900D01*
X545292Y638804D01*
X553079Y638518D01*
X560857Y638040D01*
X568620Y637371D01*
X576365Y636512D01*
X584087Y635464D01*
X591780Y634226D01*
X599441Y632799D01*
X607065Y631185D01*
X614646Y629385D01*
X622181Y627399D01*
X629665Y625229D01*
X637094Y622875D01*
X644463Y620340D01*
X651767Y617625D01*
X659002Y614732D01*
X666164Y611662D01*
X673249Y608417D01*
X680252Y604999D01*
X687168Y601410D01*
X693995Y597653D01*
X700728Y593729D01*
X707362Y589641D01*
X713894Y585392D01*
X720319Y580983D01*
X726635Y576418D01*
X732836Y571700D01*
X738920Y566831D01*
X744882Y561814D01*
X750720Y556652D01*
X756429Y551348D01*
X762006Y545906D01*
X767448Y540329D01*
X772752Y534620D01*
X777914Y528782D01*
X782931Y522820D01*
X787800Y516736D01*
X792518Y510535D01*
X797083Y504219D01*
X801492Y497794D01*
X805741Y491262D01*
X809829Y484628D01*
X813753Y477895D01*
X817510Y471068D01*
X821099Y464152D01*
X824517Y457149D01*
X827762Y450064D01*
X830832Y442902D01*
X833725Y435667D01*
X836440Y428363D01*
X838975Y420994D01*
X841329Y413565D01*
X843499Y406081D01*
X845485Y398546D01*
X847285Y390965D01*
X848899Y383341D01*
X850326Y375680D01*
X851564Y367987D01*
X852612Y360265D01*
X853471Y352520D01*
X854140Y344757D01*
X854618Y336979D01*
X854904Y329192D01*
X855000Y321400D01*
X854904Y313608D01*
X854618Y305821D01*
X854140Y298043D01*
X853471Y290280D01*
X852612Y282535D01*
X851564Y274813D01*
X850326Y267120D01*
X848899Y259459D01*
X847285Y251835D01*
X845485Y244254D01*
X843499Y236719D01*
X841329Y229235D01*
X838975Y221806D01*
X836440Y214437D01*
X833725Y207133D01*
X830832Y199898D01*
X827762Y192736D01*
X824517Y185651D01*
X821099Y178648D01*
X817510Y171732D01*
X813753Y164905D01*
X809829Y158172D01*
X805741Y151538D01*
X801492Y145006D01*
X797083Y138581D01*
X792518Y132265D01*
X787800Y126064D01*
X782931Y119980D01*
X777914Y114018D01*
X772752Y108180D01*
X767448Y102471D01*
X762006Y96894D01*
X756429Y91452D01*
X750720Y86148D01*
X744882Y80986D01*
X738920Y75969D01*
X732836Y71100D01*
X726635Y66382D01*
X720319Y61817D01*
X713894Y57408D01*
X707362Y53159D01*
X700728Y49071D01*
X693995Y45147D01*
X687168Y41390D01*
X680252Y37801D01*
X673249Y34383D01*
X666164Y31138D01*
X659002Y28068D01*
X651767Y25175D01*
X644463Y22460D01*
X637094Y19925D01*
X629665Y17571D01*
X622181Y15401D01*
X614646Y13415D01*
X607065Y11615D01*
X599441Y10001D01*
X591780Y8574D01*
X584087Y7336D01*
X576365Y6288D01*
X568620Y5429D01*
X560857Y4760D01*
X553079Y4282D01*
X545292Y3996D01*
X537500Y3900D01*
X529708Y3996D01*
X521921Y4282D01*
X514143Y4760D01*
X506380Y5429D01*
X498635Y6288D01*
X490913Y7336D01*
X483220Y8574D01*
X475559Y10001D01*
X467935Y11615D01*
X460354Y13415D01*
X452819Y15401D01*
X445335Y17571D01*
X437906Y19925D01*
X430537Y22460D01*
X423233Y25175D01*
X415998Y28068D01*
X408836Y31138D01*
X401751Y34383D01*
X394748Y37801D01*
X387832Y41390D01*
X381005Y45147D01*
X374272Y49071D01*
X367638Y53159D01*
X361106Y57408D01*
X354681Y61817D01*
X348365Y66382D01*
X342164Y71100D01*
X336080Y75969D01*
X330118Y80986D01*
X324280Y86148D01*
X318571Y91452D01*
X312994Y96894D01*
X307552Y102471D01*
X302248Y108180D01*
X297086Y114018D01*
X292069Y119980D01*
X287200Y126064D01*
X282482Y132265D01*
X277917Y138581D01*
X273508Y145006D01*
X269259Y151538D01*
X265171Y158172D01*
X261247Y164905D01*
X257490Y171732D01*
X253901Y178648D01*
X250483Y185651D01*
X247238Y192736D01*
X244168Y199898D01*
X241275Y207133D01*
X238560Y214437D01*
X236025Y221806D01*
X233671Y229235D01*
X231501Y236719D01*
X229515Y244254D01*
X227715Y251835D01*
X226101Y259459D01*
X224674Y267120D01*
X223436Y274813D01*
X222388Y282535D01*
X221529Y290280D01*
X220860Y298043D01*
X220382Y305821D01*
X220096Y313608D01*
X220000Y321400D01*
D12*
X220000Y200400D02*
X0Y200400D01*
X220000Y200400D02*
X220000Y133400D01*
X220000Y122400D02*
X220000Y-29600D01*
X0Y-29600D01*
X0Y200400D01*
X220000Y133400D02*
X220148Y133398D01*
X220295Y133392D01*
X220443Y133382D01*
X220590Y133368D01*
X220736Y133351D01*
X220882Y133329D01*
X221028Y133303D01*
X221172Y133274D01*
X221316Y133240D01*
X221459Y133203D01*
X221601Y133162D01*
X221742Y133117D01*
X221881Y133068D01*
X222019Y133016D01*
X222156Y132960D01*
X222291Y132900D01*
X222424Y132837D01*
X222556Y132770D01*
X222686Y132700D01*
X222814Y132626D01*
X222940Y132549D01*
X223063Y132468D01*
X223185Y132384D01*
X223304Y132297D01*
X223421Y132207D01*
X223535Y132113D01*
X223647Y132017D01*
X223756Y131917D01*
X223863Y131815D01*
X223967Y131710D01*
X224067Y131602D01*
X224165Y131492D01*
X224260Y131378D01*
X224352Y131263D01*
X224441Y131145D01*
X224526Y131024D01*
X224609Y130902D01*
X224688Y130777D01*
X224763Y130650D01*
X224835Y130521D01*
X224904Y130390D01*
X224969Y130258D01*
X225030Y130124D01*
X225088Y129988D01*
X225143Y129850D01*
X225193Y129712D01*
X225240Y129571D01*
X225283Y129430D01*
X225322Y129288D01*
X225357Y129144D01*
X225389Y129000D01*
X225416Y128855D01*
X225440Y128709D01*
X225460Y128563D01*
X225476Y128416D01*
X225488Y128269D01*
X225496Y128121D01*
X225500Y127974D01*
X225500Y127826D01*
X225496Y127679D01*
X225488Y127531D01*
X225476Y127384D01*
X225460Y127237D01*
X225440Y127091D01*
X225416Y126945D01*
X225389Y126800D01*
X225357Y126656D01*
X225322Y126512D01*
X225283Y126370D01*
X225240Y126229D01*
X225193Y126088D01*
X225143Y125950D01*
X225088Y125812D01*
X225030Y125676D01*
X224969Y125542D01*
X224904Y125410D01*
X224835Y125279D01*
X224763Y125150D01*
X224688Y125023D01*
X224609Y124898D01*
X224526Y124776D01*
X224441Y124655D01*
X224352Y124537D01*
X224260Y124422D01*
X224165Y124308D01*
X224067Y124198D01*
X223967Y124090D01*
X223863Y123985D01*
X223756Y123883D01*
X223647Y123783D01*
X223535Y123687D01*
X223421Y123593D01*
X223304Y123503D01*
X223185Y123416D01*
X223063Y123332D01*
X222940Y123251D01*
X222814Y123174D01*
X222686Y123100D01*
X222556Y123030D01*
X222424Y122963D01*
X222291Y122900D01*
X222156Y122840D01*
X222019Y122784D01*
X221881Y122732D01*
X221742Y122683D01*
X221601Y122638D01*
X221459Y122597D01*
X221316Y122560D01*
X221172Y122526D01*
X221028Y122497D01*
X220882Y122471D01*
X220736Y122449D01*
X220590Y122432D01*
X220443Y122418D01*
X220295Y122408D01*
X220148Y122402D01*
X220000Y122400D01*
X131000Y218400D02*
X89000Y218400D01*
X89000Y201400D01*
X131000Y201400D02*
X131000Y218400D01*
D13*
X167658Y97742D02*
X167658Y89304D01*
X167660Y89191D01*
X167666Y89078D01*
X167676Y88965D01*
X167690Y88852D01*
X167707Y88740D01*
X167729Y88629D01*
X167754Y88519D01*
X167784Y88409D01*
X167817Y88301D01*
X167854Y88194D01*
X167894Y88088D01*
X167939Y87984D01*
X167987Y87881D01*
X168038Y87780D01*
X168093Y87681D01*
X168151Y87584D01*
X168213Y87489D01*
X168278Y87396D01*
X168346Y87306D01*
X168417Y87218D01*
X168492Y87132D01*
X168569Y87049D01*
X168649Y86969D01*
X168732Y86892D01*
X168818Y86817D01*
X168906Y86746D01*
X168996Y86678D01*
X169089Y86613D01*
X169184Y86551D01*
X169281Y86493D01*
X169380Y86438D01*
X169481Y86387D01*
X169584Y86339D01*
X169688Y86294D01*
X169794Y86254D01*
X169901Y86217D01*
X170009Y86184D01*
X170119Y86154D01*
X170229Y86129D01*
X170340Y86107D01*
X170452Y86090D01*
X170565Y86076D01*
X170678Y86066D01*
X170791Y86060D01*
X170904Y86058D01*
X171017Y86060D01*
X171130Y86066D01*
X171243Y86076D01*
X171356Y86090D01*
X171468Y86107D01*
X171579Y86129D01*
X171689Y86154D01*
X171799Y86184D01*
X171907Y86217D01*
X172014Y86254D01*
X172120Y86294D01*
X172224Y86339D01*
X172327Y86387D01*
X172428Y86438D01*
X172527Y86493D01*
X172624Y86551D01*
X172719Y86613D01*
X172812Y86678D01*
X172902Y86746D01*
X172990Y86817D01*
X173076Y86892D01*
X173159Y86969D01*
X173239Y87049D01*
X173316Y87132D01*
X173391Y87218D01*
X173462Y87306D01*
X173530Y87396D01*
X173595Y87489D01*
X173657Y87584D01*
X173715Y87681D01*
X173770Y87780D01*
X173821Y87881D01*
X173869Y87984D01*
X173914Y88088D01*
X173954Y88194D01*
X173991Y88301D01*
X174024Y88409D01*
X174054Y88519D01*
X174079Y88629D01*
X174101Y88740D01*
X174118Y88852D01*
X174132Y88965D01*
X174142Y89078D01*
X174148Y89191D01*
X174150Y89304D01*
X174149Y89304D02*
X174149Y97742D01*
X181953Y97742D02*
X181953Y86058D01*
X181953Y91900D02*
X180330Y92874D01*
X180329Y92873D02*
X180256Y92920D01*
X180185Y92969D01*
X180115Y93022D01*
X180049Y93078D01*
X179985Y93137D01*
X179923Y93198D01*
X179865Y93262D01*
X179809Y93329D01*
X179757Y93398D01*
X179707Y93470D01*
X179661Y93544D01*
X179618Y93619D01*
X179579Y93697D01*
X179543Y93776D01*
X179511Y93857D01*
X179482Y93939D01*
X179457Y94022D01*
X179436Y94106D01*
X179419Y94191D01*
X179405Y94277D01*
X179396Y94363D01*
X179390Y94450D01*
X179388Y94537D01*
X179390Y94624D01*
X179396Y94711D01*
X179406Y94797D01*
X179419Y94883D01*
X179437Y94968D01*
X179458Y95052D01*
X179483Y95135D01*
X179512Y95218D01*
X179544Y95298D01*
X179580Y95377D01*
X179619Y95455D01*
X179662Y95530D01*
X179709Y95604D01*
X179758Y95675D01*
X179811Y95745D01*
X179866Y95811D01*
X179925Y95875D01*
X179986Y95937D01*
X180051Y95996D01*
X180117Y96051D01*
X180186Y96104D01*
X180258Y96154D01*
X180331Y96200D01*
X180407Y96243D01*
X180484Y96282D01*
X180563Y96318D01*
X180644Y96351D01*
X180726Y96379D01*
X180809Y96405D01*
X180893Y96426D01*
X180979Y96443D01*
X180979Y96444D02*
X181119Y96468D01*
X181261Y96488D01*
X181402Y96504D01*
X181544Y96515D01*
X181687Y96523D01*
X181829Y96527D01*
X181972Y96528D01*
X182115Y96524D01*
X182257Y96516D01*
X182399Y96504D01*
X182541Y96488D01*
X182682Y96469D01*
X182823Y96445D01*
X182963Y96418D01*
X183102Y96386D01*
X183240Y96351D01*
X183378Y96312D01*
X183514Y96269D01*
X183648Y96223D01*
X183782Y96172D01*
X183914Y96119D01*
X184044Y96061D01*
X184173Y96000D01*
X184300Y95935D01*
X184426Y95867D01*
X184549Y95795D01*
X181953Y91900D02*
X183575Y90926D01*
X183576Y90927D02*
X183649Y90880D01*
X183720Y90831D01*
X183790Y90778D01*
X183856Y90722D01*
X183920Y90663D01*
X183982Y90602D01*
X184040Y90538D01*
X184096Y90471D01*
X184148Y90402D01*
X184198Y90330D01*
X184244Y90256D01*
X184287Y90181D01*
X184326Y90103D01*
X184362Y90024D01*
X184394Y89943D01*
X184423Y89861D01*
X184448Y89778D01*
X184469Y89694D01*
X184486Y89609D01*
X184500Y89523D01*
X184509Y89437D01*
X184515Y89350D01*
X184517Y89263D01*
X184515Y89176D01*
X184509Y89089D01*
X184499Y89003D01*
X184486Y88917D01*
X184468Y88832D01*
X184447Y88748D01*
X184422Y88665D01*
X184393Y88582D01*
X184361Y88502D01*
X184325Y88423D01*
X184286Y88345D01*
X184243Y88270D01*
X184196Y88196D01*
X184147Y88125D01*
X184094Y88055D01*
X184039Y87989D01*
X183980Y87925D01*
X183919Y87863D01*
X183854Y87804D01*
X183788Y87749D01*
X183719Y87696D01*
X183647Y87646D01*
X183574Y87600D01*
X183498Y87557D01*
X183421Y87518D01*
X183342Y87482D01*
X183261Y87449D01*
X183179Y87421D01*
X183096Y87395D01*
X183012Y87374D01*
X182927Y87357D01*
X182926Y87356D02*
X182786Y87332D01*
X182644Y87312D01*
X182503Y87296D01*
X182361Y87285D01*
X182218Y87277D01*
X182076Y87273D01*
X181933Y87272D01*
X181790Y87276D01*
X181648Y87284D01*
X181506Y87296D01*
X181364Y87312D01*
X181223Y87331D01*
X181082Y87355D01*
X180942Y87382D01*
X180803Y87414D01*
X180665Y87449D01*
X180527Y87488D01*
X180391Y87531D01*
X180257Y87577D01*
X180123Y87628D01*
X179991Y87681D01*
X179861Y87739D01*
X179732Y87800D01*
X179605Y87865D01*
X179479Y87933D01*
X179356Y88005D01*
X189375Y86058D02*
X192621Y86058D01*
X192734Y86060D01*
X192847Y86066D01*
X192960Y86076D01*
X193073Y86090D01*
X193185Y86107D01*
X193296Y86129D01*
X193406Y86154D01*
X193516Y86184D01*
X193624Y86217D01*
X193731Y86254D01*
X193837Y86294D01*
X193941Y86339D01*
X194044Y86387D01*
X194145Y86438D01*
X194244Y86493D01*
X194341Y86551D01*
X194436Y86613D01*
X194529Y86678D01*
X194619Y86746D01*
X194707Y86817D01*
X194793Y86892D01*
X194876Y86969D01*
X194956Y87049D01*
X195033Y87132D01*
X195108Y87218D01*
X195179Y87306D01*
X195247Y87396D01*
X195312Y87489D01*
X195374Y87584D01*
X195432Y87681D01*
X195487Y87780D01*
X195538Y87881D01*
X195586Y87984D01*
X195631Y88088D01*
X195671Y88194D01*
X195708Y88301D01*
X195741Y88409D01*
X195771Y88519D01*
X195796Y88629D01*
X195818Y88740D01*
X195835Y88852D01*
X195849Y88965D01*
X195859Y89078D01*
X195865Y89191D01*
X195867Y89304D01*
X195865Y89417D01*
X195859Y89530D01*
X195849Y89643D01*
X195835Y89756D01*
X195818Y89868D01*
X195796Y89979D01*
X195771Y90089D01*
X195741Y90199D01*
X195708Y90307D01*
X195671Y90414D01*
X195631Y90520D01*
X195586Y90624D01*
X195538Y90727D01*
X195487Y90828D01*
X195432Y90927D01*
X195374Y91024D01*
X195312Y91119D01*
X195247Y91212D01*
X195179Y91302D01*
X195108Y91390D01*
X195033Y91476D01*
X194956Y91559D01*
X194876Y91639D01*
X194793Y91716D01*
X194707Y91791D01*
X194619Y91862D01*
X194529Y91930D01*
X194436Y91995D01*
X194341Y92057D01*
X194244Y92115D01*
X194145Y92170D01*
X194044Y92221D01*
X193941Y92269D01*
X193837Y92314D01*
X193731Y92354D01*
X193624Y92391D01*
X193516Y92424D01*
X193406Y92454D01*
X193296Y92479D01*
X193185Y92501D01*
X193073Y92518D01*
X192960Y92532D01*
X192847Y92542D01*
X192734Y92548D01*
X192621Y92550D01*
X193270Y97742D02*
X189375Y97742D01*
X193270Y97742D02*
X193371Y97740D01*
X193471Y97734D01*
X193571Y97724D01*
X193671Y97711D01*
X193770Y97693D01*
X193869Y97672D01*
X193966Y97647D01*
X194063Y97618D01*
X194158Y97585D01*
X194252Y97549D01*
X194344Y97509D01*
X194435Y97466D01*
X194524Y97419D01*
X194611Y97369D01*
X194697Y97315D01*
X194780Y97258D01*
X194860Y97198D01*
X194939Y97135D01*
X195015Y97068D01*
X195088Y96999D01*
X195158Y96927D01*
X195226Y96853D01*
X195291Y96776D01*
X195352Y96696D01*
X195411Y96614D01*
X195466Y96530D01*
X195518Y96444D01*
X195567Y96356D01*
X195612Y96266D01*
X195654Y96174D01*
X195692Y96081D01*
X195726Y95986D01*
X195757Y95891D01*
X195784Y95794D01*
X195807Y95696D01*
X195827Y95597D01*
X195842Y95497D01*
X195854Y95397D01*
X195862Y95297D01*
X195866Y95196D01*
X195866Y95096D01*
X195862Y94995D01*
X195854Y94895D01*
X195842Y94795D01*
X195827Y94695D01*
X195807Y94596D01*
X195784Y94498D01*
X195757Y94401D01*
X195726Y94306D01*
X195692Y94211D01*
X195654Y94118D01*
X195612Y94026D01*
X195567Y93936D01*
X195518Y93848D01*
X195466Y93762D01*
X195411Y93678D01*
X195352Y93596D01*
X195291Y93516D01*
X195226Y93439D01*
X195158Y93365D01*
X195088Y93293D01*
X195015Y93224D01*
X194939Y93157D01*
X194860Y93094D01*
X194780Y93034D01*
X194697Y92977D01*
X194611Y92923D01*
X194524Y92873D01*
X194435Y92826D01*
X194344Y92783D01*
X194252Y92743D01*
X194158Y92707D01*
X194063Y92674D01*
X193966Y92645D01*
X193869Y92620D01*
X193770Y92599D01*
X193671Y92581D01*
X193571Y92568D01*
X193471Y92558D01*
X193371Y92552D01*
X193270Y92550D01*
X193270Y92549D02*
X190673Y92549D01*
X12154Y97742D02*
X8908Y95146D01*
X12154Y97742D02*
X12154Y86058D01*
X15399Y86058D02*
X8908Y86058D01*
X20338Y86058D02*
X24233Y86058D01*
X24332Y86060D01*
X24432Y86066D01*
X24531Y86075D01*
X24629Y86088D01*
X24727Y86105D01*
X24825Y86126D01*
X24921Y86151D01*
X25016Y86179D01*
X25110Y86211D01*
X25203Y86246D01*
X25295Y86285D01*
X25385Y86328D01*
X25473Y86373D01*
X25560Y86423D01*
X25644Y86475D01*
X25727Y86531D01*
X25807Y86589D01*
X25885Y86651D01*
X25960Y86716D01*
X26033Y86784D01*
X26103Y86854D01*
X26171Y86927D01*
X26236Y87002D01*
X26298Y87080D01*
X26356Y87160D01*
X26412Y87243D01*
X26464Y87327D01*
X26514Y87414D01*
X26559Y87502D01*
X26602Y87592D01*
X26641Y87684D01*
X26676Y87777D01*
X26708Y87871D01*
X26736Y87966D01*
X26761Y88062D01*
X26782Y88160D01*
X26799Y88258D01*
X26812Y88356D01*
X26821Y88455D01*
X26827Y88555D01*
X26829Y88654D01*
X26829Y89953D01*
X26827Y90052D01*
X26821Y90152D01*
X26812Y90251D01*
X26799Y90349D01*
X26782Y90447D01*
X26761Y90545D01*
X26736Y90641D01*
X26708Y90736D01*
X26676Y90830D01*
X26641Y90923D01*
X26602Y91015D01*
X26559Y91105D01*
X26514Y91193D01*
X26464Y91280D01*
X26412Y91364D01*
X26356Y91447D01*
X26298Y91527D01*
X26236Y91605D01*
X26171Y91680D01*
X26103Y91753D01*
X26033Y91823D01*
X25960Y91891D01*
X25885Y91956D01*
X25807Y92018D01*
X25727Y92076D01*
X25644Y92132D01*
X25560Y92184D01*
X25473Y92234D01*
X25385Y92279D01*
X25295Y92322D01*
X25203Y92361D01*
X25110Y92396D01*
X25016Y92428D01*
X24921Y92456D01*
X24825Y92481D01*
X24727Y92502D01*
X24629Y92519D01*
X24531Y92532D01*
X24432Y92541D01*
X24332Y92547D01*
X24233Y92549D01*
X20338Y92549D01*
X20338Y97742D01*
X26829Y97742D01*
X31881Y90602D02*
X39670Y90602D01*
X48292Y97742D02*
X48399Y97740D01*
X48505Y97734D01*
X48611Y97724D01*
X48717Y97711D01*
X48823Y97693D01*
X48927Y97672D01*
X49031Y97647D01*
X49134Y97618D01*
X49235Y97586D01*
X49335Y97549D01*
X49434Y97509D01*
X49532Y97466D01*
X49628Y97419D01*
X49722Y97368D01*
X49814Y97314D01*
X49904Y97257D01*
X49992Y97197D01*
X50077Y97133D01*
X50160Y97066D01*
X50241Y96996D01*
X50319Y96924D01*
X50395Y96848D01*
X50467Y96770D01*
X50537Y96689D01*
X50604Y96606D01*
X50668Y96521D01*
X50728Y96433D01*
X50785Y96343D01*
X50839Y96251D01*
X50890Y96157D01*
X50937Y96061D01*
X50980Y95963D01*
X51020Y95864D01*
X51057Y95764D01*
X51089Y95663D01*
X51118Y95560D01*
X51143Y95456D01*
X51164Y95352D01*
X51182Y95246D01*
X51195Y95140D01*
X51205Y95034D01*
X51211Y94928D01*
X51213Y94821D01*
X48292Y97742D02*
X48171Y97740D01*
X48050Y97734D01*
X47930Y97724D01*
X47809Y97711D01*
X47690Y97693D01*
X47570Y97672D01*
X47452Y97647D01*
X47335Y97618D01*
X47218Y97585D01*
X47103Y97549D01*
X46989Y97508D01*
X46876Y97465D01*
X46764Y97417D01*
X46655Y97366D01*
X46547Y97311D01*
X46440Y97253D01*
X46336Y97192D01*
X46234Y97127D01*
X46134Y97059D01*
X46036Y96988D01*
X45940Y96914D01*
X45847Y96837D01*
X45757Y96756D01*
X45669Y96673D01*
X45584Y96587D01*
X45501Y96498D01*
X45422Y96407D01*
X45345Y96313D01*
X45272Y96217D01*
X45202Y96119D01*
X45135Y96018D01*
X45071Y95915D01*
X45011Y95810D01*
X44954Y95703D01*
X44900Y95595D01*
X44850Y95485D01*
X44804Y95373D01*
X44761Y95260D01*
X44722Y95145D01*
X50240Y92549D02*
X50319Y92626D01*
X50395Y92707D01*
X50468Y92790D01*
X50538Y92875D01*
X50605Y92963D01*
X50669Y93053D01*
X50729Y93145D01*
X50786Y93240D01*
X50840Y93336D01*
X50891Y93434D01*
X50938Y93534D01*
X50982Y93636D01*
X51022Y93739D01*
X51058Y93843D01*
X51090Y93949D01*
X51119Y94055D01*
X51144Y94163D01*
X51166Y94271D01*
X51183Y94381D01*
X51197Y94490D01*
X51206Y94600D01*
X51212Y94711D01*
X51214Y94821D01*
X50239Y92549D02*
X44722Y86058D01*
X51213Y86058D01*
X56152Y88654D02*
X58748Y97742D01*
X56152Y88654D02*
X62643Y88654D01*
X60696Y91251D02*
X60696Y86058D01*
X67695Y90602D02*
X75484Y90602D01*
X80536Y92549D02*
X84431Y92549D01*
X84530Y92547D01*
X84630Y92541D01*
X84729Y92532D01*
X84827Y92519D01*
X84925Y92502D01*
X85023Y92481D01*
X85119Y92456D01*
X85214Y92428D01*
X85308Y92396D01*
X85401Y92361D01*
X85493Y92322D01*
X85583Y92279D01*
X85671Y92234D01*
X85758Y92184D01*
X85842Y92132D01*
X85925Y92076D01*
X86005Y92018D01*
X86083Y91956D01*
X86158Y91891D01*
X86231Y91823D01*
X86301Y91753D01*
X86369Y91680D01*
X86434Y91605D01*
X86496Y91527D01*
X86554Y91447D01*
X86610Y91364D01*
X86662Y91280D01*
X86712Y91193D01*
X86757Y91105D01*
X86800Y91015D01*
X86839Y90923D01*
X86874Y90830D01*
X86906Y90736D01*
X86934Y90641D01*
X86959Y90545D01*
X86980Y90447D01*
X86997Y90349D01*
X87010Y90251D01*
X87019Y90152D01*
X87025Y90052D01*
X87027Y89953D01*
X87027Y89304D01*
X87025Y89191D01*
X87019Y89078D01*
X87009Y88965D01*
X86995Y88852D01*
X86978Y88740D01*
X86956Y88629D01*
X86931Y88519D01*
X86901Y88409D01*
X86868Y88301D01*
X86831Y88194D01*
X86791Y88088D01*
X86746Y87984D01*
X86698Y87881D01*
X86647Y87780D01*
X86592Y87681D01*
X86534Y87584D01*
X86472Y87489D01*
X86407Y87396D01*
X86339Y87306D01*
X86268Y87218D01*
X86193Y87132D01*
X86116Y87049D01*
X86036Y86969D01*
X85953Y86892D01*
X85867Y86817D01*
X85779Y86746D01*
X85689Y86678D01*
X85596Y86613D01*
X85501Y86551D01*
X85404Y86493D01*
X85305Y86438D01*
X85204Y86387D01*
X85101Y86339D01*
X84997Y86294D01*
X84891Y86254D01*
X84784Y86217D01*
X84676Y86184D01*
X84566Y86154D01*
X84456Y86129D01*
X84345Y86107D01*
X84233Y86090D01*
X84120Y86076D01*
X84007Y86066D01*
X83894Y86060D01*
X83781Y86058D01*
X83668Y86060D01*
X83555Y86066D01*
X83442Y86076D01*
X83329Y86090D01*
X83217Y86107D01*
X83106Y86129D01*
X82996Y86154D01*
X82886Y86184D01*
X82778Y86217D01*
X82671Y86254D01*
X82565Y86294D01*
X82461Y86339D01*
X82358Y86387D01*
X82257Y86438D01*
X82158Y86493D01*
X82061Y86551D01*
X81966Y86613D01*
X81873Y86678D01*
X81783Y86746D01*
X81695Y86817D01*
X81609Y86892D01*
X81526Y86969D01*
X81446Y87049D01*
X81369Y87132D01*
X81294Y87218D01*
X81223Y87306D01*
X81155Y87396D01*
X81090Y87489D01*
X81028Y87584D01*
X80970Y87681D01*
X80915Y87780D01*
X80864Y87881D01*
X80816Y87984D01*
X80771Y88088D01*
X80731Y88194D01*
X80694Y88301D01*
X80661Y88409D01*
X80631Y88519D01*
X80606Y88629D01*
X80584Y88740D01*
X80567Y88852D01*
X80553Y88965D01*
X80543Y89078D01*
X80537Y89191D01*
X80535Y89304D01*
X80536Y89304D02*
X80536Y92549D01*
X80538Y92692D01*
X80544Y92835D01*
X80554Y92978D01*
X80568Y93120D01*
X80585Y93262D01*
X80607Y93404D01*
X80632Y93545D01*
X80662Y93685D01*
X80695Y93824D01*
X80732Y93962D01*
X80773Y94099D01*
X80817Y94235D01*
X80866Y94370D01*
X80918Y94503D01*
X80973Y94635D01*
X81033Y94765D01*
X81096Y94894D01*
X81162Y95021D01*
X81232Y95145D01*
X81305Y95268D01*
X81382Y95389D01*
X81462Y95508D01*
X81545Y95624D01*
X81631Y95739D01*
X81720Y95850D01*
X81813Y95960D01*
X81908Y96066D01*
X82007Y96170D01*
X82108Y96271D01*
X82212Y96370D01*
X82318Y96465D01*
X82428Y96558D01*
X82539Y96647D01*
X82654Y96733D01*
X82770Y96816D01*
X82889Y96896D01*
X83010Y96973D01*
X83132Y97046D01*
X83257Y97116D01*
X83384Y97182D01*
X83513Y97245D01*
X83643Y97305D01*
X83775Y97360D01*
X83908Y97412D01*
X84043Y97461D01*
X84179Y97505D01*
X84316Y97546D01*
X84454Y97583D01*
X84593Y97616D01*
X84733Y97646D01*
X84874Y97671D01*
X85016Y97693D01*
X85158Y97710D01*
X85300Y97724D01*
X85443Y97734D01*
X85586Y97740D01*
X85729Y97742D01*
X91966Y95146D02*
X95211Y97742D01*
X95211Y86058D01*
X91966Y86058D02*
X98457Y86058D01*
X103396Y91900D02*
X103399Y92130D01*
X103407Y92360D01*
X103421Y92589D01*
X103440Y92818D01*
X103465Y93047D01*
X103495Y93274D01*
X103530Y93502D01*
X103571Y93728D01*
X103617Y93953D01*
X103669Y94177D01*
X103726Y94399D01*
X103788Y94621D01*
X103856Y94840D01*
X103929Y95058D01*
X104007Y95275D01*
X104090Y95489D01*
X104178Y95701D01*
X104271Y95911D01*
X104370Y96119D01*
X104369Y96119D02*
X104402Y96209D01*
X104438Y96298D01*
X104478Y96386D01*
X104522Y96471D01*
X104569Y96555D01*
X104619Y96637D01*
X104673Y96717D01*
X104729Y96794D01*
X104789Y96870D01*
X104852Y96943D01*
X104917Y97013D01*
X104986Y97081D01*
X105057Y97145D01*
X105130Y97207D01*
X105206Y97266D01*
X105284Y97322D01*
X105365Y97375D01*
X105447Y97424D01*
X105531Y97470D01*
X105618Y97513D01*
X105705Y97552D01*
X105795Y97588D01*
X105885Y97620D01*
X105977Y97648D01*
X106070Y97673D01*
X106164Y97694D01*
X106258Y97711D01*
X106353Y97725D01*
X106449Y97734D01*
X106545Y97740D01*
X106641Y97742D01*
X106737Y97740D01*
X106833Y97734D01*
X106929Y97725D01*
X107024Y97711D01*
X107118Y97694D01*
X107212Y97673D01*
X107305Y97648D01*
X107397Y97620D01*
X107487Y97588D01*
X107577Y97552D01*
X107664Y97513D01*
X107751Y97470D01*
X107835Y97424D01*
X107917Y97375D01*
X107998Y97322D01*
X108076Y97266D01*
X108152Y97207D01*
X108225Y97145D01*
X108296Y97081D01*
X108365Y97013D01*
X108430Y96943D01*
X108493Y96870D01*
X108553Y96794D01*
X108609Y96717D01*
X108663Y96637D01*
X108713Y96555D01*
X108760Y96471D01*
X108804Y96386D01*
X108844Y96298D01*
X108880Y96209D01*
X108913Y96119D01*
X109012Y95912D01*
X109105Y95702D01*
X109193Y95489D01*
X109276Y95275D01*
X109354Y95059D01*
X109427Y94841D01*
X109495Y94621D01*
X109557Y94400D01*
X109614Y94177D01*
X109666Y93953D01*
X109712Y93728D01*
X109753Y93502D01*
X109788Y93275D01*
X109818Y93047D01*
X109843Y92818D01*
X109862Y92589D01*
X109876Y92360D01*
X109884Y92130D01*
X109887Y91900D01*
X103396Y91900D02*
X103399Y91670D01*
X103407Y91440D01*
X103421Y91211D01*
X103440Y90982D01*
X103465Y90753D01*
X103495Y90525D01*
X103530Y90298D01*
X103571Y90072D01*
X103617Y89847D01*
X103669Y89623D01*
X103726Y89400D01*
X103788Y89179D01*
X103856Y88959D01*
X103929Y88741D01*
X104007Y88525D01*
X104090Y88311D01*
X104178Y88099D01*
X104271Y87888D01*
X104370Y87681D01*
X104369Y87681D02*
X104402Y87591D01*
X104438Y87502D01*
X104479Y87414D01*
X104522Y87329D01*
X104569Y87245D01*
X104619Y87163D01*
X104673Y87083D01*
X104729Y87006D01*
X104789Y86930D01*
X104852Y86857D01*
X104917Y86787D01*
X104986Y86719D01*
X105057Y86655D01*
X105130Y86593D01*
X105206Y86534D01*
X105284Y86478D01*
X105365Y86425D01*
X105447Y86376D01*
X105531Y86330D01*
X105618Y86287D01*
X105705Y86248D01*
X105795Y86212D01*
X105885Y86180D01*
X105977Y86152D01*
X106070Y86127D01*
X106164Y86106D01*
X106258Y86089D01*
X106353Y86075D01*
X106449Y86066D01*
X106545Y86060D01*
X106641Y86058D01*
X108913Y87681D02*
X109012Y87888D01*
X109105Y88099D01*
X109193Y88311D01*
X109276Y88525D01*
X109354Y88741D01*
X109427Y88959D01*
X109495Y89179D01*
X109557Y89400D01*
X109614Y89623D01*
X109666Y89847D01*
X109712Y90072D01*
X109753Y90298D01*
X109788Y90525D01*
X109818Y90753D01*
X109843Y90982D01*
X109862Y91211D01*
X109876Y91440D01*
X109884Y91670D01*
X109887Y91900D01*
X108913Y87681D02*
X108880Y87591D01*
X108844Y87502D01*
X108804Y87414D01*
X108760Y87329D01*
X108713Y87245D01*
X108663Y87163D01*
X108609Y87083D01*
X108553Y87006D01*
X108493Y86930D01*
X108430Y86857D01*
X108365Y86787D01*
X108296Y86719D01*
X108225Y86655D01*
X108152Y86593D01*
X108076Y86534D01*
X107998Y86478D01*
X107917Y86425D01*
X107835Y86376D01*
X107751Y86330D01*
X107664Y86287D01*
X107577Y86248D01*
X107487Y86212D01*
X107397Y86180D01*
X107305Y86152D01*
X107212Y86127D01*
X107118Y86106D01*
X107024Y86089D01*
X106929Y86075D01*
X106833Y86066D01*
X106737Y86060D01*
X106641Y86058D01*
X104045Y88654D02*
X109238Y95146D01*
X114826Y91900D02*
X114829Y92130D01*
X114837Y92360D01*
X114851Y92589D01*
X114870Y92818D01*
X114895Y93047D01*
X114925Y93274D01*
X114960Y93502D01*
X115001Y93728D01*
X115047Y93953D01*
X115099Y94177D01*
X115156Y94399D01*
X115218Y94621D01*
X115286Y94840D01*
X115359Y95058D01*
X115437Y95275D01*
X115520Y95489D01*
X115608Y95701D01*
X115701Y95911D01*
X115800Y96119D01*
X115799Y96119D02*
X115832Y96209D01*
X115868Y96298D01*
X115908Y96386D01*
X115952Y96471D01*
X115999Y96555D01*
X116049Y96637D01*
X116103Y96717D01*
X116159Y96794D01*
X116219Y96870D01*
X116282Y96943D01*
X116347Y97013D01*
X116416Y97081D01*
X116487Y97145D01*
X116560Y97207D01*
X116636Y97266D01*
X116714Y97322D01*
X116795Y97375D01*
X116877Y97424D01*
X116961Y97470D01*
X117048Y97513D01*
X117135Y97552D01*
X117225Y97588D01*
X117315Y97620D01*
X117407Y97648D01*
X117500Y97673D01*
X117594Y97694D01*
X117688Y97711D01*
X117783Y97725D01*
X117879Y97734D01*
X117975Y97740D01*
X118071Y97742D01*
X118167Y97740D01*
X118263Y97734D01*
X118359Y97725D01*
X118454Y97711D01*
X118548Y97694D01*
X118642Y97673D01*
X118735Y97648D01*
X118827Y97620D01*
X118917Y97588D01*
X119007Y97552D01*
X119094Y97513D01*
X119181Y97470D01*
X119265Y97424D01*
X119347Y97375D01*
X119428Y97322D01*
X119506Y97266D01*
X119582Y97207D01*
X119655Y97145D01*
X119726Y97081D01*
X119795Y97013D01*
X119860Y96943D01*
X119923Y96870D01*
X119983Y96794D01*
X120039Y96717D01*
X120093Y96637D01*
X120143Y96555D01*
X120190Y96471D01*
X120234Y96386D01*
X120274Y96298D01*
X120310Y96209D01*
X120343Y96119D01*
X120442Y95912D01*
X120535Y95702D01*
X120623Y95489D01*
X120706Y95275D01*
X120784Y95059D01*
X120857Y94841D01*
X120925Y94621D01*
X120987Y94400D01*
X121044Y94177D01*
X121096Y93953D01*
X121142Y93728D01*
X121183Y93502D01*
X121218Y93275D01*
X121248Y93047D01*
X121273Y92818D01*
X121292Y92589D01*
X121306Y92360D01*
X121314Y92130D01*
X121317Y91900D01*
X114825Y91900D02*
X114828Y91670D01*
X114836Y91440D01*
X114850Y91211D01*
X114869Y90982D01*
X114894Y90753D01*
X114924Y90525D01*
X114959Y90298D01*
X115000Y90072D01*
X115046Y89847D01*
X115098Y89623D01*
X115155Y89400D01*
X115217Y89179D01*
X115285Y88959D01*
X115358Y88741D01*
X115436Y88525D01*
X115519Y88311D01*
X115607Y88099D01*
X115700Y87888D01*
X115799Y87681D01*
X115832Y87591D01*
X115868Y87502D01*
X115909Y87414D01*
X115952Y87329D01*
X115999Y87245D01*
X116049Y87163D01*
X116103Y87083D01*
X116159Y87006D01*
X116219Y86930D01*
X116282Y86857D01*
X116347Y86787D01*
X116416Y86719D01*
X116487Y86655D01*
X116560Y86593D01*
X116636Y86534D01*
X116714Y86478D01*
X116795Y86425D01*
X116877Y86376D01*
X116961Y86330D01*
X117048Y86287D01*
X117135Y86248D01*
X117225Y86212D01*
X117315Y86180D01*
X117407Y86152D01*
X117500Y86127D01*
X117594Y86106D01*
X117688Y86089D01*
X117783Y86075D01*
X117879Y86066D01*
X117975Y86060D01*
X118071Y86058D01*
X120343Y87681D02*
X120442Y87888D01*
X120535Y88099D01*
X120623Y88311D01*
X120706Y88525D01*
X120784Y88741D01*
X120857Y88959D01*
X120925Y89179D01*
X120987Y89400D01*
X121044Y89623D01*
X121096Y89847D01*
X121142Y90072D01*
X121183Y90298D01*
X121218Y90525D01*
X121248Y90753D01*
X121273Y90982D01*
X121292Y91211D01*
X121306Y91440D01*
X121314Y91670D01*
X121317Y91900D01*
X120343Y87681D02*
X120310Y87591D01*
X120274Y87502D01*
X120234Y87414D01*
X120190Y87329D01*
X120143Y87245D01*
X120093Y87163D01*
X120039Y87083D01*
X119983Y87006D01*
X119923Y86930D01*
X119860Y86857D01*
X119795Y86787D01*
X119726Y86719D01*
X119655Y86655D01*
X119582Y86593D01*
X119506Y86534D01*
X119428Y86478D01*
X119347Y86425D01*
X119265Y86376D01*
X119181Y86330D01*
X119094Y86287D01*
X119007Y86248D01*
X118917Y86212D01*
X118827Y86180D01*
X118735Y86152D01*
X118642Y86127D01*
X118548Y86106D01*
X118454Y86089D01*
X118359Y86075D01*
X118263Y86066D01*
X118167Y86060D01*
X118071Y86058D01*
X115475Y88654D02*
X120668Y95146D01*
D14*
X10000Y425000D02*
X10027Y427209D01*
X10108Y429416D01*
X10244Y431621D01*
X10433Y433822D01*
X10677Y436017D01*
X10974Y438206D01*
X11325Y440387D01*
X11729Y442558D01*
X12187Y444719D01*
X12697Y446868D01*
X13260Y449004D01*
X13875Y451126D01*
X14542Y453231D01*
X15261Y455320D01*
X16031Y457391D01*
X16851Y459442D01*
X17721Y461472D01*
X18641Y463480D01*
X19610Y465465D01*
X20627Y467426D01*
X21692Y469361D01*
X22804Y471269D01*
X23963Y473150D01*
X25168Y475001D01*
X26417Y476823D01*
X27711Y478613D01*
X29049Y480371D01*
X30429Y482095D01*
X31851Y483786D01*
X33314Y485440D01*
X34818Y487059D01*
X36360Y488640D01*
X37941Y490182D01*
X39560Y491686D01*
X41214Y493149D01*
X42905Y494571D01*
X44629Y495951D01*
X46387Y497289D01*
X48177Y498583D01*
X49999Y499832D01*
X51850Y501037D01*
X53731Y502196D01*
X55639Y503308D01*
X57574Y504373D01*
X59535Y505390D01*
X61520Y506359D01*
X63528Y507279D01*
X65558Y508149D01*
X67609Y508969D01*
X69680Y509739D01*
X71769Y510458D01*
X73874Y511125D01*
X75996Y511740D01*
X78132Y512303D01*
X80281Y512813D01*
X82442Y513271D01*
X84613Y513675D01*
X86794Y514026D01*
X88983Y514323D01*
X91178Y514567D01*
X93379Y514756D01*
X95584Y514892D01*
X97791Y514973D01*
X100000Y515000D01*
X102209Y514973D01*
X104416Y514892D01*
X106621Y514756D01*
X108822Y514567D01*
X111017Y514323D01*
X113206Y514026D01*
X115387Y513675D01*
X117558Y513271D01*
X119719Y512813D01*
X121868Y512303D01*
X124004Y511740D01*
X126126Y511125D01*
X128231Y510458D01*
X130320Y509739D01*
X132391Y508969D01*
X134442Y508149D01*
X136472Y507279D01*
X138480Y506359D01*
X140465Y505390D01*
X142426Y504373D01*
X144361Y503308D01*
X146269Y502196D01*
X148150Y501037D01*
X150001Y499832D01*
X151823Y498583D01*
X153613Y497289D01*
X155371Y495951D01*
X157095Y494571D01*
X158786Y493149D01*
X160440Y491686D01*
X162059Y490182D01*
X163640Y488640D01*
X165182Y487059D01*
X166686Y485440D01*
X168149Y483786D01*
X169571Y482095D01*
X170951Y480371D01*
X172289Y478613D01*
X173583Y476823D01*
X174832Y475001D01*
X176037Y473150D01*
X177196Y471269D01*
X178308Y469361D01*
X179373Y467426D01*
X180390Y465465D01*
X181359Y463480D01*
X182279Y461472D01*
X183149Y459442D01*
X183969Y457391D01*
X184739Y455320D01*
X185458Y453231D01*
X186125Y451126D01*
X186740Y449004D01*
X187303Y446868D01*
X187813Y444719D01*
X188271Y442558D01*
X188675Y440387D01*
X189026Y438206D01*
X189323Y436017D01*
X189567Y433822D01*
X189756Y431621D01*
X189892Y429416D01*
X189973Y427209D01*
X190000Y425000D01*
X189973Y422791D01*
X189892Y420584D01*
X189756Y418379D01*
X189567Y416178D01*
X189323Y413983D01*
X189026Y411794D01*
X188675Y409613D01*
X188271Y407442D01*
X187813Y405281D01*
X187303Y403132D01*
X186740Y400996D01*
X186125Y398874D01*
X185458Y396769D01*
X184739Y394680D01*
X183969Y392609D01*
X183149Y390558D01*
X182279Y388528D01*
X181359Y386520D01*
X180390Y384535D01*
X179373Y382574D01*
X178308Y380639D01*
X177196Y378731D01*
X176037Y376850D01*
X174832Y374999D01*
X173583Y373177D01*
X172289Y371387D01*
X170951Y369629D01*
X169571Y367905D01*
X168149Y366214D01*
X166686Y364560D01*
X165182Y362941D01*
X163640Y361360D01*
X162059Y359818D01*
X160440Y358314D01*
X158786Y356851D01*
X157095Y355429D01*
X155371Y354049D01*
X153613Y352711D01*
X151823Y351417D01*
X150001Y350168D01*
X148150Y348963D01*
X146269Y347804D01*
X144361Y346692D01*
X142426Y345627D01*
X140465Y344610D01*
X138480Y343641D01*
X136472Y342721D01*
X134442Y341851D01*
X132391Y341031D01*
X130320Y340261D01*
X128231Y339542D01*
X126126Y338875D01*
X124004Y338260D01*
X121868Y337697D01*
X119719Y337187D01*
X117558Y336729D01*
X115387Y336325D01*
X113206Y335974D01*
X111017Y335677D01*
X108822Y335433D01*
X106621Y335244D01*
X104416Y335108D01*
X102209Y335027D01*
X100000Y335000D01*
X97791Y335027D01*
X95584Y335108D01*
X93379Y335244D01*
X91178Y335433D01*
X88983Y335677D01*
X86794Y335974D01*
X84613Y336325D01*
X82442Y336729D01*
X80281Y337187D01*
X78132Y337697D01*
X75996Y338260D01*
X73874Y338875D01*
X71769Y339542D01*
X69680Y340261D01*
X67609Y341031D01*
X65558Y341851D01*
X63528Y342721D01*
X61520Y343641D01*
X59535Y344610D01*
X57574Y345627D01*
X55639Y346692D01*
X53731Y347804D01*
X51850Y348963D01*
X49999Y350168D01*
X48177Y351417D01*
X46387Y352711D01*
X44629Y354049D01*
X42905Y355429D01*
X41214Y356851D01*
X39560Y358314D01*
X37941Y359818D01*
X36360Y361360D01*
X34818Y362941D01*
X33314Y364560D01*
X31851Y366214D01*
X30429Y367905D01*
X29049Y369629D01*
X27711Y371387D01*
X26417Y373177D01*
X25168Y374999D01*
X23963Y376850D01*
X22804Y378731D01*
X21692Y380639D01*
X20627Y382574D01*
X19610Y384535D01*
X18641Y386520D01*
X17721Y388528D01*
X16851Y390558D01*
X16031Y392609D01*
X15261Y394680D01*
X14542Y396769D01*
X13875Y398874D01*
X13260Y400996D01*
X12697Y403132D01*
X12187Y405281D01*
X11729Y407442D01*
X11325Y409613D01*
X10974Y411794D01*
X10677Y413983D01*
X10433Y416178D01*
X10244Y418379D01*
X10108Y420584D01*
X10027Y422791D01*
X10000Y425000D01*
X162110Y355390D02*
X169610Y355390D01*
X165860Y351640D02*
X165860Y359140D01*
D13*
X97168Y316458D02*
X94572Y316458D01*
X94473Y316460D01*
X94373Y316466D01*
X94274Y316475D01*
X94176Y316488D01*
X94078Y316505D01*
X93980Y316526D01*
X93884Y316551D01*
X93789Y316579D01*
X93695Y316611D01*
X93602Y316646D01*
X93510Y316685D01*
X93420Y316728D01*
X93332Y316773D01*
X93245Y316823D01*
X93161Y316875D01*
X93078Y316931D01*
X92998Y316989D01*
X92920Y317051D01*
X92845Y317116D01*
X92772Y317184D01*
X92702Y317254D01*
X92634Y317327D01*
X92569Y317402D01*
X92507Y317480D01*
X92449Y317560D01*
X92393Y317643D01*
X92341Y317727D01*
X92291Y317814D01*
X92246Y317902D01*
X92203Y317992D01*
X92164Y318084D01*
X92129Y318177D01*
X92097Y318271D01*
X92069Y318366D01*
X92044Y318462D01*
X92023Y318560D01*
X92006Y318658D01*
X91993Y318756D01*
X91984Y318855D01*
X91978Y318955D01*
X91976Y319054D01*
X91975Y319054D02*
X91975Y325546D01*
X91976Y325546D02*
X91978Y325645D01*
X91984Y325745D01*
X91993Y325844D01*
X92006Y325942D01*
X92023Y326040D01*
X92044Y326138D01*
X92069Y326234D01*
X92097Y326329D01*
X92129Y326423D01*
X92164Y326516D01*
X92203Y326608D01*
X92246Y326698D01*
X92291Y326786D01*
X92341Y326873D01*
X92393Y326957D01*
X92449Y327040D01*
X92507Y327120D01*
X92569Y327198D01*
X92634Y327273D01*
X92702Y327346D01*
X92772Y327416D01*
X92845Y327484D01*
X92920Y327549D01*
X92998Y327611D01*
X93078Y327669D01*
X93161Y327725D01*
X93245Y327777D01*
X93332Y327827D01*
X93420Y327872D01*
X93510Y327915D01*
X93602Y327954D01*
X93694Y327989D01*
X93789Y328021D01*
X93884Y328049D01*
X93980Y328074D01*
X94078Y328095D01*
X94176Y328112D01*
X94274Y328125D01*
X94373Y328134D01*
X94473Y328140D01*
X94572Y328142D01*
X97168Y328142D01*
X101534Y325546D02*
X104779Y328142D01*
X104779Y316458D01*
X101534Y316458D02*
X108025Y316458D01*
X36938Y510104D02*
X36938Y518542D01*
X36937Y510104D02*
X36939Y509991D01*
X36945Y509878D01*
X36955Y509765D01*
X36969Y509652D01*
X36986Y509540D01*
X37008Y509429D01*
X37033Y509319D01*
X37063Y509209D01*
X37096Y509101D01*
X37133Y508994D01*
X37173Y508888D01*
X37218Y508784D01*
X37266Y508681D01*
X37317Y508580D01*
X37372Y508481D01*
X37430Y508384D01*
X37492Y508289D01*
X37557Y508196D01*
X37625Y508106D01*
X37696Y508018D01*
X37771Y507932D01*
X37848Y507849D01*
X37928Y507769D01*
X38011Y507692D01*
X38097Y507617D01*
X38185Y507546D01*
X38275Y507478D01*
X38368Y507413D01*
X38463Y507351D01*
X38560Y507293D01*
X38659Y507238D01*
X38760Y507187D01*
X38863Y507139D01*
X38967Y507094D01*
X39073Y507054D01*
X39180Y507017D01*
X39288Y506984D01*
X39398Y506954D01*
X39508Y506929D01*
X39619Y506907D01*
X39731Y506890D01*
X39844Y506876D01*
X39957Y506866D01*
X40070Y506860D01*
X40183Y506858D01*
X40296Y506860D01*
X40409Y506866D01*
X40522Y506876D01*
X40635Y506890D01*
X40747Y506907D01*
X40858Y506929D01*
X40968Y506954D01*
X41078Y506984D01*
X41186Y507017D01*
X41293Y507054D01*
X41399Y507094D01*
X41503Y507139D01*
X41606Y507187D01*
X41707Y507238D01*
X41806Y507293D01*
X41903Y507351D01*
X41998Y507413D01*
X42091Y507478D01*
X42181Y507546D01*
X42269Y507617D01*
X42355Y507692D01*
X42438Y507769D01*
X42518Y507849D01*
X42595Y507932D01*
X42670Y508018D01*
X42741Y508106D01*
X42809Y508196D01*
X42874Y508289D01*
X42936Y508384D01*
X42994Y508481D01*
X43049Y508580D01*
X43100Y508681D01*
X43148Y508784D01*
X43193Y508888D01*
X43233Y508994D01*
X43270Y509101D01*
X43303Y509209D01*
X43333Y509319D01*
X43358Y509429D01*
X43380Y509540D01*
X43397Y509652D01*
X43411Y509765D01*
X43421Y509878D01*
X43427Y509991D01*
X43429Y510104D01*
X43429Y518542D01*
X49299Y518542D02*
X49299Y506858D01*
X49299Y518542D02*
X52544Y518542D01*
X52657Y518540D01*
X52770Y518534D01*
X52883Y518524D01*
X52996Y518510D01*
X53108Y518493D01*
X53219Y518471D01*
X53329Y518446D01*
X53439Y518416D01*
X53547Y518383D01*
X53654Y518346D01*
X53760Y518306D01*
X53864Y518261D01*
X53967Y518213D01*
X54068Y518162D01*
X54167Y518107D01*
X54264Y518049D01*
X54359Y517987D01*
X54452Y517922D01*
X54542Y517854D01*
X54630Y517783D01*
X54716Y517708D01*
X54799Y517631D01*
X54879Y517551D01*
X54956Y517468D01*
X55031Y517382D01*
X55102Y517294D01*
X55170Y517204D01*
X55235Y517111D01*
X55297Y517016D01*
X55355Y516919D01*
X55410Y516820D01*
X55461Y516719D01*
X55509Y516616D01*
X55554Y516512D01*
X55594Y516406D01*
X55631Y516299D01*
X55664Y516191D01*
X55694Y516081D01*
X55719Y515971D01*
X55741Y515860D01*
X55758Y515748D01*
X55772Y515635D01*
X55782Y515522D01*
X55788Y515409D01*
X55790Y515296D01*
X55788Y515183D01*
X55782Y515070D01*
X55772Y514957D01*
X55758Y514844D01*
X55741Y514732D01*
X55719Y514621D01*
X55694Y514511D01*
X55664Y514401D01*
X55631Y514293D01*
X55594Y514186D01*
X55554Y514080D01*
X55509Y513976D01*
X55461Y513873D01*
X55410Y513772D01*
X55355Y513673D01*
X55297Y513576D01*
X55235Y513481D01*
X55170Y513388D01*
X55102Y513298D01*
X55031Y513210D01*
X54956Y513124D01*
X54879Y513041D01*
X54799Y512961D01*
X54716Y512884D01*
X54630Y512809D01*
X54542Y512738D01*
X54452Y512670D01*
X54359Y512605D01*
X54264Y512543D01*
X54167Y512485D01*
X54068Y512430D01*
X53967Y512379D01*
X53864Y512331D01*
X53760Y512286D01*
X53654Y512246D01*
X53547Y512209D01*
X53439Y512176D01*
X53329Y512146D01*
X53219Y512121D01*
X53108Y512099D01*
X52996Y512082D01*
X52883Y512068D01*
X52770Y512058D01*
X52657Y512052D01*
X52544Y512050D01*
X52544Y512051D02*
X49299Y512051D01*
X59755Y518542D02*
X62352Y506858D01*
X64948Y514647D01*
X67545Y506858D01*
X70141Y518542D01*
X74657Y515946D02*
X77902Y518542D01*
X77902Y506858D01*
X74657Y506858D02*
X81148Y506858D01*
X86490Y506858D02*
X91683Y506858D01*
X86490Y506858D02*
X86490Y518542D01*
X91683Y518542D01*
X90385Y513349D02*
X86490Y513349D01*
X95992Y515946D02*
X99238Y518542D01*
X99238Y506858D01*
X95992Y506858D02*
X102484Y506858D01*
X107422Y506858D02*
X111317Y506858D01*
X111416Y506860D01*
X111516Y506866D01*
X111615Y506875D01*
X111713Y506888D01*
X111811Y506905D01*
X111909Y506926D01*
X112005Y506951D01*
X112100Y506979D01*
X112194Y507011D01*
X112287Y507046D01*
X112379Y507085D01*
X112469Y507128D01*
X112557Y507173D01*
X112644Y507223D01*
X112728Y507275D01*
X112811Y507331D01*
X112891Y507389D01*
X112969Y507451D01*
X113044Y507516D01*
X113117Y507584D01*
X113187Y507654D01*
X113255Y507727D01*
X113320Y507802D01*
X113382Y507880D01*
X113440Y507960D01*
X113496Y508043D01*
X113548Y508127D01*
X113598Y508214D01*
X113643Y508302D01*
X113686Y508392D01*
X113725Y508484D01*
X113760Y508577D01*
X113792Y508671D01*
X113820Y508766D01*
X113845Y508862D01*
X113866Y508960D01*
X113883Y509058D01*
X113896Y509156D01*
X113905Y509255D01*
X113911Y509355D01*
X113913Y509454D01*
X113914Y509454D02*
X113914Y510753D01*
X113913Y510753D02*
X113911Y510852D01*
X113905Y510952D01*
X113896Y511051D01*
X113883Y511149D01*
X113866Y511247D01*
X113845Y511345D01*
X113820Y511441D01*
X113792Y511536D01*
X113760Y511630D01*
X113725Y511723D01*
X113686Y511815D01*
X113643Y511905D01*
X113598Y511993D01*
X113548Y512080D01*
X113496Y512164D01*
X113440Y512247D01*
X113382Y512327D01*
X113320Y512405D01*
X113255Y512480D01*
X113187Y512553D01*
X113117Y512623D01*
X113044Y512691D01*
X112969Y512756D01*
X112891Y512818D01*
X112811Y512876D01*
X112728Y512932D01*
X112644Y512984D01*
X112557Y513034D01*
X112469Y513079D01*
X112379Y513122D01*
X112287Y513161D01*
X112194Y513196D01*
X112100Y513228D01*
X112005Y513256D01*
X111909Y513281D01*
X111811Y513302D01*
X111713Y513319D01*
X111615Y513332D01*
X111516Y513341D01*
X111416Y513347D01*
X111317Y513349D01*
X107422Y513349D01*
X107422Y518542D01*
X113914Y518542D01*
X122423Y518542D02*
X122530Y518540D01*
X122636Y518534D01*
X122742Y518524D01*
X122848Y518511D01*
X122954Y518493D01*
X123058Y518472D01*
X123162Y518447D01*
X123265Y518418D01*
X123366Y518386D01*
X123466Y518349D01*
X123565Y518309D01*
X123663Y518266D01*
X123759Y518219D01*
X123853Y518168D01*
X123945Y518114D01*
X124035Y518057D01*
X124123Y517997D01*
X124208Y517933D01*
X124291Y517866D01*
X124372Y517796D01*
X124450Y517724D01*
X124526Y517648D01*
X124598Y517570D01*
X124668Y517489D01*
X124735Y517406D01*
X124799Y517321D01*
X124859Y517233D01*
X124916Y517143D01*
X124970Y517051D01*
X125021Y516957D01*
X125068Y516861D01*
X125111Y516763D01*
X125151Y516664D01*
X125188Y516564D01*
X125220Y516463D01*
X125249Y516360D01*
X125274Y516256D01*
X125295Y516152D01*
X125313Y516046D01*
X125326Y515940D01*
X125336Y515834D01*
X125342Y515728D01*
X125344Y515621D01*
X122423Y518542D02*
X122302Y518540D01*
X122181Y518534D01*
X122061Y518524D01*
X121940Y518511D01*
X121821Y518493D01*
X121701Y518472D01*
X121583Y518447D01*
X121466Y518418D01*
X121349Y518385D01*
X121234Y518349D01*
X121120Y518308D01*
X121007Y518265D01*
X120895Y518217D01*
X120786Y518166D01*
X120678Y518111D01*
X120571Y518053D01*
X120467Y517992D01*
X120365Y517927D01*
X120265Y517859D01*
X120167Y517788D01*
X120071Y517714D01*
X119978Y517637D01*
X119888Y517556D01*
X119800Y517473D01*
X119715Y517387D01*
X119632Y517298D01*
X119553Y517207D01*
X119476Y517113D01*
X119403Y517017D01*
X119333Y516919D01*
X119266Y516818D01*
X119202Y516715D01*
X119142Y516610D01*
X119085Y516503D01*
X119031Y516395D01*
X118981Y516285D01*
X118935Y516173D01*
X118892Y516060D01*
X118853Y515945D01*
X124370Y513349D02*
X124449Y513426D01*
X124525Y513507D01*
X124598Y513590D01*
X124668Y513675D01*
X124735Y513763D01*
X124799Y513853D01*
X124859Y513945D01*
X124916Y514040D01*
X124970Y514136D01*
X125021Y514234D01*
X125068Y514334D01*
X125112Y514436D01*
X125152Y514539D01*
X125188Y514643D01*
X125220Y514749D01*
X125249Y514855D01*
X125274Y514963D01*
X125296Y515071D01*
X125313Y515181D01*
X125327Y515290D01*
X125336Y515400D01*
X125342Y515511D01*
X125344Y515621D01*
X124370Y513349D02*
X118852Y506858D01*
X125344Y506858D01*
X130776Y506858D02*
X130776Y518542D01*
X134671Y512051D01*
X138566Y518542D01*
X138566Y506858D01*
X144379Y506858D02*
X144379Y518542D01*
X144379Y513349D02*
X150870Y513349D01*
X150870Y518542D02*
X150870Y506858D01*
X156571Y506858D02*
X156571Y518542D01*
X159817Y518542D01*
X159930Y518540D01*
X160043Y518534D01*
X160156Y518524D01*
X160269Y518510D01*
X160381Y518493D01*
X160492Y518471D01*
X160602Y518446D01*
X160712Y518416D01*
X160820Y518383D01*
X160927Y518346D01*
X161033Y518306D01*
X161137Y518261D01*
X161240Y518213D01*
X161341Y518162D01*
X161440Y518107D01*
X161537Y518049D01*
X161632Y517987D01*
X161725Y517922D01*
X161815Y517854D01*
X161903Y517783D01*
X161989Y517708D01*
X162072Y517631D01*
X162152Y517551D01*
X162229Y517468D01*
X162304Y517382D01*
X162375Y517294D01*
X162443Y517204D01*
X162508Y517111D01*
X162570Y517016D01*
X162628Y516919D01*
X162683Y516820D01*
X162734Y516719D01*
X162782Y516616D01*
X162827Y516512D01*
X162867Y516406D01*
X162904Y516299D01*
X162937Y516191D01*
X162967Y516081D01*
X162992Y515971D01*
X163014Y515860D01*
X163031Y515748D01*
X163045Y515635D01*
X163055Y515522D01*
X163061Y515409D01*
X163063Y515296D01*
X163062Y515296D02*
X163062Y510104D01*
X163063Y510104D02*
X163061Y509991D01*
X163055Y509878D01*
X163045Y509765D01*
X163031Y509652D01*
X163014Y509540D01*
X162992Y509429D01*
X162967Y509319D01*
X162937Y509209D01*
X162904Y509101D01*
X162867Y508994D01*
X162827Y508888D01*
X162782Y508784D01*
X162734Y508681D01*
X162683Y508580D01*
X162628Y508481D01*
X162570Y508384D01*
X162508Y508289D01*
X162443Y508196D01*
X162375Y508106D01*
X162304Y508018D01*
X162229Y507932D01*
X162152Y507849D01*
X162072Y507769D01*
X161989Y507692D01*
X161903Y507617D01*
X161815Y507546D01*
X161725Y507478D01*
X161632Y507413D01*
X161537Y507351D01*
X161440Y507293D01*
X161341Y507238D01*
X161240Y507187D01*
X161137Y507139D01*
X161033Y507094D01*
X160927Y507054D01*
X160820Y507017D01*
X160712Y506984D01*
X160602Y506954D01*
X160492Y506929D01*
X160381Y506907D01*
X160269Y506890D01*
X160156Y506876D01*
X160043Y506866D01*
X159930Y506860D01*
X159817Y506858D01*
X156571Y506858D01*
D14*
X142500Y305000D02*
X142500Y280000D01*
X142500Y305000D02*
X142500Y330000D01*
X131875Y330000D01*
X57500Y330000D01*
X57500Y305000D01*
X57500Y280000D01*
X131875Y280000D01*
X142500Y280000D01*
X131875Y280000D02*
X131875Y330000D01*
X142500Y305000D02*
X165460Y305000D01*
X57500Y305000D02*
X34540Y305000D01*
D13*
X70849Y273142D02*
X70849Y261458D01*
X70849Y273142D02*
X74095Y273142D01*
X74208Y273140D01*
X74321Y273134D01*
X74434Y273124D01*
X74547Y273110D01*
X74659Y273093D01*
X74770Y273071D01*
X74880Y273046D01*
X74990Y273016D01*
X75098Y272983D01*
X75205Y272946D01*
X75311Y272906D01*
X75415Y272861D01*
X75518Y272813D01*
X75619Y272762D01*
X75718Y272707D01*
X75815Y272649D01*
X75910Y272587D01*
X76003Y272522D01*
X76093Y272454D01*
X76181Y272383D01*
X76267Y272308D01*
X76350Y272231D01*
X76430Y272151D01*
X76507Y272068D01*
X76582Y271982D01*
X76653Y271894D01*
X76721Y271804D01*
X76786Y271711D01*
X76848Y271616D01*
X76906Y271519D01*
X76961Y271420D01*
X77012Y271319D01*
X77060Y271216D01*
X77105Y271112D01*
X77145Y271006D01*
X77182Y270899D01*
X77215Y270791D01*
X77245Y270681D01*
X77270Y270571D01*
X77292Y270460D01*
X77309Y270348D01*
X77323Y270235D01*
X77333Y270122D01*
X77339Y270009D01*
X77341Y269896D01*
X77340Y269896D02*
X77340Y264704D01*
X77341Y264704D02*
X77339Y264591D01*
X77333Y264478D01*
X77323Y264365D01*
X77309Y264252D01*
X77292Y264140D01*
X77270Y264029D01*
X77245Y263919D01*
X77215Y263809D01*
X77182Y263701D01*
X77145Y263594D01*
X77105Y263488D01*
X77060Y263384D01*
X77012Y263281D01*
X76961Y263180D01*
X76906Y263081D01*
X76848Y262984D01*
X76786Y262889D01*
X76721Y262796D01*
X76653Y262706D01*
X76582Y262618D01*
X76507Y262532D01*
X76430Y262449D01*
X76350Y262369D01*
X76267Y262292D01*
X76181Y262217D01*
X76093Y262146D01*
X76003Y262078D01*
X75910Y262013D01*
X75815Y261951D01*
X75718Y261893D01*
X75619Y261838D01*
X75518Y261787D01*
X75415Y261739D01*
X75311Y261694D01*
X75205Y261654D01*
X75098Y261617D01*
X74990Y261584D01*
X74880Y261554D01*
X74770Y261529D01*
X74659Y261507D01*
X74547Y261490D01*
X74434Y261476D01*
X74321Y261466D01*
X74208Y261460D01*
X74095Y261458D01*
X70849Y261458D01*
X82660Y270546D02*
X85905Y273142D01*
X85905Y261458D01*
X82660Y261458D02*
X89151Y261458D01*
X64370Y345946D02*
X67615Y348542D01*
X67615Y336858D01*
X64370Y336858D02*
X70861Y336858D01*
X75800Y342700D02*
X75803Y342930D01*
X75811Y343160D01*
X75825Y343389D01*
X75844Y343618D01*
X75869Y343847D01*
X75899Y344074D01*
X75934Y344302D01*
X75975Y344528D01*
X76021Y344753D01*
X76073Y344977D01*
X76130Y345199D01*
X76192Y345421D01*
X76260Y345640D01*
X76333Y345858D01*
X76411Y346075D01*
X76494Y346289D01*
X76582Y346501D01*
X76675Y346711D01*
X76774Y346919D01*
X76773Y346919D02*
X76806Y347009D01*
X76842Y347098D01*
X76882Y347186D01*
X76926Y347271D01*
X76973Y347355D01*
X77023Y347437D01*
X77077Y347517D01*
X77133Y347594D01*
X77193Y347670D01*
X77256Y347743D01*
X77321Y347813D01*
X77390Y347881D01*
X77461Y347945D01*
X77534Y348007D01*
X77610Y348066D01*
X77688Y348122D01*
X77769Y348175D01*
X77851Y348224D01*
X77935Y348270D01*
X78022Y348313D01*
X78109Y348352D01*
X78199Y348388D01*
X78289Y348420D01*
X78381Y348448D01*
X78474Y348473D01*
X78568Y348494D01*
X78662Y348511D01*
X78757Y348525D01*
X78853Y348534D01*
X78949Y348540D01*
X79045Y348542D01*
X79141Y348540D01*
X79237Y348534D01*
X79333Y348525D01*
X79428Y348511D01*
X79522Y348494D01*
X79616Y348473D01*
X79709Y348448D01*
X79801Y348420D01*
X79891Y348388D01*
X79981Y348352D01*
X80068Y348313D01*
X80155Y348270D01*
X80239Y348224D01*
X80321Y348175D01*
X80402Y348122D01*
X80480Y348066D01*
X80556Y348007D01*
X80629Y347945D01*
X80700Y347881D01*
X80769Y347813D01*
X80834Y347743D01*
X80897Y347670D01*
X80957Y347594D01*
X81013Y347517D01*
X81067Y347437D01*
X81117Y347355D01*
X81164Y347271D01*
X81208Y347186D01*
X81248Y347098D01*
X81284Y347009D01*
X81317Y346919D01*
X81416Y346712D01*
X81509Y346502D01*
X81597Y346289D01*
X81680Y346075D01*
X81758Y345859D01*
X81831Y345641D01*
X81899Y345421D01*
X81961Y345200D01*
X82018Y344977D01*
X82070Y344753D01*
X82116Y344528D01*
X82157Y344302D01*
X82192Y344075D01*
X82222Y343847D01*
X82247Y343618D01*
X82266Y343389D01*
X82280Y343160D01*
X82288Y342930D01*
X82291Y342700D01*
X75799Y342700D02*
X75802Y342470D01*
X75810Y342240D01*
X75824Y342011D01*
X75843Y341782D01*
X75868Y341553D01*
X75898Y341325D01*
X75933Y341098D01*
X75974Y340872D01*
X76020Y340647D01*
X76072Y340423D01*
X76129Y340200D01*
X76191Y339979D01*
X76259Y339759D01*
X76332Y339541D01*
X76410Y339325D01*
X76493Y339111D01*
X76581Y338899D01*
X76674Y338688D01*
X76773Y338481D01*
X76806Y338391D01*
X76842Y338302D01*
X76883Y338214D01*
X76926Y338129D01*
X76973Y338045D01*
X77023Y337963D01*
X77077Y337883D01*
X77133Y337806D01*
X77193Y337730D01*
X77256Y337657D01*
X77321Y337587D01*
X77390Y337519D01*
X77461Y337455D01*
X77534Y337393D01*
X77610Y337334D01*
X77688Y337278D01*
X77769Y337225D01*
X77851Y337176D01*
X77935Y337130D01*
X78022Y337087D01*
X78109Y337048D01*
X78199Y337012D01*
X78289Y336980D01*
X78381Y336952D01*
X78474Y336927D01*
X78568Y336906D01*
X78662Y336889D01*
X78757Y336875D01*
X78853Y336866D01*
X78949Y336860D01*
X79045Y336858D01*
X81317Y338481D02*
X81416Y338688D01*
X81509Y338899D01*
X81597Y339111D01*
X81680Y339325D01*
X81758Y339541D01*
X81831Y339759D01*
X81899Y339979D01*
X81961Y340200D01*
X82018Y340423D01*
X82070Y340647D01*
X82116Y340872D01*
X82157Y341098D01*
X82192Y341325D01*
X82222Y341553D01*
X82247Y341782D01*
X82266Y342011D01*
X82280Y342240D01*
X82288Y342470D01*
X82291Y342700D01*
X81317Y338481D02*
X81284Y338391D01*
X81248Y338302D01*
X81208Y338214D01*
X81164Y338129D01*
X81117Y338045D01*
X81067Y337963D01*
X81013Y337883D01*
X80957Y337806D01*
X80897Y337730D01*
X80834Y337657D01*
X80769Y337587D01*
X80700Y337519D01*
X80629Y337455D01*
X80556Y337393D01*
X80480Y337334D01*
X80402Y337278D01*
X80321Y337225D01*
X80239Y337176D01*
X80155Y337130D01*
X80068Y337087D01*
X79981Y337048D01*
X79891Y337012D01*
X79801Y336980D01*
X79709Y336952D01*
X79616Y336927D01*
X79522Y336906D01*
X79428Y336889D01*
X79333Y336875D01*
X79237Y336866D01*
X79141Y336860D01*
X79045Y336858D01*
X76449Y339454D02*
X81641Y345946D01*
X90475Y348542D02*
X86580Y336858D01*
X94370Y336858D02*
X90475Y348542D01*
X93396Y339779D02*
X87554Y339779D01*
X98166Y335560D02*
X103358Y335560D01*
X110287Y336858D02*
X110287Y348542D01*
X107041Y348542D02*
X113533Y348542D01*
X118090Y348542D02*
X118090Y336858D01*
X118090Y343349D02*
X124582Y343349D01*
X124582Y348542D02*
X124582Y336858D01*
X132385Y336858D02*
X132385Y348542D01*
X135630Y348542D02*
X129139Y348542D01*
D14*
X112500Y265000D02*
X112500Y252500D01*
X112500Y265000D02*
X112500Y277500D01*
X47500Y277500D01*
X47500Y265000D01*
X47500Y252500D01*
X112500Y252500D01*
X112500Y265000D02*
X119110Y265000D01*
X47500Y265000D02*
X40890Y265000D01*
D13*
X61076Y245642D02*
X61076Y233958D01*
X61076Y245642D02*
X64322Y245642D01*
X64435Y245640D01*
X64548Y245634D01*
X64661Y245624D01*
X64774Y245610D01*
X64886Y245593D01*
X64997Y245571D01*
X65107Y245546D01*
X65217Y245516D01*
X65325Y245483D01*
X65432Y245446D01*
X65538Y245406D01*
X65642Y245361D01*
X65745Y245313D01*
X65846Y245262D01*
X65945Y245207D01*
X66042Y245149D01*
X66137Y245087D01*
X66230Y245022D01*
X66320Y244954D01*
X66408Y244883D01*
X66494Y244808D01*
X66577Y244731D01*
X66657Y244651D01*
X66734Y244568D01*
X66809Y244482D01*
X66880Y244394D01*
X66948Y244304D01*
X67013Y244211D01*
X67075Y244116D01*
X67133Y244019D01*
X67188Y243920D01*
X67239Y243819D01*
X67287Y243716D01*
X67332Y243612D01*
X67372Y243506D01*
X67409Y243399D01*
X67442Y243291D01*
X67472Y243181D01*
X67497Y243071D01*
X67519Y242960D01*
X67536Y242848D01*
X67550Y242735D01*
X67560Y242622D01*
X67566Y242509D01*
X67568Y242396D01*
X67566Y242283D01*
X67560Y242170D01*
X67550Y242057D01*
X67536Y241944D01*
X67519Y241832D01*
X67497Y241721D01*
X67472Y241611D01*
X67442Y241501D01*
X67409Y241393D01*
X67372Y241286D01*
X67332Y241180D01*
X67287Y241076D01*
X67239Y240973D01*
X67188Y240872D01*
X67133Y240773D01*
X67075Y240676D01*
X67013Y240581D01*
X66948Y240488D01*
X66880Y240398D01*
X66809Y240310D01*
X66734Y240224D01*
X66657Y240141D01*
X66577Y240061D01*
X66494Y239984D01*
X66408Y239909D01*
X66320Y239838D01*
X66230Y239770D01*
X66137Y239705D01*
X66042Y239643D01*
X65945Y239585D01*
X65846Y239530D01*
X65745Y239479D01*
X65642Y239431D01*
X65538Y239386D01*
X65432Y239346D01*
X65325Y239309D01*
X65217Y239276D01*
X65107Y239246D01*
X64997Y239221D01*
X64886Y239199D01*
X64774Y239182D01*
X64661Y239168D01*
X64548Y239158D01*
X64435Y239152D01*
X64322Y239150D01*
X64322Y239151D02*
X61076Y239151D01*
X64971Y239151D02*
X67567Y233958D01*
X72433Y243046D02*
X75678Y245642D01*
X75678Y233958D01*
X72433Y233958D02*
X78924Y233958D01*
X48464Y293446D02*
X51710Y296042D01*
X51710Y284358D01*
X54955Y284358D02*
X48464Y284358D01*
X59894Y290200D02*
X59897Y290430D01*
X59905Y290660D01*
X59919Y290889D01*
X59938Y291118D01*
X59963Y291347D01*
X59993Y291574D01*
X60028Y291802D01*
X60069Y292028D01*
X60115Y292253D01*
X60167Y292477D01*
X60224Y292699D01*
X60286Y292921D01*
X60354Y293140D01*
X60427Y293358D01*
X60505Y293575D01*
X60588Y293789D01*
X60676Y294001D01*
X60769Y294211D01*
X60868Y294419D01*
X60901Y294509D01*
X60937Y294598D01*
X60977Y294686D01*
X61021Y294771D01*
X61068Y294855D01*
X61118Y294937D01*
X61172Y295017D01*
X61228Y295094D01*
X61288Y295170D01*
X61351Y295243D01*
X61416Y295313D01*
X61485Y295381D01*
X61556Y295445D01*
X61629Y295507D01*
X61705Y295566D01*
X61783Y295622D01*
X61864Y295675D01*
X61946Y295724D01*
X62030Y295770D01*
X62117Y295813D01*
X62204Y295852D01*
X62294Y295888D01*
X62384Y295920D01*
X62476Y295948D01*
X62569Y295973D01*
X62663Y295994D01*
X62757Y296011D01*
X62852Y296025D01*
X62948Y296034D01*
X63044Y296040D01*
X63140Y296042D01*
X63236Y296040D01*
X63332Y296034D01*
X63428Y296025D01*
X63523Y296011D01*
X63617Y295994D01*
X63711Y295973D01*
X63804Y295948D01*
X63896Y295920D01*
X63986Y295888D01*
X64076Y295852D01*
X64163Y295813D01*
X64250Y295770D01*
X64334Y295724D01*
X64416Y295675D01*
X64497Y295622D01*
X64575Y295566D01*
X64651Y295507D01*
X64724Y295445D01*
X64795Y295381D01*
X64864Y295313D01*
X64929Y295243D01*
X64992Y295170D01*
X65052Y295094D01*
X65108Y295017D01*
X65162Y294937D01*
X65212Y294855D01*
X65259Y294771D01*
X65303Y294686D01*
X65343Y294598D01*
X65379Y294509D01*
X65412Y294419D01*
X65511Y294212D01*
X65604Y294002D01*
X65692Y293789D01*
X65775Y293575D01*
X65853Y293359D01*
X65926Y293141D01*
X65994Y292921D01*
X66056Y292700D01*
X66113Y292477D01*
X66165Y292253D01*
X66211Y292028D01*
X66252Y291802D01*
X66287Y291575D01*
X66317Y291347D01*
X66342Y291118D01*
X66361Y290889D01*
X66375Y290660D01*
X66383Y290430D01*
X66386Y290200D01*
X59894Y290200D02*
X59897Y289970D01*
X59905Y289740D01*
X59919Y289511D01*
X59938Y289282D01*
X59963Y289053D01*
X59993Y288825D01*
X60028Y288598D01*
X60069Y288372D01*
X60115Y288147D01*
X60167Y287923D01*
X60224Y287700D01*
X60286Y287479D01*
X60354Y287259D01*
X60427Y287041D01*
X60505Y286825D01*
X60588Y286611D01*
X60676Y286399D01*
X60769Y286188D01*
X60868Y285981D01*
X60901Y285891D01*
X60937Y285802D01*
X60978Y285714D01*
X61021Y285629D01*
X61068Y285545D01*
X61118Y285463D01*
X61172Y285383D01*
X61228Y285306D01*
X61288Y285230D01*
X61351Y285157D01*
X61416Y285087D01*
X61485Y285019D01*
X61556Y284955D01*
X61629Y284893D01*
X61705Y284834D01*
X61783Y284778D01*
X61864Y284725D01*
X61946Y284676D01*
X62030Y284630D01*
X62117Y284587D01*
X62204Y284548D01*
X62294Y284512D01*
X62384Y284480D01*
X62476Y284452D01*
X62569Y284427D01*
X62663Y284406D01*
X62757Y284389D01*
X62852Y284375D01*
X62948Y284366D01*
X63044Y284360D01*
X63140Y284358D01*
X65411Y285981D02*
X65510Y286188D01*
X65603Y286399D01*
X65691Y286611D01*
X65774Y286825D01*
X65852Y287041D01*
X65925Y287259D01*
X65993Y287479D01*
X66055Y287700D01*
X66112Y287923D01*
X66164Y288147D01*
X66210Y288372D01*
X66251Y288598D01*
X66286Y288825D01*
X66316Y289053D01*
X66341Y289282D01*
X66360Y289511D01*
X66374Y289740D01*
X66382Y289970D01*
X66385Y290200D01*
X65412Y285981D02*
X65379Y285891D01*
X65343Y285802D01*
X65303Y285714D01*
X65259Y285629D01*
X65212Y285545D01*
X65162Y285463D01*
X65108Y285383D01*
X65052Y285306D01*
X64992Y285230D01*
X64929Y285157D01*
X64864Y285087D01*
X64795Y285019D01*
X64724Y284955D01*
X64651Y284893D01*
X64575Y284834D01*
X64497Y284778D01*
X64416Y284725D01*
X64334Y284676D01*
X64250Y284630D01*
X64163Y284587D01*
X64076Y284548D01*
X63986Y284512D01*
X63896Y284480D01*
X63804Y284452D01*
X63711Y284427D01*
X63617Y284406D01*
X63523Y284389D01*
X63428Y284375D01*
X63332Y284366D01*
X63236Y284360D01*
X63140Y284358D01*
X60543Y286954D02*
X65736Y293446D01*
X71324Y290200D02*
X71327Y290430D01*
X71335Y290660D01*
X71349Y290889D01*
X71368Y291118D01*
X71393Y291347D01*
X71423Y291574D01*
X71458Y291802D01*
X71499Y292028D01*
X71545Y292253D01*
X71597Y292477D01*
X71654Y292699D01*
X71716Y292921D01*
X71784Y293140D01*
X71857Y293358D01*
X71935Y293575D01*
X72018Y293789D01*
X72106Y294001D01*
X72199Y294211D01*
X72298Y294419D01*
X72331Y294509D01*
X72367Y294598D01*
X72407Y294686D01*
X72451Y294771D01*
X72498Y294855D01*
X72548Y294937D01*
X72602Y295017D01*
X72658Y295094D01*
X72718Y295170D01*
X72781Y295243D01*
X72846Y295313D01*
X72915Y295381D01*
X72986Y295445D01*
X73059Y295507D01*
X73135Y295566D01*
X73213Y295622D01*
X73294Y295675D01*
X73376Y295724D01*
X73460Y295770D01*
X73547Y295813D01*
X73634Y295852D01*
X73724Y295888D01*
X73814Y295920D01*
X73906Y295948D01*
X73999Y295973D01*
X74093Y295994D01*
X74187Y296011D01*
X74282Y296025D01*
X74378Y296034D01*
X74474Y296040D01*
X74570Y296042D01*
X74666Y296040D01*
X74762Y296034D01*
X74858Y296025D01*
X74953Y296011D01*
X75047Y295994D01*
X75141Y295973D01*
X75234Y295948D01*
X75326Y295920D01*
X75416Y295888D01*
X75506Y295852D01*
X75593Y295813D01*
X75680Y295770D01*
X75764Y295724D01*
X75846Y295675D01*
X75927Y295622D01*
X76005Y295566D01*
X76081Y295507D01*
X76154Y295445D01*
X76225Y295381D01*
X76294Y295313D01*
X76359Y295243D01*
X76422Y295170D01*
X76482Y295094D01*
X76538Y295017D01*
X76592Y294937D01*
X76642Y294855D01*
X76689Y294771D01*
X76733Y294686D01*
X76773Y294598D01*
X76809Y294509D01*
X76842Y294419D01*
X76941Y294212D01*
X77034Y294002D01*
X77122Y293789D01*
X77205Y293575D01*
X77283Y293359D01*
X77356Y293141D01*
X77424Y292921D01*
X77486Y292700D01*
X77543Y292477D01*
X77595Y292253D01*
X77641Y292028D01*
X77682Y291802D01*
X77717Y291575D01*
X77747Y291347D01*
X77772Y291118D01*
X77791Y290889D01*
X77805Y290660D01*
X77813Y290430D01*
X77816Y290200D01*
X71324Y290200D02*
X71327Y289970D01*
X71335Y289740D01*
X71349Y289511D01*
X71368Y289282D01*
X71393Y289053D01*
X71423Y288825D01*
X71458Y288598D01*
X71499Y288372D01*
X71545Y288147D01*
X71597Y287923D01*
X71654Y287700D01*
X71716Y287479D01*
X71784Y287259D01*
X71857Y287041D01*
X71935Y286825D01*
X72018Y286611D01*
X72106Y286399D01*
X72199Y286188D01*
X72298Y285981D01*
X72331Y285891D01*
X72367Y285802D01*
X72408Y285714D01*
X72451Y285629D01*
X72498Y285545D01*
X72548Y285463D01*
X72602Y285383D01*
X72658Y285306D01*
X72718Y285230D01*
X72781Y285157D01*
X72846Y285087D01*
X72915Y285019D01*
X72986Y284955D01*
X73059Y284893D01*
X73135Y284834D01*
X73213Y284778D01*
X73294Y284725D01*
X73376Y284676D01*
X73460Y284630D01*
X73547Y284587D01*
X73634Y284548D01*
X73724Y284512D01*
X73814Y284480D01*
X73906Y284452D01*
X73999Y284427D01*
X74093Y284406D01*
X74187Y284389D01*
X74282Y284375D01*
X74378Y284366D01*
X74474Y284360D01*
X74570Y284358D01*
X76841Y285981D02*
X76940Y286188D01*
X77033Y286399D01*
X77121Y286611D01*
X77204Y286825D01*
X77282Y287041D01*
X77355Y287259D01*
X77423Y287479D01*
X77485Y287700D01*
X77542Y287923D01*
X77594Y288147D01*
X77640Y288372D01*
X77681Y288598D01*
X77716Y288825D01*
X77746Y289053D01*
X77771Y289282D01*
X77790Y289511D01*
X77804Y289740D01*
X77812Y289970D01*
X77815Y290200D01*
X76842Y285981D02*
X76809Y285891D01*
X76773Y285802D01*
X76733Y285714D01*
X76689Y285629D01*
X76642Y285545D01*
X76592Y285463D01*
X76538Y285383D01*
X76482Y285306D01*
X76422Y285230D01*
X76359Y285157D01*
X76294Y285087D01*
X76225Y285019D01*
X76154Y284955D01*
X76081Y284893D01*
X76005Y284834D01*
X75927Y284778D01*
X75846Y284725D01*
X75764Y284676D01*
X75680Y284630D01*
X75593Y284587D01*
X75506Y284548D01*
X75416Y284512D01*
X75326Y284480D01*
X75234Y284452D01*
X75141Y284427D01*
X75047Y284406D01*
X74953Y284389D01*
X74858Y284375D01*
X74762Y284366D01*
X74666Y284360D01*
X74570Y284358D01*
X71973Y286954D02*
X77166Y293446D01*
X83209Y296042D02*
X83209Y284358D01*
X83209Y296042D02*
X86454Y296042D01*
X86567Y296040D01*
X86680Y296034D01*
X86793Y296024D01*
X86906Y296010D01*
X87018Y295993D01*
X87129Y295971D01*
X87239Y295946D01*
X87349Y295916D01*
X87457Y295883D01*
X87564Y295846D01*
X87670Y295806D01*
X87774Y295761D01*
X87877Y295713D01*
X87978Y295662D01*
X88077Y295607D01*
X88174Y295549D01*
X88269Y295487D01*
X88362Y295422D01*
X88452Y295354D01*
X88540Y295283D01*
X88626Y295208D01*
X88709Y295131D01*
X88789Y295051D01*
X88866Y294968D01*
X88941Y294882D01*
X89012Y294794D01*
X89080Y294704D01*
X89145Y294611D01*
X89207Y294516D01*
X89265Y294419D01*
X89320Y294320D01*
X89371Y294219D01*
X89419Y294116D01*
X89464Y294012D01*
X89504Y293906D01*
X89541Y293799D01*
X89574Y293691D01*
X89604Y293581D01*
X89629Y293471D01*
X89651Y293360D01*
X89668Y293248D01*
X89682Y293135D01*
X89692Y293022D01*
X89698Y292909D01*
X89700Y292796D01*
X89698Y292683D01*
X89692Y292570D01*
X89682Y292457D01*
X89668Y292344D01*
X89651Y292232D01*
X89629Y292121D01*
X89604Y292011D01*
X89574Y291901D01*
X89541Y291793D01*
X89504Y291686D01*
X89464Y291580D01*
X89419Y291476D01*
X89371Y291373D01*
X89320Y291272D01*
X89265Y291173D01*
X89207Y291076D01*
X89145Y290981D01*
X89080Y290888D01*
X89012Y290798D01*
X88941Y290710D01*
X88866Y290624D01*
X88789Y290541D01*
X88709Y290461D01*
X88626Y290384D01*
X88540Y290309D01*
X88452Y290238D01*
X88362Y290170D01*
X88269Y290105D01*
X88174Y290043D01*
X88077Y289985D01*
X87978Y289930D01*
X87877Y289879D01*
X87774Y289831D01*
X87670Y289786D01*
X87564Y289746D01*
X87457Y289709D01*
X87349Y289676D01*
X87239Y289646D01*
X87129Y289621D01*
X87018Y289599D01*
X86906Y289582D01*
X86793Y289568D01*
X86680Y289558D01*
X86567Y289552D01*
X86454Y289550D01*
X86454Y289551D02*
X83209Y289551D01*
X87103Y289551D02*
X89700Y284358D01*
X94071Y283060D02*
X99264Y283060D01*
X106192Y284358D02*
X106192Y296042D01*
X102947Y296042D02*
X109438Y296042D01*
X113996Y296042D02*
X113996Y284358D01*
X113996Y290849D02*
X120487Y290849D01*
X120487Y296042D02*
X120487Y284358D01*
X128290Y284358D02*
X128290Y296042D01*
X125045Y296042D02*
X131536Y296042D01*
D12*
X838000Y570000D02*
X932000Y570000D01*
X932000Y503000D01*
X932000Y492000D02*
X932000Y476000D01*
X838000Y476000D01*
X838000Y570000D01*
X932000Y503000D02*
X932148Y502998D01*
X932295Y502992D01*
X932443Y502982D01*
X932590Y502968D01*
X932736Y502951D01*
X932882Y502929D01*
X933028Y502903D01*
X933172Y502874D01*
X933316Y502840D01*
X933459Y502803D01*
X933601Y502762D01*
X933742Y502717D01*
X933881Y502668D01*
X934019Y502616D01*
X934156Y502560D01*
X934291Y502500D01*
X934424Y502437D01*
X934556Y502370D01*
X934686Y502300D01*
X934814Y502226D01*
X934940Y502149D01*
X935063Y502068D01*
X935185Y501984D01*
X935304Y501897D01*
X935421Y501807D01*
X935535Y501713D01*
X935647Y501617D01*
X935756Y501517D01*
X935863Y501415D01*
X935967Y501310D01*
X936067Y501202D01*
X936165Y501092D01*
X936260Y500978D01*
X936352Y500863D01*
X936441Y500745D01*
X936526Y500624D01*
X936609Y500502D01*
X936688Y500377D01*
X936763Y500250D01*
X936835Y500121D01*
X936904Y499990D01*
X936969Y499858D01*
X937030Y499724D01*
X937088Y499588D01*
X937143Y499450D01*
X937193Y499312D01*
X937240Y499171D01*
X937283Y499030D01*
X937322Y498888D01*
X937357Y498744D01*
X937389Y498600D01*
X937416Y498455D01*
X937440Y498309D01*
X937460Y498163D01*
X937476Y498016D01*
X937488Y497869D01*
X937496Y497721D01*
X937500Y497574D01*
X937500Y497426D01*
X937496Y497279D01*
X937488Y497131D01*
X937476Y496984D01*
X937460Y496837D01*
X937440Y496691D01*
X937416Y496545D01*
X937389Y496400D01*
X937357Y496256D01*
X937322Y496112D01*
X937283Y495970D01*
X937240Y495829D01*
X937193Y495688D01*
X937143Y495550D01*
X937088Y495412D01*
X937030Y495276D01*
X936969Y495142D01*
X936904Y495010D01*
X936835Y494879D01*
X936763Y494750D01*
X936688Y494623D01*
X936609Y494498D01*
X936526Y494376D01*
X936441Y494255D01*
X936352Y494137D01*
X936260Y494022D01*
X936165Y493908D01*
X936067Y493798D01*
X935967Y493690D01*
X935863Y493585D01*
X935756Y493483D01*
X935647Y493383D01*
X935535Y493287D01*
X935421Y493193D01*
X935304Y493103D01*
X935185Y493016D01*
X935063Y492932D01*
X934940Y492851D01*
X934814Y492774D01*
X934686Y492700D01*
X934556Y492630D01*
X934424Y492563D01*
X934291Y492500D01*
X934156Y492440D01*
X934019Y492384D01*
X933881Y492332D01*
X933742Y492283D01*
X933601Y492238D01*
X933459Y492197D01*
X933316Y492160D01*
X933172Y492126D01*
X933028Y492097D01*
X932882Y492071D01*
X932736Y492049D01*
X932590Y492032D01*
X932443Y492018D01*
X932295Y492008D01*
X932148Y492002D01*
X932000Y492000D01*
X906000Y588000D02*
X864000Y588000D01*
X864000Y571000D01*
X906000Y571000D02*
X906000Y588000D01*
D13*
X810597Y537342D02*
X802808Y525658D01*
X810597Y525658D02*
X802808Y537342D01*
X814887Y534746D02*
X818133Y537342D01*
X818133Y525658D01*
X821378Y525658D02*
X814887Y525658D01*
X826317Y525658D02*
X829563Y525658D01*
X829676Y525660D01*
X829789Y525666D01*
X829902Y525676D01*
X830015Y525690D01*
X830127Y525707D01*
X830238Y525729D01*
X830348Y525754D01*
X830458Y525784D01*
X830566Y525817D01*
X830673Y525854D01*
X830779Y525894D01*
X830883Y525939D01*
X830986Y525987D01*
X831087Y526038D01*
X831186Y526093D01*
X831283Y526151D01*
X831378Y526213D01*
X831471Y526278D01*
X831561Y526346D01*
X831649Y526417D01*
X831735Y526492D01*
X831818Y526569D01*
X831898Y526649D01*
X831975Y526732D01*
X832050Y526818D01*
X832121Y526906D01*
X832189Y526996D01*
X832254Y527089D01*
X832316Y527184D01*
X832374Y527281D01*
X832429Y527380D01*
X832480Y527481D01*
X832528Y527584D01*
X832573Y527688D01*
X832613Y527794D01*
X832650Y527901D01*
X832683Y528009D01*
X832713Y528119D01*
X832738Y528229D01*
X832760Y528340D01*
X832777Y528452D01*
X832791Y528565D01*
X832801Y528678D01*
X832807Y528791D01*
X832809Y528904D01*
X832807Y529017D01*
X832801Y529130D01*
X832791Y529243D01*
X832777Y529356D01*
X832760Y529468D01*
X832738Y529579D01*
X832713Y529689D01*
X832683Y529799D01*
X832650Y529907D01*
X832613Y530014D01*
X832573Y530120D01*
X832528Y530224D01*
X832480Y530327D01*
X832429Y530428D01*
X832374Y530527D01*
X832316Y530624D01*
X832254Y530719D01*
X832189Y530812D01*
X832121Y530902D01*
X832050Y530990D01*
X831975Y531076D01*
X831898Y531159D01*
X831818Y531239D01*
X831735Y531316D01*
X831649Y531391D01*
X831561Y531462D01*
X831471Y531530D01*
X831378Y531595D01*
X831283Y531657D01*
X831186Y531715D01*
X831087Y531770D01*
X830986Y531821D01*
X830883Y531869D01*
X830779Y531914D01*
X830673Y531954D01*
X830566Y531991D01*
X830458Y532024D01*
X830348Y532054D01*
X830238Y532079D01*
X830127Y532101D01*
X830015Y532118D01*
X829902Y532132D01*
X829789Y532142D01*
X829676Y532148D01*
X829563Y532150D01*
X830212Y537342D02*
X826317Y537342D01*
X830212Y537342D02*
X830313Y537340D01*
X830413Y537334D01*
X830513Y537324D01*
X830613Y537311D01*
X830712Y537293D01*
X830811Y537272D01*
X830908Y537247D01*
X831005Y537218D01*
X831100Y537185D01*
X831194Y537149D01*
X831286Y537109D01*
X831377Y537066D01*
X831466Y537019D01*
X831553Y536969D01*
X831639Y536915D01*
X831722Y536858D01*
X831802Y536798D01*
X831881Y536735D01*
X831957Y536668D01*
X832030Y536599D01*
X832100Y536527D01*
X832168Y536453D01*
X832233Y536376D01*
X832294Y536296D01*
X832353Y536214D01*
X832408Y536130D01*
X832460Y536044D01*
X832509Y535956D01*
X832554Y535866D01*
X832596Y535774D01*
X832634Y535681D01*
X832668Y535586D01*
X832699Y535491D01*
X832726Y535394D01*
X832749Y535296D01*
X832769Y535197D01*
X832784Y535097D01*
X832796Y534997D01*
X832804Y534897D01*
X832808Y534796D01*
X832808Y534696D01*
X832804Y534595D01*
X832796Y534495D01*
X832784Y534395D01*
X832769Y534295D01*
X832749Y534196D01*
X832726Y534098D01*
X832699Y534001D01*
X832668Y533906D01*
X832634Y533811D01*
X832596Y533718D01*
X832554Y533626D01*
X832509Y533536D01*
X832460Y533448D01*
X832408Y533362D01*
X832353Y533278D01*
X832294Y533196D01*
X832233Y533116D01*
X832168Y533039D01*
X832100Y532965D01*
X832030Y532893D01*
X831957Y532824D01*
X831881Y532757D01*
X831802Y532694D01*
X831722Y532634D01*
X831639Y532577D01*
X831553Y532523D01*
X831466Y532473D01*
X831377Y532426D01*
X831286Y532383D01*
X831194Y532343D01*
X831100Y532307D01*
X831005Y532274D01*
X830908Y532245D01*
X830811Y532220D01*
X830712Y532199D01*
X830613Y532181D01*
X830513Y532168D01*
X830413Y532158D01*
X830313Y532152D01*
X830212Y532150D01*
X830212Y532149D02*
X827615Y532149D01*
X927408Y585358D02*
X931303Y585358D01*
X931402Y585360D01*
X931502Y585366D01*
X931601Y585375D01*
X931699Y585388D01*
X931797Y585405D01*
X931895Y585426D01*
X931991Y585451D01*
X932086Y585479D01*
X932180Y585511D01*
X932273Y585546D01*
X932365Y585585D01*
X932455Y585628D01*
X932543Y585673D01*
X932630Y585723D01*
X932714Y585775D01*
X932797Y585831D01*
X932877Y585889D01*
X932955Y585951D01*
X933030Y586016D01*
X933103Y586084D01*
X933173Y586154D01*
X933241Y586227D01*
X933306Y586302D01*
X933368Y586380D01*
X933426Y586460D01*
X933482Y586543D01*
X933534Y586627D01*
X933584Y586714D01*
X933629Y586802D01*
X933672Y586892D01*
X933711Y586984D01*
X933746Y587077D01*
X933778Y587171D01*
X933806Y587266D01*
X933831Y587362D01*
X933852Y587460D01*
X933869Y587558D01*
X933882Y587656D01*
X933891Y587755D01*
X933897Y587855D01*
X933899Y587954D01*
X933899Y589253D01*
X933897Y589352D01*
X933891Y589452D01*
X933882Y589551D01*
X933869Y589649D01*
X933852Y589747D01*
X933831Y589845D01*
X933806Y589941D01*
X933778Y590036D01*
X933746Y590130D01*
X933711Y590223D01*
X933672Y590315D01*
X933629Y590405D01*
X933584Y590493D01*
X933534Y590580D01*
X933482Y590664D01*
X933426Y590747D01*
X933368Y590827D01*
X933306Y590905D01*
X933241Y590980D01*
X933173Y591053D01*
X933103Y591123D01*
X933030Y591191D01*
X932955Y591256D01*
X932877Y591318D01*
X932797Y591376D01*
X932714Y591432D01*
X932630Y591484D01*
X932543Y591534D01*
X932455Y591579D01*
X932365Y591622D01*
X932273Y591661D01*
X932180Y591696D01*
X932086Y591728D01*
X931991Y591756D01*
X931895Y591781D01*
X931797Y591802D01*
X931699Y591819D01*
X931601Y591832D01*
X931502Y591841D01*
X931402Y591847D01*
X931303Y591849D01*
X927408Y591849D01*
X927408Y597042D01*
X933899Y597042D01*
X938838Y585358D02*
X942733Y585358D01*
X942832Y585360D01*
X942932Y585366D01*
X943031Y585375D01*
X943129Y585388D01*
X943227Y585405D01*
X943325Y585426D01*
X943421Y585451D01*
X943516Y585479D01*
X943610Y585511D01*
X943703Y585546D01*
X943795Y585585D01*
X943885Y585628D01*
X943973Y585673D01*
X944060Y585723D01*
X944144Y585775D01*
X944227Y585831D01*
X944307Y585889D01*
X944385Y585951D01*
X944460Y586016D01*
X944533Y586084D01*
X944603Y586154D01*
X944671Y586227D01*
X944736Y586302D01*
X944798Y586380D01*
X944856Y586460D01*
X944912Y586543D01*
X944964Y586627D01*
X945014Y586714D01*
X945059Y586802D01*
X945102Y586892D01*
X945141Y586984D01*
X945176Y587077D01*
X945208Y587171D01*
X945236Y587266D01*
X945261Y587362D01*
X945282Y587460D01*
X945299Y587558D01*
X945312Y587656D01*
X945321Y587755D01*
X945327Y587855D01*
X945329Y587954D01*
X945329Y589253D01*
X945327Y589352D01*
X945321Y589452D01*
X945312Y589551D01*
X945299Y589649D01*
X945282Y589747D01*
X945261Y589845D01*
X945236Y589941D01*
X945208Y590036D01*
X945176Y590130D01*
X945141Y590223D01*
X945102Y590315D01*
X945059Y590405D01*
X945014Y590493D01*
X944964Y590580D01*
X944912Y590664D01*
X944856Y590747D01*
X944798Y590827D01*
X944736Y590905D01*
X944671Y590980D01*
X944603Y591053D01*
X944533Y591123D01*
X944460Y591191D01*
X944385Y591256D01*
X944307Y591318D01*
X944227Y591376D01*
X944144Y591432D01*
X944060Y591484D01*
X943973Y591534D01*
X943885Y591579D01*
X943795Y591622D01*
X943703Y591661D01*
X943610Y591696D01*
X943516Y591728D01*
X943421Y591756D01*
X943325Y591781D01*
X943227Y591802D01*
X943129Y591819D01*
X943031Y591832D01*
X942932Y591841D01*
X942832Y591847D01*
X942733Y591849D01*
X938838Y591849D01*
X938838Y597042D01*
X945329Y597042D01*
X950268Y591849D02*
X954163Y591849D01*
X954262Y591847D01*
X954362Y591841D01*
X954461Y591832D01*
X954559Y591819D01*
X954657Y591802D01*
X954755Y591781D01*
X954851Y591756D01*
X954946Y591728D01*
X955040Y591696D01*
X955133Y591661D01*
X955225Y591622D01*
X955315Y591579D01*
X955403Y591534D01*
X955490Y591484D01*
X955574Y591432D01*
X955657Y591376D01*
X955737Y591318D01*
X955815Y591256D01*
X955890Y591191D01*
X955963Y591123D01*
X956033Y591053D01*
X956101Y590980D01*
X956166Y590905D01*
X956228Y590827D01*
X956286Y590747D01*
X956342Y590664D01*
X956394Y590580D01*
X956444Y590493D01*
X956489Y590405D01*
X956532Y590315D01*
X956571Y590223D01*
X956606Y590130D01*
X956638Y590036D01*
X956666Y589941D01*
X956691Y589845D01*
X956712Y589747D01*
X956729Y589649D01*
X956742Y589551D01*
X956751Y589452D01*
X956757Y589352D01*
X956759Y589253D01*
X956759Y588604D01*
X956757Y588491D01*
X956751Y588378D01*
X956741Y588265D01*
X956727Y588152D01*
X956710Y588040D01*
X956688Y587929D01*
X956663Y587819D01*
X956633Y587709D01*
X956600Y587601D01*
X956563Y587494D01*
X956523Y587388D01*
X956478Y587284D01*
X956430Y587181D01*
X956379Y587080D01*
X956324Y586981D01*
X956266Y586884D01*
X956204Y586789D01*
X956139Y586696D01*
X956071Y586606D01*
X956000Y586518D01*
X955925Y586432D01*
X955848Y586349D01*
X955768Y586269D01*
X955685Y586192D01*
X955599Y586117D01*
X955511Y586046D01*
X955421Y585978D01*
X955328Y585913D01*
X955233Y585851D01*
X955136Y585793D01*
X955037Y585738D01*
X954936Y585687D01*
X954833Y585639D01*
X954729Y585594D01*
X954623Y585554D01*
X954516Y585517D01*
X954408Y585484D01*
X954298Y585454D01*
X954188Y585429D01*
X954077Y585407D01*
X953965Y585390D01*
X953852Y585376D01*
X953739Y585366D01*
X953626Y585360D01*
X953513Y585358D01*
X953400Y585360D01*
X953287Y585366D01*
X953174Y585376D01*
X953061Y585390D01*
X952949Y585407D01*
X952838Y585429D01*
X952728Y585454D01*
X952618Y585484D01*
X952510Y585517D01*
X952403Y585554D01*
X952297Y585594D01*
X952193Y585639D01*
X952090Y585687D01*
X951989Y585738D01*
X951890Y585793D01*
X951793Y585851D01*
X951698Y585913D01*
X951605Y585978D01*
X951515Y586046D01*
X951427Y586117D01*
X951341Y586192D01*
X951258Y586269D01*
X951178Y586349D01*
X951101Y586432D01*
X951026Y586518D01*
X950955Y586606D01*
X950887Y586696D01*
X950822Y586789D01*
X950760Y586884D01*
X950702Y586981D01*
X950647Y587080D01*
X950596Y587181D01*
X950548Y587284D01*
X950503Y587388D01*
X950463Y587494D01*
X950426Y587601D01*
X950393Y587709D01*
X950363Y587819D01*
X950338Y587929D01*
X950316Y588040D01*
X950299Y588152D01*
X950285Y588265D01*
X950275Y588378D01*
X950269Y588491D01*
X950267Y588604D01*
X950268Y588604D02*
X950268Y591849D01*
X950270Y591992D01*
X950276Y592135D01*
X950286Y592278D01*
X950300Y592420D01*
X950317Y592562D01*
X950339Y592704D01*
X950364Y592845D01*
X950394Y592985D01*
X950427Y593124D01*
X950464Y593262D01*
X950505Y593399D01*
X950549Y593535D01*
X950598Y593670D01*
X950650Y593803D01*
X950705Y593935D01*
X950765Y594065D01*
X950828Y594194D01*
X950894Y594321D01*
X950964Y594445D01*
X951037Y594568D01*
X951114Y594689D01*
X951194Y594808D01*
X951277Y594924D01*
X951363Y595039D01*
X951452Y595150D01*
X951545Y595260D01*
X951640Y595366D01*
X951739Y595470D01*
X951840Y595571D01*
X951944Y595670D01*
X952050Y595765D01*
X952160Y595858D01*
X952271Y595947D01*
X952386Y596033D01*
X952502Y596116D01*
X952621Y596196D01*
X952742Y596273D01*
X952864Y596346D01*
X952989Y596416D01*
X953116Y596482D01*
X953245Y596545D01*
X953375Y596605D01*
X953507Y596660D01*
X953640Y596712D01*
X953775Y596761D01*
X953911Y596805D01*
X954048Y596846D01*
X954186Y596883D01*
X954325Y596916D01*
X954465Y596946D01*
X954606Y596971D01*
X954748Y596993D01*
X954890Y597010D01*
X955032Y597024D01*
X955175Y597034D01*
X955318Y597040D01*
X955461Y597042D01*
X961698Y591849D02*
X965593Y591849D01*
X965692Y591847D01*
X965792Y591841D01*
X965891Y591832D01*
X965989Y591819D01*
X966087Y591802D01*
X966185Y591781D01*
X966281Y591756D01*
X966376Y591728D01*
X966470Y591696D01*
X966563Y591661D01*
X966655Y591622D01*
X966745Y591579D01*
X966833Y591534D01*
X966920Y591484D01*
X967004Y591432D01*
X967087Y591376D01*
X967167Y591318D01*
X967245Y591256D01*
X967320Y591191D01*
X967393Y591123D01*
X967463Y591053D01*
X967531Y590980D01*
X967596Y590905D01*
X967658Y590827D01*
X967716Y590747D01*
X967772Y590664D01*
X967824Y590580D01*
X967874Y590493D01*
X967919Y590405D01*
X967962Y590315D01*
X968001Y590223D01*
X968036Y590130D01*
X968068Y590036D01*
X968096Y589941D01*
X968121Y589845D01*
X968142Y589747D01*
X968159Y589649D01*
X968172Y589551D01*
X968181Y589452D01*
X968187Y589352D01*
X968189Y589253D01*
X968189Y588604D01*
X968187Y588491D01*
X968181Y588378D01*
X968171Y588265D01*
X968157Y588152D01*
X968140Y588040D01*
X968118Y587929D01*
X968093Y587819D01*
X968063Y587709D01*
X968030Y587601D01*
X967993Y587494D01*
X967953Y587388D01*
X967908Y587284D01*
X967860Y587181D01*
X967809Y587080D01*
X967754Y586981D01*
X967696Y586884D01*
X967634Y586789D01*
X967569Y586696D01*
X967501Y586606D01*
X967430Y586518D01*
X967355Y586432D01*
X967278Y586349D01*
X967198Y586269D01*
X967115Y586192D01*
X967029Y586117D01*
X966941Y586046D01*
X966851Y585978D01*
X966758Y585913D01*
X966663Y585851D01*
X966566Y585793D01*
X966467Y585738D01*
X966366Y585687D01*
X966263Y585639D01*
X966159Y585594D01*
X966053Y585554D01*
X965946Y585517D01*
X965838Y585484D01*
X965728Y585454D01*
X965618Y585429D01*
X965507Y585407D01*
X965395Y585390D01*
X965282Y585376D01*
X965169Y585366D01*
X965056Y585360D01*
X964943Y585358D01*
X964830Y585360D01*
X964717Y585366D01*
X964604Y585376D01*
X964491Y585390D01*
X964379Y585407D01*
X964268Y585429D01*
X964158Y585454D01*
X964048Y585484D01*
X963940Y585517D01*
X963833Y585554D01*
X963727Y585594D01*
X963623Y585639D01*
X963520Y585687D01*
X963419Y585738D01*
X963320Y585793D01*
X963223Y585851D01*
X963128Y585913D01*
X963035Y585978D01*
X962945Y586046D01*
X962857Y586117D01*
X962771Y586192D01*
X962688Y586269D01*
X962608Y586349D01*
X962531Y586432D01*
X962456Y586518D01*
X962385Y586606D01*
X962317Y586696D01*
X962252Y586789D01*
X962190Y586884D01*
X962132Y586981D01*
X962077Y587080D01*
X962026Y587181D01*
X961978Y587284D01*
X961933Y587388D01*
X961893Y587494D01*
X961856Y587601D01*
X961823Y587709D01*
X961793Y587819D01*
X961768Y587929D01*
X961746Y588040D01*
X961729Y588152D01*
X961715Y588265D01*
X961705Y588378D01*
X961699Y588491D01*
X961697Y588604D01*
X961698Y588604D02*
X961698Y591849D01*
X961700Y591992D01*
X961706Y592135D01*
X961716Y592278D01*
X961730Y592420D01*
X961747Y592562D01*
X961769Y592704D01*
X961794Y592845D01*
X961824Y592985D01*
X961857Y593124D01*
X961894Y593262D01*
X961935Y593399D01*
X961979Y593535D01*
X962028Y593670D01*
X962080Y593803D01*
X962135Y593935D01*
X962195Y594065D01*
X962258Y594194D01*
X962324Y594321D01*
X962394Y594445D01*
X962467Y594568D01*
X962544Y594689D01*
X962624Y594808D01*
X962707Y594924D01*
X962793Y595039D01*
X962882Y595150D01*
X962975Y595260D01*
X963070Y595366D01*
X963169Y595470D01*
X963270Y595571D01*
X963374Y595670D01*
X963480Y595765D01*
X963590Y595858D01*
X963701Y595947D01*
X963816Y596033D01*
X963932Y596116D01*
X964051Y596196D01*
X964172Y596273D01*
X964294Y596346D01*
X964419Y596416D01*
X964546Y596482D01*
X964675Y596545D01*
X964805Y596605D01*
X964937Y596660D01*
X965070Y596712D01*
X965205Y596761D01*
X965341Y596805D01*
X965478Y596846D01*
X965616Y596883D01*
X965755Y596916D01*
X965895Y596946D01*
X966036Y596971D01*
X966178Y596993D01*
X966320Y597010D01*
X966462Y597024D01*
X966605Y597034D01*
X966748Y597040D01*
X966891Y597042D01*
X973241Y589902D02*
X981030Y589902D01*
X986082Y587954D02*
X988678Y597042D01*
X986082Y587954D02*
X992573Y587954D01*
X990626Y590551D02*
X990626Y585358D01*
D15*
X266000Y610000D03*
X214000Y610000D03*
D12*
X1500000Y200400D02*
X1720000Y200400D01*
X1720000Y133400D01*
X1720000Y122400D02*
X1720000Y-29600D01*
X1500000Y-29600D01*
X1500000Y200400D01*
X1720000Y133400D02*
X1720148Y133398D01*
X1720295Y133392D01*
X1720443Y133382D01*
X1720590Y133368D01*
X1720736Y133351D01*
X1720882Y133329D01*
X1721028Y133303D01*
X1721172Y133274D01*
X1721316Y133240D01*
X1721459Y133203D01*
X1721601Y133162D01*
X1721742Y133117D01*
X1721881Y133068D01*
X1722019Y133016D01*
X1722156Y132960D01*
X1722291Y132900D01*
X1722424Y132837D01*
X1722556Y132770D01*
X1722686Y132700D01*
X1722814Y132626D01*
X1722940Y132549D01*
X1723063Y132468D01*
X1723185Y132384D01*
X1723304Y132297D01*
X1723421Y132207D01*
X1723535Y132113D01*
X1723647Y132017D01*
X1723756Y131917D01*
X1723863Y131815D01*
X1723967Y131710D01*
X1724067Y131602D01*
X1724165Y131492D01*
X1724260Y131378D01*
X1724352Y131263D01*
X1724441Y131145D01*
X1724526Y131024D01*
X1724609Y130902D01*
X1724688Y130777D01*
X1724763Y130650D01*
X1724835Y130521D01*
X1724904Y130390D01*
X1724969Y130258D01*
X1725030Y130124D01*
X1725088Y129988D01*
X1725143Y129850D01*
X1725193Y129712D01*
X1725240Y129571D01*
X1725283Y129430D01*
X1725322Y129288D01*
X1725357Y129144D01*
X1725389Y129000D01*
X1725416Y128855D01*
X1725440Y128709D01*
X1725460Y128563D01*
X1725476Y128416D01*
X1725488Y128269D01*
X1725496Y128121D01*
X1725500Y127974D01*
X1725500Y127826D01*
X1725496Y127679D01*
X1725488Y127531D01*
X1725476Y127384D01*
X1725460Y127237D01*
X1725440Y127091D01*
X1725416Y126945D01*
X1725389Y126800D01*
X1725357Y126656D01*
X1725322Y126512D01*
X1725283Y126370D01*
X1725240Y126229D01*
X1725193Y126088D01*
X1725143Y125950D01*
X1725088Y125812D01*
X1725030Y125676D01*
X1724969Y125542D01*
X1724904Y125410D01*
X1724835Y125279D01*
X1724763Y125150D01*
X1724688Y125023D01*
X1724609Y124898D01*
X1724526Y124776D01*
X1724441Y124655D01*
X1724352Y124537D01*
X1724260Y124422D01*
X1724165Y124308D01*
X1724067Y124198D01*
X1723967Y124090D01*
X1723863Y123985D01*
X1723756Y123883D01*
X1723647Y123783D01*
X1723535Y123687D01*
X1723421Y123593D01*
X1723304Y123503D01*
X1723185Y123416D01*
X1723063Y123332D01*
X1722940Y123251D01*
X1722814Y123174D01*
X1722686Y123100D01*
X1722556Y123030D01*
X1722424Y122963D01*
X1722291Y122900D01*
X1722156Y122840D01*
X1722019Y122784D01*
X1721881Y122732D01*
X1721742Y122683D01*
X1721601Y122638D01*
X1721459Y122597D01*
X1721316Y122560D01*
X1721172Y122526D01*
X1721028Y122497D01*
X1720882Y122471D01*
X1720736Y122449D01*
X1720590Y122432D01*
X1720443Y122418D01*
X1720295Y122408D01*
X1720148Y122402D01*
X1720000Y122400D01*
X1631000Y218400D02*
X1589000Y218400D01*
X1589000Y201400D01*
X1631000Y201400D02*
X1631000Y218400D01*
D13*
X1667658Y97742D02*
X1667658Y89304D01*
X1667660Y89191D01*
X1667666Y89078D01*
X1667676Y88965D01*
X1667690Y88852D01*
X1667707Y88740D01*
X1667729Y88629D01*
X1667754Y88519D01*
X1667784Y88409D01*
X1667817Y88301D01*
X1667854Y88194D01*
X1667894Y88088D01*
X1667939Y87984D01*
X1667987Y87881D01*
X1668038Y87780D01*
X1668093Y87681D01*
X1668151Y87584D01*
X1668213Y87489D01*
X1668278Y87396D01*
X1668346Y87306D01*
X1668417Y87218D01*
X1668492Y87132D01*
X1668569Y87049D01*
X1668649Y86969D01*
X1668732Y86892D01*
X1668818Y86817D01*
X1668906Y86746D01*
X1668996Y86678D01*
X1669089Y86613D01*
X1669184Y86551D01*
X1669281Y86493D01*
X1669380Y86438D01*
X1669481Y86387D01*
X1669584Y86339D01*
X1669688Y86294D01*
X1669794Y86254D01*
X1669901Y86217D01*
X1670009Y86184D01*
X1670119Y86154D01*
X1670229Y86129D01*
X1670340Y86107D01*
X1670452Y86090D01*
X1670565Y86076D01*
X1670678Y86066D01*
X1670791Y86060D01*
X1670904Y86058D01*
X1671017Y86060D01*
X1671130Y86066D01*
X1671243Y86076D01*
X1671356Y86090D01*
X1671468Y86107D01*
X1671579Y86129D01*
X1671689Y86154D01*
X1671799Y86184D01*
X1671907Y86217D01*
X1672014Y86254D01*
X1672120Y86294D01*
X1672224Y86339D01*
X1672327Y86387D01*
X1672428Y86438D01*
X1672527Y86493D01*
X1672624Y86551D01*
X1672719Y86613D01*
X1672812Y86678D01*
X1672902Y86746D01*
X1672990Y86817D01*
X1673076Y86892D01*
X1673159Y86969D01*
X1673239Y87049D01*
X1673316Y87132D01*
X1673391Y87218D01*
X1673462Y87306D01*
X1673530Y87396D01*
X1673595Y87489D01*
X1673657Y87584D01*
X1673715Y87681D01*
X1673770Y87780D01*
X1673821Y87881D01*
X1673869Y87984D01*
X1673914Y88088D01*
X1673954Y88194D01*
X1673991Y88301D01*
X1674024Y88409D01*
X1674054Y88519D01*
X1674079Y88629D01*
X1674101Y88740D01*
X1674118Y88852D01*
X1674132Y88965D01*
X1674142Y89078D01*
X1674148Y89191D01*
X1674150Y89304D01*
X1674149Y89304D02*
X1674149Y97742D01*
X1681953Y97742D02*
X1681953Y86058D01*
X1681953Y91900D02*
X1680330Y92874D01*
X1680329Y92873D02*
X1680256Y92920D01*
X1680185Y92969D01*
X1680115Y93022D01*
X1680049Y93078D01*
X1679985Y93137D01*
X1679923Y93198D01*
X1679865Y93262D01*
X1679809Y93329D01*
X1679757Y93398D01*
X1679707Y93470D01*
X1679661Y93544D01*
X1679618Y93619D01*
X1679579Y93697D01*
X1679543Y93776D01*
X1679511Y93857D01*
X1679482Y93939D01*
X1679457Y94022D01*
X1679436Y94106D01*
X1679419Y94191D01*
X1679405Y94277D01*
X1679396Y94363D01*
X1679390Y94450D01*
X1679388Y94537D01*
X1679390Y94624D01*
X1679396Y94711D01*
X1679406Y94797D01*
X1679419Y94883D01*
X1679437Y94968D01*
X1679458Y95052D01*
X1679483Y95135D01*
X1679512Y95218D01*
X1679544Y95298D01*
X1679580Y95377D01*
X1679619Y95455D01*
X1679662Y95530D01*
X1679709Y95604D01*
X1679758Y95675D01*
X1679811Y95745D01*
X1679866Y95811D01*
X1679925Y95875D01*
X1679986Y95937D01*
X1680051Y95996D01*
X1680117Y96051D01*
X1680186Y96104D01*
X1680258Y96154D01*
X1680331Y96200D01*
X1680407Y96243D01*
X1680484Y96282D01*
X1680563Y96318D01*
X1680644Y96351D01*
X1680726Y96379D01*
X1680809Y96405D01*
X1680893Y96426D01*
X1680979Y96443D01*
X1680979Y96444D02*
X1681119Y96468D01*
X1681261Y96488D01*
X1681402Y96504D01*
X1681544Y96515D01*
X1681687Y96523D01*
X1681829Y96527D01*
X1681972Y96528D01*
X1682115Y96524D01*
X1682257Y96516D01*
X1682399Y96504D01*
X1682541Y96488D01*
X1682682Y96469D01*
X1682823Y96445D01*
X1682963Y96418D01*
X1683102Y96386D01*
X1683240Y96351D01*
X1683378Y96312D01*
X1683514Y96269D01*
X1683648Y96223D01*
X1683782Y96172D01*
X1683914Y96119D01*
X1684044Y96061D01*
X1684173Y96000D01*
X1684300Y95935D01*
X1684426Y95867D01*
X1684549Y95795D01*
X1681953Y91900D02*
X1683575Y90926D01*
X1683576Y90927D02*
X1683649Y90880D01*
X1683720Y90831D01*
X1683790Y90778D01*
X1683856Y90722D01*
X1683920Y90663D01*
X1683982Y90602D01*
X1684040Y90538D01*
X1684096Y90471D01*
X1684148Y90402D01*
X1684198Y90330D01*
X1684244Y90256D01*
X1684287Y90181D01*
X1684326Y90103D01*
X1684362Y90024D01*
X1684394Y89943D01*
X1684423Y89861D01*
X1684448Y89778D01*
X1684469Y89694D01*
X1684486Y89609D01*
X1684500Y89523D01*
X1684509Y89437D01*
X1684515Y89350D01*
X1684517Y89263D01*
X1684515Y89176D01*
X1684509Y89089D01*
X1684499Y89003D01*
X1684486Y88917D01*
X1684468Y88832D01*
X1684447Y88748D01*
X1684422Y88665D01*
X1684393Y88582D01*
X1684361Y88502D01*
X1684325Y88423D01*
X1684286Y88345D01*
X1684243Y88270D01*
X1684196Y88196D01*
X1684147Y88125D01*
X1684094Y88055D01*
X1684039Y87989D01*
X1683980Y87925D01*
X1683919Y87863D01*
X1683854Y87804D01*
X1683788Y87749D01*
X1683719Y87696D01*
X1683647Y87646D01*
X1683574Y87600D01*
X1683498Y87557D01*
X1683421Y87518D01*
X1683342Y87482D01*
X1683261Y87449D01*
X1683179Y87421D01*
X1683096Y87395D01*
X1683012Y87374D01*
X1682927Y87357D01*
X1682926Y87356D02*
X1682786Y87332D01*
X1682644Y87312D01*
X1682503Y87296D01*
X1682361Y87285D01*
X1682218Y87277D01*
X1682076Y87273D01*
X1681933Y87272D01*
X1681790Y87276D01*
X1681648Y87284D01*
X1681506Y87296D01*
X1681364Y87312D01*
X1681223Y87331D01*
X1681082Y87355D01*
X1680942Y87382D01*
X1680803Y87414D01*
X1680665Y87449D01*
X1680527Y87488D01*
X1680391Y87531D01*
X1680257Y87577D01*
X1680123Y87628D01*
X1679991Y87681D01*
X1679861Y87739D01*
X1679732Y87800D01*
X1679605Y87865D01*
X1679479Y87933D01*
X1679356Y88005D01*
X1689375Y86058D02*
X1693270Y86058D01*
X1693369Y86060D01*
X1693469Y86066D01*
X1693568Y86075D01*
X1693666Y86088D01*
X1693764Y86105D01*
X1693862Y86126D01*
X1693958Y86151D01*
X1694053Y86179D01*
X1694147Y86211D01*
X1694240Y86246D01*
X1694332Y86285D01*
X1694422Y86328D01*
X1694510Y86373D01*
X1694597Y86423D01*
X1694681Y86475D01*
X1694764Y86531D01*
X1694844Y86589D01*
X1694922Y86651D01*
X1694997Y86716D01*
X1695070Y86784D01*
X1695140Y86854D01*
X1695208Y86927D01*
X1695273Y87002D01*
X1695335Y87080D01*
X1695393Y87160D01*
X1695449Y87243D01*
X1695501Y87327D01*
X1695551Y87414D01*
X1695596Y87502D01*
X1695639Y87592D01*
X1695678Y87684D01*
X1695713Y87777D01*
X1695745Y87871D01*
X1695773Y87966D01*
X1695798Y88062D01*
X1695819Y88160D01*
X1695836Y88258D01*
X1695849Y88356D01*
X1695858Y88455D01*
X1695864Y88555D01*
X1695866Y88654D01*
X1695866Y89953D01*
X1695864Y90052D01*
X1695858Y90152D01*
X1695849Y90251D01*
X1695836Y90349D01*
X1695819Y90447D01*
X1695798Y90545D01*
X1695773Y90641D01*
X1695745Y90736D01*
X1695713Y90830D01*
X1695678Y90923D01*
X1695639Y91015D01*
X1695596Y91105D01*
X1695551Y91193D01*
X1695501Y91280D01*
X1695449Y91364D01*
X1695393Y91447D01*
X1695335Y91527D01*
X1695273Y91605D01*
X1695208Y91680D01*
X1695140Y91753D01*
X1695070Y91823D01*
X1694997Y91891D01*
X1694922Y91956D01*
X1694844Y92018D01*
X1694764Y92076D01*
X1694681Y92132D01*
X1694597Y92184D01*
X1694510Y92234D01*
X1694422Y92279D01*
X1694332Y92322D01*
X1694240Y92361D01*
X1694147Y92396D01*
X1694053Y92428D01*
X1693958Y92456D01*
X1693862Y92481D01*
X1693764Y92502D01*
X1693666Y92519D01*
X1693568Y92532D01*
X1693469Y92541D01*
X1693369Y92547D01*
X1693270Y92549D01*
X1689375Y92549D01*
X1689375Y97742D01*
X1695866Y97742D01*
X1512154Y97742D02*
X1508908Y95146D01*
X1512154Y97742D02*
X1512154Y86058D01*
X1515399Y86058D02*
X1508908Y86058D01*
X1520338Y86058D02*
X1524233Y86058D01*
X1524332Y86060D01*
X1524432Y86066D01*
X1524531Y86075D01*
X1524629Y86088D01*
X1524727Y86105D01*
X1524825Y86126D01*
X1524921Y86151D01*
X1525016Y86179D01*
X1525110Y86211D01*
X1525203Y86246D01*
X1525295Y86285D01*
X1525385Y86328D01*
X1525473Y86373D01*
X1525560Y86423D01*
X1525644Y86475D01*
X1525727Y86531D01*
X1525807Y86589D01*
X1525885Y86651D01*
X1525960Y86716D01*
X1526033Y86784D01*
X1526103Y86854D01*
X1526171Y86927D01*
X1526236Y87002D01*
X1526298Y87080D01*
X1526356Y87160D01*
X1526412Y87243D01*
X1526464Y87327D01*
X1526514Y87414D01*
X1526559Y87502D01*
X1526602Y87592D01*
X1526641Y87684D01*
X1526676Y87777D01*
X1526708Y87871D01*
X1526736Y87966D01*
X1526761Y88062D01*
X1526782Y88160D01*
X1526799Y88258D01*
X1526812Y88356D01*
X1526821Y88455D01*
X1526827Y88555D01*
X1526829Y88654D01*
X1526829Y89953D01*
X1526827Y90052D01*
X1526821Y90152D01*
X1526812Y90251D01*
X1526799Y90349D01*
X1526782Y90447D01*
X1526761Y90545D01*
X1526736Y90641D01*
X1526708Y90736D01*
X1526676Y90830D01*
X1526641Y90923D01*
X1526602Y91015D01*
X1526559Y91105D01*
X1526514Y91193D01*
X1526464Y91280D01*
X1526412Y91364D01*
X1526356Y91447D01*
X1526298Y91527D01*
X1526236Y91605D01*
X1526171Y91680D01*
X1526103Y91753D01*
X1526033Y91823D01*
X1525960Y91891D01*
X1525885Y91956D01*
X1525807Y92018D01*
X1525727Y92076D01*
X1525644Y92132D01*
X1525560Y92184D01*
X1525473Y92234D01*
X1525385Y92279D01*
X1525295Y92322D01*
X1525203Y92361D01*
X1525110Y92396D01*
X1525016Y92428D01*
X1524921Y92456D01*
X1524825Y92481D01*
X1524727Y92502D01*
X1524629Y92519D01*
X1524531Y92532D01*
X1524432Y92541D01*
X1524332Y92547D01*
X1524233Y92549D01*
X1520338Y92549D01*
X1520338Y97742D01*
X1526829Y97742D01*
X1531881Y90602D02*
X1539670Y90602D01*
X1548292Y97742D02*
X1548399Y97740D01*
X1548505Y97734D01*
X1548611Y97724D01*
X1548717Y97711D01*
X1548823Y97693D01*
X1548927Y97672D01*
X1549031Y97647D01*
X1549134Y97618D01*
X1549235Y97586D01*
X1549335Y97549D01*
X1549434Y97509D01*
X1549532Y97466D01*
X1549628Y97419D01*
X1549722Y97368D01*
X1549814Y97314D01*
X1549904Y97257D01*
X1549992Y97197D01*
X1550077Y97133D01*
X1550160Y97066D01*
X1550241Y96996D01*
X1550319Y96924D01*
X1550395Y96848D01*
X1550467Y96770D01*
X1550537Y96689D01*
X1550604Y96606D01*
X1550668Y96521D01*
X1550728Y96433D01*
X1550785Y96343D01*
X1550839Y96251D01*
X1550890Y96157D01*
X1550937Y96061D01*
X1550980Y95963D01*
X1551020Y95864D01*
X1551057Y95764D01*
X1551089Y95663D01*
X1551118Y95560D01*
X1551143Y95456D01*
X1551164Y95352D01*
X1551182Y95246D01*
X1551195Y95140D01*
X1551205Y95034D01*
X1551211Y94928D01*
X1551213Y94821D01*
X1548292Y97742D02*
X1548171Y97740D01*
X1548050Y97734D01*
X1547930Y97724D01*
X1547809Y97711D01*
X1547690Y97693D01*
X1547570Y97672D01*
X1547452Y97647D01*
X1547335Y97618D01*
X1547218Y97585D01*
X1547103Y97549D01*
X1546989Y97508D01*
X1546876Y97465D01*
X1546764Y97417D01*
X1546655Y97366D01*
X1546547Y97311D01*
X1546440Y97253D01*
X1546336Y97192D01*
X1546234Y97127D01*
X1546134Y97059D01*
X1546036Y96988D01*
X1545940Y96914D01*
X1545847Y96837D01*
X1545757Y96756D01*
X1545669Y96673D01*
X1545584Y96587D01*
X1545501Y96498D01*
X1545422Y96407D01*
X1545345Y96313D01*
X1545272Y96217D01*
X1545202Y96119D01*
X1545135Y96018D01*
X1545071Y95915D01*
X1545011Y95810D01*
X1544954Y95703D01*
X1544900Y95595D01*
X1544850Y95485D01*
X1544804Y95373D01*
X1544761Y95260D01*
X1544722Y95145D01*
X1550240Y92549D02*
X1550319Y92626D01*
X1550395Y92707D01*
X1550468Y92790D01*
X1550538Y92875D01*
X1550605Y92963D01*
X1550669Y93053D01*
X1550729Y93145D01*
X1550786Y93240D01*
X1550840Y93336D01*
X1550891Y93434D01*
X1550938Y93534D01*
X1550982Y93636D01*
X1551022Y93739D01*
X1551058Y93843D01*
X1551090Y93949D01*
X1551119Y94055D01*
X1551144Y94163D01*
X1551166Y94271D01*
X1551183Y94381D01*
X1551197Y94490D01*
X1551206Y94600D01*
X1551212Y94711D01*
X1551214Y94821D01*
X1550239Y92549D02*
X1544722Y86058D01*
X1551213Y86058D01*
X1556152Y88654D02*
X1558748Y97742D01*
X1556152Y88654D02*
X1562643Y88654D01*
X1560696Y91251D02*
X1560696Y86058D01*
X1567695Y90602D02*
X1575484Y90602D01*
X1580536Y92549D02*
X1584431Y92549D01*
X1584530Y92547D01*
X1584630Y92541D01*
X1584729Y92532D01*
X1584827Y92519D01*
X1584925Y92502D01*
X1585023Y92481D01*
X1585119Y92456D01*
X1585214Y92428D01*
X1585308Y92396D01*
X1585401Y92361D01*
X1585493Y92322D01*
X1585583Y92279D01*
X1585671Y92234D01*
X1585758Y92184D01*
X1585842Y92132D01*
X1585925Y92076D01*
X1586005Y92018D01*
X1586083Y91956D01*
X1586158Y91891D01*
X1586231Y91823D01*
X1586301Y91753D01*
X1586369Y91680D01*
X1586434Y91605D01*
X1586496Y91527D01*
X1586554Y91447D01*
X1586610Y91364D01*
X1586662Y91280D01*
X1586712Y91193D01*
X1586757Y91105D01*
X1586800Y91015D01*
X1586839Y90923D01*
X1586874Y90830D01*
X1586906Y90736D01*
X1586934Y90641D01*
X1586959Y90545D01*
X1586980Y90447D01*
X1586997Y90349D01*
X1587010Y90251D01*
X1587019Y90152D01*
X1587025Y90052D01*
X1587027Y89953D01*
X1587027Y89304D01*
X1587025Y89191D01*
X1587019Y89078D01*
X1587009Y88965D01*
X1586995Y88852D01*
X1586978Y88740D01*
X1586956Y88629D01*
X1586931Y88519D01*
X1586901Y88409D01*
X1586868Y88301D01*
X1586831Y88194D01*
X1586791Y88088D01*
X1586746Y87984D01*
X1586698Y87881D01*
X1586647Y87780D01*
X1586592Y87681D01*
X1586534Y87584D01*
X1586472Y87489D01*
X1586407Y87396D01*
X1586339Y87306D01*
X1586268Y87218D01*
X1586193Y87132D01*
X1586116Y87049D01*
X1586036Y86969D01*
X1585953Y86892D01*
X1585867Y86817D01*
X1585779Y86746D01*
X1585689Y86678D01*
X1585596Y86613D01*
X1585501Y86551D01*
X1585404Y86493D01*
X1585305Y86438D01*
X1585204Y86387D01*
X1585101Y86339D01*
X1584997Y86294D01*
X1584891Y86254D01*
X1584784Y86217D01*
X1584676Y86184D01*
X1584566Y86154D01*
X1584456Y86129D01*
X1584345Y86107D01*
X1584233Y86090D01*
X1584120Y86076D01*
X1584007Y86066D01*
X1583894Y86060D01*
X1583781Y86058D01*
X1583668Y86060D01*
X1583555Y86066D01*
X1583442Y86076D01*
X1583329Y86090D01*
X1583217Y86107D01*
X1583106Y86129D01*
X1582996Y86154D01*
X1582886Y86184D01*
X1582778Y86217D01*
X1582671Y86254D01*
X1582565Y86294D01*
X1582461Y86339D01*
X1582358Y86387D01*
X1582257Y86438D01*
X1582158Y86493D01*
X1582061Y86551D01*
X1581966Y86613D01*
X1581873Y86678D01*
X1581783Y86746D01*
X1581695Y86817D01*
X1581609Y86892D01*
X1581526Y86969D01*
X1581446Y87049D01*
X1581369Y87132D01*
X1581294Y87218D01*
X1581223Y87306D01*
X1581155Y87396D01*
X1581090Y87489D01*
X1581028Y87584D01*
X1580970Y87681D01*
X1580915Y87780D01*
X1580864Y87881D01*
X1580816Y87984D01*
X1580771Y88088D01*
X1580731Y88194D01*
X1580694Y88301D01*
X1580661Y88409D01*
X1580631Y88519D01*
X1580606Y88629D01*
X1580584Y88740D01*
X1580567Y88852D01*
X1580553Y88965D01*
X1580543Y89078D01*
X1580537Y89191D01*
X1580535Y89304D01*
X1580536Y89304D02*
X1580536Y92549D01*
X1580538Y92692D01*
X1580544Y92835D01*
X1580554Y92978D01*
X1580568Y93120D01*
X1580585Y93262D01*
X1580607Y93404D01*
X1580632Y93545D01*
X1580662Y93685D01*
X1580695Y93824D01*
X1580732Y93962D01*
X1580773Y94099D01*
X1580817Y94235D01*
X1580866Y94370D01*
X1580918Y94503D01*
X1580973Y94635D01*
X1581033Y94765D01*
X1581096Y94894D01*
X1581162Y95021D01*
X1581232Y95145D01*
X1581305Y95268D01*
X1581382Y95389D01*
X1581462Y95508D01*
X1581545Y95624D01*
X1581631Y95739D01*
X1581720Y95850D01*
X1581813Y95960D01*
X1581908Y96066D01*
X1582007Y96170D01*
X1582108Y96271D01*
X1582212Y96370D01*
X1582318Y96465D01*
X1582428Y96558D01*
X1582539Y96647D01*
X1582654Y96733D01*
X1582770Y96816D01*
X1582889Y96896D01*
X1583010Y96973D01*
X1583132Y97046D01*
X1583257Y97116D01*
X1583384Y97182D01*
X1583513Y97245D01*
X1583643Y97305D01*
X1583775Y97360D01*
X1583908Y97412D01*
X1584043Y97461D01*
X1584179Y97505D01*
X1584316Y97546D01*
X1584454Y97583D01*
X1584593Y97616D01*
X1584733Y97646D01*
X1584874Y97671D01*
X1585016Y97693D01*
X1585158Y97710D01*
X1585300Y97724D01*
X1585443Y97734D01*
X1585586Y97740D01*
X1585729Y97742D01*
X1591966Y95146D02*
X1595211Y97742D01*
X1595211Y86058D01*
X1591966Y86058D02*
X1598457Y86058D01*
X1603396Y91900D02*
X1603399Y92130D01*
X1603407Y92360D01*
X1603421Y92589D01*
X1603440Y92818D01*
X1603465Y93047D01*
X1603495Y93274D01*
X1603530Y93502D01*
X1603571Y93728D01*
X1603617Y93953D01*
X1603669Y94177D01*
X1603726Y94399D01*
X1603788Y94621D01*
X1603856Y94840D01*
X1603929Y95058D01*
X1604007Y95275D01*
X1604090Y95489D01*
X1604178Y95701D01*
X1604271Y95911D01*
X1604370Y96119D01*
X1604369Y96119D02*
X1604402Y96209D01*
X1604438Y96298D01*
X1604478Y96386D01*
X1604522Y96471D01*
X1604569Y96555D01*
X1604619Y96637D01*
X1604673Y96717D01*
X1604729Y96794D01*
X1604789Y96870D01*
X1604852Y96943D01*
X1604917Y97013D01*
X1604986Y97081D01*
X1605057Y97145D01*
X1605130Y97207D01*
X1605206Y97266D01*
X1605284Y97322D01*
X1605365Y97375D01*
X1605447Y97424D01*
X1605531Y97470D01*
X1605618Y97513D01*
X1605705Y97552D01*
X1605795Y97588D01*
X1605885Y97620D01*
X1605977Y97648D01*
X1606070Y97673D01*
X1606164Y97694D01*
X1606258Y97711D01*
X1606353Y97725D01*
X1606449Y97734D01*
X1606545Y97740D01*
X1606641Y97742D01*
X1606737Y97740D01*
X1606833Y97734D01*
X1606929Y97725D01*
X1607024Y97711D01*
X1607118Y97694D01*
X1607212Y97673D01*
X1607305Y97648D01*
X1607397Y97620D01*
X1607487Y97588D01*
X1607577Y97552D01*
X1607664Y97513D01*
X1607751Y97470D01*
X1607835Y97424D01*
X1607917Y97375D01*
X1607998Y97322D01*
X1608076Y97266D01*
X1608152Y97207D01*
X1608225Y97145D01*
X1608296Y97081D01*
X1608365Y97013D01*
X1608430Y96943D01*
X1608493Y96870D01*
X1608553Y96794D01*
X1608609Y96717D01*
X1608663Y96637D01*
X1608713Y96555D01*
X1608760Y96471D01*
X1608804Y96386D01*
X1608844Y96298D01*
X1608880Y96209D01*
X1608913Y96119D01*
X1609012Y95912D01*
X1609105Y95702D01*
X1609193Y95489D01*
X1609276Y95275D01*
X1609354Y95059D01*
X1609427Y94841D01*
X1609495Y94621D01*
X1609557Y94400D01*
X1609614Y94177D01*
X1609666Y93953D01*
X1609712Y93728D01*
X1609753Y93502D01*
X1609788Y93275D01*
X1609818Y93047D01*
X1609843Y92818D01*
X1609862Y92589D01*
X1609876Y92360D01*
X1609884Y92130D01*
X1609887Y91900D01*
X1603396Y91900D02*
X1603399Y91670D01*
X1603407Y91440D01*
X1603421Y91211D01*
X1603440Y90982D01*
X1603465Y90753D01*
X1603495Y90525D01*
X1603530Y90298D01*
X1603571Y90072D01*
X1603617Y89847D01*
X1603669Y89623D01*
X1603726Y89400D01*
X1603788Y89179D01*
X1603856Y88959D01*
X1603929Y88741D01*
X1604007Y88525D01*
X1604090Y88311D01*
X1604178Y88099D01*
X1604271Y87888D01*
X1604370Y87681D01*
X1604369Y87681D02*
X1604402Y87591D01*
X1604438Y87502D01*
X1604479Y87414D01*
X1604522Y87329D01*
X1604569Y87245D01*
X1604619Y87163D01*
X1604673Y87083D01*
X1604729Y87006D01*
X1604789Y86930D01*
X1604852Y86857D01*
X1604917Y86787D01*
X1604986Y86719D01*
X1605057Y86655D01*
X1605130Y86593D01*
X1605206Y86534D01*
X1605284Y86478D01*
X1605365Y86425D01*
X1605447Y86376D01*
X1605531Y86330D01*
X1605618Y86287D01*
X1605705Y86248D01*
X1605795Y86212D01*
X1605885Y86180D01*
X1605977Y86152D01*
X1606070Y86127D01*
X1606164Y86106D01*
X1606258Y86089D01*
X1606353Y86075D01*
X1606449Y86066D01*
X1606545Y86060D01*
X1606641Y86058D01*
X1608913Y87681D02*
X1609012Y87888D01*
X1609105Y88099D01*
X1609193Y88311D01*
X1609276Y88525D01*
X1609354Y88741D01*
X1609427Y88959D01*
X1609495Y89179D01*
X1609557Y89400D01*
X1609614Y89623D01*
X1609666Y89847D01*
X1609712Y90072D01*
X1609753Y90298D01*
X1609788Y90525D01*
X1609818Y90753D01*
X1609843Y90982D01*
X1609862Y91211D01*
X1609876Y91440D01*
X1609884Y91670D01*
X1609887Y91900D01*
X1608913Y87681D02*
X1608880Y87591D01*
X1608844Y87502D01*
X1608804Y87414D01*
X1608760Y87329D01*
X1608713Y87245D01*
X1608663Y87163D01*
X1608609Y87083D01*
X1608553Y87006D01*
X1608493Y86930D01*
X1608430Y86857D01*
X1608365Y86787D01*
X1608296Y86719D01*
X1608225Y86655D01*
X1608152Y86593D01*
X1608076Y86534D01*
X1607998Y86478D01*
X1607917Y86425D01*
X1607835Y86376D01*
X1607751Y86330D01*
X1607664Y86287D01*
X1607577Y86248D01*
X1607487Y86212D01*
X1607397Y86180D01*
X1607305Y86152D01*
X1607212Y86127D01*
X1607118Y86106D01*
X1607024Y86089D01*
X1606929Y86075D01*
X1606833Y86066D01*
X1606737Y86060D01*
X1606641Y86058D01*
X1604045Y88654D02*
X1609238Y95146D01*
X1614826Y91900D02*
X1614829Y92130D01*
X1614837Y92360D01*
X1614851Y92589D01*
X1614870Y92818D01*
X1614895Y93047D01*
X1614925Y93274D01*
X1614960Y93502D01*
X1615001Y93728D01*
X1615047Y93953D01*
X1615099Y94177D01*
X1615156Y94399D01*
X1615218Y94621D01*
X1615286Y94840D01*
X1615359Y95058D01*
X1615437Y95275D01*
X1615520Y95489D01*
X1615608Y95701D01*
X1615701Y95911D01*
X1615800Y96119D01*
X1615799Y96119D02*
X1615832Y96209D01*
X1615868Y96298D01*
X1615908Y96386D01*
X1615952Y96471D01*
X1615999Y96555D01*
X1616049Y96637D01*
X1616103Y96717D01*
X1616159Y96794D01*
X1616219Y96870D01*
X1616282Y96943D01*
X1616347Y97013D01*
X1616416Y97081D01*
X1616487Y97145D01*
X1616560Y97207D01*
X1616636Y97266D01*
X1616714Y97322D01*
X1616795Y97375D01*
X1616877Y97424D01*
X1616961Y97470D01*
X1617048Y97513D01*
X1617135Y97552D01*
X1617225Y97588D01*
X1617315Y97620D01*
X1617407Y97648D01*
X1617500Y97673D01*
X1617594Y97694D01*
X1617688Y97711D01*
X1617783Y97725D01*
X1617879Y97734D01*
X1617975Y97740D01*
X1618071Y97742D01*
X1618167Y97740D01*
X1618263Y97734D01*
X1618359Y97725D01*
X1618454Y97711D01*
X1618548Y97694D01*
X1618642Y97673D01*
X1618735Y97648D01*
X1618827Y97620D01*
X1618917Y97588D01*
X1619007Y97552D01*
X1619094Y97513D01*
X1619181Y97470D01*
X1619265Y97424D01*
X1619347Y97375D01*
X1619428Y97322D01*
X1619506Y97266D01*
X1619582Y97207D01*
X1619655Y97145D01*
X1619726Y97081D01*
X1619795Y97013D01*
X1619860Y96943D01*
X1619923Y96870D01*
X1619983Y96794D01*
X1620039Y96717D01*
X1620093Y96637D01*
X1620143Y96555D01*
X1620190Y96471D01*
X1620234Y96386D01*
X1620274Y96298D01*
X1620310Y96209D01*
X1620343Y96119D01*
X1620442Y95912D01*
X1620535Y95702D01*
X1620623Y95489D01*
X1620706Y95275D01*
X1620784Y95059D01*
X1620857Y94841D01*
X1620925Y94621D01*
X1620987Y94400D01*
X1621044Y94177D01*
X1621096Y93953D01*
X1621142Y93728D01*
X1621183Y93502D01*
X1621218Y93275D01*
X1621248Y93047D01*
X1621273Y92818D01*
X1621292Y92589D01*
X1621306Y92360D01*
X1621314Y92130D01*
X1621317Y91900D01*
X1614825Y91900D02*
X1614828Y91670D01*
X1614836Y91440D01*
X1614850Y91211D01*
X1614869Y90982D01*
X1614894Y90753D01*
X1614924Y90525D01*
X1614959Y90298D01*
X1615000Y90072D01*
X1615046Y89847D01*
X1615098Y89623D01*
X1615155Y89400D01*
X1615217Y89179D01*
X1615285Y88959D01*
X1615358Y88741D01*
X1615436Y88525D01*
X1615519Y88311D01*
X1615607Y88099D01*
X1615700Y87888D01*
X1615799Y87681D01*
X1615832Y87591D01*
X1615868Y87502D01*
X1615909Y87414D01*
X1615952Y87329D01*
X1615999Y87245D01*
X1616049Y87163D01*
X1616103Y87083D01*
X1616159Y87006D01*
X1616219Y86930D01*
X1616282Y86857D01*
X1616347Y86787D01*
X1616416Y86719D01*
X1616487Y86655D01*
X1616560Y86593D01*
X1616636Y86534D01*
X1616714Y86478D01*
X1616795Y86425D01*
X1616877Y86376D01*
X1616961Y86330D01*
X1617048Y86287D01*
X1617135Y86248D01*
X1617225Y86212D01*
X1617315Y86180D01*
X1617407Y86152D01*
X1617500Y86127D01*
X1617594Y86106D01*
X1617688Y86089D01*
X1617783Y86075D01*
X1617879Y86066D01*
X1617975Y86060D01*
X1618071Y86058D01*
X1620343Y87681D02*
X1620442Y87888D01*
X1620535Y88099D01*
X1620623Y88311D01*
X1620706Y88525D01*
X1620784Y88741D01*
X1620857Y88959D01*
X1620925Y89179D01*
X1620987Y89400D01*
X1621044Y89623D01*
X1621096Y89847D01*
X1621142Y90072D01*
X1621183Y90298D01*
X1621218Y90525D01*
X1621248Y90753D01*
X1621273Y90982D01*
X1621292Y91211D01*
X1621306Y91440D01*
X1621314Y91670D01*
X1621317Y91900D01*
X1620343Y87681D02*
X1620310Y87591D01*
X1620274Y87502D01*
X1620234Y87414D01*
X1620190Y87329D01*
X1620143Y87245D01*
X1620093Y87163D01*
X1620039Y87083D01*
X1619983Y87006D01*
X1619923Y86930D01*
X1619860Y86857D01*
X1619795Y86787D01*
X1619726Y86719D01*
X1619655Y86655D01*
X1619582Y86593D01*
X1619506Y86534D01*
X1619428Y86478D01*
X1619347Y86425D01*
X1619265Y86376D01*
X1619181Y86330D01*
X1619094Y86287D01*
X1619007Y86248D01*
X1618917Y86212D01*
X1618827Y86180D01*
X1618735Y86152D01*
X1618642Y86127D01*
X1618548Y86106D01*
X1618454Y86089D01*
X1618359Y86075D01*
X1618263Y86066D01*
X1618167Y86060D01*
X1618071Y86058D01*
X1615475Y88654D02*
X1620668Y95146D01*
D16*
X105000Y645800D02*
X30000Y645800D01*
X1610000Y645800D02*
X1685000Y645800D01*
D17*
X1409250Y509000D02*
X1409250Y351000D01*
X1459350Y351000D01*
X1459350Y509000D02*
X1409250Y509000D01*
D18*
X1410000Y411500D02*
X1458750Y411500D01*
X1458750Y448500D02*
X1409500Y448500D01*
D17*
X1459350Y497050D02*
X1459350Y509000D01*
X1459350Y464550D02*
X1459350Y395450D01*
X1459350Y362950D02*
X1459350Y351000D01*
D13*
X1401392Y354308D02*
X1389708Y354308D01*
X1389708Y357554D01*
X1389710Y357667D01*
X1389716Y357780D01*
X1389726Y357893D01*
X1389740Y358006D01*
X1389757Y358118D01*
X1389779Y358229D01*
X1389804Y358339D01*
X1389834Y358449D01*
X1389867Y358557D01*
X1389904Y358664D01*
X1389944Y358770D01*
X1389989Y358874D01*
X1390037Y358977D01*
X1390088Y359078D01*
X1390143Y359177D01*
X1390201Y359274D01*
X1390263Y359369D01*
X1390328Y359462D01*
X1390396Y359552D01*
X1390467Y359640D01*
X1390542Y359726D01*
X1390619Y359809D01*
X1390699Y359889D01*
X1390782Y359966D01*
X1390868Y360041D01*
X1390956Y360112D01*
X1391046Y360180D01*
X1391139Y360245D01*
X1391234Y360307D01*
X1391331Y360365D01*
X1391430Y360420D01*
X1391531Y360471D01*
X1391634Y360519D01*
X1391738Y360564D01*
X1391844Y360604D01*
X1391951Y360641D01*
X1392059Y360674D01*
X1392169Y360704D01*
X1392279Y360729D01*
X1392390Y360751D01*
X1392502Y360768D01*
X1392615Y360782D01*
X1392728Y360792D01*
X1392841Y360798D01*
X1392954Y360800D01*
X1393067Y360798D01*
X1393180Y360792D01*
X1393293Y360782D01*
X1393406Y360768D01*
X1393518Y360751D01*
X1393629Y360729D01*
X1393739Y360704D01*
X1393849Y360674D01*
X1393957Y360641D01*
X1394064Y360604D01*
X1394170Y360564D01*
X1394274Y360519D01*
X1394377Y360471D01*
X1394478Y360420D01*
X1394577Y360365D01*
X1394674Y360307D01*
X1394769Y360245D01*
X1394862Y360180D01*
X1394952Y360112D01*
X1395040Y360041D01*
X1395126Y359966D01*
X1395209Y359889D01*
X1395289Y359809D01*
X1395366Y359726D01*
X1395441Y359640D01*
X1395512Y359552D01*
X1395580Y359462D01*
X1395645Y359369D01*
X1395707Y359274D01*
X1395765Y359177D01*
X1395820Y359078D01*
X1395871Y358977D01*
X1395919Y358874D01*
X1395964Y358770D01*
X1396004Y358664D01*
X1396041Y358557D01*
X1396074Y358449D01*
X1396104Y358339D01*
X1396129Y358229D01*
X1396151Y358118D01*
X1396168Y358006D01*
X1396182Y357893D01*
X1396192Y357780D01*
X1396198Y357667D01*
X1396200Y357554D01*
X1396199Y357554D02*
X1396199Y354308D01*
X1396199Y358203D02*
X1401392Y360799D01*
X1392629Y372155D02*
X1392522Y372153D01*
X1392416Y372147D01*
X1392310Y372137D01*
X1392204Y372124D01*
X1392098Y372106D01*
X1391994Y372085D01*
X1391890Y372060D01*
X1391787Y372031D01*
X1391686Y371999D01*
X1391586Y371962D01*
X1391487Y371922D01*
X1391389Y371879D01*
X1391293Y371832D01*
X1391199Y371781D01*
X1391107Y371727D01*
X1391017Y371670D01*
X1390929Y371610D01*
X1390844Y371546D01*
X1390761Y371479D01*
X1390680Y371409D01*
X1390602Y371337D01*
X1390526Y371261D01*
X1390454Y371183D01*
X1390384Y371102D01*
X1390317Y371019D01*
X1390253Y370934D01*
X1390193Y370846D01*
X1390136Y370756D01*
X1390082Y370664D01*
X1390031Y370570D01*
X1389984Y370474D01*
X1389941Y370376D01*
X1389901Y370277D01*
X1389864Y370177D01*
X1389832Y370076D01*
X1389803Y369973D01*
X1389778Y369869D01*
X1389757Y369765D01*
X1389739Y369659D01*
X1389726Y369553D01*
X1389716Y369447D01*
X1389710Y369341D01*
X1389708Y369234D01*
X1389710Y369113D01*
X1389716Y368992D01*
X1389726Y368872D01*
X1389739Y368751D01*
X1389757Y368632D01*
X1389778Y368512D01*
X1389803Y368394D01*
X1389832Y368277D01*
X1389865Y368160D01*
X1389901Y368045D01*
X1389942Y367931D01*
X1389985Y367818D01*
X1390033Y367706D01*
X1390084Y367597D01*
X1390139Y367489D01*
X1390197Y367382D01*
X1390258Y367278D01*
X1390323Y367176D01*
X1390391Y367076D01*
X1390462Y366978D01*
X1390536Y366882D01*
X1390613Y366789D01*
X1390694Y366699D01*
X1390777Y366611D01*
X1390863Y366526D01*
X1390952Y366443D01*
X1391043Y366364D01*
X1391137Y366287D01*
X1391233Y366214D01*
X1391331Y366144D01*
X1391432Y366077D01*
X1391535Y366013D01*
X1391640Y365953D01*
X1391747Y365895D01*
X1391855Y365842D01*
X1391965Y365792D01*
X1392077Y365746D01*
X1392190Y365703D01*
X1392305Y365664D01*
X1394901Y371181D02*
X1394823Y371260D01*
X1394743Y371336D01*
X1394660Y371409D01*
X1394574Y371479D01*
X1394487Y371546D01*
X1394396Y371610D01*
X1394304Y371670D01*
X1394210Y371728D01*
X1394113Y371782D01*
X1394015Y371832D01*
X1393915Y371879D01*
X1393814Y371923D01*
X1393711Y371963D01*
X1393606Y371999D01*
X1393501Y372031D01*
X1393394Y372060D01*
X1393287Y372085D01*
X1393178Y372107D01*
X1393069Y372124D01*
X1392960Y372138D01*
X1392850Y372147D01*
X1392739Y372153D01*
X1392629Y372155D01*
X1394901Y371182D02*
X1401392Y365664D01*
X1401392Y372155D01*
D17*
X1120750Y351000D02*
X1120750Y509000D01*
X1070650Y509000D01*
X1070650Y351000D02*
X1120750Y351000D01*
D18*
X1120000Y448500D02*
X1071250Y448500D01*
X1071250Y411500D02*
X1120500Y411500D01*
D17*
X1070650Y362950D02*
X1070650Y351000D01*
X1070650Y395450D02*
X1070650Y464550D01*
X1070650Y497050D02*
X1070650Y509000D01*
D13*
X1128608Y487845D02*
X1140292Y487845D01*
X1128608Y487845D02*
X1128608Y491090D01*
X1128610Y491203D01*
X1128616Y491316D01*
X1128626Y491429D01*
X1128640Y491542D01*
X1128657Y491654D01*
X1128679Y491765D01*
X1128704Y491875D01*
X1128734Y491985D01*
X1128767Y492093D01*
X1128804Y492200D01*
X1128844Y492306D01*
X1128889Y492410D01*
X1128937Y492513D01*
X1128988Y492614D01*
X1129043Y492713D01*
X1129101Y492810D01*
X1129163Y492905D01*
X1129228Y492998D01*
X1129296Y493088D01*
X1129367Y493176D01*
X1129442Y493262D01*
X1129519Y493345D01*
X1129599Y493425D01*
X1129682Y493502D01*
X1129768Y493577D01*
X1129856Y493648D01*
X1129946Y493716D01*
X1130039Y493781D01*
X1130134Y493843D01*
X1130231Y493901D01*
X1130330Y493956D01*
X1130431Y494007D01*
X1130534Y494055D01*
X1130638Y494100D01*
X1130744Y494140D01*
X1130851Y494177D01*
X1130959Y494210D01*
X1131069Y494240D01*
X1131179Y494265D01*
X1131290Y494287D01*
X1131402Y494304D01*
X1131515Y494318D01*
X1131628Y494328D01*
X1131741Y494334D01*
X1131854Y494336D01*
X1131967Y494334D01*
X1132080Y494328D01*
X1132193Y494318D01*
X1132306Y494304D01*
X1132418Y494287D01*
X1132529Y494265D01*
X1132639Y494240D01*
X1132749Y494210D01*
X1132857Y494177D01*
X1132964Y494140D01*
X1133070Y494100D01*
X1133174Y494055D01*
X1133277Y494007D01*
X1133378Y493956D01*
X1133477Y493901D01*
X1133574Y493843D01*
X1133669Y493781D01*
X1133762Y493716D01*
X1133852Y493648D01*
X1133940Y493577D01*
X1134026Y493502D01*
X1134109Y493425D01*
X1134189Y493345D01*
X1134266Y493262D01*
X1134341Y493176D01*
X1134412Y493088D01*
X1134480Y492998D01*
X1134545Y492905D01*
X1134607Y492810D01*
X1134665Y492713D01*
X1134720Y492614D01*
X1134771Y492513D01*
X1134819Y492410D01*
X1134864Y492306D01*
X1134904Y492200D01*
X1134941Y492093D01*
X1134974Y491985D01*
X1135004Y491875D01*
X1135029Y491765D01*
X1135051Y491654D01*
X1135068Y491542D01*
X1135082Y491429D01*
X1135092Y491316D01*
X1135098Y491203D01*
X1135100Y491090D01*
X1135099Y491090D02*
X1135099Y487845D01*
X1135099Y491739D02*
X1140292Y494336D01*
X1140292Y499201D02*
X1140292Y502446D01*
X1140290Y502559D01*
X1140284Y502672D01*
X1140274Y502785D01*
X1140260Y502898D01*
X1140243Y503010D01*
X1140221Y503121D01*
X1140196Y503231D01*
X1140166Y503341D01*
X1140133Y503449D01*
X1140096Y503556D01*
X1140056Y503662D01*
X1140011Y503766D01*
X1139963Y503869D01*
X1139912Y503970D01*
X1139857Y504069D01*
X1139799Y504166D01*
X1139737Y504261D01*
X1139672Y504354D01*
X1139604Y504444D01*
X1139533Y504532D01*
X1139458Y504618D01*
X1139381Y504701D01*
X1139301Y504781D01*
X1139218Y504858D01*
X1139132Y504933D01*
X1139044Y505004D01*
X1138954Y505072D01*
X1138861Y505137D01*
X1138766Y505199D01*
X1138669Y505257D01*
X1138570Y505312D01*
X1138469Y505363D01*
X1138366Y505411D01*
X1138262Y505456D01*
X1138156Y505496D01*
X1138049Y505533D01*
X1137941Y505566D01*
X1137831Y505596D01*
X1137721Y505621D01*
X1137610Y505643D01*
X1137498Y505660D01*
X1137385Y505674D01*
X1137272Y505684D01*
X1137159Y505690D01*
X1137046Y505692D01*
X1136933Y505690D01*
X1136820Y505684D01*
X1136707Y505674D01*
X1136594Y505660D01*
X1136482Y505643D01*
X1136371Y505621D01*
X1136261Y505596D01*
X1136151Y505566D01*
X1136043Y505533D01*
X1135936Y505496D01*
X1135830Y505456D01*
X1135726Y505411D01*
X1135623Y505363D01*
X1135522Y505312D01*
X1135423Y505257D01*
X1135326Y505199D01*
X1135231Y505137D01*
X1135138Y505072D01*
X1135048Y505004D01*
X1134960Y504933D01*
X1134874Y504858D01*
X1134791Y504781D01*
X1134711Y504701D01*
X1134634Y504618D01*
X1134559Y504532D01*
X1134488Y504444D01*
X1134420Y504354D01*
X1134355Y504261D01*
X1134293Y504166D01*
X1134235Y504069D01*
X1134180Y503970D01*
X1134129Y503869D01*
X1134081Y503766D01*
X1134036Y503662D01*
X1133996Y503556D01*
X1133959Y503449D01*
X1133926Y503341D01*
X1133896Y503231D01*
X1133871Y503121D01*
X1133849Y503010D01*
X1133832Y502898D01*
X1133818Y502785D01*
X1133808Y502672D01*
X1133802Y502559D01*
X1133800Y502446D01*
X1128608Y503096D02*
X1128608Y499201D01*
X1128608Y503096D02*
X1128610Y503197D01*
X1128616Y503297D01*
X1128626Y503397D01*
X1128639Y503497D01*
X1128657Y503596D01*
X1128678Y503695D01*
X1128703Y503792D01*
X1128732Y503889D01*
X1128765Y503984D01*
X1128801Y504078D01*
X1128841Y504170D01*
X1128884Y504261D01*
X1128931Y504350D01*
X1128981Y504437D01*
X1129035Y504523D01*
X1129092Y504606D01*
X1129152Y504686D01*
X1129215Y504765D01*
X1129282Y504841D01*
X1129351Y504914D01*
X1129423Y504984D01*
X1129497Y505052D01*
X1129574Y505117D01*
X1129654Y505178D01*
X1129736Y505237D01*
X1129820Y505292D01*
X1129906Y505344D01*
X1129994Y505393D01*
X1130084Y505438D01*
X1130176Y505480D01*
X1130269Y505518D01*
X1130364Y505552D01*
X1130459Y505583D01*
X1130556Y505610D01*
X1130654Y505633D01*
X1130753Y505653D01*
X1130853Y505668D01*
X1130953Y505680D01*
X1131053Y505688D01*
X1131154Y505692D01*
X1131254Y505692D01*
X1131355Y505688D01*
X1131455Y505680D01*
X1131555Y505668D01*
X1131655Y505653D01*
X1131754Y505633D01*
X1131852Y505610D01*
X1131949Y505583D01*
X1132044Y505552D01*
X1132139Y505518D01*
X1132232Y505480D01*
X1132324Y505438D01*
X1132414Y505393D01*
X1132502Y505344D01*
X1132588Y505292D01*
X1132672Y505237D01*
X1132754Y505178D01*
X1132834Y505117D01*
X1132911Y505052D01*
X1132985Y504984D01*
X1133057Y504914D01*
X1133126Y504841D01*
X1133193Y504765D01*
X1133256Y504686D01*
X1133316Y504606D01*
X1133373Y504523D01*
X1133427Y504437D01*
X1133477Y504350D01*
X1133524Y504261D01*
X1133567Y504170D01*
X1133607Y504078D01*
X1133643Y503984D01*
X1133676Y503889D01*
X1133705Y503792D01*
X1133730Y503695D01*
X1133751Y503596D01*
X1133769Y503497D01*
X1133782Y503397D01*
X1133792Y503297D01*
X1133798Y503197D01*
X1133800Y503096D01*
X1133801Y503096D02*
X1133801Y500499D01*
D10*
X990000Y640000D02*
X990000Y220000D01*
X990000Y640000D02*
X1250000Y640000D01*
X1250000Y220000D01*
X990000Y220000D01*
X1540000Y220000D02*
X1540000Y640000D01*
X1540000Y220000D02*
X1280000Y220000D01*
X1280000Y640000D01*
X1540000Y640000D01*
D17*
X1339250Y509000D02*
X1339250Y351000D01*
X1389350Y351000D01*
X1389350Y509000D02*
X1339250Y509000D01*
D18*
X1340000Y411500D02*
X1388750Y411500D01*
X1388750Y448500D02*
X1339500Y448500D01*
D17*
X1389350Y497050D02*
X1389350Y509000D01*
X1389350Y464550D02*
X1389350Y395450D01*
X1389350Y362950D02*
X1389350Y351000D01*
D13*
X1331392Y354308D02*
X1319708Y354308D01*
X1319708Y357554D01*
X1319710Y357667D01*
X1319716Y357780D01*
X1319726Y357893D01*
X1319740Y358006D01*
X1319757Y358118D01*
X1319779Y358229D01*
X1319804Y358339D01*
X1319834Y358449D01*
X1319867Y358557D01*
X1319904Y358664D01*
X1319944Y358770D01*
X1319989Y358874D01*
X1320037Y358977D01*
X1320088Y359078D01*
X1320143Y359177D01*
X1320201Y359274D01*
X1320263Y359369D01*
X1320328Y359462D01*
X1320396Y359552D01*
X1320467Y359640D01*
X1320542Y359726D01*
X1320619Y359809D01*
X1320699Y359889D01*
X1320782Y359966D01*
X1320868Y360041D01*
X1320956Y360112D01*
X1321046Y360180D01*
X1321139Y360245D01*
X1321234Y360307D01*
X1321331Y360365D01*
X1321430Y360420D01*
X1321531Y360471D01*
X1321634Y360519D01*
X1321738Y360564D01*
X1321844Y360604D01*
X1321951Y360641D01*
X1322059Y360674D01*
X1322169Y360704D01*
X1322279Y360729D01*
X1322390Y360751D01*
X1322502Y360768D01*
X1322615Y360782D01*
X1322728Y360792D01*
X1322841Y360798D01*
X1322954Y360800D01*
X1323067Y360798D01*
X1323180Y360792D01*
X1323293Y360782D01*
X1323406Y360768D01*
X1323518Y360751D01*
X1323629Y360729D01*
X1323739Y360704D01*
X1323849Y360674D01*
X1323957Y360641D01*
X1324064Y360604D01*
X1324170Y360564D01*
X1324274Y360519D01*
X1324377Y360471D01*
X1324478Y360420D01*
X1324577Y360365D01*
X1324674Y360307D01*
X1324769Y360245D01*
X1324862Y360180D01*
X1324952Y360112D01*
X1325040Y360041D01*
X1325126Y359966D01*
X1325209Y359889D01*
X1325289Y359809D01*
X1325366Y359726D01*
X1325441Y359640D01*
X1325512Y359552D01*
X1325580Y359462D01*
X1325645Y359369D01*
X1325707Y359274D01*
X1325765Y359177D01*
X1325820Y359078D01*
X1325871Y358977D01*
X1325919Y358874D01*
X1325964Y358770D01*
X1326004Y358664D01*
X1326041Y358557D01*
X1326074Y358449D01*
X1326104Y358339D01*
X1326129Y358229D01*
X1326151Y358118D01*
X1326168Y358006D01*
X1326182Y357893D01*
X1326192Y357780D01*
X1326198Y357667D01*
X1326200Y357554D01*
X1326199Y357554D02*
X1326199Y354308D01*
X1326199Y358203D02*
X1331392Y360799D01*
X1328796Y365664D02*
X1319708Y368261D01*
X1328796Y365664D02*
X1328796Y372155D01*
X1326199Y370208D02*
X1331392Y370208D01*
D17*
X1180750Y351000D02*
X1180750Y509000D01*
X1130650Y509000D01*
X1130650Y351000D02*
X1180750Y351000D01*
D18*
X1180000Y448500D02*
X1131250Y448500D01*
X1131250Y411500D02*
X1180500Y411500D01*
D17*
X1130650Y362950D02*
X1130650Y351000D01*
X1130650Y395450D02*
X1130650Y464550D01*
X1130650Y497050D02*
X1130650Y509000D01*
D13*
X1188608Y487845D02*
X1200292Y487845D01*
X1188608Y487845D02*
X1188608Y491090D01*
X1188610Y491203D01*
X1188616Y491316D01*
X1188626Y491429D01*
X1188640Y491542D01*
X1188657Y491654D01*
X1188679Y491765D01*
X1188704Y491875D01*
X1188734Y491985D01*
X1188767Y492093D01*
X1188804Y492200D01*
X1188844Y492306D01*
X1188889Y492410D01*
X1188937Y492513D01*
X1188988Y492614D01*
X1189043Y492713D01*
X1189101Y492810D01*
X1189163Y492905D01*
X1189228Y492998D01*
X1189296Y493088D01*
X1189367Y493176D01*
X1189442Y493262D01*
X1189519Y493345D01*
X1189599Y493425D01*
X1189682Y493502D01*
X1189768Y493577D01*
X1189856Y493648D01*
X1189946Y493716D01*
X1190039Y493781D01*
X1190134Y493843D01*
X1190231Y493901D01*
X1190330Y493956D01*
X1190431Y494007D01*
X1190534Y494055D01*
X1190638Y494100D01*
X1190744Y494140D01*
X1190851Y494177D01*
X1190959Y494210D01*
X1191069Y494240D01*
X1191179Y494265D01*
X1191290Y494287D01*
X1191402Y494304D01*
X1191515Y494318D01*
X1191628Y494328D01*
X1191741Y494334D01*
X1191854Y494336D01*
X1191967Y494334D01*
X1192080Y494328D01*
X1192193Y494318D01*
X1192306Y494304D01*
X1192418Y494287D01*
X1192529Y494265D01*
X1192639Y494240D01*
X1192749Y494210D01*
X1192857Y494177D01*
X1192964Y494140D01*
X1193070Y494100D01*
X1193174Y494055D01*
X1193277Y494007D01*
X1193378Y493956D01*
X1193477Y493901D01*
X1193574Y493843D01*
X1193669Y493781D01*
X1193762Y493716D01*
X1193852Y493648D01*
X1193940Y493577D01*
X1194026Y493502D01*
X1194109Y493425D01*
X1194189Y493345D01*
X1194266Y493262D01*
X1194341Y493176D01*
X1194412Y493088D01*
X1194480Y492998D01*
X1194545Y492905D01*
X1194607Y492810D01*
X1194665Y492713D01*
X1194720Y492614D01*
X1194771Y492513D01*
X1194819Y492410D01*
X1194864Y492306D01*
X1194904Y492200D01*
X1194941Y492093D01*
X1194974Y491985D01*
X1195004Y491875D01*
X1195029Y491765D01*
X1195051Y491654D01*
X1195068Y491542D01*
X1195082Y491429D01*
X1195092Y491316D01*
X1195098Y491203D01*
X1195100Y491090D01*
X1195099Y491090D02*
X1195099Y487845D01*
X1195099Y491739D02*
X1200292Y494336D01*
X1200292Y499201D02*
X1200292Y503096D01*
X1200290Y503195D01*
X1200284Y503295D01*
X1200275Y503394D01*
X1200262Y503492D01*
X1200245Y503590D01*
X1200224Y503688D01*
X1200199Y503784D01*
X1200171Y503879D01*
X1200139Y503973D01*
X1200104Y504066D01*
X1200065Y504158D01*
X1200022Y504248D01*
X1199977Y504336D01*
X1199927Y504423D01*
X1199875Y504507D01*
X1199819Y504590D01*
X1199761Y504670D01*
X1199699Y504748D01*
X1199634Y504823D01*
X1199566Y504896D01*
X1199496Y504966D01*
X1199423Y505034D01*
X1199348Y505099D01*
X1199270Y505161D01*
X1199190Y505219D01*
X1199107Y505275D01*
X1199023Y505327D01*
X1198936Y505377D01*
X1198848Y505422D01*
X1198758Y505465D01*
X1198666Y505504D01*
X1198573Y505539D01*
X1198479Y505571D01*
X1198384Y505599D01*
X1198288Y505624D01*
X1198190Y505645D01*
X1198092Y505662D01*
X1197994Y505675D01*
X1197895Y505684D01*
X1197795Y505690D01*
X1197696Y505692D01*
X1196397Y505692D01*
X1196298Y505690D01*
X1196198Y505684D01*
X1196099Y505675D01*
X1196001Y505662D01*
X1195903Y505645D01*
X1195805Y505624D01*
X1195709Y505599D01*
X1195614Y505571D01*
X1195520Y505539D01*
X1195427Y505504D01*
X1195335Y505465D01*
X1195245Y505422D01*
X1195157Y505377D01*
X1195070Y505327D01*
X1194986Y505275D01*
X1194903Y505219D01*
X1194823Y505161D01*
X1194745Y505099D01*
X1194670Y505034D01*
X1194597Y504966D01*
X1194527Y504896D01*
X1194459Y504823D01*
X1194394Y504748D01*
X1194332Y504670D01*
X1194274Y504590D01*
X1194218Y504507D01*
X1194166Y504423D01*
X1194116Y504336D01*
X1194071Y504248D01*
X1194028Y504158D01*
X1193989Y504066D01*
X1193954Y503973D01*
X1193922Y503879D01*
X1193894Y503784D01*
X1193869Y503688D01*
X1193848Y503590D01*
X1193831Y503492D01*
X1193818Y503394D01*
X1193809Y503295D01*
X1193803Y503195D01*
X1193801Y503096D01*
X1193801Y499201D01*
X1188608Y499201D01*
X1188608Y505692D01*
M02*
