G04 EAGLE Gerber RS-274X export*
G75*
%MOMM*%
%FSLAX34Y34*%
%LPD*%
%INSoldermask Bottom*%
%IPPOS*%
%AMOC8*
5,1,8,0,0,1.08239X$1,22.5*%
G01*
%ADD10C,1.727200*%
%ADD11C,1.600200*%
%ADD12C,8.839200*%
%ADD13R,2.303200X2.303200*%
%ADD14C,3.203200*%
%ADD15C,1.653200*%
%ADD16C,2.303200*%
%ADD17C,1.633200*%
%ADD18R,2.108200X2.108200*%
%ADD19R,3.060700X3.060700*%
%ADD20C,4.203200*%
%ADD21R,3.759200X3.759200*%


D10*
X496860Y130900D03*
X578140Y130900D03*
D11*
X453680Y509360D03*
X621320Y509360D03*
D12*
X537500Y524600D03*
D13*
X194000Y127900D03*
X152000Y127900D03*
X110000Y127900D03*
X68000Y127900D03*
X26000Y127900D03*
X68000Y182900D03*
X26000Y182900D03*
X110000Y182900D03*
X152000Y182900D03*
X194000Y182900D03*
D14*
X194000Y54900D03*
X26000Y54900D03*
D15*
X137500Y425000D03*
X62500Y425000D03*
D16*
X178500Y305000D03*
X21500Y305000D03*
D17*
X128800Y265000D03*
X31200Y265000D03*
D13*
X906000Y497500D03*
X864000Y497500D03*
X864000Y552500D03*
X906000Y552500D03*
D18*
X1440000Y185000D03*
X1236800Y185000D03*
X1338400Y32600D03*
X855800Y70700D03*
X855800Y146900D03*
D13*
X1694000Y127900D03*
X1652000Y127900D03*
X1610000Y127900D03*
X1568000Y127900D03*
X1526000Y127900D03*
X1568000Y182900D03*
X1526000Y182900D03*
X1610000Y182900D03*
X1652000Y182900D03*
X1694000Y182900D03*
D14*
X1694000Y54900D03*
X1526000Y54900D03*
D19*
X30000Y595800D03*
X106200Y595800D03*
X106200Y545000D03*
X30000Y545000D03*
X1610000Y595800D03*
X1686200Y595800D03*
X1686200Y545000D03*
X1610000Y545000D03*
D20*
X1440000Y379200D03*
X1440000Y480800D03*
X1090000Y480800D03*
X1090000Y379200D03*
D21*
X1120000Y557000D03*
X1120000Y303000D03*
X1410000Y303000D03*
X1410000Y557000D03*
D20*
X1370000Y379200D03*
X1370000Y480800D03*
X1150000Y480800D03*
X1150000Y379200D03*
M02*
