%
M48
METRIC,000.000
T10C0.83
T09C0.85
T08C0.89
T07C1.27
T06C1.40
T05C1.91
T04C2.00
T03C2.54
T02C3.00
T01C7.62
T11C0.35
T12C0.81
T13C1.02
T14C1.05
T15C1.25
T16C1.30
T17C1.52
T18C1.60
T19C2.03
T20C3.18
T21C4.20
T22C1.12
T23C3.30
T24C0.60
T25C0.90
T26C3.60
T27C5.08
T28C0.50
T29C1.10
T30C1.80
T31C4.00
T32C0.40
T33C0.63
T34C0.82
T35C0.99
T36C2.25
T37C0.80
T38C0.91
T39C1.32
T40C2.80
%
T10
X351500Y003120
X351500Y012880
X209000Y014379
X209000Y004620
T09
X335500Y006250
X335500Y013750
X225000Y013750
X225000Y006250
T08
X327064Y045368
X364910Y057814
X364910Y049686
X327064Y062132
X195444Y045367
X233290Y057813
X233290Y049686
X195444Y062132
T07
X370930Y085580
X363310Y085580
X374740Y133840
X359500Y123680
X359500Y144000
X185500Y124680
X200740Y134840
X196930Y086580
X189310Y086580
X185500Y145000
T06
X347500Y017850
X347500Y002150
X359710Y152600
X328250Y090600
X328250Y086400
X322750Y086400
X322750Y090600
X359710Y011000
X365210Y169400
X365210Y165200
X365210Y161000
X365210Y156800
X365210Y152600
X359710Y156800
X359710Y161000
X359710Y165200
X359710Y169400
X365210Y019400
X365210Y015200
X365210Y011000
X365210Y006800
X365210Y002600
X359710Y006800
X359710Y002600
X359710Y015200
X359710Y019400
X200290Y161000
X227250Y090900
X227250Y095100
X232750Y095100
X232750Y090900
X200290Y156800
X200290Y152600
X200290Y019400
X200290Y169400
X194790Y169400
X194790Y002599
X194790Y006800
X194790Y011000
X194790Y015199
X194790Y019400
X200290Y015199
X194790Y165200
X200290Y011000
X200290Y006800
X194790Y152600
X200290Y002599
X194790Y161000
X194790Y156800
X213000Y017849
X213000Y002150
X200290Y165200
X266290Y019400
X266290Y015199
X260790Y019400
X260790Y015199
X260790Y011000
X266290Y156800
X260790Y002599
X293750Y019400
X293750Y015199
X293750Y011000
X293750Y006800
X266290Y152600
X288250Y006800
X288250Y002599
X288250Y011000
X288250Y015199
X288250Y019400
X260790Y152600
X260790Y156800
X260790Y161000
X260790Y165200
X260790Y169400
X266290Y165200
X266290Y169400
X266290Y161000
X266290Y006800
X266290Y002599
X293750Y002599
X266290Y011000
X260790Y006800
X492400Y192290
X488200Y192290
X484000Y192290
X475600Y192290
X479800Y192290
X475600Y186790
X479800Y186790
X484000Y186790
X488200Y186790
X423400Y192290
X492400Y186790
X419200Y192290
X415000Y192290
X406600Y192290
X410800Y192290
X406600Y186790
X410800Y186790
X415000Y186790
X423400Y186790
X419200Y186790
X006599Y037250
X010800Y042750
X006599Y042750
X015000Y042750
X019199Y042750
X023400Y042750
X173400Y037250
X169200Y037250
X165000Y037250
X160800Y037250
X156600Y037250
X160800Y042750
X156600Y042750
X169200Y042750
X173400Y042750
X006599Y197250
X010800Y197250
X015000Y197250
X019199Y197250
X023400Y197250
X019199Y191750
X023400Y191750
X015000Y191750
X010800Y191750
X006599Y191750
X156600Y197250
X160800Y197250
X165000Y197250
X169200Y197250
X173400Y197250
X169200Y191750
X173400Y191750
X165000Y191750
X160800Y191750
X156600Y191750
X006599Y122750
X010800Y122750
X015000Y122750
X019199Y122750
X023400Y122750
X019199Y117250
X023400Y117250
X015000Y117250
X010800Y117250
X006599Y117250
X156600Y122750
X160800Y122750
X165000Y122750
X169200Y122750
X173400Y122750
X169200Y117250
X173400Y117250
X165000Y117250
X160800Y117250
X156600Y117250
X023400Y154250
X019199Y154250
X015000Y154250
X010800Y154250
X006599Y154250
X010800Y159750
X006599Y159750
X015000Y159750
X019199Y159750
X023400Y159750
X092400Y154250
X088200Y154250
X084000Y154250
X079800Y154250
X075600Y154250
X079800Y159750
X075600Y159750
X084000Y159750
X088200Y159750
X092400Y159750
X167750Y054900
X167750Y059100
X167750Y063300
X167750Y067500
X167750Y071700
X167750Y075900
X167750Y080100
X167750Y084300
X167750Y088500
X167750Y092700
X167750Y096900
X173250Y054900
X173250Y059100
X173250Y063300
X173250Y067500
X173250Y071700
X173250Y075900
X173250Y080100
X173250Y084300
X173250Y088500
X173250Y092700
X167750Y101100
X173250Y096900
X173250Y101100
X032400Y098250
X036599Y098250
X036599Y092750
X032400Y092750
X167250Y147600
X167250Y151800
X167250Y156000
X167250Y160200
X167250Y164400
X172750Y160200
X172750Y164400
X172750Y156000
X172750Y151800
X172750Y147600
X165000Y042750
X025250Y139100
X025250Y134900
X019750Y134900
X019750Y139100
X023400Y037250
X019199Y037250
X015000Y037250
X010800Y037250
T05
X323500Y161000
X323500Y168620
X318420Y010620
X318420Y168620
X318420Y161000
X318420Y003000
X323500Y010620
X323500Y003000
X236500Y014879
X241579Y168000
X241579Y160380
X236500Y160380
X241580Y022500
X241580Y014879
X236500Y022500
X236500Y168000
X301540Y169000
X301540Y023000
X301540Y015379
X306620Y015379
X306620Y023000
X301540Y161380
X306620Y161380
X306620Y169000
X406000Y233579
X457000Y228500
X464620Y228500
X464620Y233579
X457000Y233579
X413620Y233579
X413620Y228500
X406000Y228500
T04
X329920Y144000
X340080Y144000
X340080Y115000
X340080Y109000
X329920Y109000
X340080Y137000
X329920Y137000
X329920Y115000
X219420Y145500
X219420Y139500
X219420Y116500
X229579Y116500
X229579Y139500
X219420Y110500
X229580Y110500
X229579Y145500
X305750Y144920
X305750Y155080
X452462Y063135
X452209Y035388
X452055Y021543
T03
X322300Y112000
X347700Y112000
X347700Y141000
X322300Y141000
X211800Y113500
X237200Y113500
X211800Y142500
X237200Y142500
T02
X372510Y019400
X372510Y002600
X372510Y169400
X372510Y152600
X187490Y002599
X187490Y019400
X187490Y152600
X187490Y169400
X253490Y152600
X253490Y169400
X253490Y002599
X253490Y019400
X423400Y179490
X406600Y179490
X475600Y179490
X492400Y179490
X028099Y043310
X001900Y043310
X178100Y043310
X178100Y116690
X028099Y160310
X001900Y160310
X097100Y160310
X028099Y116690
X001900Y116690
X178100Y191190
X151900Y191190
X028099Y191190
X001900Y191190
X151900Y043310
X151900Y116690
X070900Y160310
X386250Y037970
X386250Y047096
X386250Y055496
X386250Y029570
X191350Y249390
X234079Y249390
X267680Y249390
X276510Y249390
X310110Y249390
X312200Y193200
X224950Y249390
X384410Y130725
T01
X325540Y053750
X193920Y053750
T11
X243500Y038000
X309000Y048000
X302000Y052000
X304000Y064000
X308000Y057000
X308270Y067000
X308000Y061000
X298000Y048000
X306000Y044000
X428100Y201500
X410000Y216000
X406000Y215000
X443000Y210400
X428766Y205435
X442900Y200000
X449500Y207000
X440500Y202600
X411100Y189600
X414400Y189600
X425600Y213600
X427100Y213400
X428800Y208000
X421300Y208000
X420000Y215900
X459400Y215000
X461000Y201500
X155000Y102500
X158000Y082000
X145500Y058500
X155500Y092500
X151500Y086500
X146500Y052000
X153500Y092000
X146500Y047000
X075500Y168500
X152500Y101500
X170000Y173500
X395240Y077119
X400320Y029494
X400574Y020477
X405400Y071023
X416068Y026192
X416195Y017302
X418608Y039019
X403749Y034955
X403749Y043337
X408321Y023398
X404765Y035082
X404765Y043337
X410607Y016540
X411304Y037686
X420259Y061752
X407432Y033050
X324000Y221000
X329000Y234000
X324000Y215000
T12
X252770Y116190
X250230Y116190
X252770Y123810
X250230Y123810
X473810Y214230
X437270Y215910
X439810Y208290
X437270Y208290
X432190Y215910
X434730Y215910
X434730Y208290
X432190Y208290
X466190Y216770
X490000Y234423
X490000Y221850
X493200Y234423
X493200Y221850
X486800Y234423
X486800Y221850
X466190Y214230
X483600Y234423
X483600Y221850
X439810Y215910
X473810Y216770
X145500Y111230
X043000Y176770
X142960Y111230
X148040Y111230
X147040Y086270
X141960Y086270
X144500Y086270
X043000Y174230
X416687Y033809
X416687Y041429
X414147Y041429
X419227Y033809
X421767Y033809
X419227Y041429
X421767Y041429
X417953Y046117
X430653Y046117
X430653Y053737
X420493Y046117
X423033Y046117
X428113Y046117
X425573Y046117
X423033Y072779
X428113Y053737
X425573Y053737
X423033Y053737
X420493Y053737
X417953Y053737
X415413Y053737
X415413Y072779
X417953Y072779
X430653Y072779
X430653Y080399
X420493Y072779
X415413Y046117
X428113Y072779
X425573Y072779
X428113Y080399
X425573Y080399
X423033Y080399
X420493Y080399
X417953Y080399
X415413Y080399
X415286Y058028
X417826Y058028
X430526Y058028
X430526Y065648
X420366Y058028
X422906Y058028
X427986Y058028
X425446Y058028
X427986Y065648
X425446Y065648
X422906Y065648
X420366Y065648
X417826Y065648
X415286Y065648
X414147Y033809
X276568Y194389
X276568Y189309
X276620Y186331
X260149Y201170
X255070Y201170
X276620Y181251
X260149Y206070
X255070Y206070
X360720Y230380
X358180Y230380
X355640Y230380
X350560Y230380
X348020Y230380
X345480Y230380
X342940Y230380
X340400Y230380
X337860Y230380
X335320Y230380
X332780Y230380
X330240Y230380
X342940Y215460
X365800Y215460
X363260Y215460
X395000Y215920
X395000Y210080
X395000Y184920
X370000Y248080
X365000Y248080
X360000Y248080
X395000Y242080
X355000Y248080
X360720Y215460
X388000Y242080
X388000Y215920
X388000Y210080
X388000Y184920
X358180Y215460
X355640Y215460
X353100Y215460
X353100Y230380
X350560Y215460
X348020Y215460
X345480Y215460
X340400Y215460
X337860Y215460
X335320Y215460
X332780Y215460
X330240Y215460
X365800Y230380
X363260Y230380
T13
X279690Y065500
X287310Y065500
T14
X255000Y045459
X255000Y042919
X255000Y040379
X255000Y048000
T15
X252840Y045459
T16
X294500Y169000
X274000Y169000
X289900Y169000
X278600Y169000
X484000Y198000
X484000Y213900
X484000Y202600
X484000Y218500
X119550Y105000
X114550Y112600
X126050Y112600
X126050Y105000
X119550Y112600
X131050Y112600
X131050Y105000
X096500Y098600
X096500Y091000
X114550Y091000
X126050Y091000
X119550Y091000
X126050Y098600
X114550Y098600
X131050Y091000
X053500Y084500
X053500Y068600
X053500Y079900
X053500Y064000
X038500Y063500
X038500Y079400
X038500Y068100
X038500Y084000
X131050Y098600
X119550Y098600
X096500Y112600
X096500Y105000
X114550Y105000
T17
X282380Y134190
X276870Y134190
X279620Y134190
T18
X297900Y030060
X294500Y030080
X304900Y040000
X301500Y040000
X304900Y030060
X301500Y030080
X275400Y041000
X272000Y041000
X275400Y031060
X272000Y031080
X282400Y041000
X279000Y041000
X282400Y031060
X279000Y031080
X297900Y040000
X294500Y040000
X157100Y072940
X160500Y063000
X157100Y063000
X162500Y159920
X159100Y159940
X159100Y150000
X152000Y150080
X155400Y150060
X152000Y160000
X162500Y150000
X155400Y160000
X160500Y072920
X083000Y170900
X083000Y167500
X092940Y170900
X092920Y167500
X429000Y150000
X432400Y140060
X429000Y140080
X423400Y150000
X420000Y150000
X423400Y140060
X432400Y150000
X420000Y140080
X414400Y150000
X411000Y150000
X414400Y140060
X411000Y140080
X433600Y111000
X437000Y111000
X433600Y120940
X437000Y120920
X421000Y111000
X417600Y120940
X421000Y120920
X404600Y111000
X408000Y111000
X404600Y120940
X447000Y150000
X408000Y120920
X459400Y150000
X456000Y150000
X459400Y140060
X456000Y140080
X450400Y150000
X417600Y111000
X450400Y140060
X447000Y140080
X441400Y150000
X438000Y150000
X441400Y140060
X438000Y140080
T19
X273000Y134190
X289250Y087810
X278250Y087810
X283750Y087810
X272750Y087810
X289000Y134190
T20
X294970Y126459
X267030Y126459
X294970Y093541
X267030Y093541
T21
X254000Y008000
X304000Y008000
X304000Y081250
X254000Y081250
X304000Y138000
X254000Y138000
T22
X436132Y204026
X433592Y204026
X431052Y204026
X448009Y204126
X445469Y204126
X442929Y204126
X452710Y200150
X464500Y212079
X457790Y200150
X425050Y199960
X425050Y202500
X425050Y205040
X455250Y200150
X462150Y221079
X462150Y210920
X464500Y201920
X464540Y196350
X462000Y196350
X459460Y196350
X032080Y145000
X021919Y145000
X044500Y133580
X044500Y123420
X047500Y123420
X047500Y133580
X032080Y148500
X021919Y148500
X237060Y227978
X237060Y225439
X237060Y222899
X237060Y220359
X237060Y217819
X237060Y215279
X237060Y212739
X223090Y212739
X244680Y215279
X244680Y217819
X244680Y220359
X244680Y222899
X244680Y225439
X244680Y227978
X244680Y230519
X258649Y230519
X258649Y227978
X258649Y225439
X258649Y222899
X258649Y220359
X258649Y217819
X258649Y215279
X258649Y212739
X266270Y212739
X266270Y215279
X266270Y217819
X266270Y220359
X266270Y222899
X266270Y225439
X266270Y227978
X266270Y230519
X280240Y230519
X280240Y227978
X280240Y225439
X280240Y222899
X280240Y220359
X280240Y217819
X280240Y215279
X280240Y212739
X287860Y212739
X287860Y215279
X287860Y217819
X287860Y220359
X287860Y222899
X286680Y194091
X287860Y227978
X287860Y230519
X284140Y194091
X281600Y194091
X193880Y230519
X193880Y227978
X193880Y225439
X193880Y222899
X193880Y220359
X193880Y217819
X193880Y215279
X193880Y212739
X201500Y212739
X201500Y215279
X201500Y217819
X201500Y220359
X201500Y222899
X201500Y225439
X244680Y212739
X201500Y227978
X201500Y230519
X215470Y230519
X215470Y227978
X215470Y225439
X215470Y222899
X215470Y220359
X215470Y217819
X215470Y215279
X215470Y212739
X223090Y215279
X223090Y217819
X223090Y220359
X223090Y222899
X223090Y225439
X223090Y227978
X223090Y230519
X237060Y230519
X287860Y225439
T23
X455250Y217676
X462000Y178824
X433592Y186500
X445469Y186600
X407524Y202500
X160000Y105000
X176500Y180000
X015000Y095000
X160000Y015000
X042000Y025500
X034000Y178000
X284140Y179105
T24
X145170Y105080
X137250Y095500
X137250Y090420
X142330Y095500
X147410Y095500
X149950Y095500
X149950Y090420
X142630Y105080
X142330Y090420
X144870Y090420
X142630Y100000
X140090Y100000
X137550Y100000
X137550Y105080
X144870Y095500
X150250Y100000
X150250Y105080
X145170Y100000
X140090Y105080
X147410Y090420
X439495Y080542
X442034Y075462
X436955Y064215
X439495Y069295
X442034Y064215
X436955Y041443
X439495Y046523
X442034Y041443
X436828Y030197
X439368Y035277
X441908Y030197
X436828Y018951
X439368Y024031
X441908Y018951
X436955Y075462
X441948Y052893
X439408Y057973
X436868Y052893
T25
X148200Y183700
X167000Y174450
X167000Y169750
X148200Y174450
X155500Y174450
X167000Y179000
X167000Y183700
X155500Y183700
T26
X107300Y080910
X137300Y080910
X107300Y055910
X107250Y178430
X137300Y055910
X137250Y178430
X107250Y153430
X137250Y153430
X331000Y184000
X366000Y184000
X331000Y207000
X366000Y207000
T27
X042800Y010000
X091060Y010000
X009780Y010000
X124080Y010000
T28
X401209Y058958
X401209Y056418
T29
X405982Y049238
X411062Y051778
X411062Y054318
X411062Y059398
X405982Y046698
X411062Y046698
X405982Y051778
X405982Y054318
X405982Y059398
X411062Y049238
X213565Y201055
X211025Y201055
X208485Y201055
X205945Y201055
X203405Y201055
X200865Y201055
X198325Y201055
X195785Y201055
X193245Y201055
X193245Y185815
X195785Y185815
X198325Y185815
X200865Y185815
X203405Y185815
X205945Y185815
X208485Y185815
X211025Y185815
X213565Y185815
X216105Y185815
X218645Y185815
X221185Y185815
X223725Y185815
X226265Y185815
X228805Y185815
X228805Y201055
X226265Y201055
X223725Y201055
X221185Y201055
X218645Y201055
X216105Y201055
X382450Y113705
X382450Y109515
X382450Y105325
X382450Y101135
X382450Y096945
X382450Y092755
X388800Y109515
X388800Y105325
X388800Y101135
X388800Y096945
X388800Y092755
X382450Y147745
X382450Y151935
X382450Y156125
X382450Y160315
X382450Y164505
X382450Y168695
X388800Y147745
X388800Y151935
X388800Y156125
X388800Y160315
X388800Y168695
X388800Y113705
X388800Y164505
T30
X393550Y051296
X393550Y055496
X393550Y029570
X393550Y033769
X393550Y037970
X394054Y068779
X394054Y064578
X393550Y047096
X399554Y072979
X399554Y068779
X399554Y064578
X394054Y072979
X242480Y242090
X238280Y242090
X234079Y242090
X224950Y236590
X220750Y236590
X216550Y236590
X212350Y236590
X208150Y236590
X203950Y236590
X199750Y236590
X195550Y236590
X191350Y236590
X224950Y242090
X220750Y242090
X216550Y242090
X212350Y242090
X208150Y242090
X299400Y191100
X203950Y242090
X297510Y242090
X199750Y242090
X195550Y242090
X191350Y242090
X280710Y242090
X246680Y242090
X250880Y242090
X255079Y242090
X259279Y242090
X263480Y242090
X267680Y242090
X234079Y236590
X238280Y236590
X242480Y236590
X246680Y236590
X250880Y236590
X255079Y236590
X259279Y236590
X263480Y236590
X267680Y236590
X276510Y242090
X284909Y242090
X289110Y242090
X293310Y242090
X301710Y242090
X305909Y242090
X310110Y242090
X276510Y236590
X280710Y236590
X284909Y236590
X289110Y236590
X293310Y236590
X297510Y236590
X301710Y236590
X305909Y236590
X310110Y236590
X304900Y195300
X304900Y191100
X299400Y195300
T31
X386850Y022000
X386850Y080000
X468350Y080000
X468350Y022000
T32
X232010Y180170
X233710Y183770
X199849Y204611
X198579Y205881
X197309Y207151
X249510Y213270
X228060Y212620
X270860Y213920
X243060Y209370
X224910Y193470
X224610Y209170
X232440Y177334
X207310Y177370
X239310Y177370
X206310Y214820
X306170Y178030
X270210Y199570
X196039Y208421
T33
X250575Y206035
X250575Y201155
T34
X299315Y199700
X255250Y176745
X260329Y184375
X257790Y184375
X255250Y184375
X267950Y184375
X291685Y199700
X270490Y184375
X270490Y176745
X299315Y202240
X299315Y214940
X299315Y212400
X299315Y209860
X291685Y214940
T35
X245112Y195175
X245112Y182475
X245112Y185015
X245112Y187555
X245112Y190095
X245112Y192635
X245112Y197715
X245112Y200255
X245112Y202795
X237492Y202795
X237492Y200255
X237492Y197715
X237492Y195175
X237492Y192635
X237492Y190095
X237492Y187555
X237492Y185015
X237492Y182475
T36
X185000Y255000
X311000Y177000
X185000Y177000
T37
X360000Y237920
X395000Y199920
X395000Y231920
X355000Y237920
X395000Y195080
X370000Y237920
X388000Y226080
X395000Y226080
X388000Y199920
X365000Y237920
X388000Y195080
X388000Y231920
T38
X374000Y194000
X374000Y196000
X374000Y198000
X374000Y200000
X374000Y202000
X374000Y192000
X374000Y190000
T39
X398000Y198000
X374000Y244000
X398000Y241000
X383000Y246000
X391000Y241000
X398000Y185000
X391000Y185000
X391000Y198000
X391000Y229000
X391000Y213000
X378000Y242000
X382000Y242000
X378000Y246000
X398000Y213000
X398000Y229000
T40
X320000Y249000
X320000Y232000
X378000Y232000
X320000Y183000
X378000Y183000
X399000Y176000
M30