%MOIN*%
%OFA0B0*%
%FSLAX34Y34*%
%IPPOS*%
%LPD*%
%AMOC8*
5,1,8,0,0,$1,112.5*%
%AMOC80*
5,1,8,0,0,$1,-67.5*%
%AMOC81*
5,1,8,0,0,$1,-67.5*%
%AMOC80*
5,1,8,0,0,$1,22.5*%
%AMOC81*
5,1,8,0,0,$1,112.5*%
%AMOC80*
5,1,8,0,0,$1,22.5*%
%AMOC81*
5,1,8,0,0,$1,22.5*%
%AMOC80*
5,1,8,0,0,$1,-67.5*%
%AMOC81*
5,1,8,0,0,$1,-67.5*%
%ADD10C,0.068*%
%ADD11C,0.063*%
%ADD12C,0.308*%
%ADD13R,0.090677165354330708X0.090677165354330708*%
%ADD14C,0.12611023622047243*%
%ADD15C,0.065086614173228349*%
%ADD16C,0.090677165354330708*%
%ADD17C,0.0642992125984252*%
%ADD18R,0.083X0.083*%
%ADD19R,0.12050000000000001X0.12050000000000001*%
%ADD20C,0.16548031496062993*%
%ADD21R,0.148X0.148*%
%ADD32C,0.068*%
%ADD33C,0.063*%
%ADD34C,0.308*%
%ADD35R,0.090677165354330708X0.090677165354330708*%
%ADD36C,0.12611023622047243*%
%ADD37C,0.065086614173228349*%
%ADD38C,0.090677165354330708*%
%ADD39C,0.0642992125984252*%
%ADD40R,0.083X0.083*%
%ADD41R,0.12050000000000001X0.12050000000000001*%
%ADD42C,0.16548031496062993*%
%ADD43R,0.148X0.148*%
%ADD44C,0.037779527559055122*%
%ADD45C,0.16548031496062993*%
%ADD46C,0.132*%
%ADD47P,0.1428754724409449X8X202.5*%
%ADD48R,0.059181102362204731X0.06705511811023622*%
%ADD49R,0.051181102362204731X0.059055118110236227*%
%ADD50C,0.097763779527559061*%
%ADD51C,0.12788188976377954*%
%ADD52R,0.10248818897637797X0.10248818897637797*%
%ADD53C,0.060000000000000005*%
%ADD54R,0.090677165354330708X0.090677165354330708*%
%ADD55C,0.12611023622047243*%
%ADD56C,0.133*%
%ADD57R,0.12050000000000001X0.12050000000000001*%
%ADD58R,0.070007874015748039X0.070007874015748039*%
%ADD59C,0.057212598425196853*%
%ADD60C,0.17335433070866144*%
%ADD61R,0.0847716535433071X0.0847716535433071*%
%ADD62R,0.078866141732283471X0.13398425196850394*%
%ADD63R,0.070866141732283464X0.12598425196850396*%
%ADD64C,0.037779527559055122*%
%ADD65C,0.072000000000000008*%
%ADD66R,0.06705511811023622X0.059181102362204731*%
%ADD67R,0.059055118110236227X0.051181102362204731*%
%ADD68C,0.074*%
%ADD69C,0.074*%
%ADD70C,0.138*%
%ADD71C,0.060000000000000005*%
%ADD72R,0.090677165354330708X0.090677165354330708*%
%ADD73C,0.12611023622047243*%
%ADD74R,0.12050000000000001X0.12050000000000001*%
%ADD75R,0.0847716535433071X0.0847716535433071*%
%ADD76C,0.037779527559055122*%
%ADD77C,0.20800000000000002*%
%ADD78R,0.090677165354330708X0.090677165354330708*%
%ADD79C,0.12611023622047243*%
%ADD80R,0.06705511811023622X0.059181102362204731*%
%ADD81R,0.059055118110236227X0.051181102362204731*%
%ADD82R,0.086740157480314953X0.086740157480314953*%
%ADD83R,0.051622047244094485X0.051622047244094485*%
%ADD84R,0.059181102362204731X0.06705511811023622*%
%ADD85R,0.051181102362204731X0.059055118110236227*%
%ADD86R,0.10248818897637797X0.10248818897637797*%
%ADD87R,0.063433070866141736X0.063433070866141736*%
%ADD88R,0.070992125984251975X0.059181102362204731*%
%ADD89R,0.062992125984251982X0.051181102362204731*%
%ADD90R,0.059181102362204731X0.070992125984251975*%
%ADD91R,0.051181102362204731X0.062992125984251982*%
%ADD92C,0.060000000000000005*%
%ADD93R,0.13398425196850394X0.078866141732283471*%
%ADD94R,0.12598425196850396X0.070866141732283464*%
%ADD95R,0.078866141732283471X0.13398425196850394*%
%ADD96R,0.070866141732283464X0.12598425196850396*%
%ADD97C,0.13792125984251968*%
%ADD98C,0.14973228346456693*%
%ADD99R,0.0847716535433071X0.0847716535433071*%
%ADD100C,0.074*%
%ADD101P,0.064943385826771657X8X112.5*%
%ADD102C,0.037779527559055122*%
%ADD103C,0.16548031496062993*%
%ADD104R,0.051622047244094485X0.051622047244094485*%
%ADD105R,0.059181102362204731X0.070992125984251975*%
%ADD106R,0.051181102362204731X0.062992125984251982*%
%ADD107C,0.12611023622047243*%
%ADD108R,0.070992125984251975X0.059181102362204731*%
%ADD109R,0.062992125984251982X0.051181102362204731*%
%ADD110R,0.072960629921259845X0.072960629921259845*%
%ADD111R,0.06705511811023622X0.059181102362204731*%
%ADD112R,0.059055118110236227X0.051181102362204731*%
%ADD113R,0.057212598425196853X0.031622047244094488*%
%ADD114R,0.049212598425196853X0.023622047244094488*%
%ADD115C,0.060000000000000005*%
%ADD116R,0.096000000000000016X0.056000000000000008*%
%ADD117R,0.088X0.048000000000000008*%
%ADD118R,0.094614173228346463X0.14973228346456693*%
%ADD119R,0.086614173228346469X0.14173228346456693*%
%ADD120R,0.059181102362204731X0.06705511811023622*%
%ADD121R,0.051181102362204731X0.059055118110236227*%
%ADD122R,0.11429921259842521X0.11429921259842521*%
%ADD123R,0.047685039370078744X0.047685039370078744*%
%ADD124C,0.037779527559055122*%
%ADD125C,0.096582677165354333*%
%ADD126P,0.076849685039370091X8X292.5*%
%ADD127P,0.076849685039370091X8X112.5*%
%ADD128C,0.074*%
%ADD129C,0.138*%
%ADD130R,0.074X0.074*%
%ADD131C,0.074*%
%ADD132R,0.074929133858267716X0.074929133858267716*%
%ADD133C,0.074929133858267716*%
%ADD134R,0.067X0.067*%
%ADD135C,0.067*%
%ADD136P,0.076849685039370091X8X202.5*%
%ADD137R,0.052803149606299213X0.052803149606299213*%
%ADD138C,0.052803149606299213*%
%ADD139R,0.25406299212598427X0.28359055118110238*%
%ADD140R,0.24606299212598426X0.27559055118110237*%
%ADD141R,0.06705511811023622X0.12611023622047243*%
%ADD142R,0.059055118110236227X0.11811023622047245*%
%ADD143C,0.01988779527559055*%
%ADD144C,0.011811023622047244*%
%ADD145R,0.093000000000000013X0.032*%
%ADD146R,0.084999999999999992X0.024000000000000004*%
%ADD147R,0.06705511811023622X0.059181102362204731*%
%ADD148R,0.059055118110236227X0.051181102362204731*%
%ADD149R,0.059181102362204731X0.06705511811023622*%
%ADD150R,0.051181102362204731X0.059055118110236227*%
%ADD151C,0.12611023622047243*%
%ADD152R,0.11429921259842521X0.11429921259842521*%
%ADD153R,0.060283464566929131X0.060283464566929131*%
%ADD154C,0.060283464566929131*%
%ADD155C,0.039748031496063*%
%ADD156C,0.060000000000000005*%
%ADD157C,0.11823622047244095*%
%ADD158R,0.064X0.064*%
%ADD159C,0.064*%
%ADD160C,0.14973228346456693*%
%ADD161C,0.078000000000000014*%
%ADD162P,0.084426417322834652X8X292.5*%
%ADD163P,0.084426417322834652X8X112.5*%
%ADD164C,0.086000000000000007*%
%ADD165P,0.10066228346456693X8X292.5*%
%ADD166C,0.037779527559055122*%
%ADD167C,0.12611023622047243*%
%ADD168R,0.086740157480314953X0.086740157480314953*%
%ADD169R,0.10248818897637797X0.10248818897637797*%
G75*
G01*
D10*
X0148818Y0000000D02*
X0143665Y0019561D03*
X0143665Y0022761D03*
D11*
X0128765Y0017861D03*
X0128765Y0024461D03*
D12*
X0128165Y0021161D03*
D13*
X0143783Y0007637D03*
X0143783Y0005984D03*
X0143783Y0004330D03*
X0143783Y0002677D03*
X0143783Y0001023D03*
X0141618Y0002677D03*
X0141618Y0001023D03*
X0141618Y0004330D03*
X0141618Y0005984D03*
X0141618Y0007637D03*
D14*
X0146657Y0007637D03*
X0146657Y0001023D03*
D15*
X0132086Y0005413D03*
X0132086Y0002460D03*
D16*
X0136811Y0007027D03*
X0136811Y0000846D03*
D17*
X0138385Y0005070D03*
X0138385Y0001228D03*
D13*
X0129232Y0035669D03*
X0129232Y0034015D03*
X0127066Y0034015D03*
X0127066Y0035669D03*
D18*
X0141535Y0056692D03*
X0141535Y0048692D03*
X0147535Y0052692D03*
X0146035Y0033692D03*
X0143035Y0033692D03*
D13*
X0143783Y0066692D03*
X0143783Y0065039D03*
X0143783Y0063385D03*
X0143783Y0061732D03*
X0143783Y0060078D03*
X0141618Y0061732D03*
X0141618Y0060078D03*
X0141618Y0063385D03*
X0141618Y0065039D03*
X0141618Y0066692D03*
D14*
X0146657Y0066692D03*
X0146657Y0060078D03*
D19*
X0125362Y0001181D03*
X0125362Y0004181D03*
X0127362Y0004181D03*
X0127362Y0001181D03*
X0125362Y0063385D03*
X0125362Y0066385D03*
X0127362Y0066385D03*
X0127362Y0063385D03*
D20*
X0133889Y0056692D03*
X0129889Y0056692D03*
X0129889Y0042913D03*
X0133889Y0042913D03*
D21*
X0126889Y0044094D03*
X0136889Y0044094D03*
X0136889Y0055511D03*
X0126889Y0055511D03*
D20*
X0133889Y0053937D03*
X0129889Y0053937D03*
X0129889Y0045275D03*
X0133889Y0045275D03*
G04 next file*
G04 EAGLE Gerber RS-274X export*
G75*
G01*
D32*
X0071653Y0067716D02*
X0091846Y0019561D03*
X0091846Y0022761D03*
D33*
X0076946Y0017861D03*
X0076946Y0024461D03*
D34*
X0076346Y0021161D03*
D35*
X0076688Y0001023D03*
X0076688Y0002677D03*
X0076688Y0004330D03*
X0076688Y0005984D03*
X0076688Y0007637D03*
X0078854Y0005984D03*
X0078854Y0007637D03*
X0078854Y0004330D03*
X0078854Y0002677D03*
X0078854Y0001023D03*
D36*
X0073814Y0001023D03*
X0073814Y0007637D03*
D37*
X0088582Y0002460D03*
X0088582Y0005413D03*
D38*
X0083858Y0007027D03*
X0083858Y0000846D03*
D39*
X0082283Y0005661D03*
X0082283Y0001818D03*
D35*
X0089468Y0035787D03*
X0089468Y0037440D03*
X0091633Y0037440D03*
X0091633Y0035787D03*
D40*
X0073031Y0057086D03*
X0073031Y0049086D03*
X0079031Y0053086D03*
X0077531Y0034086D03*
X0074531Y0034086D03*
D35*
X0076688Y0060078D03*
X0076688Y0061732D03*
X0076688Y0063385D03*
X0076688Y0065039D03*
X0076688Y0066692D03*
X0078854Y0065039D03*
X0078854Y0066692D03*
X0078854Y0063385D03*
X0078854Y0061732D03*
X0078854Y0060078D03*
D36*
X0073814Y0060078D03*
X0073814Y0066692D03*
D41*
X0095110Y0066141D03*
X0095110Y0063141D03*
X0093110Y0063141D03*
X0093110Y0066141D03*
X0095110Y0008858D03*
X0095110Y0005858D03*
X0093110Y0005858D03*
X0093110Y0008858D03*
D42*
X0086385Y0045866D03*
X0090385Y0045866D03*
X0090385Y0054921D03*
X0086385Y0054921D03*
D43*
X0093385Y0044685D03*
X0083385Y0044685D03*
X0083385Y0056102D03*
X0093385Y0056102D03*
D42*
X0086385Y0043503D03*
X0090385Y0043503D03*
X0090385Y0057283D03*
X0086385Y0057283D03*
D44*
X0095866Y0014960D03*
G04 next file*
G04 EAGLE Gerber RS-274X export*
G75*
G01*
D45*
X0097637Y0067716D02*
X0120374Y0061055D03*
X0120374Y0057055D03*
D46*
X0113114Y0025787D03*
D47*
X0110114Y0025787D03*
D48*
X0117893Y0018208D03*
D49*
X0117893Y0018208D03*
D48*
X0117145Y0018208D03*
D49*
X0117145Y0018208D03*
D50*
X0110086Y0052830D03*
X0109003Y0052830D03*
D51*
X0113779Y0052830D03*
X0107480Y0052830D03*
X0113877Y0034570D03*
X0109547Y0034570D03*
X0111712Y0034570D03*
X0107381Y0034570D03*
D50*
X0111173Y0052830D03*
D48*
X0118228Y0023917D03*
D49*
X0118228Y0023917D03*
D48*
X0118976Y0023917D03*
D49*
X0118976Y0023917D03*
D52*
X0108425Y0016141D03*
X0107086Y0016141D03*
X0108425Y0012228D03*
X0107086Y0012236D03*
X0111181Y0016141D03*
X0109842Y0016141D03*
X0111181Y0012228D03*
X0109842Y0012236D03*
X0117283Y0015748D03*
X0115944Y0015748D03*
X0117283Y0011834D03*
X0115944Y0011842D03*
X0120039Y0015748D03*
X0118700Y0015748D03*
X0120039Y0011834D03*
X0118700Y0011842D03*
D53*
X0099515Y0048744D02*
X0099515Y0049264D01*
X0098515Y0049264D02*
X0098515Y0048744D01*
X0098515Y0045744D02*
X0098515Y0045224D01*
X0099515Y0045224D02*
X0099515Y0045744D01*
D48*
X0118425Y0026082D03*
D49*
X0118425Y0026082D03*
D48*
X0119173Y0026082D03*
D49*
X0119173Y0026082D03*
D54*
X0115649Y0007637D03*
X0115649Y0005984D03*
X0115649Y0004330D03*
X0115649Y0002677D03*
X0115649Y0001023D03*
X0113484Y0002677D03*
X0113484Y0001023D03*
X0113484Y0004330D03*
X0113484Y0005984D03*
X0113484Y0007637D03*
X0102673Y0060078D03*
X0102673Y0061732D03*
X0102673Y0063385D03*
X0102673Y0065039D03*
X0102673Y0066692D03*
X0104838Y0065039D03*
X0104838Y0066692D03*
X0104838Y0063385D03*
X0104838Y0061732D03*
X0104838Y0060078D03*
D55*
X0099799Y0060078D03*
X0099799Y0066692D03*
D54*
X0102673Y0001023D03*
X0102673Y0002677D03*
X0102673Y0004330D03*
X0102673Y0005984D03*
X0102673Y0007637D03*
X0104838Y0005984D03*
X0104838Y0007637D03*
X0104838Y0004330D03*
X0104838Y0002677D03*
X0104838Y0001023D03*
D55*
X0099799Y0001023D03*
X0099799Y0007637D03*
D56*
X0116129Y0049787D03*
X0105129Y0049787D03*
X0116129Y0036827D03*
X0105129Y0036827D03*
D57*
X0120716Y0066535D03*
X0120716Y0063535D03*
X0118716Y0063535D03*
X0118716Y0066535D03*
X0120716Y0009055D03*
X0120716Y0006055D03*
X0118716Y0006055D03*
X0118716Y0009055D03*
D58*
X0100393Y0018897D03*
X0100393Y0017897D03*
X0100393Y0016897D03*
X0100393Y0015897D03*
D59*
X0099543Y0017897D03*
D60*
X0100000Y0003149D03*
X0119685Y0003149D03*
X0119685Y0031988D03*
X0100000Y0031988D03*
X0119685Y0054330D03*
X0100000Y0054330D03*
D61*
X0107874Y0066535D03*
X0114133Y0066535D03*
X0109685Y0066535D03*
X0115944Y0066535D03*
D62*
X0107165Y0060236D03*
D63*
X0107165Y0060236D03*
D62*
X0109370Y0060236D03*
D63*
X0109370Y0060236D03*
D62*
X0110708Y0060236D03*
D63*
X0110708Y0060236D03*
D62*
X0112913Y0060236D03*
D63*
X0112913Y0060236D03*
D62*
X0112913Y0064960D03*
D63*
X0112913Y0064960D03*
D62*
X0110708Y0064960D03*
D63*
X0110708Y0064960D03*
D62*
X0109370Y0064960D03*
D63*
X0109370Y0064960D03*
D62*
X0107165Y0064960D03*
D63*
X0107165Y0064960D03*
D64*
X0121259Y0022440D03*
X0118897Y0020472D03*
X0121653Y0018897D03*
X0120472Y0017322D03*
X0117322Y0018897D03*
X0121259Y0024015D03*
X0119685Y0025196D03*
X0121366Y0026377D03*
G04 next file*
G04 EAGLE Gerber RS-274X export*
G75*
G01*
D65*
X0158661Y0068503D02*
X0170153Y0082003D03*
X0171153Y0082003D03*
X0171153Y0085003D03*
X0170153Y0085003D03*
X0172153Y0082003D03*
X0173153Y0082003D03*
X0172153Y0085003D03*
X0173153Y0085003D03*
D66*
X0182874Y0082244D03*
D67*
X0182874Y0082244D03*
D66*
X0182874Y0081496D03*
D67*
X0182874Y0081496D03*
D68*
X0181948Y0087039D03*
X0181948Y0083039D03*
X0182874Y0083496D03*
X0182874Y0079496D03*
D69*
X0182889Y0077633D02*
X0182889Y0076973D01*
X0181889Y0076973D02*
X0181889Y0077633D01*
X0180889Y0077633D02*
X0180889Y0076973D01*
D70*
X0181889Y0070403D03*
D69*
X0171705Y0079995D02*
X0171705Y0080655D01*
X0170705Y0080655D02*
X0170705Y0079995D01*
X0169705Y0079995D02*
X0169705Y0080655D01*
D70*
X0170705Y0073425D03*
D69*
X0176381Y0080034D02*
X0176381Y0080694D01*
X0175381Y0080694D02*
X0175381Y0080034D01*
X0174381Y0080034D02*
X0174381Y0080694D01*
D70*
X0175381Y0073464D03*
D69*
X0178232Y0078469D02*
X0178232Y0079129D01*
X0179232Y0079129D02*
X0179232Y0078469D01*
X0180232Y0078469D02*
X0180232Y0079129D01*
D70*
X0179232Y0085699D03*
D69*
X0167672Y0078724D02*
X0167012Y0078724D01*
X0167012Y0079724D02*
X0167672Y0079724D01*
X0167672Y0080724D02*
X0167012Y0080724D01*
D70*
X0160442Y0079724D03*
D66*
X0181968Y0084625D03*
D67*
X0181968Y0084625D03*
D66*
X0181968Y0085374D03*
D67*
X0181968Y0085374D03*
D71*
X0186539Y0084342D02*
X0187059Y0084342D01*
X0187059Y0085342D02*
X0186539Y0085342D01*
X0183539Y0085342D02*
X0183019Y0085342D01*
X0183019Y0084342D02*
X0183539Y0084342D01*
X0190393Y0092032D02*
X0190393Y0092552D01*
X0190393Y0087602D02*
X0190393Y0087082D01*
D72*
X0166692Y0073539D03*
X0165039Y0073539D03*
X0163385Y0073539D03*
X0161732Y0073539D03*
X0160078Y0073539D03*
X0161732Y0075704D03*
X0160078Y0075704D03*
X0163385Y0075704D03*
X0165039Y0075704D03*
X0166692Y0075704D03*
D73*
X0166692Y0070665D03*
X0160078Y0070665D03*
D72*
X0193858Y0073539D03*
X0192204Y0073539D03*
X0190551Y0073539D03*
X0188897Y0073539D03*
X0187244Y0073539D03*
X0188897Y0075704D03*
X0187244Y0075704D03*
X0190551Y0075704D03*
X0192204Y0075704D03*
X0193858Y0075704D03*
D73*
X0193858Y0070665D03*
X0187244Y0070665D03*
D74*
X0179921Y0091960D03*
X0182921Y0091960D03*
X0182921Y0089960D03*
X0179921Y0089960D03*
X0159842Y0091960D03*
X0162842Y0091960D03*
X0162842Y0089960D03*
X0159842Y0089960D03*
D66*
X0159842Y0082696D03*
D67*
X0159842Y0082696D03*
D66*
X0159842Y0083444D03*
D67*
X0159842Y0083444D03*
D66*
X0161811Y0082696D03*
D67*
X0161811Y0082696D03*
D66*
X0161811Y0083444D03*
D67*
X0161811Y0083444D03*
D71*
X0192913Y0092032D02*
X0192913Y0092552D01*
X0192913Y0087602D02*
X0192913Y0087082D01*
X0194173Y0092032D02*
X0194173Y0092552D01*
X0194173Y0087602D02*
X0194173Y0087082D01*
X0191653Y0092032D02*
X0191653Y0092552D01*
X0191653Y0087602D02*
X0191653Y0087082D01*
D75*
X0190551Y0077952D03*
X0190551Y0084212D03*
X0190551Y0079763D03*
X0190551Y0086023D03*
D76*
X0167559Y0084094D03*
X0180866Y0084645D03*
X0165354Y0085000D03*
X0165866Y0081889D03*
X0168818Y0081889D03*
X0168149Y0084015D03*
X0181496Y0079330D03*
X0163149Y0074645D03*
X0161850Y0074645D03*
X0173425Y0079763D03*
X0176968Y0081496D03*
X0174370Y0078740D03*
X0168543Y0079330D03*
X0168805Y0080879D03*
X0174409Y0082834D03*
X0159842Y0084645D03*
X0161417Y0085039D03*
G04 next file*
G04 EAGLE Gerber RS-274X export*
G75*
G01*
D77*
X0070866Y0000000D02*
X0048850Y0003937D03*
X0016850Y0003937D03*
X0035850Y0003937D03*
X0003850Y0003937D03*
D78*
X0009212Y0014665D03*
X0007559Y0014665D03*
X0005905Y0014665D03*
X0004251Y0014665D03*
X0002598Y0014665D03*
X0004251Y0016830D03*
X0002598Y0016830D03*
X0005905Y0016830D03*
X0007559Y0016830D03*
X0009212Y0016830D03*
D79*
X0011062Y0017051D03*
X0000748Y0017051D03*
D78*
X0068267Y0014665D03*
X0066614Y0014665D03*
X0064960Y0014665D03*
X0063307Y0014665D03*
X0061653Y0014665D03*
X0063307Y0016830D03*
X0061653Y0016830D03*
X0064960Y0016830D03*
X0066614Y0016830D03*
X0068267Y0016830D03*
D79*
X0070118Y0017051D03*
X0059803Y0017051D03*
D78*
X0002598Y0077657D03*
X0004251Y0077657D03*
X0005905Y0077657D03*
X0007559Y0077657D03*
X0009212Y0077657D03*
X0007559Y0075492D03*
X0009212Y0075492D03*
X0005905Y0075492D03*
X0004251Y0075492D03*
X0002598Y0075492D03*
D79*
X0000748Y0075271D03*
X0011062Y0075271D03*
D78*
X0061653Y0077657D03*
X0063307Y0077657D03*
X0064960Y0077657D03*
X0066614Y0077657D03*
X0068267Y0077657D03*
X0066614Y0075492D03*
X0068267Y0075492D03*
X0064960Y0075492D03*
X0063307Y0075492D03*
X0061653Y0075492D03*
D79*
X0059803Y0075271D03*
X0070118Y0075271D03*
D78*
X0002598Y0048326D03*
X0004251Y0048326D03*
X0005905Y0048326D03*
X0007559Y0048326D03*
X0009212Y0048326D03*
X0007559Y0046161D03*
X0009212Y0046161D03*
X0005905Y0046161D03*
X0004251Y0046161D03*
X0002598Y0046161D03*
D79*
X0000748Y0045940D03*
X0011062Y0045940D03*
D78*
X0061653Y0048326D03*
X0063307Y0048326D03*
X0064960Y0048326D03*
X0066614Y0048326D03*
X0068267Y0048326D03*
X0066614Y0046161D03*
X0068267Y0046161D03*
X0064960Y0046161D03*
X0063307Y0046161D03*
X0061653Y0046161D03*
D79*
X0059803Y0045940D03*
X0070118Y0045940D03*
D78*
X0009212Y0060728D03*
X0007559Y0060728D03*
X0005905Y0060728D03*
X0004251Y0060728D03*
X0002598Y0060728D03*
X0004251Y0062893D03*
X0002598Y0062893D03*
X0005905Y0062893D03*
X0007559Y0062893D03*
X0009212Y0062893D03*
D79*
X0011062Y0063114D03*
X0000748Y0063114D03*
D78*
X0036377Y0060728D03*
X0034724Y0060728D03*
X0033070Y0060728D03*
X0031417Y0060728D03*
X0029763Y0060728D03*
X0031417Y0062893D03*
X0029763Y0062893D03*
X0033070Y0062893D03*
X0034724Y0062893D03*
X0036377Y0062893D03*
D79*
X0038228Y0063114D03*
X0027913Y0063114D03*
D80*
X0056692Y0022066D03*
D81*
X0056692Y0022066D03*
D80*
X0056692Y0022814D03*
D81*
X0056692Y0022814D03*
D80*
X0030610Y0067401D03*
D81*
X0030610Y0067401D03*
D80*
X0030610Y0066653D03*
D81*
X0030610Y0066653D03*
D78*
X0066043Y0021614D03*
X0066043Y0023267D03*
X0066043Y0024921D03*
X0066043Y0026574D03*
X0066043Y0028228D03*
X0066043Y0029881D03*
X0066043Y0031535D03*
X0066043Y0033188D03*
X0066043Y0034842D03*
X0066043Y0036496D03*
X0066043Y0038149D03*
X0068208Y0021614D03*
X0068208Y0023267D03*
X0068208Y0024921D03*
X0068208Y0026574D03*
X0068208Y0028228D03*
X0068208Y0029881D03*
X0068208Y0031535D03*
X0068208Y0033188D03*
X0068208Y0034842D03*
X0068208Y0036496D03*
X0066043Y0039803D03*
X0068208Y0038149D03*
X0068208Y0039803D03*
D82*
X0037992Y0044330D03*
X0037992Y0041338D03*
X0045098Y0041338D03*
X0047066Y0041338D03*
X0045098Y0044330D03*
X0049625Y0044330D03*
X0049625Y0041338D03*
X0047066Y0044330D03*
X0051594Y0044330D03*
X0051594Y0041338D03*
X0037992Y0038818D03*
X0037992Y0035826D03*
X0045098Y0035826D03*
X0047066Y0035826D03*
X0045098Y0038818D03*
X0049625Y0038818D03*
X0049625Y0035826D03*
X0047066Y0038818D03*
X0051594Y0038818D03*
X0051594Y0035826D03*
D83*
X0059153Y0039370D03*
X0059153Y0041370D03*
X0057153Y0039370D03*
X0056153Y0039370D03*
X0055153Y0039370D03*
X0054153Y0039370D03*
X0054153Y0041370D03*
X0055153Y0041370D03*
X0056153Y0041370D03*
X0057153Y0041370D03*
X0054035Y0037598D03*
X0054035Y0035598D03*
X0056035Y0037598D03*
X0057035Y0037598D03*
X0058035Y0037598D03*
X0059035Y0037598D03*
X0059035Y0035598D03*
X0058035Y0035598D03*
X0057035Y0035598D03*
X0056035Y0035598D03*
D80*
X0058759Y0021535D03*
D81*
X0058759Y0021535D03*
D80*
X0058759Y0020787D03*
D81*
X0058759Y0020787D03*
D84*
X0065374Y0067814D03*
D85*
X0065374Y0067814D03*
D84*
X0066122Y0067814D03*
D85*
X0066122Y0067814D03*
D80*
X0060728Y0041811D03*
D81*
X0060728Y0041811D03*
D80*
X0060728Y0041062D03*
D81*
X0060728Y0041062D03*
D80*
X0061515Y0038169D03*
D81*
X0061515Y0038169D03*
D80*
X0061515Y0037421D03*
D81*
X0061515Y0037421D03*
D80*
X0060826Y0032893D03*
D81*
X0060826Y0032893D03*
D80*
X0060826Y0033641D03*
D81*
X0060826Y0033641D03*
D86*
X0061181Y0062992D03*
X0059842Y0062992D03*
X0061181Y0059078D03*
X0059842Y0059086D03*
D87*
X0065748Y0066830D03*
X0065748Y0068681D03*
X0061220Y0068681D03*
X0058346Y0068681D03*
D78*
X0012755Y0038681D03*
X0014409Y0038681D03*
X0014409Y0036515D03*
X0012755Y0036515D03*
X0065846Y0058110D03*
X0065846Y0059763D03*
X0065846Y0061417D03*
X0065846Y0063070D03*
X0065846Y0064724D03*
X0068011Y0063070D03*
X0068011Y0064724D03*
X0068011Y0061417D03*
X0068011Y0059763D03*
X0068011Y0058110D03*
D86*
X0062637Y0059055D03*
X0063976Y0059055D03*
X0062637Y0062968D03*
X0063976Y0062960D03*
X0061850Y0024803D03*
X0063188Y0024803D03*
X0061850Y0028716D03*
X0063188Y0028708D03*
D88*
X0058070Y0046437D03*
D89*
X0058070Y0046437D03*
D88*
X0058070Y0045688D03*
D89*
X0058070Y0045688D03*
D90*
X0057500Y0047440D03*
D91*
X0057500Y0047440D03*
D90*
X0058248Y0047440D03*
D91*
X0058248Y0047440D03*
D92*
X0056283Y0044051D02*
X0056283Y0043531D01*
X0058283Y0043531D02*
X0058283Y0044051D01*
X0057283Y0044051D02*
X0057283Y0043531D01*
D78*
X0009940Y0054763D03*
X0009940Y0053110D03*
X0007775Y0053110D03*
X0007775Y0054763D03*
D87*
X0065748Y0070472D03*
X0065748Y0072322D03*
X0061220Y0072322D03*
X0058346Y0072322D03*
D93*
X0014370Y0040826D03*
D94*
X0014370Y0040826D03*
D93*
X0014370Y0043031D03*
D94*
X0014370Y0043031D03*
D93*
X0014370Y0044370D03*
D94*
X0014370Y0044370D03*
D93*
X0014370Y0046574D03*
D94*
X0014370Y0046574D03*
D93*
X0014370Y0047913D03*
D94*
X0014370Y0047913D03*
D93*
X0014370Y0050118D03*
D94*
X0014370Y0050118D03*
D93*
X0014370Y0051456D03*
D94*
X0014370Y0051456D03*
D93*
X0014370Y0053661D03*
D94*
X0014370Y0053661D03*
D93*
X0014370Y0055000D03*
D94*
X0014370Y0055000D03*
D93*
X0014370Y0057204D03*
D94*
X0014370Y0057204D03*
D95*
X0005984Y0068897D03*
D96*
X0005984Y0068897D03*
D95*
X0008188Y0068897D03*
D96*
X0008188Y0068897D03*
D93*
X0009842Y0068425D03*
D94*
X0009842Y0068425D03*
D93*
X0009842Y0066220D03*
D94*
X0009842Y0066220D03*
D95*
X0011496Y0065944D03*
D96*
X0011496Y0065944D03*
D95*
X0013700Y0065944D03*
D96*
X0013700Y0065944D03*
D93*
X0014370Y0064291D03*
D94*
X0014370Y0064291D03*
D93*
X0014370Y0062086D03*
D94*
X0014370Y0062086D03*
D93*
X0014370Y0060748D03*
D94*
X0014370Y0060748D03*
D93*
X0014370Y0058543D03*
D94*
X0014370Y0058543D03*
D93*
X0010039Y0037716D03*
D94*
X0010039Y0037716D03*
D93*
X0010039Y0035511D03*
D94*
X0010039Y0035511D03*
D93*
X0010039Y0034173D03*
D94*
X0010039Y0034173D03*
D93*
X0010039Y0031968D03*
D94*
X0010039Y0031968D03*
D95*
X0008385Y0031496D03*
D96*
X0008385Y0031496D03*
D95*
X0006181Y0031496D03*
D96*
X0006181Y0031496D03*
D93*
X0004527Y0031023D03*
D94*
X0004527Y0031023D03*
D93*
X0004527Y0028818D03*
D94*
X0004527Y0028818D03*
D95*
X0006181Y0028346D03*
D96*
X0006181Y0028346D03*
D95*
X0008385Y0028346D03*
D96*
X0008385Y0028346D03*
D93*
X0010039Y0019370D03*
D94*
X0010039Y0019370D03*
D93*
X0010039Y0021574D03*
D94*
X0010039Y0021574D03*
D95*
X0008385Y0022047D03*
D96*
X0008385Y0022047D03*
D95*
X0006181Y0022047D03*
D96*
X0006181Y0022047D03*
D93*
X0004724Y0022519D03*
D94*
X0004724Y0022519D03*
D93*
X0004724Y0024724D03*
D94*
X0004724Y0024724D03*
D95*
X0006181Y0025196D03*
D96*
X0006181Y0025196D03*
D95*
X0008385Y0025196D03*
D96*
X0008385Y0025196D03*
D93*
X0010039Y0025669D03*
D94*
X0010039Y0025669D03*
D93*
X0010039Y0027874D03*
D94*
X0010039Y0027874D03*
D97*
X0069488Y0070866D03*
X0005905Y0037401D03*
X0062992Y0005905D03*
X0016535Y0010039D03*
X0013385Y0070078D03*
D98*
X0054055Y0022011D03*
X0042244Y0022011D03*
X0054055Y0031854D03*
X0042244Y0031854D03*
X0054035Y0060405D03*
X0042224Y0060405D03*
X0054035Y0070248D03*
X0042224Y0070248D03*
D97*
X0062992Y0041338D03*
D99*
X0015157Y0033070D03*
X0015157Y0026811D03*
X0015157Y0031259D03*
X0015157Y0025000D03*
X0021062Y0025196D03*
X0021062Y0031456D03*
X0021062Y0027007D03*
X0021062Y0033267D03*
D100*
X0012629Y0058464D03*
X0008629Y0058464D03*
X0012629Y0057086D03*
X0008629Y0057086D03*
X0017519Y0052590D03*
X0017519Y0048590D03*
X0018700Y0052590D03*
X0018700Y0048590D03*
D90*
X0057460Y0031889D03*
D91*
X0057460Y0031889D03*
D90*
X0056712Y0031889D03*
D91*
X0056712Y0031889D03*
D88*
X0058464Y0031122D03*
D89*
X0058464Y0031122D03*
D88*
X0058464Y0031870D03*
D89*
X0058464Y0031870D03*
D92*
X0057889Y0033704D02*
X0057889Y0034224D01*
X0055889Y0034224D02*
X0055889Y0033704D01*
X0056889Y0033704D02*
X0056889Y0034224D01*
D80*
X0062795Y0033444D03*
D81*
X0062795Y0033444D03*
D80*
X0062795Y0032696D03*
D81*
X0062795Y0032696D03*
D86*
X0032677Y0067283D03*
X0032677Y0065944D03*
X0036590Y0067283D03*
X0036582Y0065944D03*
D101*
X0016929Y0068594D03*
X0016929Y0069594D03*
D102*
X0057283Y0023031D03*
X0029724Y0066338D03*
X0057677Y0018503D03*
X0060433Y0036220D03*
X0057677Y0020472D03*
X0066929Y0068307D03*
X0060039Y0039960D03*
X0061023Y0040354D03*
X0061220Y0036417D03*
X0059645Y0034055D03*
X0062204Y0032283D03*
G04 next file*
G04 EAGLE Gerber RS-274X export*
G75*
G01*
D103*
X0149606Y0005511D02*
X0152303Y0031496D03*
X0152303Y0008661D03*
X0184389Y0031496D03*
X0184389Y0008661D03*
D104*
X0173995Y0020824D03*
X0172995Y0022824D03*
X0171995Y0020824D03*
X0174029Y0029709D03*
X0173029Y0031709D03*
X0172029Y0029709D03*
X0173979Y0007461D03*
X0172979Y0009461D03*
X0171979Y0007461D03*
X0173979Y0011888D03*
X0172979Y0013888D03*
X0171979Y0011888D03*
X0174029Y0016316D03*
X0173029Y0018316D03*
X0172029Y0016316D03*
X0174029Y0025281D03*
X0173029Y0027281D03*
X0172029Y0025281D03*
D105*
X0159772Y0012959D03*
D106*
X0159772Y0012959D03*
D105*
X0159024Y0012959D03*
D106*
X0159024Y0012959D03*
D105*
X0162006Y0013754D03*
D106*
X0162006Y0013754D03*
D105*
X0161258Y0013754D03*
D106*
X0161258Y0013754D03*
D107*
X0178135Y0024856D03*
X0178035Y0013932D03*
D105*
X0154375Y0032853D03*
D106*
X0154375Y0032853D03*
D105*
X0153627Y0032853D03*
D106*
X0153627Y0032853D03*
D105*
X0163437Y0027454D03*
D106*
X0163437Y0027454D03*
D105*
X0164185Y0027454D03*
D106*
X0164185Y0027454D03*
D108*
X0154778Y0030920D03*
D109*
X0154778Y0030920D03*
D108*
X0154778Y0031668D03*
D109*
X0154778Y0031668D03*
D105*
X0156372Y0030846D03*
D106*
X0156372Y0030846D03*
D105*
X0157120Y0030846D03*
D106*
X0157120Y0030846D03*
D108*
X0164038Y0015134D03*
D109*
X0164038Y0015134D03*
D108*
X0164038Y0014386D03*
D109*
X0164038Y0014386D03*
D108*
X0163053Y0015134D03*
D109*
X0163053Y0015134D03*
D108*
X0163053Y0014386D03*
D109*
X0163053Y0014386D03*
D110*
X0159835Y0023385D03*
X0159835Y0021385D03*
X0159835Y0020385D03*
X0159835Y0019385D03*
X0161835Y0019385D03*
X0161835Y0020385D03*
X0161835Y0021385D03*
X0161835Y0023385D03*
X0159835Y0018385D03*
X0161835Y0018385D03*
D111*
X0161937Y0016228D03*
D112*
X0161937Y0016228D03*
D111*
X0161937Y0015480D03*
D112*
X0161937Y0015480D03*
D113*
X0162078Y0026931D03*
D114*
X0162078Y0026931D03*
D113*
X0162078Y0026557D03*
D114*
X0162078Y0026557D03*
D113*
X0162078Y0026183D03*
D114*
X0162078Y0026183D03*
D113*
X0161094Y0026183D03*
D114*
X0161094Y0026183D03*
D113*
X0161094Y0026557D03*
D114*
X0161094Y0026557D03*
D113*
X0161094Y0026931D03*
D114*
X0161094Y0026931D03*
D115*
X0163548Y0028393D02*
X0163548Y0028913D01*
X0164548Y0028913D02*
X0164548Y0028393D01*
X0169548Y0028393D02*
X0169548Y0028913D01*
X0169548Y0031393D02*
X0169548Y0031913D01*
X0165548Y0028913D02*
X0165548Y0028393D01*
X0166548Y0028393D02*
X0166548Y0028913D01*
X0168548Y0028913D02*
X0168548Y0028393D01*
X0167548Y0028393D02*
X0167548Y0028913D01*
X0168548Y0031393D02*
X0168548Y0031913D01*
X0167548Y0031913D02*
X0167548Y0031393D01*
X0166548Y0031393D02*
X0166548Y0031913D01*
X0165548Y0031913D02*
X0165548Y0031393D01*
X0164548Y0031393D02*
X0164548Y0031913D01*
X0163548Y0031913D02*
X0163548Y0031393D01*
X0163498Y0023105D02*
X0163498Y0022585D01*
X0164498Y0022585D02*
X0164498Y0023105D01*
X0169498Y0023105D02*
X0169498Y0022585D01*
X0169498Y0025585D02*
X0169498Y0026105D01*
X0165498Y0023105D02*
X0165498Y0022585D01*
X0166498Y0022585D02*
X0166498Y0023105D01*
X0168498Y0023105D02*
X0168498Y0022585D01*
X0167498Y0022585D02*
X0167498Y0023105D01*
X0168498Y0025585D02*
X0168498Y0026105D01*
X0167498Y0026105D02*
X0167498Y0025585D01*
X0166498Y0025585D02*
X0166498Y0026105D01*
X0165498Y0026105D02*
X0165498Y0025585D01*
X0164498Y0025585D02*
X0164498Y0026105D01*
X0163498Y0026105D02*
X0163498Y0025585D01*
X0163050Y0013570D02*
X0163050Y0013050D01*
X0164050Y0013050D02*
X0164050Y0013570D01*
X0164050Y0016050D02*
X0164050Y0016570D01*
X0163050Y0016570D02*
X0163050Y0016050D01*
X0165049Y0013570D02*
X0165049Y0013050D01*
X0166050Y0013050D02*
X0166050Y0013570D01*
X0165049Y0016050D02*
X0165049Y0016570D01*
X0166050Y0016570D02*
X0166050Y0016050D01*
X0163548Y0017896D02*
X0163548Y0018416D01*
X0164548Y0018416D02*
X0164548Y0017896D01*
X0169548Y0017896D02*
X0169548Y0018416D01*
X0169548Y0020896D02*
X0169548Y0021416D01*
X0165548Y0018416D02*
X0165548Y0017896D01*
X0166548Y0017896D02*
X0166548Y0018416D01*
X0168548Y0018416D02*
X0168548Y0017896D01*
X0167548Y0017896D02*
X0167548Y0018416D01*
X0168548Y0020896D02*
X0168548Y0021416D01*
X0167548Y0021416D02*
X0167548Y0020896D01*
X0166548Y0020896D02*
X0166548Y0021416D01*
X0165548Y0021416D02*
X0165548Y0020896D01*
X0164548Y0020896D02*
X0164548Y0021416D01*
X0163548Y0021416D02*
X0163548Y0020896D01*
D116*
X0160826Y0016348D03*
D117*
X0160826Y0016348D03*
D116*
X0160826Y0015438D03*
D117*
X0160826Y0015438D03*
D116*
X0160826Y0014528D03*
D117*
X0160826Y0014528D03*
D118*
X0158386Y0015438D03*
D119*
X0158386Y0015438D03*
D111*
X0163379Y0020031D03*
D112*
X0163379Y0020031D03*
D111*
X0163379Y0019283D03*
D112*
X0163379Y0019283D03*
D111*
X0164540Y0020069D03*
D112*
X0164540Y0020069D03*
D111*
X0164540Y0019321D03*
D112*
X0164540Y0019321D03*
D120*
X0156333Y0031883D03*
D121*
X0156333Y0031883D03*
D120*
X0157081Y0031883D03*
D121*
X0157081Y0031883D03*
D120*
X0157061Y0032870D03*
D121*
X0157061Y0032870D03*
D120*
X0156313Y0032870D03*
D121*
X0156313Y0032870D03*
D120*
X0166358Y0027415D03*
D121*
X0166358Y0027415D03*
D120*
X0165610Y0027415D03*
D121*
X0165610Y0027415D03*
D111*
X0164656Y0024735D03*
D112*
X0164656Y0024735D03*
D111*
X0164656Y0023987D03*
D112*
X0164656Y0023987D03*
D111*
X0159730Y0026151D03*
D112*
X0159730Y0026151D03*
D111*
X0159730Y0026899D03*
D112*
X0159730Y0026899D03*
D107*
X0177974Y0008481D03*
D105*
X0162042Y0012783D03*
D106*
X0162042Y0012783D03*
D105*
X0161294Y0012783D03*
D106*
X0161294Y0012783D03*
D111*
X0163570Y0024731D03*
D112*
X0163570Y0024731D03*
D111*
X0163570Y0023983D03*
D112*
X0163570Y0023983D03*
D120*
X0162023Y0027895D03*
D121*
X0162023Y0027895D03*
D120*
X0161275Y0027895D03*
D121*
X0161275Y0027895D03*
D108*
X0172294Y0022831D03*
D109*
X0172294Y0022831D03*
D108*
X0172294Y0022083D03*
D109*
X0172294Y0022083D03*
D108*
X0173711Y0022083D03*
D109*
X0173711Y0022083D03*
D108*
X0173711Y0022831D03*
D109*
X0173711Y0022831D03*
D108*
X0173683Y0030949D03*
D109*
X0173683Y0030949D03*
D108*
X0173683Y0031697D03*
D109*
X0173683Y0031697D03*
D108*
X0172344Y0031697D03*
D109*
X0172344Y0031697D03*
D108*
X0172344Y0030949D03*
D109*
X0172344Y0030949D03*
D108*
X0172294Y0009459D03*
D109*
X0172294Y0009459D03*
D108*
X0172294Y0008711D03*
D109*
X0172294Y0008711D03*
D108*
X0173672Y0008711D03*
D109*
X0173672Y0008711D03*
D108*
X0173672Y0009459D03*
D109*
X0173672Y0009459D03*
D108*
X0172294Y0013926D03*
D109*
X0172294Y0013926D03*
D108*
X0172294Y0013178D03*
D109*
X0172294Y0013178D03*
D108*
X0173672Y0013178D03*
D109*
X0173672Y0013178D03*
D108*
X0173672Y0013926D03*
D109*
X0173672Y0013926D03*
D108*
X0172344Y0027320D03*
D109*
X0172344Y0027320D03*
D108*
X0172344Y0026572D03*
D109*
X0172344Y0026572D03*
D108*
X0173722Y0026572D03*
D109*
X0173722Y0026572D03*
D108*
X0173722Y0027320D03*
D109*
X0173722Y0027320D03*
D108*
X0172305Y0018304D03*
D109*
X0172305Y0018304D03*
D108*
X0172305Y0017556D03*
D109*
X0172305Y0017556D03*
D108*
X0173722Y0017556D03*
D109*
X0173722Y0017556D03*
D108*
X0173722Y0018304D03*
D109*
X0173722Y0018304D03*
D111*
X0168097Y0015095D03*
D112*
X0168097Y0015095D03*
D111*
X0168097Y0014347D03*
D112*
X0168097Y0014347D03*
D107*
X0152066Y0014948D03*
X0152066Y0011641D03*
D122*
X0154940Y0014948D03*
X0154940Y0013295D03*
X0154940Y0011641D03*
D107*
X0152066Y0021848D03*
X0152066Y0018541D03*
D122*
X0154940Y0021848D03*
X0154940Y0020195D03*
X0154940Y0018541D03*
X0155139Y0025424D03*
X0155139Y0027078D03*
X0155139Y0028731D03*
X0157304Y0025424D03*
X0157304Y0027078D03*
X0157304Y0028731D03*
D123*
X0157956Y0023211D03*
X0157956Y0022211D03*
D124*
X0160406Y0013011D03*
X0155606Y0030361D03*
X0157606Y0011611D03*
X0157706Y0008061D03*
X0159606Y0027961D03*
X0163806Y0010311D03*
X0163856Y0006811D03*
X0164806Y0015361D03*
X0158956Y0013761D03*
X0158956Y0017061D03*
X0160756Y0009211D03*
X0159356Y0013811D03*
X0159356Y0017061D03*
X0161656Y0006511D03*
X0165456Y0024311D03*
X0161930Y0014837D03*
G04 next file*
G04 EAGLE Gerber RS-274X export*
G75*
G01*
D125*
X0071653Y0068503D02*
X0072834Y0100393D03*
X0122440Y0069685D03*
X0072834Y0069685D03*
D126*
X0108905Y0073358D03*
X0108905Y0071358D03*
D127*
X0108885Y0074531D03*
X0108885Y0076531D03*
D128*
X0112866Y0076743D02*
X0112866Y0076083D01*
X0111866Y0076083D02*
X0111866Y0076743D01*
X0110866Y0076743D02*
X0110866Y0076083D01*
D129*
X0111866Y0070513D03*
D130*
X0076330Y0090755D03*
D131*
X0076330Y0089755D03*
X0076330Y0088755D03*
X0076330Y0087755D03*
X0076330Y0086755D03*
X0076330Y0085755D03*
X0076330Y0084755D03*
X0076330Y0083755D03*
X0079330Y0083755D03*
X0079330Y0084755D03*
X0079330Y0085755D03*
X0079330Y0086755D03*
X0079330Y0087755D03*
X0079330Y0088755D03*
X0079330Y0089755D03*
X0079330Y0090755D03*
D130*
X0084830Y0090755D03*
D131*
X0084830Y0089755D03*
X0084830Y0088755D03*
X0084830Y0087755D03*
X0084830Y0086755D03*
X0084830Y0085755D03*
X0084830Y0084755D03*
X0084830Y0083755D03*
X0087830Y0083755D03*
X0087830Y0084755D03*
X0087830Y0085755D03*
X0087830Y0086755D03*
X0087830Y0087755D03*
X0087830Y0088755D03*
X0087830Y0089755D03*
X0087830Y0090755D03*
D130*
X0093330Y0090755D03*
D131*
X0093330Y0089755D03*
X0093330Y0088755D03*
X0093330Y0087755D03*
X0093330Y0086755D03*
X0093330Y0085755D03*
X0093330Y0084755D03*
X0093330Y0083755D03*
X0096330Y0083755D03*
X0096330Y0084755D03*
X0096330Y0085755D03*
X0096330Y0086755D03*
X0096330Y0087755D03*
X0096330Y0088755D03*
X0096330Y0089755D03*
X0096330Y0090755D03*
D130*
X0101830Y0090755D03*
D131*
X0101830Y0089755D03*
X0101830Y0088755D03*
X0101830Y0087755D03*
X0101830Y0086755D03*
X0101830Y0085755D03*
X0101830Y0084755D03*
X0101830Y0083755D03*
X0104830Y0083755D03*
X0104830Y0084755D03*
X0104830Y0085755D03*
X0104830Y0086755D03*
X0104830Y0087755D03*
X0104830Y0088755D03*
X0104830Y0089755D03*
X0104830Y0090755D03*
D130*
X0110330Y0090755D03*
D131*
X0110330Y0089755D03*
X0110330Y0088755D03*
X0110330Y0087755D03*
X0110330Y0086755D03*
X0110330Y0085755D03*
X0110330Y0084755D03*
X0110330Y0083755D03*
X0113330Y0083755D03*
X0113330Y0084755D03*
X0113330Y0085755D03*
X0113330Y0086755D03*
X0113330Y0087755D03*
X0113330Y0088755D03*
X0113330Y0089755D03*
X0113330Y0090755D03*
D132*
X0090080Y0079155D03*
D133*
X0089080Y0079155D03*
X0088080Y0079155D03*
X0087080Y0079155D03*
X0086080Y0079155D03*
X0085080Y0079155D03*
X0084080Y0079155D03*
X0083080Y0079155D03*
X0082080Y0079155D03*
X0081080Y0079155D03*
X0080080Y0079155D03*
X0079080Y0079155D03*
X0078080Y0079155D03*
X0077080Y0079155D03*
X0076080Y0079155D03*
X0076080Y0073155D03*
X0077080Y0073155D03*
X0078080Y0073155D03*
X0079080Y0073155D03*
X0080080Y0073155D03*
X0081080Y0073155D03*
X0082080Y0073155D03*
X0083080Y0073155D03*
X0084080Y0073155D03*
X0085080Y0073155D03*
X0086080Y0073155D03*
X0087080Y0073155D03*
X0088080Y0073155D03*
X0089080Y0073155D03*
X0090080Y0073155D03*
D134*
X0096500Y0071840D03*
D135*
X0096500Y0072840D03*
X0096500Y0073840D03*
X0096500Y0074840D03*
X0096500Y0075840D03*
X0096500Y0076840D03*
X0096500Y0077840D03*
X0096500Y0078840D03*
X0096500Y0079840D03*
X0093500Y0079840D03*
X0093500Y0078840D03*
X0093500Y0077840D03*
X0093500Y0076840D03*
X0093500Y0075840D03*
X0093500Y0074840D03*
X0093500Y0073840D03*
X0093500Y0072840D03*
X0093500Y0071840D03*
D136*
X0102421Y0079200D03*
X0100421Y0079200D03*
X0102421Y0081129D03*
X0100421Y0081129D03*
D137*
X0098651Y0081116D03*
D138*
X0098651Y0079194D03*
D139*
X0116633Y0072572D03*
D140*
X0116633Y0072572D03*
D141*
X0117533Y0069974D03*
D142*
X0117533Y0069974D03*
D141*
X0115735Y0069974D03*
D142*
X0115735Y0069974D03*
D143*
X0118909Y0072260D02*
X0119262Y0072260D01*
X0118909Y0072260D02*
X0118909Y0072857D01*
X0119262Y0072857D01*
X0119262Y0072260D01*
X0119262Y0072449D02*
X0118909Y0072449D01*
X0118909Y0072638D02*
X0119262Y0072638D01*
X0119262Y0072827D02*
X0118909Y0072827D01*
D144*
X0118909Y0072259D02*
X0119263Y0072259D01*
X0118909Y0072259D02*
X0118909Y0072858D01*
X0119263Y0072858D01*
X0119263Y0072259D01*
X0119263Y0072372D02*
X0118909Y0072372D01*
X0118909Y0072484D02*
X0119263Y0072484D01*
X0119263Y0072596D02*
X0118909Y0072596D01*
X0118909Y0072708D02*
X0119263Y0072708D01*
X0119263Y0072820D02*
X0118909Y0072820D01*
D143*
X0120094Y0072260D02*
X0120448Y0072260D01*
X0120094Y0072260D02*
X0120094Y0072857D01*
X0120448Y0072857D01*
X0120448Y0072260D01*
X0120448Y0072449D02*
X0120094Y0072449D01*
X0120094Y0072638D02*
X0120448Y0072638D01*
X0120448Y0072827D02*
X0120094Y0072827D01*
D144*
X0120094Y0072259D02*
X0120448Y0072259D01*
X0120094Y0072259D02*
X0120094Y0072858D01*
X0120448Y0072858D01*
X0120448Y0072259D01*
X0120448Y0072372D02*
X0120094Y0072372D01*
X0120094Y0072484D02*
X0120448Y0072484D01*
X0120448Y0072596D02*
X0120094Y0072596D01*
X0120094Y0072708D02*
X0120448Y0072708D01*
X0120448Y0072820D02*
X0120094Y0072820D01*
D145*
X0102120Y0073929D03*
D146*
X0102120Y0073929D03*
D145*
X0102120Y0074929D03*
D146*
X0102120Y0074929D03*
D145*
X0102120Y0075929D03*
D146*
X0102120Y0075929D03*
D145*
X0102120Y0076929D03*
D146*
X0102120Y0076929D03*
D145*
X0105760Y0076929D03*
D146*
X0105760Y0076929D03*
D145*
X0105760Y0075929D03*
D146*
X0105760Y0075929D03*
D145*
X0105760Y0074929D03*
D146*
X0105760Y0074929D03*
D145*
X0105760Y0073929D03*
D146*
X0105760Y0073929D03*
D147*
X0109448Y0079261D03*
D148*
X0109448Y0079261D03*
D147*
X0109448Y0078513D03*
D148*
X0109448Y0078513D03*
D149*
X0106224Y0070834D03*
D150*
X0106224Y0070834D03*
D149*
X0105476Y0070834D03*
D150*
X0105476Y0070834D03*
D147*
X0116208Y0078625D03*
D148*
X0116208Y0078625D03*
D147*
X0116208Y0079374D03*
D148*
X0116208Y0079374D03*
D147*
X0116196Y0083417D03*
D148*
X0116196Y0083417D03*
D147*
X0116196Y0082669D03*
D148*
X0116196Y0082669D03*
D149*
X0101515Y0070744D03*
D150*
X0101515Y0070744D03*
D149*
X0102263Y0070744D03*
D150*
X0102263Y0070744D03*
D151*
X0075334Y0098185D03*
X0088562Y0098185D03*
D152*
X0075334Y0095311D03*
X0076988Y0095311D03*
X0078641Y0095311D03*
X0080295Y0095311D03*
X0081948Y0095311D03*
X0083602Y0095311D03*
X0085255Y0095311D03*
X0086909Y0095311D03*
X0088562Y0095311D03*
X0075334Y0093145D03*
X0076988Y0093145D03*
X0078641Y0093145D03*
X0080295Y0093145D03*
X0081948Y0093145D03*
X0083602Y0093145D03*
X0085255Y0093145D03*
X0086909Y0093145D03*
X0088562Y0093145D03*
D151*
X0092157Y0098185D03*
X0105385Y0098185D03*
D152*
X0092157Y0095311D03*
X0093811Y0095311D03*
X0095464Y0095311D03*
X0097118Y0095311D03*
X0098771Y0095311D03*
X0100425Y0095311D03*
X0102078Y0095311D03*
X0103732Y0095311D03*
X0105385Y0095311D03*
X0092157Y0093145D03*
X0093811Y0093145D03*
X0095464Y0093145D03*
X0097118Y0093145D03*
X0098771Y0093145D03*
X0100425Y0093145D03*
X0102078Y0093145D03*
X0103732Y0093145D03*
X0105385Y0093145D03*
D151*
X0108862Y0098185D03*
X0122090Y0098185D03*
D152*
X0108862Y0095311D03*
X0110515Y0095311D03*
X0112169Y0095311D03*
X0113822Y0095311D03*
X0115476Y0095311D03*
X0117129Y0095311D03*
X0118783Y0095311D03*
X0120436Y0095311D03*
X0122090Y0095311D03*
X0108862Y0093145D03*
X0110515Y0093145D03*
X0112169Y0093145D03*
X0113822Y0093145D03*
X0115476Y0093145D03*
X0117129Y0093145D03*
X0118783Y0093145D03*
X0120436Y0093145D03*
X0122090Y0093145D03*
D151*
X0122913Y0076062D03*
D152*
X0120039Y0076889D03*
X0120039Y0075236D03*
X0117874Y0076889D03*
X0117874Y0075236D03*
D153*
X0106492Y0072588D03*
D154*
X0105492Y0072588D03*
X0100492Y0072588D03*
X0101492Y0072588D03*
X0102492Y0072588D03*
X0100492Y0069584D03*
X0106492Y0069584D03*
D153*
X0117840Y0078622D03*
D154*
X0117840Y0079622D03*
X0117840Y0084622D03*
X0117840Y0083622D03*
X0117840Y0082622D03*
X0114836Y0084622D03*
X0114836Y0078622D03*
D155*
X0081224Y0084574D03*
X0089787Y0083708D03*
X0098232Y0083964D03*
X0106637Y0084220D03*
X0095692Y0082429D03*
X0088547Y0076169D03*
X0088429Y0082350D03*
X0091511Y0069816D03*
X0094216Y0069830D03*
X0081618Y0069830D03*
X0077180Y0082055D03*
X0077680Y0081555D03*
X0078180Y0081055D03*
X0078680Y0080555D03*
X0092011Y0072350D03*
X0091342Y0070933D03*
X0106381Y0078570D03*
X0120539Y0070090D03*
G04 next file*
G04 EAGLE Gerber RS-274X export*
G75*
G01*
D156*
X0144015Y0085086D02*
X0144015Y0084566D01*
X0143015Y0084566D02*
X0143015Y0085086D01*
X0142015Y0085086D02*
X0142015Y0084566D01*
X0141015Y0084566D02*
X0141015Y0085086D01*
X0140015Y0085086D02*
X0140015Y0084566D01*
X0139015Y0084566D02*
X0139015Y0085086D01*
X0138015Y0085086D02*
X0138015Y0084566D01*
X0137015Y0084566D02*
X0137015Y0085086D01*
X0136015Y0085086D02*
X0136015Y0084566D01*
X0135015Y0084566D02*
X0135015Y0085086D01*
X0134015Y0085086D02*
X0134015Y0084566D01*
X0133015Y0084566D02*
X0133015Y0085086D01*
X0132015Y0085086D02*
X0132015Y0084566D01*
X0131015Y0084566D02*
X0131015Y0085086D01*
X0130015Y0085086D02*
X0130015Y0084566D01*
X0144015Y0090440D02*
X0144015Y0090960D01*
X0143015Y0090960D02*
X0143015Y0090440D01*
X0142015Y0090440D02*
X0142015Y0090960D01*
X0141015Y0090960D02*
X0141015Y0090440D01*
X0140015Y0090440D02*
X0140015Y0090960D01*
X0139015Y0090960D02*
X0139015Y0090440D01*
X0138015Y0090440D02*
X0138015Y0090960D01*
X0137015Y0090960D02*
X0137015Y0090440D01*
X0136015Y0090440D02*
X0136015Y0090960D01*
X0135015Y0090960D02*
X0135015Y0090440D01*
X0134015Y0090440D02*
X0134015Y0090960D01*
X0133015Y0090960D02*
X0133015Y0090440D01*
X0132015Y0090440D02*
X0132015Y0090960D01*
X0131015Y0090960D02*
X0131015Y0090440D01*
X0130015Y0090440D02*
X0130015Y0090960D01*
D157*
X0125984Y0091338D03*
X0148818Y0091338D03*
X0125984Y0072047D03*
X0148818Y0072047D03*
D158*
X0147244Y0079527D03*
D159*
X0147244Y0078740D03*
X0147244Y0077952D03*
X0147244Y0077165D03*
X0147244Y0076377D03*
X0147244Y0075590D03*
X0147244Y0074803D03*
D160*
X0130314Y0072440D03*
X0144094Y0072440D03*
X0130314Y0081496D03*
X0144094Y0081496D03*
D161*
X0155511Y0089007D03*
D162*
X0155511Y0085007D03*
D161*
X0155511Y0078708D03*
D163*
X0155511Y0082708D03*
D161*
X0155511Y0076803D03*
D162*
X0155511Y0072803D03*
D161*
X0145669Y0093669D03*
D163*
X0145669Y0097669D03*
D161*
X0143700Y0093669D03*
D163*
X0143700Y0097669D03*
D161*
X0141732Y0093669D03*
D163*
X0141732Y0097669D03*
D161*
X0155511Y0091307D03*
D163*
X0155511Y0095307D03*
D161*
X0139763Y0093669D03*
D163*
X0139763Y0097669D03*
D161*
X0152755Y0091307D03*
D163*
X0152755Y0095307D03*
D161*
X0152755Y0089007D03*
D162*
X0152755Y0085007D03*
D161*
X0152755Y0078708D03*
D163*
X0152755Y0082708D03*
D161*
X0152755Y0076803D03*
D162*
X0152755Y0072803D03*
D164*
X0156692Y0094491D02*
X0156692Y0095271D01*
X0151177Y0096850D02*
X0150397Y0096850D01*
X0153937Y0095271D02*
X0153937Y0094491D01*
X0147244Y0095672D02*
X0147244Y0096452D01*
X0156692Y0073224D02*
X0156692Y0072444D01*
X0153937Y0072444D02*
X0153937Y0073224D01*
D165*
X0153937Y0077952D03*
X0153937Y0090157D03*
X0153937Y0083858D03*
X0148818Y0095275D03*
X0150393Y0095275D03*
X0148818Y0096850D03*
X0156692Y0083858D03*
X0156692Y0090157D03*
X0156692Y0077952D03*
D157*
X0125984Y0098031D03*
X0157086Y0069291D03*
D166*
X0127559Y0087007D03*
X0127559Y0084645D03*
X0129527Y0092125D03*
G04 next file*
G04 EAGLE Gerber RS-274X export*
G75*
G01*
D167*
X0149606Y0067716D02*
X0151342Y0051466D03*
D168*
X0150570Y0044765D03*
X0150570Y0043116D03*
X0150570Y0041466D03*
X0150570Y0039816D03*
X0150570Y0038167D03*
X0150570Y0036517D03*
X0153070Y0044765D03*
X0153070Y0043116D03*
X0153070Y0041466D03*
X0153070Y0039816D03*
X0153070Y0038167D03*
X0153070Y0036517D03*
X0150570Y0058167D03*
X0150570Y0059816D03*
X0150570Y0061466D03*
X0150570Y0063116D03*
X0150570Y0064765D03*
X0150570Y0066415D03*
X0153070Y0058167D03*
X0153070Y0059816D03*
X0153070Y0061466D03*
X0153070Y0063116D03*
X0153070Y0064765D03*
X0153070Y0066415D03*
D169*
X0180866Y0059055D03*
X0179527Y0059055D03*
X0180866Y0055141D03*
X0179527Y0055149D03*
X0177322Y0059055D03*
X0175984Y0059055D03*
X0177322Y0055141D03*
X0175984Y0055149D03*
X0173779Y0059055D03*
X0172440Y0059055D03*
X0173779Y0055141D03*
X0172440Y0055149D03*
X0170236Y0059055D03*
X0168897Y0059055D03*
X0170236Y0055141D03*
X0168897Y0055149D03*
X0166692Y0059055D03*
X0165354Y0059055D03*
X0166692Y0055141D03*
X0165354Y0055149D03*
X0163149Y0059055D03*
X0161811Y0059055D03*
X0163149Y0055141D03*
X0161811Y0055149D03*
X0170708Y0043700D03*
X0172047Y0043700D03*
X0170708Y0047614D03*
X0172047Y0047606D03*
X0164409Y0043700D03*
X0165748Y0043700D03*
X0164409Y0047614D03*
X0165748Y0047606D03*
X0159291Y0043700D03*
X0160629Y0043700D03*
X0159291Y0047614D03*
X0160629Y0047606D03*
M02*