G04 EAGLE Gerber RS-274X export*
G75*
%MOMM*%
%FSLAX34Y34*%
%LPD*%
%INSoldermask Bottom*%
%IPPOS*%
%AMOC8*
5,1,8,0,0,1.08239X$1,22.5*%
G01*
%ADD10C,5.283200*%
%ADD11R,2.303200X2.303200*%
%ADD12C,3.203200*%
%ADD13R,1.503200X1.703200*%
%ADD14R,2.203200X2.203200*%
%ADD15R,1.311200X1.311200*%
%ADD16R,1.703200X1.503200*%
%ADD17R,2.603200X2.603200*%
%ADD18R,1.611200X1.611200*%
%ADD19R,1.503200X1.803200*%
%ADD20R,1.803200X1.503200*%
%ADD21C,1.524000*%
%ADD22R,2.003200X3.403200*%
%ADD23R,3.403200X2.003200*%
%ADD24C,3.503200*%
%ADD25C,3.803200*%
%ADD26R,2.153200X2.153200*%
%ADD27C,1.879600*%
%ADD28P,1.649562X8X22.500000*%
%ADD29C,0.959600*%


D10*
X100000Y559200D03*
X100000Y1372000D03*
X100000Y889400D03*
X100000Y1702200D03*
D11*
X372500Y1566000D03*
X372500Y1608000D03*
X372500Y1650000D03*
X372500Y1692000D03*
X372500Y1734000D03*
X427500Y1692000D03*
X427500Y1734000D03*
X427500Y1650000D03*
X427500Y1608000D03*
X427500Y1566000D03*
D12*
X433100Y1519000D03*
X433100Y1781000D03*
D11*
X372500Y66000D03*
X372500Y108000D03*
X372500Y150000D03*
X372500Y192000D03*
X372500Y234000D03*
X427500Y192000D03*
X427500Y234000D03*
X427500Y150000D03*
X427500Y108000D03*
X427500Y66000D03*
D12*
X433100Y19000D03*
X433100Y281000D03*
D11*
X1972500Y1734000D03*
X1972500Y1692000D03*
X1972500Y1650000D03*
X1972500Y1608000D03*
X1972500Y1566000D03*
X1917500Y1608000D03*
X1917500Y1566000D03*
X1917500Y1650000D03*
X1917500Y1692000D03*
X1917500Y1734000D03*
D12*
X1911900Y1781000D03*
X1911900Y1519000D03*
D11*
X1972500Y234000D03*
X1972500Y192000D03*
X1972500Y150000D03*
X1972500Y108000D03*
X1972500Y66000D03*
X1917500Y108000D03*
X1917500Y66000D03*
X1917500Y150000D03*
X1917500Y192000D03*
X1917500Y234000D03*
D12*
X1911900Y281000D03*
X1911900Y19000D03*
D11*
X1227500Y1734000D03*
X1227500Y1692000D03*
X1227500Y1650000D03*
X1227500Y1608000D03*
X1227500Y1566000D03*
X1172500Y1608000D03*
X1172500Y1566000D03*
X1172500Y1650000D03*
X1172500Y1692000D03*
X1172500Y1734000D03*
D12*
X1166900Y1781000D03*
X1166900Y1519000D03*
D11*
X1227500Y234000D03*
X1227500Y192000D03*
X1227500Y150000D03*
X1227500Y108000D03*
X1227500Y66000D03*
X1172500Y108000D03*
X1172500Y66000D03*
X1172500Y150000D03*
X1172500Y192000D03*
X1172500Y234000D03*
D12*
X1166900Y281000D03*
X1166900Y19000D03*
D11*
X1542500Y1566000D03*
X1542500Y1608000D03*
X1542500Y1650000D03*
X1542500Y1692000D03*
X1542500Y1734000D03*
X1597500Y1692000D03*
X1597500Y1734000D03*
X1597500Y1650000D03*
X1597500Y1608000D03*
X1597500Y1566000D03*
D12*
X1603100Y1519000D03*
X1603100Y1781000D03*
D11*
X1542500Y876000D03*
X1542500Y918000D03*
X1542500Y960000D03*
X1542500Y1002000D03*
X1542500Y1044000D03*
X1597500Y1002000D03*
X1597500Y1044000D03*
X1597500Y960000D03*
X1597500Y918000D03*
X1597500Y876000D03*
D12*
X1603100Y829000D03*
X1603100Y1091000D03*
D13*
X560500Y360000D03*
X579500Y360000D03*
X1712000Y1022500D03*
X1693000Y1022500D03*
D11*
X549000Y122500D03*
X591000Y122500D03*
X633000Y122500D03*
X675000Y122500D03*
X717000Y122500D03*
X759000Y122500D03*
X801000Y122500D03*
X843000Y122500D03*
X885000Y122500D03*
X927000Y122500D03*
X969000Y122500D03*
X549000Y67500D03*
X591000Y67500D03*
X633000Y67500D03*
X675000Y67500D03*
X717000Y67500D03*
X759000Y67500D03*
X801000Y67500D03*
X843000Y67500D03*
X885000Y67500D03*
X927000Y67500D03*
X1011000Y122500D03*
X969000Y67500D03*
X1011000Y67500D03*
D14*
X1126000Y835000D03*
X1050000Y835000D03*
X1050000Y654500D03*
X1050000Y604500D03*
X1126000Y654500D03*
X1126000Y539500D03*
X1050000Y539500D03*
X1126000Y604500D03*
X1126000Y489500D03*
X1050000Y489500D03*
X986000Y835000D03*
X910000Y835000D03*
X910000Y654500D03*
X910000Y604500D03*
X986000Y654500D03*
X986000Y539500D03*
X910000Y539500D03*
X986000Y604500D03*
X986000Y489500D03*
X910000Y489500D03*
D15*
X1000000Y297500D03*
X1050800Y297500D03*
X1000000Y348300D03*
X1000000Y373700D03*
X1000000Y399100D03*
X1000000Y424500D03*
X1050800Y424500D03*
X1050800Y399100D03*
X1050800Y373700D03*
X1050800Y348300D03*
X955000Y427500D03*
X904200Y427500D03*
X955000Y376700D03*
X955000Y351300D03*
X955000Y325900D03*
X955000Y300500D03*
X904200Y300500D03*
X904200Y325900D03*
X904200Y351300D03*
X904200Y376700D03*
D13*
X547000Y307500D03*
X528000Y307500D03*
D16*
X1722500Y139500D03*
X1722500Y120500D03*
D13*
X1062000Y257500D03*
X1043000Y257500D03*
X969500Y237500D03*
X950500Y237500D03*
X835500Y255000D03*
X854500Y255000D03*
D17*
X1600000Y246000D03*
X1600000Y280000D03*
X1500600Y246000D03*
X1500800Y280000D03*
D18*
X1697500Y130000D03*
X1744500Y130000D03*
X1744500Y245000D03*
X1744500Y318000D03*
D11*
X982500Y1476000D03*
X982500Y1434000D03*
X927500Y1434000D03*
X927500Y1476000D03*
X1476000Y127500D03*
X1518000Y127500D03*
X1560000Y127500D03*
X1602000Y127500D03*
X1644000Y127500D03*
X1602000Y72500D03*
X1644000Y72500D03*
X1560000Y72500D03*
X1518000Y72500D03*
X1476000Y72500D03*
D17*
X1500000Y209000D03*
X1500000Y175000D03*
X1599400Y209000D03*
X1599200Y175000D03*
X630000Y229000D03*
X630000Y195000D03*
X729400Y229000D03*
X729200Y195000D03*
D19*
X1179500Y325000D03*
X1160500Y325000D03*
D20*
X1205000Y339500D03*
X1205000Y320500D03*
D21*
X1118904Y370400D02*
X1105696Y370400D01*
X1105696Y319600D02*
X1118904Y319600D01*
X1118904Y345000D02*
X1105696Y345000D01*
D11*
X1391000Y1547500D03*
X1349000Y1547500D03*
X1349000Y1602500D03*
X1391000Y1602500D03*
D18*
X1790000Y130000D03*
X1837000Y130000D03*
X1837000Y245000D03*
X1837000Y318000D03*
D22*
X1037000Y1435000D03*
X1093000Y1435000D03*
X1127000Y1435000D03*
X1183000Y1435000D03*
X1217000Y1435000D03*
X1273000Y1435000D03*
X1307000Y1435000D03*
X1363000Y1435000D03*
X1397000Y1435000D03*
X1453000Y1435000D03*
D23*
X1750000Y1648000D03*
X1750000Y1592000D03*
D22*
X1738000Y1550000D03*
X1682000Y1550000D03*
D23*
X1675000Y1508000D03*
X1675000Y1452000D03*
D22*
X1633000Y1435000D03*
X1577000Y1435000D03*
X1543000Y1435000D03*
X1487000Y1435000D03*
X958000Y1545000D03*
X902000Y1545000D03*
X868000Y1545000D03*
X812000Y1545000D03*
D23*
X800000Y1587000D03*
X800000Y1643000D03*
D22*
X788000Y1685000D03*
X732000Y1685000D03*
D23*
X720000Y1643000D03*
X720000Y1587000D03*
D22*
X492000Y1545000D03*
X548000Y1545000D03*
D23*
X560000Y1587000D03*
X560000Y1643000D03*
D22*
X572000Y1680000D03*
X628000Y1680000D03*
D23*
X640000Y1643000D03*
X640000Y1587000D03*
D22*
X652000Y1545000D03*
X708000Y1545000D03*
D24*
X1800000Y35000D03*
X950000Y1650000D03*
X150000Y200000D03*
X255000Y1380000D03*
X1780000Y1460000D03*
D25*
X559100Y427000D03*
X559100Y727000D03*
X809100Y427000D03*
X809100Y727000D03*
X1534300Y427500D03*
X1534300Y727500D03*
X1784300Y427500D03*
X1784300Y727500D03*
D24*
X1050000Y200000D03*
D26*
X840000Y1415000D03*
X681000Y1415000D03*
X794000Y1415000D03*
X635000Y1415000D03*
X640000Y1265000D03*
X799000Y1265000D03*
X686000Y1265000D03*
X845000Y1265000D03*
D27*
X1485000Y1479200D03*
X1485000Y1580800D03*
X1450000Y1479200D03*
X1450000Y1580800D03*
X1335800Y1355000D03*
X1234200Y1355000D03*
X1335800Y1325000D03*
X1234200Y1325000D03*
D20*
X810000Y340500D03*
X810000Y359500D03*
D19*
X790500Y315000D03*
X809500Y315000D03*
D21*
X856096Y329600D02*
X869304Y329600D01*
X869304Y380400D02*
X856096Y380400D01*
X856096Y355000D02*
X869304Y355000D01*
D13*
X849500Y205000D03*
X830500Y205000D03*
D17*
X1709000Y970000D03*
X1675000Y970000D03*
X1709000Y870600D03*
X1675000Y870800D03*
D28*
X1742300Y1370000D03*
X1767700Y1370000D03*
D29*
X585000Y345000D03*
X1685000Y1045000D03*
X470000Y335000D03*
X920000Y265000D03*
X520000Y335000D03*
X1735000Y100000D03*
X1015000Y275000D03*
X1025000Y250000D03*
X925000Y245000D03*
X865000Y285000D03*
X820000Y220000D03*
M02*
