G04 EAGLE Gerber RS-274X export*
G75*
%MOMM*%
%FSLAX34Y34*%
%LPD*%
%INSilkscreen Bottom*%
%IPPOS*%
%AMOC8*
5,1,8,0,0,1.08239X$1,22.5*%
G01*
%ADD10C,0.152400*%
%ADD11C,0.101600*%
%ADD12C,0.127000*%


D10*
X159238Y60762D02*
X159238Y77018D01*
X159238Y69793D02*
X150207Y69793D01*
X150207Y77018D02*
X150207Y60762D01*
X138570Y60762D02*
X143989Y77018D01*
X133152Y77018D02*
X138570Y60762D01*
X127316Y67084D02*
X116478Y67084D01*
X92545Y60762D02*
X92545Y77018D01*
X92545Y69793D02*
X83514Y69793D01*
X83514Y77018D02*
X83514Y60762D01*
X71877Y60762D02*
X77296Y77018D01*
X66458Y77018D02*
X71877Y60762D01*
X60622Y67084D02*
X49785Y67084D01*
X55204Y72502D02*
X55204Y61665D01*
D11*
X1232608Y492995D02*
X1244292Y492995D01*
X1244292Y496240D01*
X1244290Y496353D01*
X1244284Y496466D01*
X1244274Y496579D01*
X1244260Y496692D01*
X1244243Y496804D01*
X1244221Y496915D01*
X1244196Y497025D01*
X1244166Y497135D01*
X1244133Y497243D01*
X1244096Y497350D01*
X1244056Y497456D01*
X1244011Y497560D01*
X1243963Y497663D01*
X1243912Y497764D01*
X1243857Y497863D01*
X1243799Y497960D01*
X1243737Y498055D01*
X1243672Y498148D01*
X1243604Y498238D01*
X1243533Y498326D01*
X1243458Y498412D01*
X1243381Y498495D01*
X1243301Y498575D01*
X1243218Y498652D01*
X1243132Y498727D01*
X1243044Y498798D01*
X1242954Y498866D01*
X1242861Y498931D01*
X1242766Y498993D01*
X1242669Y499051D01*
X1242570Y499106D01*
X1242469Y499157D01*
X1242366Y499205D01*
X1242262Y499250D01*
X1242156Y499290D01*
X1242049Y499327D01*
X1241941Y499360D01*
X1241831Y499390D01*
X1241721Y499415D01*
X1241610Y499437D01*
X1241498Y499454D01*
X1241385Y499468D01*
X1241272Y499478D01*
X1241159Y499484D01*
X1241046Y499486D01*
X1240933Y499484D01*
X1240820Y499478D01*
X1240707Y499468D01*
X1240594Y499454D01*
X1240482Y499437D01*
X1240371Y499415D01*
X1240261Y499390D01*
X1240151Y499360D01*
X1240043Y499327D01*
X1239936Y499290D01*
X1239830Y499250D01*
X1239726Y499205D01*
X1239623Y499157D01*
X1239522Y499106D01*
X1239423Y499051D01*
X1239326Y498993D01*
X1239231Y498931D01*
X1239138Y498866D01*
X1239048Y498798D01*
X1238960Y498727D01*
X1238874Y498652D01*
X1238791Y498575D01*
X1238711Y498495D01*
X1238634Y498412D01*
X1238559Y498326D01*
X1238488Y498238D01*
X1238420Y498148D01*
X1238355Y498055D01*
X1238293Y497960D01*
X1238235Y497863D01*
X1238180Y497764D01*
X1238129Y497663D01*
X1238081Y497560D01*
X1238036Y497456D01*
X1237996Y497350D01*
X1237959Y497243D01*
X1237926Y497135D01*
X1237896Y497025D01*
X1237871Y496915D01*
X1237849Y496804D01*
X1237832Y496692D01*
X1237818Y496579D01*
X1237808Y496466D01*
X1237802Y496353D01*
X1237800Y496240D01*
X1237801Y496240D02*
X1237801Y492995D01*
X1237801Y496889D02*
X1232608Y499486D01*
X1235204Y504351D02*
X1244292Y506947D01*
X1235204Y504351D02*
X1235204Y510842D01*
X1237801Y508895D02*
X1232608Y508895D01*
X1137392Y526658D02*
X1125708Y526658D01*
X1137392Y526658D02*
X1137392Y529904D01*
X1137390Y530017D01*
X1137384Y530130D01*
X1137374Y530243D01*
X1137360Y530356D01*
X1137343Y530468D01*
X1137321Y530579D01*
X1137296Y530689D01*
X1137266Y530799D01*
X1137233Y530907D01*
X1137196Y531014D01*
X1137156Y531120D01*
X1137111Y531224D01*
X1137063Y531327D01*
X1137012Y531428D01*
X1136957Y531527D01*
X1136899Y531624D01*
X1136837Y531719D01*
X1136772Y531812D01*
X1136704Y531902D01*
X1136633Y531990D01*
X1136558Y532076D01*
X1136481Y532159D01*
X1136401Y532239D01*
X1136318Y532316D01*
X1136232Y532391D01*
X1136144Y532462D01*
X1136054Y532530D01*
X1135961Y532595D01*
X1135866Y532657D01*
X1135769Y532715D01*
X1135670Y532770D01*
X1135569Y532821D01*
X1135466Y532869D01*
X1135362Y532914D01*
X1135256Y532954D01*
X1135149Y532991D01*
X1135041Y533024D01*
X1134931Y533054D01*
X1134821Y533079D01*
X1134710Y533101D01*
X1134598Y533118D01*
X1134485Y533132D01*
X1134372Y533142D01*
X1134259Y533148D01*
X1134146Y533150D01*
X1134033Y533148D01*
X1133920Y533142D01*
X1133807Y533132D01*
X1133694Y533118D01*
X1133582Y533101D01*
X1133471Y533079D01*
X1133361Y533054D01*
X1133251Y533024D01*
X1133143Y532991D01*
X1133036Y532954D01*
X1132930Y532914D01*
X1132826Y532869D01*
X1132723Y532821D01*
X1132622Y532770D01*
X1132523Y532715D01*
X1132426Y532657D01*
X1132331Y532595D01*
X1132238Y532530D01*
X1132148Y532462D01*
X1132060Y532391D01*
X1131974Y532316D01*
X1131891Y532239D01*
X1131811Y532159D01*
X1131734Y532076D01*
X1131659Y531990D01*
X1131588Y531902D01*
X1131520Y531812D01*
X1131455Y531719D01*
X1131393Y531624D01*
X1131335Y531527D01*
X1131280Y531428D01*
X1131229Y531327D01*
X1131181Y531224D01*
X1131136Y531120D01*
X1131096Y531014D01*
X1131059Y530907D01*
X1131026Y530799D01*
X1130996Y530689D01*
X1130971Y530579D01*
X1130949Y530468D01*
X1130932Y530356D01*
X1130918Y530243D01*
X1130908Y530130D01*
X1130902Y530017D01*
X1130900Y529904D01*
X1130901Y529904D02*
X1130901Y526658D01*
X1130901Y530553D02*
X1125708Y533149D01*
X1125708Y538014D02*
X1125708Y541909D01*
X1125710Y542008D01*
X1125716Y542108D01*
X1125725Y542207D01*
X1125738Y542305D01*
X1125755Y542403D01*
X1125776Y542501D01*
X1125801Y542597D01*
X1125829Y542692D01*
X1125861Y542786D01*
X1125896Y542879D01*
X1125935Y542971D01*
X1125978Y543061D01*
X1126023Y543149D01*
X1126073Y543236D01*
X1126125Y543320D01*
X1126181Y543403D01*
X1126239Y543483D01*
X1126301Y543561D01*
X1126366Y543636D01*
X1126434Y543709D01*
X1126504Y543779D01*
X1126577Y543847D01*
X1126652Y543912D01*
X1126730Y543974D01*
X1126810Y544032D01*
X1126893Y544088D01*
X1126977Y544140D01*
X1127064Y544190D01*
X1127152Y544235D01*
X1127242Y544278D01*
X1127334Y544317D01*
X1127427Y544352D01*
X1127521Y544384D01*
X1127616Y544412D01*
X1127712Y544437D01*
X1127810Y544458D01*
X1127908Y544475D01*
X1128006Y544488D01*
X1128105Y544497D01*
X1128205Y544503D01*
X1128304Y544505D01*
X1129603Y544505D01*
X1129702Y544503D01*
X1129802Y544497D01*
X1129901Y544488D01*
X1129999Y544475D01*
X1130097Y544458D01*
X1130195Y544437D01*
X1130291Y544412D01*
X1130386Y544384D01*
X1130480Y544352D01*
X1130573Y544317D01*
X1130665Y544278D01*
X1130755Y544235D01*
X1130843Y544190D01*
X1130930Y544140D01*
X1131014Y544088D01*
X1131097Y544032D01*
X1131177Y543974D01*
X1131255Y543912D01*
X1131330Y543847D01*
X1131403Y543779D01*
X1131473Y543709D01*
X1131541Y543636D01*
X1131606Y543561D01*
X1131668Y543483D01*
X1131726Y543403D01*
X1131782Y543320D01*
X1131834Y543236D01*
X1131884Y543149D01*
X1131929Y543061D01*
X1131972Y542971D01*
X1132011Y542879D01*
X1132046Y542786D01*
X1132078Y542692D01*
X1132106Y542597D01*
X1132131Y542501D01*
X1132152Y542403D01*
X1132169Y542305D01*
X1132182Y542207D01*
X1132191Y542108D01*
X1132197Y542008D01*
X1132199Y541909D01*
X1132199Y538014D01*
X1137392Y538014D01*
X1137392Y544505D01*
X1082392Y531658D02*
X1070708Y531658D01*
X1082392Y531658D02*
X1082392Y534904D01*
X1082390Y535017D01*
X1082384Y535130D01*
X1082374Y535243D01*
X1082360Y535356D01*
X1082343Y535468D01*
X1082321Y535579D01*
X1082296Y535689D01*
X1082266Y535799D01*
X1082233Y535907D01*
X1082196Y536014D01*
X1082156Y536120D01*
X1082111Y536224D01*
X1082063Y536327D01*
X1082012Y536428D01*
X1081957Y536527D01*
X1081899Y536624D01*
X1081837Y536719D01*
X1081772Y536812D01*
X1081704Y536902D01*
X1081633Y536990D01*
X1081558Y537076D01*
X1081481Y537159D01*
X1081401Y537239D01*
X1081318Y537316D01*
X1081232Y537391D01*
X1081144Y537462D01*
X1081054Y537530D01*
X1080961Y537595D01*
X1080866Y537657D01*
X1080769Y537715D01*
X1080670Y537770D01*
X1080569Y537821D01*
X1080466Y537869D01*
X1080362Y537914D01*
X1080256Y537954D01*
X1080149Y537991D01*
X1080041Y538024D01*
X1079931Y538054D01*
X1079821Y538079D01*
X1079710Y538101D01*
X1079598Y538118D01*
X1079485Y538132D01*
X1079372Y538142D01*
X1079259Y538148D01*
X1079146Y538150D01*
X1079033Y538148D01*
X1078920Y538142D01*
X1078807Y538132D01*
X1078694Y538118D01*
X1078582Y538101D01*
X1078471Y538079D01*
X1078361Y538054D01*
X1078251Y538024D01*
X1078143Y537991D01*
X1078036Y537954D01*
X1077930Y537914D01*
X1077826Y537869D01*
X1077723Y537821D01*
X1077622Y537770D01*
X1077523Y537715D01*
X1077426Y537657D01*
X1077331Y537595D01*
X1077238Y537530D01*
X1077148Y537462D01*
X1077060Y537391D01*
X1076974Y537316D01*
X1076891Y537239D01*
X1076811Y537159D01*
X1076734Y537076D01*
X1076659Y536990D01*
X1076588Y536902D01*
X1076520Y536812D01*
X1076455Y536719D01*
X1076393Y536624D01*
X1076335Y536527D01*
X1076280Y536428D01*
X1076229Y536327D01*
X1076181Y536224D01*
X1076136Y536120D01*
X1076096Y536014D01*
X1076059Y535907D01*
X1076026Y535799D01*
X1075996Y535689D01*
X1075971Y535579D01*
X1075949Y535468D01*
X1075932Y535356D01*
X1075918Y535243D01*
X1075908Y535130D01*
X1075902Y535017D01*
X1075900Y534904D01*
X1075901Y534904D02*
X1075901Y531658D01*
X1075901Y535553D02*
X1070708Y538149D01*
X1077199Y543014D02*
X1077199Y546909D01*
X1077197Y547008D01*
X1077191Y547108D01*
X1077182Y547207D01*
X1077169Y547305D01*
X1077152Y547403D01*
X1077131Y547501D01*
X1077106Y547597D01*
X1077078Y547692D01*
X1077046Y547786D01*
X1077011Y547879D01*
X1076972Y547971D01*
X1076929Y548061D01*
X1076884Y548149D01*
X1076834Y548236D01*
X1076782Y548320D01*
X1076726Y548403D01*
X1076668Y548483D01*
X1076606Y548561D01*
X1076541Y548636D01*
X1076473Y548709D01*
X1076403Y548779D01*
X1076330Y548847D01*
X1076255Y548912D01*
X1076177Y548974D01*
X1076097Y549032D01*
X1076014Y549088D01*
X1075930Y549140D01*
X1075843Y549190D01*
X1075755Y549235D01*
X1075665Y549278D01*
X1075573Y549317D01*
X1075480Y549352D01*
X1075386Y549384D01*
X1075291Y549412D01*
X1075195Y549437D01*
X1075097Y549458D01*
X1074999Y549475D01*
X1074901Y549488D01*
X1074802Y549497D01*
X1074702Y549503D01*
X1074603Y549505D01*
X1073954Y549505D01*
X1073954Y549506D02*
X1073841Y549504D01*
X1073728Y549498D01*
X1073615Y549488D01*
X1073502Y549474D01*
X1073390Y549457D01*
X1073279Y549435D01*
X1073169Y549410D01*
X1073059Y549380D01*
X1072951Y549347D01*
X1072844Y549310D01*
X1072738Y549270D01*
X1072634Y549225D01*
X1072531Y549177D01*
X1072430Y549126D01*
X1072331Y549071D01*
X1072234Y549013D01*
X1072139Y548951D01*
X1072046Y548886D01*
X1071956Y548818D01*
X1071868Y548747D01*
X1071782Y548672D01*
X1071699Y548595D01*
X1071619Y548515D01*
X1071542Y548432D01*
X1071467Y548346D01*
X1071396Y548258D01*
X1071328Y548168D01*
X1071263Y548075D01*
X1071201Y547980D01*
X1071143Y547883D01*
X1071088Y547784D01*
X1071037Y547683D01*
X1070989Y547580D01*
X1070944Y547476D01*
X1070904Y547370D01*
X1070867Y547263D01*
X1070834Y547155D01*
X1070804Y547045D01*
X1070779Y546935D01*
X1070757Y546824D01*
X1070740Y546712D01*
X1070726Y546599D01*
X1070716Y546486D01*
X1070710Y546373D01*
X1070708Y546260D01*
X1070710Y546147D01*
X1070716Y546034D01*
X1070726Y545921D01*
X1070740Y545808D01*
X1070757Y545696D01*
X1070779Y545585D01*
X1070804Y545475D01*
X1070834Y545365D01*
X1070867Y545257D01*
X1070904Y545150D01*
X1070944Y545044D01*
X1070989Y544940D01*
X1071037Y544837D01*
X1071088Y544736D01*
X1071143Y544637D01*
X1071201Y544540D01*
X1071263Y544445D01*
X1071328Y544352D01*
X1071396Y544262D01*
X1071467Y544174D01*
X1071542Y544088D01*
X1071619Y544005D01*
X1071699Y543925D01*
X1071782Y543848D01*
X1071868Y543773D01*
X1071956Y543702D01*
X1072046Y543634D01*
X1072139Y543569D01*
X1072234Y543507D01*
X1072331Y543449D01*
X1072430Y543394D01*
X1072531Y543343D01*
X1072634Y543295D01*
X1072738Y543250D01*
X1072844Y543210D01*
X1072951Y543173D01*
X1073059Y543140D01*
X1073169Y543110D01*
X1073279Y543085D01*
X1073390Y543063D01*
X1073502Y543046D01*
X1073615Y543032D01*
X1073728Y543022D01*
X1073841Y543016D01*
X1073954Y543014D01*
X1077199Y543014D01*
X1077342Y543016D01*
X1077485Y543022D01*
X1077628Y543032D01*
X1077770Y543046D01*
X1077912Y543063D01*
X1078054Y543085D01*
X1078195Y543110D01*
X1078335Y543140D01*
X1078474Y543173D01*
X1078612Y543210D01*
X1078749Y543251D01*
X1078885Y543295D01*
X1079020Y543344D01*
X1079153Y543396D01*
X1079285Y543451D01*
X1079415Y543511D01*
X1079544Y543574D01*
X1079671Y543640D01*
X1079795Y543710D01*
X1079918Y543783D01*
X1080039Y543860D01*
X1080158Y543940D01*
X1080274Y544023D01*
X1080389Y544109D01*
X1080500Y544198D01*
X1080610Y544291D01*
X1080716Y544386D01*
X1080820Y544485D01*
X1080921Y544586D01*
X1081020Y544690D01*
X1081115Y544796D01*
X1081208Y544906D01*
X1081297Y545017D01*
X1081383Y545132D01*
X1081466Y545248D01*
X1081546Y545367D01*
X1081623Y545488D01*
X1081696Y545610D01*
X1081766Y545735D01*
X1081832Y545862D01*
X1081895Y545991D01*
X1081955Y546121D01*
X1082010Y546253D01*
X1082062Y546386D01*
X1082111Y546521D01*
X1082155Y546657D01*
X1082196Y546794D01*
X1082233Y546932D01*
X1082266Y547071D01*
X1082296Y547211D01*
X1082321Y547352D01*
X1082343Y547494D01*
X1082360Y547636D01*
X1082374Y547778D01*
X1082384Y547921D01*
X1082390Y548064D01*
X1082392Y548207D01*
D12*
X1690000Y110000D02*
X1690000Y10000D01*
X1690000Y110000D02*
X1690000Y510000D01*
X1690000Y610000D01*
X1590000Y610000D01*
X990000Y610000D01*
X840000Y610000D01*
X390000Y610000D01*
X290000Y610000D01*
X290000Y510000D01*
X290000Y110000D01*
X290000Y10000D01*
X390000Y10000D01*
X840000Y10000D01*
X990000Y10000D01*
X1590000Y10000D01*
X1690000Y10000D01*
X1690000Y110000D02*
X1590000Y110000D01*
X1590000Y10000D01*
X1590000Y510000D02*
X1690000Y510000D01*
X1590000Y510000D02*
X1590000Y610000D01*
X990000Y610000D02*
X990000Y510000D01*
X840000Y510000D01*
X840000Y610000D01*
X990000Y110000D02*
X990000Y10000D01*
X990000Y110000D02*
X840000Y110000D01*
X840000Y10000D01*
X390000Y10000D02*
X390000Y110000D01*
X290000Y110000D01*
X390000Y510000D02*
X390000Y610000D01*
X390000Y510000D02*
X290000Y510000D01*
D11*
X221242Y245108D02*
X209558Y245108D01*
X221242Y245108D02*
X221242Y248354D01*
X221240Y248467D01*
X221234Y248580D01*
X221224Y248693D01*
X221210Y248806D01*
X221193Y248918D01*
X221171Y249029D01*
X221146Y249139D01*
X221116Y249249D01*
X221083Y249357D01*
X221046Y249464D01*
X221006Y249570D01*
X220961Y249674D01*
X220913Y249777D01*
X220862Y249878D01*
X220807Y249977D01*
X220749Y250074D01*
X220687Y250169D01*
X220622Y250262D01*
X220554Y250352D01*
X220483Y250440D01*
X220408Y250526D01*
X220331Y250609D01*
X220251Y250689D01*
X220168Y250766D01*
X220082Y250841D01*
X219994Y250912D01*
X219904Y250980D01*
X219811Y251045D01*
X219716Y251107D01*
X219619Y251165D01*
X219520Y251220D01*
X219419Y251271D01*
X219316Y251319D01*
X219212Y251364D01*
X219106Y251404D01*
X218999Y251441D01*
X218891Y251474D01*
X218781Y251504D01*
X218671Y251529D01*
X218560Y251551D01*
X218448Y251568D01*
X218335Y251582D01*
X218222Y251592D01*
X218109Y251598D01*
X217996Y251600D01*
X217883Y251598D01*
X217770Y251592D01*
X217657Y251582D01*
X217544Y251568D01*
X217432Y251551D01*
X217321Y251529D01*
X217211Y251504D01*
X217101Y251474D01*
X216993Y251441D01*
X216886Y251404D01*
X216780Y251364D01*
X216676Y251319D01*
X216573Y251271D01*
X216472Y251220D01*
X216373Y251165D01*
X216276Y251107D01*
X216181Y251045D01*
X216088Y250980D01*
X215998Y250912D01*
X215910Y250841D01*
X215824Y250766D01*
X215741Y250689D01*
X215661Y250609D01*
X215584Y250526D01*
X215509Y250440D01*
X215438Y250352D01*
X215370Y250262D01*
X215305Y250169D01*
X215243Y250074D01*
X215185Y249977D01*
X215130Y249878D01*
X215079Y249777D01*
X215031Y249674D01*
X214986Y249570D01*
X214946Y249464D01*
X214909Y249357D01*
X214876Y249249D01*
X214846Y249139D01*
X214821Y249029D01*
X214799Y248918D01*
X214782Y248806D01*
X214768Y248693D01*
X214758Y248580D01*
X214752Y248467D01*
X214750Y248354D01*
X214751Y248354D02*
X214751Y245108D01*
X214751Y249003D02*
X209558Y251599D01*
X218321Y262955D02*
X218428Y262953D01*
X218534Y262947D01*
X218640Y262937D01*
X218746Y262924D01*
X218852Y262906D01*
X218956Y262885D01*
X219060Y262860D01*
X219163Y262831D01*
X219264Y262799D01*
X219364Y262762D01*
X219463Y262722D01*
X219561Y262679D01*
X219657Y262632D01*
X219751Y262581D01*
X219843Y262527D01*
X219933Y262470D01*
X220021Y262410D01*
X220106Y262346D01*
X220189Y262279D01*
X220270Y262209D01*
X220348Y262137D01*
X220424Y262061D01*
X220496Y261983D01*
X220566Y261902D01*
X220633Y261819D01*
X220697Y261734D01*
X220757Y261646D01*
X220814Y261556D01*
X220868Y261464D01*
X220919Y261370D01*
X220966Y261274D01*
X221009Y261176D01*
X221049Y261077D01*
X221086Y260977D01*
X221118Y260876D01*
X221147Y260773D01*
X221172Y260669D01*
X221193Y260565D01*
X221211Y260459D01*
X221224Y260353D01*
X221234Y260247D01*
X221240Y260141D01*
X221242Y260034D01*
X221240Y259913D01*
X221234Y259792D01*
X221224Y259672D01*
X221211Y259551D01*
X221193Y259432D01*
X221172Y259312D01*
X221147Y259194D01*
X221118Y259077D01*
X221085Y258960D01*
X221049Y258845D01*
X221008Y258731D01*
X220965Y258618D01*
X220917Y258506D01*
X220866Y258397D01*
X220811Y258289D01*
X220753Y258182D01*
X220692Y258078D01*
X220627Y257976D01*
X220559Y257876D01*
X220488Y257778D01*
X220414Y257682D01*
X220337Y257589D01*
X220256Y257499D01*
X220173Y257411D01*
X220087Y257326D01*
X219998Y257243D01*
X219907Y257164D01*
X219813Y257087D01*
X219717Y257014D01*
X219619Y256944D01*
X219518Y256877D01*
X219415Y256813D01*
X219310Y256753D01*
X219203Y256696D01*
X219095Y256642D01*
X218985Y256592D01*
X218873Y256546D01*
X218760Y256503D01*
X218645Y256464D01*
X216049Y261982D02*
X216126Y262061D01*
X216207Y262137D01*
X216290Y262210D01*
X216375Y262280D01*
X216463Y262347D01*
X216553Y262411D01*
X216645Y262471D01*
X216740Y262528D01*
X216836Y262582D01*
X216934Y262633D01*
X217034Y262680D01*
X217136Y262724D01*
X217239Y262764D01*
X217343Y262800D01*
X217449Y262832D01*
X217555Y262861D01*
X217663Y262886D01*
X217771Y262908D01*
X217881Y262925D01*
X217990Y262939D01*
X218100Y262948D01*
X218211Y262954D01*
X218321Y262956D01*
X216049Y261982D02*
X209558Y256464D01*
X209558Y262955D01*
X219944Y267894D02*
X221242Y267894D01*
X221242Y274385D01*
X209558Y271140D01*
X209558Y335108D02*
X221242Y335108D01*
X221242Y338354D01*
X221240Y338467D01*
X221234Y338580D01*
X221224Y338693D01*
X221210Y338806D01*
X221193Y338918D01*
X221171Y339029D01*
X221146Y339139D01*
X221116Y339249D01*
X221083Y339357D01*
X221046Y339464D01*
X221006Y339570D01*
X220961Y339674D01*
X220913Y339777D01*
X220862Y339878D01*
X220807Y339977D01*
X220749Y340074D01*
X220687Y340169D01*
X220622Y340262D01*
X220554Y340352D01*
X220483Y340440D01*
X220408Y340526D01*
X220331Y340609D01*
X220251Y340689D01*
X220168Y340766D01*
X220082Y340841D01*
X219994Y340912D01*
X219904Y340980D01*
X219811Y341045D01*
X219716Y341107D01*
X219619Y341165D01*
X219520Y341220D01*
X219419Y341271D01*
X219316Y341319D01*
X219212Y341364D01*
X219106Y341404D01*
X218999Y341441D01*
X218891Y341474D01*
X218781Y341504D01*
X218671Y341529D01*
X218560Y341551D01*
X218448Y341568D01*
X218335Y341582D01*
X218222Y341592D01*
X218109Y341598D01*
X217996Y341600D01*
X217883Y341598D01*
X217770Y341592D01*
X217657Y341582D01*
X217544Y341568D01*
X217432Y341551D01*
X217321Y341529D01*
X217211Y341504D01*
X217101Y341474D01*
X216993Y341441D01*
X216886Y341404D01*
X216780Y341364D01*
X216676Y341319D01*
X216573Y341271D01*
X216472Y341220D01*
X216373Y341165D01*
X216276Y341107D01*
X216181Y341045D01*
X216088Y340980D01*
X215998Y340912D01*
X215910Y340841D01*
X215824Y340766D01*
X215741Y340689D01*
X215661Y340609D01*
X215584Y340526D01*
X215509Y340440D01*
X215438Y340352D01*
X215370Y340262D01*
X215305Y340169D01*
X215243Y340074D01*
X215185Y339977D01*
X215130Y339878D01*
X215079Y339777D01*
X215031Y339674D01*
X214986Y339570D01*
X214946Y339464D01*
X214909Y339357D01*
X214876Y339249D01*
X214846Y339139D01*
X214821Y339029D01*
X214799Y338918D01*
X214782Y338806D01*
X214768Y338693D01*
X214758Y338580D01*
X214752Y338467D01*
X214750Y338354D01*
X214751Y338354D02*
X214751Y335108D01*
X214751Y339003D02*
X209558Y341599D01*
X219944Y346464D02*
X221242Y346464D01*
X221242Y352955D01*
X209558Y349710D01*
X50442Y367045D02*
X38758Y367045D01*
X50442Y367045D02*
X50442Y370290D01*
X50440Y370403D01*
X50434Y370516D01*
X50424Y370629D01*
X50410Y370742D01*
X50393Y370854D01*
X50371Y370965D01*
X50346Y371075D01*
X50316Y371185D01*
X50283Y371293D01*
X50246Y371400D01*
X50206Y371506D01*
X50161Y371610D01*
X50113Y371713D01*
X50062Y371814D01*
X50007Y371913D01*
X49949Y372010D01*
X49887Y372105D01*
X49822Y372198D01*
X49754Y372288D01*
X49683Y372376D01*
X49608Y372462D01*
X49531Y372545D01*
X49451Y372625D01*
X49368Y372702D01*
X49282Y372777D01*
X49194Y372848D01*
X49104Y372916D01*
X49011Y372981D01*
X48916Y373043D01*
X48819Y373101D01*
X48720Y373156D01*
X48619Y373207D01*
X48516Y373255D01*
X48412Y373300D01*
X48306Y373340D01*
X48199Y373377D01*
X48091Y373410D01*
X47981Y373440D01*
X47871Y373465D01*
X47760Y373487D01*
X47648Y373504D01*
X47535Y373518D01*
X47422Y373528D01*
X47309Y373534D01*
X47196Y373536D01*
X47083Y373534D01*
X46970Y373528D01*
X46857Y373518D01*
X46744Y373504D01*
X46632Y373487D01*
X46521Y373465D01*
X46411Y373440D01*
X46301Y373410D01*
X46193Y373377D01*
X46086Y373340D01*
X45980Y373300D01*
X45876Y373255D01*
X45773Y373207D01*
X45672Y373156D01*
X45573Y373101D01*
X45476Y373043D01*
X45381Y372981D01*
X45288Y372916D01*
X45198Y372848D01*
X45110Y372777D01*
X45024Y372702D01*
X44941Y372625D01*
X44861Y372545D01*
X44784Y372462D01*
X44709Y372376D01*
X44638Y372288D01*
X44570Y372198D01*
X44505Y372105D01*
X44443Y372010D01*
X44385Y371913D01*
X44330Y371814D01*
X44279Y371713D01*
X44231Y371610D01*
X44186Y371506D01*
X44146Y371400D01*
X44109Y371293D01*
X44076Y371185D01*
X44046Y371075D01*
X44021Y370965D01*
X43999Y370854D01*
X43982Y370742D01*
X43968Y370629D01*
X43958Y370516D01*
X43952Y370403D01*
X43950Y370290D01*
X43951Y370290D02*
X43951Y367045D01*
X43951Y370939D02*
X38758Y373536D01*
X43951Y380997D02*
X43951Y384892D01*
X43951Y380997D02*
X43953Y380898D01*
X43959Y380798D01*
X43968Y380699D01*
X43981Y380601D01*
X43998Y380503D01*
X44019Y380405D01*
X44044Y380309D01*
X44072Y380214D01*
X44104Y380120D01*
X44139Y380027D01*
X44178Y379935D01*
X44221Y379845D01*
X44266Y379757D01*
X44316Y379670D01*
X44368Y379586D01*
X44424Y379503D01*
X44482Y379423D01*
X44544Y379345D01*
X44609Y379270D01*
X44677Y379197D01*
X44747Y379127D01*
X44820Y379059D01*
X44895Y378994D01*
X44973Y378932D01*
X45053Y378874D01*
X45136Y378818D01*
X45220Y378766D01*
X45307Y378716D01*
X45395Y378671D01*
X45485Y378628D01*
X45577Y378589D01*
X45670Y378554D01*
X45764Y378522D01*
X45859Y378494D01*
X45955Y378469D01*
X46053Y378448D01*
X46151Y378431D01*
X46249Y378418D01*
X46348Y378409D01*
X46448Y378403D01*
X46547Y378401D01*
X47196Y378401D01*
X47196Y378400D02*
X47309Y378402D01*
X47422Y378408D01*
X47535Y378418D01*
X47648Y378432D01*
X47760Y378449D01*
X47871Y378471D01*
X47981Y378496D01*
X48091Y378526D01*
X48199Y378559D01*
X48306Y378596D01*
X48412Y378636D01*
X48516Y378681D01*
X48619Y378729D01*
X48720Y378780D01*
X48819Y378835D01*
X48916Y378893D01*
X49011Y378955D01*
X49104Y379020D01*
X49194Y379088D01*
X49282Y379159D01*
X49368Y379234D01*
X49451Y379311D01*
X49531Y379391D01*
X49608Y379474D01*
X49683Y379560D01*
X49754Y379648D01*
X49822Y379738D01*
X49887Y379831D01*
X49949Y379926D01*
X50007Y380023D01*
X50062Y380122D01*
X50113Y380223D01*
X50161Y380326D01*
X50206Y380430D01*
X50246Y380536D01*
X50283Y380643D01*
X50316Y380751D01*
X50346Y380861D01*
X50371Y380971D01*
X50393Y381082D01*
X50410Y381194D01*
X50424Y381307D01*
X50434Y381420D01*
X50440Y381533D01*
X50442Y381646D01*
X50440Y381759D01*
X50434Y381872D01*
X50424Y381985D01*
X50410Y382098D01*
X50393Y382210D01*
X50371Y382321D01*
X50346Y382431D01*
X50316Y382541D01*
X50283Y382649D01*
X50246Y382756D01*
X50206Y382862D01*
X50161Y382966D01*
X50113Y383069D01*
X50062Y383170D01*
X50007Y383269D01*
X49949Y383366D01*
X49887Y383461D01*
X49822Y383554D01*
X49754Y383644D01*
X49683Y383732D01*
X49608Y383818D01*
X49531Y383901D01*
X49451Y383981D01*
X49368Y384058D01*
X49282Y384133D01*
X49194Y384204D01*
X49104Y384272D01*
X49011Y384337D01*
X48916Y384399D01*
X48819Y384457D01*
X48720Y384512D01*
X48619Y384563D01*
X48516Y384611D01*
X48412Y384656D01*
X48306Y384696D01*
X48199Y384733D01*
X48091Y384766D01*
X47981Y384796D01*
X47871Y384821D01*
X47760Y384843D01*
X47648Y384860D01*
X47535Y384874D01*
X47422Y384884D01*
X47309Y384890D01*
X47196Y384892D01*
X43951Y384892D01*
X43808Y384890D01*
X43665Y384884D01*
X43522Y384874D01*
X43380Y384860D01*
X43238Y384843D01*
X43096Y384821D01*
X42955Y384796D01*
X42815Y384766D01*
X42676Y384733D01*
X42538Y384696D01*
X42401Y384655D01*
X42265Y384611D01*
X42130Y384562D01*
X41997Y384510D01*
X41865Y384455D01*
X41735Y384395D01*
X41606Y384332D01*
X41479Y384266D01*
X41355Y384196D01*
X41232Y384123D01*
X41111Y384046D01*
X40992Y383966D01*
X40876Y383883D01*
X40761Y383797D01*
X40650Y383708D01*
X40540Y383615D01*
X40434Y383520D01*
X40330Y383421D01*
X40229Y383320D01*
X40130Y383216D01*
X40035Y383110D01*
X39942Y383000D01*
X39853Y382889D01*
X39767Y382774D01*
X39684Y382658D01*
X39604Y382539D01*
X39527Y382418D01*
X39454Y382296D01*
X39384Y382171D01*
X39318Y382044D01*
X39255Y381915D01*
X39195Y381785D01*
X39140Y381653D01*
X39088Y381520D01*
X39039Y381385D01*
X38995Y381249D01*
X38954Y381112D01*
X38917Y380974D01*
X38884Y380835D01*
X38854Y380695D01*
X38829Y380554D01*
X38807Y380412D01*
X38790Y380270D01*
X38776Y380128D01*
X38766Y379985D01*
X38760Y379842D01*
X38758Y379699D01*
X38758Y265615D02*
X50442Y265615D01*
X50442Y268860D01*
X50440Y268973D01*
X50434Y269086D01*
X50424Y269199D01*
X50410Y269312D01*
X50393Y269424D01*
X50371Y269535D01*
X50346Y269645D01*
X50316Y269755D01*
X50283Y269863D01*
X50246Y269970D01*
X50206Y270076D01*
X50161Y270180D01*
X50113Y270283D01*
X50062Y270384D01*
X50007Y270483D01*
X49949Y270580D01*
X49887Y270675D01*
X49822Y270768D01*
X49754Y270858D01*
X49683Y270946D01*
X49608Y271032D01*
X49531Y271115D01*
X49451Y271195D01*
X49368Y271272D01*
X49282Y271347D01*
X49194Y271418D01*
X49104Y271486D01*
X49011Y271551D01*
X48916Y271613D01*
X48819Y271671D01*
X48720Y271726D01*
X48619Y271777D01*
X48516Y271825D01*
X48412Y271870D01*
X48306Y271910D01*
X48199Y271947D01*
X48091Y271980D01*
X47981Y272010D01*
X47871Y272035D01*
X47760Y272057D01*
X47648Y272074D01*
X47535Y272088D01*
X47422Y272098D01*
X47309Y272104D01*
X47196Y272106D01*
X47083Y272104D01*
X46970Y272098D01*
X46857Y272088D01*
X46744Y272074D01*
X46632Y272057D01*
X46521Y272035D01*
X46411Y272010D01*
X46301Y271980D01*
X46193Y271947D01*
X46086Y271910D01*
X45980Y271870D01*
X45876Y271825D01*
X45773Y271777D01*
X45672Y271726D01*
X45573Y271671D01*
X45476Y271613D01*
X45381Y271551D01*
X45288Y271486D01*
X45198Y271418D01*
X45110Y271347D01*
X45024Y271272D01*
X44941Y271195D01*
X44861Y271115D01*
X44784Y271032D01*
X44709Y270946D01*
X44638Y270858D01*
X44570Y270768D01*
X44505Y270675D01*
X44443Y270580D01*
X44385Y270483D01*
X44330Y270384D01*
X44279Y270283D01*
X44231Y270180D01*
X44186Y270076D01*
X44146Y269970D01*
X44109Y269863D01*
X44076Y269755D01*
X44046Y269645D01*
X44021Y269535D01*
X43999Y269424D01*
X43982Y269312D01*
X43968Y269199D01*
X43958Y269086D01*
X43952Y268973D01*
X43950Y268860D01*
X43951Y268860D02*
X43951Y265615D01*
X43951Y269509D02*
X38758Y272106D01*
X47846Y276971D02*
X50442Y280216D01*
X38758Y280216D01*
X38758Y276971D02*
X38758Y283462D01*
X44600Y288401D02*
X44830Y288404D01*
X45060Y288412D01*
X45289Y288426D01*
X45518Y288445D01*
X45747Y288470D01*
X45974Y288500D01*
X46202Y288535D01*
X46428Y288576D01*
X46653Y288622D01*
X46877Y288674D01*
X47099Y288731D01*
X47321Y288793D01*
X47540Y288861D01*
X47758Y288934D01*
X47975Y289012D01*
X48189Y289095D01*
X48401Y289183D01*
X48611Y289276D01*
X48819Y289375D01*
X48819Y289374D02*
X48909Y289407D01*
X48998Y289443D01*
X49086Y289483D01*
X49171Y289527D01*
X49255Y289574D01*
X49337Y289624D01*
X49417Y289678D01*
X49494Y289734D01*
X49570Y289794D01*
X49643Y289857D01*
X49713Y289922D01*
X49781Y289991D01*
X49845Y290062D01*
X49907Y290135D01*
X49966Y290211D01*
X50022Y290289D01*
X50075Y290370D01*
X50124Y290452D01*
X50170Y290536D01*
X50213Y290623D01*
X50252Y290710D01*
X50288Y290800D01*
X50320Y290890D01*
X50348Y290982D01*
X50373Y291075D01*
X50394Y291169D01*
X50411Y291263D01*
X50425Y291358D01*
X50434Y291454D01*
X50440Y291550D01*
X50442Y291646D01*
X50440Y291742D01*
X50434Y291838D01*
X50425Y291934D01*
X50411Y292029D01*
X50394Y292123D01*
X50373Y292217D01*
X50348Y292310D01*
X50320Y292402D01*
X50288Y292492D01*
X50252Y292582D01*
X50213Y292669D01*
X50170Y292756D01*
X50124Y292840D01*
X50075Y292922D01*
X50022Y293003D01*
X49966Y293081D01*
X49907Y293157D01*
X49845Y293230D01*
X49781Y293301D01*
X49713Y293370D01*
X49643Y293435D01*
X49570Y293498D01*
X49494Y293558D01*
X49417Y293614D01*
X49337Y293668D01*
X49255Y293718D01*
X49171Y293765D01*
X49086Y293809D01*
X48998Y293849D01*
X48909Y293885D01*
X48819Y293918D01*
X48819Y293919D02*
X48612Y294018D01*
X48402Y294111D01*
X48189Y294199D01*
X47975Y294282D01*
X47759Y294360D01*
X47541Y294433D01*
X47321Y294501D01*
X47100Y294563D01*
X46877Y294620D01*
X46653Y294672D01*
X46428Y294718D01*
X46202Y294759D01*
X45975Y294794D01*
X45747Y294824D01*
X45518Y294849D01*
X45289Y294868D01*
X45060Y294882D01*
X44830Y294890D01*
X44600Y294893D01*
X44600Y288401D02*
X44370Y288404D01*
X44140Y288412D01*
X43911Y288426D01*
X43682Y288445D01*
X43453Y288470D01*
X43225Y288500D01*
X42998Y288535D01*
X42772Y288576D01*
X42547Y288622D01*
X42323Y288674D01*
X42100Y288731D01*
X41879Y288793D01*
X41659Y288861D01*
X41441Y288934D01*
X41225Y289012D01*
X41011Y289095D01*
X40799Y289183D01*
X40588Y289276D01*
X40381Y289375D01*
X40381Y289374D02*
X40291Y289407D01*
X40202Y289443D01*
X40114Y289484D01*
X40029Y289527D01*
X39945Y289574D01*
X39863Y289624D01*
X39783Y289678D01*
X39706Y289734D01*
X39630Y289794D01*
X39557Y289857D01*
X39487Y289922D01*
X39419Y289991D01*
X39355Y290062D01*
X39293Y290135D01*
X39234Y290211D01*
X39178Y290289D01*
X39125Y290370D01*
X39076Y290452D01*
X39030Y290536D01*
X38987Y290623D01*
X38948Y290710D01*
X38912Y290800D01*
X38880Y290890D01*
X38852Y290982D01*
X38827Y291075D01*
X38806Y291169D01*
X38789Y291263D01*
X38775Y291358D01*
X38766Y291454D01*
X38760Y291550D01*
X38758Y291646D01*
X40381Y293918D02*
X40588Y294017D01*
X40799Y294110D01*
X41011Y294198D01*
X41225Y294281D01*
X41441Y294359D01*
X41659Y294432D01*
X41879Y294500D01*
X42100Y294562D01*
X42323Y294619D01*
X42547Y294671D01*
X42772Y294717D01*
X42998Y294758D01*
X43225Y294793D01*
X43453Y294823D01*
X43682Y294848D01*
X43911Y294867D01*
X44140Y294881D01*
X44370Y294889D01*
X44600Y294892D01*
X40381Y293918D02*
X40291Y293885D01*
X40202Y293849D01*
X40114Y293809D01*
X40029Y293765D01*
X39945Y293718D01*
X39863Y293668D01*
X39783Y293614D01*
X39706Y293558D01*
X39630Y293498D01*
X39557Y293435D01*
X39487Y293370D01*
X39419Y293301D01*
X39355Y293230D01*
X39293Y293157D01*
X39234Y293081D01*
X39178Y293003D01*
X39125Y292922D01*
X39076Y292840D01*
X39030Y292756D01*
X38987Y292669D01*
X38948Y292582D01*
X38912Y292492D01*
X38880Y292402D01*
X38852Y292310D01*
X38827Y292217D01*
X38806Y292123D01*
X38789Y292029D01*
X38775Y291934D01*
X38766Y291838D01*
X38760Y291742D01*
X38758Y291646D01*
X41354Y289050D02*
X47846Y294243D01*
M02*
