G04 EAGLE Gerber RS-274X export*
G75*
%MOMM*%
%FSLAX34Y34*%
%LPD*%
%INSoldermask Top*%
%IPPOS*%
%AMOC8*
5,1,8,0,0,1.08239X$1,22.5*%
G01*
%ADD10R,1.603200X1.203200*%
%ADD11R,1.703200X1.503200*%
%ADD12R,0.753200X1.403200*%
%ADD13R,1.503200X1.703200*%
%ADD14R,3.353200X12.703200*%
%ADD15R,10.203200X3.053200*%
%ADD16R,7.433200X5.803200*%
%ADD17C,4.203200*%
%ADD18C,3.352800*%
%ADD19P,3.629037X8X292.500000*%
%ADD20R,0.923200X0.613200*%
%ADD21R,4.267200X5.791200*%
%ADD22R,1.403200X1.403200*%
%ADD23C,2.483200*%
%ADD24C,3.248200*%
%ADD25R,2.603200X2.603200*%
%ADD26C,1.524000*%
%ADD27R,2.003200X2.903200*%
%ADD28R,2.303200X2.303200*%
%ADD29C,3.203200*%
%ADD30C,3.378200*%
%ADD31R,3.060700X3.060700*%
%ADD32R,1.778200X1.778200*%
%ADD33C,1.453200*%
%ADD34C,4.403200*%
%ADD35R,2.153200X2.153200*%
%ADD36C,0.959600*%


D10*
X1166500Y564500D03*
X1166500Y583500D03*
X1144500Y574000D03*
D11*
X1195500Y583500D03*
X1195500Y564500D03*
D12*
X1243000Y596250D03*
X1233500Y596250D03*
X1224000Y596250D03*
X1224000Y570250D03*
X1243000Y570250D03*
D13*
X1217500Y536000D03*
X1236500Y536000D03*
D14*
X158250Y457500D03*
X311750Y457500D03*
D15*
X295000Y334250D03*
X295000Y255750D03*
X185000Y334250D03*
X185000Y255750D03*
D16*
X82500Y325000D03*
X82500Y430000D03*
D17*
X169200Y577500D03*
X270800Y577500D03*
D18*
X1065000Y393100D03*
D19*
X1065000Y316900D03*
D13*
X1181500Y535500D03*
X1162500Y535500D03*
X1159500Y497000D03*
X1178500Y497000D03*
D20*
X1170350Y324050D03*
X1170350Y311350D03*
X1170350Y298650D03*
X1170350Y285950D03*
D21*
X1208300Y305000D03*
D20*
X1170350Y391550D03*
X1170350Y378850D03*
X1170350Y366150D03*
X1170350Y353450D03*
D21*
X1208300Y372500D03*
D20*
X1170350Y459050D03*
X1170350Y446350D03*
X1170350Y433650D03*
X1170350Y420950D03*
D21*
X1208300Y440000D03*
D22*
X1220000Y515500D03*
X1220000Y494500D03*
D23*
X378100Y316200D03*
X378100Y288700D03*
D24*
X378100Y410000D03*
X378100Y250000D03*
X841900Y412500D03*
X841900Y302500D03*
X841900Y357500D03*
X841900Y247500D03*
D23*
X378100Y343800D03*
D22*
X1120500Y580000D03*
X1099500Y580000D03*
D25*
X1310000Y274000D03*
X1310000Y240000D03*
X1409400Y274000D03*
X1409200Y240000D03*
X1310000Y344000D03*
X1310000Y310000D03*
X1409400Y344000D03*
X1409200Y310000D03*
X1320000Y499000D03*
X1320000Y465000D03*
X1419400Y499000D03*
X1419200Y465000D03*
X1320000Y569000D03*
X1320000Y535000D03*
X1419400Y569000D03*
X1419200Y535000D03*
D26*
X481900Y47700D02*
X468692Y47700D01*
X468692Y22300D02*
X481900Y22300D01*
X558100Y22300D02*
X571308Y22300D01*
X571308Y47700D02*
X558100Y47700D01*
D27*
X449500Y67500D03*
X405500Y67500D03*
D22*
X1070500Y580000D03*
X1049500Y580000D03*
D28*
X1526000Y457500D03*
X1568000Y457500D03*
X1610000Y457500D03*
X1652000Y457500D03*
X1694000Y457500D03*
X1652000Y402500D03*
X1694000Y402500D03*
X1610000Y402500D03*
X1568000Y402500D03*
X1526000Y402500D03*
X194000Y127900D03*
X152000Y127900D03*
X110000Y127900D03*
X68000Y127900D03*
X26000Y127900D03*
X68000Y182900D03*
X26000Y182900D03*
X110000Y182900D03*
X152000Y182900D03*
X194000Y182900D03*
D29*
X194000Y54900D03*
X26000Y54900D03*
D28*
X1694000Y127900D03*
X1652000Y127900D03*
X1610000Y127900D03*
X1568000Y127900D03*
X1526000Y127900D03*
X1568000Y182900D03*
X1526000Y182900D03*
X1610000Y182900D03*
X1652000Y182900D03*
X1694000Y182900D03*
D29*
X1694000Y54900D03*
X1526000Y54900D03*
D30*
X455408Y469700D03*
X455408Y190300D03*
X784592Y469700D03*
X784592Y190300D03*
D31*
X30000Y586200D03*
X106200Y586200D03*
X106200Y535400D03*
X30000Y535400D03*
X1490000Y586200D03*
X1566200Y586200D03*
X1566200Y535400D03*
X1490000Y535400D03*
D32*
X1240000Y70000D03*
X1265400Y70000D03*
X1290800Y70000D03*
X1316200Y70000D03*
D33*
X1265400Y48400D03*
D34*
X1640000Y60000D03*
X1640000Y560000D03*
X907500Y560000D03*
X907500Y60000D03*
X340000Y560000D03*
X340000Y60000D03*
D35*
X30000Y260000D03*
X30000Y419000D03*
X30000Y306000D03*
X30000Y465000D03*
D22*
X289500Y92500D03*
X310500Y92500D03*
D13*
X240500Y92500D03*
X259500Y92500D03*
D36*
X1150000Y600000D03*
X1200000Y540000D03*
X1240000Y610000D03*
X1280000Y580000D03*
X1240000Y500000D03*
X1110000Y600000D03*
X1080000Y560000D03*
X1050000Y602700D03*
M02*
