M48
;GenerationSoftware,Autodesk,EAGLE,9.5.1*%
;CreationDate,2019-12-12T01:50:22Z*%
FMAT,2
ICI,OFF
METRIC,TZ,000.000
T12C0.350
T11C0.600
T10C0.813
T9C0.900
T8C1.118
T7C1.300
T6C1.400
T5C1.600
T4C3.000
T3C3.300
T2C3.600
T1C5.080
%
G90
M71
T1
X10000Y137200
X10000Y88940
X10000Y170220
X10000Y55920
T2
X80910Y72700
X80910Y42700
X55910Y72700
X178430Y72750
X55910Y42700
X178430Y42750
X153430Y72750
X153430Y42750
T3
X105000Y20000
X180000Y3500
X95000Y165000
X15000Y20000
X25500Y138000
X178000Y146000
T4
X43310Y151900
X43310Y178100
X43310Y1900
X116690Y1900
X160310Y151900
X160310Y178100
X160310Y82900
X116690Y151900
X116690Y178100
X191190Y1900
X191190Y28100
X191190Y151900
X191190Y178100
X43310Y28100
X116690Y28100
X160310Y109100
T5
X72940Y22900
X63000Y19500
X63000Y22900
X159920Y17500
X159940Y20900
X150000Y20900
X150080Y28000
X150060Y24600
X160000Y28000
X150000Y17500
X160000Y24600
X72920Y19500
X170900Y97000
X167500Y97000
X170900Y87060
X167500Y87080
T6
X37250Y173400
X42750Y169200
X42750Y173400
X42750Y165000
X42750Y160800
X42750Y156600
X37250Y6600
X37250Y10800
X37250Y15000
X37250Y19200
X37250Y23400
X42750Y19200
X42750Y23400
X42750Y10800
X42750Y6600
X197250Y173400
X197250Y169200
X197250Y165000
X197250Y160800
X197250Y156600
X191750Y160800
X191750Y156600
X191750Y165000
X191750Y169200
X191750Y173400
X197250Y23400
X197250Y19200
X197250Y15000
X197250Y10800
X197250Y6600
X191750Y10800
X191750Y6600
X191750Y15000
X191750Y19200
X191750Y23400
X122750Y173400
X122750Y169200
X122750Y165000
X122750Y160800
X122750Y156600
X117250Y160800
X117250Y156600
X117250Y165000
X117250Y169200
X117250Y173400
X122750Y23400
X122750Y19200
X122750Y15000
X122750Y10800
X122750Y6600
X117250Y10800
X117250Y6600
X117250Y15000
X117250Y19200
X117250Y23400
X154250Y156600
X154250Y160800
X154250Y165000
X154250Y169200
X154250Y173400
X159750Y169200
X159750Y173400
X159750Y165000
X159750Y160800
X159750Y156600
X154250Y87600
X154250Y91800
X154250Y96000
X154250Y100200
X154250Y104400
X159750Y100200
X159750Y104400
X159750Y96000
X159750Y91800
X159750Y87600
X54900Y12250
X59100Y12250
X63300Y12250
X67500Y12250
X71700Y12250
X75900Y12250
X80100Y12250
X84300Y12250
X88500Y12250
X92700Y12250
X96900Y12250
X54900Y6750
X59100Y6750
X63300Y6750
X67500Y6750
X71700Y6750
X75900Y6750
X80100Y6750
X84300Y6750
X88500Y6750
X92700Y6750
X101100Y12250
X96900Y6750
X101100Y6750
X98250Y147600
X98250Y143400
X92750Y143400
X92750Y147600
X147600Y12750
X151800Y12750
X156000Y12750
X160200Y12750
X164400Y12750
X160200Y7250
X164400Y7250
X156000Y7250
X151800Y7250
X147600Y7250
X42750Y15000
X139100Y154750
X134900Y154750
X134900Y160250
X139100Y160250
X37250Y156600
X37250Y160800
X37250Y165000
X37250Y169200
T7
X105000Y60450
X112600Y65450
X112600Y53950
X105000Y53950
X112600Y60450
X112600Y48950
X105000Y48950
X98600Y83500
X91000Y83500
X91000Y65450
X91000Y53950
X91000Y60450
X98600Y53950
X98600Y65450
X91000Y48950
X84500Y126500
X68600Y126500
X79900Y126500
X64000Y126500
X63500Y141500
X79400Y141500
X68100Y141500
X84000Y141500
X98600Y48950
X98600Y60450
X112600Y83500
X105000Y83500
X105000Y65450
T8
X145000Y147920
X145000Y158080
X133580Y135500
X123420Y135500
X123420Y132500
X133580Y132500
X148500Y147920
X148500Y158080
T9
X183700Y31800
X174450Y13000
X169750Y13000
X174450Y31800
X174450Y24500
X179000Y13000
X183700Y13000
X183700Y24500
T10
X111230Y34500
X176770Y137000
X111230Y37040
X111230Y31960
X86270Y32960
X86270Y38040
X86270Y35500
X174230Y137000
T11
X105080Y34830
X95500Y42750
X90420Y42750
X95500Y37670
X95500Y32590
X95500Y30050
X90420Y30050
X105080Y37370
X90420Y37670
X90420Y35130
X100000Y37370
X100000Y39910
X100000Y42450
X105080Y42450
X95500Y35130
X100000Y29750
X105080Y29750
X100000Y34830
X105080Y39910
X90420Y32590
T12
X102500Y25000
X82000Y22000
X58500Y34500
X92500Y24500
X86500Y28500
X52000Y33500
X92000Y26500
X47000Y33500
X168500Y104500
X101500Y27500
X173500Y10000
M30