G04 EAGLE Gerber RS-274X export*
G75*
%MOMM*%
%FSLAX34Y34*%
%LPD*%
%INSilkscreen Bottom*%
%IPPOS*%
%AMOC8*
5,1,8,0,0,1.08239X$1,22.5*%
G01*
%ADD10C,0.101600*%
%ADD11C,0.152400*%


D10*
X1708342Y1047392D02*
X1708342Y1035708D01*
X1703149Y1035708D01*
X1698436Y1035708D02*
X1693243Y1035708D01*
X1698436Y1035708D02*
X1698436Y1047392D01*
X1693243Y1047392D01*
X1694541Y1042199D02*
X1698436Y1042199D01*
X1688553Y1047392D02*
X1688553Y1035708D01*
X1688553Y1047392D02*
X1685307Y1047392D01*
X1685194Y1047390D01*
X1685081Y1047384D01*
X1684968Y1047374D01*
X1684855Y1047360D01*
X1684743Y1047343D01*
X1684632Y1047321D01*
X1684522Y1047296D01*
X1684412Y1047266D01*
X1684304Y1047233D01*
X1684197Y1047196D01*
X1684091Y1047156D01*
X1683987Y1047111D01*
X1683884Y1047063D01*
X1683783Y1047012D01*
X1683684Y1046957D01*
X1683587Y1046899D01*
X1683492Y1046837D01*
X1683399Y1046772D01*
X1683309Y1046704D01*
X1683221Y1046633D01*
X1683135Y1046558D01*
X1683052Y1046481D01*
X1682972Y1046401D01*
X1682895Y1046318D01*
X1682820Y1046232D01*
X1682749Y1046144D01*
X1682681Y1046054D01*
X1682616Y1045961D01*
X1682554Y1045866D01*
X1682496Y1045769D01*
X1682441Y1045670D01*
X1682390Y1045569D01*
X1682342Y1045466D01*
X1682297Y1045362D01*
X1682257Y1045256D01*
X1682220Y1045149D01*
X1682187Y1045041D01*
X1682157Y1044931D01*
X1682132Y1044821D01*
X1682110Y1044710D01*
X1682093Y1044598D01*
X1682079Y1044485D01*
X1682069Y1044372D01*
X1682063Y1044259D01*
X1682061Y1044146D01*
X1682062Y1044146D02*
X1682062Y1038954D01*
X1682061Y1038954D02*
X1682063Y1038841D01*
X1682069Y1038728D01*
X1682079Y1038615D01*
X1682093Y1038502D01*
X1682110Y1038390D01*
X1682132Y1038279D01*
X1682157Y1038169D01*
X1682187Y1038059D01*
X1682220Y1037951D01*
X1682257Y1037844D01*
X1682297Y1037738D01*
X1682342Y1037634D01*
X1682390Y1037531D01*
X1682441Y1037430D01*
X1682496Y1037331D01*
X1682554Y1037234D01*
X1682616Y1037139D01*
X1682681Y1037046D01*
X1682749Y1036956D01*
X1682820Y1036868D01*
X1682895Y1036782D01*
X1682972Y1036699D01*
X1683052Y1036619D01*
X1683135Y1036542D01*
X1683221Y1036467D01*
X1683309Y1036396D01*
X1683399Y1036328D01*
X1683492Y1036263D01*
X1683587Y1036201D01*
X1683684Y1036143D01*
X1683783Y1036088D01*
X1683884Y1036037D01*
X1683987Y1035989D01*
X1684091Y1035944D01*
X1684197Y1035904D01*
X1684304Y1035867D01*
X1684412Y1035834D01*
X1684522Y1035804D01*
X1684632Y1035779D01*
X1684743Y1035757D01*
X1684855Y1035740D01*
X1684968Y1035726D01*
X1685081Y1035716D01*
X1685194Y1035710D01*
X1685307Y1035708D01*
X1688553Y1035708D01*
X1677236Y1034410D02*
X1672043Y1034410D01*
X1667143Y1035708D02*
X1667143Y1047392D01*
X1663897Y1047392D01*
X1663784Y1047390D01*
X1663671Y1047384D01*
X1663558Y1047374D01*
X1663445Y1047360D01*
X1663333Y1047343D01*
X1663222Y1047321D01*
X1663112Y1047296D01*
X1663002Y1047266D01*
X1662894Y1047233D01*
X1662787Y1047196D01*
X1662681Y1047156D01*
X1662577Y1047111D01*
X1662474Y1047063D01*
X1662373Y1047012D01*
X1662274Y1046957D01*
X1662177Y1046899D01*
X1662082Y1046837D01*
X1661989Y1046772D01*
X1661899Y1046704D01*
X1661811Y1046633D01*
X1661725Y1046558D01*
X1661642Y1046481D01*
X1661562Y1046401D01*
X1661485Y1046318D01*
X1661410Y1046232D01*
X1661339Y1046144D01*
X1661271Y1046054D01*
X1661206Y1045961D01*
X1661144Y1045866D01*
X1661086Y1045769D01*
X1661031Y1045670D01*
X1660980Y1045569D01*
X1660932Y1045466D01*
X1660887Y1045362D01*
X1660847Y1045256D01*
X1660810Y1045149D01*
X1660777Y1045041D01*
X1660747Y1044931D01*
X1660722Y1044821D01*
X1660700Y1044710D01*
X1660683Y1044598D01*
X1660669Y1044485D01*
X1660659Y1044372D01*
X1660653Y1044259D01*
X1660651Y1044146D01*
X1660653Y1044033D01*
X1660659Y1043920D01*
X1660669Y1043807D01*
X1660683Y1043694D01*
X1660700Y1043582D01*
X1660722Y1043471D01*
X1660747Y1043361D01*
X1660777Y1043251D01*
X1660810Y1043143D01*
X1660847Y1043036D01*
X1660887Y1042930D01*
X1660932Y1042826D01*
X1660980Y1042723D01*
X1661031Y1042622D01*
X1661086Y1042523D01*
X1661144Y1042426D01*
X1661206Y1042331D01*
X1661271Y1042238D01*
X1661339Y1042148D01*
X1661410Y1042060D01*
X1661485Y1041974D01*
X1661562Y1041891D01*
X1661642Y1041811D01*
X1661725Y1041734D01*
X1661811Y1041659D01*
X1661899Y1041588D01*
X1661989Y1041520D01*
X1662082Y1041455D01*
X1662177Y1041393D01*
X1662274Y1041335D01*
X1662373Y1041280D01*
X1662474Y1041229D01*
X1662577Y1041181D01*
X1662681Y1041136D01*
X1662787Y1041096D01*
X1662894Y1041059D01*
X1663002Y1041026D01*
X1663112Y1040996D01*
X1663222Y1040971D01*
X1663333Y1040949D01*
X1663445Y1040932D01*
X1663558Y1040918D01*
X1663671Y1040908D01*
X1663784Y1040902D01*
X1663897Y1040900D01*
X1663897Y1040901D02*
X1667143Y1040901D01*
X1663248Y1040901D02*
X1660652Y1035708D01*
X1655787Y1044796D02*
X1652541Y1047392D01*
X1652541Y1035708D01*
X1649296Y1035708D02*
X1655787Y1035708D01*
D11*
X1677500Y110000D02*
X1767500Y110000D01*
X1677500Y110000D02*
X1677500Y340000D01*
X1767500Y340000D01*
X1767500Y110000D01*
D10*
X1182192Y338208D02*
X1182192Y349892D01*
X1178946Y349892D01*
X1178833Y349890D01*
X1178720Y349884D01*
X1178607Y349874D01*
X1178494Y349860D01*
X1178382Y349843D01*
X1178271Y349821D01*
X1178161Y349796D01*
X1178051Y349766D01*
X1177943Y349733D01*
X1177836Y349696D01*
X1177730Y349656D01*
X1177626Y349611D01*
X1177523Y349563D01*
X1177422Y349512D01*
X1177323Y349457D01*
X1177226Y349399D01*
X1177131Y349337D01*
X1177038Y349272D01*
X1176948Y349204D01*
X1176860Y349133D01*
X1176774Y349058D01*
X1176691Y348981D01*
X1176611Y348901D01*
X1176534Y348818D01*
X1176459Y348732D01*
X1176388Y348644D01*
X1176320Y348554D01*
X1176255Y348461D01*
X1176193Y348366D01*
X1176135Y348269D01*
X1176080Y348170D01*
X1176029Y348069D01*
X1175981Y347966D01*
X1175936Y347862D01*
X1175896Y347756D01*
X1175859Y347649D01*
X1175826Y347541D01*
X1175796Y347431D01*
X1175771Y347321D01*
X1175749Y347210D01*
X1175732Y347098D01*
X1175718Y346985D01*
X1175708Y346872D01*
X1175702Y346759D01*
X1175700Y346646D01*
X1175702Y346533D01*
X1175708Y346420D01*
X1175718Y346307D01*
X1175732Y346194D01*
X1175749Y346082D01*
X1175771Y345971D01*
X1175796Y345861D01*
X1175826Y345751D01*
X1175859Y345643D01*
X1175896Y345536D01*
X1175936Y345430D01*
X1175981Y345326D01*
X1176029Y345223D01*
X1176080Y345122D01*
X1176135Y345023D01*
X1176193Y344926D01*
X1176255Y344831D01*
X1176320Y344738D01*
X1176388Y344648D01*
X1176459Y344560D01*
X1176534Y344474D01*
X1176611Y344391D01*
X1176691Y344311D01*
X1176774Y344234D01*
X1176860Y344159D01*
X1176948Y344088D01*
X1177038Y344020D01*
X1177131Y343955D01*
X1177226Y343893D01*
X1177323Y343835D01*
X1177422Y343780D01*
X1177523Y343729D01*
X1177626Y343681D01*
X1177730Y343636D01*
X1177836Y343596D01*
X1177943Y343559D01*
X1178051Y343526D01*
X1178161Y343496D01*
X1178271Y343471D01*
X1178382Y343449D01*
X1178494Y343432D01*
X1178607Y343418D01*
X1178720Y343408D01*
X1178833Y343402D01*
X1178946Y343400D01*
X1178946Y343401D02*
X1182192Y343401D01*
X1178297Y343401D02*
X1175701Y338208D01*
X1170836Y347296D02*
X1167590Y349892D01*
X1167590Y338208D01*
X1164345Y338208D02*
X1170836Y338208D01*
X1159406Y344050D02*
X1159403Y344280D01*
X1159395Y344510D01*
X1159381Y344739D01*
X1159362Y344968D01*
X1159337Y345197D01*
X1159307Y345425D01*
X1159272Y345652D01*
X1159231Y345878D01*
X1159185Y346103D01*
X1159133Y346327D01*
X1159076Y346550D01*
X1159014Y346771D01*
X1158946Y346991D01*
X1158873Y347209D01*
X1158795Y347425D01*
X1158712Y347639D01*
X1158624Y347852D01*
X1158531Y348062D01*
X1158432Y348269D01*
X1158399Y348359D01*
X1158363Y348448D01*
X1158323Y348536D01*
X1158279Y348621D01*
X1158232Y348705D01*
X1158182Y348787D01*
X1158128Y348867D01*
X1158072Y348944D01*
X1158012Y349020D01*
X1157949Y349093D01*
X1157884Y349163D01*
X1157815Y349231D01*
X1157744Y349295D01*
X1157671Y349357D01*
X1157595Y349416D01*
X1157517Y349472D01*
X1157436Y349525D01*
X1157354Y349574D01*
X1157270Y349620D01*
X1157183Y349663D01*
X1157096Y349702D01*
X1157006Y349738D01*
X1156916Y349770D01*
X1156824Y349798D01*
X1156731Y349823D01*
X1156637Y349844D01*
X1156543Y349861D01*
X1156448Y349875D01*
X1156352Y349884D01*
X1156256Y349890D01*
X1156160Y349892D01*
X1156064Y349890D01*
X1155968Y349884D01*
X1155872Y349875D01*
X1155777Y349861D01*
X1155683Y349844D01*
X1155589Y349823D01*
X1155496Y349798D01*
X1155404Y349770D01*
X1155314Y349738D01*
X1155224Y349702D01*
X1155137Y349663D01*
X1155050Y349620D01*
X1154966Y349574D01*
X1154884Y349525D01*
X1154803Y349472D01*
X1154725Y349416D01*
X1154649Y349357D01*
X1154576Y349295D01*
X1154505Y349231D01*
X1154436Y349163D01*
X1154371Y349093D01*
X1154308Y349020D01*
X1154248Y348945D01*
X1154192Y348867D01*
X1154138Y348787D01*
X1154088Y348705D01*
X1154041Y348621D01*
X1153998Y348536D01*
X1153957Y348448D01*
X1153921Y348359D01*
X1153888Y348269D01*
X1153889Y348269D02*
X1153790Y348061D01*
X1153697Y347851D01*
X1153609Y347639D01*
X1153526Y347425D01*
X1153448Y347208D01*
X1153375Y346990D01*
X1153307Y346771D01*
X1153245Y346549D01*
X1153188Y346327D01*
X1153136Y346103D01*
X1153090Y345878D01*
X1153049Y345652D01*
X1153014Y345424D01*
X1152984Y345197D01*
X1152959Y344968D01*
X1152940Y344739D01*
X1152926Y344510D01*
X1152918Y344280D01*
X1152915Y344050D01*
X1159406Y344050D02*
X1159403Y343820D01*
X1159395Y343590D01*
X1159381Y343361D01*
X1159362Y343132D01*
X1159337Y342903D01*
X1159307Y342675D01*
X1159272Y342448D01*
X1159231Y342222D01*
X1159185Y341997D01*
X1159133Y341773D01*
X1159076Y341550D01*
X1159014Y341329D01*
X1158946Y341109D01*
X1158873Y340891D01*
X1158795Y340675D01*
X1158712Y340461D01*
X1158624Y340249D01*
X1158531Y340038D01*
X1158432Y339831D01*
X1158399Y339741D01*
X1158363Y339652D01*
X1158322Y339564D01*
X1158279Y339479D01*
X1158232Y339395D01*
X1158182Y339313D01*
X1158128Y339233D01*
X1158072Y339156D01*
X1158012Y339080D01*
X1157949Y339007D01*
X1157884Y338937D01*
X1157815Y338869D01*
X1157744Y338805D01*
X1157671Y338743D01*
X1157595Y338684D01*
X1157517Y338628D01*
X1157436Y338575D01*
X1157354Y338526D01*
X1157270Y338480D01*
X1157183Y338437D01*
X1157096Y338398D01*
X1157006Y338362D01*
X1156916Y338330D01*
X1156824Y338302D01*
X1156731Y338277D01*
X1156637Y338256D01*
X1156543Y338239D01*
X1156448Y338225D01*
X1156352Y338216D01*
X1156256Y338210D01*
X1156160Y338208D01*
X1153888Y339831D02*
X1153789Y340038D01*
X1153696Y340249D01*
X1153608Y340461D01*
X1153525Y340675D01*
X1153447Y340891D01*
X1153374Y341109D01*
X1153306Y341329D01*
X1153244Y341550D01*
X1153187Y341773D01*
X1153135Y341997D01*
X1153089Y342222D01*
X1153048Y342448D01*
X1153013Y342675D01*
X1152983Y342903D01*
X1152958Y343132D01*
X1152939Y343361D01*
X1152925Y343590D01*
X1152917Y343820D01*
X1152914Y344050D01*
X1153888Y339831D02*
X1153921Y339741D01*
X1153957Y339652D01*
X1153998Y339564D01*
X1154041Y339479D01*
X1154088Y339395D01*
X1154138Y339313D01*
X1154192Y339233D01*
X1154248Y339155D01*
X1154308Y339080D01*
X1154371Y339007D01*
X1154436Y338937D01*
X1154505Y338869D01*
X1154576Y338805D01*
X1154649Y338743D01*
X1154725Y338684D01*
X1154803Y338628D01*
X1154884Y338575D01*
X1154966Y338526D01*
X1155050Y338480D01*
X1155137Y338437D01*
X1155224Y338398D01*
X1155314Y338362D01*
X1155404Y338330D01*
X1155496Y338302D01*
X1155589Y338277D01*
X1155683Y338256D01*
X1155777Y338239D01*
X1155872Y338225D01*
X1155968Y338216D01*
X1156064Y338210D01*
X1156160Y338208D01*
X1158757Y340804D02*
X1153564Y347296D01*
X1180108Y312915D02*
X1191792Y312915D01*
X1191792Y316160D01*
X1191790Y316273D01*
X1191784Y316386D01*
X1191774Y316499D01*
X1191760Y316612D01*
X1191743Y316724D01*
X1191721Y316835D01*
X1191696Y316945D01*
X1191666Y317055D01*
X1191633Y317163D01*
X1191596Y317270D01*
X1191556Y317376D01*
X1191511Y317480D01*
X1191463Y317583D01*
X1191412Y317684D01*
X1191357Y317783D01*
X1191299Y317880D01*
X1191237Y317975D01*
X1191172Y318068D01*
X1191104Y318158D01*
X1191033Y318246D01*
X1190958Y318332D01*
X1190881Y318415D01*
X1190801Y318495D01*
X1190718Y318572D01*
X1190632Y318647D01*
X1190544Y318718D01*
X1190454Y318786D01*
X1190361Y318851D01*
X1190266Y318913D01*
X1190169Y318971D01*
X1190070Y319026D01*
X1189969Y319077D01*
X1189866Y319125D01*
X1189762Y319170D01*
X1189656Y319210D01*
X1189549Y319247D01*
X1189441Y319280D01*
X1189331Y319310D01*
X1189221Y319335D01*
X1189110Y319357D01*
X1188998Y319374D01*
X1188885Y319388D01*
X1188772Y319398D01*
X1188659Y319404D01*
X1188546Y319406D01*
X1188433Y319404D01*
X1188320Y319398D01*
X1188207Y319388D01*
X1188094Y319374D01*
X1187982Y319357D01*
X1187871Y319335D01*
X1187761Y319310D01*
X1187651Y319280D01*
X1187543Y319247D01*
X1187436Y319210D01*
X1187330Y319170D01*
X1187226Y319125D01*
X1187123Y319077D01*
X1187022Y319026D01*
X1186923Y318971D01*
X1186826Y318913D01*
X1186731Y318851D01*
X1186638Y318786D01*
X1186548Y318718D01*
X1186460Y318647D01*
X1186374Y318572D01*
X1186291Y318495D01*
X1186211Y318415D01*
X1186134Y318332D01*
X1186059Y318246D01*
X1185988Y318158D01*
X1185920Y318068D01*
X1185855Y317975D01*
X1185793Y317880D01*
X1185735Y317783D01*
X1185680Y317684D01*
X1185629Y317583D01*
X1185581Y317480D01*
X1185536Y317376D01*
X1185496Y317270D01*
X1185459Y317163D01*
X1185426Y317055D01*
X1185396Y316945D01*
X1185371Y316835D01*
X1185349Y316724D01*
X1185332Y316612D01*
X1185318Y316499D01*
X1185308Y316386D01*
X1185302Y316273D01*
X1185300Y316160D01*
X1185301Y316160D02*
X1185301Y312915D01*
X1185301Y316809D02*
X1180108Y319406D01*
X1189196Y324271D02*
X1191792Y327516D01*
X1180108Y327516D01*
X1180108Y324271D02*
X1180108Y330762D01*
X1189196Y335701D02*
X1191792Y338946D01*
X1180108Y338946D01*
X1180108Y335701D02*
X1180108Y342192D01*
D11*
X1770000Y110000D02*
X1860000Y110000D01*
X1770000Y110000D02*
X1770000Y340000D01*
X1860000Y340000D01*
X1860000Y110000D01*
D10*
X1069385Y1403758D02*
X1069385Y1415442D01*
X1066140Y1415442D01*
X1066027Y1415440D01*
X1065914Y1415434D01*
X1065801Y1415424D01*
X1065688Y1415410D01*
X1065576Y1415393D01*
X1065465Y1415371D01*
X1065355Y1415346D01*
X1065245Y1415316D01*
X1065137Y1415283D01*
X1065030Y1415246D01*
X1064924Y1415206D01*
X1064820Y1415161D01*
X1064717Y1415113D01*
X1064616Y1415062D01*
X1064517Y1415007D01*
X1064420Y1414949D01*
X1064325Y1414887D01*
X1064232Y1414822D01*
X1064142Y1414754D01*
X1064054Y1414683D01*
X1063968Y1414608D01*
X1063885Y1414531D01*
X1063805Y1414451D01*
X1063728Y1414368D01*
X1063653Y1414282D01*
X1063582Y1414194D01*
X1063514Y1414104D01*
X1063449Y1414011D01*
X1063387Y1413916D01*
X1063329Y1413819D01*
X1063274Y1413720D01*
X1063223Y1413619D01*
X1063175Y1413516D01*
X1063130Y1413412D01*
X1063090Y1413306D01*
X1063053Y1413199D01*
X1063020Y1413091D01*
X1062990Y1412981D01*
X1062965Y1412871D01*
X1062943Y1412760D01*
X1062926Y1412648D01*
X1062912Y1412535D01*
X1062902Y1412422D01*
X1062896Y1412309D01*
X1062894Y1412196D01*
X1062896Y1412083D01*
X1062902Y1411970D01*
X1062912Y1411857D01*
X1062926Y1411744D01*
X1062943Y1411632D01*
X1062965Y1411521D01*
X1062990Y1411411D01*
X1063020Y1411301D01*
X1063053Y1411193D01*
X1063090Y1411086D01*
X1063130Y1410980D01*
X1063175Y1410876D01*
X1063223Y1410773D01*
X1063274Y1410672D01*
X1063329Y1410573D01*
X1063387Y1410476D01*
X1063449Y1410381D01*
X1063514Y1410288D01*
X1063582Y1410198D01*
X1063653Y1410110D01*
X1063728Y1410024D01*
X1063805Y1409941D01*
X1063885Y1409861D01*
X1063968Y1409784D01*
X1064054Y1409709D01*
X1064142Y1409638D01*
X1064232Y1409570D01*
X1064325Y1409505D01*
X1064420Y1409443D01*
X1064517Y1409385D01*
X1064616Y1409330D01*
X1064717Y1409279D01*
X1064820Y1409231D01*
X1064924Y1409186D01*
X1065030Y1409146D01*
X1065137Y1409109D01*
X1065245Y1409076D01*
X1065355Y1409046D01*
X1065465Y1409021D01*
X1065576Y1408999D01*
X1065688Y1408982D01*
X1065801Y1408968D01*
X1065914Y1408958D01*
X1066027Y1408952D01*
X1066140Y1408950D01*
X1066140Y1408951D02*
X1069385Y1408951D01*
X1065491Y1408951D02*
X1062894Y1403758D01*
X1058029Y1412846D02*
X1054784Y1415442D01*
X1054784Y1403758D01*
X1058029Y1403758D02*
X1051538Y1403758D01*
X1046599Y1410249D02*
X1042704Y1410249D01*
X1042605Y1410247D01*
X1042505Y1410241D01*
X1042406Y1410232D01*
X1042308Y1410219D01*
X1042210Y1410202D01*
X1042112Y1410181D01*
X1042016Y1410156D01*
X1041921Y1410128D01*
X1041827Y1410096D01*
X1041734Y1410061D01*
X1041642Y1410022D01*
X1041552Y1409979D01*
X1041464Y1409934D01*
X1041377Y1409884D01*
X1041293Y1409832D01*
X1041210Y1409776D01*
X1041130Y1409718D01*
X1041052Y1409656D01*
X1040977Y1409591D01*
X1040904Y1409523D01*
X1040834Y1409453D01*
X1040766Y1409380D01*
X1040701Y1409305D01*
X1040639Y1409227D01*
X1040581Y1409147D01*
X1040525Y1409064D01*
X1040473Y1408980D01*
X1040423Y1408893D01*
X1040378Y1408805D01*
X1040335Y1408715D01*
X1040296Y1408623D01*
X1040261Y1408530D01*
X1040229Y1408436D01*
X1040201Y1408341D01*
X1040176Y1408245D01*
X1040155Y1408147D01*
X1040138Y1408049D01*
X1040125Y1407951D01*
X1040116Y1407852D01*
X1040110Y1407752D01*
X1040108Y1407653D01*
X1040108Y1407004D01*
X1040110Y1406891D01*
X1040116Y1406778D01*
X1040126Y1406665D01*
X1040140Y1406552D01*
X1040157Y1406440D01*
X1040179Y1406329D01*
X1040204Y1406219D01*
X1040234Y1406109D01*
X1040267Y1406001D01*
X1040304Y1405894D01*
X1040344Y1405788D01*
X1040389Y1405684D01*
X1040437Y1405581D01*
X1040488Y1405480D01*
X1040543Y1405381D01*
X1040601Y1405284D01*
X1040663Y1405189D01*
X1040728Y1405096D01*
X1040796Y1405006D01*
X1040867Y1404918D01*
X1040942Y1404832D01*
X1041019Y1404749D01*
X1041099Y1404669D01*
X1041182Y1404592D01*
X1041268Y1404517D01*
X1041356Y1404446D01*
X1041446Y1404378D01*
X1041539Y1404313D01*
X1041634Y1404251D01*
X1041731Y1404193D01*
X1041830Y1404138D01*
X1041931Y1404087D01*
X1042034Y1404039D01*
X1042138Y1403994D01*
X1042244Y1403954D01*
X1042351Y1403917D01*
X1042459Y1403884D01*
X1042569Y1403854D01*
X1042679Y1403829D01*
X1042790Y1403807D01*
X1042902Y1403790D01*
X1043015Y1403776D01*
X1043128Y1403766D01*
X1043241Y1403760D01*
X1043354Y1403758D01*
X1043467Y1403760D01*
X1043580Y1403766D01*
X1043693Y1403776D01*
X1043806Y1403790D01*
X1043918Y1403807D01*
X1044029Y1403829D01*
X1044139Y1403854D01*
X1044249Y1403884D01*
X1044357Y1403917D01*
X1044464Y1403954D01*
X1044570Y1403994D01*
X1044674Y1404039D01*
X1044777Y1404087D01*
X1044878Y1404138D01*
X1044977Y1404193D01*
X1045074Y1404251D01*
X1045169Y1404313D01*
X1045262Y1404378D01*
X1045352Y1404446D01*
X1045440Y1404517D01*
X1045526Y1404592D01*
X1045609Y1404669D01*
X1045689Y1404749D01*
X1045766Y1404832D01*
X1045841Y1404918D01*
X1045912Y1405006D01*
X1045980Y1405096D01*
X1046045Y1405189D01*
X1046107Y1405284D01*
X1046165Y1405381D01*
X1046220Y1405480D01*
X1046271Y1405581D01*
X1046319Y1405684D01*
X1046364Y1405788D01*
X1046404Y1405894D01*
X1046441Y1406001D01*
X1046474Y1406109D01*
X1046504Y1406219D01*
X1046529Y1406329D01*
X1046551Y1406440D01*
X1046568Y1406552D01*
X1046582Y1406665D01*
X1046592Y1406778D01*
X1046598Y1406891D01*
X1046600Y1407004D01*
X1046599Y1407004D02*
X1046599Y1410249D01*
X1046597Y1410392D01*
X1046591Y1410535D01*
X1046581Y1410678D01*
X1046567Y1410820D01*
X1046550Y1410962D01*
X1046528Y1411104D01*
X1046503Y1411245D01*
X1046473Y1411385D01*
X1046440Y1411524D01*
X1046403Y1411662D01*
X1046362Y1411799D01*
X1046318Y1411935D01*
X1046269Y1412070D01*
X1046217Y1412203D01*
X1046162Y1412335D01*
X1046102Y1412465D01*
X1046039Y1412594D01*
X1045973Y1412721D01*
X1045903Y1412846D01*
X1045830Y1412968D01*
X1045753Y1413089D01*
X1045673Y1413208D01*
X1045590Y1413324D01*
X1045504Y1413439D01*
X1045415Y1413550D01*
X1045322Y1413660D01*
X1045227Y1413766D01*
X1045128Y1413870D01*
X1045027Y1413971D01*
X1044923Y1414070D01*
X1044817Y1414165D01*
X1044707Y1414258D01*
X1044596Y1414347D01*
X1044481Y1414433D01*
X1044365Y1414516D01*
X1044246Y1414596D01*
X1044125Y1414673D01*
X1044003Y1414746D01*
X1043878Y1414816D01*
X1043751Y1414882D01*
X1043622Y1414945D01*
X1043492Y1415005D01*
X1043360Y1415060D01*
X1043227Y1415112D01*
X1043092Y1415161D01*
X1042956Y1415205D01*
X1042819Y1415246D01*
X1042681Y1415283D01*
X1042542Y1415316D01*
X1042402Y1415346D01*
X1042261Y1415371D01*
X1042119Y1415393D01*
X1041977Y1415410D01*
X1041835Y1415424D01*
X1041692Y1415434D01*
X1041549Y1415440D01*
X1041406Y1415442D01*
X1159385Y1415442D02*
X1159385Y1403758D01*
X1159385Y1415442D02*
X1156140Y1415442D01*
X1156027Y1415440D01*
X1155914Y1415434D01*
X1155801Y1415424D01*
X1155688Y1415410D01*
X1155576Y1415393D01*
X1155465Y1415371D01*
X1155355Y1415346D01*
X1155245Y1415316D01*
X1155137Y1415283D01*
X1155030Y1415246D01*
X1154924Y1415206D01*
X1154820Y1415161D01*
X1154717Y1415113D01*
X1154616Y1415062D01*
X1154517Y1415007D01*
X1154420Y1414949D01*
X1154325Y1414887D01*
X1154232Y1414822D01*
X1154142Y1414754D01*
X1154054Y1414683D01*
X1153968Y1414608D01*
X1153885Y1414531D01*
X1153805Y1414451D01*
X1153728Y1414368D01*
X1153653Y1414282D01*
X1153582Y1414194D01*
X1153514Y1414104D01*
X1153449Y1414011D01*
X1153387Y1413916D01*
X1153329Y1413819D01*
X1153274Y1413720D01*
X1153223Y1413619D01*
X1153175Y1413516D01*
X1153130Y1413412D01*
X1153090Y1413306D01*
X1153053Y1413199D01*
X1153020Y1413091D01*
X1152990Y1412981D01*
X1152965Y1412871D01*
X1152943Y1412760D01*
X1152926Y1412648D01*
X1152912Y1412535D01*
X1152902Y1412422D01*
X1152896Y1412309D01*
X1152894Y1412196D01*
X1152896Y1412083D01*
X1152902Y1411970D01*
X1152912Y1411857D01*
X1152926Y1411744D01*
X1152943Y1411632D01*
X1152965Y1411521D01*
X1152990Y1411411D01*
X1153020Y1411301D01*
X1153053Y1411193D01*
X1153090Y1411086D01*
X1153130Y1410980D01*
X1153175Y1410876D01*
X1153223Y1410773D01*
X1153274Y1410672D01*
X1153329Y1410573D01*
X1153387Y1410476D01*
X1153449Y1410381D01*
X1153514Y1410288D01*
X1153582Y1410198D01*
X1153653Y1410110D01*
X1153728Y1410024D01*
X1153805Y1409941D01*
X1153885Y1409861D01*
X1153968Y1409784D01*
X1154054Y1409709D01*
X1154142Y1409638D01*
X1154232Y1409570D01*
X1154325Y1409505D01*
X1154420Y1409443D01*
X1154517Y1409385D01*
X1154616Y1409330D01*
X1154717Y1409279D01*
X1154820Y1409231D01*
X1154924Y1409186D01*
X1155030Y1409146D01*
X1155137Y1409109D01*
X1155245Y1409076D01*
X1155355Y1409046D01*
X1155465Y1409021D01*
X1155576Y1408999D01*
X1155688Y1408982D01*
X1155801Y1408968D01*
X1155914Y1408958D01*
X1156027Y1408952D01*
X1156140Y1408950D01*
X1156140Y1408951D02*
X1159385Y1408951D01*
X1155491Y1408951D02*
X1152894Y1403758D01*
X1148029Y1412846D02*
X1144784Y1415442D01*
X1144784Y1403758D01*
X1148029Y1403758D02*
X1141538Y1403758D01*
X1130108Y1412521D02*
X1130110Y1412628D01*
X1130116Y1412734D01*
X1130126Y1412840D01*
X1130139Y1412946D01*
X1130157Y1413052D01*
X1130178Y1413156D01*
X1130203Y1413260D01*
X1130232Y1413363D01*
X1130264Y1413464D01*
X1130301Y1413564D01*
X1130341Y1413663D01*
X1130384Y1413761D01*
X1130431Y1413857D01*
X1130482Y1413951D01*
X1130536Y1414043D01*
X1130593Y1414133D01*
X1130653Y1414221D01*
X1130717Y1414306D01*
X1130784Y1414389D01*
X1130854Y1414470D01*
X1130926Y1414548D01*
X1131002Y1414624D01*
X1131080Y1414696D01*
X1131161Y1414766D01*
X1131244Y1414833D01*
X1131329Y1414897D01*
X1131417Y1414957D01*
X1131507Y1415014D01*
X1131599Y1415068D01*
X1131693Y1415119D01*
X1131789Y1415166D01*
X1131887Y1415209D01*
X1131986Y1415249D01*
X1132086Y1415286D01*
X1132187Y1415318D01*
X1132290Y1415347D01*
X1132394Y1415372D01*
X1132498Y1415393D01*
X1132604Y1415411D01*
X1132710Y1415424D01*
X1132816Y1415434D01*
X1132922Y1415440D01*
X1133029Y1415442D01*
X1133150Y1415440D01*
X1133271Y1415434D01*
X1133391Y1415424D01*
X1133512Y1415411D01*
X1133631Y1415393D01*
X1133751Y1415372D01*
X1133869Y1415347D01*
X1133986Y1415318D01*
X1134103Y1415285D01*
X1134218Y1415249D01*
X1134332Y1415208D01*
X1134445Y1415165D01*
X1134557Y1415117D01*
X1134666Y1415066D01*
X1134774Y1415011D01*
X1134881Y1414953D01*
X1134985Y1414892D01*
X1135087Y1414827D01*
X1135187Y1414759D01*
X1135285Y1414688D01*
X1135381Y1414614D01*
X1135474Y1414537D01*
X1135564Y1414456D01*
X1135652Y1414373D01*
X1135737Y1414287D01*
X1135820Y1414198D01*
X1135899Y1414107D01*
X1135976Y1414013D01*
X1136049Y1413917D01*
X1136119Y1413819D01*
X1136186Y1413718D01*
X1136250Y1413615D01*
X1136311Y1413510D01*
X1136368Y1413403D01*
X1136421Y1413295D01*
X1136471Y1413185D01*
X1136517Y1413073D01*
X1136560Y1412960D01*
X1136599Y1412845D01*
X1131082Y1410249D02*
X1131003Y1410327D01*
X1130927Y1410407D01*
X1130854Y1410490D01*
X1130784Y1410576D01*
X1130717Y1410663D01*
X1130653Y1410754D01*
X1130593Y1410846D01*
X1130535Y1410940D01*
X1130481Y1411037D01*
X1130431Y1411135D01*
X1130384Y1411235D01*
X1130340Y1411336D01*
X1130300Y1411439D01*
X1130264Y1411544D01*
X1130232Y1411649D01*
X1130203Y1411756D01*
X1130178Y1411863D01*
X1130156Y1411972D01*
X1130139Y1412081D01*
X1130125Y1412190D01*
X1130116Y1412300D01*
X1130110Y1412411D01*
X1130108Y1412521D01*
X1131082Y1410249D02*
X1136599Y1403758D01*
X1130108Y1403758D01*
X1249385Y1403758D02*
X1249385Y1415442D01*
X1246140Y1415442D01*
X1246027Y1415440D01*
X1245914Y1415434D01*
X1245801Y1415424D01*
X1245688Y1415410D01*
X1245576Y1415393D01*
X1245465Y1415371D01*
X1245355Y1415346D01*
X1245245Y1415316D01*
X1245137Y1415283D01*
X1245030Y1415246D01*
X1244924Y1415206D01*
X1244820Y1415161D01*
X1244717Y1415113D01*
X1244616Y1415062D01*
X1244517Y1415007D01*
X1244420Y1414949D01*
X1244325Y1414887D01*
X1244232Y1414822D01*
X1244142Y1414754D01*
X1244054Y1414683D01*
X1243968Y1414608D01*
X1243885Y1414531D01*
X1243805Y1414451D01*
X1243728Y1414368D01*
X1243653Y1414282D01*
X1243582Y1414194D01*
X1243514Y1414104D01*
X1243449Y1414011D01*
X1243387Y1413916D01*
X1243329Y1413819D01*
X1243274Y1413720D01*
X1243223Y1413619D01*
X1243175Y1413516D01*
X1243130Y1413412D01*
X1243090Y1413306D01*
X1243053Y1413199D01*
X1243020Y1413091D01*
X1242990Y1412981D01*
X1242965Y1412871D01*
X1242943Y1412760D01*
X1242926Y1412648D01*
X1242912Y1412535D01*
X1242902Y1412422D01*
X1242896Y1412309D01*
X1242894Y1412196D01*
X1242896Y1412083D01*
X1242902Y1411970D01*
X1242912Y1411857D01*
X1242926Y1411744D01*
X1242943Y1411632D01*
X1242965Y1411521D01*
X1242990Y1411411D01*
X1243020Y1411301D01*
X1243053Y1411193D01*
X1243090Y1411086D01*
X1243130Y1410980D01*
X1243175Y1410876D01*
X1243223Y1410773D01*
X1243274Y1410672D01*
X1243329Y1410573D01*
X1243387Y1410476D01*
X1243449Y1410381D01*
X1243514Y1410288D01*
X1243582Y1410198D01*
X1243653Y1410110D01*
X1243728Y1410024D01*
X1243805Y1409941D01*
X1243885Y1409861D01*
X1243968Y1409784D01*
X1244054Y1409709D01*
X1244142Y1409638D01*
X1244232Y1409570D01*
X1244325Y1409505D01*
X1244420Y1409443D01*
X1244517Y1409385D01*
X1244616Y1409330D01*
X1244717Y1409279D01*
X1244820Y1409231D01*
X1244924Y1409186D01*
X1245030Y1409146D01*
X1245137Y1409109D01*
X1245245Y1409076D01*
X1245355Y1409046D01*
X1245465Y1409021D01*
X1245576Y1408999D01*
X1245688Y1408982D01*
X1245801Y1408968D01*
X1245914Y1408958D01*
X1246027Y1408952D01*
X1246140Y1408950D01*
X1246140Y1408951D02*
X1249385Y1408951D01*
X1245491Y1408951D02*
X1242894Y1403758D01*
X1238029Y1412846D02*
X1234784Y1415442D01*
X1234784Y1403758D01*
X1238029Y1403758D02*
X1231538Y1403758D01*
X1226599Y1403758D02*
X1223354Y1403758D01*
X1223241Y1403760D01*
X1223128Y1403766D01*
X1223015Y1403776D01*
X1222902Y1403790D01*
X1222790Y1403807D01*
X1222679Y1403829D01*
X1222569Y1403854D01*
X1222459Y1403884D01*
X1222351Y1403917D01*
X1222244Y1403954D01*
X1222138Y1403994D01*
X1222034Y1404039D01*
X1221931Y1404087D01*
X1221830Y1404138D01*
X1221731Y1404193D01*
X1221634Y1404251D01*
X1221539Y1404313D01*
X1221446Y1404378D01*
X1221356Y1404446D01*
X1221268Y1404517D01*
X1221182Y1404592D01*
X1221099Y1404669D01*
X1221019Y1404749D01*
X1220942Y1404832D01*
X1220867Y1404918D01*
X1220796Y1405006D01*
X1220728Y1405096D01*
X1220663Y1405189D01*
X1220601Y1405284D01*
X1220543Y1405381D01*
X1220488Y1405480D01*
X1220437Y1405581D01*
X1220389Y1405684D01*
X1220344Y1405788D01*
X1220304Y1405894D01*
X1220267Y1406001D01*
X1220234Y1406109D01*
X1220204Y1406219D01*
X1220179Y1406329D01*
X1220157Y1406440D01*
X1220140Y1406552D01*
X1220126Y1406665D01*
X1220116Y1406778D01*
X1220110Y1406891D01*
X1220108Y1407004D01*
X1220110Y1407117D01*
X1220116Y1407230D01*
X1220126Y1407343D01*
X1220140Y1407456D01*
X1220157Y1407568D01*
X1220179Y1407679D01*
X1220204Y1407789D01*
X1220234Y1407899D01*
X1220267Y1408007D01*
X1220304Y1408114D01*
X1220344Y1408220D01*
X1220389Y1408324D01*
X1220437Y1408427D01*
X1220488Y1408528D01*
X1220543Y1408627D01*
X1220601Y1408724D01*
X1220663Y1408819D01*
X1220728Y1408912D01*
X1220796Y1409002D01*
X1220867Y1409090D01*
X1220942Y1409176D01*
X1221019Y1409259D01*
X1221099Y1409339D01*
X1221182Y1409416D01*
X1221268Y1409491D01*
X1221356Y1409562D01*
X1221446Y1409630D01*
X1221539Y1409695D01*
X1221634Y1409757D01*
X1221731Y1409815D01*
X1221830Y1409870D01*
X1221931Y1409921D01*
X1222034Y1409969D01*
X1222138Y1410014D01*
X1222244Y1410054D01*
X1222351Y1410091D01*
X1222459Y1410124D01*
X1222569Y1410154D01*
X1222679Y1410179D01*
X1222790Y1410201D01*
X1222902Y1410218D01*
X1223015Y1410232D01*
X1223128Y1410242D01*
X1223241Y1410248D01*
X1223354Y1410250D01*
X1222704Y1415442D02*
X1226599Y1415442D01*
X1222704Y1415442D02*
X1222603Y1415440D01*
X1222503Y1415434D01*
X1222403Y1415424D01*
X1222303Y1415411D01*
X1222204Y1415393D01*
X1222105Y1415372D01*
X1222008Y1415347D01*
X1221911Y1415318D01*
X1221816Y1415285D01*
X1221722Y1415249D01*
X1221630Y1415209D01*
X1221539Y1415166D01*
X1221450Y1415119D01*
X1221363Y1415069D01*
X1221277Y1415015D01*
X1221194Y1414958D01*
X1221114Y1414898D01*
X1221035Y1414835D01*
X1220959Y1414768D01*
X1220886Y1414699D01*
X1220816Y1414627D01*
X1220748Y1414553D01*
X1220683Y1414476D01*
X1220622Y1414396D01*
X1220563Y1414314D01*
X1220508Y1414230D01*
X1220456Y1414144D01*
X1220407Y1414056D01*
X1220362Y1413966D01*
X1220320Y1413874D01*
X1220282Y1413781D01*
X1220248Y1413686D01*
X1220217Y1413591D01*
X1220190Y1413494D01*
X1220167Y1413396D01*
X1220147Y1413297D01*
X1220132Y1413197D01*
X1220120Y1413097D01*
X1220112Y1412997D01*
X1220108Y1412896D01*
X1220108Y1412796D01*
X1220112Y1412695D01*
X1220120Y1412595D01*
X1220132Y1412495D01*
X1220147Y1412395D01*
X1220167Y1412296D01*
X1220190Y1412198D01*
X1220217Y1412101D01*
X1220248Y1412006D01*
X1220282Y1411911D01*
X1220320Y1411818D01*
X1220362Y1411726D01*
X1220407Y1411636D01*
X1220456Y1411548D01*
X1220508Y1411462D01*
X1220563Y1411378D01*
X1220622Y1411296D01*
X1220683Y1411216D01*
X1220748Y1411139D01*
X1220816Y1411065D01*
X1220886Y1410993D01*
X1220959Y1410924D01*
X1221035Y1410857D01*
X1221114Y1410794D01*
X1221194Y1410734D01*
X1221277Y1410677D01*
X1221363Y1410623D01*
X1221450Y1410573D01*
X1221539Y1410526D01*
X1221630Y1410483D01*
X1221722Y1410443D01*
X1221816Y1410407D01*
X1221911Y1410374D01*
X1222008Y1410345D01*
X1222105Y1410320D01*
X1222204Y1410299D01*
X1222303Y1410281D01*
X1222403Y1410268D01*
X1222503Y1410258D01*
X1222603Y1410252D01*
X1222704Y1410250D01*
X1222704Y1410249D02*
X1225301Y1410249D01*
X1339385Y1415442D02*
X1339385Y1403758D01*
X1339385Y1415442D02*
X1336140Y1415442D01*
X1336027Y1415440D01*
X1335914Y1415434D01*
X1335801Y1415424D01*
X1335688Y1415410D01*
X1335576Y1415393D01*
X1335465Y1415371D01*
X1335355Y1415346D01*
X1335245Y1415316D01*
X1335137Y1415283D01*
X1335030Y1415246D01*
X1334924Y1415206D01*
X1334820Y1415161D01*
X1334717Y1415113D01*
X1334616Y1415062D01*
X1334517Y1415007D01*
X1334420Y1414949D01*
X1334325Y1414887D01*
X1334232Y1414822D01*
X1334142Y1414754D01*
X1334054Y1414683D01*
X1333968Y1414608D01*
X1333885Y1414531D01*
X1333805Y1414451D01*
X1333728Y1414368D01*
X1333653Y1414282D01*
X1333582Y1414194D01*
X1333514Y1414104D01*
X1333449Y1414011D01*
X1333387Y1413916D01*
X1333329Y1413819D01*
X1333274Y1413720D01*
X1333223Y1413619D01*
X1333175Y1413516D01*
X1333130Y1413412D01*
X1333090Y1413306D01*
X1333053Y1413199D01*
X1333020Y1413091D01*
X1332990Y1412981D01*
X1332965Y1412871D01*
X1332943Y1412760D01*
X1332926Y1412648D01*
X1332912Y1412535D01*
X1332902Y1412422D01*
X1332896Y1412309D01*
X1332894Y1412196D01*
X1332896Y1412083D01*
X1332902Y1411970D01*
X1332912Y1411857D01*
X1332926Y1411744D01*
X1332943Y1411632D01*
X1332965Y1411521D01*
X1332990Y1411411D01*
X1333020Y1411301D01*
X1333053Y1411193D01*
X1333090Y1411086D01*
X1333130Y1410980D01*
X1333175Y1410876D01*
X1333223Y1410773D01*
X1333274Y1410672D01*
X1333329Y1410573D01*
X1333387Y1410476D01*
X1333449Y1410381D01*
X1333514Y1410288D01*
X1333582Y1410198D01*
X1333653Y1410110D01*
X1333728Y1410024D01*
X1333805Y1409941D01*
X1333885Y1409861D01*
X1333968Y1409784D01*
X1334054Y1409709D01*
X1334142Y1409638D01*
X1334232Y1409570D01*
X1334325Y1409505D01*
X1334420Y1409443D01*
X1334517Y1409385D01*
X1334616Y1409330D01*
X1334717Y1409279D01*
X1334820Y1409231D01*
X1334924Y1409186D01*
X1335030Y1409146D01*
X1335137Y1409109D01*
X1335245Y1409076D01*
X1335355Y1409046D01*
X1335465Y1409021D01*
X1335576Y1408999D01*
X1335688Y1408982D01*
X1335801Y1408968D01*
X1335914Y1408958D01*
X1336027Y1408952D01*
X1336140Y1408950D01*
X1336140Y1408951D02*
X1339385Y1408951D01*
X1335491Y1408951D02*
X1332894Y1403758D01*
X1328029Y1412846D02*
X1324784Y1415442D01*
X1324784Y1403758D01*
X1328029Y1403758D02*
X1321538Y1403758D01*
X1316599Y1406354D02*
X1314003Y1415442D01*
X1316599Y1406354D02*
X1310108Y1406354D01*
X1312055Y1408951D02*
X1312055Y1403758D01*
X1429385Y1403758D02*
X1429385Y1415442D01*
X1426140Y1415442D01*
X1426027Y1415440D01*
X1425914Y1415434D01*
X1425801Y1415424D01*
X1425688Y1415410D01*
X1425576Y1415393D01*
X1425465Y1415371D01*
X1425355Y1415346D01*
X1425245Y1415316D01*
X1425137Y1415283D01*
X1425030Y1415246D01*
X1424924Y1415206D01*
X1424820Y1415161D01*
X1424717Y1415113D01*
X1424616Y1415062D01*
X1424517Y1415007D01*
X1424420Y1414949D01*
X1424325Y1414887D01*
X1424232Y1414822D01*
X1424142Y1414754D01*
X1424054Y1414683D01*
X1423968Y1414608D01*
X1423885Y1414531D01*
X1423805Y1414451D01*
X1423728Y1414368D01*
X1423653Y1414282D01*
X1423582Y1414194D01*
X1423514Y1414104D01*
X1423449Y1414011D01*
X1423387Y1413916D01*
X1423329Y1413819D01*
X1423274Y1413720D01*
X1423223Y1413619D01*
X1423175Y1413516D01*
X1423130Y1413412D01*
X1423090Y1413306D01*
X1423053Y1413199D01*
X1423020Y1413091D01*
X1422990Y1412981D01*
X1422965Y1412871D01*
X1422943Y1412760D01*
X1422926Y1412648D01*
X1422912Y1412535D01*
X1422902Y1412422D01*
X1422896Y1412309D01*
X1422894Y1412196D01*
X1422896Y1412083D01*
X1422902Y1411970D01*
X1422912Y1411857D01*
X1422926Y1411744D01*
X1422943Y1411632D01*
X1422965Y1411521D01*
X1422990Y1411411D01*
X1423020Y1411301D01*
X1423053Y1411193D01*
X1423090Y1411086D01*
X1423130Y1410980D01*
X1423175Y1410876D01*
X1423223Y1410773D01*
X1423274Y1410672D01*
X1423329Y1410573D01*
X1423387Y1410476D01*
X1423449Y1410381D01*
X1423514Y1410288D01*
X1423582Y1410198D01*
X1423653Y1410110D01*
X1423728Y1410024D01*
X1423805Y1409941D01*
X1423885Y1409861D01*
X1423968Y1409784D01*
X1424054Y1409709D01*
X1424142Y1409638D01*
X1424232Y1409570D01*
X1424325Y1409505D01*
X1424420Y1409443D01*
X1424517Y1409385D01*
X1424616Y1409330D01*
X1424717Y1409279D01*
X1424820Y1409231D01*
X1424924Y1409186D01*
X1425030Y1409146D01*
X1425137Y1409109D01*
X1425245Y1409076D01*
X1425355Y1409046D01*
X1425465Y1409021D01*
X1425576Y1408999D01*
X1425688Y1408982D01*
X1425801Y1408968D01*
X1425914Y1408958D01*
X1426027Y1408952D01*
X1426140Y1408950D01*
X1426140Y1408951D02*
X1429385Y1408951D01*
X1425491Y1408951D02*
X1422894Y1403758D01*
X1418029Y1412846D02*
X1414784Y1415442D01*
X1414784Y1403758D01*
X1418029Y1403758D02*
X1411538Y1403758D01*
X1406599Y1403758D02*
X1402704Y1403758D01*
X1402605Y1403760D01*
X1402505Y1403766D01*
X1402406Y1403775D01*
X1402308Y1403788D01*
X1402210Y1403805D01*
X1402112Y1403826D01*
X1402016Y1403851D01*
X1401921Y1403879D01*
X1401827Y1403911D01*
X1401734Y1403946D01*
X1401642Y1403985D01*
X1401552Y1404028D01*
X1401464Y1404073D01*
X1401377Y1404123D01*
X1401293Y1404175D01*
X1401210Y1404231D01*
X1401130Y1404289D01*
X1401052Y1404351D01*
X1400977Y1404416D01*
X1400904Y1404484D01*
X1400834Y1404554D01*
X1400766Y1404627D01*
X1400701Y1404702D01*
X1400639Y1404780D01*
X1400581Y1404860D01*
X1400525Y1404943D01*
X1400473Y1405027D01*
X1400423Y1405114D01*
X1400378Y1405202D01*
X1400335Y1405292D01*
X1400296Y1405384D01*
X1400261Y1405477D01*
X1400229Y1405571D01*
X1400201Y1405666D01*
X1400176Y1405762D01*
X1400155Y1405860D01*
X1400138Y1405958D01*
X1400125Y1406056D01*
X1400116Y1406155D01*
X1400110Y1406255D01*
X1400108Y1406354D01*
X1400108Y1407653D01*
X1400110Y1407752D01*
X1400116Y1407852D01*
X1400125Y1407951D01*
X1400138Y1408049D01*
X1400155Y1408147D01*
X1400176Y1408245D01*
X1400201Y1408341D01*
X1400229Y1408436D01*
X1400261Y1408530D01*
X1400296Y1408623D01*
X1400335Y1408715D01*
X1400378Y1408805D01*
X1400423Y1408893D01*
X1400473Y1408980D01*
X1400525Y1409064D01*
X1400581Y1409147D01*
X1400639Y1409227D01*
X1400701Y1409305D01*
X1400766Y1409380D01*
X1400834Y1409453D01*
X1400904Y1409523D01*
X1400977Y1409591D01*
X1401052Y1409656D01*
X1401130Y1409718D01*
X1401210Y1409776D01*
X1401293Y1409832D01*
X1401377Y1409884D01*
X1401464Y1409934D01*
X1401552Y1409979D01*
X1401642Y1410022D01*
X1401734Y1410061D01*
X1401827Y1410096D01*
X1401921Y1410128D01*
X1402016Y1410156D01*
X1402112Y1410181D01*
X1402210Y1410202D01*
X1402308Y1410219D01*
X1402406Y1410232D01*
X1402505Y1410241D01*
X1402605Y1410247D01*
X1402704Y1410249D01*
X1406599Y1410249D01*
X1406599Y1415442D01*
X1400108Y1415442D01*
X1718758Y1615615D02*
X1730442Y1615615D01*
X1730442Y1618860D01*
X1730440Y1618973D01*
X1730434Y1619086D01*
X1730424Y1619199D01*
X1730410Y1619312D01*
X1730393Y1619424D01*
X1730371Y1619535D01*
X1730346Y1619645D01*
X1730316Y1619755D01*
X1730283Y1619863D01*
X1730246Y1619970D01*
X1730206Y1620076D01*
X1730161Y1620180D01*
X1730113Y1620283D01*
X1730062Y1620384D01*
X1730007Y1620483D01*
X1729949Y1620580D01*
X1729887Y1620675D01*
X1729822Y1620768D01*
X1729754Y1620858D01*
X1729683Y1620946D01*
X1729608Y1621032D01*
X1729531Y1621115D01*
X1729451Y1621195D01*
X1729368Y1621272D01*
X1729282Y1621347D01*
X1729194Y1621418D01*
X1729104Y1621486D01*
X1729011Y1621551D01*
X1728916Y1621613D01*
X1728819Y1621671D01*
X1728720Y1621726D01*
X1728619Y1621777D01*
X1728516Y1621825D01*
X1728412Y1621870D01*
X1728306Y1621910D01*
X1728199Y1621947D01*
X1728091Y1621980D01*
X1727981Y1622010D01*
X1727871Y1622035D01*
X1727760Y1622057D01*
X1727648Y1622074D01*
X1727535Y1622088D01*
X1727422Y1622098D01*
X1727309Y1622104D01*
X1727196Y1622106D01*
X1727083Y1622104D01*
X1726970Y1622098D01*
X1726857Y1622088D01*
X1726744Y1622074D01*
X1726632Y1622057D01*
X1726521Y1622035D01*
X1726411Y1622010D01*
X1726301Y1621980D01*
X1726193Y1621947D01*
X1726086Y1621910D01*
X1725980Y1621870D01*
X1725876Y1621825D01*
X1725773Y1621777D01*
X1725672Y1621726D01*
X1725573Y1621671D01*
X1725476Y1621613D01*
X1725381Y1621551D01*
X1725288Y1621486D01*
X1725198Y1621418D01*
X1725110Y1621347D01*
X1725024Y1621272D01*
X1724941Y1621195D01*
X1724861Y1621115D01*
X1724784Y1621032D01*
X1724709Y1620946D01*
X1724638Y1620858D01*
X1724570Y1620768D01*
X1724505Y1620675D01*
X1724443Y1620580D01*
X1724385Y1620483D01*
X1724330Y1620384D01*
X1724279Y1620283D01*
X1724231Y1620180D01*
X1724186Y1620076D01*
X1724146Y1619970D01*
X1724109Y1619863D01*
X1724076Y1619755D01*
X1724046Y1619645D01*
X1724021Y1619535D01*
X1723999Y1619424D01*
X1723982Y1619312D01*
X1723968Y1619199D01*
X1723958Y1619086D01*
X1723952Y1618973D01*
X1723950Y1618860D01*
X1723951Y1618860D02*
X1723951Y1615615D01*
X1723951Y1619509D02*
X1718758Y1622106D01*
X1727846Y1626971D02*
X1730442Y1630216D01*
X1718758Y1630216D01*
X1718758Y1626971D02*
X1718758Y1633462D01*
X1729144Y1638401D02*
X1730442Y1638401D01*
X1730442Y1644892D01*
X1718758Y1641646D01*
X1734892Y1581242D02*
X1734892Y1569558D01*
X1734892Y1581242D02*
X1731646Y1581242D01*
X1731533Y1581240D01*
X1731420Y1581234D01*
X1731307Y1581224D01*
X1731194Y1581210D01*
X1731082Y1581193D01*
X1730971Y1581171D01*
X1730861Y1581146D01*
X1730751Y1581116D01*
X1730643Y1581083D01*
X1730536Y1581046D01*
X1730430Y1581006D01*
X1730326Y1580961D01*
X1730223Y1580913D01*
X1730122Y1580862D01*
X1730023Y1580807D01*
X1729926Y1580749D01*
X1729831Y1580687D01*
X1729738Y1580622D01*
X1729648Y1580554D01*
X1729560Y1580483D01*
X1729474Y1580408D01*
X1729391Y1580331D01*
X1729311Y1580251D01*
X1729234Y1580168D01*
X1729159Y1580082D01*
X1729088Y1579994D01*
X1729020Y1579904D01*
X1728955Y1579811D01*
X1728893Y1579716D01*
X1728835Y1579619D01*
X1728780Y1579520D01*
X1728729Y1579419D01*
X1728681Y1579316D01*
X1728636Y1579212D01*
X1728596Y1579106D01*
X1728559Y1578999D01*
X1728526Y1578891D01*
X1728496Y1578781D01*
X1728471Y1578671D01*
X1728449Y1578560D01*
X1728432Y1578448D01*
X1728418Y1578335D01*
X1728408Y1578222D01*
X1728402Y1578109D01*
X1728400Y1577996D01*
X1728402Y1577883D01*
X1728408Y1577770D01*
X1728418Y1577657D01*
X1728432Y1577544D01*
X1728449Y1577432D01*
X1728471Y1577321D01*
X1728496Y1577211D01*
X1728526Y1577101D01*
X1728559Y1576993D01*
X1728596Y1576886D01*
X1728636Y1576780D01*
X1728681Y1576676D01*
X1728729Y1576573D01*
X1728780Y1576472D01*
X1728835Y1576373D01*
X1728893Y1576276D01*
X1728955Y1576181D01*
X1729020Y1576088D01*
X1729088Y1575998D01*
X1729159Y1575910D01*
X1729234Y1575824D01*
X1729311Y1575741D01*
X1729391Y1575661D01*
X1729474Y1575584D01*
X1729560Y1575509D01*
X1729648Y1575438D01*
X1729738Y1575370D01*
X1729831Y1575305D01*
X1729926Y1575243D01*
X1730023Y1575185D01*
X1730122Y1575130D01*
X1730223Y1575079D01*
X1730326Y1575031D01*
X1730430Y1574986D01*
X1730536Y1574946D01*
X1730643Y1574909D01*
X1730751Y1574876D01*
X1730861Y1574846D01*
X1730971Y1574821D01*
X1731082Y1574799D01*
X1731194Y1574782D01*
X1731307Y1574768D01*
X1731420Y1574758D01*
X1731533Y1574752D01*
X1731646Y1574750D01*
X1731646Y1574751D02*
X1734892Y1574751D01*
X1730997Y1574751D02*
X1728401Y1569558D01*
X1723536Y1578646D02*
X1720290Y1581242D01*
X1720290Y1569558D01*
X1717045Y1569558D02*
X1723536Y1569558D01*
X1712106Y1572804D02*
X1712104Y1572917D01*
X1712098Y1573030D01*
X1712088Y1573143D01*
X1712074Y1573256D01*
X1712057Y1573368D01*
X1712035Y1573479D01*
X1712010Y1573589D01*
X1711980Y1573699D01*
X1711947Y1573807D01*
X1711910Y1573914D01*
X1711870Y1574020D01*
X1711825Y1574124D01*
X1711777Y1574227D01*
X1711726Y1574328D01*
X1711671Y1574427D01*
X1711613Y1574524D01*
X1711551Y1574619D01*
X1711486Y1574712D01*
X1711418Y1574802D01*
X1711347Y1574890D01*
X1711272Y1574976D01*
X1711195Y1575059D01*
X1711115Y1575139D01*
X1711032Y1575216D01*
X1710946Y1575291D01*
X1710858Y1575362D01*
X1710768Y1575430D01*
X1710675Y1575495D01*
X1710580Y1575557D01*
X1710483Y1575615D01*
X1710384Y1575670D01*
X1710283Y1575721D01*
X1710180Y1575769D01*
X1710076Y1575814D01*
X1709970Y1575854D01*
X1709863Y1575891D01*
X1709755Y1575924D01*
X1709645Y1575954D01*
X1709535Y1575979D01*
X1709424Y1576001D01*
X1709312Y1576018D01*
X1709199Y1576032D01*
X1709086Y1576042D01*
X1708973Y1576048D01*
X1708860Y1576050D01*
X1708747Y1576048D01*
X1708634Y1576042D01*
X1708521Y1576032D01*
X1708408Y1576018D01*
X1708296Y1576001D01*
X1708185Y1575979D01*
X1708075Y1575954D01*
X1707965Y1575924D01*
X1707857Y1575891D01*
X1707750Y1575854D01*
X1707644Y1575814D01*
X1707540Y1575769D01*
X1707437Y1575721D01*
X1707336Y1575670D01*
X1707237Y1575615D01*
X1707140Y1575557D01*
X1707045Y1575495D01*
X1706952Y1575430D01*
X1706862Y1575362D01*
X1706774Y1575291D01*
X1706688Y1575216D01*
X1706605Y1575139D01*
X1706525Y1575059D01*
X1706448Y1574976D01*
X1706373Y1574890D01*
X1706302Y1574802D01*
X1706234Y1574712D01*
X1706169Y1574619D01*
X1706107Y1574524D01*
X1706049Y1574427D01*
X1705994Y1574328D01*
X1705943Y1574227D01*
X1705895Y1574124D01*
X1705850Y1574020D01*
X1705810Y1573914D01*
X1705773Y1573807D01*
X1705740Y1573699D01*
X1705710Y1573589D01*
X1705685Y1573479D01*
X1705663Y1573368D01*
X1705646Y1573256D01*
X1705632Y1573143D01*
X1705622Y1573030D01*
X1705616Y1572917D01*
X1705614Y1572804D01*
X1705616Y1572691D01*
X1705622Y1572578D01*
X1705632Y1572465D01*
X1705646Y1572352D01*
X1705663Y1572240D01*
X1705685Y1572129D01*
X1705710Y1572019D01*
X1705740Y1571909D01*
X1705773Y1571801D01*
X1705810Y1571694D01*
X1705850Y1571588D01*
X1705895Y1571484D01*
X1705943Y1571381D01*
X1705994Y1571280D01*
X1706049Y1571181D01*
X1706107Y1571084D01*
X1706169Y1570989D01*
X1706234Y1570896D01*
X1706302Y1570806D01*
X1706373Y1570718D01*
X1706448Y1570632D01*
X1706525Y1570549D01*
X1706605Y1570469D01*
X1706688Y1570392D01*
X1706774Y1570317D01*
X1706862Y1570246D01*
X1706952Y1570178D01*
X1707045Y1570113D01*
X1707140Y1570051D01*
X1707237Y1569993D01*
X1707336Y1569938D01*
X1707437Y1569887D01*
X1707540Y1569839D01*
X1707644Y1569794D01*
X1707750Y1569754D01*
X1707857Y1569717D01*
X1707965Y1569684D01*
X1708075Y1569654D01*
X1708185Y1569629D01*
X1708296Y1569607D01*
X1708408Y1569590D01*
X1708521Y1569576D01*
X1708634Y1569566D01*
X1708747Y1569560D01*
X1708860Y1569558D01*
X1708973Y1569560D01*
X1709086Y1569566D01*
X1709199Y1569576D01*
X1709312Y1569590D01*
X1709424Y1569607D01*
X1709535Y1569629D01*
X1709645Y1569654D01*
X1709755Y1569684D01*
X1709863Y1569717D01*
X1709970Y1569754D01*
X1710076Y1569794D01*
X1710180Y1569839D01*
X1710283Y1569887D01*
X1710384Y1569938D01*
X1710483Y1569993D01*
X1710580Y1570051D01*
X1710675Y1570113D01*
X1710768Y1570178D01*
X1710858Y1570246D01*
X1710946Y1570317D01*
X1711032Y1570392D01*
X1711115Y1570469D01*
X1711195Y1570549D01*
X1711272Y1570632D01*
X1711347Y1570718D01*
X1711418Y1570806D01*
X1711486Y1570896D01*
X1711551Y1570989D01*
X1711613Y1571084D01*
X1711671Y1571181D01*
X1711726Y1571280D01*
X1711777Y1571381D01*
X1711825Y1571484D01*
X1711870Y1571588D01*
X1711910Y1571694D01*
X1711947Y1571801D01*
X1711980Y1571909D01*
X1712010Y1572019D01*
X1712035Y1572129D01*
X1712057Y1572240D01*
X1712074Y1572352D01*
X1712088Y1572465D01*
X1712098Y1572578D01*
X1712104Y1572691D01*
X1712106Y1572804D01*
X1711456Y1578646D02*
X1711454Y1578747D01*
X1711448Y1578847D01*
X1711438Y1578947D01*
X1711425Y1579047D01*
X1711407Y1579146D01*
X1711386Y1579245D01*
X1711361Y1579342D01*
X1711332Y1579439D01*
X1711299Y1579534D01*
X1711263Y1579628D01*
X1711223Y1579720D01*
X1711180Y1579811D01*
X1711133Y1579900D01*
X1711083Y1579987D01*
X1711029Y1580073D01*
X1710972Y1580156D01*
X1710912Y1580236D01*
X1710849Y1580315D01*
X1710782Y1580391D01*
X1710713Y1580464D01*
X1710641Y1580534D01*
X1710567Y1580602D01*
X1710490Y1580667D01*
X1710410Y1580728D01*
X1710328Y1580787D01*
X1710244Y1580842D01*
X1710158Y1580894D01*
X1710070Y1580943D01*
X1709980Y1580988D01*
X1709888Y1581030D01*
X1709795Y1581068D01*
X1709700Y1581102D01*
X1709605Y1581133D01*
X1709508Y1581160D01*
X1709410Y1581183D01*
X1709311Y1581203D01*
X1709211Y1581218D01*
X1709111Y1581230D01*
X1709011Y1581238D01*
X1708910Y1581242D01*
X1708810Y1581242D01*
X1708709Y1581238D01*
X1708609Y1581230D01*
X1708509Y1581218D01*
X1708409Y1581203D01*
X1708310Y1581183D01*
X1708212Y1581160D01*
X1708115Y1581133D01*
X1708020Y1581102D01*
X1707925Y1581068D01*
X1707832Y1581030D01*
X1707740Y1580988D01*
X1707650Y1580943D01*
X1707562Y1580894D01*
X1707476Y1580842D01*
X1707392Y1580787D01*
X1707310Y1580728D01*
X1707230Y1580667D01*
X1707153Y1580602D01*
X1707079Y1580534D01*
X1707007Y1580464D01*
X1706938Y1580391D01*
X1706871Y1580315D01*
X1706808Y1580236D01*
X1706748Y1580156D01*
X1706691Y1580073D01*
X1706637Y1579987D01*
X1706587Y1579900D01*
X1706540Y1579811D01*
X1706497Y1579720D01*
X1706457Y1579628D01*
X1706421Y1579534D01*
X1706388Y1579439D01*
X1706359Y1579342D01*
X1706334Y1579245D01*
X1706313Y1579146D01*
X1706295Y1579047D01*
X1706282Y1578947D01*
X1706272Y1578847D01*
X1706266Y1578747D01*
X1706264Y1578646D01*
X1706266Y1578545D01*
X1706272Y1578445D01*
X1706282Y1578345D01*
X1706295Y1578245D01*
X1706313Y1578146D01*
X1706334Y1578047D01*
X1706359Y1577950D01*
X1706388Y1577853D01*
X1706421Y1577758D01*
X1706457Y1577664D01*
X1706497Y1577572D01*
X1706540Y1577481D01*
X1706587Y1577392D01*
X1706637Y1577305D01*
X1706691Y1577219D01*
X1706748Y1577136D01*
X1706808Y1577056D01*
X1706871Y1576977D01*
X1706938Y1576901D01*
X1707007Y1576828D01*
X1707079Y1576758D01*
X1707153Y1576690D01*
X1707230Y1576625D01*
X1707310Y1576564D01*
X1707392Y1576505D01*
X1707476Y1576450D01*
X1707562Y1576398D01*
X1707650Y1576349D01*
X1707740Y1576304D01*
X1707832Y1576262D01*
X1707925Y1576224D01*
X1708020Y1576190D01*
X1708115Y1576159D01*
X1708212Y1576132D01*
X1708310Y1576109D01*
X1708409Y1576089D01*
X1708509Y1576074D01*
X1708609Y1576062D01*
X1708709Y1576054D01*
X1708810Y1576050D01*
X1708910Y1576050D01*
X1709011Y1576054D01*
X1709111Y1576062D01*
X1709211Y1576074D01*
X1709311Y1576089D01*
X1709410Y1576109D01*
X1709508Y1576132D01*
X1709605Y1576159D01*
X1709700Y1576190D01*
X1709795Y1576224D01*
X1709888Y1576262D01*
X1709980Y1576304D01*
X1710070Y1576349D01*
X1710158Y1576398D01*
X1710244Y1576450D01*
X1710328Y1576505D01*
X1710410Y1576564D01*
X1710490Y1576625D01*
X1710567Y1576690D01*
X1710641Y1576758D01*
X1710713Y1576828D01*
X1710782Y1576901D01*
X1710849Y1576977D01*
X1710912Y1577056D01*
X1710972Y1577136D01*
X1711029Y1577219D01*
X1711083Y1577305D01*
X1711133Y1577392D01*
X1711180Y1577481D01*
X1711223Y1577572D01*
X1711263Y1577664D01*
X1711299Y1577758D01*
X1711332Y1577853D01*
X1711361Y1577950D01*
X1711386Y1578047D01*
X1711407Y1578146D01*
X1711425Y1578245D01*
X1711438Y1578345D01*
X1711448Y1578445D01*
X1711454Y1578545D01*
X1711456Y1578646D01*
X1655442Y1475615D02*
X1643758Y1475615D01*
X1655442Y1475615D02*
X1655442Y1478860D01*
X1655440Y1478973D01*
X1655434Y1479086D01*
X1655424Y1479199D01*
X1655410Y1479312D01*
X1655393Y1479424D01*
X1655371Y1479535D01*
X1655346Y1479645D01*
X1655316Y1479755D01*
X1655283Y1479863D01*
X1655246Y1479970D01*
X1655206Y1480076D01*
X1655161Y1480180D01*
X1655113Y1480283D01*
X1655062Y1480384D01*
X1655007Y1480483D01*
X1654949Y1480580D01*
X1654887Y1480675D01*
X1654822Y1480768D01*
X1654754Y1480858D01*
X1654683Y1480946D01*
X1654608Y1481032D01*
X1654531Y1481115D01*
X1654451Y1481195D01*
X1654368Y1481272D01*
X1654282Y1481347D01*
X1654194Y1481418D01*
X1654104Y1481486D01*
X1654011Y1481551D01*
X1653916Y1481613D01*
X1653819Y1481671D01*
X1653720Y1481726D01*
X1653619Y1481777D01*
X1653516Y1481825D01*
X1653412Y1481870D01*
X1653306Y1481910D01*
X1653199Y1481947D01*
X1653091Y1481980D01*
X1652981Y1482010D01*
X1652871Y1482035D01*
X1652760Y1482057D01*
X1652648Y1482074D01*
X1652535Y1482088D01*
X1652422Y1482098D01*
X1652309Y1482104D01*
X1652196Y1482106D01*
X1652083Y1482104D01*
X1651970Y1482098D01*
X1651857Y1482088D01*
X1651744Y1482074D01*
X1651632Y1482057D01*
X1651521Y1482035D01*
X1651411Y1482010D01*
X1651301Y1481980D01*
X1651193Y1481947D01*
X1651086Y1481910D01*
X1650980Y1481870D01*
X1650876Y1481825D01*
X1650773Y1481777D01*
X1650672Y1481726D01*
X1650573Y1481671D01*
X1650476Y1481613D01*
X1650381Y1481551D01*
X1650288Y1481486D01*
X1650198Y1481418D01*
X1650110Y1481347D01*
X1650024Y1481272D01*
X1649941Y1481195D01*
X1649861Y1481115D01*
X1649784Y1481032D01*
X1649709Y1480946D01*
X1649638Y1480858D01*
X1649570Y1480768D01*
X1649505Y1480675D01*
X1649443Y1480580D01*
X1649385Y1480483D01*
X1649330Y1480384D01*
X1649279Y1480283D01*
X1649231Y1480180D01*
X1649186Y1480076D01*
X1649146Y1479970D01*
X1649109Y1479863D01*
X1649076Y1479755D01*
X1649046Y1479645D01*
X1649021Y1479535D01*
X1648999Y1479424D01*
X1648982Y1479312D01*
X1648968Y1479199D01*
X1648958Y1479086D01*
X1648952Y1478973D01*
X1648950Y1478860D01*
X1648951Y1478860D02*
X1648951Y1475615D01*
X1648951Y1479509D02*
X1643758Y1482106D01*
X1652846Y1486971D02*
X1655442Y1490216D01*
X1643758Y1490216D01*
X1643758Y1486971D02*
X1643758Y1493462D01*
X1648951Y1500997D02*
X1648951Y1504892D01*
X1648951Y1500997D02*
X1648953Y1500898D01*
X1648959Y1500798D01*
X1648968Y1500699D01*
X1648981Y1500601D01*
X1648998Y1500503D01*
X1649019Y1500405D01*
X1649044Y1500309D01*
X1649072Y1500214D01*
X1649104Y1500120D01*
X1649139Y1500027D01*
X1649178Y1499935D01*
X1649221Y1499845D01*
X1649266Y1499757D01*
X1649316Y1499670D01*
X1649368Y1499586D01*
X1649424Y1499503D01*
X1649482Y1499423D01*
X1649544Y1499345D01*
X1649609Y1499270D01*
X1649677Y1499197D01*
X1649747Y1499127D01*
X1649820Y1499059D01*
X1649895Y1498994D01*
X1649973Y1498932D01*
X1650053Y1498874D01*
X1650136Y1498818D01*
X1650220Y1498766D01*
X1650307Y1498716D01*
X1650395Y1498671D01*
X1650485Y1498628D01*
X1650577Y1498589D01*
X1650670Y1498554D01*
X1650764Y1498522D01*
X1650859Y1498494D01*
X1650955Y1498469D01*
X1651053Y1498448D01*
X1651151Y1498431D01*
X1651249Y1498418D01*
X1651348Y1498409D01*
X1651448Y1498403D01*
X1651547Y1498401D01*
X1652196Y1498401D01*
X1652196Y1498400D02*
X1652309Y1498402D01*
X1652422Y1498408D01*
X1652535Y1498418D01*
X1652648Y1498432D01*
X1652760Y1498449D01*
X1652871Y1498471D01*
X1652981Y1498496D01*
X1653091Y1498526D01*
X1653199Y1498559D01*
X1653306Y1498596D01*
X1653412Y1498636D01*
X1653516Y1498681D01*
X1653619Y1498729D01*
X1653720Y1498780D01*
X1653819Y1498835D01*
X1653916Y1498893D01*
X1654011Y1498955D01*
X1654104Y1499020D01*
X1654194Y1499088D01*
X1654282Y1499159D01*
X1654368Y1499234D01*
X1654451Y1499311D01*
X1654531Y1499391D01*
X1654608Y1499474D01*
X1654683Y1499560D01*
X1654754Y1499648D01*
X1654822Y1499738D01*
X1654887Y1499831D01*
X1654949Y1499926D01*
X1655007Y1500023D01*
X1655062Y1500122D01*
X1655113Y1500223D01*
X1655161Y1500326D01*
X1655206Y1500430D01*
X1655246Y1500536D01*
X1655283Y1500643D01*
X1655316Y1500751D01*
X1655346Y1500861D01*
X1655371Y1500971D01*
X1655393Y1501082D01*
X1655410Y1501194D01*
X1655424Y1501307D01*
X1655434Y1501420D01*
X1655440Y1501533D01*
X1655442Y1501646D01*
X1655440Y1501759D01*
X1655434Y1501872D01*
X1655424Y1501985D01*
X1655410Y1502098D01*
X1655393Y1502210D01*
X1655371Y1502321D01*
X1655346Y1502431D01*
X1655316Y1502541D01*
X1655283Y1502649D01*
X1655246Y1502756D01*
X1655206Y1502862D01*
X1655161Y1502966D01*
X1655113Y1503069D01*
X1655062Y1503170D01*
X1655007Y1503269D01*
X1654949Y1503366D01*
X1654887Y1503461D01*
X1654822Y1503554D01*
X1654754Y1503644D01*
X1654683Y1503732D01*
X1654608Y1503818D01*
X1654531Y1503901D01*
X1654451Y1503981D01*
X1654368Y1504058D01*
X1654282Y1504133D01*
X1654194Y1504204D01*
X1654104Y1504272D01*
X1654011Y1504337D01*
X1653916Y1504399D01*
X1653819Y1504457D01*
X1653720Y1504512D01*
X1653619Y1504563D01*
X1653516Y1504611D01*
X1653412Y1504656D01*
X1653306Y1504696D01*
X1653199Y1504733D01*
X1653091Y1504766D01*
X1652981Y1504796D01*
X1652871Y1504821D01*
X1652760Y1504843D01*
X1652648Y1504860D01*
X1652535Y1504874D01*
X1652422Y1504884D01*
X1652309Y1504890D01*
X1652196Y1504892D01*
X1648951Y1504892D01*
X1648808Y1504890D01*
X1648665Y1504884D01*
X1648522Y1504874D01*
X1648380Y1504860D01*
X1648238Y1504843D01*
X1648096Y1504821D01*
X1647955Y1504796D01*
X1647815Y1504766D01*
X1647676Y1504733D01*
X1647538Y1504696D01*
X1647401Y1504655D01*
X1647265Y1504611D01*
X1647130Y1504562D01*
X1646997Y1504510D01*
X1646865Y1504455D01*
X1646735Y1504395D01*
X1646606Y1504332D01*
X1646479Y1504266D01*
X1646355Y1504196D01*
X1646232Y1504123D01*
X1646111Y1504046D01*
X1645992Y1503966D01*
X1645876Y1503883D01*
X1645761Y1503797D01*
X1645650Y1503708D01*
X1645540Y1503615D01*
X1645434Y1503520D01*
X1645330Y1503421D01*
X1645229Y1503320D01*
X1645130Y1503216D01*
X1645035Y1503110D01*
X1644942Y1503000D01*
X1644853Y1502889D01*
X1644767Y1502774D01*
X1644684Y1502658D01*
X1644604Y1502539D01*
X1644527Y1502418D01*
X1644454Y1502296D01*
X1644384Y1502171D01*
X1644318Y1502044D01*
X1644255Y1501915D01*
X1644195Y1501785D01*
X1644140Y1501653D01*
X1644088Y1501520D01*
X1644039Y1501385D01*
X1643995Y1501249D01*
X1643954Y1501112D01*
X1643917Y1500974D01*
X1643884Y1500835D01*
X1643854Y1500695D01*
X1643829Y1500554D01*
X1643807Y1500412D01*
X1643790Y1500270D01*
X1643776Y1500128D01*
X1643766Y1499985D01*
X1643760Y1499842D01*
X1643758Y1499699D01*
X1629892Y1466242D02*
X1629892Y1454558D01*
X1629892Y1466242D02*
X1626646Y1466242D01*
X1626533Y1466240D01*
X1626420Y1466234D01*
X1626307Y1466224D01*
X1626194Y1466210D01*
X1626082Y1466193D01*
X1625971Y1466171D01*
X1625861Y1466146D01*
X1625751Y1466116D01*
X1625643Y1466083D01*
X1625536Y1466046D01*
X1625430Y1466006D01*
X1625326Y1465961D01*
X1625223Y1465913D01*
X1625122Y1465862D01*
X1625023Y1465807D01*
X1624926Y1465749D01*
X1624831Y1465687D01*
X1624738Y1465622D01*
X1624648Y1465554D01*
X1624560Y1465483D01*
X1624474Y1465408D01*
X1624391Y1465331D01*
X1624311Y1465251D01*
X1624234Y1465168D01*
X1624159Y1465082D01*
X1624088Y1464994D01*
X1624020Y1464904D01*
X1623955Y1464811D01*
X1623893Y1464716D01*
X1623835Y1464619D01*
X1623780Y1464520D01*
X1623729Y1464419D01*
X1623681Y1464316D01*
X1623636Y1464212D01*
X1623596Y1464106D01*
X1623559Y1463999D01*
X1623526Y1463891D01*
X1623496Y1463781D01*
X1623471Y1463671D01*
X1623449Y1463560D01*
X1623432Y1463448D01*
X1623418Y1463335D01*
X1623408Y1463222D01*
X1623402Y1463109D01*
X1623400Y1462996D01*
X1623402Y1462883D01*
X1623408Y1462770D01*
X1623418Y1462657D01*
X1623432Y1462544D01*
X1623449Y1462432D01*
X1623471Y1462321D01*
X1623496Y1462211D01*
X1623526Y1462101D01*
X1623559Y1461993D01*
X1623596Y1461886D01*
X1623636Y1461780D01*
X1623681Y1461676D01*
X1623729Y1461573D01*
X1623780Y1461472D01*
X1623835Y1461373D01*
X1623893Y1461276D01*
X1623955Y1461181D01*
X1624020Y1461088D01*
X1624088Y1460998D01*
X1624159Y1460910D01*
X1624234Y1460824D01*
X1624311Y1460741D01*
X1624391Y1460661D01*
X1624474Y1460584D01*
X1624560Y1460509D01*
X1624648Y1460438D01*
X1624738Y1460370D01*
X1624831Y1460305D01*
X1624926Y1460243D01*
X1625023Y1460185D01*
X1625122Y1460130D01*
X1625223Y1460079D01*
X1625326Y1460031D01*
X1625430Y1459986D01*
X1625536Y1459946D01*
X1625643Y1459909D01*
X1625751Y1459876D01*
X1625861Y1459846D01*
X1625971Y1459821D01*
X1626082Y1459799D01*
X1626194Y1459782D01*
X1626307Y1459768D01*
X1626420Y1459758D01*
X1626533Y1459752D01*
X1626646Y1459750D01*
X1626646Y1459751D02*
X1629892Y1459751D01*
X1625997Y1459751D02*
X1623401Y1454558D01*
X1612045Y1463321D02*
X1612047Y1463428D01*
X1612053Y1463534D01*
X1612063Y1463640D01*
X1612076Y1463746D01*
X1612094Y1463852D01*
X1612115Y1463956D01*
X1612140Y1464060D01*
X1612169Y1464163D01*
X1612201Y1464264D01*
X1612238Y1464364D01*
X1612278Y1464463D01*
X1612321Y1464561D01*
X1612368Y1464657D01*
X1612419Y1464751D01*
X1612473Y1464843D01*
X1612530Y1464933D01*
X1612590Y1465021D01*
X1612654Y1465106D01*
X1612721Y1465189D01*
X1612791Y1465270D01*
X1612863Y1465348D01*
X1612939Y1465424D01*
X1613017Y1465496D01*
X1613098Y1465566D01*
X1613181Y1465633D01*
X1613266Y1465697D01*
X1613354Y1465757D01*
X1613444Y1465814D01*
X1613536Y1465868D01*
X1613630Y1465919D01*
X1613726Y1465966D01*
X1613824Y1466009D01*
X1613923Y1466049D01*
X1614023Y1466086D01*
X1614124Y1466118D01*
X1614227Y1466147D01*
X1614331Y1466172D01*
X1614435Y1466193D01*
X1614541Y1466211D01*
X1614647Y1466224D01*
X1614753Y1466234D01*
X1614859Y1466240D01*
X1614966Y1466242D01*
X1615087Y1466240D01*
X1615208Y1466234D01*
X1615328Y1466224D01*
X1615449Y1466211D01*
X1615568Y1466193D01*
X1615688Y1466172D01*
X1615806Y1466147D01*
X1615923Y1466118D01*
X1616040Y1466085D01*
X1616155Y1466049D01*
X1616269Y1466008D01*
X1616382Y1465965D01*
X1616494Y1465917D01*
X1616603Y1465866D01*
X1616711Y1465811D01*
X1616818Y1465753D01*
X1616922Y1465692D01*
X1617024Y1465627D01*
X1617124Y1465559D01*
X1617222Y1465488D01*
X1617318Y1465414D01*
X1617411Y1465337D01*
X1617501Y1465256D01*
X1617589Y1465173D01*
X1617674Y1465087D01*
X1617757Y1464998D01*
X1617836Y1464907D01*
X1617913Y1464813D01*
X1617986Y1464717D01*
X1618056Y1464619D01*
X1618123Y1464518D01*
X1618187Y1464415D01*
X1618248Y1464310D01*
X1618305Y1464203D01*
X1618358Y1464095D01*
X1618408Y1463985D01*
X1618454Y1463873D01*
X1618497Y1463760D01*
X1618536Y1463645D01*
X1613019Y1461049D02*
X1612940Y1461127D01*
X1612864Y1461207D01*
X1612791Y1461290D01*
X1612721Y1461376D01*
X1612654Y1461463D01*
X1612590Y1461554D01*
X1612530Y1461646D01*
X1612472Y1461740D01*
X1612418Y1461837D01*
X1612368Y1461935D01*
X1612321Y1462035D01*
X1612277Y1462136D01*
X1612237Y1462239D01*
X1612201Y1462344D01*
X1612169Y1462449D01*
X1612140Y1462556D01*
X1612115Y1462663D01*
X1612093Y1462772D01*
X1612076Y1462881D01*
X1612062Y1462990D01*
X1612053Y1463100D01*
X1612047Y1463211D01*
X1612045Y1463321D01*
X1613018Y1461049D02*
X1618536Y1454558D01*
X1612045Y1454558D01*
X1607106Y1460400D02*
X1607103Y1460630D01*
X1607095Y1460860D01*
X1607081Y1461089D01*
X1607062Y1461318D01*
X1607037Y1461547D01*
X1607007Y1461775D01*
X1606972Y1462002D01*
X1606931Y1462228D01*
X1606885Y1462453D01*
X1606833Y1462677D01*
X1606776Y1462900D01*
X1606714Y1463121D01*
X1606646Y1463341D01*
X1606573Y1463559D01*
X1606495Y1463775D01*
X1606412Y1463989D01*
X1606324Y1464202D01*
X1606231Y1464412D01*
X1606132Y1464619D01*
X1606099Y1464709D01*
X1606063Y1464798D01*
X1606023Y1464886D01*
X1605979Y1464971D01*
X1605932Y1465055D01*
X1605882Y1465137D01*
X1605828Y1465217D01*
X1605772Y1465294D01*
X1605712Y1465370D01*
X1605649Y1465443D01*
X1605584Y1465513D01*
X1605515Y1465581D01*
X1605444Y1465645D01*
X1605371Y1465707D01*
X1605295Y1465766D01*
X1605217Y1465822D01*
X1605136Y1465875D01*
X1605054Y1465924D01*
X1604970Y1465970D01*
X1604883Y1466013D01*
X1604796Y1466052D01*
X1604706Y1466088D01*
X1604616Y1466120D01*
X1604524Y1466148D01*
X1604431Y1466173D01*
X1604337Y1466194D01*
X1604243Y1466211D01*
X1604148Y1466225D01*
X1604052Y1466234D01*
X1603956Y1466240D01*
X1603860Y1466242D01*
X1603764Y1466240D01*
X1603668Y1466234D01*
X1603572Y1466225D01*
X1603477Y1466211D01*
X1603383Y1466194D01*
X1603289Y1466173D01*
X1603196Y1466148D01*
X1603104Y1466120D01*
X1603014Y1466088D01*
X1602924Y1466052D01*
X1602837Y1466013D01*
X1602750Y1465970D01*
X1602666Y1465924D01*
X1602584Y1465875D01*
X1602503Y1465822D01*
X1602425Y1465766D01*
X1602349Y1465707D01*
X1602276Y1465645D01*
X1602205Y1465581D01*
X1602136Y1465513D01*
X1602071Y1465443D01*
X1602008Y1465370D01*
X1601948Y1465295D01*
X1601892Y1465217D01*
X1601838Y1465137D01*
X1601788Y1465055D01*
X1601741Y1464971D01*
X1601698Y1464886D01*
X1601657Y1464798D01*
X1601621Y1464709D01*
X1601588Y1464619D01*
X1601589Y1464619D02*
X1601490Y1464411D01*
X1601397Y1464201D01*
X1601309Y1463989D01*
X1601226Y1463775D01*
X1601148Y1463558D01*
X1601075Y1463340D01*
X1601007Y1463121D01*
X1600945Y1462899D01*
X1600888Y1462677D01*
X1600836Y1462453D01*
X1600790Y1462228D01*
X1600749Y1462002D01*
X1600714Y1461774D01*
X1600684Y1461547D01*
X1600659Y1461318D01*
X1600640Y1461089D01*
X1600626Y1460860D01*
X1600618Y1460630D01*
X1600615Y1460400D01*
X1607106Y1460400D02*
X1607103Y1460170D01*
X1607095Y1459940D01*
X1607081Y1459711D01*
X1607062Y1459482D01*
X1607037Y1459253D01*
X1607007Y1459025D01*
X1606972Y1458798D01*
X1606931Y1458572D01*
X1606885Y1458347D01*
X1606833Y1458123D01*
X1606776Y1457900D01*
X1606714Y1457679D01*
X1606646Y1457459D01*
X1606573Y1457241D01*
X1606495Y1457025D01*
X1606412Y1456811D01*
X1606324Y1456599D01*
X1606231Y1456388D01*
X1606132Y1456181D01*
X1606099Y1456091D01*
X1606063Y1456002D01*
X1606022Y1455914D01*
X1605979Y1455829D01*
X1605932Y1455745D01*
X1605882Y1455663D01*
X1605828Y1455583D01*
X1605772Y1455506D01*
X1605712Y1455430D01*
X1605649Y1455357D01*
X1605584Y1455287D01*
X1605515Y1455219D01*
X1605444Y1455155D01*
X1605371Y1455093D01*
X1605295Y1455034D01*
X1605217Y1454978D01*
X1605136Y1454925D01*
X1605054Y1454876D01*
X1604970Y1454830D01*
X1604883Y1454787D01*
X1604796Y1454748D01*
X1604706Y1454712D01*
X1604616Y1454680D01*
X1604524Y1454652D01*
X1604431Y1454627D01*
X1604337Y1454606D01*
X1604243Y1454589D01*
X1604148Y1454575D01*
X1604052Y1454566D01*
X1603956Y1454560D01*
X1603860Y1454558D01*
X1601588Y1456181D02*
X1601489Y1456388D01*
X1601396Y1456599D01*
X1601308Y1456811D01*
X1601225Y1457025D01*
X1601147Y1457241D01*
X1601074Y1457459D01*
X1601006Y1457679D01*
X1600944Y1457900D01*
X1600887Y1458123D01*
X1600835Y1458347D01*
X1600789Y1458572D01*
X1600748Y1458798D01*
X1600713Y1459025D01*
X1600683Y1459253D01*
X1600658Y1459482D01*
X1600639Y1459711D01*
X1600625Y1459940D01*
X1600617Y1460170D01*
X1600614Y1460400D01*
X1601588Y1456181D02*
X1601621Y1456091D01*
X1601657Y1456002D01*
X1601698Y1455914D01*
X1601741Y1455829D01*
X1601788Y1455745D01*
X1601838Y1455663D01*
X1601892Y1455583D01*
X1601948Y1455505D01*
X1602008Y1455430D01*
X1602071Y1455357D01*
X1602136Y1455287D01*
X1602205Y1455219D01*
X1602276Y1455155D01*
X1602349Y1455093D01*
X1602425Y1455034D01*
X1602503Y1454978D01*
X1602584Y1454925D01*
X1602666Y1454876D01*
X1602750Y1454830D01*
X1602837Y1454787D01*
X1602924Y1454748D01*
X1603014Y1454712D01*
X1603104Y1454680D01*
X1603196Y1454652D01*
X1603289Y1454627D01*
X1603383Y1454606D01*
X1603477Y1454589D01*
X1603572Y1454575D01*
X1603668Y1454566D01*
X1603764Y1454560D01*
X1603860Y1454558D01*
X1606457Y1457154D02*
X1601264Y1463646D01*
X1539892Y1466242D02*
X1539892Y1454558D01*
X1539892Y1466242D02*
X1536646Y1466242D01*
X1536533Y1466240D01*
X1536420Y1466234D01*
X1536307Y1466224D01*
X1536194Y1466210D01*
X1536082Y1466193D01*
X1535971Y1466171D01*
X1535861Y1466146D01*
X1535751Y1466116D01*
X1535643Y1466083D01*
X1535536Y1466046D01*
X1535430Y1466006D01*
X1535326Y1465961D01*
X1535223Y1465913D01*
X1535122Y1465862D01*
X1535023Y1465807D01*
X1534926Y1465749D01*
X1534831Y1465687D01*
X1534738Y1465622D01*
X1534648Y1465554D01*
X1534560Y1465483D01*
X1534474Y1465408D01*
X1534391Y1465331D01*
X1534311Y1465251D01*
X1534234Y1465168D01*
X1534159Y1465082D01*
X1534088Y1464994D01*
X1534020Y1464904D01*
X1533955Y1464811D01*
X1533893Y1464716D01*
X1533835Y1464619D01*
X1533780Y1464520D01*
X1533729Y1464419D01*
X1533681Y1464316D01*
X1533636Y1464212D01*
X1533596Y1464106D01*
X1533559Y1463999D01*
X1533526Y1463891D01*
X1533496Y1463781D01*
X1533471Y1463671D01*
X1533449Y1463560D01*
X1533432Y1463448D01*
X1533418Y1463335D01*
X1533408Y1463222D01*
X1533402Y1463109D01*
X1533400Y1462996D01*
X1533402Y1462883D01*
X1533408Y1462770D01*
X1533418Y1462657D01*
X1533432Y1462544D01*
X1533449Y1462432D01*
X1533471Y1462321D01*
X1533496Y1462211D01*
X1533526Y1462101D01*
X1533559Y1461993D01*
X1533596Y1461886D01*
X1533636Y1461780D01*
X1533681Y1461676D01*
X1533729Y1461573D01*
X1533780Y1461472D01*
X1533835Y1461373D01*
X1533893Y1461276D01*
X1533955Y1461181D01*
X1534020Y1461088D01*
X1534088Y1460998D01*
X1534159Y1460910D01*
X1534234Y1460824D01*
X1534311Y1460741D01*
X1534391Y1460661D01*
X1534474Y1460584D01*
X1534560Y1460509D01*
X1534648Y1460438D01*
X1534738Y1460370D01*
X1534831Y1460305D01*
X1534926Y1460243D01*
X1535023Y1460185D01*
X1535122Y1460130D01*
X1535223Y1460079D01*
X1535326Y1460031D01*
X1535430Y1459986D01*
X1535536Y1459946D01*
X1535643Y1459909D01*
X1535751Y1459876D01*
X1535861Y1459846D01*
X1535971Y1459821D01*
X1536082Y1459799D01*
X1536194Y1459782D01*
X1536307Y1459768D01*
X1536420Y1459758D01*
X1536533Y1459752D01*
X1536646Y1459750D01*
X1536646Y1459751D02*
X1539892Y1459751D01*
X1535997Y1459751D02*
X1533401Y1454558D01*
X1522045Y1463321D02*
X1522047Y1463428D01*
X1522053Y1463534D01*
X1522063Y1463640D01*
X1522076Y1463746D01*
X1522094Y1463852D01*
X1522115Y1463956D01*
X1522140Y1464060D01*
X1522169Y1464163D01*
X1522201Y1464264D01*
X1522238Y1464364D01*
X1522278Y1464463D01*
X1522321Y1464561D01*
X1522368Y1464657D01*
X1522419Y1464751D01*
X1522473Y1464843D01*
X1522530Y1464933D01*
X1522590Y1465021D01*
X1522654Y1465106D01*
X1522721Y1465189D01*
X1522791Y1465270D01*
X1522863Y1465348D01*
X1522939Y1465424D01*
X1523017Y1465496D01*
X1523098Y1465566D01*
X1523181Y1465633D01*
X1523266Y1465697D01*
X1523354Y1465757D01*
X1523444Y1465814D01*
X1523536Y1465868D01*
X1523630Y1465919D01*
X1523726Y1465966D01*
X1523824Y1466009D01*
X1523923Y1466049D01*
X1524023Y1466086D01*
X1524124Y1466118D01*
X1524227Y1466147D01*
X1524331Y1466172D01*
X1524435Y1466193D01*
X1524541Y1466211D01*
X1524647Y1466224D01*
X1524753Y1466234D01*
X1524859Y1466240D01*
X1524966Y1466242D01*
X1525087Y1466240D01*
X1525208Y1466234D01*
X1525328Y1466224D01*
X1525449Y1466211D01*
X1525568Y1466193D01*
X1525688Y1466172D01*
X1525806Y1466147D01*
X1525923Y1466118D01*
X1526040Y1466085D01*
X1526155Y1466049D01*
X1526269Y1466008D01*
X1526382Y1465965D01*
X1526494Y1465917D01*
X1526603Y1465866D01*
X1526711Y1465811D01*
X1526818Y1465753D01*
X1526922Y1465692D01*
X1527024Y1465627D01*
X1527124Y1465559D01*
X1527222Y1465488D01*
X1527318Y1465414D01*
X1527411Y1465337D01*
X1527501Y1465256D01*
X1527589Y1465173D01*
X1527674Y1465087D01*
X1527757Y1464998D01*
X1527836Y1464907D01*
X1527913Y1464813D01*
X1527986Y1464717D01*
X1528056Y1464619D01*
X1528123Y1464518D01*
X1528187Y1464415D01*
X1528248Y1464310D01*
X1528305Y1464203D01*
X1528358Y1464095D01*
X1528408Y1463985D01*
X1528454Y1463873D01*
X1528497Y1463760D01*
X1528536Y1463645D01*
X1523019Y1461049D02*
X1522940Y1461127D01*
X1522864Y1461207D01*
X1522791Y1461290D01*
X1522721Y1461376D01*
X1522654Y1461463D01*
X1522590Y1461554D01*
X1522530Y1461646D01*
X1522472Y1461740D01*
X1522418Y1461837D01*
X1522368Y1461935D01*
X1522321Y1462035D01*
X1522277Y1462136D01*
X1522237Y1462239D01*
X1522201Y1462344D01*
X1522169Y1462449D01*
X1522140Y1462556D01*
X1522115Y1462663D01*
X1522093Y1462772D01*
X1522076Y1462881D01*
X1522062Y1462990D01*
X1522053Y1463100D01*
X1522047Y1463211D01*
X1522045Y1463321D01*
X1523018Y1461049D02*
X1528536Y1454558D01*
X1522045Y1454558D01*
X1517106Y1463646D02*
X1513860Y1466242D01*
X1513860Y1454558D01*
X1510615Y1454558D02*
X1517106Y1454558D01*
X954892Y1564558D02*
X954892Y1576242D01*
X951646Y1576242D01*
X951533Y1576240D01*
X951420Y1576234D01*
X951307Y1576224D01*
X951194Y1576210D01*
X951082Y1576193D01*
X950971Y1576171D01*
X950861Y1576146D01*
X950751Y1576116D01*
X950643Y1576083D01*
X950536Y1576046D01*
X950430Y1576006D01*
X950326Y1575961D01*
X950223Y1575913D01*
X950122Y1575862D01*
X950023Y1575807D01*
X949926Y1575749D01*
X949831Y1575687D01*
X949738Y1575622D01*
X949648Y1575554D01*
X949560Y1575483D01*
X949474Y1575408D01*
X949391Y1575331D01*
X949311Y1575251D01*
X949234Y1575168D01*
X949159Y1575082D01*
X949088Y1574994D01*
X949020Y1574904D01*
X948955Y1574811D01*
X948893Y1574716D01*
X948835Y1574619D01*
X948780Y1574520D01*
X948729Y1574419D01*
X948681Y1574316D01*
X948636Y1574212D01*
X948596Y1574106D01*
X948559Y1573999D01*
X948526Y1573891D01*
X948496Y1573781D01*
X948471Y1573671D01*
X948449Y1573560D01*
X948432Y1573448D01*
X948418Y1573335D01*
X948408Y1573222D01*
X948402Y1573109D01*
X948400Y1572996D01*
X948402Y1572883D01*
X948408Y1572770D01*
X948418Y1572657D01*
X948432Y1572544D01*
X948449Y1572432D01*
X948471Y1572321D01*
X948496Y1572211D01*
X948526Y1572101D01*
X948559Y1571993D01*
X948596Y1571886D01*
X948636Y1571780D01*
X948681Y1571676D01*
X948729Y1571573D01*
X948780Y1571472D01*
X948835Y1571373D01*
X948893Y1571276D01*
X948955Y1571181D01*
X949020Y1571088D01*
X949088Y1570998D01*
X949159Y1570910D01*
X949234Y1570824D01*
X949311Y1570741D01*
X949391Y1570661D01*
X949474Y1570584D01*
X949560Y1570509D01*
X949648Y1570438D01*
X949738Y1570370D01*
X949831Y1570305D01*
X949926Y1570243D01*
X950023Y1570185D01*
X950122Y1570130D01*
X950223Y1570079D01*
X950326Y1570031D01*
X950430Y1569986D01*
X950536Y1569946D01*
X950643Y1569909D01*
X950751Y1569876D01*
X950861Y1569846D01*
X950971Y1569821D01*
X951082Y1569799D01*
X951194Y1569782D01*
X951307Y1569768D01*
X951420Y1569758D01*
X951533Y1569752D01*
X951646Y1569750D01*
X951646Y1569751D02*
X954892Y1569751D01*
X950997Y1569751D02*
X948401Y1564558D01*
X937045Y1573321D02*
X937047Y1573428D01*
X937053Y1573534D01*
X937063Y1573640D01*
X937076Y1573746D01*
X937094Y1573852D01*
X937115Y1573956D01*
X937140Y1574060D01*
X937169Y1574163D01*
X937201Y1574264D01*
X937238Y1574364D01*
X937278Y1574463D01*
X937321Y1574561D01*
X937368Y1574657D01*
X937419Y1574751D01*
X937473Y1574843D01*
X937530Y1574933D01*
X937590Y1575021D01*
X937654Y1575106D01*
X937721Y1575189D01*
X937791Y1575270D01*
X937863Y1575348D01*
X937939Y1575424D01*
X938017Y1575496D01*
X938098Y1575566D01*
X938181Y1575633D01*
X938266Y1575697D01*
X938354Y1575757D01*
X938444Y1575814D01*
X938536Y1575868D01*
X938630Y1575919D01*
X938726Y1575966D01*
X938824Y1576009D01*
X938923Y1576049D01*
X939023Y1576086D01*
X939124Y1576118D01*
X939227Y1576147D01*
X939331Y1576172D01*
X939435Y1576193D01*
X939541Y1576211D01*
X939647Y1576224D01*
X939753Y1576234D01*
X939859Y1576240D01*
X939966Y1576242D01*
X940087Y1576240D01*
X940208Y1576234D01*
X940328Y1576224D01*
X940449Y1576211D01*
X940568Y1576193D01*
X940688Y1576172D01*
X940806Y1576147D01*
X940923Y1576118D01*
X941040Y1576085D01*
X941155Y1576049D01*
X941269Y1576008D01*
X941382Y1575965D01*
X941494Y1575917D01*
X941603Y1575866D01*
X941711Y1575811D01*
X941818Y1575753D01*
X941922Y1575692D01*
X942024Y1575627D01*
X942124Y1575559D01*
X942222Y1575488D01*
X942318Y1575414D01*
X942411Y1575337D01*
X942501Y1575256D01*
X942589Y1575173D01*
X942674Y1575087D01*
X942757Y1574998D01*
X942836Y1574907D01*
X942913Y1574813D01*
X942986Y1574717D01*
X943056Y1574619D01*
X943123Y1574518D01*
X943187Y1574415D01*
X943248Y1574310D01*
X943305Y1574203D01*
X943358Y1574095D01*
X943408Y1573985D01*
X943454Y1573873D01*
X943497Y1573760D01*
X943536Y1573645D01*
X938019Y1571049D02*
X937940Y1571127D01*
X937864Y1571207D01*
X937791Y1571290D01*
X937721Y1571376D01*
X937654Y1571463D01*
X937590Y1571554D01*
X937530Y1571646D01*
X937472Y1571740D01*
X937418Y1571837D01*
X937368Y1571935D01*
X937321Y1572035D01*
X937277Y1572136D01*
X937237Y1572239D01*
X937201Y1572344D01*
X937169Y1572449D01*
X937140Y1572556D01*
X937115Y1572663D01*
X937093Y1572772D01*
X937076Y1572881D01*
X937062Y1572990D01*
X937053Y1573100D01*
X937047Y1573211D01*
X937045Y1573321D01*
X938018Y1571049D02*
X943536Y1564558D01*
X937045Y1564558D01*
X932106Y1574944D02*
X932106Y1576242D01*
X925615Y1576242D01*
X928860Y1564558D01*
X864892Y1564558D02*
X864892Y1576242D01*
X861646Y1576242D01*
X861533Y1576240D01*
X861420Y1576234D01*
X861307Y1576224D01*
X861194Y1576210D01*
X861082Y1576193D01*
X860971Y1576171D01*
X860861Y1576146D01*
X860751Y1576116D01*
X860643Y1576083D01*
X860536Y1576046D01*
X860430Y1576006D01*
X860326Y1575961D01*
X860223Y1575913D01*
X860122Y1575862D01*
X860023Y1575807D01*
X859926Y1575749D01*
X859831Y1575687D01*
X859738Y1575622D01*
X859648Y1575554D01*
X859560Y1575483D01*
X859474Y1575408D01*
X859391Y1575331D01*
X859311Y1575251D01*
X859234Y1575168D01*
X859159Y1575082D01*
X859088Y1574994D01*
X859020Y1574904D01*
X858955Y1574811D01*
X858893Y1574716D01*
X858835Y1574619D01*
X858780Y1574520D01*
X858729Y1574419D01*
X858681Y1574316D01*
X858636Y1574212D01*
X858596Y1574106D01*
X858559Y1573999D01*
X858526Y1573891D01*
X858496Y1573781D01*
X858471Y1573671D01*
X858449Y1573560D01*
X858432Y1573448D01*
X858418Y1573335D01*
X858408Y1573222D01*
X858402Y1573109D01*
X858400Y1572996D01*
X858402Y1572883D01*
X858408Y1572770D01*
X858418Y1572657D01*
X858432Y1572544D01*
X858449Y1572432D01*
X858471Y1572321D01*
X858496Y1572211D01*
X858526Y1572101D01*
X858559Y1571993D01*
X858596Y1571886D01*
X858636Y1571780D01*
X858681Y1571676D01*
X858729Y1571573D01*
X858780Y1571472D01*
X858835Y1571373D01*
X858893Y1571276D01*
X858955Y1571181D01*
X859020Y1571088D01*
X859088Y1570998D01*
X859159Y1570910D01*
X859234Y1570824D01*
X859311Y1570741D01*
X859391Y1570661D01*
X859474Y1570584D01*
X859560Y1570509D01*
X859648Y1570438D01*
X859738Y1570370D01*
X859831Y1570305D01*
X859926Y1570243D01*
X860023Y1570185D01*
X860122Y1570130D01*
X860223Y1570079D01*
X860326Y1570031D01*
X860430Y1569986D01*
X860536Y1569946D01*
X860643Y1569909D01*
X860751Y1569876D01*
X860861Y1569846D01*
X860971Y1569821D01*
X861082Y1569799D01*
X861194Y1569782D01*
X861307Y1569768D01*
X861420Y1569758D01*
X861533Y1569752D01*
X861646Y1569750D01*
X861646Y1569751D02*
X864892Y1569751D01*
X860997Y1569751D02*
X858401Y1564558D01*
X847045Y1573321D02*
X847047Y1573428D01*
X847053Y1573534D01*
X847063Y1573640D01*
X847076Y1573746D01*
X847094Y1573852D01*
X847115Y1573956D01*
X847140Y1574060D01*
X847169Y1574163D01*
X847201Y1574264D01*
X847238Y1574364D01*
X847278Y1574463D01*
X847321Y1574561D01*
X847368Y1574657D01*
X847419Y1574751D01*
X847473Y1574843D01*
X847530Y1574933D01*
X847590Y1575021D01*
X847654Y1575106D01*
X847721Y1575189D01*
X847791Y1575270D01*
X847863Y1575348D01*
X847939Y1575424D01*
X848017Y1575496D01*
X848098Y1575566D01*
X848181Y1575633D01*
X848266Y1575697D01*
X848354Y1575757D01*
X848444Y1575814D01*
X848536Y1575868D01*
X848630Y1575919D01*
X848726Y1575966D01*
X848824Y1576009D01*
X848923Y1576049D01*
X849023Y1576086D01*
X849124Y1576118D01*
X849227Y1576147D01*
X849331Y1576172D01*
X849435Y1576193D01*
X849541Y1576211D01*
X849647Y1576224D01*
X849753Y1576234D01*
X849859Y1576240D01*
X849966Y1576242D01*
X850087Y1576240D01*
X850208Y1576234D01*
X850328Y1576224D01*
X850449Y1576211D01*
X850568Y1576193D01*
X850688Y1576172D01*
X850806Y1576147D01*
X850923Y1576118D01*
X851040Y1576085D01*
X851155Y1576049D01*
X851269Y1576008D01*
X851382Y1575965D01*
X851494Y1575917D01*
X851603Y1575866D01*
X851711Y1575811D01*
X851818Y1575753D01*
X851922Y1575692D01*
X852024Y1575627D01*
X852124Y1575559D01*
X852222Y1575488D01*
X852318Y1575414D01*
X852411Y1575337D01*
X852501Y1575256D01*
X852589Y1575173D01*
X852674Y1575087D01*
X852757Y1574998D01*
X852836Y1574907D01*
X852913Y1574813D01*
X852986Y1574717D01*
X853056Y1574619D01*
X853123Y1574518D01*
X853187Y1574415D01*
X853248Y1574310D01*
X853305Y1574203D01*
X853358Y1574095D01*
X853408Y1573985D01*
X853454Y1573873D01*
X853497Y1573760D01*
X853536Y1573645D01*
X848019Y1571049D02*
X847940Y1571127D01*
X847864Y1571207D01*
X847791Y1571290D01*
X847721Y1571376D01*
X847654Y1571463D01*
X847590Y1571554D01*
X847530Y1571646D01*
X847472Y1571740D01*
X847418Y1571837D01*
X847368Y1571935D01*
X847321Y1572035D01*
X847277Y1572136D01*
X847237Y1572239D01*
X847201Y1572344D01*
X847169Y1572449D01*
X847140Y1572556D01*
X847115Y1572663D01*
X847093Y1572772D01*
X847076Y1572881D01*
X847062Y1572990D01*
X847053Y1573100D01*
X847047Y1573211D01*
X847045Y1573321D01*
X848018Y1571049D02*
X853536Y1564558D01*
X847045Y1564558D01*
X842106Y1567804D02*
X842104Y1567917D01*
X842098Y1568030D01*
X842088Y1568143D01*
X842074Y1568256D01*
X842057Y1568368D01*
X842035Y1568479D01*
X842010Y1568589D01*
X841980Y1568699D01*
X841947Y1568807D01*
X841910Y1568914D01*
X841870Y1569020D01*
X841825Y1569124D01*
X841777Y1569227D01*
X841726Y1569328D01*
X841671Y1569427D01*
X841613Y1569524D01*
X841551Y1569619D01*
X841486Y1569712D01*
X841418Y1569802D01*
X841347Y1569890D01*
X841272Y1569976D01*
X841195Y1570059D01*
X841115Y1570139D01*
X841032Y1570216D01*
X840946Y1570291D01*
X840858Y1570362D01*
X840768Y1570430D01*
X840675Y1570495D01*
X840580Y1570557D01*
X840483Y1570615D01*
X840384Y1570670D01*
X840283Y1570721D01*
X840180Y1570769D01*
X840076Y1570814D01*
X839970Y1570854D01*
X839863Y1570891D01*
X839755Y1570924D01*
X839645Y1570954D01*
X839535Y1570979D01*
X839424Y1571001D01*
X839312Y1571018D01*
X839199Y1571032D01*
X839086Y1571042D01*
X838973Y1571048D01*
X838860Y1571050D01*
X838747Y1571048D01*
X838634Y1571042D01*
X838521Y1571032D01*
X838408Y1571018D01*
X838296Y1571001D01*
X838185Y1570979D01*
X838075Y1570954D01*
X837965Y1570924D01*
X837857Y1570891D01*
X837750Y1570854D01*
X837644Y1570814D01*
X837540Y1570769D01*
X837437Y1570721D01*
X837336Y1570670D01*
X837237Y1570615D01*
X837140Y1570557D01*
X837045Y1570495D01*
X836952Y1570430D01*
X836862Y1570362D01*
X836774Y1570291D01*
X836688Y1570216D01*
X836605Y1570139D01*
X836525Y1570059D01*
X836448Y1569976D01*
X836373Y1569890D01*
X836302Y1569802D01*
X836234Y1569712D01*
X836169Y1569619D01*
X836107Y1569524D01*
X836049Y1569427D01*
X835994Y1569328D01*
X835943Y1569227D01*
X835895Y1569124D01*
X835850Y1569020D01*
X835810Y1568914D01*
X835773Y1568807D01*
X835740Y1568699D01*
X835710Y1568589D01*
X835685Y1568479D01*
X835663Y1568368D01*
X835646Y1568256D01*
X835632Y1568143D01*
X835622Y1568030D01*
X835616Y1567917D01*
X835614Y1567804D01*
X835616Y1567691D01*
X835622Y1567578D01*
X835632Y1567465D01*
X835646Y1567352D01*
X835663Y1567240D01*
X835685Y1567129D01*
X835710Y1567019D01*
X835740Y1566909D01*
X835773Y1566801D01*
X835810Y1566694D01*
X835850Y1566588D01*
X835895Y1566484D01*
X835943Y1566381D01*
X835994Y1566280D01*
X836049Y1566181D01*
X836107Y1566084D01*
X836169Y1565989D01*
X836234Y1565896D01*
X836302Y1565806D01*
X836373Y1565718D01*
X836448Y1565632D01*
X836525Y1565549D01*
X836605Y1565469D01*
X836688Y1565392D01*
X836774Y1565317D01*
X836862Y1565246D01*
X836952Y1565178D01*
X837045Y1565113D01*
X837140Y1565051D01*
X837237Y1564993D01*
X837336Y1564938D01*
X837437Y1564887D01*
X837540Y1564839D01*
X837644Y1564794D01*
X837750Y1564754D01*
X837857Y1564717D01*
X837965Y1564684D01*
X838075Y1564654D01*
X838185Y1564629D01*
X838296Y1564607D01*
X838408Y1564590D01*
X838521Y1564576D01*
X838634Y1564566D01*
X838747Y1564560D01*
X838860Y1564558D01*
X838973Y1564560D01*
X839086Y1564566D01*
X839199Y1564576D01*
X839312Y1564590D01*
X839424Y1564607D01*
X839535Y1564629D01*
X839645Y1564654D01*
X839755Y1564684D01*
X839863Y1564717D01*
X839970Y1564754D01*
X840076Y1564794D01*
X840180Y1564839D01*
X840283Y1564887D01*
X840384Y1564938D01*
X840483Y1564993D01*
X840580Y1565051D01*
X840675Y1565113D01*
X840768Y1565178D01*
X840858Y1565246D01*
X840946Y1565317D01*
X841032Y1565392D01*
X841115Y1565469D01*
X841195Y1565549D01*
X841272Y1565632D01*
X841347Y1565718D01*
X841418Y1565806D01*
X841486Y1565896D01*
X841551Y1565989D01*
X841613Y1566084D01*
X841671Y1566181D01*
X841726Y1566280D01*
X841777Y1566381D01*
X841825Y1566484D01*
X841870Y1566588D01*
X841910Y1566694D01*
X841947Y1566801D01*
X841980Y1566909D01*
X842010Y1567019D01*
X842035Y1567129D01*
X842057Y1567240D01*
X842074Y1567352D01*
X842088Y1567465D01*
X842098Y1567578D01*
X842104Y1567691D01*
X842106Y1567804D01*
X841456Y1573646D02*
X841454Y1573747D01*
X841448Y1573847D01*
X841438Y1573947D01*
X841425Y1574047D01*
X841407Y1574146D01*
X841386Y1574245D01*
X841361Y1574342D01*
X841332Y1574439D01*
X841299Y1574534D01*
X841263Y1574628D01*
X841223Y1574720D01*
X841180Y1574811D01*
X841133Y1574900D01*
X841083Y1574987D01*
X841029Y1575073D01*
X840972Y1575156D01*
X840912Y1575236D01*
X840849Y1575315D01*
X840782Y1575391D01*
X840713Y1575464D01*
X840641Y1575534D01*
X840567Y1575602D01*
X840490Y1575667D01*
X840410Y1575728D01*
X840328Y1575787D01*
X840244Y1575842D01*
X840158Y1575894D01*
X840070Y1575943D01*
X839980Y1575988D01*
X839888Y1576030D01*
X839795Y1576068D01*
X839700Y1576102D01*
X839605Y1576133D01*
X839508Y1576160D01*
X839410Y1576183D01*
X839311Y1576203D01*
X839211Y1576218D01*
X839111Y1576230D01*
X839011Y1576238D01*
X838910Y1576242D01*
X838810Y1576242D01*
X838709Y1576238D01*
X838609Y1576230D01*
X838509Y1576218D01*
X838409Y1576203D01*
X838310Y1576183D01*
X838212Y1576160D01*
X838115Y1576133D01*
X838020Y1576102D01*
X837925Y1576068D01*
X837832Y1576030D01*
X837740Y1575988D01*
X837650Y1575943D01*
X837562Y1575894D01*
X837476Y1575842D01*
X837392Y1575787D01*
X837310Y1575728D01*
X837230Y1575667D01*
X837153Y1575602D01*
X837079Y1575534D01*
X837007Y1575464D01*
X836938Y1575391D01*
X836871Y1575315D01*
X836808Y1575236D01*
X836748Y1575156D01*
X836691Y1575073D01*
X836637Y1574987D01*
X836587Y1574900D01*
X836540Y1574811D01*
X836497Y1574720D01*
X836457Y1574628D01*
X836421Y1574534D01*
X836388Y1574439D01*
X836359Y1574342D01*
X836334Y1574245D01*
X836313Y1574146D01*
X836295Y1574047D01*
X836282Y1573947D01*
X836272Y1573847D01*
X836266Y1573747D01*
X836264Y1573646D01*
X836266Y1573545D01*
X836272Y1573445D01*
X836282Y1573345D01*
X836295Y1573245D01*
X836313Y1573146D01*
X836334Y1573047D01*
X836359Y1572950D01*
X836388Y1572853D01*
X836421Y1572758D01*
X836457Y1572664D01*
X836497Y1572572D01*
X836540Y1572481D01*
X836587Y1572392D01*
X836637Y1572305D01*
X836691Y1572219D01*
X836748Y1572136D01*
X836808Y1572056D01*
X836871Y1571977D01*
X836938Y1571901D01*
X837007Y1571828D01*
X837079Y1571758D01*
X837153Y1571690D01*
X837230Y1571625D01*
X837310Y1571564D01*
X837392Y1571505D01*
X837476Y1571450D01*
X837562Y1571398D01*
X837650Y1571349D01*
X837740Y1571304D01*
X837832Y1571262D01*
X837925Y1571224D01*
X838020Y1571190D01*
X838115Y1571159D01*
X838212Y1571132D01*
X838310Y1571109D01*
X838409Y1571089D01*
X838509Y1571074D01*
X838609Y1571062D01*
X838709Y1571054D01*
X838810Y1571050D01*
X838910Y1571050D01*
X839011Y1571054D01*
X839111Y1571062D01*
X839211Y1571074D01*
X839311Y1571089D01*
X839410Y1571109D01*
X839508Y1571132D01*
X839605Y1571159D01*
X839700Y1571190D01*
X839795Y1571224D01*
X839888Y1571262D01*
X839980Y1571304D01*
X840070Y1571349D01*
X840158Y1571398D01*
X840244Y1571450D01*
X840328Y1571505D01*
X840410Y1571564D01*
X840490Y1571625D01*
X840567Y1571690D01*
X840641Y1571758D01*
X840713Y1571828D01*
X840782Y1571901D01*
X840849Y1571977D01*
X840912Y1572056D01*
X840972Y1572136D01*
X841029Y1572219D01*
X841083Y1572305D01*
X841133Y1572392D01*
X841180Y1572481D01*
X841223Y1572572D01*
X841263Y1572664D01*
X841299Y1572758D01*
X841332Y1572853D01*
X841361Y1572950D01*
X841386Y1573047D01*
X841407Y1573146D01*
X841425Y1573245D01*
X841438Y1573345D01*
X841448Y1573445D01*
X841454Y1573545D01*
X841456Y1573646D01*
X831242Y1590108D02*
X819558Y1590108D01*
X831242Y1590108D02*
X831242Y1593354D01*
X831240Y1593467D01*
X831234Y1593580D01*
X831224Y1593693D01*
X831210Y1593806D01*
X831193Y1593918D01*
X831171Y1594029D01*
X831146Y1594139D01*
X831116Y1594249D01*
X831083Y1594357D01*
X831046Y1594464D01*
X831006Y1594570D01*
X830961Y1594674D01*
X830913Y1594777D01*
X830862Y1594878D01*
X830807Y1594977D01*
X830749Y1595074D01*
X830687Y1595169D01*
X830622Y1595262D01*
X830554Y1595352D01*
X830483Y1595440D01*
X830408Y1595526D01*
X830331Y1595609D01*
X830251Y1595689D01*
X830168Y1595766D01*
X830082Y1595841D01*
X829994Y1595912D01*
X829904Y1595980D01*
X829811Y1596045D01*
X829716Y1596107D01*
X829619Y1596165D01*
X829520Y1596220D01*
X829419Y1596271D01*
X829316Y1596319D01*
X829212Y1596364D01*
X829106Y1596404D01*
X828999Y1596441D01*
X828891Y1596474D01*
X828781Y1596504D01*
X828671Y1596529D01*
X828560Y1596551D01*
X828448Y1596568D01*
X828335Y1596582D01*
X828222Y1596592D01*
X828109Y1596598D01*
X827996Y1596600D01*
X827883Y1596598D01*
X827770Y1596592D01*
X827657Y1596582D01*
X827544Y1596568D01*
X827432Y1596551D01*
X827321Y1596529D01*
X827211Y1596504D01*
X827101Y1596474D01*
X826993Y1596441D01*
X826886Y1596404D01*
X826780Y1596364D01*
X826676Y1596319D01*
X826573Y1596271D01*
X826472Y1596220D01*
X826373Y1596165D01*
X826276Y1596107D01*
X826181Y1596045D01*
X826088Y1595980D01*
X825998Y1595912D01*
X825910Y1595841D01*
X825824Y1595766D01*
X825741Y1595689D01*
X825661Y1595609D01*
X825584Y1595526D01*
X825509Y1595440D01*
X825438Y1595352D01*
X825370Y1595262D01*
X825305Y1595169D01*
X825243Y1595074D01*
X825185Y1594977D01*
X825130Y1594878D01*
X825079Y1594777D01*
X825031Y1594674D01*
X824986Y1594570D01*
X824946Y1594464D01*
X824909Y1594357D01*
X824876Y1594249D01*
X824846Y1594139D01*
X824821Y1594029D01*
X824799Y1593918D01*
X824782Y1593806D01*
X824768Y1593693D01*
X824758Y1593580D01*
X824752Y1593467D01*
X824750Y1593354D01*
X824751Y1593354D02*
X824751Y1590108D01*
X824751Y1594003D02*
X819558Y1596599D01*
X828321Y1607955D02*
X828428Y1607953D01*
X828534Y1607947D01*
X828640Y1607937D01*
X828746Y1607924D01*
X828852Y1607906D01*
X828956Y1607885D01*
X829060Y1607860D01*
X829163Y1607831D01*
X829264Y1607799D01*
X829364Y1607762D01*
X829463Y1607722D01*
X829561Y1607679D01*
X829657Y1607632D01*
X829751Y1607581D01*
X829843Y1607527D01*
X829933Y1607470D01*
X830021Y1607410D01*
X830106Y1607346D01*
X830189Y1607279D01*
X830270Y1607209D01*
X830348Y1607137D01*
X830424Y1607061D01*
X830496Y1606983D01*
X830566Y1606902D01*
X830633Y1606819D01*
X830697Y1606734D01*
X830757Y1606646D01*
X830814Y1606556D01*
X830868Y1606464D01*
X830919Y1606370D01*
X830966Y1606274D01*
X831009Y1606176D01*
X831049Y1606077D01*
X831086Y1605977D01*
X831118Y1605876D01*
X831147Y1605773D01*
X831172Y1605669D01*
X831193Y1605565D01*
X831211Y1605459D01*
X831224Y1605353D01*
X831234Y1605247D01*
X831240Y1605141D01*
X831242Y1605034D01*
X831240Y1604913D01*
X831234Y1604792D01*
X831224Y1604672D01*
X831211Y1604551D01*
X831193Y1604432D01*
X831172Y1604312D01*
X831147Y1604194D01*
X831118Y1604077D01*
X831085Y1603960D01*
X831049Y1603845D01*
X831008Y1603731D01*
X830965Y1603618D01*
X830917Y1603506D01*
X830866Y1603397D01*
X830811Y1603289D01*
X830753Y1603182D01*
X830692Y1603078D01*
X830627Y1602976D01*
X830559Y1602876D01*
X830488Y1602778D01*
X830414Y1602682D01*
X830337Y1602589D01*
X830256Y1602499D01*
X830173Y1602411D01*
X830087Y1602326D01*
X829998Y1602243D01*
X829907Y1602164D01*
X829813Y1602087D01*
X829717Y1602014D01*
X829619Y1601944D01*
X829518Y1601877D01*
X829415Y1601813D01*
X829310Y1601753D01*
X829203Y1601696D01*
X829095Y1601642D01*
X828985Y1601592D01*
X828873Y1601546D01*
X828760Y1601503D01*
X828645Y1601464D01*
X826049Y1606982D02*
X826126Y1607061D01*
X826207Y1607137D01*
X826290Y1607210D01*
X826375Y1607280D01*
X826463Y1607347D01*
X826553Y1607411D01*
X826645Y1607471D01*
X826740Y1607528D01*
X826836Y1607582D01*
X826934Y1607633D01*
X827034Y1607680D01*
X827136Y1607724D01*
X827239Y1607764D01*
X827343Y1607800D01*
X827449Y1607832D01*
X827555Y1607861D01*
X827663Y1607886D01*
X827771Y1607908D01*
X827881Y1607925D01*
X827990Y1607939D01*
X828100Y1607948D01*
X828211Y1607954D01*
X828321Y1607956D01*
X826049Y1606982D02*
X819558Y1601464D01*
X819558Y1607955D01*
X824751Y1615491D02*
X824751Y1619385D01*
X824751Y1615491D02*
X824753Y1615392D01*
X824759Y1615292D01*
X824768Y1615193D01*
X824781Y1615095D01*
X824798Y1614997D01*
X824819Y1614899D01*
X824844Y1614803D01*
X824872Y1614708D01*
X824904Y1614614D01*
X824939Y1614521D01*
X824978Y1614429D01*
X825021Y1614339D01*
X825066Y1614251D01*
X825116Y1614164D01*
X825168Y1614080D01*
X825224Y1613997D01*
X825282Y1613917D01*
X825344Y1613839D01*
X825409Y1613764D01*
X825477Y1613691D01*
X825547Y1613621D01*
X825620Y1613553D01*
X825695Y1613488D01*
X825773Y1613426D01*
X825853Y1613368D01*
X825936Y1613312D01*
X826020Y1613260D01*
X826107Y1613210D01*
X826195Y1613165D01*
X826285Y1613122D01*
X826377Y1613083D01*
X826470Y1613048D01*
X826564Y1613016D01*
X826659Y1612988D01*
X826755Y1612963D01*
X826853Y1612942D01*
X826951Y1612925D01*
X827049Y1612912D01*
X827148Y1612903D01*
X827248Y1612897D01*
X827347Y1612895D01*
X827347Y1612894D02*
X827996Y1612894D01*
X828109Y1612896D01*
X828222Y1612902D01*
X828335Y1612912D01*
X828448Y1612926D01*
X828560Y1612943D01*
X828671Y1612965D01*
X828781Y1612990D01*
X828891Y1613020D01*
X828999Y1613053D01*
X829106Y1613090D01*
X829212Y1613130D01*
X829316Y1613175D01*
X829419Y1613223D01*
X829520Y1613274D01*
X829619Y1613329D01*
X829716Y1613387D01*
X829811Y1613449D01*
X829904Y1613514D01*
X829994Y1613582D01*
X830082Y1613653D01*
X830168Y1613728D01*
X830251Y1613805D01*
X830331Y1613885D01*
X830408Y1613968D01*
X830483Y1614054D01*
X830554Y1614142D01*
X830622Y1614232D01*
X830687Y1614325D01*
X830749Y1614420D01*
X830807Y1614517D01*
X830862Y1614616D01*
X830913Y1614717D01*
X830961Y1614820D01*
X831006Y1614924D01*
X831046Y1615030D01*
X831083Y1615137D01*
X831116Y1615245D01*
X831146Y1615355D01*
X831171Y1615465D01*
X831193Y1615576D01*
X831210Y1615688D01*
X831224Y1615801D01*
X831234Y1615914D01*
X831240Y1616027D01*
X831242Y1616140D01*
X831240Y1616253D01*
X831234Y1616366D01*
X831224Y1616479D01*
X831210Y1616592D01*
X831193Y1616704D01*
X831171Y1616815D01*
X831146Y1616925D01*
X831116Y1617035D01*
X831083Y1617143D01*
X831046Y1617250D01*
X831006Y1617356D01*
X830961Y1617460D01*
X830913Y1617563D01*
X830862Y1617664D01*
X830807Y1617763D01*
X830749Y1617860D01*
X830687Y1617955D01*
X830622Y1618048D01*
X830554Y1618138D01*
X830483Y1618226D01*
X830408Y1618312D01*
X830331Y1618395D01*
X830251Y1618475D01*
X830168Y1618552D01*
X830082Y1618627D01*
X829994Y1618698D01*
X829904Y1618766D01*
X829811Y1618831D01*
X829716Y1618893D01*
X829619Y1618951D01*
X829520Y1619006D01*
X829419Y1619057D01*
X829316Y1619105D01*
X829212Y1619150D01*
X829106Y1619190D01*
X828999Y1619227D01*
X828891Y1619260D01*
X828781Y1619290D01*
X828671Y1619315D01*
X828560Y1619337D01*
X828448Y1619354D01*
X828335Y1619368D01*
X828222Y1619378D01*
X828109Y1619384D01*
X827996Y1619386D01*
X827996Y1619385D02*
X824751Y1619385D01*
X824751Y1619386D02*
X824608Y1619384D01*
X824465Y1619378D01*
X824322Y1619368D01*
X824180Y1619354D01*
X824038Y1619337D01*
X823896Y1619315D01*
X823755Y1619290D01*
X823615Y1619260D01*
X823476Y1619227D01*
X823338Y1619190D01*
X823201Y1619149D01*
X823065Y1619105D01*
X822930Y1619056D01*
X822797Y1619004D01*
X822665Y1618949D01*
X822535Y1618889D01*
X822406Y1618826D01*
X822279Y1618760D01*
X822155Y1618690D01*
X822032Y1618617D01*
X821911Y1618540D01*
X821792Y1618460D01*
X821676Y1618377D01*
X821561Y1618291D01*
X821450Y1618202D01*
X821340Y1618109D01*
X821234Y1618014D01*
X821130Y1617915D01*
X821029Y1617814D01*
X820930Y1617710D01*
X820835Y1617604D01*
X820742Y1617494D01*
X820653Y1617383D01*
X820567Y1617268D01*
X820484Y1617152D01*
X820404Y1617033D01*
X820327Y1616912D01*
X820254Y1616790D01*
X820184Y1616665D01*
X820118Y1616538D01*
X820055Y1616409D01*
X819995Y1616279D01*
X819940Y1616147D01*
X819888Y1616014D01*
X819839Y1615879D01*
X819795Y1615743D01*
X819754Y1615606D01*
X819717Y1615468D01*
X819684Y1615329D01*
X819654Y1615189D01*
X819629Y1615048D01*
X819607Y1614906D01*
X819590Y1614764D01*
X819576Y1614622D01*
X819566Y1614479D01*
X819560Y1614336D01*
X819558Y1614193D01*
X784892Y1704558D02*
X784892Y1716242D01*
X781646Y1716242D01*
X781533Y1716240D01*
X781420Y1716234D01*
X781307Y1716224D01*
X781194Y1716210D01*
X781082Y1716193D01*
X780971Y1716171D01*
X780861Y1716146D01*
X780751Y1716116D01*
X780643Y1716083D01*
X780536Y1716046D01*
X780430Y1716006D01*
X780326Y1715961D01*
X780223Y1715913D01*
X780122Y1715862D01*
X780023Y1715807D01*
X779926Y1715749D01*
X779831Y1715687D01*
X779738Y1715622D01*
X779648Y1715554D01*
X779560Y1715483D01*
X779474Y1715408D01*
X779391Y1715331D01*
X779311Y1715251D01*
X779234Y1715168D01*
X779159Y1715082D01*
X779088Y1714994D01*
X779020Y1714904D01*
X778955Y1714811D01*
X778893Y1714716D01*
X778835Y1714619D01*
X778780Y1714520D01*
X778729Y1714419D01*
X778681Y1714316D01*
X778636Y1714212D01*
X778596Y1714106D01*
X778559Y1713999D01*
X778526Y1713891D01*
X778496Y1713781D01*
X778471Y1713671D01*
X778449Y1713560D01*
X778432Y1713448D01*
X778418Y1713335D01*
X778408Y1713222D01*
X778402Y1713109D01*
X778400Y1712996D01*
X778402Y1712883D01*
X778408Y1712770D01*
X778418Y1712657D01*
X778432Y1712544D01*
X778449Y1712432D01*
X778471Y1712321D01*
X778496Y1712211D01*
X778526Y1712101D01*
X778559Y1711993D01*
X778596Y1711886D01*
X778636Y1711780D01*
X778681Y1711676D01*
X778729Y1711573D01*
X778780Y1711472D01*
X778835Y1711373D01*
X778893Y1711276D01*
X778955Y1711181D01*
X779020Y1711088D01*
X779088Y1710998D01*
X779159Y1710910D01*
X779234Y1710824D01*
X779311Y1710741D01*
X779391Y1710661D01*
X779474Y1710584D01*
X779560Y1710509D01*
X779648Y1710438D01*
X779738Y1710370D01*
X779831Y1710305D01*
X779926Y1710243D01*
X780023Y1710185D01*
X780122Y1710130D01*
X780223Y1710079D01*
X780326Y1710031D01*
X780430Y1709986D01*
X780536Y1709946D01*
X780643Y1709909D01*
X780751Y1709876D01*
X780861Y1709846D01*
X780971Y1709821D01*
X781082Y1709799D01*
X781194Y1709782D01*
X781307Y1709768D01*
X781420Y1709758D01*
X781533Y1709752D01*
X781646Y1709750D01*
X781646Y1709751D02*
X784892Y1709751D01*
X780997Y1709751D02*
X778401Y1704558D01*
X773536Y1704558D02*
X770290Y1704558D01*
X770177Y1704560D01*
X770064Y1704566D01*
X769951Y1704576D01*
X769838Y1704590D01*
X769726Y1704607D01*
X769615Y1704629D01*
X769505Y1704654D01*
X769395Y1704684D01*
X769287Y1704717D01*
X769180Y1704754D01*
X769074Y1704794D01*
X768970Y1704839D01*
X768867Y1704887D01*
X768766Y1704938D01*
X768667Y1704993D01*
X768570Y1705051D01*
X768475Y1705113D01*
X768382Y1705178D01*
X768292Y1705246D01*
X768204Y1705317D01*
X768118Y1705392D01*
X768035Y1705469D01*
X767955Y1705549D01*
X767878Y1705632D01*
X767803Y1705718D01*
X767732Y1705806D01*
X767664Y1705896D01*
X767599Y1705989D01*
X767537Y1706084D01*
X767479Y1706181D01*
X767424Y1706280D01*
X767373Y1706381D01*
X767325Y1706484D01*
X767280Y1706588D01*
X767240Y1706694D01*
X767203Y1706801D01*
X767170Y1706909D01*
X767140Y1707019D01*
X767115Y1707129D01*
X767093Y1707240D01*
X767076Y1707352D01*
X767062Y1707465D01*
X767052Y1707578D01*
X767046Y1707691D01*
X767044Y1707804D01*
X767046Y1707917D01*
X767052Y1708030D01*
X767062Y1708143D01*
X767076Y1708256D01*
X767093Y1708368D01*
X767115Y1708479D01*
X767140Y1708589D01*
X767170Y1708699D01*
X767203Y1708807D01*
X767240Y1708914D01*
X767280Y1709020D01*
X767325Y1709124D01*
X767373Y1709227D01*
X767424Y1709328D01*
X767479Y1709427D01*
X767537Y1709524D01*
X767599Y1709619D01*
X767664Y1709712D01*
X767732Y1709802D01*
X767803Y1709890D01*
X767878Y1709976D01*
X767955Y1710059D01*
X768035Y1710139D01*
X768118Y1710216D01*
X768204Y1710291D01*
X768292Y1710362D01*
X768382Y1710430D01*
X768475Y1710495D01*
X768570Y1710557D01*
X768667Y1710615D01*
X768766Y1710670D01*
X768867Y1710721D01*
X768970Y1710769D01*
X769074Y1710814D01*
X769180Y1710854D01*
X769287Y1710891D01*
X769395Y1710924D01*
X769505Y1710954D01*
X769615Y1710979D01*
X769726Y1711001D01*
X769838Y1711018D01*
X769951Y1711032D01*
X770064Y1711042D01*
X770177Y1711048D01*
X770290Y1711050D01*
X769641Y1716242D02*
X773536Y1716242D01*
X769641Y1716242D02*
X769540Y1716240D01*
X769440Y1716234D01*
X769340Y1716224D01*
X769240Y1716211D01*
X769141Y1716193D01*
X769042Y1716172D01*
X768945Y1716147D01*
X768848Y1716118D01*
X768753Y1716085D01*
X768659Y1716049D01*
X768567Y1716009D01*
X768476Y1715966D01*
X768387Y1715919D01*
X768300Y1715869D01*
X768214Y1715815D01*
X768131Y1715758D01*
X768051Y1715698D01*
X767972Y1715635D01*
X767896Y1715568D01*
X767823Y1715499D01*
X767753Y1715427D01*
X767685Y1715353D01*
X767620Y1715276D01*
X767559Y1715196D01*
X767500Y1715114D01*
X767445Y1715030D01*
X767393Y1714944D01*
X767344Y1714856D01*
X767299Y1714766D01*
X767257Y1714674D01*
X767219Y1714581D01*
X767185Y1714486D01*
X767154Y1714391D01*
X767127Y1714294D01*
X767104Y1714196D01*
X767084Y1714097D01*
X767069Y1713997D01*
X767057Y1713897D01*
X767049Y1713797D01*
X767045Y1713696D01*
X767045Y1713596D01*
X767049Y1713495D01*
X767057Y1713395D01*
X767069Y1713295D01*
X767084Y1713195D01*
X767104Y1713096D01*
X767127Y1712998D01*
X767154Y1712901D01*
X767185Y1712806D01*
X767219Y1712711D01*
X767257Y1712618D01*
X767299Y1712526D01*
X767344Y1712436D01*
X767393Y1712348D01*
X767445Y1712262D01*
X767500Y1712178D01*
X767559Y1712096D01*
X767620Y1712016D01*
X767685Y1711939D01*
X767753Y1711865D01*
X767823Y1711793D01*
X767896Y1711724D01*
X767972Y1711657D01*
X768051Y1711594D01*
X768131Y1711534D01*
X768214Y1711477D01*
X768300Y1711423D01*
X768387Y1711373D01*
X768476Y1711326D01*
X768567Y1711283D01*
X768659Y1711243D01*
X768753Y1711207D01*
X768848Y1711174D01*
X768945Y1711145D01*
X769042Y1711120D01*
X769141Y1711099D01*
X769240Y1711081D01*
X769340Y1711068D01*
X769440Y1711058D01*
X769540Y1711052D01*
X769641Y1711050D01*
X769641Y1711049D02*
X772237Y1711049D01*
X762106Y1710400D02*
X762103Y1710630D01*
X762095Y1710860D01*
X762081Y1711089D01*
X762062Y1711318D01*
X762037Y1711547D01*
X762007Y1711775D01*
X761972Y1712002D01*
X761931Y1712228D01*
X761885Y1712453D01*
X761833Y1712677D01*
X761776Y1712900D01*
X761714Y1713121D01*
X761646Y1713341D01*
X761573Y1713559D01*
X761495Y1713775D01*
X761412Y1713989D01*
X761324Y1714202D01*
X761231Y1714412D01*
X761132Y1714619D01*
X761099Y1714709D01*
X761063Y1714798D01*
X761023Y1714886D01*
X760979Y1714971D01*
X760932Y1715055D01*
X760882Y1715137D01*
X760828Y1715217D01*
X760772Y1715294D01*
X760712Y1715370D01*
X760649Y1715443D01*
X760584Y1715513D01*
X760515Y1715581D01*
X760444Y1715645D01*
X760371Y1715707D01*
X760295Y1715766D01*
X760217Y1715822D01*
X760136Y1715875D01*
X760054Y1715924D01*
X759970Y1715970D01*
X759883Y1716013D01*
X759796Y1716052D01*
X759706Y1716088D01*
X759616Y1716120D01*
X759524Y1716148D01*
X759431Y1716173D01*
X759337Y1716194D01*
X759243Y1716211D01*
X759148Y1716225D01*
X759052Y1716234D01*
X758956Y1716240D01*
X758860Y1716242D01*
X758764Y1716240D01*
X758668Y1716234D01*
X758572Y1716225D01*
X758477Y1716211D01*
X758383Y1716194D01*
X758289Y1716173D01*
X758196Y1716148D01*
X758104Y1716120D01*
X758014Y1716088D01*
X757924Y1716052D01*
X757837Y1716013D01*
X757750Y1715970D01*
X757666Y1715924D01*
X757584Y1715875D01*
X757503Y1715822D01*
X757425Y1715766D01*
X757349Y1715707D01*
X757276Y1715645D01*
X757205Y1715581D01*
X757136Y1715513D01*
X757071Y1715443D01*
X757008Y1715370D01*
X756948Y1715295D01*
X756892Y1715217D01*
X756838Y1715137D01*
X756788Y1715055D01*
X756741Y1714971D01*
X756698Y1714886D01*
X756657Y1714798D01*
X756621Y1714709D01*
X756588Y1714619D01*
X756589Y1714619D02*
X756490Y1714411D01*
X756397Y1714201D01*
X756309Y1713989D01*
X756226Y1713775D01*
X756148Y1713558D01*
X756075Y1713340D01*
X756007Y1713121D01*
X755945Y1712899D01*
X755888Y1712677D01*
X755836Y1712453D01*
X755790Y1712228D01*
X755749Y1712002D01*
X755714Y1711774D01*
X755684Y1711547D01*
X755659Y1711318D01*
X755640Y1711089D01*
X755626Y1710860D01*
X755618Y1710630D01*
X755615Y1710400D01*
X762106Y1710400D02*
X762103Y1710170D01*
X762095Y1709940D01*
X762081Y1709711D01*
X762062Y1709482D01*
X762037Y1709253D01*
X762007Y1709025D01*
X761972Y1708798D01*
X761931Y1708572D01*
X761885Y1708347D01*
X761833Y1708123D01*
X761776Y1707900D01*
X761714Y1707679D01*
X761646Y1707459D01*
X761573Y1707241D01*
X761495Y1707025D01*
X761412Y1706811D01*
X761324Y1706599D01*
X761231Y1706388D01*
X761132Y1706181D01*
X761099Y1706091D01*
X761063Y1706002D01*
X761022Y1705914D01*
X760979Y1705829D01*
X760932Y1705745D01*
X760882Y1705663D01*
X760828Y1705583D01*
X760772Y1705506D01*
X760712Y1705430D01*
X760649Y1705357D01*
X760584Y1705287D01*
X760515Y1705219D01*
X760444Y1705155D01*
X760371Y1705093D01*
X760295Y1705034D01*
X760217Y1704978D01*
X760136Y1704925D01*
X760054Y1704876D01*
X759970Y1704830D01*
X759883Y1704787D01*
X759796Y1704748D01*
X759706Y1704712D01*
X759616Y1704680D01*
X759524Y1704652D01*
X759431Y1704627D01*
X759337Y1704606D01*
X759243Y1704589D01*
X759148Y1704575D01*
X759052Y1704566D01*
X758956Y1704560D01*
X758860Y1704558D01*
X756588Y1706181D02*
X756489Y1706388D01*
X756396Y1706599D01*
X756308Y1706811D01*
X756225Y1707025D01*
X756147Y1707241D01*
X756074Y1707459D01*
X756006Y1707679D01*
X755944Y1707900D01*
X755887Y1708123D01*
X755835Y1708347D01*
X755789Y1708572D01*
X755748Y1708798D01*
X755713Y1709025D01*
X755683Y1709253D01*
X755658Y1709482D01*
X755639Y1709711D01*
X755625Y1709940D01*
X755617Y1710170D01*
X755614Y1710400D01*
X756588Y1706181D02*
X756621Y1706091D01*
X756657Y1706002D01*
X756698Y1705914D01*
X756741Y1705829D01*
X756788Y1705745D01*
X756838Y1705663D01*
X756892Y1705583D01*
X756948Y1705505D01*
X757008Y1705430D01*
X757071Y1705357D01*
X757136Y1705287D01*
X757205Y1705219D01*
X757276Y1705155D01*
X757349Y1705093D01*
X757425Y1705034D01*
X757503Y1704978D01*
X757584Y1704925D01*
X757666Y1704876D01*
X757750Y1704830D01*
X757837Y1704787D01*
X757924Y1704748D01*
X758014Y1704712D01*
X758104Y1704680D01*
X758196Y1704652D01*
X758289Y1704627D01*
X758383Y1704606D01*
X758477Y1704589D01*
X758572Y1704575D01*
X758668Y1704566D01*
X758764Y1704560D01*
X758860Y1704558D01*
X761457Y1707154D02*
X756264Y1713646D01*
X700442Y1610615D02*
X688758Y1610615D01*
X700442Y1610615D02*
X700442Y1613860D01*
X700440Y1613973D01*
X700434Y1614086D01*
X700424Y1614199D01*
X700410Y1614312D01*
X700393Y1614424D01*
X700371Y1614535D01*
X700346Y1614645D01*
X700316Y1614755D01*
X700283Y1614863D01*
X700246Y1614970D01*
X700206Y1615076D01*
X700161Y1615180D01*
X700113Y1615283D01*
X700062Y1615384D01*
X700007Y1615483D01*
X699949Y1615580D01*
X699887Y1615675D01*
X699822Y1615768D01*
X699754Y1615858D01*
X699683Y1615946D01*
X699608Y1616032D01*
X699531Y1616115D01*
X699451Y1616195D01*
X699368Y1616272D01*
X699282Y1616347D01*
X699194Y1616418D01*
X699104Y1616486D01*
X699011Y1616551D01*
X698916Y1616613D01*
X698819Y1616671D01*
X698720Y1616726D01*
X698619Y1616777D01*
X698516Y1616825D01*
X698412Y1616870D01*
X698306Y1616910D01*
X698199Y1616947D01*
X698091Y1616980D01*
X697981Y1617010D01*
X697871Y1617035D01*
X697760Y1617057D01*
X697648Y1617074D01*
X697535Y1617088D01*
X697422Y1617098D01*
X697309Y1617104D01*
X697196Y1617106D01*
X697083Y1617104D01*
X696970Y1617098D01*
X696857Y1617088D01*
X696744Y1617074D01*
X696632Y1617057D01*
X696521Y1617035D01*
X696411Y1617010D01*
X696301Y1616980D01*
X696193Y1616947D01*
X696086Y1616910D01*
X695980Y1616870D01*
X695876Y1616825D01*
X695773Y1616777D01*
X695672Y1616726D01*
X695573Y1616671D01*
X695476Y1616613D01*
X695381Y1616551D01*
X695288Y1616486D01*
X695198Y1616418D01*
X695110Y1616347D01*
X695024Y1616272D01*
X694941Y1616195D01*
X694861Y1616115D01*
X694784Y1616032D01*
X694709Y1615946D01*
X694638Y1615858D01*
X694570Y1615768D01*
X694505Y1615675D01*
X694443Y1615580D01*
X694385Y1615483D01*
X694330Y1615384D01*
X694279Y1615283D01*
X694231Y1615180D01*
X694186Y1615076D01*
X694146Y1614970D01*
X694109Y1614863D01*
X694076Y1614755D01*
X694046Y1614645D01*
X694021Y1614535D01*
X693999Y1614424D01*
X693982Y1614312D01*
X693968Y1614199D01*
X693958Y1614086D01*
X693952Y1613973D01*
X693950Y1613860D01*
X693951Y1613860D02*
X693951Y1610615D01*
X693951Y1614509D02*
X688758Y1617106D01*
X688758Y1621971D02*
X688758Y1625216D01*
X688760Y1625329D01*
X688766Y1625442D01*
X688776Y1625555D01*
X688790Y1625668D01*
X688807Y1625780D01*
X688829Y1625891D01*
X688854Y1626001D01*
X688884Y1626111D01*
X688917Y1626219D01*
X688954Y1626326D01*
X688994Y1626432D01*
X689039Y1626536D01*
X689087Y1626639D01*
X689138Y1626740D01*
X689193Y1626839D01*
X689251Y1626936D01*
X689313Y1627031D01*
X689378Y1627124D01*
X689446Y1627214D01*
X689517Y1627302D01*
X689592Y1627388D01*
X689669Y1627471D01*
X689749Y1627551D01*
X689832Y1627628D01*
X689918Y1627703D01*
X690006Y1627774D01*
X690096Y1627842D01*
X690189Y1627907D01*
X690284Y1627969D01*
X690381Y1628027D01*
X690480Y1628082D01*
X690581Y1628133D01*
X690684Y1628181D01*
X690788Y1628226D01*
X690894Y1628266D01*
X691001Y1628303D01*
X691109Y1628336D01*
X691219Y1628366D01*
X691329Y1628391D01*
X691440Y1628413D01*
X691552Y1628430D01*
X691665Y1628444D01*
X691778Y1628454D01*
X691891Y1628460D01*
X692004Y1628462D01*
X692117Y1628460D01*
X692230Y1628454D01*
X692343Y1628444D01*
X692456Y1628430D01*
X692568Y1628413D01*
X692679Y1628391D01*
X692789Y1628366D01*
X692899Y1628336D01*
X693007Y1628303D01*
X693114Y1628266D01*
X693220Y1628226D01*
X693324Y1628181D01*
X693427Y1628133D01*
X693528Y1628082D01*
X693627Y1628027D01*
X693724Y1627969D01*
X693819Y1627907D01*
X693912Y1627842D01*
X694002Y1627774D01*
X694090Y1627703D01*
X694176Y1627628D01*
X694259Y1627551D01*
X694339Y1627471D01*
X694416Y1627388D01*
X694491Y1627302D01*
X694562Y1627214D01*
X694630Y1627124D01*
X694695Y1627031D01*
X694757Y1626936D01*
X694815Y1626839D01*
X694870Y1626740D01*
X694921Y1626639D01*
X694969Y1626536D01*
X695014Y1626432D01*
X695054Y1626326D01*
X695091Y1626219D01*
X695124Y1626111D01*
X695154Y1626001D01*
X695179Y1625891D01*
X695201Y1625780D01*
X695218Y1625668D01*
X695232Y1625555D01*
X695242Y1625442D01*
X695248Y1625329D01*
X695250Y1625216D01*
X700442Y1625866D02*
X700442Y1621971D01*
X700442Y1625866D02*
X700440Y1625967D01*
X700434Y1626067D01*
X700424Y1626167D01*
X700411Y1626267D01*
X700393Y1626366D01*
X700372Y1626465D01*
X700347Y1626562D01*
X700318Y1626659D01*
X700285Y1626754D01*
X700249Y1626848D01*
X700209Y1626940D01*
X700166Y1627031D01*
X700119Y1627120D01*
X700069Y1627207D01*
X700015Y1627293D01*
X699958Y1627376D01*
X699898Y1627456D01*
X699835Y1627535D01*
X699768Y1627611D01*
X699699Y1627684D01*
X699627Y1627754D01*
X699553Y1627822D01*
X699476Y1627887D01*
X699396Y1627948D01*
X699314Y1628007D01*
X699230Y1628062D01*
X699144Y1628114D01*
X699056Y1628163D01*
X698966Y1628208D01*
X698874Y1628250D01*
X698781Y1628288D01*
X698686Y1628322D01*
X698591Y1628353D01*
X698494Y1628380D01*
X698396Y1628403D01*
X698297Y1628423D01*
X698197Y1628438D01*
X698097Y1628450D01*
X697997Y1628458D01*
X697896Y1628462D01*
X697796Y1628462D01*
X697695Y1628458D01*
X697595Y1628450D01*
X697495Y1628438D01*
X697395Y1628423D01*
X697296Y1628403D01*
X697198Y1628380D01*
X697101Y1628353D01*
X697006Y1628322D01*
X696911Y1628288D01*
X696818Y1628250D01*
X696726Y1628208D01*
X696636Y1628163D01*
X696548Y1628114D01*
X696462Y1628062D01*
X696378Y1628007D01*
X696296Y1627948D01*
X696216Y1627887D01*
X696139Y1627822D01*
X696065Y1627754D01*
X695993Y1627684D01*
X695924Y1627611D01*
X695857Y1627535D01*
X695794Y1627456D01*
X695734Y1627376D01*
X695677Y1627293D01*
X695623Y1627207D01*
X695573Y1627120D01*
X695526Y1627031D01*
X695483Y1626940D01*
X695443Y1626848D01*
X695407Y1626754D01*
X695374Y1626659D01*
X695345Y1626562D01*
X695320Y1626465D01*
X695299Y1626366D01*
X695281Y1626267D01*
X695268Y1626167D01*
X695258Y1626067D01*
X695252Y1625967D01*
X695250Y1625866D01*
X695249Y1625866D02*
X695249Y1623269D01*
X697846Y1633401D02*
X700442Y1636646D01*
X688758Y1636646D01*
X688758Y1633401D02*
X688758Y1639892D01*
X524385Y1525442D02*
X524385Y1513758D01*
X524385Y1525442D02*
X521140Y1525442D01*
X521027Y1525440D01*
X520914Y1525434D01*
X520801Y1525424D01*
X520688Y1525410D01*
X520576Y1525393D01*
X520465Y1525371D01*
X520355Y1525346D01*
X520245Y1525316D01*
X520137Y1525283D01*
X520030Y1525246D01*
X519924Y1525206D01*
X519820Y1525161D01*
X519717Y1525113D01*
X519616Y1525062D01*
X519517Y1525007D01*
X519420Y1524949D01*
X519325Y1524887D01*
X519232Y1524822D01*
X519142Y1524754D01*
X519054Y1524683D01*
X518968Y1524608D01*
X518885Y1524531D01*
X518805Y1524451D01*
X518728Y1524368D01*
X518653Y1524282D01*
X518582Y1524194D01*
X518514Y1524104D01*
X518449Y1524011D01*
X518387Y1523916D01*
X518329Y1523819D01*
X518274Y1523720D01*
X518223Y1523619D01*
X518175Y1523516D01*
X518130Y1523412D01*
X518090Y1523306D01*
X518053Y1523199D01*
X518020Y1523091D01*
X517990Y1522981D01*
X517965Y1522871D01*
X517943Y1522760D01*
X517926Y1522648D01*
X517912Y1522535D01*
X517902Y1522422D01*
X517896Y1522309D01*
X517894Y1522196D01*
X517896Y1522083D01*
X517902Y1521970D01*
X517912Y1521857D01*
X517926Y1521744D01*
X517943Y1521632D01*
X517965Y1521521D01*
X517990Y1521411D01*
X518020Y1521301D01*
X518053Y1521193D01*
X518090Y1521086D01*
X518130Y1520980D01*
X518175Y1520876D01*
X518223Y1520773D01*
X518274Y1520672D01*
X518329Y1520573D01*
X518387Y1520476D01*
X518449Y1520381D01*
X518514Y1520288D01*
X518582Y1520198D01*
X518653Y1520110D01*
X518728Y1520024D01*
X518805Y1519941D01*
X518885Y1519861D01*
X518968Y1519784D01*
X519054Y1519709D01*
X519142Y1519638D01*
X519232Y1519570D01*
X519325Y1519505D01*
X519420Y1519443D01*
X519517Y1519385D01*
X519616Y1519330D01*
X519717Y1519279D01*
X519820Y1519231D01*
X519924Y1519186D01*
X520030Y1519146D01*
X520137Y1519109D01*
X520245Y1519076D01*
X520355Y1519046D01*
X520465Y1519021D01*
X520576Y1518999D01*
X520688Y1518982D01*
X520801Y1518968D01*
X520914Y1518958D01*
X521027Y1518952D01*
X521140Y1518950D01*
X521140Y1518951D02*
X524385Y1518951D01*
X520491Y1518951D02*
X517894Y1513758D01*
X513029Y1513758D02*
X509784Y1513758D01*
X509671Y1513760D01*
X509558Y1513766D01*
X509445Y1513776D01*
X509332Y1513790D01*
X509220Y1513807D01*
X509109Y1513829D01*
X508999Y1513854D01*
X508889Y1513884D01*
X508781Y1513917D01*
X508674Y1513954D01*
X508568Y1513994D01*
X508464Y1514039D01*
X508361Y1514087D01*
X508260Y1514138D01*
X508161Y1514193D01*
X508064Y1514251D01*
X507969Y1514313D01*
X507876Y1514378D01*
X507786Y1514446D01*
X507698Y1514517D01*
X507612Y1514592D01*
X507529Y1514669D01*
X507449Y1514749D01*
X507372Y1514832D01*
X507297Y1514918D01*
X507226Y1515006D01*
X507158Y1515096D01*
X507093Y1515189D01*
X507031Y1515284D01*
X506973Y1515381D01*
X506918Y1515480D01*
X506867Y1515581D01*
X506819Y1515684D01*
X506774Y1515788D01*
X506734Y1515894D01*
X506697Y1516001D01*
X506664Y1516109D01*
X506634Y1516219D01*
X506609Y1516329D01*
X506587Y1516440D01*
X506570Y1516552D01*
X506556Y1516665D01*
X506546Y1516778D01*
X506540Y1516891D01*
X506538Y1517004D01*
X506540Y1517117D01*
X506546Y1517230D01*
X506556Y1517343D01*
X506570Y1517456D01*
X506587Y1517568D01*
X506609Y1517679D01*
X506634Y1517789D01*
X506664Y1517899D01*
X506697Y1518007D01*
X506734Y1518114D01*
X506774Y1518220D01*
X506819Y1518324D01*
X506867Y1518427D01*
X506918Y1518528D01*
X506973Y1518627D01*
X507031Y1518724D01*
X507093Y1518819D01*
X507158Y1518912D01*
X507226Y1519002D01*
X507297Y1519090D01*
X507372Y1519176D01*
X507449Y1519259D01*
X507529Y1519339D01*
X507612Y1519416D01*
X507698Y1519491D01*
X507786Y1519562D01*
X507876Y1519630D01*
X507969Y1519695D01*
X508064Y1519757D01*
X508161Y1519815D01*
X508260Y1519870D01*
X508361Y1519921D01*
X508464Y1519969D01*
X508568Y1520014D01*
X508674Y1520054D01*
X508781Y1520091D01*
X508889Y1520124D01*
X508999Y1520154D01*
X509109Y1520179D01*
X509220Y1520201D01*
X509332Y1520218D01*
X509445Y1520232D01*
X509558Y1520242D01*
X509671Y1520248D01*
X509784Y1520250D01*
X509134Y1525442D02*
X513029Y1525442D01*
X509134Y1525442D02*
X509033Y1525440D01*
X508933Y1525434D01*
X508833Y1525424D01*
X508733Y1525411D01*
X508634Y1525393D01*
X508535Y1525372D01*
X508438Y1525347D01*
X508341Y1525318D01*
X508246Y1525285D01*
X508152Y1525249D01*
X508060Y1525209D01*
X507969Y1525166D01*
X507880Y1525119D01*
X507793Y1525069D01*
X507707Y1525015D01*
X507624Y1524958D01*
X507544Y1524898D01*
X507465Y1524835D01*
X507389Y1524768D01*
X507316Y1524699D01*
X507246Y1524627D01*
X507178Y1524553D01*
X507113Y1524476D01*
X507052Y1524396D01*
X506993Y1524314D01*
X506938Y1524230D01*
X506886Y1524144D01*
X506837Y1524056D01*
X506792Y1523966D01*
X506750Y1523874D01*
X506712Y1523781D01*
X506678Y1523686D01*
X506647Y1523591D01*
X506620Y1523494D01*
X506597Y1523396D01*
X506577Y1523297D01*
X506562Y1523197D01*
X506550Y1523097D01*
X506542Y1522997D01*
X506538Y1522896D01*
X506538Y1522796D01*
X506542Y1522695D01*
X506550Y1522595D01*
X506562Y1522495D01*
X506577Y1522395D01*
X506597Y1522296D01*
X506620Y1522198D01*
X506647Y1522101D01*
X506678Y1522006D01*
X506712Y1521911D01*
X506750Y1521818D01*
X506792Y1521726D01*
X506837Y1521636D01*
X506886Y1521548D01*
X506938Y1521462D01*
X506993Y1521378D01*
X507052Y1521296D01*
X507113Y1521216D01*
X507178Y1521139D01*
X507246Y1521065D01*
X507316Y1520993D01*
X507389Y1520924D01*
X507465Y1520857D01*
X507544Y1520794D01*
X507624Y1520734D01*
X507707Y1520677D01*
X507793Y1520623D01*
X507880Y1520573D01*
X507969Y1520526D01*
X508060Y1520483D01*
X508152Y1520443D01*
X508246Y1520407D01*
X508341Y1520374D01*
X508438Y1520345D01*
X508535Y1520320D01*
X508634Y1520299D01*
X508733Y1520281D01*
X508833Y1520268D01*
X508933Y1520258D01*
X509033Y1520252D01*
X509134Y1520250D01*
X509134Y1520249D02*
X511731Y1520249D01*
X498029Y1525442D02*
X497922Y1525440D01*
X497816Y1525434D01*
X497710Y1525424D01*
X497604Y1525411D01*
X497498Y1525393D01*
X497394Y1525372D01*
X497290Y1525347D01*
X497187Y1525318D01*
X497086Y1525286D01*
X496986Y1525249D01*
X496887Y1525209D01*
X496789Y1525166D01*
X496693Y1525119D01*
X496599Y1525068D01*
X496507Y1525014D01*
X496417Y1524957D01*
X496329Y1524897D01*
X496244Y1524833D01*
X496161Y1524766D01*
X496080Y1524696D01*
X496002Y1524624D01*
X495926Y1524548D01*
X495854Y1524470D01*
X495784Y1524389D01*
X495717Y1524306D01*
X495653Y1524221D01*
X495593Y1524133D01*
X495536Y1524043D01*
X495482Y1523951D01*
X495431Y1523857D01*
X495384Y1523761D01*
X495341Y1523663D01*
X495301Y1523564D01*
X495264Y1523464D01*
X495232Y1523363D01*
X495203Y1523260D01*
X495178Y1523156D01*
X495157Y1523052D01*
X495139Y1522946D01*
X495126Y1522840D01*
X495116Y1522734D01*
X495110Y1522628D01*
X495108Y1522521D01*
X498029Y1525442D02*
X498150Y1525440D01*
X498271Y1525434D01*
X498391Y1525424D01*
X498512Y1525411D01*
X498631Y1525393D01*
X498751Y1525372D01*
X498869Y1525347D01*
X498986Y1525318D01*
X499103Y1525285D01*
X499218Y1525249D01*
X499332Y1525208D01*
X499445Y1525165D01*
X499557Y1525117D01*
X499666Y1525066D01*
X499774Y1525011D01*
X499881Y1524953D01*
X499985Y1524892D01*
X500087Y1524827D01*
X500187Y1524759D01*
X500285Y1524688D01*
X500381Y1524614D01*
X500474Y1524537D01*
X500564Y1524456D01*
X500652Y1524373D01*
X500737Y1524287D01*
X500820Y1524198D01*
X500899Y1524107D01*
X500976Y1524013D01*
X501049Y1523917D01*
X501119Y1523819D01*
X501186Y1523718D01*
X501250Y1523615D01*
X501311Y1523510D01*
X501368Y1523403D01*
X501421Y1523295D01*
X501471Y1523185D01*
X501517Y1523073D01*
X501560Y1522960D01*
X501599Y1522845D01*
X496082Y1520249D02*
X496003Y1520327D01*
X495927Y1520407D01*
X495854Y1520490D01*
X495784Y1520576D01*
X495717Y1520663D01*
X495653Y1520754D01*
X495593Y1520846D01*
X495535Y1520940D01*
X495481Y1521037D01*
X495431Y1521135D01*
X495384Y1521235D01*
X495340Y1521336D01*
X495300Y1521439D01*
X495264Y1521544D01*
X495232Y1521649D01*
X495203Y1521756D01*
X495178Y1521863D01*
X495156Y1521972D01*
X495139Y1522081D01*
X495125Y1522190D01*
X495116Y1522300D01*
X495110Y1522411D01*
X495108Y1522521D01*
X496082Y1520249D02*
X501599Y1513758D01*
X495108Y1513758D01*
X579558Y1590108D02*
X591242Y1590108D01*
X591242Y1593354D01*
X591240Y1593467D01*
X591234Y1593580D01*
X591224Y1593693D01*
X591210Y1593806D01*
X591193Y1593918D01*
X591171Y1594029D01*
X591146Y1594139D01*
X591116Y1594249D01*
X591083Y1594357D01*
X591046Y1594464D01*
X591006Y1594570D01*
X590961Y1594674D01*
X590913Y1594777D01*
X590862Y1594878D01*
X590807Y1594977D01*
X590749Y1595074D01*
X590687Y1595169D01*
X590622Y1595262D01*
X590554Y1595352D01*
X590483Y1595440D01*
X590408Y1595526D01*
X590331Y1595609D01*
X590251Y1595689D01*
X590168Y1595766D01*
X590082Y1595841D01*
X589994Y1595912D01*
X589904Y1595980D01*
X589811Y1596045D01*
X589716Y1596107D01*
X589619Y1596165D01*
X589520Y1596220D01*
X589419Y1596271D01*
X589316Y1596319D01*
X589212Y1596364D01*
X589106Y1596404D01*
X588999Y1596441D01*
X588891Y1596474D01*
X588781Y1596504D01*
X588671Y1596529D01*
X588560Y1596551D01*
X588448Y1596568D01*
X588335Y1596582D01*
X588222Y1596592D01*
X588109Y1596598D01*
X587996Y1596600D01*
X587883Y1596598D01*
X587770Y1596592D01*
X587657Y1596582D01*
X587544Y1596568D01*
X587432Y1596551D01*
X587321Y1596529D01*
X587211Y1596504D01*
X587101Y1596474D01*
X586993Y1596441D01*
X586886Y1596404D01*
X586780Y1596364D01*
X586676Y1596319D01*
X586573Y1596271D01*
X586472Y1596220D01*
X586373Y1596165D01*
X586276Y1596107D01*
X586181Y1596045D01*
X586088Y1595980D01*
X585998Y1595912D01*
X585910Y1595841D01*
X585824Y1595766D01*
X585741Y1595689D01*
X585661Y1595609D01*
X585584Y1595526D01*
X585509Y1595440D01*
X585438Y1595352D01*
X585370Y1595262D01*
X585305Y1595169D01*
X585243Y1595074D01*
X585185Y1594977D01*
X585130Y1594878D01*
X585079Y1594777D01*
X585031Y1594674D01*
X584986Y1594570D01*
X584946Y1594464D01*
X584909Y1594357D01*
X584876Y1594249D01*
X584846Y1594139D01*
X584821Y1594029D01*
X584799Y1593918D01*
X584782Y1593806D01*
X584768Y1593693D01*
X584758Y1593580D01*
X584752Y1593467D01*
X584750Y1593354D01*
X584751Y1593354D02*
X584751Y1590108D01*
X584751Y1594003D02*
X579558Y1596599D01*
X579558Y1601464D02*
X579558Y1604710D01*
X579560Y1604823D01*
X579566Y1604936D01*
X579576Y1605049D01*
X579590Y1605162D01*
X579607Y1605274D01*
X579629Y1605385D01*
X579654Y1605495D01*
X579684Y1605605D01*
X579717Y1605713D01*
X579754Y1605820D01*
X579794Y1605926D01*
X579839Y1606030D01*
X579887Y1606133D01*
X579938Y1606234D01*
X579993Y1606333D01*
X580051Y1606430D01*
X580113Y1606525D01*
X580178Y1606618D01*
X580246Y1606708D01*
X580317Y1606796D01*
X580392Y1606882D01*
X580469Y1606965D01*
X580549Y1607045D01*
X580632Y1607122D01*
X580718Y1607197D01*
X580806Y1607268D01*
X580896Y1607336D01*
X580989Y1607401D01*
X581084Y1607463D01*
X581181Y1607521D01*
X581280Y1607576D01*
X581381Y1607627D01*
X581484Y1607675D01*
X581588Y1607720D01*
X581694Y1607760D01*
X581801Y1607797D01*
X581909Y1607830D01*
X582019Y1607860D01*
X582129Y1607885D01*
X582240Y1607907D01*
X582352Y1607924D01*
X582465Y1607938D01*
X582578Y1607948D01*
X582691Y1607954D01*
X582804Y1607956D01*
X582917Y1607954D01*
X583030Y1607948D01*
X583143Y1607938D01*
X583256Y1607924D01*
X583368Y1607907D01*
X583479Y1607885D01*
X583589Y1607860D01*
X583699Y1607830D01*
X583807Y1607797D01*
X583914Y1607760D01*
X584020Y1607720D01*
X584124Y1607675D01*
X584227Y1607627D01*
X584328Y1607576D01*
X584427Y1607521D01*
X584524Y1607463D01*
X584619Y1607401D01*
X584712Y1607336D01*
X584802Y1607268D01*
X584890Y1607197D01*
X584976Y1607122D01*
X585059Y1607045D01*
X585139Y1606965D01*
X585216Y1606882D01*
X585291Y1606796D01*
X585362Y1606708D01*
X585430Y1606618D01*
X585495Y1606525D01*
X585557Y1606430D01*
X585615Y1606333D01*
X585670Y1606234D01*
X585721Y1606133D01*
X585769Y1606030D01*
X585814Y1605926D01*
X585854Y1605820D01*
X585891Y1605713D01*
X585924Y1605605D01*
X585954Y1605495D01*
X585979Y1605385D01*
X586001Y1605274D01*
X586018Y1605162D01*
X586032Y1605049D01*
X586042Y1604936D01*
X586048Y1604823D01*
X586050Y1604710D01*
X591242Y1605359D02*
X591242Y1601464D01*
X591242Y1605359D02*
X591240Y1605460D01*
X591234Y1605560D01*
X591224Y1605660D01*
X591211Y1605760D01*
X591193Y1605859D01*
X591172Y1605958D01*
X591147Y1606055D01*
X591118Y1606152D01*
X591085Y1606247D01*
X591049Y1606341D01*
X591009Y1606433D01*
X590966Y1606524D01*
X590919Y1606613D01*
X590869Y1606700D01*
X590815Y1606786D01*
X590758Y1606869D01*
X590698Y1606949D01*
X590635Y1607028D01*
X590568Y1607104D01*
X590499Y1607177D01*
X590427Y1607247D01*
X590353Y1607315D01*
X590276Y1607380D01*
X590196Y1607441D01*
X590114Y1607500D01*
X590030Y1607555D01*
X589944Y1607607D01*
X589856Y1607656D01*
X589766Y1607701D01*
X589674Y1607743D01*
X589581Y1607781D01*
X589486Y1607815D01*
X589391Y1607846D01*
X589294Y1607873D01*
X589196Y1607896D01*
X589097Y1607916D01*
X588997Y1607931D01*
X588897Y1607943D01*
X588797Y1607951D01*
X588696Y1607955D01*
X588596Y1607955D01*
X588495Y1607951D01*
X588395Y1607943D01*
X588295Y1607931D01*
X588195Y1607916D01*
X588096Y1607896D01*
X587998Y1607873D01*
X587901Y1607846D01*
X587806Y1607815D01*
X587711Y1607781D01*
X587618Y1607743D01*
X587526Y1607701D01*
X587436Y1607656D01*
X587348Y1607607D01*
X587262Y1607555D01*
X587178Y1607500D01*
X587096Y1607441D01*
X587016Y1607380D01*
X586939Y1607315D01*
X586865Y1607247D01*
X586793Y1607177D01*
X586724Y1607104D01*
X586657Y1607028D01*
X586594Y1606949D01*
X586534Y1606869D01*
X586477Y1606786D01*
X586423Y1606700D01*
X586373Y1606613D01*
X586326Y1606524D01*
X586283Y1606433D01*
X586243Y1606341D01*
X586207Y1606247D01*
X586174Y1606152D01*
X586145Y1606055D01*
X586120Y1605958D01*
X586099Y1605859D01*
X586081Y1605760D01*
X586068Y1605660D01*
X586058Y1605560D01*
X586052Y1605460D01*
X586050Y1605359D01*
X586049Y1605359D02*
X586049Y1602763D01*
X579558Y1612894D02*
X579558Y1616140D01*
X579560Y1616253D01*
X579566Y1616366D01*
X579576Y1616479D01*
X579590Y1616592D01*
X579607Y1616704D01*
X579629Y1616815D01*
X579654Y1616925D01*
X579684Y1617035D01*
X579717Y1617143D01*
X579754Y1617250D01*
X579794Y1617356D01*
X579839Y1617460D01*
X579887Y1617563D01*
X579938Y1617664D01*
X579993Y1617763D01*
X580051Y1617860D01*
X580113Y1617955D01*
X580178Y1618048D01*
X580246Y1618138D01*
X580317Y1618226D01*
X580392Y1618312D01*
X580469Y1618395D01*
X580549Y1618475D01*
X580632Y1618552D01*
X580718Y1618627D01*
X580806Y1618698D01*
X580896Y1618766D01*
X580989Y1618831D01*
X581084Y1618893D01*
X581181Y1618951D01*
X581280Y1619006D01*
X581381Y1619057D01*
X581484Y1619105D01*
X581588Y1619150D01*
X581694Y1619190D01*
X581801Y1619227D01*
X581909Y1619260D01*
X582019Y1619290D01*
X582129Y1619315D01*
X582240Y1619337D01*
X582352Y1619354D01*
X582465Y1619368D01*
X582578Y1619378D01*
X582691Y1619384D01*
X582804Y1619386D01*
X582917Y1619384D01*
X583030Y1619378D01*
X583143Y1619368D01*
X583256Y1619354D01*
X583368Y1619337D01*
X583479Y1619315D01*
X583589Y1619290D01*
X583699Y1619260D01*
X583807Y1619227D01*
X583914Y1619190D01*
X584020Y1619150D01*
X584124Y1619105D01*
X584227Y1619057D01*
X584328Y1619006D01*
X584427Y1618951D01*
X584524Y1618893D01*
X584619Y1618831D01*
X584712Y1618766D01*
X584802Y1618698D01*
X584890Y1618627D01*
X584976Y1618552D01*
X585059Y1618475D01*
X585139Y1618395D01*
X585216Y1618312D01*
X585291Y1618226D01*
X585362Y1618138D01*
X585430Y1618048D01*
X585495Y1617955D01*
X585557Y1617860D01*
X585615Y1617763D01*
X585670Y1617664D01*
X585721Y1617563D01*
X585769Y1617460D01*
X585814Y1617356D01*
X585854Y1617250D01*
X585891Y1617143D01*
X585924Y1617035D01*
X585954Y1616925D01*
X585979Y1616815D01*
X586001Y1616704D01*
X586018Y1616592D01*
X586032Y1616479D01*
X586042Y1616366D01*
X586048Y1616253D01*
X586050Y1616140D01*
X591242Y1616789D02*
X591242Y1612894D01*
X591242Y1616789D02*
X591240Y1616890D01*
X591234Y1616990D01*
X591224Y1617090D01*
X591211Y1617190D01*
X591193Y1617289D01*
X591172Y1617388D01*
X591147Y1617485D01*
X591118Y1617582D01*
X591085Y1617677D01*
X591049Y1617771D01*
X591009Y1617863D01*
X590966Y1617954D01*
X590919Y1618043D01*
X590869Y1618130D01*
X590815Y1618216D01*
X590758Y1618299D01*
X590698Y1618379D01*
X590635Y1618458D01*
X590568Y1618534D01*
X590499Y1618607D01*
X590427Y1618677D01*
X590353Y1618745D01*
X590276Y1618810D01*
X590196Y1618871D01*
X590114Y1618930D01*
X590030Y1618985D01*
X589944Y1619037D01*
X589856Y1619086D01*
X589766Y1619131D01*
X589674Y1619173D01*
X589581Y1619211D01*
X589486Y1619245D01*
X589391Y1619276D01*
X589294Y1619303D01*
X589196Y1619326D01*
X589097Y1619346D01*
X588997Y1619361D01*
X588897Y1619373D01*
X588797Y1619381D01*
X588696Y1619385D01*
X588596Y1619385D01*
X588495Y1619381D01*
X588395Y1619373D01*
X588295Y1619361D01*
X588195Y1619346D01*
X588096Y1619326D01*
X587998Y1619303D01*
X587901Y1619276D01*
X587806Y1619245D01*
X587711Y1619211D01*
X587618Y1619173D01*
X587526Y1619131D01*
X587436Y1619086D01*
X587348Y1619037D01*
X587262Y1618985D01*
X587178Y1618930D01*
X587096Y1618871D01*
X587016Y1618810D01*
X586939Y1618745D01*
X586865Y1618677D01*
X586793Y1618607D01*
X586724Y1618534D01*
X586657Y1618458D01*
X586594Y1618379D01*
X586534Y1618299D01*
X586477Y1618216D01*
X586423Y1618130D01*
X586373Y1618043D01*
X586326Y1617954D01*
X586283Y1617863D01*
X586243Y1617771D01*
X586207Y1617677D01*
X586174Y1617582D01*
X586145Y1617485D01*
X586120Y1617388D01*
X586099Y1617289D01*
X586081Y1617190D01*
X586068Y1617090D01*
X586058Y1616990D01*
X586052Y1616890D01*
X586050Y1616789D01*
X586049Y1616789D02*
X586049Y1614193D01*
X604385Y1648758D02*
X604385Y1660442D01*
X601140Y1660442D01*
X601027Y1660440D01*
X600914Y1660434D01*
X600801Y1660424D01*
X600688Y1660410D01*
X600576Y1660393D01*
X600465Y1660371D01*
X600355Y1660346D01*
X600245Y1660316D01*
X600137Y1660283D01*
X600030Y1660246D01*
X599924Y1660206D01*
X599820Y1660161D01*
X599717Y1660113D01*
X599616Y1660062D01*
X599517Y1660007D01*
X599420Y1659949D01*
X599325Y1659887D01*
X599232Y1659822D01*
X599142Y1659754D01*
X599054Y1659683D01*
X598968Y1659608D01*
X598885Y1659531D01*
X598805Y1659451D01*
X598728Y1659368D01*
X598653Y1659282D01*
X598582Y1659194D01*
X598514Y1659104D01*
X598449Y1659011D01*
X598387Y1658916D01*
X598329Y1658819D01*
X598274Y1658720D01*
X598223Y1658619D01*
X598175Y1658516D01*
X598130Y1658412D01*
X598090Y1658306D01*
X598053Y1658199D01*
X598020Y1658091D01*
X597990Y1657981D01*
X597965Y1657871D01*
X597943Y1657760D01*
X597926Y1657648D01*
X597912Y1657535D01*
X597902Y1657422D01*
X597896Y1657309D01*
X597894Y1657196D01*
X597896Y1657083D01*
X597902Y1656970D01*
X597912Y1656857D01*
X597926Y1656744D01*
X597943Y1656632D01*
X597965Y1656521D01*
X597990Y1656411D01*
X598020Y1656301D01*
X598053Y1656193D01*
X598090Y1656086D01*
X598130Y1655980D01*
X598175Y1655876D01*
X598223Y1655773D01*
X598274Y1655672D01*
X598329Y1655573D01*
X598387Y1655476D01*
X598449Y1655381D01*
X598514Y1655288D01*
X598582Y1655198D01*
X598653Y1655110D01*
X598728Y1655024D01*
X598805Y1654941D01*
X598885Y1654861D01*
X598968Y1654784D01*
X599054Y1654709D01*
X599142Y1654638D01*
X599232Y1654570D01*
X599325Y1654505D01*
X599420Y1654443D01*
X599517Y1654385D01*
X599616Y1654330D01*
X599717Y1654279D01*
X599820Y1654231D01*
X599924Y1654186D01*
X600030Y1654146D01*
X600137Y1654109D01*
X600245Y1654076D01*
X600355Y1654046D01*
X600465Y1654021D01*
X600576Y1653999D01*
X600688Y1653982D01*
X600801Y1653968D01*
X600914Y1653958D01*
X601027Y1653952D01*
X601140Y1653950D01*
X601140Y1653951D02*
X604385Y1653951D01*
X600491Y1653951D02*
X597894Y1648758D01*
X593029Y1648758D02*
X589784Y1648758D01*
X589671Y1648760D01*
X589558Y1648766D01*
X589445Y1648776D01*
X589332Y1648790D01*
X589220Y1648807D01*
X589109Y1648829D01*
X588999Y1648854D01*
X588889Y1648884D01*
X588781Y1648917D01*
X588674Y1648954D01*
X588568Y1648994D01*
X588464Y1649039D01*
X588361Y1649087D01*
X588260Y1649138D01*
X588161Y1649193D01*
X588064Y1649251D01*
X587969Y1649313D01*
X587876Y1649378D01*
X587786Y1649446D01*
X587698Y1649517D01*
X587612Y1649592D01*
X587529Y1649669D01*
X587449Y1649749D01*
X587372Y1649832D01*
X587297Y1649918D01*
X587226Y1650006D01*
X587158Y1650096D01*
X587093Y1650189D01*
X587031Y1650284D01*
X586973Y1650381D01*
X586918Y1650480D01*
X586867Y1650581D01*
X586819Y1650684D01*
X586774Y1650788D01*
X586734Y1650894D01*
X586697Y1651001D01*
X586664Y1651109D01*
X586634Y1651219D01*
X586609Y1651329D01*
X586587Y1651440D01*
X586570Y1651552D01*
X586556Y1651665D01*
X586546Y1651778D01*
X586540Y1651891D01*
X586538Y1652004D01*
X586540Y1652117D01*
X586546Y1652230D01*
X586556Y1652343D01*
X586570Y1652456D01*
X586587Y1652568D01*
X586609Y1652679D01*
X586634Y1652789D01*
X586664Y1652899D01*
X586697Y1653007D01*
X586734Y1653114D01*
X586774Y1653220D01*
X586819Y1653324D01*
X586867Y1653427D01*
X586918Y1653528D01*
X586973Y1653627D01*
X587031Y1653724D01*
X587093Y1653819D01*
X587158Y1653912D01*
X587226Y1654002D01*
X587297Y1654090D01*
X587372Y1654176D01*
X587449Y1654259D01*
X587529Y1654339D01*
X587612Y1654416D01*
X587698Y1654491D01*
X587786Y1654562D01*
X587876Y1654630D01*
X587969Y1654695D01*
X588064Y1654757D01*
X588161Y1654815D01*
X588260Y1654870D01*
X588361Y1654921D01*
X588464Y1654969D01*
X588568Y1655014D01*
X588674Y1655054D01*
X588781Y1655091D01*
X588889Y1655124D01*
X588999Y1655154D01*
X589109Y1655179D01*
X589220Y1655201D01*
X589332Y1655218D01*
X589445Y1655232D01*
X589558Y1655242D01*
X589671Y1655248D01*
X589784Y1655250D01*
X589134Y1660442D02*
X593029Y1660442D01*
X589134Y1660442D02*
X589033Y1660440D01*
X588933Y1660434D01*
X588833Y1660424D01*
X588733Y1660411D01*
X588634Y1660393D01*
X588535Y1660372D01*
X588438Y1660347D01*
X588341Y1660318D01*
X588246Y1660285D01*
X588152Y1660249D01*
X588060Y1660209D01*
X587969Y1660166D01*
X587880Y1660119D01*
X587793Y1660069D01*
X587707Y1660015D01*
X587624Y1659958D01*
X587544Y1659898D01*
X587465Y1659835D01*
X587389Y1659768D01*
X587316Y1659699D01*
X587246Y1659627D01*
X587178Y1659553D01*
X587113Y1659476D01*
X587052Y1659396D01*
X586993Y1659314D01*
X586938Y1659230D01*
X586886Y1659144D01*
X586837Y1659056D01*
X586792Y1658966D01*
X586750Y1658874D01*
X586712Y1658781D01*
X586678Y1658686D01*
X586647Y1658591D01*
X586620Y1658494D01*
X586597Y1658396D01*
X586577Y1658297D01*
X586562Y1658197D01*
X586550Y1658097D01*
X586542Y1657997D01*
X586538Y1657896D01*
X586538Y1657796D01*
X586542Y1657695D01*
X586550Y1657595D01*
X586562Y1657495D01*
X586577Y1657395D01*
X586597Y1657296D01*
X586620Y1657198D01*
X586647Y1657101D01*
X586678Y1657006D01*
X586712Y1656911D01*
X586750Y1656818D01*
X586792Y1656726D01*
X586837Y1656636D01*
X586886Y1656548D01*
X586938Y1656462D01*
X586993Y1656378D01*
X587052Y1656296D01*
X587113Y1656216D01*
X587178Y1656139D01*
X587246Y1656065D01*
X587316Y1655993D01*
X587389Y1655924D01*
X587465Y1655857D01*
X587544Y1655794D01*
X587624Y1655734D01*
X587707Y1655677D01*
X587793Y1655623D01*
X587880Y1655573D01*
X587969Y1655526D01*
X588060Y1655483D01*
X588152Y1655443D01*
X588246Y1655407D01*
X588341Y1655374D01*
X588438Y1655345D01*
X588535Y1655320D01*
X588634Y1655299D01*
X588733Y1655281D01*
X588833Y1655268D01*
X588933Y1655258D01*
X589033Y1655252D01*
X589134Y1655250D01*
X589134Y1655249D02*
X591731Y1655249D01*
X581599Y1651354D02*
X579003Y1660442D01*
X581599Y1651354D02*
X575108Y1651354D01*
X577055Y1653951D02*
X577055Y1648758D01*
X608758Y1610615D02*
X620442Y1610615D01*
X620442Y1613860D01*
X620440Y1613973D01*
X620434Y1614086D01*
X620424Y1614199D01*
X620410Y1614312D01*
X620393Y1614424D01*
X620371Y1614535D01*
X620346Y1614645D01*
X620316Y1614755D01*
X620283Y1614863D01*
X620246Y1614970D01*
X620206Y1615076D01*
X620161Y1615180D01*
X620113Y1615283D01*
X620062Y1615384D01*
X620007Y1615483D01*
X619949Y1615580D01*
X619887Y1615675D01*
X619822Y1615768D01*
X619754Y1615858D01*
X619683Y1615946D01*
X619608Y1616032D01*
X619531Y1616115D01*
X619451Y1616195D01*
X619368Y1616272D01*
X619282Y1616347D01*
X619194Y1616418D01*
X619104Y1616486D01*
X619011Y1616551D01*
X618916Y1616613D01*
X618819Y1616671D01*
X618720Y1616726D01*
X618619Y1616777D01*
X618516Y1616825D01*
X618412Y1616870D01*
X618306Y1616910D01*
X618199Y1616947D01*
X618091Y1616980D01*
X617981Y1617010D01*
X617871Y1617035D01*
X617760Y1617057D01*
X617648Y1617074D01*
X617535Y1617088D01*
X617422Y1617098D01*
X617309Y1617104D01*
X617196Y1617106D01*
X617083Y1617104D01*
X616970Y1617098D01*
X616857Y1617088D01*
X616744Y1617074D01*
X616632Y1617057D01*
X616521Y1617035D01*
X616411Y1617010D01*
X616301Y1616980D01*
X616193Y1616947D01*
X616086Y1616910D01*
X615980Y1616870D01*
X615876Y1616825D01*
X615773Y1616777D01*
X615672Y1616726D01*
X615573Y1616671D01*
X615476Y1616613D01*
X615381Y1616551D01*
X615288Y1616486D01*
X615198Y1616418D01*
X615110Y1616347D01*
X615024Y1616272D01*
X614941Y1616195D01*
X614861Y1616115D01*
X614784Y1616032D01*
X614709Y1615946D01*
X614638Y1615858D01*
X614570Y1615768D01*
X614505Y1615675D01*
X614443Y1615580D01*
X614385Y1615483D01*
X614330Y1615384D01*
X614279Y1615283D01*
X614231Y1615180D01*
X614186Y1615076D01*
X614146Y1614970D01*
X614109Y1614863D01*
X614076Y1614755D01*
X614046Y1614645D01*
X614021Y1614535D01*
X613999Y1614424D01*
X613982Y1614312D01*
X613968Y1614199D01*
X613958Y1614086D01*
X613952Y1613973D01*
X613950Y1613860D01*
X613951Y1613860D02*
X613951Y1610615D01*
X613951Y1614509D02*
X608758Y1617106D01*
X608758Y1621971D02*
X608758Y1625216D01*
X608760Y1625329D01*
X608766Y1625442D01*
X608776Y1625555D01*
X608790Y1625668D01*
X608807Y1625780D01*
X608829Y1625891D01*
X608854Y1626001D01*
X608884Y1626111D01*
X608917Y1626219D01*
X608954Y1626326D01*
X608994Y1626432D01*
X609039Y1626536D01*
X609087Y1626639D01*
X609138Y1626740D01*
X609193Y1626839D01*
X609251Y1626936D01*
X609313Y1627031D01*
X609378Y1627124D01*
X609446Y1627214D01*
X609517Y1627302D01*
X609592Y1627388D01*
X609669Y1627471D01*
X609749Y1627551D01*
X609832Y1627628D01*
X609918Y1627703D01*
X610006Y1627774D01*
X610096Y1627842D01*
X610189Y1627907D01*
X610284Y1627969D01*
X610381Y1628027D01*
X610480Y1628082D01*
X610581Y1628133D01*
X610684Y1628181D01*
X610788Y1628226D01*
X610894Y1628266D01*
X611001Y1628303D01*
X611109Y1628336D01*
X611219Y1628366D01*
X611329Y1628391D01*
X611440Y1628413D01*
X611552Y1628430D01*
X611665Y1628444D01*
X611778Y1628454D01*
X611891Y1628460D01*
X612004Y1628462D01*
X612117Y1628460D01*
X612230Y1628454D01*
X612343Y1628444D01*
X612456Y1628430D01*
X612568Y1628413D01*
X612679Y1628391D01*
X612789Y1628366D01*
X612899Y1628336D01*
X613007Y1628303D01*
X613114Y1628266D01*
X613220Y1628226D01*
X613324Y1628181D01*
X613427Y1628133D01*
X613528Y1628082D01*
X613627Y1628027D01*
X613724Y1627969D01*
X613819Y1627907D01*
X613912Y1627842D01*
X614002Y1627774D01*
X614090Y1627703D01*
X614176Y1627628D01*
X614259Y1627551D01*
X614339Y1627471D01*
X614416Y1627388D01*
X614491Y1627302D01*
X614562Y1627214D01*
X614630Y1627124D01*
X614695Y1627031D01*
X614757Y1626936D01*
X614815Y1626839D01*
X614870Y1626740D01*
X614921Y1626639D01*
X614969Y1626536D01*
X615014Y1626432D01*
X615054Y1626326D01*
X615091Y1626219D01*
X615124Y1626111D01*
X615154Y1626001D01*
X615179Y1625891D01*
X615201Y1625780D01*
X615218Y1625668D01*
X615232Y1625555D01*
X615242Y1625442D01*
X615248Y1625329D01*
X615250Y1625216D01*
X620442Y1625866D02*
X620442Y1621971D01*
X620442Y1625866D02*
X620440Y1625967D01*
X620434Y1626067D01*
X620424Y1626167D01*
X620411Y1626267D01*
X620393Y1626366D01*
X620372Y1626465D01*
X620347Y1626562D01*
X620318Y1626659D01*
X620285Y1626754D01*
X620249Y1626848D01*
X620209Y1626940D01*
X620166Y1627031D01*
X620119Y1627120D01*
X620069Y1627207D01*
X620015Y1627293D01*
X619958Y1627376D01*
X619898Y1627456D01*
X619835Y1627535D01*
X619768Y1627611D01*
X619699Y1627684D01*
X619627Y1627754D01*
X619553Y1627822D01*
X619476Y1627887D01*
X619396Y1627948D01*
X619314Y1628007D01*
X619230Y1628062D01*
X619144Y1628114D01*
X619056Y1628163D01*
X618966Y1628208D01*
X618874Y1628250D01*
X618781Y1628288D01*
X618686Y1628322D01*
X618591Y1628353D01*
X618494Y1628380D01*
X618396Y1628403D01*
X618297Y1628423D01*
X618197Y1628438D01*
X618097Y1628450D01*
X617997Y1628458D01*
X617896Y1628462D01*
X617796Y1628462D01*
X617695Y1628458D01*
X617595Y1628450D01*
X617495Y1628438D01*
X617395Y1628423D01*
X617296Y1628403D01*
X617198Y1628380D01*
X617101Y1628353D01*
X617006Y1628322D01*
X616911Y1628288D01*
X616818Y1628250D01*
X616726Y1628208D01*
X616636Y1628163D01*
X616548Y1628114D01*
X616462Y1628062D01*
X616378Y1628007D01*
X616296Y1627948D01*
X616216Y1627887D01*
X616139Y1627822D01*
X616065Y1627754D01*
X615993Y1627684D01*
X615924Y1627611D01*
X615857Y1627535D01*
X615794Y1627456D01*
X615734Y1627376D01*
X615677Y1627293D01*
X615623Y1627207D01*
X615573Y1627120D01*
X615526Y1627031D01*
X615483Y1626940D01*
X615443Y1626848D01*
X615407Y1626754D01*
X615374Y1626659D01*
X615345Y1626562D01*
X615320Y1626465D01*
X615299Y1626366D01*
X615281Y1626267D01*
X615268Y1626167D01*
X615258Y1626067D01*
X615252Y1625967D01*
X615250Y1625866D01*
X615249Y1625866D02*
X615249Y1623269D01*
X608758Y1633401D02*
X608758Y1637296D01*
X608760Y1637395D01*
X608766Y1637495D01*
X608775Y1637594D01*
X608788Y1637692D01*
X608805Y1637790D01*
X608826Y1637888D01*
X608851Y1637984D01*
X608879Y1638079D01*
X608911Y1638173D01*
X608946Y1638266D01*
X608985Y1638358D01*
X609028Y1638448D01*
X609073Y1638536D01*
X609123Y1638623D01*
X609175Y1638707D01*
X609231Y1638790D01*
X609289Y1638870D01*
X609351Y1638948D01*
X609416Y1639023D01*
X609484Y1639096D01*
X609554Y1639166D01*
X609627Y1639234D01*
X609702Y1639299D01*
X609780Y1639361D01*
X609860Y1639419D01*
X609943Y1639475D01*
X610027Y1639527D01*
X610114Y1639577D01*
X610202Y1639622D01*
X610292Y1639665D01*
X610384Y1639704D01*
X610477Y1639739D01*
X610571Y1639771D01*
X610666Y1639799D01*
X610762Y1639824D01*
X610860Y1639845D01*
X610958Y1639862D01*
X611056Y1639875D01*
X611155Y1639884D01*
X611255Y1639890D01*
X611354Y1639892D01*
X612653Y1639892D01*
X612752Y1639890D01*
X612852Y1639884D01*
X612951Y1639875D01*
X613049Y1639862D01*
X613147Y1639845D01*
X613245Y1639824D01*
X613341Y1639799D01*
X613436Y1639771D01*
X613530Y1639739D01*
X613623Y1639704D01*
X613715Y1639665D01*
X613805Y1639622D01*
X613893Y1639577D01*
X613980Y1639527D01*
X614064Y1639475D01*
X614147Y1639419D01*
X614227Y1639361D01*
X614305Y1639299D01*
X614380Y1639234D01*
X614453Y1639166D01*
X614523Y1639096D01*
X614591Y1639023D01*
X614656Y1638948D01*
X614718Y1638870D01*
X614776Y1638790D01*
X614832Y1638707D01*
X614884Y1638623D01*
X614934Y1638536D01*
X614979Y1638448D01*
X615022Y1638358D01*
X615061Y1638266D01*
X615096Y1638173D01*
X615128Y1638079D01*
X615156Y1637984D01*
X615181Y1637888D01*
X615202Y1637790D01*
X615219Y1637692D01*
X615232Y1637594D01*
X615241Y1637495D01*
X615247Y1637395D01*
X615249Y1637296D01*
X615249Y1633401D01*
X620442Y1633401D01*
X620442Y1639892D01*
X684385Y1525442D02*
X684385Y1513758D01*
X684385Y1525442D02*
X681140Y1525442D01*
X681027Y1525440D01*
X680914Y1525434D01*
X680801Y1525424D01*
X680688Y1525410D01*
X680576Y1525393D01*
X680465Y1525371D01*
X680355Y1525346D01*
X680245Y1525316D01*
X680137Y1525283D01*
X680030Y1525246D01*
X679924Y1525206D01*
X679820Y1525161D01*
X679717Y1525113D01*
X679616Y1525062D01*
X679517Y1525007D01*
X679420Y1524949D01*
X679325Y1524887D01*
X679232Y1524822D01*
X679142Y1524754D01*
X679054Y1524683D01*
X678968Y1524608D01*
X678885Y1524531D01*
X678805Y1524451D01*
X678728Y1524368D01*
X678653Y1524282D01*
X678582Y1524194D01*
X678514Y1524104D01*
X678449Y1524011D01*
X678387Y1523916D01*
X678329Y1523819D01*
X678274Y1523720D01*
X678223Y1523619D01*
X678175Y1523516D01*
X678130Y1523412D01*
X678090Y1523306D01*
X678053Y1523199D01*
X678020Y1523091D01*
X677990Y1522981D01*
X677965Y1522871D01*
X677943Y1522760D01*
X677926Y1522648D01*
X677912Y1522535D01*
X677902Y1522422D01*
X677896Y1522309D01*
X677894Y1522196D01*
X677896Y1522083D01*
X677902Y1521970D01*
X677912Y1521857D01*
X677926Y1521744D01*
X677943Y1521632D01*
X677965Y1521521D01*
X677990Y1521411D01*
X678020Y1521301D01*
X678053Y1521193D01*
X678090Y1521086D01*
X678130Y1520980D01*
X678175Y1520876D01*
X678223Y1520773D01*
X678274Y1520672D01*
X678329Y1520573D01*
X678387Y1520476D01*
X678449Y1520381D01*
X678514Y1520288D01*
X678582Y1520198D01*
X678653Y1520110D01*
X678728Y1520024D01*
X678805Y1519941D01*
X678885Y1519861D01*
X678968Y1519784D01*
X679054Y1519709D01*
X679142Y1519638D01*
X679232Y1519570D01*
X679325Y1519505D01*
X679420Y1519443D01*
X679517Y1519385D01*
X679616Y1519330D01*
X679717Y1519279D01*
X679820Y1519231D01*
X679924Y1519186D01*
X680030Y1519146D01*
X680137Y1519109D01*
X680245Y1519076D01*
X680355Y1519046D01*
X680465Y1519021D01*
X680576Y1518999D01*
X680688Y1518982D01*
X680801Y1518968D01*
X680914Y1518958D01*
X681027Y1518952D01*
X681140Y1518950D01*
X681140Y1518951D02*
X684385Y1518951D01*
X680491Y1518951D02*
X677894Y1513758D01*
X673029Y1513758D02*
X669784Y1513758D01*
X669671Y1513760D01*
X669558Y1513766D01*
X669445Y1513776D01*
X669332Y1513790D01*
X669220Y1513807D01*
X669109Y1513829D01*
X668999Y1513854D01*
X668889Y1513884D01*
X668781Y1513917D01*
X668674Y1513954D01*
X668568Y1513994D01*
X668464Y1514039D01*
X668361Y1514087D01*
X668260Y1514138D01*
X668161Y1514193D01*
X668064Y1514251D01*
X667969Y1514313D01*
X667876Y1514378D01*
X667786Y1514446D01*
X667698Y1514517D01*
X667612Y1514592D01*
X667529Y1514669D01*
X667449Y1514749D01*
X667372Y1514832D01*
X667297Y1514918D01*
X667226Y1515006D01*
X667158Y1515096D01*
X667093Y1515189D01*
X667031Y1515284D01*
X666973Y1515381D01*
X666918Y1515480D01*
X666867Y1515581D01*
X666819Y1515684D01*
X666774Y1515788D01*
X666734Y1515894D01*
X666697Y1516001D01*
X666664Y1516109D01*
X666634Y1516219D01*
X666609Y1516329D01*
X666587Y1516440D01*
X666570Y1516552D01*
X666556Y1516665D01*
X666546Y1516778D01*
X666540Y1516891D01*
X666538Y1517004D01*
X666540Y1517117D01*
X666546Y1517230D01*
X666556Y1517343D01*
X666570Y1517456D01*
X666587Y1517568D01*
X666609Y1517679D01*
X666634Y1517789D01*
X666664Y1517899D01*
X666697Y1518007D01*
X666734Y1518114D01*
X666774Y1518220D01*
X666819Y1518324D01*
X666867Y1518427D01*
X666918Y1518528D01*
X666973Y1518627D01*
X667031Y1518724D01*
X667093Y1518819D01*
X667158Y1518912D01*
X667226Y1519002D01*
X667297Y1519090D01*
X667372Y1519176D01*
X667449Y1519259D01*
X667529Y1519339D01*
X667612Y1519416D01*
X667698Y1519491D01*
X667786Y1519562D01*
X667876Y1519630D01*
X667969Y1519695D01*
X668064Y1519757D01*
X668161Y1519815D01*
X668260Y1519870D01*
X668361Y1519921D01*
X668464Y1519969D01*
X668568Y1520014D01*
X668674Y1520054D01*
X668781Y1520091D01*
X668889Y1520124D01*
X668999Y1520154D01*
X669109Y1520179D01*
X669220Y1520201D01*
X669332Y1520218D01*
X669445Y1520232D01*
X669558Y1520242D01*
X669671Y1520248D01*
X669784Y1520250D01*
X669134Y1525442D02*
X673029Y1525442D01*
X669134Y1525442D02*
X669033Y1525440D01*
X668933Y1525434D01*
X668833Y1525424D01*
X668733Y1525411D01*
X668634Y1525393D01*
X668535Y1525372D01*
X668438Y1525347D01*
X668341Y1525318D01*
X668246Y1525285D01*
X668152Y1525249D01*
X668060Y1525209D01*
X667969Y1525166D01*
X667880Y1525119D01*
X667793Y1525069D01*
X667707Y1525015D01*
X667624Y1524958D01*
X667544Y1524898D01*
X667465Y1524835D01*
X667389Y1524768D01*
X667316Y1524699D01*
X667246Y1524627D01*
X667178Y1524553D01*
X667113Y1524476D01*
X667052Y1524396D01*
X666993Y1524314D01*
X666938Y1524230D01*
X666886Y1524144D01*
X666837Y1524056D01*
X666792Y1523966D01*
X666750Y1523874D01*
X666712Y1523781D01*
X666678Y1523686D01*
X666647Y1523591D01*
X666620Y1523494D01*
X666597Y1523396D01*
X666577Y1523297D01*
X666562Y1523197D01*
X666550Y1523097D01*
X666542Y1522997D01*
X666538Y1522896D01*
X666538Y1522796D01*
X666542Y1522695D01*
X666550Y1522595D01*
X666562Y1522495D01*
X666577Y1522395D01*
X666597Y1522296D01*
X666620Y1522198D01*
X666647Y1522101D01*
X666678Y1522006D01*
X666712Y1521911D01*
X666750Y1521818D01*
X666792Y1521726D01*
X666837Y1521636D01*
X666886Y1521548D01*
X666938Y1521462D01*
X666993Y1521378D01*
X667052Y1521296D01*
X667113Y1521216D01*
X667178Y1521139D01*
X667246Y1521065D01*
X667316Y1520993D01*
X667389Y1520924D01*
X667465Y1520857D01*
X667544Y1520794D01*
X667624Y1520734D01*
X667707Y1520677D01*
X667793Y1520623D01*
X667880Y1520573D01*
X667969Y1520526D01*
X668060Y1520483D01*
X668152Y1520443D01*
X668246Y1520407D01*
X668341Y1520374D01*
X668438Y1520345D01*
X668535Y1520320D01*
X668634Y1520299D01*
X668733Y1520281D01*
X668833Y1520268D01*
X668933Y1520258D01*
X669033Y1520252D01*
X669134Y1520250D01*
X669134Y1520249D02*
X671731Y1520249D01*
X661599Y1520249D02*
X657704Y1520249D01*
X657605Y1520247D01*
X657505Y1520241D01*
X657406Y1520232D01*
X657308Y1520219D01*
X657210Y1520202D01*
X657112Y1520181D01*
X657016Y1520156D01*
X656921Y1520128D01*
X656827Y1520096D01*
X656734Y1520061D01*
X656642Y1520022D01*
X656552Y1519979D01*
X656464Y1519934D01*
X656377Y1519884D01*
X656293Y1519832D01*
X656210Y1519776D01*
X656130Y1519718D01*
X656052Y1519656D01*
X655977Y1519591D01*
X655904Y1519523D01*
X655834Y1519453D01*
X655766Y1519380D01*
X655701Y1519305D01*
X655639Y1519227D01*
X655581Y1519147D01*
X655525Y1519064D01*
X655473Y1518980D01*
X655423Y1518893D01*
X655378Y1518805D01*
X655335Y1518715D01*
X655296Y1518623D01*
X655261Y1518530D01*
X655229Y1518436D01*
X655201Y1518341D01*
X655176Y1518245D01*
X655155Y1518147D01*
X655138Y1518049D01*
X655125Y1517951D01*
X655116Y1517852D01*
X655110Y1517752D01*
X655108Y1517653D01*
X655108Y1517004D01*
X655110Y1516891D01*
X655116Y1516778D01*
X655126Y1516665D01*
X655140Y1516552D01*
X655157Y1516440D01*
X655179Y1516329D01*
X655204Y1516219D01*
X655234Y1516109D01*
X655267Y1516001D01*
X655304Y1515894D01*
X655344Y1515788D01*
X655389Y1515684D01*
X655437Y1515581D01*
X655488Y1515480D01*
X655543Y1515381D01*
X655601Y1515284D01*
X655663Y1515189D01*
X655728Y1515096D01*
X655796Y1515006D01*
X655867Y1514918D01*
X655942Y1514832D01*
X656019Y1514749D01*
X656099Y1514669D01*
X656182Y1514592D01*
X656268Y1514517D01*
X656356Y1514446D01*
X656446Y1514378D01*
X656539Y1514313D01*
X656634Y1514251D01*
X656731Y1514193D01*
X656830Y1514138D01*
X656931Y1514087D01*
X657034Y1514039D01*
X657138Y1513994D01*
X657244Y1513954D01*
X657351Y1513917D01*
X657459Y1513884D01*
X657569Y1513854D01*
X657679Y1513829D01*
X657790Y1513807D01*
X657902Y1513790D01*
X658015Y1513776D01*
X658128Y1513766D01*
X658241Y1513760D01*
X658354Y1513758D01*
X658467Y1513760D01*
X658580Y1513766D01*
X658693Y1513776D01*
X658806Y1513790D01*
X658918Y1513807D01*
X659029Y1513829D01*
X659139Y1513854D01*
X659249Y1513884D01*
X659357Y1513917D01*
X659464Y1513954D01*
X659570Y1513994D01*
X659674Y1514039D01*
X659777Y1514087D01*
X659878Y1514138D01*
X659977Y1514193D01*
X660074Y1514251D01*
X660169Y1514313D01*
X660262Y1514378D01*
X660352Y1514446D01*
X660440Y1514517D01*
X660526Y1514592D01*
X660609Y1514669D01*
X660689Y1514749D01*
X660766Y1514832D01*
X660841Y1514918D01*
X660912Y1515006D01*
X660980Y1515096D01*
X661045Y1515189D01*
X661107Y1515284D01*
X661165Y1515381D01*
X661220Y1515480D01*
X661271Y1515581D01*
X661319Y1515684D01*
X661364Y1515788D01*
X661404Y1515894D01*
X661441Y1516001D01*
X661474Y1516109D01*
X661504Y1516219D01*
X661529Y1516329D01*
X661551Y1516440D01*
X661568Y1516552D01*
X661582Y1516665D01*
X661592Y1516778D01*
X661598Y1516891D01*
X661600Y1517004D01*
X661599Y1517004D02*
X661599Y1520249D01*
X661597Y1520392D01*
X661591Y1520535D01*
X661581Y1520678D01*
X661567Y1520820D01*
X661550Y1520962D01*
X661528Y1521104D01*
X661503Y1521245D01*
X661473Y1521385D01*
X661440Y1521524D01*
X661403Y1521662D01*
X661362Y1521799D01*
X661318Y1521935D01*
X661269Y1522070D01*
X661217Y1522203D01*
X661162Y1522335D01*
X661102Y1522465D01*
X661039Y1522594D01*
X660973Y1522721D01*
X660903Y1522846D01*
X660830Y1522968D01*
X660753Y1523089D01*
X660673Y1523208D01*
X660590Y1523324D01*
X660504Y1523439D01*
X660415Y1523550D01*
X660322Y1523660D01*
X660227Y1523766D01*
X660128Y1523870D01*
X660027Y1523971D01*
X659923Y1524070D01*
X659817Y1524165D01*
X659707Y1524258D01*
X659596Y1524347D01*
X659481Y1524433D01*
X659365Y1524516D01*
X659246Y1524596D01*
X659125Y1524673D01*
X659003Y1524746D01*
X658878Y1524816D01*
X658751Y1524882D01*
X658622Y1524945D01*
X658492Y1525005D01*
X658360Y1525060D01*
X658227Y1525112D01*
X658092Y1525161D01*
X657956Y1525205D01*
X657819Y1525246D01*
X657681Y1525283D01*
X657542Y1525316D01*
X657402Y1525346D01*
X657261Y1525371D01*
X657119Y1525393D01*
X656977Y1525410D01*
X656835Y1525424D01*
X656692Y1525434D01*
X656549Y1525440D01*
X656406Y1525442D01*
X823208Y337808D02*
X834892Y337808D01*
X834892Y341054D01*
X834890Y341167D01*
X834884Y341280D01*
X834874Y341393D01*
X834860Y341506D01*
X834843Y341618D01*
X834821Y341729D01*
X834796Y341839D01*
X834766Y341949D01*
X834733Y342057D01*
X834696Y342164D01*
X834656Y342270D01*
X834611Y342374D01*
X834563Y342477D01*
X834512Y342578D01*
X834457Y342677D01*
X834399Y342774D01*
X834337Y342869D01*
X834272Y342962D01*
X834204Y343052D01*
X834133Y343140D01*
X834058Y343226D01*
X833981Y343309D01*
X833901Y343389D01*
X833818Y343466D01*
X833732Y343541D01*
X833644Y343612D01*
X833554Y343680D01*
X833461Y343745D01*
X833366Y343807D01*
X833269Y343865D01*
X833170Y343920D01*
X833069Y343971D01*
X832966Y344019D01*
X832862Y344064D01*
X832756Y344104D01*
X832649Y344141D01*
X832541Y344174D01*
X832431Y344204D01*
X832321Y344229D01*
X832210Y344251D01*
X832098Y344268D01*
X831985Y344282D01*
X831872Y344292D01*
X831759Y344298D01*
X831646Y344300D01*
X831533Y344298D01*
X831420Y344292D01*
X831307Y344282D01*
X831194Y344268D01*
X831082Y344251D01*
X830971Y344229D01*
X830861Y344204D01*
X830751Y344174D01*
X830643Y344141D01*
X830536Y344104D01*
X830430Y344064D01*
X830326Y344019D01*
X830223Y343971D01*
X830122Y343920D01*
X830023Y343865D01*
X829926Y343807D01*
X829831Y343745D01*
X829738Y343680D01*
X829648Y343612D01*
X829560Y343541D01*
X829474Y343466D01*
X829391Y343389D01*
X829311Y343309D01*
X829234Y343226D01*
X829159Y343140D01*
X829088Y343052D01*
X829020Y342962D01*
X828955Y342869D01*
X828893Y342774D01*
X828835Y342677D01*
X828780Y342578D01*
X828729Y342477D01*
X828681Y342374D01*
X828636Y342270D01*
X828596Y342164D01*
X828559Y342057D01*
X828526Y341949D01*
X828496Y341839D01*
X828471Y341729D01*
X828449Y341618D01*
X828432Y341506D01*
X828418Y341393D01*
X828408Y341280D01*
X828402Y341167D01*
X828400Y341054D01*
X828401Y341054D02*
X828401Y337808D01*
X828401Y341703D02*
X823208Y344299D01*
X823208Y349164D02*
X823208Y352410D01*
X823210Y352523D01*
X823216Y352636D01*
X823226Y352749D01*
X823240Y352862D01*
X823257Y352974D01*
X823279Y353085D01*
X823304Y353195D01*
X823334Y353305D01*
X823367Y353413D01*
X823404Y353520D01*
X823444Y353626D01*
X823489Y353730D01*
X823537Y353833D01*
X823588Y353934D01*
X823643Y354033D01*
X823701Y354130D01*
X823763Y354225D01*
X823828Y354318D01*
X823896Y354408D01*
X823967Y354496D01*
X824042Y354582D01*
X824119Y354665D01*
X824199Y354745D01*
X824282Y354822D01*
X824368Y354897D01*
X824456Y354968D01*
X824546Y355036D01*
X824639Y355101D01*
X824734Y355163D01*
X824831Y355221D01*
X824930Y355276D01*
X825031Y355327D01*
X825134Y355375D01*
X825238Y355420D01*
X825344Y355460D01*
X825451Y355497D01*
X825559Y355530D01*
X825669Y355560D01*
X825779Y355585D01*
X825890Y355607D01*
X826002Y355624D01*
X826115Y355638D01*
X826228Y355648D01*
X826341Y355654D01*
X826454Y355656D01*
X826567Y355654D01*
X826680Y355648D01*
X826793Y355638D01*
X826906Y355624D01*
X827018Y355607D01*
X827129Y355585D01*
X827239Y355560D01*
X827349Y355530D01*
X827457Y355497D01*
X827564Y355460D01*
X827670Y355420D01*
X827774Y355375D01*
X827877Y355327D01*
X827978Y355276D01*
X828077Y355221D01*
X828174Y355163D01*
X828269Y355101D01*
X828362Y355036D01*
X828452Y354968D01*
X828540Y354897D01*
X828626Y354822D01*
X828709Y354745D01*
X828789Y354665D01*
X828866Y354582D01*
X828941Y354496D01*
X829012Y354408D01*
X829080Y354318D01*
X829145Y354225D01*
X829207Y354130D01*
X829265Y354033D01*
X829320Y353934D01*
X829371Y353833D01*
X829419Y353730D01*
X829464Y353626D01*
X829504Y353520D01*
X829541Y353413D01*
X829574Y353305D01*
X829604Y353195D01*
X829629Y353085D01*
X829651Y352974D01*
X829668Y352862D01*
X829682Y352749D01*
X829692Y352636D01*
X829698Y352523D01*
X829700Y352410D01*
X834892Y353059D02*
X834892Y349164D01*
X834892Y353059D02*
X834890Y353160D01*
X834884Y353260D01*
X834874Y353360D01*
X834861Y353460D01*
X834843Y353559D01*
X834822Y353658D01*
X834797Y353755D01*
X834768Y353852D01*
X834735Y353947D01*
X834699Y354041D01*
X834659Y354133D01*
X834616Y354224D01*
X834569Y354313D01*
X834519Y354400D01*
X834465Y354486D01*
X834408Y354569D01*
X834348Y354649D01*
X834285Y354728D01*
X834218Y354804D01*
X834149Y354877D01*
X834077Y354947D01*
X834003Y355015D01*
X833926Y355080D01*
X833846Y355141D01*
X833764Y355200D01*
X833680Y355255D01*
X833594Y355307D01*
X833506Y355356D01*
X833416Y355401D01*
X833324Y355443D01*
X833231Y355481D01*
X833136Y355515D01*
X833041Y355546D01*
X832944Y355573D01*
X832846Y355596D01*
X832747Y355616D01*
X832647Y355631D01*
X832547Y355643D01*
X832447Y355651D01*
X832346Y355655D01*
X832246Y355655D01*
X832145Y355651D01*
X832045Y355643D01*
X831945Y355631D01*
X831845Y355616D01*
X831746Y355596D01*
X831648Y355573D01*
X831551Y355546D01*
X831456Y355515D01*
X831361Y355481D01*
X831268Y355443D01*
X831176Y355401D01*
X831086Y355356D01*
X830998Y355307D01*
X830912Y355255D01*
X830828Y355200D01*
X830746Y355141D01*
X830666Y355080D01*
X830589Y355015D01*
X830515Y354947D01*
X830443Y354877D01*
X830374Y354804D01*
X830307Y354728D01*
X830244Y354649D01*
X830184Y354569D01*
X830127Y354486D01*
X830073Y354400D01*
X830023Y354313D01*
X829976Y354224D01*
X829933Y354133D01*
X829893Y354041D01*
X829857Y353947D01*
X829824Y353852D01*
X829795Y353755D01*
X829770Y353658D01*
X829749Y353559D01*
X829731Y353460D01*
X829718Y353360D01*
X829708Y353260D01*
X829702Y353160D01*
X829700Y353059D01*
X829699Y353059D02*
X829699Y350463D01*
X805655Y301792D02*
X805655Y290108D01*
X805655Y301792D02*
X802410Y301792D01*
X802297Y301790D01*
X802184Y301784D01*
X802071Y301774D01*
X801958Y301760D01*
X801846Y301743D01*
X801735Y301721D01*
X801625Y301696D01*
X801515Y301666D01*
X801407Y301633D01*
X801300Y301596D01*
X801194Y301556D01*
X801090Y301511D01*
X800987Y301463D01*
X800886Y301412D01*
X800787Y301357D01*
X800690Y301299D01*
X800595Y301237D01*
X800502Y301172D01*
X800412Y301104D01*
X800324Y301033D01*
X800238Y300958D01*
X800155Y300881D01*
X800075Y300801D01*
X799998Y300718D01*
X799923Y300632D01*
X799852Y300544D01*
X799784Y300454D01*
X799719Y300361D01*
X799657Y300266D01*
X799599Y300169D01*
X799544Y300070D01*
X799493Y299969D01*
X799445Y299866D01*
X799400Y299762D01*
X799360Y299656D01*
X799323Y299549D01*
X799290Y299441D01*
X799260Y299331D01*
X799235Y299221D01*
X799213Y299110D01*
X799196Y298998D01*
X799182Y298885D01*
X799172Y298772D01*
X799166Y298659D01*
X799164Y298546D01*
X799166Y298433D01*
X799172Y298320D01*
X799182Y298207D01*
X799196Y298094D01*
X799213Y297982D01*
X799235Y297871D01*
X799260Y297761D01*
X799290Y297651D01*
X799323Y297543D01*
X799360Y297436D01*
X799400Y297330D01*
X799445Y297226D01*
X799493Y297123D01*
X799544Y297022D01*
X799599Y296923D01*
X799657Y296826D01*
X799719Y296731D01*
X799784Y296638D01*
X799852Y296548D01*
X799923Y296460D01*
X799998Y296374D01*
X800075Y296291D01*
X800155Y296211D01*
X800238Y296134D01*
X800324Y296059D01*
X800412Y295988D01*
X800502Y295920D01*
X800595Y295855D01*
X800690Y295793D01*
X800787Y295735D01*
X800886Y295680D01*
X800987Y295629D01*
X801090Y295581D01*
X801194Y295536D01*
X801300Y295496D01*
X801407Y295459D01*
X801515Y295426D01*
X801625Y295396D01*
X801735Y295371D01*
X801846Y295349D01*
X801958Y295332D01*
X802071Y295318D01*
X802184Y295308D01*
X802297Y295302D01*
X802410Y295300D01*
X802410Y295301D02*
X805655Y295301D01*
X801761Y295301D02*
X799164Y290108D01*
X794299Y292704D02*
X791703Y301792D01*
X794299Y292704D02*
X787808Y292704D01*
X789755Y295301D02*
X789755Y290108D01*
X845842Y229892D02*
X845842Y218208D01*
X840649Y218208D01*
X835936Y218208D02*
X830743Y218208D01*
X835936Y218208D02*
X835936Y229892D01*
X830743Y229892D01*
X832041Y224699D02*
X835936Y224699D01*
X826053Y229892D02*
X826053Y218208D01*
X826053Y229892D02*
X822807Y229892D01*
X822694Y229890D01*
X822581Y229884D01*
X822468Y229874D01*
X822355Y229860D01*
X822243Y229843D01*
X822132Y229821D01*
X822022Y229796D01*
X821912Y229766D01*
X821804Y229733D01*
X821697Y229696D01*
X821591Y229656D01*
X821487Y229611D01*
X821384Y229563D01*
X821283Y229512D01*
X821184Y229457D01*
X821087Y229399D01*
X820992Y229337D01*
X820899Y229272D01*
X820809Y229204D01*
X820721Y229133D01*
X820635Y229058D01*
X820552Y228981D01*
X820472Y228901D01*
X820395Y228818D01*
X820320Y228732D01*
X820249Y228644D01*
X820181Y228554D01*
X820116Y228461D01*
X820054Y228366D01*
X819996Y228269D01*
X819941Y228170D01*
X819890Y228069D01*
X819842Y227966D01*
X819797Y227862D01*
X819757Y227756D01*
X819720Y227649D01*
X819687Y227541D01*
X819657Y227431D01*
X819632Y227321D01*
X819610Y227210D01*
X819593Y227098D01*
X819579Y226985D01*
X819569Y226872D01*
X819563Y226759D01*
X819561Y226646D01*
X819562Y226646D02*
X819562Y221454D01*
X819561Y221454D02*
X819563Y221341D01*
X819569Y221228D01*
X819579Y221115D01*
X819593Y221002D01*
X819610Y220890D01*
X819632Y220779D01*
X819657Y220669D01*
X819687Y220559D01*
X819720Y220451D01*
X819757Y220344D01*
X819797Y220238D01*
X819842Y220134D01*
X819890Y220031D01*
X819941Y219930D01*
X819996Y219831D01*
X820054Y219734D01*
X820116Y219639D01*
X820181Y219546D01*
X820249Y219456D01*
X820320Y219368D01*
X820395Y219282D01*
X820472Y219199D01*
X820552Y219119D01*
X820635Y219042D01*
X820721Y218967D01*
X820809Y218896D01*
X820899Y218828D01*
X820992Y218763D01*
X821087Y218701D01*
X821184Y218643D01*
X821283Y218588D01*
X821384Y218537D01*
X821487Y218489D01*
X821591Y218444D01*
X821697Y218404D01*
X821804Y218367D01*
X821912Y218334D01*
X822022Y218304D01*
X822132Y218279D01*
X822243Y218257D01*
X822355Y218240D01*
X822468Y218226D01*
X822581Y218216D01*
X822694Y218210D01*
X822807Y218208D01*
X826053Y218208D01*
X814736Y216910D02*
X809543Y216910D01*
X804643Y218208D02*
X804643Y229892D01*
X801397Y229892D01*
X801284Y229890D01*
X801171Y229884D01*
X801058Y229874D01*
X800945Y229860D01*
X800833Y229843D01*
X800722Y229821D01*
X800612Y229796D01*
X800502Y229766D01*
X800394Y229733D01*
X800287Y229696D01*
X800181Y229656D01*
X800077Y229611D01*
X799974Y229563D01*
X799873Y229512D01*
X799774Y229457D01*
X799677Y229399D01*
X799582Y229337D01*
X799489Y229272D01*
X799399Y229204D01*
X799311Y229133D01*
X799225Y229058D01*
X799142Y228981D01*
X799062Y228901D01*
X798985Y228818D01*
X798910Y228732D01*
X798839Y228644D01*
X798771Y228554D01*
X798706Y228461D01*
X798644Y228366D01*
X798586Y228269D01*
X798531Y228170D01*
X798480Y228069D01*
X798432Y227966D01*
X798387Y227862D01*
X798347Y227756D01*
X798310Y227649D01*
X798277Y227541D01*
X798247Y227431D01*
X798222Y227321D01*
X798200Y227210D01*
X798183Y227098D01*
X798169Y226985D01*
X798159Y226872D01*
X798153Y226759D01*
X798151Y226646D01*
X798153Y226533D01*
X798159Y226420D01*
X798169Y226307D01*
X798183Y226194D01*
X798200Y226082D01*
X798222Y225971D01*
X798247Y225861D01*
X798277Y225751D01*
X798310Y225643D01*
X798347Y225536D01*
X798387Y225430D01*
X798432Y225326D01*
X798480Y225223D01*
X798531Y225122D01*
X798586Y225023D01*
X798644Y224926D01*
X798706Y224831D01*
X798771Y224738D01*
X798839Y224648D01*
X798910Y224560D01*
X798985Y224474D01*
X799062Y224391D01*
X799142Y224311D01*
X799225Y224234D01*
X799311Y224159D01*
X799399Y224088D01*
X799489Y224020D01*
X799582Y223955D01*
X799677Y223893D01*
X799774Y223835D01*
X799873Y223780D01*
X799974Y223729D01*
X800077Y223681D01*
X800181Y223636D01*
X800287Y223596D01*
X800394Y223559D01*
X800502Y223526D01*
X800612Y223496D01*
X800722Y223471D01*
X800833Y223449D01*
X800945Y223432D01*
X801058Y223418D01*
X801171Y223408D01*
X801284Y223402D01*
X801397Y223400D01*
X801397Y223401D02*
X804643Y223401D01*
X800748Y223401D02*
X798152Y218208D01*
X793287Y224699D02*
X789392Y224699D01*
X789293Y224697D01*
X789193Y224691D01*
X789094Y224682D01*
X788996Y224669D01*
X788898Y224652D01*
X788800Y224631D01*
X788704Y224606D01*
X788609Y224578D01*
X788515Y224546D01*
X788422Y224511D01*
X788330Y224472D01*
X788240Y224429D01*
X788152Y224384D01*
X788065Y224334D01*
X787981Y224282D01*
X787898Y224226D01*
X787818Y224168D01*
X787740Y224106D01*
X787665Y224041D01*
X787592Y223973D01*
X787522Y223903D01*
X787454Y223830D01*
X787389Y223755D01*
X787327Y223677D01*
X787269Y223597D01*
X787213Y223514D01*
X787161Y223430D01*
X787111Y223343D01*
X787066Y223255D01*
X787023Y223165D01*
X786984Y223073D01*
X786949Y222980D01*
X786917Y222886D01*
X786889Y222791D01*
X786864Y222695D01*
X786843Y222597D01*
X786826Y222499D01*
X786813Y222401D01*
X786804Y222302D01*
X786798Y222202D01*
X786796Y222103D01*
X786796Y221454D01*
X786795Y221454D02*
X786797Y221341D01*
X786803Y221228D01*
X786813Y221115D01*
X786827Y221002D01*
X786844Y220890D01*
X786866Y220779D01*
X786891Y220669D01*
X786921Y220559D01*
X786954Y220451D01*
X786991Y220344D01*
X787031Y220238D01*
X787076Y220134D01*
X787124Y220031D01*
X787175Y219930D01*
X787230Y219831D01*
X787288Y219734D01*
X787350Y219639D01*
X787415Y219546D01*
X787483Y219456D01*
X787554Y219368D01*
X787629Y219282D01*
X787706Y219199D01*
X787786Y219119D01*
X787869Y219042D01*
X787955Y218967D01*
X788043Y218896D01*
X788133Y218828D01*
X788226Y218763D01*
X788321Y218701D01*
X788418Y218643D01*
X788517Y218588D01*
X788618Y218537D01*
X788721Y218489D01*
X788825Y218444D01*
X788931Y218404D01*
X789038Y218367D01*
X789146Y218334D01*
X789256Y218304D01*
X789366Y218279D01*
X789477Y218257D01*
X789589Y218240D01*
X789702Y218226D01*
X789815Y218216D01*
X789928Y218210D01*
X790041Y218208D01*
X790154Y218210D01*
X790267Y218216D01*
X790380Y218226D01*
X790493Y218240D01*
X790605Y218257D01*
X790716Y218279D01*
X790826Y218304D01*
X790936Y218334D01*
X791044Y218367D01*
X791151Y218404D01*
X791257Y218444D01*
X791361Y218489D01*
X791464Y218537D01*
X791565Y218588D01*
X791664Y218643D01*
X791761Y218701D01*
X791856Y218763D01*
X791949Y218828D01*
X792039Y218896D01*
X792127Y218967D01*
X792213Y219042D01*
X792296Y219119D01*
X792376Y219199D01*
X792453Y219282D01*
X792528Y219368D01*
X792599Y219456D01*
X792667Y219546D01*
X792732Y219639D01*
X792794Y219734D01*
X792852Y219831D01*
X792907Y219930D01*
X792958Y220031D01*
X793006Y220134D01*
X793051Y220238D01*
X793091Y220344D01*
X793128Y220451D01*
X793161Y220559D01*
X793191Y220669D01*
X793216Y220779D01*
X793238Y220890D01*
X793255Y221002D01*
X793269Y221115D01*
X793279Y221228D01*
X793285Y221341D01*
X793287Y221454D01*
X793287Y224699D01*
X793285Y224842D01*
X793279Y224985D01*
X793269Y225128D01*
X793255Y225270D01*
X793238Y225412D01*
X793216Y225554D01*
X793191Y225695D01*
X793161Y225835D01*
X793128Y225974D01*
X793091Y226112D01*
X793050Y226249D01*
X793006Y226385D01*
X792957Y226520D01*
X792905Y226653D01*
X792850Y226785D01*
X792790Y226915D01*
X792727Y227044D01*
X792661Y227171D01*
X792591Y227296D01*
X792518Y227418D01*
X792441Y227539D01*
X792361Y227658D01*
X792278Y227774D01*
X792192Y227889D01*
X792103Y228000D01*
X792010Y228110D01*
X791915Y228216D01*
X791816Y228320D01*
X791715Y228421D01*
X791611Y228520D01*
X791505Y228615D01*
X791395Y228708D01*
X791284Y228797D01*
X791169Y228883D01*
X791053Y228966D01*
X790934Y229046D01*
X790813Y229123D01*
X790691Y229196D01*
X790566Y229266D01*
X790439Y229332D01*
X790310Y229395D01*
X790180Y229455D01*
X790048Y229510D01*
X789915Y229562D01*
X789780Y229611D01*
X789644Y229655D01*
X789507Y229696D01*
X789369Y229733D01*
X789230Y229766D01*
X789090Y229796D01*
X788949Y229821D01*
X788807Y229843D01*
X788665Y229860D01*
X788523Y229874D01*
X788380Y229884D01*
X788237Y229890D01*
X788094Y229892D01*
M02*
