M48
;GenerationSoftware,Autodesk,EAGLE,9.5.1*%
;CreationDate,2019-12-10T02:22:03Z*%
FMAT,2
ICI,OFF
METRIC,TZ,000.000
T10C0.830
T9C0.850
T8C0.889
T7C1.270
T6C1.400
T5C1.905
T4C2.000
T3C2.540
T2C3.000
T1C7.620
%
G90
M71
T1
X53750Y52460
T2
X2600Y5490
X169400Y5490
X152600Y5490
X19400Y5490
T3
X141000Y30300
X112000Y30300
X112000Y55700
X141000Y55700
T4
X109000Y37920
X144000Y37920
X144000Y48080
X109000Y48080
X137000Y37920
X137000Y48080
X115000Y48080
X115000Y37920
T5
X10620Y54500
X161000Y54500
X168620Y54500
X168620Y59580
X3000Y59580
X10620Y59580
X161000Y59580
X3000Y54500
T6
X19400Y12790
X2600Y18290
X11000Y12790
X6800Y12790
X2600Y12790
X6800Y18290
X11000Y18290
X15200Y18290
X19400Y18290
X17850Y30500
X2150Y30500
X152600Y18290
X90600Y49750
X86400Y49750
X86400Y55250
X165200Y12790
X161000Y18290
X165200Y18290
X169400Y18290
X169400Y12790
X15200Y12790
X161000Y12790
X90600Y55250
X156800Y12790
X152600Y12790
X156800Y18290
T7
X85580Y7070
X133840Y3260
X123680Y18500
X85580Y14690
X144000Y18500
T8
X57814Y13090
X49686Y13090
X62132Y50936
X45368Y50936
T9
X6250Y42500
X13750Y42500
T10
X3120Y26500
X12880Y26500
M30