G04 EAGLE Gerber RS-274X export*
G75*
%MOMM*%
%FSLAX34Y34*%
%LPD*%
%INmilling*%
%IPPOS*%
%AMOC8*
5,1,8,0,0,1.08239X$1,22.5*%
G01*
%ADD10C,0.000000*%


D10*
X804200Y423000D02*
X804200Y194400D01*
X766100Y156300D02*
X308900Y156300D01*
X270800Y194400D02*
X270800Y423000D01*
X308900Y461100D02*
X766100Y461100D01*
X308900Y461100D02*
X307979Y461089D01*
X307059Y461056D01*
X306140Y461000D01*
X305223Y460922D01*
X304308Y460822D01*
X303395Y460700D01*
X302486Y460556D01*
X301580Y460390D01*
X300679Y460202D01*
X299782Y459993D01*
X298891Y459762D01*
X298005Y459509D01*
X297126Y459235D01*
X296254Y458940D01*
X295390Y458624D01*
X294533Y458287D01*
X293684Y457930D01*
X292845Y457552D01*
X292014Y457154D01*
X291194Y456736D01*
X290384Y456298D01*
X289585Y455841D01*
X288797Y455365D01*
X288021Y454870D01*
X287257Y454356D01*
X286505Y453824D01*
X285767Y453273D01*
X285042Y452706D01*
X284332Y452120D01*
X283635Y451518D01*
X282953Y450899D01*
X282287Y450264D01*
X281636Y449613D01*
X281001Y448947D01*
X280382Y448265D01*
X279780Y447568D01*
X279194Y446858D01*
X278627Y446133D01*
X278076Y445395D01*
X277544Y444643D01*
X277030Y443879D01*
X276535Y443103D01*
X276059Y442315D01*
X275602Y441516D01*
X275164Y440706D01*
X274746Y439886D01*
X274348Y439055D01*
X273970Y438216D01*
X273613Y437367D01*
X273276Y436510D01*
X272960Y435646D01*
X272665Y434774D01*
X272391Y433895D01*
X272138Y433009D01*
X271907Y432118D01*
X271698Y431221D01*
X271510Y430320D01*
X271344Y429414D01*
X271200Y428505D01*
X271078Y427592D01*
X270978Y426677D01*
X270900Y425760D01*
X270844Y424841D01*
X270811Y423921D01*
X270800Y423000D01*
X766100Y461100D02*
X767021Y461089D01*
X767941Y461056D01*
X768860Y461000D01*
X769777Y460922D01*
X770692Y460822D01*
X771605Y460700D01*
X772514Y460556D01*
X773420Y460390D01*
X774321Y460202D01*
X775218Y459993D01*
X776109Y459762D01*
X776995Y459509D01*
X777874Y459235D01*
X778746Y458940D01*
X779610Y458624D01*
X780467Y458287D01*
X781316Y457930D01*
X782155Y457552D01*
X782986Y457154D01*
X783806Y456736D01*
X784616Y456298D01*
X785415Y455841D01*
X786203Y455365D01*
X786979Y454870D01*
X787743Y454356D01*
X788495Y453824D01*
X789233Y453273D01*
X789958Y452706D01*
X790668Y452120D01*
X791365Y451518D01*
X792047Y450899D01*
X792713Y450264D01*
X793364Y449613D01*
X793999Y448947D01*
X794618Y448265D01*
X795220Y447568D01*
X795806Y446858D01*
X796373Y446133D01*
X796924Y445395D01*
X797456Y444643D01*
X797970Y443879D01*
X798465Y443103D01*
X798941Y442315D01*
X799398Y441516D01*
X799836Y440706D01*
X800254Y439886D01*
X800652Y439055D01*
X801030Y438216D01*
X801387Y437367D01*
X801724Y436510D01*
X802040Y435646D01*
X802335Y434774D01*
X802609Y433895D01*
X802862Y433009D01*
X803093Y432118D01*
X803302Y431221D01*
X803490Y430320D01*
X803656Y429414D01*
X803800Y428505D01*
X803922Y427592D01*
X804022Y426677D01*
X804100Y425760D01*
X804156Y424841D01*
X804189Y423921D01*
X804200Y423000D01*
X308900Y156300D02*
X308128Y156155D01*
X307352Y156029D01*
X306574Y155922D01*
X305793Y155834D01*
X305010Y155765D01*
X304226Y155714D01*
X303441Y155683D01*
X302656Y155671D01*
X301870Y155678D01*
X301085Y155704D01*
X300300Y155749D01*
X299517Y155813D01*
X298736Y155896D01*
X297957Y155998D01*
X297181Y156119D01*
X296407Y156259D01*
X295638Y156417D01*
X294872Y156594D01*
X294111Y156790D01*
X293355Y157004D01*
X292605Y157236D01*
X291860Y157487D01*
X291121Y157755D01*
X290390Y158041D01*
X289665Y158345D01*
X288948Y158666D01*
X288239Y159005D01*
X287539Y159361D01*
X286847Y159734D01*
X286165Y160123D01*
X285492Y160529D01*
X284829Y160951D01*
X284177Y161389D01*
X283535Y161842D01*
X282905Y162312D01*
X282286Y162796D01*
X281679Y163295D01*
X281085Y163809D01*
X280503Y164337D01*
X279934Y164878D01*
X279378Y165434D01*
X278837Y166003D01*
X278309Y166585D01*
X277795Y167179D01*
X277296Y167786D01*
X276812Y168405D01*
X276342Y169035D01*
X275889Y169677D01*
X275451Y170329D01*
X275029Y170992D01*
X274623Y171665D01*
X274234Y172347D01*
X273861Y173039D01*
X273505Y173739D01*
X273166Y174448D01*
X272845Y175165D01*
X272541Y175890D01*
X272255Y176621D01*
X271987Y177360D01*
X271736Y178105D01*
X271504Y178855D01*
X271290Y179611D01*
X271094Y180372D01*
X270917Y181138D01*
X270759Y181907D01*
X270619Y182681D01*
X270498Y183457D01*
X270396Y184236D01*
X270313Y185017D01*
X270249Y185800D01*
X270204Y186585D01*
X270178Y187370D01*
X270171Y188156D01*
X270183Y188941D01*
X270214Y189726D01*
X270265Y190510D01*
X270334Y191293D01*
X270422Y192074D01*
X270529Y192852D01*
X270655Y193628D01*
X270800Y194400D01*
X766100Y156300D02*
X767021Y156311D01*
X767941Y156344D01*
X768860Y156400D01*
X769777Y156478D01*
X770692Y156578D01*
X771605Y156700D01*
X772514Y156844D01*
X773420Y157010D01*
X774321Y157198D01*
X775218Y157407D01*
X776109Y157638D01*
X776995Y157891D01*
X777874Y158165D01*
X778746Y158460D01*
X779610Y158776D01*
X780467Y159113D01*
X781316Y159470D01*
X782155Y159848D01*
X782986Y160246D01*
X783806Y160664D01*
X784616Y161102D01*
X785415Y161559D01*
X786203Y162035D01*
X786979Y162530D01*
X787743Y163044D01*
X788495Y163576D01*
X789233Y164127D01*
X789958Y164694D01*
X790668Y165280D01*
X791365Y165882D01*
X792047Y166501D01*
X792713Y167136D01*
X793364Y167787D01*
X793999Y168453D01*
X794618Y169135D01*
X795220Y169832D01*
X795806Y170542D01*
X796373Y171267D01*
X796924Y172005D01*
X797456Y172757D01*
X797970Y173521D01*
X798465Y174297D01*
X798941Y175085D01*
X799398Y175884D01*
X799836Y176694D01*
X800254Y177514D01*
X800652Y178345D01*
X801030Y179184D01*
X801387Y180033D01*
X801724Y180890D01*
X802040Y181754D01*
X802335Y182626D01*
X802609Y183505D01*
X802862Y184391D01*
X803093Y185282D01*
X803302Y186179D01*
X803490Y187080D01*
X803656Y187986D01*
X803800Y188895D01*
X803922Y189808D01*
X804022Y190723D01*
X804100Y191640D01*
X804156Y192559D01*
X804189Y193479D01*
X804200Y194400D01*
M02*
