G04 EAGLE Gerber RS-274X export*
G75*
%MOMM*%
%FSLAX34Y34*%
%LPD*%
%IN*%
%IPPOS*%
%AMOC8*
5,1,8,0,0,1.08239X$1,22.5*%
G01*
%ADD10C,0.000000*%
%ADD11C,0.254000*%


D10*
X30000Y0D02*
X1690000Y0D01*
X0Y30000D02*
X0Y610000D01*
X30000Y640000D02*
X805000Y640000D01*
X950000Y640000D02*
X1690000Y640000D01*
X1720000Y610000D02*
X1720000Y30000D01*
X30000Y640000D02*
X29275Y639991D01*
X28551Y639965D01*
X27827Y639921D01*
X27105Y639860D01*
X26384Y639781D01*
X25665Y639685D01*
X24949Y639572D01*
X24236Y639441D01*
X23526Y639293D01*
X22821Y639128D01*
X22119Y638946D01*
X21422Y638747D01*
X20729Y638532D01*
X20043Y638299D01*
X19362Y638050D01*
X18687Y637785D01*
X18019Y637504D01*
X17358Y637206D01*
X16704Y636893D01*
X16058Y636564D01*
X15420Y636219D01*
X14791Y635859D01*
X14171Y635484D01*
X13560Y635094D01*
X12958Y634690D01*
X12366Y634271D01*
X11785Y633837D01*
X11214Y633390D01*
X10655Y632929D01*
X10106Y632455D01*
X9570Y631968D01*
X9045Y631468D01*
X8532Y630955D01*
X8032Y630430D01*
X7545Y629894D01*
X7071Y629345D01*
X6610Y628786D01*
X6163Y628215D01*
X5729Y627634D01*
X5310Y627042D01*
X4906Y626440D01*
X4516Y625829D01*
X4141Y625209D01*
X3781Y624580D01*
X3436Y623942D01*
X3107Y623296D01*
X2794Y622642D01*
X2496Y621981D01*
X2215Y621313D01*
X1950Y620638D01*
X1701Y619957D01*
X1468Y619271D01*
X1253Y618578D01*
X1054Y617881D01*
X872Y617179D01*
X707Y616474D01*
X559Y615764D01*
X428Y615051D01*
X315Y614335D01*
X219Y613616D01*
X140Y612895D01*
X79Y612173D01*
X35Y611449D01*
X9Y610725D01*
X0Y610000D01*
X1690000Y640000D02*
X1690725Y639991D01*
X1691449Y639965D01*
X1692173Y639921D01*
X1692895Y639860D01*
X1693616Y639781D01*
X1694335Y639685D01*
X1695051Y639572D01*
X1695764Y639441D01*
X1696474Y639293D01*
X1697179Y639128D01*
X1697881Y638946D01*
X1698578Y638747D01*
X1699271Y638532D01*
X1699957Y638299D01*
X1700638Y638050D01*
X1701313Y637785D01*
X1701981Y637504D01*
X1702642Y637206D01*
X1703296Y636893D01*
X1703942Y636564D01*
X1704580Y636219D01*
X1705209Y635859D01*
X1705829Y635484D01*
X1706440Y635094D01*
X1707042Y634690D01*
X1707634Y634271D01*
X1708215Y633837D01*
X1708786Y633390D01*
X1709345Y632929D01*
X1709894Y632455D01*
X1710430Y631968D01*
X1710955Y631468D01*
X1711468Y630955D01*
X1711968Y630430D01*
X1712455Y629894D01*
X1712929Y629345D01*
X1713390Y628786D01*
X1713837Y628215D01*
X1714271Y627634D01*
X1714690Y627042D01*
X1715094Y626440D01*
X1715484Y625829D01*
X1715859Y625209D01*
X1716219Y624580D01*
X1716564Y623942D01*
X1716893Y623296D01*
X1717206Y622642D01*
X1717504Y621981D01*
X1717785Y621313D01*
X1718050Y620638D01*
X1718299Y619957D01*
X1718532Y619271D01*
X1718747Y618578D01*
X1718946Y617881D01*
X1719128Y617179D01*
X1719293Y616474D01*
X1719441Y615764D01*
X1719572Y615051D01*
X1719685Y614335D01*
X1719781Y613616D01*
X1719860Y612895D01*
X1719921Y612173D01*
X1719965Y611449D01*
X1719991Y610725D01*
X1720000Y610000D01*
X30000Y0D02*
X29275Y9D01*
X28551Y35D01*
X27827Y79D01*
X27105Y140D01*
X26384Y219D01*
X25665Y315D01*
X24949Y428D01*
X24236Y559D01*
X23526Y707D01*
X22821Y872D01*
X22119Y1054D01*
X21422Y1253D01*
X20729Y1468D01*
X20043Y1701D01*
X19362Y1950D01*
X18687Y2215D01*
X18019Y2496D01*
X17358Y2794D01*
X16704Y3107D01*
X16058Y3436D01*
X15420Y3781D01*
X14791Y4141D01*
X14171Y4516D01*
X13560Y4906D01*
X12958Y5310D01*
X12366Y5729D01*
X11785Y6163D01*
X11214Y6610D01*
X10655Y7071D01*
X10106Y7545D01*
X9570Y8032D01*
X9045Y8532D01*
X8532Y9045D01*
X8032Y9570D01*
X7545Y10106D01*
X7071Y10655D01*
X6610Y11214D01*
X6163Y11785D01*
X5729Y12366D01*
X5310Y12958D01*
X4906Y13560D01*
X4516Y14171D01*
X4141Y14791D01*
X3781Y15420D01*
X3436Y16058D01*
X3107Y16704D01*
X2794Y17358D01*
X2496Y18019D01*
X2215Y18687D01*
X1950Y19362D01*
X1701Y20043D01*
X1468Y20729D01*
X1253Y21422D01*
X1054Y22119D01*
X872Y22821D01*
X707Y23526D01*
X559Y24236D01*
X428Y24949D01*
X315Y25665D01*
X219Y26384D01*
X140Y27105D01*
X79Y27827D01*
X35Y28551D01*
X9Y29275D01*
X0Y30000D01*
X1690000Y0D02*
X1690725Y9D01*
X1691449Y35D01*
X1692173Y79D01*
X1692895Y140D01*
X1693616Y219D01*
X1694335Y315D01*
X1695051Y428D01*
X1695764Y559D01*
X1696474Y707D01*
X1697179Y872D01*
X1697881Y1054D01*
X1698578Y1253D01*
X1699271Y1468D01*
X1699957Y1701D01*
X1700638Y1950D01*
X1701313Y2215D01*
X1701981Y2496D01*
X1702642Y2794D01*
X1703296Y3107D01*
X1703942Y3436D01*
X1704580Y3781D01*
X1705209Y4141D01*
X1705829Y4516D01*
X1706440Y4906D01*
X1707042Y5310D01*
X1707634Y5729D01*
X1708215Y6163D01*
X1708786Y6610D01*
X1709345Y7071D01*
X1709894Y7545D01*
X1710430Y8032D01*
X1710955Y8532D01*
X1711468Y9045D01*
X1711968Y9570D01*
X1712455Y10106D01*
X1712929Y10655D01*
X1713390Y11214D01*
X1713837Y11785D01*
X1714271Y12366D01*
X1714690Y12958D01*
X1715094Y13560D01*
X1715484Y14171D01*
X1715859Y14791D01*
X1716219Y15420D01*
X1716564Y16058D01*
X1716893Y16704D01*
X1717206Y17358D01*
X1717504Y18019D01*
X1717785Y18687D01*
X1718050Y19362D01*
X1718299Y20043D01*
X1718532Y20729D01*
X1718747Y21422D01*
X1718946Y22119D01*
X1719128Y22821D01*
X1719293Y23526D01*
X1719441Y24236D01*
X1719572Y24949D01*
X1719685Y25665D01*
X1719781Y26384D01*
X1719860Y27105D01*
X1719921Y27827D01*
X1719965Y28551D01*
X1719991Y29275D01*
X1720000Y30000D01*
X825000Y620000D02*
X824517Y620006D01*
X824034Y620023D01*
X823551Y620053D01*
X823070Y620093D01*
X822589Y620146D01*
X822110Y620210D01*
X821633Y620285D01*
X821157Y620373D01*
X820684Y620471D01*
X820214Y620581D01*
X819746Y620702D01*
X819281Y620835D01*
X818820Y620979D01*
X818362Y621134D01*
X817908Y621300D01*
X817458Y621477D01*
X817013Y621664D01*
X816572Y621863D01*
X816136Y622071D01*
X815706Y622291D01*
X815280Y622521D01*
X814861Y622761D01*
X814447Y623011D01*
X814040Y623271D01*
X813639Y623540D01*
X813244Y623820D01*
X812857Y624108D01*
X812476Y624407D01*
X812103Y624714D01*
X811738Y625030D01*
X811380Y625355D01*
X811030Y625688D01*
X810688Y626030D01*
X810355Y626380D01*
X810030Y626738D01*
X809714Y627103D01*
X809407Y627476D01*
X809108Y627857D01*
X808820Y628244D01*
X808540Y628639D01*
X808271Y629040D01*
X808011Y629447D01*
X807761Y629861D01*
X807521Y630280D01*
X807291Y630706D01*
X807071Y631136D01*
X806863Y631572D01*
X806664Y632013D01*
X806477Y632458D01*
X806300Y632908D01*
X806134Y633362D01*
X805979Y633820D01*
X805835Y634281D01*
X805702Y634746D01*
X805581Y635214D01*
X805471Y635684D01*
X805373Y636157D01*
X805285Y636633D01*
X805210Y637110D01*
X805146Y637589D01*
X805093Y638070D01*
X805053Y638551D01*
X805023Y639034D01*
X805006Y639517D01*
X805000Y640000D01*
X825000Y620000D02*
X930000Y620000D01*
X930483Y620006D01*
X930966Y620023D01*
X931449Y620053D01*
X931930Y620093D01*
X932411Y620146D01*
X932890Y620210D01*
X933367Y620285D01*
X933843Y620373D01*
X934316Y620471D01*
X934786Y620581D01*
X935254Y620702D01*
X935719Y620835D01*
X936180Y620979D01*
X936638Y621134D01*
X937092Y621300D01*
X937542Y621477D01*
X937987Y621664D01*
X938428Y621863D01*
X938864Y622071D01*
X939294Y622291D01*
X939720Y622521D01*
X940139Y622761D01*
X940553Y623011D01*
X940960Y623271D01*
X941361Y623540D01*
X941756Y623820D01*
X942143Y624108D01*
X942524Y624407D01*
X942897Y624714D01*
X943262Y625030D01*
X943620Y625355D01*
X943970Y625688D01*
X944312Y626030D01*
X944645Y626380D01*
X944970Y626738D01*
X945286Y627103D01*
X945593Y627476D01*
X945892Y627857D01*
X946180Y628244D01*
X946460Y628639D01*
X946729Y629040D01*
X946989Y629447D01*
X947239Y629861D01*
X947479Y630280D01*
X947709Y630706D01*
X947929Y631136D01*
X948137Y631572D01*
X948336Y632013D01*
X948523Y632458D01*
X948700Y632908D01*
X948866Y633362D01*
X949021Y633820D01*
X949165Y634281D01*
X949298Y634746D01*
X949419Y635214D01*
X949529Y635684D01*
X949627Y636157D01*
X949715Y636633D01*
X949790Y637110D01*
X949854Y637589D01*
X949907Y638070D01*
X949947Y638551D01*
X949977Y639034D01*
X949994Y639517D01*
X950000Y640000D01*
X766100Y461100D02*
X308900Y461100D01*
X270800Y423000D02*
X270800Y194400D01*
X308900Y156300D02*
X766100Y156300D01*
X804200Y194400D02*
X804200Y423000D01*
X308900Y461100D02*
X307979Y461089D01*
X307059Y461056D01*
X306140Y461000D01*
X305223Y460922D01*
X304308Y460822D01*
X303395Y460700D01*
X302486Y460556D01*
X301580Y460390D01*
X300679Y460202D01*
X299782Y459993D01*
X298891Y459762D01*
X298005Y459509D01*
X297126Y459235D01*
X296254Y458940D01*
X295390Y458624D01*
X294533Y458287D01*
X293684Y457930D01*
X292845Y457552D01*
X292014Y457154D01*
X291194Y456736D01*
X290384Y456298D01*
X289585Y455841D01*
X288797Y455365D01*
X288021Y454870D01*
X287257Y454356D01*
X286505Y453824D01*
X285767Y453273D01*
X285042Y452706D01*
X284332Y452120D01*
X283635Y451518D01*
X282953Y450899D01*
X282287Y450264D01*
X281636Y449613D01*
X281001Y448947D01*
X280382Y448265D01*
X279780Y447568D01*
X279194Y446858D01*
X278627Y446133D01*
X278076Y445395D01*
X277544Y444643D01*
X277030Y443879D01*
X276535Y443103D01*
X276059Y442315D01*
X275602Y441516D01*
X275164Y440706D01*
X274746Y439886D01*
X274348Y439055D01*
X273970Y438216D01*
X273613Y437367D01*
X273276Y436510D01*
X272960Y435646D01*
X272665Y434774D01*
X272391Y433895D01*
X272138Y433009D01*
X271907Y432118D01*
X271698Y431221D01*
X271510Y430320D01*
X271344Y429414D01*
X271200Y428505D01*
X271078Y427592D01*
X270978Y426677D01*
X270900Y425760D01*
X270844Y424841D01*
X270811Y423921D01*
X270800Y423000D01*
X766100Y461100D02*
X767021Y461089D01*
X767941Y461056D01*
X768860Y461000D01*
X769777Y460922D01*
X770692Y460822D01*
X771605Y460700D01*
X772514Y460556D01*
X773420Y460390D01*
X774321Y460202D01*
X775218Y459993D01*
X776109Y459762D01*
X776995Y459509D01*
X777874Y459235D01*
X778746Y458940D01*
X779610Y458624D01*
X780467Y458287D01*
X781316Y457930D01*
X782155Y457552D01*
X782986Y457154D01*
X783806Y456736D01*
X784616Y456298D01*
X785415Y455841D01*
X786203Y455365D01*
X786979Y454870D01*
X787743Y454356D01*
X788495Y453824D01*
X789233Y453273D01*
X789958Y452706D01*
X790668Y452120D01*
X791365Y451518D01*
X792047Y450899D01*
X792713Y450264D01*
X793364Y449613D01*
X793999Y448947D01*
X794618Y448265D01*
X795220Y447568D01*
X795806Y446858D01*
X796373Y446133D01*
X796924Y445395D01*
X797456Y444643D01*
X797970Y443879D01*
X798465Y443103D01*
X798941Y442315D01*
X799398Y441516D01*
X799836Y440706D01*
X800254Y439886D01*
X800652Y439055D01*
X801030Y438216D01*
X801387Y437367D01*
X801724Y436510D01*
X802040Y435646D01*
X802335Y434774D01*
X802609Y433895D01*
X802862Y433009D01*
X803093Y432118D01*
X803302Y431221D01*
X803490Y430320D01*
X803656Y429414D01*
X803800Y428505D01*
X803922Y427592D01*
X804022Y426677D01*
X804100Y425760D01*
X804156Y424841D01*
X804189Y423921D01*
X804200Y423000D01*
X804200Y194400D02*
X804189Y193479D01*
X804156Y192559D01*
X804100Y191640D01*
X804022Y190723D01*
X803922Y189808D01*
X803800Y188895D01*
X803656Y187986D01*
X803490Y187080D01*
X803302Y186179D01*
X803093Y185282D01*
X802862Y184391D01*
X802609Y183505D01*
X802335Y182626D01*
X802040Y181754D01*
X801724Y180890D01*
X801387Y180033D01*
X801030Y179184D01*
X800652Y178345D01*
X800254Y177514D01*
X799836Y176694D01*
X799398Y175884D01*
X798941Y175085D01*
X798465Y174297D01*
X797970Y173521D01*
X797456Y172757D01*
X796924Y172005D01*
X796373Y171267D01*
X795806Y170542D01*
X795220Y169832D01*
X794618Y169135D01*
X793999Y168453D01*
X793364Y167787D01*
X792713Y167136D01*
X792047Y166501D01*
X791365Y165882D01*
X790668Y165280D01*
X789958Y164694D01*
X789233Y164127D01*
X788495Y163576D01*
X787743Y163044D01*
X786979Y162530D01*
X786203Y162035D01*
X785415Y161559D01*
X784616Y161102D01*
X783806Y160664D01*
X782986Y160246D01*
X782155Y159848D01*
X781316Y159470D01*
X780467Y159113D01*
X779610Y158776D01*
X778746Y158460D01*
X777874Y158165D01*
X776995Y157891D01*
X776109Y157638D01*
X775218Y157407D01*
X774321Y157198D01*
X773420Y157010D01*
X772514Y156844D01*
X771605Y156700D01*
X770692Y156578D01*
X769777Y156478D01*
X768860Y156400D01*
X767941Y156344D01*
X767021Y156311D01*
X766100Y156300D01*
X308900Y156300D02*
X307979Y156311D01*
X307059Y156344D01*
X306140Y156400D01*
X305223Y156478D01*
X304308Y156578D01*
X303395Y156700D01*
X302486Y156844D01*
X301580Y157010D01*
X300679Y157198D01*
X299782Y157407D01*
X298891Y157638D01*
X298005Y157891D01*
X297126Y158165D01*
X296254Y158460D01*
X295390Y158776D01*
X294533Y159113D01*
X293684Y159470D01*
X292845Y159848D01*
X292014Y160246D01*
X291194Y160664D01*
X290384Y161102D01*
X289585Y161559D01*
X288797Y162035D01*
X288021Y162530D01*
X287257Y163044D01*
X286505Y163576D01*
X285767Y164127D01*
X285042Y164694D01*
X284332Y165280D01*
X283635Y165882D01*
X282953Y166501D01*
X282287Y167136D01*
X281636Y167787D01*
X281001Y168453D01*
X280382Y169135D01*
X279780Y169832D01*
X279194Y170542D01*
X278627Y171267D01*
X278076Y172005D01*
X277544Y172757D01*
X277030Y173521D01*
X276535Y174297D01*
X276059Y175085D01*
X275602Y175884D01*
X275164Y176694D01*
X274746Y177514D01*
X274348Y178345D01*
X273970Y179184D01*
X273613Y180033D01*
X273276Y180890D01*
X272960Y181754D01*
X272665Y182626D01*
X272391Y183505D01*
X272138Y184391D01*
X271907Y185282D01*
X271698Y186179D01*
X271510Y187080D01*
X271344Y187986D01*
X271200Y188895D01*
X271078Y189808D01*
X270978Y190723D01*
X270900Y191640D01*
X270844Y192559D01*
X270811Y193479D01*
X270800Y194400D01*
X179000Y54900D02*
X179005Y55268D01*
X179018Y55636D01*
X179041Y56003D01*
X179072Y56370D01*
X179113Y56736D01*
X179162Y57101D01*
X179221Y57464D01*
X179288Y57826D01*
X179364Y58187D01*
X179450Y58545D01*
X179543Y58901D01*
X179646Y59254D01*
X179757Y59605D01*
X179877Y59953D01*
X180005Y60298D01*
X180142Y60640D01*
X180287Y60979D01*
X180440Y61313D01*
X180602Y61644D01*
X180771Y61971D01*
X180949Y62293D01*
X181134Y62612D01*
X181327Y62925D01*
X181528Y63234D01*
X181736Y63537D01*
X181952Y63835D01*
X182175Y64128D01*
X182405Y64416D01*
X182642Y64698D01*
X182886Y64973D01*
X183136Y65243D01*
X183393Y65507D01*
X183657Y65764D01*
X183927Y66014D01*
X184202Y66258D01*
X184484Y66495D01*
X184772Y66725D01*
X185065Y66948D01*
X185363Y67164D01*
X185666Y67372D01*
X185975Y67573D01*
X186288Y67766D01*
X186607Y67951D01*
X186929Y68129D01*
X187256Y68298D01*
X187587Y68460D01*
X187921Y68613D01*
X188260Y68758D01*
X188602Y68895D01*
X188947Y69023D01*
X189295Y69143D01*
X189646Y69254D01*
X189999Y69357D01*
X190355Y69450D01*
X190713Y69536D01*
X191074Y69612D01*
X191436Y69679D01*
X191799Y69738D01*
X192164Y69787D01*
X192530Y69828D01*
X192897Y69859D01*
X193264Y69882D01*
X193632Y69895D01*
X194000Y69900D01*
X194368Y69895D01*
X194736Y69882D01*
X195103Y69859D01*
X195470Y69828D01*
X195836Y69787D01*
X196201Y69738D01*
X196564Y69679D01*
X196926Y69612D01*
X197287Y69536D01*
X197645Y69450D01*
X198001Y69357D01*
X198354Y69254D01*
X198705Y69143D01*
X199053Y69023D01*
X199398Y68895D01*
X199740Y68758D01*
X200079Y68613D01*
X200413Y68460D01*
X200744Y68298D01*
X201071Y68129D01*
X201393Y67951D01*
X201712Y67766D01*
X202025Y67573D01*
X202334Y67372D01*
X202637Y67164D01*
X202935Y66948D01*
X203228Y66725D01*
X203516Y66495D01*
X203798Y66258D01*
X204073Y66014D01*
X204343Y65764D01*
X204607Y65507D01*
X204864Y65243D01*
X205114Y64973D01*
X205358Y64698D01*
X205595Y64416D01*
X205825Y64128D01*
X206048Y63835D01*
X206264Y63537D01*
X206472Y63234D01*
X206673Y62925D01*
X206866Y62612D01*
X207051Y62293D01*
X207229Y61971D01*
X207398Y61644D01*
X207560Y61313D01*
X207713Y60979D01*
X207858Y60640D01*
X207995Y60298D01*
X208123Y59953D01*
X208243Y59605D01*
X208354Y59254D01*
X208457Y58901D01*
X208550Y58545D01*
X208636Y58187D01*
X208712Y57826D01*
X208779Y57464D01*
X208838Y57101D01*
X208887Y56736D01*
X208928Y56370D01*
X208959Y56003D01*
X208982Y55636D01*
X208995Y55268D01*
X209000Y54900D01*
X208995Y54532D01*
X208982Y54164D01*
X208959Y53797D01*
X208928Y53430D01*
X208887Y53064D01*
X208838Y52699D01*
X208779Y52336D01*
X208712Y51974D01*
X208636Y51613D01*
X208550Y51255D01*
X208457Y50899D01*
X208354Y50546D01*
X208243Y50195D01*
X208123Y49847D01*
X207995Y49502D01*
X207858Y49160D01*
X207713Y48821D01*
X207560Y48487D01*
X207398Y48156D01*
X207229Y47829D01*
X207051Y47507D01*
X206866Y47188D01*
X206673Y46875D01*
X206472Y46566D01*
X206264Y46263D01*
X206048Y45965D01*
X205825Y45672D01*
X205595Y45384D01*
X205358Y45102D01*
X205114Y44827D01*
X204864Y44557D01*
X204607Y44293D01*
X204343Y44036D01*
X204073Y43786D01*
X203798Y43542D01*
X203516Y43305D01*
X203228Y43075D01*
X202935Y42852D01*
X202637Y42636D01*
X202334Y42428D01*
X202025Y42227D01*
X201712Y42034D01*
X201393Y41849D01*
X201071Y41671D01*
X200744Y41502D01*
X200413Y41340D01*
X200079Y41187D01*
X199740Y41042D01*
X199398Y40905D01*
X199053Y40777D01*
X198705Y40657D01*
X198354Y40546D01*
X198001Y40443D01*
X197645Y40350D01*
X197287Y40264D01*
X196926Y40188D01*
X196564Y40121D01*
X196201Y40062D01*
X195836Y40013D01*
X195470Y39972D01*
X195103Y39941D01*
X194736Y39918D01*
X194368Y39905D01*
X194000Y39900D01*
X193632Y39905D01*
X193264Y39918D01*
X192897Y39941D01*
X192530Y39972D01*
X192164Y40013D01*
X191799Y40062D01*
X191436Y40121D01*
X191074Y40188D01*
X190713Y40264D01*
X190355Y40350D01*
X189999Y40443D01*
X189646Y40546D01*
X189295Y40657D01*
X188947Y40777D01*
X188602Y40905D01*
X188260Y41042D01*
X187921Y41187D01*
X187587Y41340D01*
X187256Y41502D01*
X186929Y41671D01*
X186607Y41849D01*
X186288Y42034D01*
X185975Y42227D01*
X185666Y42428D01*
X185363Y42636D01*
X185065Y42852D01*
X184772Y43075D01*
X184484Y43305D01*
X184202Y43542D01*
X183927Y43786D01*
X183657Y44036D01*
X183393Y44293D01*
X183136Y44557D01*
X182886Y44827D01*
X182642Y45102D01*
X182405Y45384D01*
X182175Y45672D01*
X181952Y45965D01*
X181736Y46263D01*
X181528Y46566D01*
X181327Y46875D01*
X181134Y47188D01*
X180949Y47507D01*
X180771Y47829D01*
X180602Y48156D01*
X180440Y48487D01*
X180287Y48821D01*
X180142Y49160D01*
X180005Y49502D01*
X179877Y49847D01*
X179757Y50195D01*
X179646Y50546D01*
X179543Y50899D01*
X179450Y51255D01*
X179364Y51613D01*
X179288Y51974D01*
X179221Y52336D01*
X179162Y52699D01*
X179113Y53064D01*
X179072Y53430D01*
X179041Y53797D01*
X179018Y54164D01*
X179005Y54532D01*
X179000Y54900D01*
X11000Y54900D02*
X11005Y55268D01*
X11018Y55636D01*
X11041Y56003D01*
X11072Y56370D01*
X11113Y56736D01*
X11162Y57101D01*
X11221Y57464D01*
X11288Y57826D01*
X11364Y58187D01*
X11450Y58545D01*
X11543Y58901D01*
X11646Y59254D01*
X11757Y59605D01*
X11877Y59953D01*
X12005Y60298D01*
X12142Y60640D01*
X12287Y60979D01*
X12440Y61313D01*
X12602Y61644D01*
X12771Y61971D01*
X12949Y62293D01*
X13134Y62612D01*
X13327Y62925D01*
X13528Y63234D01*
X13736Y63537D01*
X13952Y63835D01*
X14175Y64128D01*
X14405Y64416D01*
X14642Y64698D01*
X14886Y64973D01*
X15136Y65243D01*
X15393Y65507D01*
X15657Y65764D01*
X15927Y66014D01*
X16202Y66258D01*
X16484Y66495D01*
X16772Y66725D01*
X17065Y66948D01*
X17363Y67164D01*
X17666Y67372D01*
X17975Y67573D01*
X18288Y67766D01*
X18607Y67951D01*
X18929Y68129D01*
X19256Y68298D01*
X19587Y68460D01*
X19921Y68613D01*
X20260Y68758D01*
X20602Y68895D01*
X20947Y69023D01*
X21295Y69143D01*
X21646Y69254D01*
X21999Y69357D01*
X22355Y69450D01*
X22713Y69536D01*
X23074Y69612D01*
X23436Y69679D01*
X23799Y69738D01*
X24164Y69787D01*
X24530Y69828D01*
X24897Y69859D01*
X25264Y69882D01*
X25632Y69895D01*
X26000Y69900D01*
X26368Y69895D01*
X26736Y69882D01*
X27103Y69859D01*
X27470Y69828D01*
X27836Y69787D01*
X28201Y69738D01*
X28564Y69679D01*
X28926Y69612D01*
X29287Y69536D01*
X29645Y69450D01*
X30001Y69357D01*
X30354Y69254D01*
X30705Y69143D01*
X31053Y69023D01*
X31398Y68895D01*
X31740Y68758D01*
X32079Y68613D01*
X32413Y68460D01*
X32744Y68298D01*
X33071Y68129D01*
X33393Y67951D01*
X33712Y67766D01*
X34025Y67573D01*
X34334Y67372D01*
X34637Y67164D01*
X34935Y66948D01*
X35228Y66725D01*
X35516Y66495D01*
X35798Y66258D01*
X36073Y66014D01*
X36343Y65764D01*
X36607Y65507D01*
X36864Y65243D01*
X37114Y64973D01*
X37358Y64698D01*
X37595Y64416D01*
X37825Y64128D01*
X38048Y63835D01*
X38264Y63537D01*
X38472Y63234D01*
X38673Y62925D01*
X38866Y62612D01*
X39051Y62293D01*
X39229Y61971D01*
X39398Y61644D01*
X39560Y61313D01*
X39713Y60979D01*
X39858Y60640D01*
X39995Y60298D01*
X40123Y59953D01*
X40243Y59605D01*
X40354Y59254D01*
X40457Y58901D01*
X40550Y58545D01*
X40636Y58187D01*
X40712Y57826D01*
X40779Y57464D01*
X40838Y57101D01*
X40887Y56736D01*
X40928Y56370D01*
X40959Y56003D01*
X40982Y55636D01*
X40995Y55268D01*
X41000Y54900D01*
X40995Y54532D01*
X40982Y54164D01*
X40959Y53797D01*
X40928Y53430D01*
X40887Y53064D01*
X40838Y52699D01*
X40779Y52336D01*
X40712Y51974D01*
X40636Y51613D01*
X40550Y51255D01*
X40457Y50899D01*
X40354Y50546D01*
X40243Y50195D01*
X40123Y49847D01*
X39995Y49502D01*
X39858Y49160D01*
X39713Y48821D01*
X39560Y48487D01*
X39398Y48156D01*
X39229Y47829D01*
X39051Y47507D01*
X38866Y47188D01*
X38673Y46875D01*
X38472Y46566D01*
X38264Y46263D01*
X38048Y45965D01*
X37825Y45672D01*
X37595Y45384D01*
X37358Y45102D01*
X37114Y44827D01*
X36864Y44557D01*
X36607Y44293D01*
X36343Y44036D01*
X36073Y43786D01*
X35798Y43542D01*
X35516Y43305D01*
X35228Y43075D01*
X34935Y42852D01*
X34637Y42636D01*
X34334Y42428D01*
X34025Y42227D01*
X33712Y42034D01*
X33393Y41849D01*
X33071Y41671D01*
X32744Y41502D01*
X32413Y41340D01*
X32079Y41187D01*
X31740Y41042D01*
X31398Y40905D01*
X31053Y40777D01*
X30705Y40657D01*
X30354Y40546D01*
X30001Y40443D01*
X29645Y40350D01*
X29287Y40264D01*
X28926Y40188D01*
X28564Y40121D01*
X28201Y40062D01*
X27836Y40013D01*
X27470Y39972D01*
X27103Y39941D01*
X26736Y39918D01*
X26368Y39905D01*
X26000Y39900D01*
X25632Y39905D01*
X25264Y39918D01*
X24897Y39941D01*
X24530Y39972D01*
X24164Y40013D01*
X23799Y40062D01*
X23436Y40121D01*
X23074Y40188D01*
X22713Y40264D01*
X22355Y40350D01*
X21999Y40443D01*
X21646Y40546D01*
X21295Y40657D01*
X20947Y40777D01*
X20602Y40905D01*
X20260Y41042D01*
X19921Y41187D01*
X19587Y41340D01*
X19256Y41502D01*
X18929Y41671D01*
X18607Y41849D01*
X18288Y42034D01*
X17975Y42227D01*
X17666Y42428D01*
X17363Y42636D01*
X17065Y42852D01*
X16772Y43075D01*
X16484Y43305D01*
X16202Y43542D01*
X15927Y43786D01*
X15657Y44036D01*
X15393Y44293D01*
X15136Y44557D01*
X14886Y44827D01*
X14642Y45102D01*
X14405Y45384D01*
X14175Y45672D01*
X13952Y45965D01*
X13736Y46263D01*
X13528Y46566D01*
X13327Y46875D01*
X13134Y47188D01*
X12949Y47507D01*
X12771Y47829D01*
X12602Y48156D01*
X12440Y48487D01*
X12287Y48821D01*
X12142Y49160D01*
X12005Y49502D01*
X11877Y49847D01*
X11757Y50195D01*
X11646Y50546D01*
X11543Y50899D01*
X11450Y51255D01*
X11364Y51613D01*
X11288Y51974D01*
X11221Y52336D01*
X11162Y52699D01*
X11113Y53064D01*
X11072Y53430D01*
X11041Y53797D01*
X11018Y54164D01*
X11005Y54532D01*
X11000Y54900D01*
X1679000Y54900D02*
X1679005Y55268D01*
X1679018Y55636D01*
X1679041Y56003D01*
X1679072Y56370D01*
X1679113Y56736D01*
X1679162Y57101D01*
X1679221Y57464D01*
X1679288Y57826D01*
X1679364Y58187D01*
X1679450Y58545D01*
X1679543Y58901D01*
X1679646Y59254D01*
X1679757Y59605D01*
X1679877Y59953D01*
X1680005Y60298D01*
X1680142Y60640D01*
X1680287Y60979D01*
X1680440Y61313D01*
X1680602Y61644D01*
X1680771Y61971D01*
X1680949Y62293D01*
X1681134Y62612D01*
X1681327Y62925D01*
X1681528Y63234D01*
X1681736Y63537D01*
X1681952Y63835D01*
X1682175Y64128D01*
X1682405Y64416D01*
X1682642Y64698D01*
X1682886Y64973D01*
X1683136Y65243D01*
X1683393Y65507D01*
X1683657Y65764D01*
X1683927Y66014D01*
X1684202Y66258D01*
X1684484Y66495D01*
X1684772Y66725D01*
X1685065Y66948D01*
X1685363Y67164D01*
X1685666Y67372D01*
X1685975Y67573D01*
X1686288Y67766D01*
X1686607Y67951D01*
X1686929Y68129D01*
X1687256Y68298D01*
X1687587Y68460D01*
X1687921Y68613D01*
X1688260Y68758D01*
X1688602Y68895D01*
X1688947Y69023D01*
X1689295Y69143D01*
X1689646Y69254D01*
X1689999Y69357D01*
X1690355Y69450D01*
X1690713Y69536D01*
X1691074Y69612D01*
X1691436Y69679D01*
X1691799Y69738D01*
X1692164Y69787D01*
X1692530Y69828D01*
X1692897Y69859D01*
X1693264Y69882D01*
X1693632Y69895D01*
X1694000Y69900D01*
X1694368Y69895D01*
X1694736Y69882D01*
X1695103Y69859D01*
X1695470Y69828D01*
X1695836Y69787D01*
X1696201Y69738D01*
X1696564Y69679D01*
X1696926Y69612D01*
X1697287Y69536D01*
X1697645Y69450D01*
X1698001Y69357D01*
X1698354Y69254D01*
X1698705Y69143D01*
X1699053Y69023D01*
X1699398Y68895D01*
X1699740Y68758D01*
X1700079Y68613D01*
X1700413Y68460D01*
X1700744Y68298D01*
X1701071Y68129D01*
X1701393Y67951D01*
X1701712Y67766D01*
X1702025Y67573D01*
X1702334Y67372D01*
X1702637Y67164D01*
X1702935Y66948D01*
X1703228Y66725D01*
X1703516Y66495D01*
X1703798Y66258D01*
X1704073Y66014D01*
X1704343Y65764D01*
X1704607Y65507D01*
X1704864Y65243D01*
X1705114Y64973D01*
X1705358Y64698D01*
X1705595Y64416D01*
X1705825Y64128D01*
X1706048Y63835D01*
X1706264Y63537D01*
X1706472Y63234D01*
X1706673Y62925D01*
X1706866Y62612D01*
X1707051Y62293D01*
X1707229Y61971D01*
X1707398Y61644D01*
X1707560Y61313D01*
X1707713Y60979D01*
X1707858Y60640D01*
X1707995Y60298D01*
X1708123Y59953D01*
X1708243Y59605D01*
X1708354Y59254D01*
X1708457Y58901D01*
X1708550Y58545D01*
X1708636Y58187D01*
X1708712Y57826D01*
X1708779Y57464D01*
X1708838Y57101D01*
X1708887Y56736D01*
X1708928Y56370D01*
X1708959Y56003D01*
X1708982Y55636D01*
X1708995Y55268D01*
X1709000Y54900D01*
X1708995Y54532D01*
X1708982Y54164D01*
X1708959Y53797D01*
X1708928Y53430D01*
X1708887Y53064D01*
X1708838Y52699D01*
X1708779Y52336D01*
X1708712Y51974D01*
X1708636Y51613D01*
X1708550Y51255D01*
X1708457Y50899D01*
X1708354Y50546D01*
X1708243Y50195D01*
X1708123Y49847D01*
X1707995Y49502D01*
X1707858Y49160D01*
X1707713Y48821D01*
X1707560Y48487D01*
X1707398Y48156D01*
X1707229Y47829D01*
X1707051Y47507D01*
X1706866Y47188D01*
X1706673Y46875D01*
X1706472Y46566D01*
X1706264Y46263D01*
X1706048Y45965D01*
X1705825Y45672D01*
X1705595Y45384D01*
X1705358Y45102D01*
X1705114Y44827D01*
X1704864Y44557D01*
X1704607Y44293D01*
X1704343Y44036D01*
X1704073Y43786D01*
X1703798Y43542D01*
X1703516Y43305D01*
X1703228Y43075D01*
X1702935Y42852D01*
X1702637Y42636D01*
X1702334Y42428D01*
X1702025Y42227D01*
X1701712Y42034D01*
X1701393Y41849D01*
X1701071Y41671D01*
X1700744Y41502D01*
X1700413Y41340D01*
X1700079Y41187D01*
X1699740Y41042D01*
X1699398Y40905D01*
X1699053Y40777D01*
X1698705Y40657D01*
X1698354Y40546D01*
X1698001Y40443D01*
X1697645Y40350D01*
X1697287Y40264D01*
X1696926Y40188D01*
X1696564Y40121D01*
X1696201Y40062D01*
X1695836Y40013D01*
X1695470Y39972D01*
X1695103Y39941D01*
X1694736Y39918D01*
X1694368Y39905D01*
X1694000Y39900D01*
X1693632Y39905D01*
X1693264Y39918D01*
X1692897Y39941D01*
X1692530Y39972D01*
X1692164Y40013D01*
X1691799Y40062D01*
X1691436Y40121D01*
X1691074Y40188D01*
X1690713Y40264D01*
X1690355Y40350D01*
X1689999Y40443D01*
X1689646Y40546D01*
X1689295Y40657D01*
X1688947Y40777D01*
X1688602Y40905D01*
X1688260Y41042D01*
X1687921Y41187D01*
X1687587Y41340D01*
X1687256Y41502D01*
X1686929Y41671D01*
X1686607Y41849D01*
X1686288Y42034D01*
X1685975Y42227D01*
X1685666Y42428D01*
X1685363Y42636D01*
X1685065Y42852D01*
X1684772Y43075D01*
X1684484Y43305D01*
X1684202Y43542D01*
X1683927Y43786D01*
X1683657Y44036D01*
X1683393Y44293D01*
X1683136Y44557D01*
X1682886Y44827D01*
X1682642Y45102D01*
X1682405Y45384D01*
X1682175Y45672D01*
X1681952Y45965D01*
X1681736Y46263D01*
X1681528Y46566D01*
X1681327Y46875D01*
X1681134Y47188D01*
X1680949Y47507D01*
X1680771Y47829D01*
X1680602Y48156D01*
X1680440Y48487D01*
X1680287Y48821D01*
X1680142Y49160D01*
X1680005Y49502D01*
X1679877Y49847D01*
X1679757Y50195D01*
X1679646Y50546D01*
X1679543Y50899D01*
X1679450Y51255D01*
X1679364Y51613D01*
X1679288Y51974D01*
X1679221Y52336D01*
X1679162Y52699D01*
X1679113Y53064D01*
X1679072Y53430D01*
X1679041Y53797D01*
X1679018Y54164D01*
X1679005Y54532D01*
X1679000Y54900D01*
X1511000Y54900D02*
X1511005Y55268D01*
X1511018Y55636D01*
X1511041Y56003D01*
X1511072Y56370D01*
X1511113Y56736D01*
X1511162Y57101D01*
X1511221Y57464D01*
X1511288Y57826D01*
X1511364Y58187D01*
X1511450Y58545D01*
X1511543Y58901D01*
X1511646Y59254D01*
X1511757Y59605D01*
X1511877Y59953D01*
X1512005Y60298D01*
X1512142Y60640D01*
X1512287Y60979D01*
X1512440Y61313D01*
X1512602Y61644D01*
X1512771Y61971D01*
X1512949Y62293D01*
X1513134Y62612D01*
X1513327Y62925D01*
X1513528Y63234D01*
X1513736Y63537D01*
X1513952Y63835D01*
X1514175Y64128D01*
X1514405Y64416D01*
X1514642Y64698D01*
X1514886Y64973D01*
X1515136Y65243D01*
X1515393Y65507D01*
X1515657Y65764D01*
X1515927Y66014D01*
X1516202Y66258D01*
X1516484Y66495D01*
X1516772Y66725D01*
X1517065Y66948D01*
X1517363Y67164D01*
X1517666Y67372D01*
X1517975Y67573D01*
X1518288Y67766D01*
X1518607Y67951D01*
X1518929Y68129D01*
X1519256Y68298D01*
X1519587Y68460D01*
X1519921Y68613D01*
X1520260Y68758D01*
X1520602Y68895D01*
X1520947Y69023D01*
X1521295Y69143D01*
X1521646Y69254D01*
X1521999Y69357D01*
X1522355Y69450D01*
X1522713Y69536D01*
X1523074Y69612D01*
X1523436Y69679D01*
X1523799Y69738D01*
X1524164Y69787D01*
X1524530Y69828D01*
X1524897Y69859D01*
X1525264Y69882D01*
X1525632Y69895D01*
X1526000Y69900D01*
X1526368Y69895D01*
X1526736Y69882D01*
X1527103Y69859D01*
X1527470Y69828D01*
X1527836Y69787D01*
X1528201Y69738D01*
X1528564Y69679D01*
X1528926Y69612D01*
X1529287Y69536D01*
X1529645Y69450D01*
X1530001Y69357D01*
X1530354Y69254D01*
X1530705Y69143D01*
X1531053Y69023D01*
X1531398Y68895D01*
X1531740Y68758D01*
X1532079Y68613D01*
X1532413Y68460D01*
X1532744Y68298D01*
X1533071Y68129D01*
X1533393Y67951D01*
X1533712Y67766D01*
X1534025Y67573D01*
X1534334Y67372D01*
X1534637Y67164D01*
X1534935Y66948D01*
X1535228Y66725D01*
X1535516Y66495D01*
X1535798Y66258D01*
X1536073Y66014D01*
X1536343Y65764D01*
X1536607Y65507D01*
X1536864Y65243D01*
X1537114Y64973D01*
X1537358Y64698D01*
X1537595Y64416D01*
X1537825Y64128D01*
X1538048Y63835D01*
X1538264Y63537D01*
X1538472Y63234D01*
X1538673Y62925D01*
X1538866Y62612D01*
X1539051Y62293D01*
X1539229Y61971D01*
X1539398Y61644D01*
X1539560Y61313D01*
X1539713Y60979D01*
X1539858Y60640D01*
X1539995Y60298D01*
X1540123Y59953D01*
X1540243Y59605D01*
X1540354Y59254D01*
X1540457Y58901D01*
X1540550Y58545D01*
X1540636Y58187D01*
X1540712Y57826D01*
X1540779Y57464D01*
X1540838Y57101D01*
X1540887Y56736D01*
X1540928Y56370D01*
X1540959Y56003D01*
X1540982Y55636D01*
X1540995Y55268D01*
X1541000Y54900D01*
X1540995Y54532D01*
X1540982Y54164D01*
X1540959Y53797D01*
X1540928Y53430D01*
X1540887Y53064D01*
X1540838Y52699D01*
X1540779Y52336D01*
X1540712Y51974D01*
X1540636Y51613D01*
X1540550Y51255D01*
X1540457Y50899D01*
X1540354Y50546D01*
X1540243Y50195D01*
X1540123Y49847D01*
X1539995Y49502D01*
X1539858Y49160D01*
X1539713Y48821D01*
X1539560Y48487D01*
X1539398Y48156D01*
X1539229Y47829D01*
X1539051Y47507D01*
X1538866Y47188D01*
X1538673Y46875D01*
X1538472Y46566D01*
X1538264Y46263D01*
X1538048Y45965D01*
X1537825Y45672D01*
X1537595Y45384D01*
X1537358Y45102D01*
X1537114Y44827D01*
X1536864Y44557D01*
X1536607Y44293D01*
X1536343Y44036D01*
X1536073Y43786D01*
X1535798Y43542D01*
X1535516Y43305D01*
X1535228Y43075D01*
X1534935Y42852D01*
X1534637Y42636D01*
X1534334Y42428D01*
X1534025Y42227D01*
X1533712Y42034D01*
X1533393Y41849D01*
X1533071Y41671D01*
X1532744Y41502D01*
X1532413Y41340D01*
X1532079Y41187D01*
X1531740Y41042D01*
X1531398Y40905D01*
X1531053Y40777D01*
X1530705Y40657D01*
X1530354Y40546D01*
X1530001Y40443D01*
X1529645Y40350D01*
X1529287Y40264D01*
X1528926Y40188D01*
X1528564Y40121D01*
X1528201Y40062D01*
X1527836Y40013D01*
X1527470Y39972D01*
X1527103Y39941D01*
X1526736Y39918D01*
X1526368Y39905D01*
X1526000Y39900D01*
X1525632Y39905D01*
X1525264Y39918D01*
X1524897Y39941D01*
X1524530Y39972D01*
X1524164Y40013D01*
X1523799Y40062D01*
X1523436Y40121D01*
X1523074Y40188D01*
X1522713Y40264D01*
X1522355Y40350D01*
X1521999Y40443D01*
X1521646Y40546D01*
X1521295Y40657D01*
X1520947Y40777D01*
X1520602Y40905D01*
X1520260Y41042D01*
X1519921Y41187D01*
X1519587Y41340D01*
X1519256Y41502D01*
X1518929Y41671D01*
X1518607Y41849D01*
X1518288Y42034D01*
X1517975Y42227D01*
X1517666Y42428D01*
X1517363Y42636D01*
X1517065Y42852D01*
X1516772Y43075D01*
X1516484Y43305D01*
X1516202Y43542D01*
X1515927Y43786D01*
X1515657Y44036D01*
X1515393Y44293D01*
X1515136Y44557D01*
X1514886Y44827D01*
X1514642Y45102D01*
X1514405Y45384D01*
X1514175Y45672D01*
X1513952Y45965D01*
X1513736Y46263D01*
X1513528Y46566D01*
X1513327Y46875D01*
X1513134Y47188D01*
X1512949Y47507D01*
X1512771Y47829D01*
X1512602Y48156D01*
X1512440Y48487D01*
X1512287Y48821D01*
X1512142Y49160D01*
X1512005Y49502D01*
X1511877Y49847D01*
X1511757Y50195D01*
X1511646Y50546D01*
X1511543Y50899D01*
X1511450Y51255D01*
X1511364Y51613D01*
X1511288Y51974D01*
X1511221Y52336D01*
X1511162Y52699D01*
X1511113Y53064D01*
X1511072Y53430D01*
X1511041Y53797D01*
X1511018Y54164D01*
X1511005Y54532D01*
X1511000Y54900D01*
D11*
X0Y30000D02*
X114Y27385D01*
X456Y24791D01*
X1022Y22235D01*
X1809Y19739D01*
X2811Y17321D01*
X4019Y15000D01*
X5425Y12793D01*
X7019Y10716D01*
X8787Y8787D01*
X10716Y7019D01*
X12793Y5425D01*
X15000Y4019D01*
X17321Y2811D01*
X19739Y1809D01*
X22235Y1022D01*
X24791Y456D01*
X27385Y114D01*
X30000Y0D01*
X1690000Y0D01*
X1692615Y114D01*
X1695209Y456D01*
X1697765Y1022D01*
X1700261Y1809D01*
X1702679Y2811D01*
X1705000Y4019D01*
X1707207Y5425D01*
X1709284Y7019D01*
X1711213Y8787D01*
X1712981Y10716D01*
X1714575Y12793D01*
X1715981Y15000D01*
X1717189Y17321D01*
X1718191Y19739D01*
X1718978Y22235D01*
X1719544Y24791D01*
X1719886Y27385D01*
X1720000Y30000D01*
X1720000Y610000D01*
X1719886Y612615D01*
X1719544Y615209D01*
X1718978Y617765D01*
X1718191Y620261D01*
X1717189Y622679D01*
X1715981Y625000D01*
X1714575Y627207D01*
X1712981Y629284D01*
X1711213Y631213D01*
X1709284Y632981D01*
X1707207Y634575D01*
X1705000Y635981D01*
X1702679Y637189D01*
X1700261Y638191D01*
X1697765Y638978D01*
X1695209Y639544D01*
X1692615Y639886D01*
X1690000Y640000D01*
X950000Y640000D01*
X949924Y638257D01*
X949696Y636527D01*
X949319Y634824D01*
X948794Y633160D01*
X948126Y631548D01*
X947321Y630000D01*
X946383Y628528D01*
X945321Y627144D01*
X944142Y625858D01*
X942856Y624679D01*
X941472Y623617D01*
X940000Y622680D01*
X938452Y621874D01*
X936840Y621206D01*
X935176Y620681D01*
X933473Y620304D01*
X931743Y620076D01*
X930000Y620000D01*
X825000Y620000D01*
X823257Y620076D01*
X821527Y620304D01*
X819824Y620681D01*
X818160Y621206D01*
X816548Y621874D01*
X815000Y622680D01*
X813528Y623617D01*
X812144Y624679D01*
X810858Y625858D01*
X809679Y627144D01*
X808617Y628528D01*
X807680Y630000D01*
X806874Y631548D01*
X806206Y633160D01*
X805681Y634824D01*
X805304Y636527D01*
X805076Y638257D01*
X805000Y640000D01*
X30000Y640000D01*
X27385Y639886D01*
X24791Y639544D01*
X22235Y638978D01*
X19739Y638191D01*
X17321Y637189D01*
X15000Y635981D01*
X12793Y634575D01*
X10716Y632981D01*
X8787Y631213D01*
X7019Y629284D01*
X5425Y627207D01*
X4019Y625000D01*
X2811Y622679D01*
X1809Y620261D01*
X1022Y617765D01*
X456Y615209D01*
X114Y612615D01*
X0Y610000D01*
X0Y30000D01*
X270800Y194400D02*
X270543Y192942D01*
X270238Y190134D01*
X270180Y187310D01*
X270367Y184491D01*
X270800Y181700D01*
X271474Y178957D01*
X272385Y176283D01*
X273525Y173699D01*
X274887Y171224D01*
X276458Y168877D01*
X278229Y166676D01*
X280184Y164637D01*
X282310Y162777D01*
X284590Y161109D01*
X287006Y159646D01*
X289541Y158400D01*
X292174Y157379D01*
X294887Y156591D01*
X297658Y156043D01*
X300466Y155738D01*
X303290Y155680D01*
X306109Y155867D01*
X308900Y156300D01*
X766100Y156300D01*
X769421Y156445D01*
X772716Y156879D01*
X775961Y157598D01*
X779131Y158598D01*
X782202Y159870D01*
X785150Y161404D01*
X787953Y163190D01*
X790590Y165214D01*
X793041Y167459D01*
X795286Y169910D01*
X797310Y172547D01*
X799096Y175350D01*
X800630Y178298D01*
X801902Y181369D01*
X802902Y184539D01*
X803621Y187784D01*
X804055Y191079D01*
X804200Y194400D01*
X804200Y423000D01*
X804055Y426321D01*
X803621Y429616D01*
X802902Y432861D01*
X801902Y436031D01*
X800630Y439102D01*
X799096Y442050D01*
X797310Y444853D01*
X795286Y447490D01*
X793041Y449941D01*
X790590Y452186D01*
X787953Y454210D01*
X785150Y455996D01*
X782202Y457530D01*
X779131Y458802D01*
X775961Y459802D01*
X772716Y460521D01*
X769421Y460955D01*
X766100Y461100D01*
X308900Y461100D01*
X305579Y460955D01*
X302284Y460521D01*
X299039Y459802D01*
X295869Y458802D01*
X292798Y457530D01*
X289850Y455996D01*
X287047Y454210D01*
X284410Y452186D01*
X281959Y449941D01*
X279714Y447490D01*
X277690Y444853D01*
X275904Y442050D01*
X274370Y439102D01*
X273098Y436031D01*
X272098Y432861D01*
X271379Y429616D01*
X270945Y426321D01*
X270800Y423000D01*
X270800Y194400D01*
X270800Y194400D02*
X270945Y191079D01*
X271379Y187784D01*
X272098Y184539D01*
X273098Y181369D01*
X274370Y178298D01*
X275904Y175350D01*
X277690Y172547D01*
X279714Y169910D01*
X281959Y167459D01*
X284410Y165214D01*
X287047Y163190D01*
X289850Y161404D01*
X292798Y159870D01*
X295869Y158598D01*
X299039Y157598D01*
X302284Y156879D01*
X305579Y156445D01*
X308900Y156300D01*
X766100Y156300D01*
X769421Y156445D01*
X772716Y156879D01*
X775961Y157598D01*
X779131Y158598D01*
X782202Y159870D01*
X785150Y161404D01*
X787953Y163190D01*
X790590Y165214D01*
X793041Y167459D01*
X795286Y169910D01*
X797310Y172547D01*
X799096Y175350D01*
X800630Y178298D01*
X801902Y181369D01*
X802902Y184539D01*
X803621Y187784D01*
X804055Y191079D01*
X804200Y194400D01*
X804200Y423000D01*
X804055Y426321D01*
X803621Y429616D01*
X802902Y432861D01*
X801902Y436031D01*
X800630Y439102D01*
X799096Y442050D01*
X797310Y444853D01*
X795286Y447490D01*
X793041Y449941D01*
X790590Y452186D01*
X787953Y454210D01*
X785150Y455996D01*
X782202Y457530D01*
X779131Y458802D01*
X775961Y459802D01*
X772716Y460521D01*
X769421Y460955D01*
X766100Y461100D01*
X308900Y461100D01*
X305579Y460955D01*
X302284Y460521D01*
X299039Y459802D01*
X295869Y458802D01*
X292798Y457530D01*
X289850Y455996D01*
X287047Y454210D01*
X284410Y452186D01*
X281959Y449941D01*
X279714Y447490D01*
X277690Y444853D01*
X275904Y442050D01*
X274370Y439102D01*
X273098Y436031D01*
X272098Y432861D01*
X271379Y429616D01*
X270945Y426321D01*
X270800Y423000D01*
X270800Y194400D01*
X209000Y54364D02*
X208924Y53296D01*
X208771Y52235D01*
X208543Y51188D01*
X208241Y50160D01*
X207867Y49156D01*
X207422Y48181D01*
X206908Y47241D01*
X206329Y46340D01*
X205687Y45482D01*
X204985Y44672D01*
X204228Y43915D01*
X203418Y43213D01*
X202560Y42571D01*
X201659Y41992D01*
X200719Y41478D01*
X199744Y41033D01*
X198740Y40659D01*
X197712Y40357D01*
X196665Y40129D01*
X195604Y39976D01*
X194536Y39900D01*
X193464Y39900D01*
X192396Y39976D01*
X191335Y40129D01*
X190288Y40357D01*
X189260Y40659D01*
X188256Y41033D01*
X187281Y41478D01*
X186341Y41992D01*
X185440Y42571D01*
X184582Y43213D01*
X183772Y43915D01*
X183015Y44672D01*
X182313Y45482D01*
X181671Y46340D01*
X181092Y47241D01*
X180578Y48181D01*
X180133Y49156D01*
X179759Y50160D01*
X179457Y51188D01*
X179229Y52235D01*
X179076Y53296D01*
X179000Y54364D01*
X179000Y55436D01*
X179076Y56504D01*
X179229Y57565D01*
X179457Y58612D01*
X179759Y59640D01*
X180133Y60644D01*
X180578Y61619D01*
X181092Y62559D01*
X181671Y63460D01*
X182313Y64318D01*
X183015Y65128D01*
X183772Y65885D01*
X184582Y66587D01*
X185440Y67229D01*
X186341Y67808D01*
X187281Y68322D01*
X188256Y68767D01*
X189260Y69141D01*
X190288Y69443D01*
X191335Y69671D01*
X192396Y69824D01*
X193464Y69900D01*
X194536Y69900D01*
X195604Y69824D01*
X196665Y69671D01*
X197712Y69443D01*
X198740Y69141D01*
X199744Y68767D01*
X200719Y68322D01*
X201659Y67808D01*
X202560Y67229D01*
X203418Y66587D01*
X204228Y65885D01*
X204985Y65128D01*
X205687Y64318D01*
X206329Y63460D01*
X206908Y62559D01*
X207422Y61619D01*
X207867Y60644D01*
X208241Y59640D01*
X208543Y58612D01*
X208771Y57565D01*
X208924Y56504D01*
X209000Y55436D01*
X209000Y54364D01*
X41000Y54364D02*
X40924Y53296D01*
X40771Y52235D01*
X40543Y51188D01*
X40241Y50160D01*
X39867Y49156D01*
X39422Y48181D01*
X38908Y47241D01*
X38329Y46340D01*
X37687Y45482D01*
X36985Y44672D01*
X36228Y43915D01*
X35418Y43213D01*
X34560Y42571D01*
X33659Y41992D01*
X32719Y41478D01*
X31744Y41033D01*
X30740Y40659D01*
X29712Y40357D01*
X28665Y40129D01*
X27604Y39976D01*
X26536Y39900D01*
X25464Y39900D01*
X24396Y39976D01*
X23335Y40129D01*
X22288Y40357D01*
X21260Y40659D01*
X20256Y41033D01*
X19281Y41478D01*
X18341Y41992D01*
X17440Y42571D01*
X16582Y43213D01*
X15772Y43915D01*
X15015Y44672D01*
X14313Y45482D01*
X13671Y46340D01*
X13092Y47241D01*
X12578Y48181D01*
X12133Y49156D01*
X11759Y50160D01*
X11457Y51188D01*
X11229Y52235D01*
X11076Y53296D01*
X11000Y54364D01*
X11000Y55436D01*
X11076Y56504D01*
X11229Y57565D01*
X11457Y58612D01*
X11759Y59640D01*
X12133Y60644D01*
X12578Y61619D01*
X13092Y62559D01*
X13671Y63460D01*
X14313Y64318D01*
X15015Y65128D01*
X15772Y65885D01*
X16582Y66587D01*
X17440Y67229D01*
X18341Y67808D01*
X19281Y68322D01*
X20256Y68767D01*
X21260Y69141D01*
X22288Y69443D01*
X23335Y69671D01*
X24396Y69824D01*
X25464Y69900D01*
X26536Y69900D01*
X27604Y69824D01*
X28665Y69671D01*
X29712Y69443D01*
X30740Y69141D01*
X31744Y68767D01*
X32719Y68322D01*
X33659Y67808D01*
X34560Y67229D01*
X35418Y66587D01*
X36228Y65885D01*
X36985Y65128D01*
X37687Y64318D01*
X38329Y63460D01*
X38908Y62559D01*
X39422Y61619D01*
X39867Y60644D01*
X40241Y59640D01*
X40543Y58612D01*
X40771Y57565D01*
X40924Y56504D01*
X41000Y55436D01*
X41000Y54364D01*
X1709000Y54364D02*
X1708924Y53296D01*
X1708771Y52235D01*
X1708543Y51188D01*
X1708241Y50160D01*
X1707867Y49156D01*
X1707422Y48181D01*
X1706908Y47241D01*
X1706329Y46340D01*
X1705687Y45482D01*
X1704985Y44672D01*
X1704228Y43915D01*
X1703418Y43213D01*
X1702560Y42571D01*
X1701659Y41992D01*
X1700719Y41478D01*
X1699744Y41033D01*
X1698740Y40659D01*
X1697712Y40357D01*
X1696665Y40129D01*
X1695604Y39976D01*
X1694536Y39900D01*
X1693464Y39900D01*
X1692396Y39976D01*
X1691335Y40129D01*
X1690288Y40357D01*
X1689260Y40659D01*
X1688256Y41033D01*
X1687281Y41478D01*
X1686341Y41992D01*
X1685440Y42571D01*
X1684582Y43213D01*
X1683772Y43915D01*
X1683015Y44672D01*
X1682313Y45482D01*
X1681671Y46340D01*
X1681092Y47241D01*
X1680578Y48181D01*
X1680133Y49156D01*
X1679759Y50160D01*
X1679457Y51188D01*
X1679229Y52235D01*
X1679076Y53296D01*
X1679000Y54364D01*
X1679000Y55436D01*
X1679076Y56504D01*
X1679229Y57565D01*
X1679457Y58612D01*
X1679759Y59640D01*
X1680133Y60644D01*
X1680578Y61619D01*
X1681092Y62559D01*
X1681671Y63460D01*
X1682313Y64318D01*
X1683015Y65128D01*
X1683772Y65885D01*
X1684582Y66587D01*
X1685440Y67229D01*
X1686341Y67808D01*
X1687281Y68322D01*
X1688256Y68767D01*
X1689260Y69141D01*
X1690288Y69443D01*
X1691335Y69671D01*
X1692396Y69824D01*
X1693464Y69900D01*
X1694536Y69900D01*
X1695604Y69824D01*
X1696665Y69671D01*
X1697712Y69443D01*
X1698740Y69141D01*
X1699744Y68767D01*
X1700719Y68322D01*
X1701659Y67808D01*
X1702560Y67229D01*
X1703418Y66587D01*
X1704228Y65885D01*
X1704985Y65128D01*
X1705687Y64318D01*
X1706329Y63460D01*
X1706908Y62559D01*
X1707422Y61619D01*
X1707867Y60644D01*
X1708241Y59640D01*
X1708543Y58612D01*
X1708771Y57565D01*
X1708924Y56504D01*
X1709000Y55436D01*
X1709000Y54364D01*
X1541000Y54364D02*
X1540924Y53296D01*
X1540771Y52235D01*
X1540543Y51188D01*
X1540241Y50160D01*
X1539867Y49156D01*
X1539422Y48181D01*
X1538908Y47241D01*
X1538329Y46340D01*
X1537687Y45482D01*
X1536985Y44672D01*
X1536228Y43915D01*
X1535418Y43213D01*
X1534560Y42571D01*
X1533659Y41992D01*
X1532719Y41478D01*
X1531744Y41033D01*
X1530740Y40659D01*
X1529712Y40357D01*
X1528665Y40129D01*
X1527604Y39976D01*
X1526536Y39900D01*
X1525464Y39900D01*
X1524396Y39976D01*
X1523335Y40129D01*
X1522288Y40357D01*
X1521260Y40659D01*
X1520256Y41033D01*
X1519281Y41478D01*
X1518341Y41992D01*
X1517440Y42571D01*
X1516582Y43213D01*
X1515772Y43915D01*
X1515015Y44672D01*
X1514313Y45482D01*
X1513671Y46340D01*
X1513092Y47241D01*
X1512578Y48181D01*
X1512133Y49156D01*
X1511759Y50160D01*
X1511457Y51188D01*
X1511229Y52235D01*
X1511076Y53296D01*
X1511000Y54364D01*
X1511000Y55436D01*
X1511076Y56504D01*
X1511229Y57565D01*
X1511457Y58612D01*
X1511759Y59640D01*
X1512133Y60644D01*
X1512578Y61619D01*
X1513092Y62559D01*
X1513671Y63460D01*
X1514313Y64318D01*
X1515015Y65128D01*
X1515772Y65885D01*
X1516582Y66587D01*
X1517440Y67229D01*
X1518341Y67808D01*
X1519281Y68322D01*
X1520256Y68767D01*
X1521260Y69141D01*
X1522288Y69443D01*
X1523335Y69671D01*
X1524396Y69824D01*
X1525464Y69900D01*
X1526536Y69900D01*
X1527604Y69824D01*
X1528665Y69671D01*
X1529712Y69443D01*
X1530740Y69141D01*
X1531744Y68767D01*
X1532719Y68322D01*
X1533659Y67808D01*
X1534560Y67229D01*
X1535418Y66587D01*
X1536228Y65885D01*
X1536985Y65128D01*
X1537687Y64318D01*
X1538329Y63460D01*
X1538908Y62559D01*
X1539422Y61619D01*
X1539867Y60644D01*
X1540241Y59640D01*
X1540543Y58612D01*
X1540771Y57565D01*
X1540924Y56504D01*
X1541000Y55436D01*
X1541000Y54364D01*
M02*
