G04 EAGLE Gerber RS-274X export*
G75*
%MOMM*%
%FSLAX34Y34*%
%LPD*%
%INSilkscreen Bottom*%
%IPPOS*%
%AMOC8*
5,1,8,0,0,1.08239X$1,22.5*%
G01*
%ADD10C,0.152400*%
%ADD11C,0.203200*%
%ADD12C,0.130000*%


D10*
X559280Y99304D02*
X548443Y99304D01*
X553862Y104722D02*
X553862Y93885D01*
X541704Y105626D02*
X537188Y109238D01*
X537188Y92982D01*
X532673Y92982D02*
X541704Y92982D01*
X521106Y109238D02*
X520981Y109236D01*
X520856Y109230D01*
X520731Y109221D01*
X520607Y109207D01*
X520483Y109190D01*
X520359Y109169D01*
X520237Y109144D01*
X520115Y109115D01*
X519994Y109083D01*
X519874Y109047D01*
X519755Y109007D01*
X519638Y108964D01*
X519522Y108917D01*
X519407Y108866D01*
X519295Y108812D01*
X519183Y108754D01*
X519074Y108694D01*
X518967Y108629D01*
X518861Y108562D01*
X518758Y108491D01*
X518657Y108417D01*
X518558Y108340D01*
X518462Y108260D01*
X518368Y108177D01*
X518277Y108092D01*
X518188Y108003D01*
X518103Y107912D01*
X518020Y107818D01*
X517940Y107722D01*
X517863Y107623D01*
X517789Y107522D01*
X517718Y107419D01*
X517651Y107313D01*
X517586Y107206D01*
X517526Y107097D01*
X517468Y106985D01*
X517414Y106873D01*
X517363Y106758D01*
X517316Y106642D01*
X517273Y106525D01*
X517233Y106406D01*
X517197Y106286D01*
X517165Y106165D01*
X517136Y106043D01*
X517111Y105921D01*
X517090Y105797D01*
X517073Y105673D01*
X517059Y105549D01*
X517050Y105424D01*
X517044Y105299D01*
X517042Y105174D01*
X521106Y109238D02*
X521249Y109236D01*
X521391Y109230D01*
X521534Y109220D01*
X521676Y109207D01*
X521817Y109189D01*
X521959Y109168D01*
X522099Y109143D01*
X522239Y109114D01*
X522378Y109081D01*
X522516Y109044D01*
X522653Y109004D01*
X522788Y108960D01*
X522923Y108912D01*
X523056Y108860D01*
X523188Y108805D01*
X523318Y108746D01*
X523446Y108684D01*
X523573Y108618D01*
X523698Y108549D01*
X523821Y108477D01*
X523942Y108401D01*
X524060Y108322D01*
X524177Y108239D01*
X524291Y108154D01*
X524403Y108065D01*
X524512Y107974D01*
X524619Y107879D01*
X524724Y107782D01*
X524825Y107681D01*
X524924Y107578D01*
X525020Y107473D01*
X525113Y107364D01*
X525203Y107253D01*
X525290Y107140D01*
X525374Y107025D01*
X525454Y106907D01*
X525532Y106787D01*
X525606Y106665D01*
X525676Y106541D01*
X525744Y106415D01*
X525807Y106287D01*
X525868Y106158D01*
X525925Y106027D01*
X525978Y105895D01*
X526027Y105761D01*
X526073Y105626D01*
X518397Y102013D02*
X518303Y102105D01*
X518213Y102199D01*
X518125Y102296D01*
X518040Y102396D01*
X517958Y102498D01*
X517879Y102603D01*
X517804Y102710D01*
X517732Y102819D01*
X517663Y102930D01*
X517597Y103044D01*
X517535Y103159D01*
X517476Y103276D01*
X517421Y103395D01*
X517370Y103515D01*
X517322Y103637D01*
X517277Y103760D01*
X517237Y103884D01*
X517200Y104010D01*
X517167Y104137D01*
X517138Y104264D01*
X517112Y104393D01*
X517091Y104522D01*
X517073Y104652D01*
X517060Y104782D01*
X517050Y104912D01*
X517044Y105043D01*
X517042Y105174D01*
X518396Y102013D02*
X526073Y92982D01*
X517042Y92982D01*
X505926Y92982D02*
X511344Y109238D01*
X500507Y109238D02*
X505926Y92982D01*
X495470Y91176D02*
X488245Y91176D01*
X477408Y92982D02*
X477290Y92984D01*
X477172Y92990D01*
X477054Y92999D01*
X476937Y93013D01*
X476820Y93030D01*
X476703Y93051D01*
X476588Y93076D01*
X476473Y93105D01*
X476359Y93138D01*
X476247Y93174D01*
X476136Y93214D01*
X476026Y93257D01*
X475917Y93304D01*
X475810Y93354D01*
X475705Y93409D01*
X475602Y93466D01*
X475501Y93527D01*
X475401Y93591D01*
X475304Y93658D01*
X475209Y93728D01*
X475117Y93802D01*
X475026Y93878D01*
X474939Y93958D01*
X474854Y94040D01*
X474772Y94125D01*
X474692Y94212D01*
X474616Y94303D01*
X474542Y94395D01*
X474472Y94490D01*
X474405Y94587D01*
X474341Y94687D01*
X474280Y94788D01*
X474223Y94891D01*
X474168Y94996D01*
X474118Y95103D01*
X474071Y95212D01*
X474028Y95322D01*
X473988Y95433D01*
X473952Y95545D01*
X473919Y95659D01*
X473890Y95774D01*
X473865Y95889D01*
X473844Y96006D01*
X473827Y96123D01*
X473813Y96240D01*
X473804Y96358D01*
X473798Y96476D01*
X473796Y96594D01*
X477408Y92982D02*
X477591Y92984D01*
X477773Y92991D01*
X477955Y93002D01*
X478137Y93017D01*
X478319Y93037D01*
X478500Y93061D01*
X478680Y93089D01*
X478860Y93121D01*
X479039Y93158D01*
X479216Y93199D01*
X479393Y93245D01*
X479569Y93294D01*
X479744Y93348D01*
X479917Y93406D01*
X480088Y93468D01*
X480259Y93534D01*
X480427Y93605D01*
X480594Y93679D01*
X480759Y93757D01*
X480922Y93839D01*
X481083Y93925D01*
X481242Y94015D01*
X481399Y94109D01*
X481553Y94206D01*
X481705Y94307D01*
X481855Y94412D01*
X482002Y94520D01*
X482146Y94631D01*
X482288Y94746D01*
X482427Y94865D01*
X482563Y94987D01*
X482696Y95112D01*
X482826Y95240D01*
X482374Y105626D02*
X482372Y105744D01*
X482366Y105862D01*
X482357Y105980D01*
X482343Y106097D01*
X482326Y106214D01*
X482305Y106331D01*
X482280Y106446D01*
X482251Y106561D01*
X482218Y106675D01*
X482182Y106787D01*
X482142Y106898D01*
X482099Y107008D01*
X482052Y107117D01*
X482002Y107224D01*
X481947Y107329D01*
X481890Y107432D01*
X481829Y107533D01*
X481765Y107633D01*
X481698Y107730D01*
X481628Y107825D01*
X481554Y107917D01*
X481478Y108008D01*
X481398Y108095D01*
X481316Y108180D01*
X481231Y108262D01*
X481144Y108342D01*
X481053Y108418D01*
X480961Y108492D01*
X480866Y108562D01*
X480769Y108629D01*
X480669Y108693D01*
X480568Y108754D01*
X480465Y108811D01*
X480360Y108866D01*
X480253Y108916D01*
X480144Y108963D01*
X480034Y109006D01*
X479923Y109046D01*
X479811Y109082D01*
X479697Y109115D01*
X479582Y109144D01*
X479467Y109169D01*
X479350Y109190D01*
X479233Y109207D01*
X479116Y109221D01*
X478998Y109230D01*
X478880Y109236D01*
X478762Y109238D01*
X478601Y109236D01*
X478439Y109230D01*
X478278Y109221D01*
X478117Y109207D01*
X477957Y109190D01*
X477797Y109169D01*
X477637Y109144D01*
X477478Y109115D01*
X477320Y109083D01*
X477163Y109047D01*
X477007Y109007D01*
X476851Y108963D01*
X476697Y108915D01*
X476544Y108864D01*
X476392Y108810D01*
X476241Y108751D01*
X476092Y108690D01*
X475945Y108624D01*
X475799Y108555D01*
X475654Y108483D01*
X475512Y108407D01*
X475371Y108328D01*
X475232Y108246D01*
X475096Y108160D01*
X474961Y108071D01*
X474828Y107979D01*
X474698Y107883D01*
X480569Y102465D02*
X480670Y102527D01*
X480770Y102592D01*
X480867Y102661D01*
X480962Y102733D01*
X481055Y102807D01*
X481145Y102885D01*
X481233Y102966D01*
X481318Y103049D01*
X481400Y103135D01*
X481479Y103224D01*
X481556Y103315D01*
X481629Y103409D01*
X481700Y103505D01*
X481767Y103603D01*
X481831Y103703D01*
X481892Y103806D01*
X481949Y103910D01*
X482003Y104016D01*
X482053Y104124D01*
X482100Y104233D01*
X482144Y104344D01*
X482184Y104456D01*
X482220Y104570D01*
X482252Y104684D01*
X482281Y104800D01*
X482306Y104916D01*
X482327Y105033D01*
X482344Y105151D01*
X482358Y105269D01*
X482367Y105388D01*
X482373Y105507D01*
X482375Y105626D01*
X475601Y99755D02*
X475500Y99693D01*
X475400Y99628D01*
X475303Y99559D01*
X475208Y99487D01*
X475115Y99413D01*
X475025Y99335D01*
X474937Y99254D01*
X474852Y99171D01*
X474770Y99085D01*
X474691Y98996D01*
X474614Y98905D01*
X474541Y98811D01*
X474470Y98715D01*
X474403Y98617D01*
X474339Y98517D01*
X474278Y98414D01*
X474221Y98310D01*
X474167Y98204D01*
X474117Y98096D01*
X474070Y97987D01*
X474026Y97876D01*
X473986Y97764D01*
X473950Y97650D01*
X473918Y97536D01*
X473889Y97420D01*
X473864Y97304D01*
X473843Y97187D01*
X473826Y97069D01*
X473812Y96951D01*
X473803Y96832D01*
X473797Y96713D01*
X473795Y96594D01*
X475601Y99755D02*
X480568Y102465D01*
X468619Y92982D02*
X463200Y109238D01*
X457782Y92982D01*
X459136Y97046D02*
X467264Y97046D01*
X451534Y92982D02*
X451534Y109238D01*
X444309Y109238D01*
X444309Y102013D02*
X451534Y102013D01*
X437987Y92982D02*
X430762Y92982D01*
X437987Y92982D02*
X437987Y109238D01*
X430762Y109238D01*
X432568Y102013D02*
X437987Y102013D01*
D11*
X1513791Y601016D02*
X1518984Y624384D01*
X1508598Y616595D02*
X1513791Y601016D01*
X1503405Y601016D02*
X1508598Y616595D01*
X1498212Y624384D02*
X1503405Y601016D01*
X1490706Y601016D02*
X1480321Y601016D01*
X1490706Y601016D02*
X1490706Y624384D01*
X1480321Y624384D01*
X1482917Y613998D02*
X1490706Y613998D01*
X1466238Y601016D02*
X1466095Y601018D01*
X1465952Y601024D01*
X1465809Y601034D01*
X1465667Y601048D01*
X1465525Y601065D01*
X1465383Y601087D01*
X1465242Y601112D01*
X1465102Y601142D01*
X1464963Y601175D01*
X1464825Y601212D01*
X1464688Y601253D01*
X1464552Y601297D01*
X1464417Y601346D01*
X1464284Y601398D01*
X1464152Y601453D01*
X1464022Y601513D01*
X1463893Y601576D01*
X1463766Y601642D01*
X1463642Y601712D01*
X1463519Y601785D01*
X1463398Y601862D01*
X1463279Y601941D01*
X1463163Y602025D01*
X1463048Y602111D01*
X1462937Y602200D01*
X1462827Y602293D01*
X1462721Y602388D01*
X1462617Y602487D01*
X1462516Y602588D01*
X1462417Y602692D01*
X1462322Y602798D01*
X1462229Y602908D01*
X1462140Y603019D01*
X1462054Y603134D01*
X1461971Y603250D01*
X1461891Y603369D01*
X1461814Y603490D01*
X1461741Y603612D01*
X1461671Y603737D01*
X1461605Y603864D01*
X1461542Y603993D01*
X1461482Y604123D01*
X1461427Y604255D01*
X1461375Y604388D01*
X1461326Y604523D01*
X1461282Y604659D01*
X1461241Y604796D01*
X1461204Y604934D01*
X1461171Y605073D01*
X1461141Y605213D01*
X1461116Y605354D01*
X1461094Y605496D01*
X1461077Y605638D01*
X1461063Y605780D01*
X1461053Y605923D01*
X1461047Y606066D01*
X1461045Y606209D01*
X1466238Y601016D02*
X1466501Y601019D01*
X1466763Y601029D01*
X1467025Y601044D01*
X1467286Y601066D01*
X1467547Y601094D01*
X1467807Y601129D01*
X1468067Y601170D01*
X1468325Y601216D01*
X1468582Y601269D01*
X1468838Y601329D01*
X1469092Y601394D01*
X1469345Y601465D01*
X1469595Y601542D01*
X1469844Y601626D01*
X1470091Y601715D01*
X1470336Y601810D01*
X1470578Y601911D01*
X1470818Y602018D01*
X1471055Y602130D01*
X1471289Y602248D01*
X1471521Y602372D01*
X1471749Y602501D01*
X1471975Y602636D01*
X1472197Y602776D01*
X1472415Y602921D01*
X1472631Y603071D01*
X1472842Y603227D01*
X1473050Y603387D01*
X1473253Y603553D01*
X1473453Y603723D01*
X1473649Y603898D01*
X1473840Y604077D01*
X1474027Y604261D01*
X1473379Y619191D02*
X1473377Y619334D01*
X1473371Y619477D01*
X1473361Y619620D01*
X1473347Y619762D01*
X1473330Y619904D01*
X1473308Y620046D01*
X1473283Y620187D01*
X1473253Y620327D01*
X1473220Y620466D01*
X1473183Y620604D01*
X1473142Y620741D01*
X1473098Y620877D01*
X1473049Y621012D01*
X1472997Y621145D01*
X1472942Y621277D01*
X1472882Y621407D01*
X1472819Y621536D01*
X1472753Y621663D01*
X1472683Y621788D01*
X1472610Y621910D01*
X1472533Y622031D01*
X1472453Y622150D01*
X1472370Y622266D01*
X1472284Y622381D01*
X1472195Y622492D01*
X1472102Y622602D01*
X1472007Y622708D01*
X1471908Y622812D01*
X1471807Y622913D01*
X1471703Y623012D01*
X1471597Y623107D01*
X1471487Y623200D01*
X1471376Y623289D01*
X1471261Y623375D01*
X1471145Y623458D01*
X1471026Y623538D01*
X1470905Y623615D01*
X1470783Y623688D01*
X1470658Y623758D01*
X1470531Y623824D01*
X1470402Y623887D01*
X1470272Y623947D01*
X1470140Y624002D01*
X1470007Y624054D01*
X1469872Y624103D01*
X1469736Y624147D01*
X1469599Y624188D01*
X1469461Y624225D01*
X1469322Y624258D01*
X1469182Y624288D01*
X1469041Y624313D01*
X1468899Y624335D01*
X1468757Y624352D01*
X1468615Y624366D01*
X1468472Y624376D01*
X1468329Y624382D01*
X1468186Y624384D01*
X1467954Y624381D01*
X1467722Y624373D01*
X1467490Y624359D01*
X1467259Y624340D01*
X1467028Y624315D01*
X1466798Y624285D01*
X1466569Y624249D01*
X1466341Y624208D01*
X1466113Y624161D01*
X1465887Y624109D01*
X1465662Y624051D01*
X1465439Y623988D01*
X1465217Y623920D01*
X1464997Y623847D01*
X1464779Y623768D01*
X1464562Y623685D01*
X1464348Y623596D01*
X1464136Y623502D01*
X1463926Y623403D01*
X1463718Y623299D01*
X1463514Y623190D01*
X1463311Y623076D01*
X1463112Y622957D01*
X1462915Y622834D01*
X1462722Y622706D01*
X1462531Y622574D01*
X1462344Y622437D01*
X1470783Y614647D02*
X1470906Y614722D01*
X1471027Y614800D01*
X1471146Y614882D01*
X1471262Y614966D01*
X1471376Y615054D01*
X1471488Y615145D01*
X1471598Y615239D01*
X1471704Y615336D01*
X1471808Y615436D01*
X1471909Y615538D01*
X1472008Y615644D01*
X1472103Y615752D01*
X1472196Y615862D01*
X1472285Y615975D01*
X1472371Y616091D01*
X1472455Y616208D01*
X1472534Y616328D01*
X1472611Y616450D01*
X1472684Y616574D01*
X1472754Y616700D01*
X1472820Y616828D01*
X1472883Y616958D01*
X1472942Y617089D01*
X1472998Y617222D01*
X1473050Y617357D01*
X1473098Y617493D01*
X1473143Y617630D01*
X1473183Y617768D01*
X1473220Y617907D01*
X1473254Y618047D01*
X1473283Y618188D01*
X1473308Y618330D01*
X1473330Y618473D01*
X1473348Y618616D01*
X1473361Y618759D01*
X1473371Y618903D01*
X1473377Y619047D01*
X1473379Y619191D01*
X1463642Y610753D02*
X1463519Y610678D01*
X1463398Y610600D01*
X1463279Y610518D01*
X1463163Y610434D01*
X1463049Y610346D01*
X1462937Y610255D01*
X1462828Y610161D01*
X1462721Y610064D01*
X1462617Y609964D01*
X1462516Y609862D01*
X1462417Y609756D01*
X1462322Y609648D01*
X1462229Y609538D01*
X1462140Y609425D01*
X1462054Y609310D01*
X1461971Y609192D01*
X1461891Y609072D01*
X1461814Y608950D01*
X1461741Y608826D01*
X1461671Y608700D01*
X1461605Y608572D01*
X1461542Y608442D01*
X1461483Y608311D01*
X1461427Y608178D01*
X1461375Y608043D01*
X1461327Y607907D01*
X1461282Y607770D01*
X1461242Y607632D01*
X1461205Y607493D01*
X1461172Y607353D01*
X1461142Y607212D01*
X1461117Y607070D01*
X1461095Y606927D01*
X1461077Y606784D01*
X1461064Y606641D01*
X1461054Y606497D01*
X1461048Y606353D01*
X1461046Y606209D01*
X1463642Y610753D02*
X1470782Y614647D01*
X1448746Y624384D02*
X1448746Y601016D01*
X1455237Y624384D02*
X1442255Y624384D01*
X1435030Y601016D02*
X1424644Y601016D01*
X1435030Y601016D02*
X1435030Y624384D01*
X1424644Y624384D01*
X1427240Y613998D02*
X1435030Y613998D01*
X1416895Y624384D02*
X1416895Y601016D01*
X1416895Y624384D02*
X1410404Y624384D01*
X1410245Y624382D01*
X1410086Y624376D01*
X1409926Y624366D01*
X1409768Y624353D01*
X1409609Y624335D01*
X1409452Y624314D01*
X1409294Y624288D01*
X1409138Y624259D01*
X1408982Y624226D01*
X1408827Y624189D01*
X1408673Y624149D01*
X1408520Y624104D01*
X1408368Y624056D01*
X1408217Y624005D01*
X1408068Y623949D01*
X1407920Y623890D01*
X1407774Y623827D01*
X1407629Y623761D01*
X1407486Y623691D01*
X1407344Y623618D01*
X1407205Y623541D01*
X1407067Y623461D01*
X1406931Y623377D01*
X1406798Y623290D01*
X1406666Y623200D01*
X1406537Y623107D01*
X1406411Y623010D01*
X1406286Y622911D01*
X1406164Y622808D01*
X1406045Y622703D01*
X1405928Y622594D01*
X1405814Y622483D01*
X1405703Y622369D01*
X1405594Y622252D01*
X1405489Y622133D01*
X1405386Y622011D01*
X1405287Y621886D01*
X1405190Y621760D01*
X1405097Y621631D01*
X1405007Y621499D01*
X1404920Y621366D01*
X1404836Y621230D01*
X1404756Y621092D01*
X1404679Y620953D01*
X1404606Y620811D01*
X1404536Y620668D01*
X1404470Y620523D01*
X1404407Y620377D01*
X1404348Y620229D01*
X1404292Y620080D01*
X1404241Y619929D01*
X1404193Y619777D01*
X1404148Y619624D01*
X1404108Y619470D01*
X1404071Y619315D01*
X1404038Y619159D01*
X1404009Y619003D01*
X1403983Y618845D01*
X1403962Y618688D01*
X1403944Y618529D01*
X1403931Y618371D01*
X1403921Y618211D01*
X1403915Y618052D01*
X1403913Y617893D01*
X1403915Y617734D01*
X1403921Y617575D01*
X1403931Y617415D01*
X1403944Y617257D01*
X1403962Y617098D01*
X1403983Y616941D01*
X1404009Y616783D01*
X1404038Y616627D01*
X1404071Y616471D01*
X1404108Y616316D01*
X1404148Y616162D01*
X1404193Y616009D01*
X1404241Y615857D01*
X1404292Y615706D01*
X1404348Y615557D01*
X1404407Y615409D01*
X1404470Y615263D01*
X1404536Y615118D01*
X1404606Y614975D01*
X1404679Y614833D01*
X1404756Y614694D01*
X1404836Y614556D01*
X1404920Y614420D01*
X1405007Y614287D01*
X1405097Y614155D01*
X1405190Y614026D01*
X1405287Y613900D01*
X1405386Y613775D01*
X1405489Y613653D01*
X1405594Y613534D01*
X1405703Y613417D01*
X1405814Y613303D01*
X1405928Y613192D01*
X1406045Y613083D01*
X1406164Y612978D01*
X1406286Y612875D01*
X1406411Y612776D01*
X1406537Y612679D01*
X1406666Y612586D01*
X1406798Y612496D01*
X1406931Y612409D01*
X1407067Y612325D01*
X1407205Y612245D01*
X1407344Y612168D01*
X1407486Y612095D01*
X1407629Y612025D01*
X1407774Y611959D01*
X1407920Y611896D01*
X1408068Y611837D01*
X1408217Y611781D01*
X1408368Y611730D01*
X1408520Y611682D01*
X1408673Y611637D01*
X1408827Y611597D01*
X1408982Y611560D01*
X1409138Y611527D01*
X1409294Y611498D01*
X1409452Y611472D01*
X1409609Y611451D01*
X1409768Y611433D01*
X1409926Y611420D01*
X1410086Y611410D01*
X1410245Y611404D01*
X1410404Y611402D01*
X1416895Y611402D01*
X1409106Y611402D02*
X1403913Y601016D01*
X1395384Y601016D02*
X1395384Y624384D01*
X1382402Y601016D01*
X1382402Y624384D01*
X1361954Y624384D02*
X1361954Y601016D01*
X1361954Y624384D02*
X1351568Y624384D01*
X1351568Y613998D02*
X1361954Y613998D01*
X1344579Y617893D02*
X1344579Y607507D01*
X1344579Y617893D02*
X1344577Y618052D01*
X1344571Y618211D01*
X1344561Y618371D01*
X1344548Y618529D01*
X1344530Y618688D01*
X1344509Y618845D01*
X1344483Y619003D01*
X1344454Y619159D01*
X1344421Y619315D01*
X1344384Y619470D01*
X1344344Y619624D01*
X1344299Y619777D01*
X1344251Y619929D01*
X1344200Y620080D01*
X1344144Y620229D01*
X1344085Y620377D01*
X1344022Y620523D01*
X1343956Y620668D01*
X1343886Y620811D01*
X1343813Y620953D01*
X1343736Y621092D01*
X1343656Y621230D01*
X1343572Y621366D01*
X1343485Y621499D01*
X1343395Y621631D01*
X1343302Y621760D01*
X1343205Y621886D01*
X1343106Y622011D01*
X1343003Y622133D01*
X1342898Y622252D01*
X1342789Y622369D01*
X1342678Y622483D01*
X1342564Y622594D01*
X1342447Y622703D01*
X1342328Y622808D01*
X1342206Y622911D01*
X1342081Y623010D01*
X1341955Y623107D01*
X1341826Y623200D01*
X1341694Y623290D01*
X1341561Y623377D01*
X1341425Y623461D01*
X1341287Y623541D01*
X1341148Y623618D01*
X1341006Y623691D01*
X1340863Y623761D01*
X1340718Y623827D01*
X1340572Y623890D01*
X1340424Y623949D01*
X1340275Y624005D01*
X1340124Y624056D01*
X1339972Y624104D01*
X1339819Y624149D01*
X1339665Y624189D01*
X1339510Y624226D01*
X1339354Y624259D01*
X1339198Y624288D01*
X1339040Y624314D01*
X1338883Y624335D01*
X1338724Y624353D01*
X1338566Y624366D01*
X1338406Y624376D01*
X1338247Y624382D01*
X1338088Y624384D01*
X1337929Y624382D01*
X1337770Y624376D01*
X1337610Y624366D01*
X1337452Y624353D01*
X1337293Y624335D01*
X1337136Y624314D01*
X1336978Y624288D01*
X1336822Y624259D01*
X1336666Y624226D01*
X1336511Y624189D01*
X1336357Y624149D01*
X1336204Y624104D01*
X1336052Y624056D01*
X1335901Y624005D01*
X1335752Y623949D01*
X1335604Y623890D01*
X1335458Y623827D01*
X1335313Y623761D01*
X1335170Y623691D01*
X1335028Y623618D01*
X1334889Y623541D01*
X1334751Y623461D01*
X1334615Y623377D01*
X1334482Y623290D01*
X1334350Y623200D01*
X1334221Y623107D01*
X1334095Y623010D01*
X1333970Y622911D01*
X1333848Y622808D01*
X1333729Y622703D01*
X1333612Y622594D01*
X1333498Y622483D01*
X1333387Y622369D01*
X1333278Y622252D01*
X1333173Y622133D01*
X1333070Y622011D01*
X1332971Y621886D01*
X1332874Y621760D01*
X1332781Y621631D01*
X1332691Y621499D01*
X1332604Y621366D01*
X1332520Y621230D01*
X1332440Y621092D01*
X1332363Y620953D01*
X1332290Y620811D01*
X1332220Y620668D01*
X1332154Y620523D01*
X1332091Y620377D01*
X1332032Y620229D01*
X1331976Y620080D01*
X1331925Y619929D01*
X1331877Y619777D01*
X1331832Y619624D01*
X1331792Y619470D01*
X1331755Y619315D01*
X1331722Y619159D01*
X1331693Y619003D01*
X1331667Y618845D01*
X1331646Y618688D01*
X1331628Y618529D01*
X1331615Y618371D01*
X1331605Y618211D01*
X1331599Y618052D01*
X1331597Y617893D01*
X1331597Y607507D01*
X1331599Y607348D01*
X1331605Y607189D01*
X1331615Y607029D01*
X1331628Y606871D01*
X1331646Y606712D01*
X1331667Y606555D01*
X1331693Y606397D01*
X1331722Y606241D01*
X1331755Y606085D01*
X1331792Y605930D01*
X1331832Y605776D01*
X1331877Y605623D01*
X1331925Y605471D01*
X1331976Y605320D01*
X1332032Y605171D01*
X1332091Y605023D01*
X1332154Y604877D01*
X1332220Y604732D01*
X1332290Y604589D01*
X1332363Y604447D01*
X1332440Y604308D01*
X1332520Y604170D01*
X1332604Y604034D01*
X1332691Y603901D01*
X1332781Y603769D01*
X1332874Y603640D01*
X1332971Y603514D01*
X1333070Y603389D01*
X1333173Y603267D01*
X1333278Y603148D01*
X1333387Y603031D01*
X1333498Y602917D01*
X1333612Y602806D01*
X1333729Y602697D01*
X1333848Y602592D01*
X1333970Y602489D01*
X1334095Y602390D01*
X1334221Y602293D01*
X1334350Y602200D01*
X1334482Y602110D01*
X1334615Y602023D01*
X1334751Y601939D01*
X1334889Y601859D01*
X1335028Y601782D01*
X1335170Y601709D01*
X1335313Y601639D01*
X1335458Y601573D01*
X1335604Y601510D01*
X1335752Y601451D01*
X1335901Y601395D01*
X1336052Y601344D01*
X1336204Y601296D01*
X1336357Y601251D01*
X1336511Y601211D01*
X1336666Y601174D01*
X1336822Y601141D01*
X1336978Y601112D01*
X1337136Y601086D01*
X1337293Y601065D01*
X1337452Y601047D01*
X1337610Y601034D01*
X1337770Y601024D01*
X1337929Y601018D01*
X1338088Y601016D01*
X1338247Y601018D01*
X1338406Y601024D01*
X1338566Y601034D01*
X1338724Y601047D01*
X1338883Y601065D01*
X1339040Y601086D01*
X1339198Y601112D01*
X1339354Y601141D01*
X1339510Y601174D01*
X1339665Y601211D01*
X1339819Y601251D01*
X1339972Y601296D01*
X1340124Y601344D01*
X1340275Y601395D01*
X1340424Y601451D01*
X1340572Y601510D01*
X1340718Y601573D01*
X1340863Y601639D01*
X1341006Y601709D01*
X1341148Y601782D01*
X1341287Y601859D01*
X1341425Y601939D01*
X1341561Y602023D01*
X1341694Y602110D01*
X1341826Y602200D01*
X1341955Y602293D01*
X1342081Y602390D01*
X1342206Y602489D01*
X1342328Y602592D01*
X1342447Y602697D01*
X1342564Y602806D01*
X1342678Y602917D01*
X1342789Y603031D01*
X1342898Y603148D01*
X1343003Y603267D01*
X1343106Y603389D01*
X1343205Y603514D01*
X1343302Y603640D01*
X1343395Y603769D01*
X1343485Y603901D01*
X1343572Y604034D01*
X1343656Y604170D01*
X1343736Y604308D01*
X1343813Y604447D01*
X1343886Y604589D01*
X1343956Y604732D01*
X1344022Y604877D01*
X1344085Y605023D01*
X1344144Y605171D01*
X1344200Y605320D01*
X1344251Y605471D01*
X1344299Y605623D01*
X1344344Y605776D01*
X1344384Y605930D01*
X1344421Y606085D01*
X1344454Y606241D01*
X1344483Y606397D01*
X1344509Y606555D01*
X1344530Y606712D01*
X1344548Y606871D01*
X1344561Y607029D01*
X1344571Y607189D01*
X1344577Y607348D01*
X1344579Y607507D01*
X1322941Y601016D02*
X1322941Y624384D01*
X1316450Y624384D01*
X1316291Y624382D01*
X1316132Y624376D01*
X1315972Y624366D01*
X1315814Y624353D01*
X1315655Y624335D01*
X1315498Y624314D01*
X1315340Y624288D01*
X1315184Y624259D01*
X1315028Y624226D01*
X1314873Y624189D01*
X1314719Y624149D01*
X1314566Y624104D01*
X1314414Y624056D01*
X1314263Y624005D01*
X1314114Y623949D01*
X1313966Y623890D01*
X1313820Y623827D01*
X1313675Y623761D01*
X1313532Y623691D01*
X1313390Y623618D01*
X1313251Y623541D01*
X1313113Y623461D01*
X1312977Y623377D01*
X1312844Y623290D01*
X1312712Y623200D01*
X1312583Y623107D01*
X1312457Y623010D01*
X1312332Y622911D01*
X1312210Y622808D01*
X1312091Y622703D01*
X1311974Y622594D01*
X1311860Y622483D01*
X1311749Y622369D01*
X1311640Y622252D01*
X1311535Y622133D01*
X1311432Y622011D01*
X1311333Y621886D01*
X1311236Y621760D01*
X1311143Y621631D01*
X1311053Y621499D01*
X1310966Y621366D01*
X1310882Y621230D01*
X1310802Y621092D01*
X1310725Y620953D01*
X1310652Y620811D01*
X1310582Y620668D01*
X1310516Y620523D01*
X1310453Y620377D01*
X1310394Y620229D01*
X1310338Y620080D01*
X1310287Y619929D01*
X1310239Y619777D01*
X1310194Y619624D01*
X1310154Y619470D01*
X1310117Y619315D01*
X1310084Y619159D01*
X1310055Y619003D01*
X1310029Y618845D01*
X1310008Y618688D01*
X1309990Y618529D01*
X1309977Y618371D01*
X1309967Y618211D01*
X1309961Y618052D01*
X1309959Y617893D01*
X1309961Y617734D01*
X1309967Y617575D01*
X1309977Y617415D01*
X1309990Y617257D01*
X1310008Y617098D01*
X1310029Y616941D01*
X1310055Y616783D01*
X1310084Y616627D01*
X1310117Y616471D01*
X1310154Y616316D01*
X1310194Y616162D01*
X1310239Y616009D01*
X1310287Y615857D01*
X1310338Y615706D01*
X1310394Y615557D01*
X1310453Y615409D01*
X1310516Y615263D01*
X1310582Y615118D01*
X1310652Y614975D01*
X1310725Y614833D01*
X1310802Y614694D01*
X1310882Y614556D01*
X1310966Y614420D01*
X1311053Y614287D01*
X1311143Y614155D01*
X1311236Y614026D01*
X1311333Y613900D01*
X1311432Y613775D01*
X1311535Y613653D01*
X1311640Y613534D01*
X1311749Y613417D01*
X1311860Y613303D01*
X1311974Y613192D01*
X1312091Y613083D01*
X1312210Y612978D01*
X1312332Y612875D01*
X1312457Y612776D01*
X1312583Y612679D01*
X1312712Y612586D01*
X1312844Y612496D01*
X1312977Y612409D01*
X1313113Y612325D01*
X1313251Y612245D01*
X1313390Y612168D01*
X1313532Y612095D01*
X1313675Y612025D01*
X1313820Y611959D01*
X1313966Y611896D01*
X1314114Y611837D01*
X1314263Y611781D01*
X1314414Y611730D01*
X1314566Y611682D01*
X1314719Y611637D01*
X1314873Y611597D01*
X1315028Y611560D01*
X1315184Y611527D01*
X1315340Y611498D01*
X1315498Y611472D01*
X1315655Y611451D01*
X1315814Y611433D01*
X1315972Y611420D01*
X1316132Y611410D01*
X1316291Y611404D01*
X1316450Y611402D01*
X1322941Y611402D01*
X1315152Y611402D02*
X1309959Y601016D01*
X1301336Y601016D02*
X1301336Y624384D01*
X1293547Y611402D01*
X1285758Y624384D01*
X1285758Y601016D01*
X1276376Y607507D02*
X1276376Y624384D01*
X1276375Y607507D02*
X1276373Y607348D01*
X1276367Y607189D01*
X1276357Y607029D01*
X1276344Y606871D01*
X1276326Y606712D01*
X1276305Y606555D01*
X1276279Y606397D01*
X1276250Y606241D01*
X1276217Y606085D01*
X1276180Y605930D01*
X1276140Y605776D01*
X1276095Y605623D01*
X1276047Y605471D01*
X1275996Y605320D01*
X1275940Y605171D01*
X1275881Y605023D01*
X1275818Y604877D01*
X1275752Y604732D01*
X1275682Y604589D01*
X1275609Y604447D01*
X1275532Y604308D01*
X1275452Y604170D01*
X1275368Y604034D01*
X1275281Y603901D01*
X1275191Y603769D01*
X1275098Y603640D01*
X1275001Y603514D01*
X1274902Y603389D01*
X1274799Y603267D01*
X1274694Y603148D01*
X1274585Y603031D01*
X1274474Y602917D01*
X1274360Y602806D01*
X1274243Y602697D01*
X1274124Y602592D01*
X1274002Y602489D01*
X1273877Y602390D01*
X1273751Y602293D01*
X1273622Y602200D01*
X1273490Y602110D01*
X1273357Y602023D01*
X1273221Y601939D01*
X1273083Y601859D01*
X1272944Y601782D01*
X1272802Y601709D01*
X1272659Y601639D01*
X1272514Y601573D01*
X1272368Y601510D01*
X1272220Y601451D01*
X1272071Y601395D01*
X1271920Y601344D01*
X1271768Y601296D01*
X1271615Y601251D01*
X1271461Y601211D01*
X1271306Y601174D01*
X1271150Y601141D01*
X1270994Y601112D01*
X1270836Y601086D01*
X1270679Y601065D01*
X1270520Y601047D01*
X1270362Y601034D01*
X1270202Y601024D01*
X1270043Y601018D01*
X1269884Y601016D01*
X1269725Y601018D01*
X1269566Y601024D01*
X1269406Y601034D01*
X1269248Y601047D01*
X1269089Y601065D01*
X1268932Y601086D01*
X1268774Y601112D01*
X1268618Y601141D01*
X1268462Y601174D01*
X1268307Y601211D01*
X1268153Y601251D01*
X1268000Y601296D01*
X1267848Y601344D01*
X1267697Y601395D01*
X1267548Y601451D01*
X1267400Y601510D01*
X1267254Y601573D01*
X1267109Y601639D01*
X1266966Y601709D01*
X1266824Y601782D01*
X1266685Y601859D01*
X1266547Y601939D01*
X1266411Y602023D01*
X1266278Y602110D01*
X1266146Y602200D01*
X1266017Y602293D01*
X1265891Y602390D01*
X1265766Y602489D01*
X1265644Y602592D01*
X1265525Y602697D01*
X1265408Y602806D01*
X1265294Y602917D01*
X1265183Y603031D01*
X1265074Y603148D01*
X1264969Y603267D01*
X1264866Y603389D01*
X1264767Y603514D01*
X1264670Y603640D01*
X1264577Y603769D01*
X1264487Y603901D01*
X1264400Y604034D01*
X1264316Y604170D01*
X1264236Y604308D01*
X1264159Y604447D01*
X1264086Y604589D01*
X1264016Y604732D01*
X1263950Y604877D01*
X1263887Y605023D01*
X1263828Y605171D01*
X1263772Y605320D01*
X1263721Y605471D01*
X1263673Y605623D01*
X1263628Y605776D01*
X1263588Y605930D01*
X1263551Y606085D01*
X1263518Y606241D01*
X1263489Y606397D01*
X1263463Y606555D01*
X1263442Y606712D01*
X1263424Y606871D01*
X1263411Y607029D01*
X1263401Y607189D01*
X1263395Y607348D01*
X1263393Y607507D01*
X1263393Y624384D01*
X1254080Y624384D02*
X1254080Y601016D01*
X1243695Y601016D01*
X1238004Y601016D02*
X1230215Y624384D01*
X1222425Y601016D01*
X1224373Y606858D02*
X1236057Y606858D01*
X1203932Y601016D02*
X1203932Y624384D01*
X1197441Y624384D01*
X1197282Y624382D01*
X1197123Y624376D01*
X1196963Y624366D01*
X1196805Y624353D01*
X1196646Y624335D01*
X1196489Y624314D01*
X1196331Y624288D01*
X1196175Y624259D01*
X1196019Y624226D01*
X1195864Y624189D01*
X1195710Y624149D01*
X1195557Y624104D01*
X1195405Y624056D01*
X1195254Y624005D01*
X1195105Y623949D01*
X1194957Y623890D01*
X1194811Y623827D01*
X1194666Y623761D01*
X1194523Y623691D01*
X1194381Y623618D01*
X1194242Y623541D01*
X1194104Y623461D01*
X1193968Y623377D01*
X1193835Y623290D01*
X1193703Y623200D01*
X1193574Y623107D01*
X1193448Y623010D01*
X1193323Y622911D01*
X1193201Y622808D01*
X1193082Y622703D01*
X1192965Y622594D01*
X1192851Y622483D01*
X1192740Y622369D01*
X1192631Y622252D01*
X1192526Y622133D01*
X1192423Y622011D01*
X1192324Y621886D01*
X1192227Y621760D01*
X1192134Y621631D01*
X1192044Y621499D01*
X1191957Y621366D01*
X1191873Y621230D01*
X1191793Y621092D01*
X1191716Y620953D01*
X1191643Y620811D01*
X1191573Y620668D01*
X1191507Y620523D01*
X1191444Y620377D01*
X1191385Y620229D01*
X1191329Y620080D01*
X1191278Y619929D01*
X1191230Y619777D01*
X1191185Y619624D01*
X1191145Y619470D01*
X1191108Y619315D01*
X1191075Y619159D01*
X1191046Y619003D01*
X1191020Y618845D01*
X1190999Y618688D01*
X1190981Y618529D01*
X1190968Y618371D01*
X1190958Y618211D01*
X1190952Y618052D01*
X1190950Y617893D01*
X1190952Y617734D01*
X1190958Y617575D01*
X1190968Y617415D01*
X1190981Y617257D01*
X1190999Y617098D01*
X1191020Y616941D01*
X1191046Y616783D01*
X1191075Y616627D01*
X1191108Y616471D01*
X1191145Y616316D01*
X1191185Y616162D01*
X1191230Y616009D01*
X1191278Y615857D01*
X1191329Y615706D01*
X1191385Y615557D01*
X1191444Y615409D01*
X1191507Y615263D01*
X1191573Y615118D01*
X1191643Y614975D01*
X1191716Y614833D01*
X1191793Y614694D01*
X1191873Y614556D01*
X1191957Y614420D01*
X1192044Y614287D01*
X1192134Y614155D01*
X1192227Y614026D01*
X1192324Y613900D01*
X1192423Y613775D01*
X1192526Y613653D01*
X1192631Y613534D01*
X1192740Y613417D01*
X1192851Y613303D01*
X1192965Y613192D01*
X1193082Y613083D01*
X1193201Y612978D01*
X1193323Y612875D01*
X1193448Y612776D01*
X1193574Y612679D01*
X1193703Y612586D01*
X1193835Y612496D01*
X1193968Y612409D01*
X1194104Y612325D01*
X1194242Y612245D01*
X1194381Y612168D01*
X1194523Y612095D01*
X1194666Y612025D01*
X1194811Y611959D01*
X1194957Y611896D01*
X1195105Y611837D01*
X1195254Y611781D01*
X1195405Y611730D01*
X1195557Y611682D01*
X1195710Y611637D01*
X1195864Y611597D01*
X1196019Y611560D01*
X1196175Y611527D01*
X1196331Y611498D01*
X1196489Y611472D01*
X1196646Y611451D01*
X1196805Y611433D01*
X1196963Y611420D01*
X1197123Y611410D01*
X1197282Y611404D01*
X1197441Y611402D01*
X1203932Y611402D01*
X1196143Y611402D02*
X1190950Y601016D01*
X1184415Y601016D02*
X1176626Y624384D01*
X1168837Y601016D01*
X1170784Y606858D02*
X1182468Y606858D01*
X1157069Y601016D02*
X1151876Y601016D01*
X1157069Y601016D02*
X1157212Y601018D01*
X1157355Y601024D01*
X1157498Y601034D01*
X1157640Y601048D01*
X1157782Y601065D01*
X1157924Y601087D01*
X1158065Y601112D01*
X1158205Y601142D01*
X1158344Y601175D01*
X1158482Y601212D01*
X1158619Y601253D01*
X1158755Y601297D01*
X1158890Y601346D01*
X1159023Y601398D01*
X1159155Y601453D01*
X1159285Y601513D01*
X1159414Y601576D01*
X1159541Y601642D01*
X1159666Y601712D01*
X1159788Y601785D01*
X1159909Y601862D01*
X1160028Y601942D01*
X1160144Y602025D01*
X1160259Y602111D01*
X1160370Y602200D01*
X1160480Y602293D01*
X1160586Y602388D01*
X1160690Y602487D01*
X1160791Y602588D01*
X1160890Y602692D01*
X1160985Y602798D01*
X1161078Y602908D01*
X1161167Y603019D01*
X1161253Y603134D01*
X1161336Y603250D01*
X1161416Y603369D01*
X1161493Y603490D01*
X1161566Y603613D01*
X1161636Y603737D01*
X1161702Y603864D01*
X1161765Y603993D01*
X1161825Y604123D01*
X1161880Y604255D01*
X1161932Y604388D01*
X1161981Y604523D01*
X1162025Y604659D01*
X1162066Y604796D01*
X1162103Y604934D01*
X1162136Y605073D01*
X1162166Y605213D01*
X1162191Y605354D01*
X1162213Y605496D01*
X1162230Y605638D01*
X1162244Y605780D01*
X1162254Y605923D01*
X1162260Y606066D01*
X1162262Y606209D01*
X1162262Y619191D01*
X1162260Y619334D01*
X1162254Y619477D01*
X1162244Y619620D01*
X1162230Y619762D01*
X1162213Y619904D01*
X1162191Y620046D01*
X1162166Y620187D01*
X1162136Y620327D01*
X1162103Y620466D01*
X1162066Y620604D01*
X1162025Y620741D01*
X1161981Y620877D01*
X1161932Y621012D01*
X1161880Y621145D01*
X1161825Y621277D01*
X1161765Y621407D01*
X1161702Y621536D01*
X1161636Y621663D01*
X1161566Y621788D01*
X1161493Y621910D01*
X1161416Y622031D01*
X1161336Y622150D01*
X1161253Y622266D01*
X1161167Y622381D01*
X1161078Y622492D01*
X1160985Y622602D01*
X1160890Y622708D01*
X1160791Y622812D01*
X1160690Y622913D01*
X1160586Y623012D01*
X1160480Y623107D01*
X1160370Y623200D01*
X1160259Y623289D01*
X1160144Y623375D01*
X1160028Y623458D01*
X1159909Y623538D01*
X1159788Y623615D01*
X1159666Y623688D01*
X1159541Y623758D01*
X1159414Y623824D01*
X1159285Y623887D01*
X1159155Y623947D01*
X1159023Y624002D01*
X1158890Y624054D01*
X1158755Y624103D01*
X1158619Y624147D01*
X1158482Y624188D01*
X1158344Y624225D01*
X1158205Y624258D01*
X1158065Y624288D01*
X1157924Y624313D01*
X1157782Y624335D01*
X1157640Y624352D01*
X1157498Y624366D01*
X1157355Y624376D01*
X1157212Y624382D01*
X1157069Y624384D01*
X1151876Y624384D01*
X1142524Y624384D02*
X1142524Y601016D01*
X1145120Y601016D02*
X1139928Y601016D01*
X1139928Y624384D02*
X1145120Y624384D01*
X1131616Y624384D02*
X1131616Y601016D01*
X1118634Y601016D02*
X1131616Y624384D01*
X1118634Y624384D02*
X1118634Y601016D01*
X1100258Y613998D02*
X1096363Y613998D01*
X1096363Y601016D01*
X1104153Y601016D01*
X1104296Y601018D01*
X1104439Y601024D01*
X1104582Y601034D01*
X1104724Y601048D01*
X1104866Y601065D01*
X1105008Y601087D01*
X1105149Y601112D01*
X1105289Y601142D01*
X1105428Y601175D01*
X1105566Y601212D01*
X1105703Y601253D01*
X1105839Y601297D01*
X1105974Y601346D01*
X1106107Y601398D01*
X1106239Y601453D01*
X1106369Y601513D01*
X1106498Y601576D01*
X1106625Y601642D01*
X1106750Y601712D01*
X1106872Y601785D01*
X1106993Y601862D01*
X1107112Y601942D01*
X1107228Y602025D01*
X1107343Y602111D01*
X1107454Y602200D01*
X1107564Y602293D01*
X1107670Y602388D01*
X1107774Y602487D01*
X1107875Y602588D01*
X1107974Y602692D01*
X1108069Y602798D01*
X1108162Y602908D01*
X1108251Y603019D01*
X1108337Y603134D01*
X1108420Y603250D01*
X1108500Y603369D01*
X1108577Y603490D01*
X1108650Y603613D01*
X1108720Y603737D01*
X1108786Y603864D01*
X1108849Y603993D01*
X1108909Y604123D01*
X1108964Y604255D01*
X1109016Y604388D01*
X1109065Y604523D01*
X1109109Y604659D01*
X1109150Y604796D01*
X1109187Y604934D01*
X1109220Y605073D01*
X1109250Y605213D01*
X1109275Y605354D01*
X1109297Y605496D01*
X1109314Y605638D01*
X1109328Y605780D01*
X1109338Y605923D01*
X1109344Y606066D01*
X1109346Y606209D01*
X1109345Y606209D02*
X1109345Y619191D01*
X1109346Y619191D02*
X1109344Y619334D01*
X1109338Y619477D01*
X1109328Y619620D01*
X1109314Y619762D01*
X1109297Y619904D01*
X1109275Y620046D01*
X1109250Y620187D01*
X1109220Y620327D01*
X1109187Y620466D01*
X1109150Y620604D01*
X1109109Y620741D01*
X1109065Y620877D01*
X1109016Y621012D01*
X1108964Y621145D01*
X1108909Y621277D01*
X1108849Y621407D01*
X1108786Y621536D01*
X1108720Y621663D01*
X1108650Y621788D01*
X1108577Y621910D01*
X1108500Y622031D01*
X1108420Y622150D01*
X1108337Y622266D01*
X1108251Y622381D01*
X1108162Y622492D01*
X1108069Y622602D01*
X1107974Y622708D01*
X1107875Y622812D01*
X1107774Y622913D01*
X1107670Y623012D01*
X1107564Y623107D01*
X1107454Y623200D01*
X1107343Y623289D01*
X1107228Y623375D01*
X1107112Y623458D01*
X1106993Y623538D01*
X1106872Y623615D01*
X1106750Y623688D01*
X1106625Y623758D01*
X1106498Y623824D01*
X1106369Y623887D01*
X1106239Y623947D01*
X1106107Y624002D01*
X1105974Y624054D01*
X1105839Y624103D01*
X1105703Y624147D01*
X1105566Y624188D01*
X1105428Y624225D01*
X1105289Y624258D01*
X1105149Y624288D01*
X1105008Y624313D01*
X1104866Y624335D01*
X1104724Y624352D01*
X1104582Y624366D01*
X1104439Y624376D01*
X1104296Y624382D01*
X1104153Y624384D01*
X1096363Y624384D01*
D12*
X910000Y79500D02*
X910000Y30000D01*
X950000Y30000D02*
X950000Y79500D01*
X909350Y60000D02*
X858000Y60000D01*
X950650Y60000D02*
X1025628Y60000D01*
X909350Y60000D02*
X884000Y63192D01*
X884000Y56808D01*
X909350Y60000D01*
X884000Y61300D01*
X884000Y58700D02*
X909350Y60000D01*
X884000Y62600D01*
X884000Y57400D02*
X909350Y60000D01*
X950650Y60000D02*
X976000Y63192D01*
X976000Y56808D01*
X950650Y60000D01*
X976000Y61300D01*
X976000Y58700D02*
X950650Y60000D01*
X976000Y62600D01*
X976000Y57400D02*
X950650Y60000D01*
D10*
X1021253Y82763D02*
X1024866Y70119D01*
X1015835Y70119D01*
X1018544Y73732D02*
X1018544Y66507D01*
X1009860Y66507D02*
X1009860Y67410D01*
X1008957Y67410D01*
X1008957Y66507D01*
X1009860Y66507D01*
X1002982Y74635D02*
X1002978Y74955D01*
X1002967Y75274D01*
X1002948Y75594D01*
X1002921Y75912D01*
X1002887Y76230D01*
X1002845Y76547D01*
X1002795Y76863D01*
X1002738Y77178D01*
X1002674Y77491D01*
X1002602Y77803D01*
X1002523Y78113D01*
X1002436Y78420D01*
X1002342Y78726D01*
X1002241Y79029D01*
X1002132Y79330D01*
X1002017Y79628D01*
X1001894Y79924D01*
X1001764Y80216D01*
X1001627Y80505D01*
X1001628Y80506D02*
X1001589Y80614D01*
X1001546Y80721D01*
X1001500Y80826D01*
X1001449Y80930D01*
X1001396Y81032D01*
X1001339Y81132D01*
X1001278Y81230D01*
X1001214Y81325D01*
X1001147Y81419D01*
X1001076Y81510D01*
X1001003Y81599D01*
X1000926Y81685D01*
X1000847Y81768D01*
X1000765Y81849D01*
X1000680Y81927D01*
X1000592Y82001D01*
X1000502Y82073D01*
X1000410Y82141D01*
X1000315Y82207D01*
X1000218Y82269D01*
X1000119Y82327D01*
X1000017Y82383D01*
X999915Y82434D01*
X999810Y82482D01*
X999704Y82527D01*
X999596Y82568D01*
X999487Y82605D01*
X999377Y82638D01*
X999265Y82667D01*
X999153Y82693D01*
X999040Y82715D01*
X998926Y82732D01*
X998812Y82746D01*
X998697Y82756D01*
X998582Y82762D01*
X998467Y82764D01*
X998467Y82763D02*
X998352Y82761D01*
X998237Y82755D01*
X998122Y82745D01*
X998008Y82731D01*
X997894Y82714D01*
X997781Y82692D01*
X997669Y82666D01*
X997557Y82637D01*
X997447Y82604D01*
X997338Y82567D01*
X997230Y82526D01*
X997124Y82481D01*
X997020Y82433D01*
X996917Y82382D01*
X996816Y82326D01*
X996716Y82268D01*
X996619Y82206D01*
X996525Y82141D01*
X996432Y82072D01*
X996342Y82000D01*
X996254Y81926D01*
X996169Y81848D01*
X996087Y81767D01*
X996008Y81684D01*
X995931Y81598D01*
X995858Y81509D01*
X995787Y81418D01*
X995720Y81324D01*
X995656Y81229D01*
X995595Y81131D01*
X995538Y81031D01*
X995485Y80929D01*
X995434Y80825D01*
X995388Y80720D01*
X995345Y80613D01*
X995306Y80505D01*
X995169Y80216D01*
X995039Y79924D01*
X994916Y79628D01*
X994801Y79330D01*
X994692Y79029D01*
X994591Y78726D01*
X994497Y78420D01*
X994410Y78113D01*
X994331Y77803D01*
X994259Y77491D01*
X994195Y77178D01*
X994138Y76863D01*
X994088Y76547D01*
X994046Y76230D01*
X994012Y75912D01*
X993985Y75594D01*
X993966Y75274D01*
X993955Y74955D01*
X993951Y74635D01*
X1002982Y74635D02*
X1002978Y74315D01*
X1002967Y73996D01*
X1002948Y73676D01*
X1002921Y73358D01*
X1002887Y73040D01*
X1002845Y72723D01*
X1002795Y72407D01*
X1002738Y72092D01*
X1002674Y71779D01*
X1002602Y71467D01*
X1002523Y71157D01*
X1002436Y70850D01*
X1002342Y70544D01*
X1002241Y70241D01*
X1002132Y69940D01*
X1002017Y69642D01*
X1001894Y69346D01*
X1001764Y69054D01*
X1001627Y68765D01*
X1001628Y68765D02*
X1001589Y68657D01*
X1001546Y68550D01*
X1001500Y68445D01*
X1001449Y68341D01*
X1001396Y68239D01*
X1001339Y68139D01*
X1001278Y68041D01*
X1001214Y67946D01*
X1001147Y67852D01*
X1001076Y67761D01*
X1001003Y67672D01*
X1000926Y67586D01*
X1000847Y67503D01*
X1000765Y67422D01*
X1000680Y67344D01*
X1000592Y67270D01*
X1000502Y67198D01*
X1000409Y67129D01*
X1000315Y67064D01*
X1000218Y67002D01*
X1000118Y66944D01*
X1000017Y66888D01*
X999915Y66837D01*
X999810Y66789D01*
X999704Y66744D01*
X999596Y66703D01*
X999487Y66666D01*
X999377Y66633D01*
X999265Y66604D01*
X999153Y66578D01*
X999040Y66556D01*
X998926Y66539D01*
X998812Y66525D01*
X998697Y66515D01*
X998582Y66509D01*
X998467Y66507D01*
X995306Y68765D02*
X995169Y69054D01*
X995039Y69346D01*
X994916Y69642D01*
X994801Y69940D01*
X994692Y70241D01*
X994591Y70544D01*
X994497Y70850D01*
X994410Y71157D01*
X994331Y71467D01*
X994259Y71779D01*
X994195Y72092D01*
X994138Y72407D01*
X994088Y72723D01*
X994046Y73040D01*
X994012Y73358D01*
X993985Y73676D01*
X993966Y73996D01*
X993955Y74315D01*
X993951Y74635D01*
X995306Y68765D02*
X995345Y68657D01*
X995388Y68550D01*
X995434Y68445D01*
X995485Y68341D01*
X995538Y68239D01*
X995596Y68139D01*
X995656Y68041D01*
X995720Y67946D01*
X995787Y67852D01*
X995858Y67761D01*
X995931Y67672D01*
X996008Y67586D01*
X996087Y67503D01*
X996169Y67422D01*
X996254Y67344D01*
X996342Y67270D01*
X996432Y67198D01*
X996525Y67129D01*
X996619Y67064D01*
X996716Y67002D01*
X996816Y66944D01*
X996917Y66888D01*
X997020Y66837D01*
X997124Y66789D01*
X997230Y66744D01*
X997338Y66703D01*
X997447Y66666D01*
X997557Y66633D01*
X997669Y66604D01*
X997781Y66578D01*
X997894Y66556D01*
X998008Y66539D01*
X998122Y66525D01*
X998237Y66515D01*
X998352Y66509D01*
X998467Y66507D01*
X1002079Y70119D02*
X994854Y79151D01*
X987351Y74635D02*
X987347Y74955D01*
X987336Y75274D01*
X987317Y75594D01*
X987290Y75912D01*
X987256Y76230D01*
X987214Y76547D01*
X987164Y76863D01*
X987107Y77178D01*
X987043Y77491D01*
X986971Y77803D01*
X986892Y78113D01*
X986805Y78420D01*
X986711Y78726D01*
X986610Y79029D01*
X986501Y79330D01*
X986386Y79628D01*
X986263Y79924D01*
X986133Y80216D01*
X985996Y80505D01*
X985996Y80506D02*
X985957Y80614D01*
X985914Y80721D01*
X985868Y80826D01*
X985817Y80930D01*
X985764Y81032D01*
X985707Y81132D01*
X985646Y81230D01*
X985582Y81325D01*
X985515Y81419D01*
X985444Y81510D01*
X985371Y81599D01*
X985294Y81685D01*
X985215Y81768D01*
X985133Y81849D01*
X985048Y81927D01*
X984960Y82001D01*
X984870Y82073D01*
X984778Y82141D01*
X984683Y82207D01*
X984586Y82269D01*
X984487Y82327D01*
X984385Y82383D01*
X984283Y82434D01*
X984178Y82482D01*
X984072Y82527D01*
X983964Y82568D01*
X983855Y82605D01*
X983745Y82638D01*
X983633Y82667D01*
X983521Y82693D01*
X983408Y82715D01*
X983294Y82732D01*
X983180Y82746D01*
X983065Y82756D01*
X982950Y82762D01*
X982835Y82764D01*
X982835Y82763D02*
X982720Y82761D01*
X982605Y82755D01*
X982490Y82745D01*
X982376Y82731D01*
X982262Y82714D01*
X982149Y82692D01*
X982037Y82666D01*
X981925Y82637D01*
X981815Y82604D01*
X981706Y82567D01*
X981598Y82526D01*
X981492Y82481D01*
X981388Y82433D01*
X981285Y82382D01*
X981184Y82326D01*
X981084Y82268D01*
X980987Y82206D01*
X980893Y82141D01*
X980800Y82072D01*
X980710Y82000D01*
X980622Y81926D01*
X980537Y81848D01*
X980455Y81767D01*
X980376Y81684D01*
X980299Y81598D01*
X980226Y81509D01*
X980155Y81418D01*
X980088Y81324D01*
X980024Y81229D01*
X979963Y81131D01*
X979906Y81031D01*
X979853Y80929D01*
X979802Y80825D01*
X979756Y80720D01*
X979713Y80613D01*
X979674Y80505D01*
X979675Y80505D02*
X979538Y80216D01*
X979408Y79924D01*
X979285Y79628D01*
X979170Y79330D01*
X979061Y79029D01*
X978960Y78726D01*
X978866Y78420D01*
X978779Y78113D01*
X978700Y77803D01*
X978628Y77491D01*
X978564Y77178D01*
X978507Y76863D01*
X978457Y76547D01*
X978415Y76230D01*
X978381Y75912D01*
X978354Y75594D01*
X978335Y75274D01*
X978324Y74955D01*
X978320Y74635D01*
X987351Y74635D02*
X987347Y74315D01*
X987336Y73996D01*
X987317Y73676D01*
X987290Y73358D01*
X987256Y73040D01*
X987214Y72723D01*
X987164Y72407D01*
X987107Y72092D01*
X987043Y71779D01*
X986971Y71467D01*
X986892Y71157D01*
X986805Y70850D01*
X986711Y70544D01*
X986610Y70241D01*
X986501Y69940D01*
X986386Y69642D01*
X986263Y69346D01*
X986133Y69054D01*
X985996Y68765D01*
X985957Y68657D01*
X985914Y68550D01*
X985868Y68445D01*
X985817Y68341D01*
X985764Y68239D01*
X985707Y68139D01*
X985646Y68041D01*
X985582Y67946D01*
X985515Y67852D01*
X985444Y67761D01*
X985371Y67672D01*
X985294Y67586D01*
X985215Y67503D01*
X985133Y67422D01*
X985048Y67344D01*
X984960Y67270D01*
X984870Y67198D01*
X984777Y67129D01*
X984683Y67064D01*
X984586Y67002D01*
X984486Y66944D01*
X984385Y66888D01*
X984283Y66837D01*
X984178Y66789D01*
X984072Y66744D01*
X983964Y66703D01*
X983855Y66666D01*
X983745Y66633D01*
X983633Y66604D01*
X983521Y66578D01*
X983408Y66556D01*
X983294Y66539D01*
X983180Y66525D01*
X983065Y66515D01*
X982950Y66509D01*
X982835Y66507D01*
X979675Y68765D02*
X979538Y69054D01*
X979408Y69346D01*
X979285Y69642D01*
X979170Y69940D01*
X979061Y70241D01*
X978960Y70544D01*
X978866Y70850D01*
X978779Y71157D01*
X978700Y71467D01*
X978628Y71779D01*
X978564Y72092D01*
X978507Y72407D01*
X978457Y72723D01*
X978415Y73040D01*
X978381Y73358D01*
X978354Y73676D01*
X978335Y73996D01*
X978324Y74315D01*
X978320Y74635D01*
X979674Y68765D02*
X979713Y68657D01*
X979756Y68550D01*
X979802Y68445D01*
X979853Y68341D01*
X979906Y68239D01*
X979964Y68139D01*
X980024Y68041D01*
X980088Y67946D01*
X980155Y67852D01*
X980226Y67761D01*
X980299Y67672D01*
X980376Y67586D01*
X980455Y67503D01*
X980537Y67422D01*
X980622Y67344D01*
X980710Y67270D01*
X980800Y67198D01*
X980893Y67129D01*
X980987Y67064D01*
X981084Y67002D01*
X981184Y66944D01*
X981285Y66888D01*
X981388Y66837D01*
X981492Y66789D01*
X981598Y66744D01*
X981706Y66703D01*
X981815Y66666D01*
X981925Y66633D01*
X982037Y66604D01*
X982149Y66578D01*
X982262Y66556D01*
X982376Y66539D01*
X982490Y66525D01*
X982605Y66515D01*
X982720Y66509D01*
X982835Y66507D01*
X986448Y70119D02*
X979223Y79151D01*
X1139238Y37018D02*
X1139238Y20762D01*
X1139238Y29793D02*
X1130207Y29793D01*
X1130207Y37018D02*
X1130207Y20762D01*
X1121696Y20762D02*
X1121696Y37018D01*
X1123503Y20762D02*
X1119890Y20762D01*
X1119890Y37018D02*
X1123503Y37018D01*
X1106864Y29793D02*
X1104155Y29793D01*
X1104155Y20762D01*
X1109574Y20762D01*
X1109692Y20764D01*
X1109810Y20770D01*
X1109928Y20779D01*
X1110045Y20793D01*
X1110162Y20810D01*
X1110279Y20831D01*
X1110394Y20856D01*
X1110509Y20885D01*
X1110623Y20918D01*
X1110735Y20954D01*
X1110846Y20994D01*
X1110956Y21037D01*
X1111065Y21084D01*
X1111172Y21134D01*
X1111277Y21189D01*
X1111380Y21246D01*
X1111481Y21307D01*
X1111581Y21371D01*
X1111678Y21438D01*
X1111773Y21508D01*
X1111865Y21582D01*
X1111956Y21658D01*
X1112043Y21738D01*
X1112128Y21820D01*
X1112210Y21905D01*
X1112290Y21992D01*
X1112366Y22083D01*
X1112440Y22175D01*
X1112510Y22270D01*
X1112577Y22367D01*
X1112641Y22467D01*
X1112702Y22568D01*
X1112759Y22671D01*
X1112814Y22776D01*
X1112864Y22883D01*
X1112911Y22992D01*
X1112954Y23102D01*
X1112994Y23213D01*
X1113030Y23325D01*
X1113063Y23439D01*
X1113092Y23554D01*
X1113117Y23669D01*
X1113138Y23786D01*
X1113155Y23903D01*
X1113169Y24020D01*
X1113178Y24138D01*
X1113184Y24256D01*
X1113186Y24374D01*
X1113186Y33406D01*
X1113184Y33524D01*
X1113178Y33642D01*
X1113169Y33760D01*
X1113155Y33877D01*
X1113138Y33994D01*
X1113117Y34111D01*
X1113092Y34226D01*
X1113063Y34341D01*
X1113030Y34455D01*
X1112994Y34567D01*
X1112954Y34678D01*
X1112911Y34788D01*
X1112864Y34897D01*
X1112814Y35004D01*
X1112759Y35109D01*
X1112702Y35212D01*
X1112641Y35313D01*
X1112577Y35413D01*
X1112510Y35510D01*
X1112440Y35605D01*
X1112366Y35697D01*
X1112290Y35788D01*
X1112210Y35875D01*
X1112128Y35960D01*
X1112043Y36042D01*
X1111956Y36122D01*
X1111865Y36198D01*
X1111773Y36272D01*
X1111678Y36342D01*
X1111581Y36409D01*
X1111481Y36473D01*
X1111380Y36534D01*
X1111277Y36591D01*
X1111172Y36646D01*
X1111065Y36696D01*
X1110956Y36743D01*
X1110846Y36786D01*
X1110735Y36826D01*
X1110623Y36862D01*
X1110509Y36895D01*
X1110394Y36924D01*
X1110279Y36949D01*
X1110162Y36970D01*
X1110045Y36987D01*
X1109928Y37001D01*
X1109810Y37010D01*
X1109692Y37016D01*
X1109574Y37018D01*
X1104155Y37018D01*
X1096513Y37018D02*
X1096513Y20762D01*
X1096513Y29793D02*
X1087482Y29793D01*
X1087482Y37018D02*
X1087482Y20762D01*
X1067508Y20762D02*
X1072927Y37018D01*
X1062090Y37018D02*
X1067508Y20762D01*
X1056392Y25278D02*
X1056392Y32502D01*
X1056393Y32502D02*
X1056391Y32635D01*
X1056385Y32767D01*
X1056375Y32899D01*
X1056362Y33031D01*
X1056344Y33163D01*
X1056323Y33293D01*
X1056298Y33424D01*
X1056269Y33553D01*
X1056236Y33681D01*
X1056200Y33809D01*
X1056160Y33935D01*
X1056116Y34060D01*
X1056068Y34184D01*
X1056017Y34306D01*
X1055962Y34427D01*
X1055904Y34546D01*
X1055842Y34664D01*
X1055777Y34779D01*
X1055708Y34893D01*
X1055637Y35004D01*
X1055561Y35113D01*
X1055483Y35220D01*
X1055402Y35325D01*
X1055317Y35427D01*
X1055230Y35527D01*
X1055140Y35624D01*
X1055047Y35719D01*
X1054951Y35810D01*
X1054853Y35899D01*
X1054752Y35985D01*
X1054648Y36068D01*
X1054542Y36148D01*
X1054434Y36224D01*
X1054324Y36298D01*
X1054211Y36368D01*
X1054097Y36435D01*
X1053980Y36498D01*
X1053862Y36558D01*
X1053742Y36615D01*
X1053620Y36668D01*
X1053497Y36717D01*
X1053373Y36763D01*
X1053247Y36805D01*
X1053120Y36843D01*
X1052992Y36878D01*
X1052863Y36909D01*
X1052734Y36936D01*
X1052603Y36959D01*
X1052472Y36979D01*
X1052340Y36994D01*
X1052208Y37006D01*
X1052076Y37014D01*
X1051943Y37018D01*
X1051811Y37018D01*
X1051678Y37014D01*
X1051546Y37006D01*
X1051414Y36994D01*
X1051282Y36979D01*
X1051151Y36959D01*
X1051020Y36936D01*
X1050891Y36909D01*
X1050762Y36878D01*
X1050634Y36843D01*
X1050507Y36805D01*
X1050381Y36763D01*
X1050257Y36717D01*
X1050134Y36668D01*
X1050012Y36615D01*
X1049892Y36558D01*
X1049774Y36498D01*
X1049657Y36435D01*
X1049543Y36368D01*
X1049430Y36298D01*
X1049320Y36224D01*
X1049212Y36148D01*
X1049106Y36068D01*
X1049002Y35985D01*
X1048901Y35899D01*
X1048803Y35810D01*
X1048707Y35719D01*
X1048614Y35624D01*
X1048524Y35527D01*
X1048437Y35427D01*
X1048352Y35325D01*
X1048271Y35220D01*
X1048193Y35113D01*
X1048117Y35004D01*
X1048046Y34893D01*
X1047977Y34779D01*
X1047912Y34664D01*
X1047850Y34546D01*
X1047792Y34427D01*
X1047737Y34306D01*
X1047686Y34184D01*
X1047638Y34060D01*
X1047594Y33935D01*
X1047554Y33809D01*
X1047518Y33681D01*
X1047485Y33553D01*
X1047456Y33424D01*
X1047431Y33293D01*
X1047410Y33163D01*
X1047392Y33031D01*
X1047379Y32899D01*
X1047369Y32767D01*
X1047363Y32635D01*
X1047361Y32502D01*
X1047361Y25278D01*
X1047363Y25145D01*
X1047369Y25013D01*
X1047379Y24881D01*
X1047392Y24749D01*
X1047410Y24617D01*
X1047431Y24487D01*
X1047456Y24356D01*
X1047485Y24227D01*
X1047518Y24099D01*
X1047554Y23971D01*
X1047594Y23845D01*
X1047638Y23720D01*
X1047686Y23596D01*
X1047737Y23474D01*
X1047792Y23353D01*
X1047850Y23234D01*
X1047912Y23116D01*
X1047977Y23001D01*
X1048046Y22887D01*
X1048117Y22776D01*
X1048193Y22667D01*
X1048271Y22560D01*
X1048352Y22455D01*
X1048437Y22353D01*
X1048524Y22253D01*
X1048614Y22156D01*
X1048707Y22061D01*
X1048803Y21970D01*
X1048901Y21881D01*
X1049002Y21795D01*
X1049106Y21712D01*
X1049212Y21632D01*
X1049320Y21556D01*
X1049430Y21482D01*
X1049543Y21412D01*
X1049657Y21345D01*
X1049774Y21282D01*
X1049892Y21222D01*
X1050012Y21165D01*
X1050134Y21112D01*
X1050257Y21063D01*
X1050381Y21017D01*
X1050507Y20975D01*
X1050634Y20937D01*
X1050762Y20902D01*
X1050891Y20871D01*
X1051020Y20844D01*
X1051151Y20821D01*
X1051282Y20801D01*
X1051414Y20786D01*
X1051546Y20774D01*
X1051678Y20766D01*
X1051811Y20762D01*
X1051943Y20762D01*
X1052076Y20766D01*
X1052208Y20774D01*
X1052340Y20786D01*
X1052472Y20801D01*
X1052603Y20821D01*
X1052734Y20844D01*
X1052863Y20871D01*
X1052992Y20902D01*
X1053120Y20937D01*
X1053247Y20975D01*
X1053373Y21017D01*
X1053497Y21063D01*
X1053620Y21112D01*
X1053742Y21165D01*
X1053862Y21222D01*
X1053980Y21282D01*
X1054097Y21345D01*
X1054211Y21412D01*
X1054324Y21482D01*
X1054434Y21556D01*
X1054542Y21632D01*
X1054648Y21712D01*
X1054752Y21795D01*
X1054853Y21881D01*
X1054951Y21970D01*
X1055047Y22061D01*
X1055140Y22156D01*
X1055230Y22253D01*
X1055317Y22353D01*
X1055402Y22455D01*
X1055483Y22560D01*
X1055561Y22667D01*
X1055637Y22776D01*
X1055708Y22887D01*
X1055777Y23001D01*
X1055842Y23116D01*
X1055904Y23234D01*
X1055962Y23353D01*
X1056017Y23474D01*
X1056068Y23596D01*
X1056116Y23720D01*
X1056160Y23845D01*
X1056200Y23971D01*
X1056236Y24099D01*
X1056269Y24227D01*
X1056298Y24356D01*
X1056323Y24487D01*
X1056344Y24617D01*
X1056362Y24749D01*
X1056375Y24881D01*
X1056385Y25013D01*
X1056391Y25145D01*
X1056393Y25278D01*
X1040210Y20762D02*
X1040210Y37018D01*
X1040210Y20762D02*
X1032986Y20762D01*
X1023741Y20762D02*
X1023741Y37018D01*
X1028256Y37018D02*
X1019225Y37018D01*
X1009152Y37018D02*
X1014570Y20762D01*
X1003733Y20762D02*
X1009152Y37018D01*
X1005088Y24826D02*
X1013216Y24826D01*
X991193Y29793D02*
X988484Y29793D01*
X988484Y20762D01*
X993902Y20762D01*
X994020Y20764D01*
X994138Y20770D01*
X994256Y20779D01*
X994373Y20793D01*
X994490Y20810D01*
X994607Y20831D01*
X994722Y20856D01*
X994837Y20885D01*
X994951Y20918D01*
X995063Y20954D01*
X995174Y20994D01*
X995284Y21037D01*
X995393Y21084D01*
X995500Y21134D01*
X995605Y21189D01*
X995708Y21246D01*
X995809Y21307D01*
X995909Y21371D01*
X996006Y21438D01*
X996101Y21508D01*
X996193Y21582D01*
X996284Y21658D01*
X996371Y21738D01*
X996456Y21820D01*
X996538Y21905D01*
X996618Y21992D01*
X996694Y22083D01*
X996768Y22175D01*
X996838Y22270D01*
X996905Y22367D01*
X996969Y22467D01*
X997030Y22568D01*
X997087Y22671D01*
X997142Y22776D01*
X997192Y22883D01*
X997239Y22992D01*
X997282Y23102D01*
X997322Y23213D01*
X997358Y23325D01*
X997391Y23439D01*
X997420Y23554D01*
X997445Y23669D01*
X997466Y23786D01*
X997483Y23903D01*
X997497Y24020D01*
X997506Y24138D01*
X997512Y24256D01*
X997514Y24374D01*
X997515Y24374D02*
X997515Y33406D01*
X997514Y33406D02*
X997512Y33524D01*
X997506Y33642D01*
X997497Y33760D01*
X997483Y33877D01*
X997466Y33994D01*
X997445Y34111D01*
X997420Y34226D01*
X997391Y34341D01*
X997358Y34455D01*
X997322Y34567D01*
X997282Y34678D01*
X997239Y34788D01*
X997192Y34897D01*
X997142Y35004D01*
X997087Y35109D01*
X997030Y35212D01*
X996969Y35313D01*
X996905Y35413D01*
X996838Y35510D01*
X996768Y35605D01*
X996694Y35697D01*
X996618Y35788D01*
X996538Y35875D01*
X996456Y35960D01*
X996371Y36042D01*
X996284Y36122D01*
X996193Y36198D01*
X996101Y36272D01*
X996006Y36342D01*
X995909Y36409D01*
X995809Y36473D01*
X995708Y36534D01*
X995605Y36591D01*
X995500Y36646D01*
X995393Y36696D01*
X995284Y36743D01*
X995174Y36786D01*
X995063Y36826D01*
X994951Y36862D01*
X994837Y36895D01*
X994722Y36924D01*
X994607Y36949D01*
X994490Y36970D01*
X994373Y36987D01*
X994256Y37001D01*
X994138Y37010D01*
X994020Y37016D01*
X993902Y37018D01*
X988484Y37018D01*
X980812Y20762D02*
X973587Y20762D01*
X980812Y20762D02*
X980812Y37018D01*
X973587Y37018D01*
X975393Y29793D02*
X980812Y29793D01*
X879238Y37018D02*
X879238Y20762D01*
X872013Y20762D01*
X866242Y25278D02*
X866242Y32502D01*
X866240Y32635D01*
X866234Y32767D01*
X866224Y32899D01*
X866211Y33031D01*
X866193Y33163D01*
X866172Y33293D01*
X866147Y33424D01*
X866118Y33553D01*
X866085Y33681D01*
X866049Y33809D01*
X866009Y33935D01*
X865965Y34060D01*
X865917Y34184D01*
X865866Y34306D01*
X865811Y34427D01*
X865753Y34546D01*
X865691Y34664D01*
X865626Y34779D01*
X865557Y34893D01*
X865486Y35004D01*
X865410Y35113D01*
X865332Y35220D01*
X865251Y35325D01*
X865166Y35427D01*
X865079Y35527D01*
X864989Y35624D01*
X864896Y35719D01*
X864800Y35810D01*
X864702Y35899D01*
X864601Y35985D01*
X864497Y36068D01*
X864391Y36148D01*
X864283Y36224D01*
X864173Y36298D01*
X864060Y36368D01*
X863946Y36435D01*
X863829Y36498D01*
X863711Y36558D01*
X863591Y36615D01*
X863469Y36668D01*
X863346Y36717D01*
X863222Y36763D01*
X863096Y36805D01*
X862969Y36843D01*
X862841Y36878D01*
X862712Y36909D01*
X862583Y36936D01*
X862452Y36959D01*
X862321Y36979D01*
X862189Y36994D01*
X862057Y37006D01*
X861925Y37014D01*
X861792Y37018D01*
X861660Y37018D01*
X861527Y37014D01*
X861395Y37006D01*
X861263Y36994D01*
X861131Y36979D01*
X861000Y36959D01*
X860869Y36936D01*
X860740Y36909D01*
X860611Y36878D01*
X860483Y36843D01*
X860356Y36805D01*
X860230Y36763D01*
X860106Y36717D01*
X859983Y36668D01*
X859861Y36615D01*
X859741Y36558D01*
X859623Y36498D01*
X859506Y36435D01*
X859392Y36368D01*
X859279Y36298D01*
X859169Y36224D01*
X859061Y36148D01*
X858955Y36068D01*
X858851Y35985D01*
X858750Y35899D01*
X858652Y35810D01*
X858556Y35719D01*
X858463Y35624D01*
X858373Y35527D01*
X858286Y35427D01*
X858201Y35325D01*
X858120Y35220D01*
X858042Y35113D01*
X857966Y35004D01*
X857895Y34893D01*
X857826Y34779D01*
X857761Y34664D01*
X857699Y34546D01*
X857641Y34427D01*
X857586Y34306D01*
X857535Y34184D01*
X857487Y34060D01*
X857443Y33935D01*
X857403Y33809D01*
X857367Y33681D01*
X857334Y33553D01*
X857305Y33424D01*
X857280Y33293D01*
X857259Y33163D01*
X857241Y33031D01*
X857228Y32899D01*
X857218Y32767D01*
X857212Y32635D01*
X857210Y32502D01*
X857211Y32502D02*
X857211Y25278D01*
X857210Y25278D02*
X857212Y25145D01*
X857218Y25013D01*
X857228Y24881D01*
X857241Y24749D01*
X857259Y24617D01*
X857280Y24487D01*
X857305Y24356D01*
X857334Y24227D01*
X857367Y24099D01*
X857403Y23971D01*
X857443Y23845D01*
X857487Y23720D01*
X857535Y23596D01*
X857586Y23474D01*
X857641Y23353D01*
X857699Y23234D01*
X857761Y23116D01*
X857826Y23001D01*
X857895Y22887D01*
X857966Y22776D01*
X858042Y22667D01*
X858120Y22560D01*
X858201Y22455D01*
X858286Y22353D01*
X858373Y22253D01*
X858463Y22156D01*
X858556Y22061D01*
X858652Y21970D01*
X858750Y21881D01*
X858851Y21795D01*
X858955Y21712D01*
X859061Y21632D01*
X859169Y21556D01*
X859279Y21482D01*
X859392Y21412D01*
X859506Y21345D01*
X859623Y21282D01*
X859741Y21222D01*
X859861Y21165D01*
X859983Y21112D01*
X860106Y21063D01*
X860230Y21017D01*
X860356Y20975D01*
X860483Y20937D01*
X860611Y20902D01*
X860740Y20871D01*
X860869Y20844D01*
X861000Y20821D01*
X861131Y20801D01*
X861263Y20786D01*
X861395Y20774D01*
X861527Y20766D01*
X861660Y20762D01*
X861792Y20762D01*
X861925Y20766D01*
X862057Y20774D01*
X862189Y20786D01*
X862321Y20801D01*
X862452Y20821D01*
X862583Y20844D01*
X862712Y20871D01*
X862841Y20902D01*
X862969Y20937D01*
X863096Y20975D01*
X863222Y21017D01*
X863346Y21063D01*
X863469Y21112D01*
X863591Y21165D01*
X863711Y21222D01*
X863829Y21282D01*
X863946Y21345D01*
X864060Y21412D01*
X864173Y21482D01*
X864283Y21556D01*
X864391Y21632D01*
X864497Y21712D01*
X864601Y21795D01*
X864702Y21881D01*
X864800Y21970D01*
X864896Y22061D01*
X864989Y22156D01*
X865079Y22253D01*
X865166Y22353D01*
X865251Y22455D01*
X865332Y22560D01*
X865410Y22667D01*
X865486Y22776D01*
X865557Y22887D01*
X865626Y23001D01*
X865691Y23116D01*
X865753Y23234D01*
X865811Y23353D01*
X865866Y23474D01*
X865917Y23596D01*
X865965Y23720D01*
X866009Y23845D01*
X866049Y23971D01*
X866085Y24099D01*
X866118Y24227D01*
X866147Y24356D01*
X866172Y24487D01*
X866193Y24617D01*
X866211Y24749D01*
X866224Y24881D01*
X866234Y25013D01*
X866240Y25145D01*
X866242Y25278D01*
X851236Y37018D02*
X847623Y20762D01*
X844011Y31599D01*
X840398Y20762D01*
X836786Y37018D01*
X823377Y37018D02*
X817959Y20762D01*
X812540Y37018D01*
X806843Y32502D02*
X806843Y25278D01*
X806844Y32502D02*
X806842Y32635D01*
X806836Y32767D01*
X806826Y32899D01*
X806813Y33031D01*
X806795Y33163D01*
X806774Y33293D01*
X806749Y33424D01*
X806720Y33553D01*
X806687Y33681D01*
X806651Y33809D01*
X806611Y33935D01*
X806567Y34060D01*
X806519Y34184D01*
X806468Y34306D01*
X806413Y34427D01*
X806355Y34546D01*
X806293Y34664D01*
X806228Y34779D01*
X806159Y34893D01*
X806088Y35004D01*
X806012Y35113D01*
X805934Y35220D01*
X805853Y35325D01*
X805768Y35427D01*
X805681Y35527D01*
X805591Y35624D01*
X805498Y35719D01*
X805402Y35810D01*
X805304Y35899D01*
X805203Y35985D01*
X805099Y36068D01*
X804993Y36148D01*
X804885Y36224D01*
X804775Y36298D01*
X804662Y36368D01*
X804548Y36435D01*
X804431Y36498D01*
X804313Y36558D01*
X804193Y36615D01*
X804071Y36668D01*
X803948Y36717D01*
X803824Y36763D01*
X803698Y36805D01*
X803571Y36843D01*
X803443Y36878D01*
X803314Y36909D01*
X803185Y36936D01*
X803054Y36959D01*
X802923Y36979D01*
X802791Y36994D01*
X802659Y37006D01*
X802527Y37014D01*
X802394Y37018D01*
X802262Y37018D01*
X802129Y37014D01*
X801997Y37006D01*
X801865Y36994D01*
X801733Y36979D01*
X801602Y36959D01*
X801471Y36936D01*
X801342Y36909D01*
X801213Y36878D01*
X801085Y36843D01*
X800958Y36805D01*
X800832Y36763D01*
X800708Y36717D01*
X800585Y36668D01*
X800463Y36615D01*
X800343Y36558D01*
X800225Y36498D01*
X800108Y36435D01*
X799994Y36368D01*
X799881Y36298D01*
X799771Y36224D01*
X799663Y36148D01*
X799557Y36068D01*
X799453Y35985D01*
X799352Y35899D01*
X799254Y35810D01*
X799158Y35719D01*
X799065Y35624D01*
X798975Y35527D01*
X798888Y35427D01*
X798803Y35325D01*
X798722Y35220D01*
X798644Y35113D01*
X798568Y35004D01*
X798497Y34893D01*
X798428Y34779D01*
X798363Y34664D01*
X798301Y34546D01*
X798243Y34427D01*
X798188Y34306D01*
X798137Y34184D01*
X798089Y34060D01*
X798045Y33935D01*
X798005Y33809D01*
X797969Y33681D01*
X797936Y33553D01*
X797907Y33424D01*
X797882Y33293D01*
X797861Y33163D01*
X797843Y33031D01*
X797830Y32899D01*
X797820Y32767D01*
X797814Y32635D01*
X797812Y32502D01*
X797812Y25278D01*
X797814Y25145D01*
X797820Y25013D01*
X797830Y24881D01*
X797843Y24749D01*
X797861Y24617D01*
X797882Y24487D01*
X797907Y24356D01*
X797936Y24227D01*
X797969Y24099D01*
X798005Y23971D01*
X798045Y23845D01*
X798089Y23720D01*
X798137Y23596D01*
X798188Y23474D01*
X798243Y23353D01*
X798301Y23234D01*
X798363Y23116D01*
X798428Y23001D01*
X798497Y22887D01*
X798568Y22776D01*
X798644Y22667D01*
X798722Y22560D01*
X798803Y22455D01*
X798888Y22353D01*
X798975Y22253D01*
X799065Y22156D01*
X799158Y22061D01*
X799254Y21970D01*
X799352Y21881D01*
X799453Y21795D01*
X799557Y21712D01*
X799663Y21632D01*
X799771Y21556D01*
X799881Y21482D01*
X799994Y21412D01*
X800108Y21345D01*
X800225Y21282D01*
X800343Y21222D01*
X800463Y21165D01*
X800585Y21112D01*
X800708Y21063D01*
X800832Y21017D01*
X800958Y20975D01*
X801085Y20937D01*
X801213Y20902D01*
X801342Y20871D01*
X801471Y20844D01*
X801602Y20821D01*
X801733Y20801D01*
X801865Y20786D01*
X801997Y20774D01*
X802129Y20766D01*
X802262Y20762D01*
X802394Y20762D01*
X802527Y20766D01*
X802659Y20774D01*
X802791Y20786D01*
X802923Y20801D01*
X803054Y20821D01*
X803185Y20844D01*
X803314Y20871D01*
X803443Y20902D01*
X803571Y20937D01*
X803698Y20975D01*
X803824Y21017D01*
X803948Y21063D01*
X804071Y21112D01*
X804193Y21165D01*
X804313Y21222D01*
X804431Y21282D01*
X804548Y21345D01*
X804662Y21412D01*
X804775Y21482D01*
X804885Y21556D01*
X804993Y21632D01*
X805099Y21712D01*
X805203Y21795D01*
X805304Y21881D01*
X805402Y21970D01*
X805498Y22061D01*
X805591Y22156D01*
X805681Y22253D01*
X805768Y22353D01*
X805853Y22455D01*
X805934Y22560D01*
X806012Y22667D01*
X806088Y22776D01*
X806159Y22887D01*
X806228Y23001D01*
X806293Y23116D01*
X806355Y23234D01*
X806413Y23353D01*
X806468Y23474D01*
X806519Y23596D01*
X806567Y23720D01*
X806611Y23845D01*
X806651Y23971D01*
X806687Y24099D01*
X806720Y24227D01*
X806749Y24356D01*
X806774Y24487D01*
X806795Y24617D01*
X806813Y24749D01*
X806826Y24881D01*
X806836Y25013D01*
X806842Y25145D01*
X806844Y25278D01*
X790661Y20762D02*
X790661Y37018D01*
X790661Y20762D02*
X783436Y20762D01*
X774191Y20762D02*
X774191Y37018D01*
X769676Y37018D02*
X778707Y37018D01*
X759602Y37018D02*
X765021Y20762D01*
X754184Y20762D02*
X759602Y37018D01*
X755538Y24826D02*
X763666Y24826D01*
X741644Y29793D02*
X738934Y29793D01*
X738934Y20762D01*
X744353Y20762D01*
X744471Y20764D01*
X744589Y20770D01*
X744707Y20779D01*
X744824Y20793D01*
X744941Y20810D01*
X745058Y20831D01*
X745173Y20856D01*
X745288Y20885D01*
X745402Y20918D01*
X745514Y20954D01*
X745625Y20994D01*
X745735Y21037D01*
X745844Y21084D01*
X745951Y21134D01*
X746056Y21189D01*
X746159Y21246D01*
X746260Y21307D01*
X746360Y21371D01*
X746457Y21438D01*
X746552Y21508D01*
X746644Y21582D01*
X746735Y21658D01*
X746822Y21738D01*
X746907Y21820D01*
X746989Y21905D01*
X747069Y21992D01*
X747145Y22083D01*
X747219Y22175D01*
X747289Y22270D01*
X747356Y22367D01*
X747420Y22467D01*
X747481Y22568D01*
X747538Y22671D01*
X747593Y22776D01*
X747643Y22883D01*
X747690Y22992D01*
X747733Y23102D01*
X747773Y23213D01*
X747809Y23325D01*
X747842Y23439D01*
X747871Y23554D01*
X747896Y23669D01*
X747917Y23786D01*
X747934Y23903D01*
X747948Y24020D01*
X747957Y24138D01*
X747963Y24256D01*
X747965Y24374D01*
X747965Y33406D01*
X747963Y33524D01*
X747957Y33642D01*
X747948Y33760D01*
X747934Y33877D01*
X747917Y33994D01*
X747896Y34111D01*
X747871Y34226D01*
X747842Y34341D01*
X747809Y34455D01*
X747773Y34567D01*
X747733Y34678D01*
X747690Y34788D01*
X747643Y34897D01*
X747593Y35004D01*
X747538Y35109D01*
X747481Y35212D01*
X747420Y35313D01*
X747356Y35413D01*
X747289Y35510D01*
X747219Y35605D01*
X747145Y35697D01*
X747069Y35788D01*
X746989Y35875D01*
X746907Y35960D01*
X746822Y36042D01*
X746735Y36122D01*
X746644Y36198D01*
X746552Y36272D01*
X746457Y36342D01*
X746360Y36409D01*
X746260Y36473D01*
X746159Y36534D01*
X746056Y36591D01*
X745951Y36646D01*
X745844Y36696D01*
X745735Y36743D01*
X745625Y36786D01*
X745514Y36826D01*
X745402Y36862D01*
X745288Y36895D01*
X745173Y36924D01*
X745058Y36949D01*
X744941Y36970D01*
X744824Y36987D01*
X744707Y37001D01*
X744589Y37010D01*
X744471Y37016D01*
X744353Y37018D01*
X738934Y37018D01*
X731262Y20762D02*
X724037Y20762D01*
X731262Y20762D02*
X731262Y37018D01*
X724037Y37018D01*
X725844Y29793D02*
X731262Y29793D01*
X1359238Y570762D02*
X1359238Y587018D01*
X1354722Y587018D01*
X1354589Y587016D01*
X1354457Y587010D01*
X1354325Y587000D01*
X1354193Y586987D01*
X1354061Y586969D01*
X1353931Y586948D01*
X1353800Y586923D01*
X1353671Y586894D01*
X1353543Y586861D01*
X1353415Y586825D01*
X1353289Y586785D01*
X1353164Y586741D01*
X1353040Y586693D01*
X1352918Y586642D01*
X1352797Y586587D01*
X1352678Y586529D01*
X1352560Y586467D01*
X1352445Y586402D01*
X1352331Y586333D01*
X1352220Y586262D01*
X1352111Y586186D01*
X1352004Y586108D01*
X1351899Y586027D01*
X1351797Y585942D01*
X1351697Y585855D01*
X1351600Y585765D01*
X1351505Y585672D01*
X1351414Y585576D01*
X1351325Y585478D01*
X1351239Y585377D01*
X1351156Y585273D01*
X1351076Y585167D01*
X1351000Y585059D01*
X1350926Y584949D01*
X1350856Y584836D01*
X1350789Y584722D01*
X1350726Y584605D01*
X1350666Y584487D01*
X1350609Y584367D01*
X1350556Y584245D01*
X1350507Y584122D01*
X1350461Y583998D01*
X1350419Y583872D01*
X1350381Y583745D01*
X1350346Y583617D01*
X1350315Y583488D01*
X1350288Y583359D01*
X1350265Y583228D01*
X1350245Y583097D01*
X1350230Y582965D01*
X1350218Y582833D01*
X1350210Y582701D01*
X1350206Y582568D01*
X1350206Y582436D01*
X1350210Y582303D01*
X1350218Y582171D01*
X1350230Y582039D01*
X1350245Y581907D01*
X1350265Y581776D01*
X1350288Y581645D01*
X1350315Y581516D01*
X1350346Y581387D01*
X1350381Y581259D01*
X1350419Y581132D01*
X1350461Y581006D01*
X1350507Y580882D01*
X1350556Y580759D01*
X1350609Y580637D01*
X1350666Y580517D01*
X1350726Y580399D01*
X1350789Y580282D01*
X1350856Y580168D01*
X1350926Y580055D01*
X1351000Y579945D01*
X1351076Y579837D01*
X1351156Y579731D01*
X1351239Y579627D01*
X1351325Y579526D01*
X1351414Y579428D01*
X1351505Y579332D01*
X1351600Y579239D01*
X1351697Y579149D01*
X1351797Y579062D01*
X1351899Y578977D01*
X1352004Y578896D01*
X1352111Y578818D01*
X1352220Y578742D01*
X1352331Y578671D01*
X1352445Y578602D01*
X1352560Y578537D01*
X1352678Y578475D01*
X1352797Y578417D01*
X1352918Y578362D01*
X1353040Y578311D01*
X1353164Y578263D01*
X1353289Y578219D01*
X1353415Y578179D01*
X1353543Y578143D01*
X1353671Y578110D01*
X1353800Y578081D01*
X1353931Y578056D01*
X1354061Y578035D01*
X1354193Y578017D01*
X1354325Y578004D01*
X1354457Y577994D01*
X1354589Y577988D01*
X1354722Y577986D01*
X1354722Y577987D02*
X1359238Y577987D01*
X1353819Y577987D02*
X1350207Y570762D01*
X1343148Y570762D02*
X1335923Y570762D01*
X1343148Y570762D02*
X1343148Y587018D01*
X1335923Y587018D01*
X1337729Y579793D02*
X1343148Y579793D01*
X1331054Y587018D02*
X1325636Y570762D01*
X1320217Y587018D01*
X1314520Y570762D02*
X1310005Y570762D01*
X1309872Y570764D01*
X1309740Y570770D01*
X1309608Y570780D01*
X1309476Y570793D01*
X1309344Y570811D01*
X1309214Y570832D01*
X1309083Y570857D01*
X1308954Y570886D01*
X1308826Y570919D01*
X1308698Y570955D01*
X1308572Y570995D01*
X1308447Y571039D01*
X1308323Y571087D01*
X1308201Y571138D01*
X1308080Y571193D01*
X1307961Y571251D01*
X1307843Y571313D01*
X1307728Y571378D01*
X1307614Y571447D01*
X1307503Y571518D01*
X1307394Y571594D01*
X1307287Y571672D01*
X1307182Y571753D01*
X1307080Y571838D01*
X1306980Y571925D01*
X1306883Y572015D01*
X1306788Y572108D01*
X1306697Y572204D01*
X1306608Y572302D01*
X1306522Y572403D01*
X1306439Y572507D01*
X1306359Y572613D01*
X1306283Y572721D01*
X1306209Y572831D01*
X1306139Y572944D01*
X1306072Y573058D01*
X1306009Y573175D01*
X1305949Y573293D01*
X1305892Y573413D01*
X1305839Y573535D01*
X1305790Y573658D01*
X1305744Y573782D01*
X1305702Y573908D01*
X1305664Y574035D01*
X1305629Y574163D01*
X1305598Y574292D01*
X1305571Y574421D01*
X1305548Y574552D01*
X1305528Y574683D01*
X1305513Y574815D01*
X1305501Y574947D01*
X1305493Y575079D01*
X1305489Y575212D01*
X1305489Y575344D01*
X1305493Y575477D01*
X1305501Y575609D01*
X1305513Y575741D01*
X1305528Y575873D01*
X1305548Y576004D01*
X1305571Y576135D01*
X1305598Y576264D01*
X1305629Y576393D01*
X1305664Y576521D01*
X1305702Y576648D01*
X1305744Y576774D01*
X1305790Y576898D01*
X1305839Y577021D01*
X1305892Y577143D01*
X1305949Y577263D01*
X1306009Y577381D01*
X1306072Y577498D01*
X1306139Y577612D01*
X1306209Y577725D01*
X1306283Y577835D01*
X1306359Y577943D01*
X1306439Y578049D01*
X1306522Y578153D01*
X1306608Y578254D01*
X1306697Y578352D01*
X1306788Y578448D01*
X1306883Y578541D01*
X1306980Y578631D01*
X1307080Y578718D01*
X1307182Y578803D01*
X1307287Y578884D01*
X1307394Y578962D01*
X1307503Y579038D01*
X1307614Y579109D01*
X1307728Y579178D01*
X1307843Y579243D01*
X1307961Y579305D01*
X1308080Y579363D01*
X1308201Y579418D01*
X1308323Y579469D01*
X1308447Y579517D01*
X1308572Y579561D01*
X1308698Y579601D01*
X1308826Y579637D01*
X1308954Y579670D01*
X1309083Y579699D01*
X1309214Y579724D01*
X1309344Y579745D01*
X1309476Y579763D01*
X1309608Y579776D01*
X1309740Y579786D01*
X1309872Y579792D01*
X1310005Y579794D01*
X1309101Y587018D02*
X1314520Y587018D01*
X1309101Y587018D02*
X1308982Y587016D01*
X1308862Y587010D01*
X1308743Y587000D01*
X1308625Y586986D01*
X1308506Y586969D01*
X1308389Y586947D01*
X1308272Y586922D01*
X1308157Y586892D01*
X1308042Y586859D01*
X1307928Y586822D01*
X1307816Y586782D01*
X1307705Y586737D01*
X1307596Y586689D01*
X1307488Y586638D01*
X1307382Y586583D01*
X1307278Y586524D01*
X1307176Y586462D01*
X1307076Y586397D01*
X1306978Y586328D01*
X1306882Y586256D01*
X1306789Y586181D01*
X1306699Y586104D01*
X1306611Y586023D01*
X1306526Y585939D01*
X1306444Y585852D01*
X1306364Y585763D01*
X1306288Y585671D01*
X1306214Y585577D01*
X1306144Y585480D01*
X1306077Y585382D01*
X1306013Y585281D01*
X1305953Y585177D01*
X1305896Y585072D01*
X1305843Y584965D01*
X1305793Y584857D01*
X1305747Y584747D01*
X1305705Y584635D01*
X1305666Y584522D01*
X1305631Y584408D01*
X1305600Y584293D01*
X1305572Y584176D01*
X1305549Y584059D01*
X1305529Y583942D01*
X1305513Y583823D01*
X1305501Y583704D01*
X1305493Y583585D01*
X1305489Y583466D01*
X1305489Y583346D01*
X1305493Y583227D01*
X1305501Y583108D01*
X1305513Y582989D01*
X1305529Y582870D01*
X1305549Y582753D01*
X1305572Y582636D01*
X1305600Y582519D01*
X1305631Y582404D01*
X1305666Y582290D01*
X1305705Y582177D01*
X1305747Y582065D01*
X1305793Y581955D01*
X1305843Y581847D01*
X1305896Y581740D01*
X1305953Y581635D01*
X1306013Y581531D01*
X1306077Y581430D01*
X1306144Y581332D01*
X1306214Y581235D01*
X1306288Y581141D01*
X1306364Y581049D01*
X1306444Y580960D01*
X1306526Y580873D01*
X1306611Y580789D01*
X1306699Y580708D01*
X1306789Y580631D01*
X1306882Y580556D01*
X1306978Y580484D01*
X1307076Y580415D01*
X1307176Y580350D01*
X1307278Y580288D01*
X1307382Y580229D01*
X1307488Y580174D01*
X1307596Y580123D01*
X1307705Y580075D01*
X1307816Y580030D01*
X1307928Y579990D01*
X1308042Y579953D01*
X1308157Y579920D01*
X1308272Y579890D01*
X1308389Y579865D01*
X1308506Y579843D01*
X1308625Y579826D01*
X1308743Y579812D01*
X1308862Y579802D01*
X1308982Y579796D01*
X1309101Y579794D01*
X1309101Y579793D02*
X1312714Y579793D01*
X1299568Y570762D02*
X1298664Y570762D01*
X1299568Y570762D02*
X1299568Y571665D01*
X1298664Y571665D01*
X1298664Y570762D01*
X1300019Y567150D01*
X1283568Y579793D02*
X1279052Y579793D01*
X1279052Y579794D02*
X1278919Y579792D01*
X1278787Y579786D01*
X1278655Y579776D01*
X1278523Y579763D01*
X1278391Y579745D01*
X1278261Y579724D01*
X1278130Y579699D01*
X1278001Y579670D01*
X1277873Y579637D01*
X1277745Y579601D01*
X1277619Y579561D01*
X1277494Y579517D01*
X1277370Y579469D01*
X1277248Y579418D01*
X1277127Y579363D01*
X1277008Y579305D01*
X1276890Y579243D01*
X1276775Y579178D01*
X1276661Y579109D01*
X1276550Y579038D01*
X1276441Y578962D01*
X1276334Y578884D01*
X1276229Y578803D01*
X1276127Y578718D01*
X1276027Y578631D01*
X1275930Y578541D01*
X1275835Y578448D01*
X1275744Y578352D01*
X1275655Y578254D01*
X1275569Y578153D01*
X1275486Y578049D01*
X1275406Y577943D01*
X1275330Y577835D01*
X1275256Y577725D01*
X1275186Y577612D01*
X1275119Y577498D01*
X1275056Y577381D01*
X1274996Y577263D01*
X1274939Y577143D01*
X1274886Y577021D01*
X1274837Y576898D01*
X1274791Y576774D01*
X1274749Y576648D01*
X1274711Y576521D01*
X1274676Y576393D01*
X1274645Y576264D01*
X1274618Y576135D01*
X1274595Y576004D01*
X1274575Y575873D01*
X1274560Y575741D01*
X1274548Y575609D01*
X1274540Y575477D01*
X1274536Y575344D01*
X1274536Y575212D01*
X1274540Y575079D01*
X1274548Y574947D01*
X1274560Y574815D01*
X1274575Y574683D01*
X1274595Y574552D01*
X1274618Y574421D01*
X1274645Y574292D01*
X1274676Y574163D01*
X1274711Y574035D01*
X1274749Y573908D01*
X1274791Y573782D01*
X1274837Y573658D01*
X1274886Y573535D01*
X1274939Y573413D01*
X1274996Y573293D01*
X1275056Y573175D01*
X1275119Y573058D01*
X1275186Y572944D01*
X1275256Y572831D01*
X1275330Y572721D01*
X1275406Y572613D01*
X1275486Y572507D01*
X1275569Y572403D01*
X1275655Y572302D01*
X1275744Y572204D01*
X1275835Y572108D01*
X1275930Y572015D01*
X1276027Y571925D01*
X1276127Y571838D01*
X1276229Y571753D01*
X1276334Y571672D01*
X1276441Y571594D01*
X1276550Y571518D01*
X1276661Y571447D01*
X1276775Y571378D01*
X1276890Y571313D01*
X1277008Y571251D01*
X1277127Y571193D01*
X1277248Y571138D01*
X1277370Y571087D01*
X1277494Y571039D01*
X1277619Y570995D01*
X1277745Y570955D01*
X1277873Y570919D01*
X1278001Y570886D01*
X1278130Y570857D01*
X1278261Y570832D01*
X1278391Y570811D01*
X1278523Y570793D01*
X1278655Y570780D01*
X1278787Y570770D01*
X1278919Y570764D01*
X1279052Y570762D01*
X1283568Y570762D01*
X1283568Y587018D01*
X1279052Y587018D01*
X1278933Y587016D01*
X1278813Y587010D01*
X1278694Y587000D01*
X1278576Y586986D01*
X1278457Y586969D01*
X1278340Y586947D01*
X1278223Y586922D01*
X1278108Y586892D01*
X1277993Y586859D01*
X1277879Y586822D01*
X1277767Y586782D01*
X1277656Y586737D01*
X1277547Y586689D01*
X1277439Y586638D01*
X1277333Y586583D01*
X1277229Y586524D01*
X1277127Y586462D01*
X1277027Y586397D01*
X1276929Y586328D01*
X1276833Y586256D01*
X1276740Y586181D01*
X1276650Y586104D01*
X1276562Y586023D01*
X1276477Y585939D01*
X1276395Y585852D01*
X1276315Y585763D01*
X1276239Y585671D01*
X1276165Y585577D01*
X1276095Y585480D01*
X1276028Y585382D01*
X1275964Y585281D01*
X1275904Y585177D01*
X1275847Y585072D01*
X1275794Y584965D01*
X1275744Y584857D01*
X1275698Y584747D01*
X1275656Y584635D01*
X1275617Y584522D01*
X1275582Y584408D01*
X1275551Y584293D01*
X1275523Y584176D01*
X1275500Y584059D01*
X1275480Y583942D01*
X1275464Y583823D01*
X1275452Y583704D01*
X1275444Y583585D01*
X1275440Y583466D01*
X1275440Y583346D01*
X1275444Y583227D01*
X1275452Y583108D01*
X1275464Y582989D01*
X1275480Y582870D01*
X1275500Y582753D01*
X1275523Y582636D01*
X1275551Y582519D01*
X1275582Y582404D01*
X1275617Y582290D01*
X1275656Y582177D01*
X1275698Y582065D01*
X1275744Y581955D01*
X1275794Y581847D01*
X1275847Y581740D01*
X1275904Y581635D01*
X1275964Y581531D01*
X1276028Y581430D01*
X1276095Y581332D01*
X1276165Y581235D01*
X1276239Y581141D01*
X1276315Y581049D01*
X1276395Y580960D01*
X1276477Y580873D01*
X1276562Y580789D01*
X1276650Y580708D01*
X1276740Y580631D01*
X1276833Y580556D01*
X1276929Y580484D01*
X1277027Y580415D01*
X1277127Y580350D01*
X1277229Y580288D01*
X1277333Y580229D01*
X1277439Y580174D01*
X1277547Y580123D01*
X1277656Y580075D01*
X1277767Y580030D01*
X1277879Y579990D01*
X1277993Y579953D01*
X1278108Y579920D01*
X1278223Y579890D01*
X1278340Y579865D01*
X1278457Y579843D01*
X1278576Y579826D01*
X1278694Y579812D01*
X1278813Y579802D01*
X1278933Y579796D01*
X1279052Y579794D01*
X1268147Y575278D02*
X1268147Y587018D01*
X1268148Y575278D02*
X1268146Y575145D01*
X1268140Y575013D01*
X1268130Y574881D01*
X1268117Y574749D01*
X1268099Y574617D01*
X1268078Y574487D01*
X1268053Y574356D01*
X1268024Y574227D01*
X1267991Y574099D01*
X1267955Y573971D01*
X1267915Y573845D01*
X1267871Y573720D01*
X1267823Y573596D01*
X1267772Y573474D01*
X1267717Y573353D01*
X1267659Y573234D01*
X1267597Y573116D01*
X1267532Y573001D01*
X1267463Y572887D01*
X1267392Y572776D01*
X1267316Y572667D01*
X1267238Y572560D01*
X1267157Y572455D01*
X1267072Y572353D01*
X1266985Y572253D01*
X1266895Y572156D01*
X1266802Y572061D01*
X1266706Y571970D01*
X1266608Y571881D01*
X1266507Y571795D01*
X1266403Y571712D01*
X1266297Y571632D01*
X1266189Y571556D01*
X1266079Y571482D01*
X1265966Y571412D01*
X1265852Y571345D01*
X1265735Y571282D01*
X1265617Y571222D01*
X1265497Y571165D01*
X1265375Y571112D01*
X1265252Y571063D01*
X1265128Y571017D01*
X1265002Y570975D01*
X1264875Y570937D01*
X1264747Y570902D01*
X1264618Y570871D01*
X1264489Y570844D01*
X1264358Y570821D01*
X1264227Y570801D01*
X1264095Y570786D01*
X1263963Y570774D01*
X1263831Y570766D01*
X1263698Y570762D01*
X1263566Y570762D01*
X1263433Y570766D01*
X1263301Y570774D01*
X1263169Y570786D01*
X1263037Y570801D01*
X1262906Y570821D01*
X1262775Y570844D01*
X1262646Y570871D01*
X1262517Y570902D01*
X1262389Y570937D01*
X1262262Y570975D01*
X1262136Y571017D01*
X1262012Y571063D01*
X1261889Y571112D01*
X1261767Y571165D01*
X1261647Y571222D01*
X1261529Y571282D01*
X1261412Y571345D01*
X1261298Y571412D01*
X1261185Y571482D01*
X1261075Y571556D01*
X1260967Y571632D01*
X1260861Y571712D01*
X1260757Y571795D01*
X1260656Y571881D01*
X1260558Y571970D01*
X1260462Y572061D01*
X1260369Y572156D01*
X1260279Y572253D01*
X1260192Y572353D01*
X1260107Y572455D01*
X1260026Y572560D01*
X1259948Y572667D01*
X1259872Y572776D01*
X1259801Y572887D01*
X1259732Y573001D01*
X1259667Y573116D01*
X1259605Y573234D01*
X1259547Y573353D01*
X1259492Y573474D01*
X1259441Y573596D01*
X1259393Y573720D01*
X1259349Y573845D01*
X1259309Y573971D01*
X1259273Y574099D01*
X1259240Y574227D01*
X1259211Y574356D01*
X1259186Y574487D01*
X1259165Y574617D01*
X1259147Y574749D01*
X1259134Y574881D01*
X1259124Y575013D01*
X1259118Y575145D01*
X1259116Y575278D01*
X1259116Y587018D01*
X1250606Y587018D02*
X1250606Y570762D01*
X1252412Y570762D02*
X1248800Y570762D01*
X1248800Y587018D02*
X1252412Y587018D01*
X1242066Y587018D02*
X1242066Y570762D01*
X1234841Y570762D01*
X1228548Y570762D02*
X1228548Y587018D01*
X1224033Y587018D01*
X1223902Y587016D01*
X1223770Y587010D01*
X1223639Y587001D01*
X1223509Y586987D01*
X1223378Y586970D01*
X1223249Y586949D01*
X1223120Y586925D01*
X1222992Y586896D01*
X1222864Y586864D01*
X1222738Y586828D01*
X1222613Y586789D01*
X1222488Y586746D01*
X1222366Y586699D01*
X1222244Y586649D01*
X1222124Y586595D01*
X1222006Y586538D01*
X1221890Y586477D01*
X1221775Y586413D01*
X1221662Y586346D01*
X1221551Y586275D01*
X1221443Y586201D01*
X1221336Y586124D01*
X1221232Y586044D01*
X1221130Y585961D01*
X1221031Y585876D01*
X1220934Y585787D01*
X1220840Y585695D01*
X1220748Y585601D01*
X1220659Y585504D01*
X1220574Y585405D01*
X1220491Y585303D01*
X1220411Y585199D01*
X1220334Y585092D01*
X1220260Y584984D01*
X1220189Y584873D01*
X1220122Y584760D01*
X1220058Y584645D01*
X1219997Y584529D01*
X1219940Y584411D01*
X1219886Y584291D01*
X1219836Y584169D01*
X1219789Y584047D01*
X1219746Y583922D01*
X1219707Y583797D01*
X1219671Y583671D01*
X1219639Y583543D01*
X1219610Y583415D01*
X1219586Y583286D01*
X1219565Y583157D01*
X1219548Y583026D01*
X1219534Y582896D01*
X1219525Y582765D01*
X1219519Y582633D01*
X1219517Y582502D01*
X1219517Y575278D01*
X1219519Y575147D01*
X1219525Y575015D01*
X1219534Y574884D01*
X1219548Y574754D01*
X1219565Y574623D01*
X1219586Y574494D01*
X1219610Y574365D01*
X1219639Y574237D01*
X1219671Y574109D01*
X1219707Y573983D01*
X1219746Y573858D01*
X1219789Y573733D01*
X1219836Y573611D01*
X1219886Y573489D01*
X1219940Y573369D01*
X1219997Y573251D01*
X1220058Y573135D01*
X1220122Y573020D01*
X1220189Y572907D01*
X1220260Y572796D01*
X1220334Y572688D01*
X1220411Y572581D01*
X1220491Y572477D01*
X1220574Y572375D01*
X1220659Y572276D01*
X1220748Y572179D01*
X1220840Y572085D01*
X1220934Y571993D01*
X1221031Y571904D01*
X1221130Y571819D01*
X1221232Y571736D01*
X1221336Y571656D01*
X1221443Y571579D01*
X1221551Y571505D01*
X1221662Y571434D01*
X1221775Y571367D01*
X1221890Y571303D01*
X1222006Y571242D01*
X1222124Y571185D01*
X1222244Y571131D01*
X1222366Y571081D01*
X1222488Y571034D01*
X1222613Y570991D01*
X1222738Y570952D01*
X1222864Y570916D01*
X1222992Y570884D01*
X1223120Y570855D01*
X1223249Y570831D01*
X1223378Y570810D01*
X1223509Y570793D01*
X1223639Y570779D01*
X1223770Y570770D01*
X1223902Y570764D01*
X1224033Y570762D01*
X1228548Y570762D01*
X1212396Y583406D02*
X1207880Y587018D01*
X1207880Y570762D01*
X1203365Y570762D02*
X1212396Y570762D01*
X1433819Y448688D02*
X1439238Y432432D01*
X1428401Y432432D02*
X1433819Y448688D01*
X1429755Y436496D02*
X1437883Y436496D01*
X1421314Y432432D02*
X1421314Y448688D01*
X1423121Y432432D02*
X1419508Y432432D01*
X1419508Y448688D02*
X1423121Y448688D01*
X1412712Y448688D02*
X1412712Y432432D01*
X1412712Y448688D02*
X1408197Y448688D01*
X1408064Y448686D01*
X1407932Y448680D01*
X1407800Y448670D01*
X1407668Y448657D01*
X1407536Y448639D01*
X1407406Y448618D01*
X1407275Y448593D01*
X1407146Y448564D01*
X1407018Y448531D01*
X1406890Y448495D01*
X1406764Y448455D01*
X1406639Y448411D01*
X1406515Y448363D01*
X1406393Y448312D01*
X1406272Y448257D01*
X1406153Y448199D01*
X1406035Y448137D01*
X1405920Y448072D01*
X1405806Y448003D01*
X1405695Y447932D01*
X1405586Y447856D01*
X1405479Y447778D01*
X1405374Y447697D01*
X1405272Y447612D01*
X1405172Y447525D01*
X1405075Y447435D01*
X1404980Y447342D01*
X1404889Y447246D01*
X1404800Y447148D01*
X1404714Y447047D01*
X1404631Y446943D01*
X1404551Y446837D01*
X1404475Y446729D01*
X1404401Y446619D01*
X1404331Y446506D01*
X1404264Y446392D01*
X1404201Y446275D01*
X1404141Y446157D01*
X1404084Y446037D01*
X1404031Y445915D01*
X1403982Y445792D01*
X1403936Y445668D01*
X1403894Y445542D01*
X1403856Y445415D01*
X1403821Y445287D01*
X1403790Y445158D01*
X1403763Y445029D01*
X1403740Y444898D01*
X1403720Y444767D01*
X1403705Y444635D01*
X1403693Y444503D01*
X1403685Y444371D01*
X1403681Y444238D01*
X1403681Y444106D01*
X1403685Y443973D01*
X1403693Y443841D01*
X1403705Y443709D01*
X1403720Y443577D01*
X1403740Y443446D01*
X1403763Y443315D01*
X1403790Y443186D01*
X1403821Y443057D01*
X1403856Y442929D01*
X1403894Y442802D01*
X1403936Y442676D01*
X1403982Y442552D01*
X1404031Y442429D01*
X1404084Y442307D01*
X1404141Y442187D01*
X1404201Y442069D01*
X1404264Y441952D01*
X1404331Y441838D01*
X1404401Y441725D01*
X1404475Y441615D01*
X1404551Y441507D01*
X1404631Y441401D01*
X1404714Y441297D01*
X1404800Y441196D01*
X1404889Y441098D01*
X1404980Y441002D01*
X1405075Y440909D01*
X1405172Y440819D01*
X1405272Y440732D01*
X1405374Y440647D01*
X1405479Y440566D01*
X1405586Y440488D01*
X1405695Y440412D01*
X1405806Y440341D01*
X1405920Y440272D01*
X1406035Y440207D01*
X1406153Y440145D01*
X1406272Y440087D01*
X1406393Y440032D01*
X1406515Y439981D01*
X1406639Y439933D01*
X1406764Y439889D01*
X1406890Y439849D01*
X1407018Y439813D01*
X1407146Y439780D01*
X1407275Y439751D01*
X1407406Y439726D01*
X1407536Y439705D01*
X1407668Y439687D01*
X1407800Y439674D01*
X1407932Y439664D01*
X1408064Y439658D01*
X1408197Y439656D01*
X1408197Y439657D02*
X1412712Y439657D01*
X1407294Y439657D02*
X1403681Y432432D01*
X1388315Y432432D02*
X1388315Y448688D01*
X1379284Y432432D01*
X1379284Y448688D01*
X1369592Y432432D02*
X1365077Y432432D01*
X1369592Y432432D02*
X1369693Y432434D01*
X1369794Y432440D01*
X1369895Y432449D01*
X1369996Y432462D01*
X1370096Y432479D01*
X1370195Y432500D01*
X1370293Y432524D01*
X1370390Y432552D01*
X1370487Y432584D01*
X1370582Y432619D01*
X1370675Y432658D01*
X1370767Y432700D01*
X1370858Y432746D01*
X1370947Y432795D01*
X1371033Y432847D01*
X1371118Y432903D01*
X1371201Y432961D01*
X1371281Y433023D01*
X1371359Y433088D01*
X1371435Y433155D01*
X1371508Y433225D01*
X1371578Y433298D01*
X1371645Y433374D01*
X1371710Y433452D01*
X1371772Y433532D01*
X1371830Y433615D01*
X1371886Y433700D01*
X1371938Y433787D01*
X1371987Y433875D01*
X1372033Y433966D01*
X1372075Y434058D01*
X1372114Y434151D01*
X1372149Y434246D01*
X1372181Y434343D01*
X1372209Y434440D01*
X1372233Y434538D01*
X1372254Y434637D01*
X1372271Y434737D01*
X1372284Y434838D01*
X1372293Y434939D01*
X1372299Y435040D01*
X1372301Y435141D01*
X1372302Y435141D02*
X1372302Y439657D01*
X1372301Y439657D02*
X1372299Y439776D01*
X1372293Y439896D01*
X1372283Y440015D01*
X1372269Y440133D01*
X1372252Y440252D01*
X1372230Y440369D01*
X1372205Y440486D01*
X1372175Y440601D01*
X1372142Y440716D01*
X1372105Y440830D01*
X1372065Y440942D01*
X1372020Y441053D01*
X1371972Y441162D01*
X1371921Y441270D01*
X1371866Y441376D01*
X1371807Y441480D01*
X1371745Y441582D01*
X1371680Y441682D01*
X1371611Y441780D01*
X1371539Y441876D01*
X1371464Y441969D01*
X1371387Y442059D01*
X1371306Y442147D01*
X1371222Y442232D01*
X1371135Y442314D01*
X1371046Y442394D01*
X1370954Y442470D01*
X1370860Y442544D01*
X1370763Y442614D01*
X1370665Y442681D01*
X1370564Y442745D01*
X1370460Y442805D01*
X1370355Y442862D01*
X1370248Y442915D01*
X1370140Y442965D01*
X1370030Y443011D01*
X1369918Y443053D01*
X1369805Y443092D01*
X1369691Y443127D01*
X1369576Y443158D01*
X1369459Y443186D01*
X1369342Y443209D01*
X1369225Y443229D01*
X1369106Y443245D01*
X1368987Y443257D01*
X1368868Y443265D01*
X1368749Y443269D01*
X1368629Y443269D01*
X1368510Y443265D01*
X1368391Y443257D01*
X1368272Y443245D01*
X1368153Y443229D01*
X1368036Y443209D01*
X1367919Y443186D01*
X1367802Y443158D01*
X1367687Y443127D01*
X1367573Y443092D01*
X1367460Y443053D01*
X1367348Y443011D01*
X1367238Y442965D01*
X1367130Y442915D01*
X1367023Y442862D01*
X1366918Y442805D01*
X1366814Y442745D01*
X1366713Y442681D01*
X1366615Y442614D01*
X1366518Y442544D01*
X1366424Y442470D01*
X1366332Y442394D01*
X1366243Y442314D01*
X1366156Y442232D01*
X1366072Y442147D01*
X1365991Y442059D01*
X1365914Y441969D01*
X1365839Y441876D01*
X1365767Y441780D01*
X1365698Y441682D01*
X1365633Y441582D01*
X1365571Y441480D01*
X1365512Y441376D01*
X1365457Y441270D01*
X1365406Y441162D01*
X1365358Y441053D01*
X1365313Y440942D01*
X1365273Y440830D01*
X1365236Y440716D01*
X1365203Y440601D01*
X1365173Y440486D01*
X1365148Y440369D01*
X1365126Y440252D01*
X1365109Y440133D01*
X1365095Y440015D01*
X1365085Y439896D01*
X1365079Y439776D01*
X1365077Y439657D01*
X1365077Y437851D01*
X1372302Y437851D01*
X1356119Y432432D02*
X1351603Y432432D01*
X1356119Y432432D02*
X1356220Y432434D01*
X1356321Y432440D01*
X1356422Y432449D01*
X1356523Y432462D01*
X1356623Y432479D01*
X1356722Y432500D01*
X1356820Y432524D01*
X1356917Y432552D01*
X1357014Y432584D01*
X1357109Y432619D01*
X1357202Y432658D01*
X1357294Y432700D01*
X1357385Y432746D01*
X1357474Y432795D01*
X1357560Y432847D01*
X1357645Y432903D01*
X1357728Y432961D01*
X1357808Y433023D01*
X1357886Y433088D01*
X1357962Y433155D01*
X1358035Y433225D01*
X1358105Y433298D01*
X1358172Y433374D01*
X1358237Y433452D01*
X1358299Y433532D01*
X1358357Y433615D01*
X1358413Y433700D01*
X1358465Y433787D01*
X1358514Y433875D01*
X1358560Y433966D01*
X1358602Y434058D01*
X1358641Y434151D01*
X1358676Y434246D01*
X1358708Y434343D01*
X1358736Y434440D01*
X1358760Y434538D01*
X1358781Y434637D01*
X1358798Y434737D01*
X1358811Y434838D01*
X1358820Y434939D01*
X1358826Y435040D01*
X1358828Y435141D01*
X1358828Y440560D01*
X1358826Y440661D01*
X1358820Y440762D01*
X1358811Y440863D01*
X1358798Y440964D01*
X1358781Y441064D01*
X1358760Y441163D01*
X1358736Y441261D01*
X1358708Y441358D01*
X1358676Y441455D01*
X1358641Y441550D01*
X1358602Y441643D01*
X1358560Y441735D01*
X1358514Y441826D01*
X1358465Y441915D01*
X1358413Y442001D01*
X1358357Y442086D01*
X1358299Y442169D01*
X1358237Y442249D01*
X1358172Y442327D01*
X1358105Y442403D01*
X1358035Y442476D01*
X1357962Y442546D01*
X1357886Y442613D01*
X1357808Y442678D01*
X1357728Y442740D01*
X1357645Y442798D01*
X1357560Y442854D01*
X1357474Y442906D01*
X1357385Y442955D01*
X1357294Y443001D01*
X1357202Y443043D01*
X1357109Y443082D01*
X1357014Y443117D01*
X1356917Y443149D01*
X1356820Y443177D01*
X1356722Y443201D01*
X1356623Y443222D01*
X1356523Y443239D01*
X1356422Y443252D01*
X1356321Y443261D01*
X1356220Y443267D01*
X1356119Y443269D01*
X1351603Y443269D01*
X1351603Y429723D01*
X1351605Y429622D01*
X1351611Y429521D01*
X1351620Y429420D01*
X1351633Y429319D01*
X1351650Y429219D01*
X1351671Y429120D01*
X1351695Y429022D01*
X1351723Y428925D01*
X1351755Y428828D01*
X1351790Y428733D01*
X1351829Y428640D01*
X1351871Y428548D01*
X1351917Y428457D01*
X1351966Y428369D01*
X1352018Y428282D01*
X1352074Y428197D01*
X1352132Y428114D01*
X1352194Y428034D01*
X1352259Y427956D01*
X1352326Y427880D01*
X1352396Y427807D01*
X1352469Y427737D01*
X1352545Y427670D01*
X1352623Y427605D01*
X1352703Y427543D01*
X1352786Y427485D01*
X1352871Y427429D01*
X1352958Y427377D01*
X1353046Y427328D01*
X1353137Y427282D01*
X1353229Y427240D01*
X1353322Y427201D01*
X1353417Y427166D01*
X1353514Y427134D01*
X1353611Y427106D01*
X1353709Y427082D01*
X1353808Y427061D01*
X1353908Y427044D01*
X1354009Y427031D01*
X1354110Y427022D01*
X1354211Y427016D01*
X1354312Y427014D01*
X1354312Y427013D02*
X1357925Y427013D01*
X1341599Y438754D02*
X1337535Y438754D01*
X1341599Y438754D02*
X1341711Y438752D01*
X1341822Y438746D01*
X1341933Y438736D01*
X1342044Y438723D01*
X1342154Y438705D01*
X1342263Y438683D01*
X1342372Y438658D01*
X1342480Y438629D01*
X1342586Y438596D01*
X1342692Y438559D01*
X1342796Y438519D01*
X1342898Y438475D01*
X1342999Y438427D01*
X1343098Y438376D01*
X1343196Y438321D01*
X1343291Y438263D01*
X1343384Y438202D01*
X1343475Y438137D01*
X1343564Y438069D01*
X1343650Y437998D01*
X1343733Y437925D01*
X1343814Y437848D01*
X1343893Y437768D01*
X1343968Y437686D01*
X1344040Y437601D01*
X1344110Y437514D01*
X1344176Y437424D01*
X1344239Y437332D01*
X1344299Y437237D01*
X1344355Y437141D01*
X1344408Y437043D01*
X1344457Y436943D01*
X1344503Y436841D01*
X1344545Y436738D01*
X1344584Y436633D01*
X1344619Y436527D01*
X1344650Y436420D01*
X1344677Y436312D01*
X1344701Y436203D01*
X1344720Y436093D01*
X1344736Y435983D01*
X1344748Y435872D01*
X1344756Y435760D01*
X1344760Y435649D01*
X1344760Y435537D01*
X1344756Y435426D01*
X1344748Y435314D01*
X1344736Y435203D01*
X1344720Y435093D01*
X1344701Y434983D01*
X1344677Y434874D01*
X1344650Y434766D01*
X1344619Y434659D01*
X1344584Y434553D01*
X1344545Y434448D01*
X1344503Y434345D01*
X1344457Y434243D01*
X1344408Y434143D01*
X1344355Y434045D01*
X1344299Y433949D01*
X1344239Y433854D01*
X1344176Y433762D01*
X1344110Y433672D01*
X1344040Y433585D01*
X1343968Y433500D01*
X1343893Y433418D01*
X1343814Y433338D01*
X1343733Y433261D01*
X1343650Y433188D01*
X1343564Y433117D01*
X1343475Y433049D01*
X1343384Y432984D01*
X1343291Y432923D01*
X1343196Y432865D01*
X1343098Y432810D01*
X1342999Y432759D01*
X1342898Y432711D01*
X1342796Y432667D01*
X1342692Y432627D01*
X1342586Y432590D01*
X1342480Y432557D01*
X1342372Y432528D01*
X1342263Y432503D01*
X1342154Y432481D01*
X1342044Y432463D01*
X1341933Y432450D01*
X1341822Y432440D01*
X1341711Y432434D01*
X1341599Y432432D01*
X1337535Y432432D01*
X1337535Y440560D01*
X1337537Y440661D01*
X1337543Y440762D01*
X1337552Y440863D01*
X1337565Y440964D01*
X1337582Y441064D01*
X1337603Y441163D01*
X1337627Y441261D01*
X1337655Y441358D01*
X1337687Y441455D01*
X1337722Y441550D01*
X1337761Y441643D01*
X1337803Y441735D01*
X1337849Y441826D01*
X1337898Y441915D01*
X1337950Y442001D01*
X1338006Y442086D01*
X1338064Y442169D01*
X1338126Y442249D01*
X1338191Y442327D01*
X1338258Y442403D01*
X1338328Y442476D01*
X1338401Y442546D01*
X1338477Y442613D01*
X1338555Y442678D01*
X1338635Y442740D01*
X1338718Y442798D01*
X1338803Y442854D01*
X1338890Y442906D01*
X1338978Y442955D01*
X1339069Y443001D01*
X1339161Y443043D01*
X1339254Y443082D01*
X1339349Y443117D01*
X1339446Y443149D01*
X1339543Y443177D01*
X1339641Y443201D01*
X1339740Y443222D01*
X1339840Y443239D01*
X1339941Y443252D01*
X1340042Y443261D01*
X1340143Y443267D01*
X1340244Y443269D01*
X1343857Y443269D01*
X1331916Y443269D02*
X1326497Y443269D01*
X1330110Y448688D02*
X1330110Y435141D01*
X1330109Y435141D02*
X1330107Y435040D01*
X1330101Y434939D01*
X1330092Y434838D01*
X1330079Y434737D01*
X1330062Y434637D01*
X1330041Y434538D01*
X1330017Y434440D01*
X1329989Y434343D01*
X1329957Y434246D01*
X1329922Y434151D01*
X1329883Y434058D01*
X1329841Y433966D01*
X1329795Y433875D01*
X1329746Y433787D01*
X1329694Y433700D01*
X1329638Y433615D01*
X1329580Y433532D01*
X1329518Y433452D01*
X1329453Y433374D01*
X1329386Y433298D01*
X1329316Y433225D01*
X1329243Y433155D01*
X1329167Y433088D01*
X1329089Y433023D01*
X1329009Y432961D01*
X1328926Y432903D01*
X1328841Y432847D01*
X1328755Y432795D01*
X1328666Y432746D01*
X1328575Y432700D01*
X1328483Y432658D01*
X1328390Y432619D01*
X1328295Y432584D01*
X1328198Y432552D01*
X1328101Y432524D01*
X1328003Y432500D01*
X1327904Y432479D01*
X1327804Y432462D01*
X1327703Y432449D01*
X1327602Y432440D01*
X1327501Y432434D01*
X1327400Y432432D01*
X1326497Y432432D01*
X1320754Y432432D02*
X1320754Y443269D01*
X1321205Y447785D02*
X1321205Y448688D01*
X1320302Y448688D01*
X1320302Y447785D01*
X1321205Y447785D01*
X1314987Y443269D02*
X1311375Y432432D01*
X1307762Y443269D01*
X1299252Y432432D02*
X1294736Y432432D01*
X1299252Y432432D02*
X1299353Y432434D01*
X1299454Y432440D01*
X1299555Y432449D01*
X1299656Y432462D01*
X1299756Y432479D01*
X1299855Y432500D01*
X1299953Y432524D01*
X1300050Y432552D01*
X1300147Y432584D01*
X1300242Y432619D01*
X1300335Y432658D01*
X1300427Y432700D01*
X1300518Y432746D01*
X1300607Y432795D01*
X1300693Y432847D01*
X1300778Y432903D01*
X1300861Y432961D01*
X1300941Y433023D01*
X1301019Y433088D01*
X1301095Y433155D01*
X1301168Y433225D01*
X1301238Y433298D01*
X1301305Y433374D01*
X1301370Y433452D01*
X1301432Y433532D01*
X1301490Y433615D01*
X1301546Y433700D01*
X1301598Y433787D01*
X1301647Y433875D01*
X1301693Y433966D01*
X1301735Y434058D01*
X1301774Y434151D01*
X1301809Y434246D01*
X1301841Y434343D01*
X1301869Y434440D01*
X1301893Y434538D01*
X1301914Y434637D01*
X1301931Y434737D01*
X1301944Y434838D01*
X1301953Y434939D01*
X1301959Y435040D01*
X1301961Y435141D01*
X1301961Y439657D01*
X1301959Y439776D01*
X1301953Y439896D01*
X1301943Y440015D01*
X1301929Y440133D01*
X1301912Y440252D01*
X1301890Y440369D01*
X1301865Y440486D01*
X1301835Y440601D01*
X1301802Y440716D01*
X1301765Y440830D01*
X1301725Y440942D01*
X1301680Y441053D01*
X1301632Y441162D01*
X1301581Y441270D01*
X1301526Y441376D01*
X1301467Y441480D01*
X1301405Y441582D01*
X1301340Y441682D01*
X1301271Y441780D01*
X1301199Y441876D01*
X1301124Y441969D01*
X1301047Y442059D01*
X1300966Y442147D01*
X1300882Y442232D01*
X1300795Y442314D01*
X1300706Y442394D01*
X1300614Y442470D01*
X1300520Y442544D01*
X1300423Y442614D01*
X1300325Y442681D01*
X1300224Y442745D01*
X1300120Y442805D01*
X1300015Y442862D01*
X1299908Y442915D01*
X1299800Y442965D01*
X1299690Y443011D01*
X1299578Y443053D01*
X1299465Y443092D01*
X1299351Y443127D01*
X1299236Y443158D01*
X1299119Y443186D01*
X1299002Y443209D01*
X1298885Y443229D01*
X1298766Y443245D01*
X1298647Y443257D01*
X1298528Y443265D01*
X1298409Y443269D01*
X1298289Y443269D01*
X1298170Y443265D01*
X1298051Y443257D01*
X1297932Y443245D01*
X1297813Y443229D01*
X1297696Y443209D01*
X1297579Y443186D01*
X1297462Y443158D01*
X1297347Y443127D01*
X1297233Y443092D01*
X1297120Y443053D01*
X1297008Y443011D01*
X1296898Y442965D01*
X1296790Y442915D01*
X1296683Y442862D01*
X1296578Y442805D01*
X1296474Y442745D01*
X1296373Y442681D01*
X1296275Y442614D01*
X1296178Y442544D01*
X1296084Y442470D01*
X1295992Y442394D01*
X1295903Y442314D01*
X1295816Y442232D01*
X1295732Y442147D01*
X1295651Y442059D01*
X1295574Y441969D01*
X1295499Y441876D01*
X1295427Y441780D01*
X1295358Y441682D01*
X1295293Y441582D01*
X1295231Y441480D01*
X1295172Y441376D01*
X1295117Y441270D01*
X1295066Y441162D01*
X1295018Y441053D01*
X1294973Y440942D01*
X1294933Y440830D01*
X1294896Y440716D01*
X1294863Y440601D01*
X1294833Y440486D01*
X1294808Y440369D01*
X1294786Y440252D01*
X1294769Y440133D01*
X1294755Y440015D01*
X1294745Y439896D01*
X1294739Y439776D01*
X1294737Y439657D01*
X1294736Y439657D02*
X1294736Y437851D01*
X1301961Y437851D01*
X1276990Y438754D02*
X1272926Y438754D01*
X1276990Y438754D02*
X1277102Y438752D01*
X1277213Y438746D01*
X1277324Y438736D01*
X1277435Y438723D01*
X1277545Y438705D01*
X1277654Y438683D01*
X1277763Y438658D01*
X1277871Y438629D01*
X1277977Y438596D01*
X1278083Y438559D01*
X1278187Y438519D01*
X1278289Y438475D01*
X1278390Y438427D01*
X1278489Y438376D01*
X1278587Y438321D01*
X1278682Y438263D01*
X1278775Y438202D01*
X1278866Y438137D01*
X1278955Y438069D01*
X1279041Y437998D01*
X1279124Y437925D01*
X1279205Y437848D01*
X1279284Y437768D01*
X1279359Y437686D01*
X1279431Y437601D01*
X1279501Y437514D01*
X1279567Y437424D01*
X1279630Y437332D01*
X1279690Y437237D01*
X1279746Y437141D01*
X1279799Y437043D01*
X1279848Y436943D01*
X1279894Y436841D01*
X1279936Y436738D01*
X1279975Y436633D01*
X1280010Y436527D01*
X1280041Y436420D01*
X1280068Y436312D01*
X1280092Y436203D01*
X1280111Y436093D01*
X1280127Y435983D01*
X1280139Y435872D01*
X1280147Y435760D01*
X1280151Y435649D01*
X1280151Y435537D01*
X1280147Y435426D01*
X1280139Y435314D01*
X1280127Y435203D01*
X1280111Y435093D01*
X1280092Y434983D01*
X1280068Y434874D01*
X1280041Y434766D01*
X1280010Y434659D01*
X1279975Y434553D01*
X1279936Y434448D01*
X1279894Y434345D01*
X1279848Y434243D01*
X1279799Y434143D01*
X1279746Y434045D01*
X1279690Y433949D01*
X1279630Y433854D01*
X1279567Y433762D01*
X1279501Y433672D01*
X1279431Y433585D01*
X1279359Y433500D01*
X1279284Y433418D01*
X1279205Y433338D01*
X1279124Y433261D01*
X1279041Y433188D01*
X1278955Y433117D01*
X1278866Y433049D01*
X1278775Y432984D01*
X1278682Y432923D01*
X1278587Y432865D01*
X1278489Y432810D01*
X1278390Y432759D01*
X1278289Y432711D01*
X1278187Y432667D01*
X1278083Y432627D01*
X1277977Y432590D01*
X1277871Y432557D01*
X1277763Y432528D01*
X1277654Y432503D01*
X1277545Y432481D01*
X1277435Y432463D01*
X1277324Y432450D01*
X1277213Y432440D01*
X1277102Y432434D01*
X1276990Y432432D01*
X1272926Y432432D01*
X1272926Y440560D01*
X1272928Y440661D01*
X1272934Y440762D01*
X1272943Y440863D01*
X1272956Y440964D01*
X1272973Y441064D01*
X1272994Y441163D01*
X1273018Y441261D01*
X1273046Y441358D01*
X1273078Y441455D01*
X1273113Y441550D01*
X1273152Y441643D01*
X1273194Y441735D01*
X1273240Y441826D01*
X1273289Y441915D01*
X1273341Y442001D01*
X1273397Y442086D01*
X1273455Y442169D01*
X1273517Y442249D01*
X1273582Y442327D01*
X1273649Y442403D01*
X1273719Y442476D01*
X1273792Y442546D01*
X1273868Y442613D01*
X1273946Y442678D01*
X1274026Y442740D01*
X1274109Y442798D01*
X1274194Y442854D01*
X1274281Y442906D01*
X1274369Y442955D01*
X1274460Y443001D01*
X1274552Y443043D01*
X1274645Y443082D01*
X1274740Y443117D01*
X1274837Y443149D01*
X1274934Y443177D01*
X1275032Y443201D01*
X1275131Y443222D01*
X1275231Y443239D01*
X1275332Y443252D01*
X1275433Y443261D01*
X1275534Y443267D01*
X1275635Y443269D01*
X1279248Y443269D01*
X1265488Y443269D02*
X1265488Y432432D01*
X1265488Y443269D02*
X1260973Y443269D01*
X1260869Y443267D01*
X1260766Y443261D01*
X1260662Y443251D01*
X1260559Y443237D01*
X1260457Y443219D01*
X1260356Y443198D01*
X1260255Y443172D01*
X1260156Y443143D01*
X1260057Y443110D01*
X1259960Y443073D01*
X1259865Y443032D01*
X1259771Y442988D01*
X1259679Y442940D01*
X1259589Y442889D01*
X1259500Y442834D01*
X1259414Y442776D01*
X1259331Y442714D01*
X1259249Y442650D01*
X1259171Y442582D01*
X1259095Y442512D01*
X1259021Y442439D01*
X1258951Y442362D01*
X1258883Y442284D01*
X1258819Y442202D01*
X1258757Y442119D01*
X1258699Y442033D01*
X1258644Y441944D01*
X1258593Y441854D01*
X1258545Y441762D01*
X1258501Y441668D01*
X1258460Y441573D01*
X1258423Y441476D01*
X1258390Y441377D01*
X1258361Y441278D01*
X1258335Y441177D01*
X1258314Y441076D01*
X1258296Y440974D01*
X1258282Y440871D01*
X1258272Y440767D01*
X1258266Y440664D01*
X1258264Y440560D01*
X1258264Y432432D01*
X1244269Y432432D02*
X1244269Y448688D01*
X1244269Y432432D02*
X1248784Y432432D01*
X1248885Y432434D01*
X1248986Y432440D01*
X1249087Y432449D01*
X1249188Y432462D01*
X1249288Y432479D01*
X1249387Y432500D01*
X1249485Y432524D01*
X1249582Y432552D01*
X1249679Y432584D01*
X1249774Y432619D01*
X1249867Y432658D01*
X1249959Y432700D01*
X1250050Y432746D01*
X1250139Y432795D01*
X1250225Y432847D01*
X1250310Y432903D01*
X1250393Y432961D01*
X1250473Y433023D01*
X1250551Y433088D01*
X1250627Y433155D01*
X1250700Y433225D01*
X1250770Y433298D01*
X1250837Y433374D01*
X1250902Y433452D01*
X1250964Y433532D01*
X1251022Y433615D01*
X1251078Y433700D01*
X1251130Y433787D01*
X1251179Y433875D01*
X1251225Y433966D01*
X1251267Y434058D01*
X1251306Y434151D01*
X1251341Y434246D01*
X1251373Y434343D01*
X1251401Y434440D01*
X1251425Y434538D01*
X1251446Y434637D01*
X1251463Y434737D01*
X1251476Y434838D01*
X1251485Y434939D01*
X1251491Y435040D01*
X1251493Y435141D01*
X1251494Y435141D02*
X1251494Y440560D01*
X1251493Y440560D02*
X1251491Y440661D01*
X1251485Y440762D01*
X1251476Y440863D01*
X1251463Y440964D01*
X1251446Y441064D01*
X1251425Y441163D01*
X1251401Y441261D01*
X1251373Y441358D01*
X1251341Y441455D01*
X1251306Y441550D01*
X1251267Y441643D01*
X1251225Y441735D01*
X1251179Y441826D01*
X1251130Y441915D01*
X1251078Y442001D01*
X1251022Y442086D01*
X1250964Y442169D01*
X1250902Y442249D01*
X1250837Y442327D01*
X1250770Y442403D01*
X1250700Y442476D01*
X1250627Y442546D01*
X1250551Y442613D01*
X1250473Y442678D01*
X1250393Y442740D01*
X1250310Y442798D01*
X1250225Y442854D01*
X1250139Y442906D01*
X1250050Y442955D01*
X1249959Y443001D01*
X1249867Y443043D01*
X1249774Y443082D01*
X1249679Y443117D01*
X1249582Y443149D01*
X1249485Y443177D01*
X1249387Y443201D01*
X1249288Y443222D01*
X1249188Y443239D01*
X1249087Y443252D01*
X1248986Y443261D01*
X1248885Y443267D01*
X1248784Y443269D01*
X1244269Y443269D01*
X1228356Y448688D02*
X1228356Y432432D01*
X1228356Y448688D02*
X1223840Y448688D01*
X1223709Y448686D01*
X1223577Y448680D01*
X1223446Y448671D01*
X1223316Y448657D01*
X1223185Y448640D01*
X1223056Y448619D01*
X1222927Y448595D01*
X1222799Y448566D01*
X1222671Y448534D01*
X1222545Y448498D01*
X1222420Y448459D01*
X1222295Y448416D01*
X1222173Y448369D01*
X1222051Y448319D01*
X1221931Y448265D01*
X1221813Y448208D01*
X1221697Y448147D01*
X1221582Y448083D01*
X1221469Y448016D01*
X1221358Y447945D01*
X1221250Y447871D01*
X1221143Y447794D01*
X1221039Y447714D01*
X1220937Y447631D01*
X1220838Y447546D01*
X1220741Y447457D01*
X1220647Y447365D01*
X1220555Y447271D01*
X1220466Y447174D01*
X1220381Y447075D01*
X1220298Y446973D01*
X1220218Y446869D01*
X1220141Y446762D01*
X1220067Y446654D01*
X1219996Y446543D01*
X1219929Y446430D01*
X1219865Y446315D01*
X1219804Y446199D01*
X1219747Y446081D01*
X1219693Y445961D01*
X1219643Y445839D01*
X1219596Y445717D01*
X1219553Y445592D01*
X1219514Y445467D01*
X1219478Y445341D01*
X1219446Y445213D01*
X1219417Y445085D01*
X1219393Y444956D01*
X1219372Y444827D01*
X1219355Y444696D01*
X1219341Y444566D01*
X1219332Y444435D01*
X1219326Y444303D01*
X1219324Y444172D01*
X1219325Y444172D02*
X1219325Y436948D01*
X1219324Y436948D02*
X1219326Y436817D01*
X1219332Y436685D01*
X1219341Y436554D01*
X1219355Y436424D01*
X1219372Y436293D01*
X1219393Y436164D01*
X1219417Y436035D01*
X1219446Y435907D01*
X1219478Y435779D01*
X1219514Y435653D01*
X1219553Y435528D01*
X1219596Y435403D01*
X1219643Y435281D01*
X1219693Y435159D01*
X1219747Y435039D01*
X1219804Y434921D01*
X1219865Y434805D01*
X1219929Y434690D01*
X1219996Y434577D01*
X1220067Y434466D01*
X1220141Y434358D01*
X1220218Y434251D01*
X1220298Y434147D01*
X1220381Y434045D01*
X1220466Y433946D01*
X1220555Y433849D01*
X1220647Y433755D01*
X1220741Y433663D01*
X1220838Y433574D01*
X1220937Y433489D01*
X1221039Y433406D01*
X1221143Y433326D01*
X1221250Y433249D01*
X1221358Y433175D01*
X1221469Y433104D01*
X1221582Y433037D01*
X1221697Y432973D01*
X1221813Y432912D01*
X1221931Y432855D01*
X1222051Y432801D01*
X1222173Y432751D01*
X1222295Y432704D01*
X1222420Y432661D01*
X1222545Y432622D01*
X1222671Y432586D01*
X1222799Y432554D01*
X1222927Y432525D01*
X1223056Y432501D01*
X1223185Y432480D01*
X1223316Y432463D01*
X1223446Y432449D01*
X1223577Y432440D01*
X1223709Y432434D01*
X1223840Y432432D01*
X1228356Y432432D01*
X1212377Y432432D02*
X1212377Y443269D01*
X1212829Y447785D02*
X1212829Y448688D01*
X1211926Y448688D01*
X1211926Y447785D01*
X1212829Y447785D01*
X1204735Y438754D02*
X1200220Y436948D01*
X1204736Y438754D02*
X1204824Y438791D01*
X1204910Y438832D01*
X1204995Y438876D01*
X1205078Y438924D01*
X1205158Y438975D01*
X1205237Y439029D01*
X1205313Y439087D01*
X1205387Y439147D01*
X1205459Y439211D01*
X1205527Y439277D01*
X1205593Y439347D01*
X1205656Y439418D01*
X1205717Y439493D01*
X1205774Y439569D01*
X1205827Y439648D01*
X1205878Y439729D01*
X1205925Y439812D01*
X1205969Y439897D01*
X1206009Y439984D01*
X1206046Y440072D01*
X1206079Y440162D01*
X1206109Y440253D01*
X1206134Y440345D01*
X1206156Y440438D01*
X1206174Y440532D01*
X1206189Y440626D01*
X1206199Y440721D01*
X1206205Y440817D01*
X1206208Y440912D01*
X1206207Y441008D01*
X1206201Y441103D01*
X1206192Y441199D01*
X1206179Y441293D01*
X1206163Y441387D01*
X1206142Y441481D01*
X1206117Y441573D01*
X1206089Y441664D01*
X1206057Y441754D01*
X1206022Y441843D01*
X1205983Y441930D01*
X1205940Y442016D01*
X1205894Y442100D01*
X1205844Y442181D01*
X1205792Y442261D01*
X1205736Y442339D01*
X1205676Y442414D01*
X1205614Y442486D01*
X1205549Y442556D01*
X1205481Y442624D01*
X1205411Y442688D01*
X1205338Y442750D01*
X1205262Y442808D01*
X1205184Y442864D01*
X1205104Y442916D01*
X1205022Y442965D01*
X1204938Y443010D01*
X1204852Y443052D01*
X1204765Y443091D01*
X1204676Y443126D01*
X1204585Y443157D01*
X1204494Y443184D01*
X1204401Y443208D01*
X1204308Y443228D01*
X1204214Y443244D01*
X1204119Y443256D01*
X1204024Y443265D01*
X1203928Y443269D01*
X1203833Y443270D01*
X1203586Y443263D01*
X1203340Y443251D01*
X1203094Y443233D01*
X1202848Y443208D01*
X1202604Y443178D01*
X1202360Y443142D01*
X1202117Y443101D01*
X1201875Y443053D01*
X1201634Y442999D01*
X1201395Y442940D01*
X1201157Y442875D01*
X1200921Y442804D01*
X1200686Y442728D01*
X1200453Y442646D01*
X1200223Y442558D01*
X1199995Y442465D01*
X1199768Y442367D01*
X1200219Y436947D02*
X1200131Y436910D01*
X1200045Y436869D01*
X1199960Y436825D01*
X1199877Y436777D01*
X1199797Y436726D01*
X1199718Y436672D01*
X1199642Y436614D01*
X1199568Y436554D01*
X1199496Y436490D01*
X1199428Y436424D01*
X1199362Y436354D01*
X1199299Y436283D01*
X1199238Y436208D01*
X1199181Y436132D01*
X1199128Y436053D01*
X1199077Y435972D01*
X1199030Y435889D01*
X1198986Y435804D01*
X1198946Y435717D01*
X1198909Y435629D01*
X1198876Y435539D01*
X1198846Y435448D01*
X1198821Y435356D01*
X1198799Y435263D01*
X1198781Y435169D01*
X1198766Y435075D01*
X1198756Y434980D01*
X1198750Y434884D01*
X1198747Y434789D01*
X1198748Y434693D01*
X1198754Y434598D01*
X1198763Y434502D01*
X1198776Y434408D01*
X1198792Y434314D01*
X1198813Y434220D01*
X1198838Y434128D01*
X1198866Y434037D01*
X1198898Y433947D01*
X1198933Y433858D01*
X1198972Y433771D01*
X1199015Y433685D01*
X1199061Y433601D01*
X1199111Y433520D01*
X1199163Y433440D01*
X1199219Y433362D01*
X1199279Y433287D01*
X1199341Y433215D01*
X1199406Y433145D01*
X1199474Y433077D01*
X1199544Y433013D01*
X1199617Y432951D01*
X1199693Y432893D01*
X1199771Y432837D01*
X1199851Y432785D01*
X1199933Y432736D01*
X1200017Y432691D01*
X1200103Y432649D01*
X1200190Y432610D01*
X1200279Y432575D01*
X1200370Y432544D01*
X1200461Y432517D01*
X1200554Y432493D01*
X1200647Y432473D01*
X1200741Y432457D01*
X1200836Y432445D01*
X1200931Y432436D01*
X1201027Y432432D01*
X1201122Y432431D01*
X1201123Y432432D02*
X1201485Y432441D01*
X1201847Y432459D01*
X1202208Y432486D01*
X1202568Y432521D01*
X1202928Y432564D01*
X1203287Y432616D01*
X1203644Y432677D01*
X1203999Y432746D01*
X1204353Y432823D01*
X1204705Y432909D01*
X1205055Y433003D01*
X1205403Y433106D01*
X1205748Y433216D01*
X1206090Y433335D01*
X1189816Y432432D02*
X1186203Y432432D01*
X1189816Y432432D02*
X1189917Y432434D01*
X1190018Y432440D01*
X1190119Y432449D01*
X1190220Y432462D01*
X1190320Y432479D01*
X1190419Y432500D01*
X1190517Y432524D01*
X1190614Y432552D01*
X1190711Y432584D01*
X1190806Y432619D01*
X1190899Y432658D01*
X1190991Y432700D01*
X1191082Y432746D01*
X1191171Y432795D01*
X1191257Y432847D01*
X1191342Y432903D01*
X1191425Y432961D01*
X1191505Y433023D01*
X1191583Y433088D01*
X1191659Y433155D01*
X1191732Y433225D01*
X1191802Y433298D01*
X1191869Y433374D01*
X1191934Y433452D01*
X1191996Y433532D01*
X1192054Y433615D01*
X1192110Y433700D01*
X1192162Y433787D01*
X1192211Y433875D01*
X1192257Y433966D01*
X1192299Y434058D01*
X1192338Y434151D01*
X1192373Y434246D01*
X1192405Y434343D01*
X1192433Y434440D01*
X1192457Y434538D01*
X1192478Y434637D01*
X1192495Y434737D01*
X1192508Y434838D01*
X1192517Y434939D01*
X1192523Y435040D01*
X1192525Y435141D01*
X1192525Y440560D01*
X1192523Y440661D01*
X1192517Y440762D01*
X1192508Y440863D01*
X1192495Y440964D01*
X1192478Y441064D01*
X1192457Y441163D01*
X1192433Y441261D01*
X1192405Y441358D01*
X1192373Y441455D01*
X1192338Y441550D01*
X1192299Y441643D01*
X1192257Y441735D01*
X1192211Y441826D01*
X1192162Y441915D01*
X1192110Y442001D01*
X1192054Y442086D01*
X1191996Y442169D01*
X1191934Y442249D01*
X1191869Y442327D01*
X1191802Y442403D01*
X1191732Y442476D01*
X1191659Y442546D01*
X1191583Y442613D01*
X1191505Y442678D01*
X1191425Y442740D01*
X1191342Y442798D01*
X1191257Y442854D01*
X1191171Y442906D01*
X1191082Y442955D01*
X1190991Y443001D01*
X1190899Y443043D01*
X1190806Y443082D01*
X1190711Y443117D01*
X1190614Y443149D01*
X1190517Y443177D01*
X1190419Y443201D01*
X1190320Y443222D01*
X1190220Y443239D01*
X1190119Y443252D01*
X1190018Y443261D01*
X1189917Y443267D01*
X1189816Y443269D01*
X1186203Y443269D01*
X1180038Y448688D02*
X1180038Y432432D01*
X1180038Y443269D02*
X1175522Y443269D01*
X1175418Y443267D01*
X1175315Y443261D01*
X1175211Y443251D01*
X1175108Y443237D01*
X1175006Y443219D01*
X1174905Y443198D01*
X1174804Y443172D01*
X1174705Y443143D01*
X1174606Y443110D01*
X1174509Y443073D01*
X1174414Y443032D01*
X1174320Y442988D01*
X1174228Y442940D01*
X1174138Y442889D01*
X1174049Y442834D01*
X1173963Y442776D01*
X1173880Y442714D01*
X1173798Y442650D01*
X1173720Y442582D01*
X1173644Y442512D01*
X1173570Y442439D01*
X1173500Y442362D01*
X1173432Y442284D01*
X1173368Y442202D01*
X1173306Y442119D01*
X1173248Y442033D01*
X1173193Y441944D01*
X1173142Y441854D01*
X1173094Y441762D01*
X1173050Y441668D01*
X1173009Y441573D01*
X1172972Y441476D01*
X1172939Y441377D01*
X1172910Y441278D01*
X1172884Y441177D01*
X1172863Y441076D01*
X1172845Y440974D01*
X1172831Y440871D01*
X1172821Y440767D01*
X1172815Y440664D01*
X1172813Y440560D01*
X1172813Y432432D01*
X1162882Y438754D02*
X1158818Y438754D01*
X1162882Y438754D02*
X1162994Y438752D01*
X1163105Y438746D01*
X1163216Y438736D01*
X1163327Y438723D01*
X1163437Y438705D01*
X1163546Y438683D01*
X1163655Y438658D01*
X1163763Y438629D01*
X1163869Y438596D01*
X1163975Y438559D01*
X1164079Y438519D01*
X1164181Y438475D01*
X1164282Y438427D01*
X1164381Y438376D01*
X1164479Y438321D01*
X1164574Y438263D01*
X1164667Y438202D01*
X1164758Y438137D01*
X1164847Y438069D01*
X1164933Y437998D01*
X1165016Y437925D01*
X1165097Y437848D01*
X1165176Y437768D01*
X1165251Y437686D01*
X1165323Y437601D01*
X1165393Y437514D01*
X1165459Y437424D01*
X1165522Y437332D01*
X1165582Y437237D01*
X1165638Y437141D01*
X1165691Y437043D01*
X1165740Y436943D01*
X1165786Y436841D01*
X1165828Y436738D01*
X1165867Y436633D01*
X1165902Y436527D01*
X1165933Y436420D01*
X1165960Y436312D01*
X1165984Y436203D01*
X1166003Y436093D01*
X1166019Y435983D01*
X1166031Y435872D01*
X1166039Y435760D01*
X1166043Y435649D01*
X1166043Y435537D01*
X1166039Y435426D01*
X1166031Y435314D01*
X1166019Y435203D01*
X1166003Y435093D01*
X1165984Y434983D01*
X1165960Y434874D01*
X1165933Y434766D01*
X1165902Y434659D01*
X1165867Y434553D01*
X1165828Y434448D01*
X1165786Y434345D01*
X1165740Y434243D01*
X1165691Y434143D01*
X1165638Y434045D01*
X1165582Y433949D01*
X1165522Y433854D01*
X1165459Y433762D01*
X1165393Y433672D01*
X1165323Y433585D01*
X1165251Y433500D01*
X1165176Y433418D01*
X1165097Y433338D01*
X1165016Y433261D01*
X1164933Y433188D01*
X1164847Y433117D01*
X1164758Y433049D01*
X1164667Y432984D01*
X1164574Y432923D01*
X1164479Y432865D01*
X1164381Y432810D01*
X1164282Y432759D01*
X1164181Y432711D01*
X1164079Y432667D01*
X1163975Y432627D01*
X1163869Y432590D01*
X1163763Y432557D01*
X1163655Y432528D01*
X1163546Y432503D01*
X1163437Y432481D01*
X1163327Y432463D01*
X1163216Y432450D01*
X1163105Y432440D01*
X1162994Y432434D01*
X1162882Y432432D01*
X1158818Y432432D01*
X1158818Y440560D01*
X1158820Y440661D01*
X1158826Y440762D01*
X1158835Y440863D01*
X1158848Y440964D01*
X1158865Y441064D01*
X1158886Y441163D01*
X1158910Y441261D01*
X1158938Y441358D01*
X1158970Y441455D01*
X1159005Y441550D01*
X1159044Y441643D01*
X1159086Y441735D01*
X1159132Y441826D01*
X1159181Y441915D01*
X1159233Y442001D01*
X1159289Y442086D01*
X1159347Y442169D01*
X1159409Y442249D01*
X1159474Y442327D01*
X1159541Y442403D01*
X1159611Y442476D01*
X1159684Y442546D01*
X1159760Y442613D01*
X1159838Y442678D01*
X1159918Y442740D01*
X1160001Y442798D01*
X1160086Y442854D01*
X1160173Y442906D01*
X1160261Y442955D01*
X1160352Y443001D01*
X1160444Y443043D01*
X1160537Y443082D01*
X1160632Y443117D01*
X1160729Y443149D01*
X1160826Y443177D01*
X1160924Y443201D01*
X1161023Y443222D01*
X1161123Y443239D01*
X1161224Y443252D01*
X1161325Y443261D01*
X1161426Y443267D01*
X1161527Y443269D01*
X1165140Y443269D01*
X1151296Y443269D02*
X1151296Y432432D01*
X1151296Y443269D02*
X1145877Y443269D01*
X1145877Y441463D01*
X1138324Y432432D02*
X1133808Y432432D01*
X1138324Y432432D02*
X1138425Y432434D01*
X1138526Y432440D01*
X1138627Y432449D01*
X1138728Y432462D01*
X1138828Y432479D01*
X1138927Y432500D01*
X1139025Y432524D01*
X1139122Y432552D01*
X1139219Y432584D01*
X1139314Y432619D01*
X1139407Y432658D01*
X1139499Y432700D01*
X1139590Y432746D01*
X1139679Y432795D01*
X1139765Y432847D01*
X1139850Y432903D01*
X1139933Y432961D01*
X1140013Y433023D01*
X1140091Y433088D01*
X1140167Y433155D01*
X1140240Y433225D01*
X1140310Y433298D01*
X1140377Y433374D01*
X1140442Y433452D01*
X1140504Y433532D01*
X1140562Y433615D01*
X1140618Y433700D01*
X1140670Y433787D01*
X1140719Y433875D01*
X1140765Y433966D01*
X1140807Y434058D01*
X1140846Y434151D01*
X1140881Y434246D01*
X1140913Y434343D01*
X1140941Y434440D01*
X1140965Y434538D01*
X1140986Y434637D01*
X1141003Y434737D01*
X1141016Y434838D01*
X1141025Y434939D01*
X1141031Y435040D01*
X1141033Y435141D01*
X1141033Y440560D01*
X1141031Y440661D01*
X1141025Y440762D01*
X1141016Y440863D01*
X1141003Y440964D01*
X1140986Y441064D01*
X1140965Y441163D01*
X1140941Y441261D01*
X1140913Y441358D01*
X1140881Y441455D01*
X1140846Y441550D01*
X1140807Y441643D01*
X1140765Y441735D01*
X1140719Y441826D01*
X1140670Y441915D01*
X1140618Y442001D01*
X1140562Y442086D01*
X1140504Y442169D01*
X1140442Y442249D01*
X1140377Y442327D01*
X1140310Y442403D01*
X1140240Y442476D01*
X1140167Y442546D01*
X1140091Y442613D01*
X1140013Y442678D01*
X1139933Y442740D01*
X1139850Y442798D01*
X1139765Y442854D01*
X1139679Y442906D01*
X1139590Y442955D01*
X1139499Y443001D01*
X1139407Y443043D01*
X1139314Y443082D01*
X1139219Y443117D01*
X1139122Y443149D01*
X1139025Y443177D01*
X1138927Y443201D01*
X1138828Y443222D01*
X1138728Y443239D01*
X1138627Y443252D01*
X1138526Y443261D01*
X1138425Y443267D01*
X1138324Y443269D01*
X1133808Y443269D01*
X1133808Y429723D01*
X1133809Y429723D02*
X1133811Y429622D01*
X1133817Y429521D01*
X1133826Y429420D01*
X1133839Y429319D01*
X1133856Y429219D01*
X1133877Y429120D01*
X1133901Y429022D01*
X1133929Y428925D01*
X1133961Y428828D01*
X1133996Y428733D01*
X1134035Y428640D01*
X1134077Y428548D01*
X1134123Y428457D01*
X1134172Y428369D01*
X1134224Y428282D01*
X1134280Y428197D01*
X1134338Y428114D01*
X1134400Y428034D01*
X1134465Y427956D01*
X1134532Y427880D01*
X1134602Y427807D01*
X1134675Y427737D01*
X1134751Y427670D01*
X1134829Y427605D01*
X1134909Y427543D01*
X1134992Y427485D01*
X1135077Y427429D01*
X1135164Y427377D01*
X1135252Y427328D01*
X1135343Y427282D01*
X1135435Y427240D01*
X1135528Y427201D01*
X1135623Y427166D01*
X1135720Y427134D01*
X1135817Y427106D01*
X1135915Y427082D01*
X1136014Y427061D01*
X1136114Y427044D01*
X1136215Y427031D01*
X1136316Y427022D01*
X1136417Y427016D01*
X1136518Y427014D01*
X1136518Y427013D02*
X1140130Y427013D01*
X1124182Y432432D02*
X1119667Y432432D01*
X1124182Y432432D02*
X1124283Y432434D01*
X1124384Y432440D01*
X1124485Y432449D01*
X1124586Y432462D01*
X1124686Y432479D01*
X1124785Y432500D01*
X1124883Y432524D01*
X1124980Y432552D01*
X1125077Y432584D01*
X1125172Y432619D01*
X1125265Y432658D01*
X1125357Y432700D01*
X1125448Y432746D01*
X1125537Y432795D01*
X1125623Y432847D01*
X1125708Y432903D01*
X1125791Y432961D01*
X1125871Y433023D01*
X1125949Y433088D01*
X1126025Y433155D01*
X1126098Y433225D01*
X1126168Y433298D01*
X1126235Y433374D01*
X1126300Y433452D01*
X1126362Y433532D01*
X1126420Y433615D01*
X1126476Y433700D01*
X1126528Y433787D01*
X1126577Y433875D01*
X1126623Y433966D01*
X1126665Y434058D01*
X1126704Y434151D01*
X1126739Y434246D01*
X1126771Y434343D01*
X1126799Y434440D01*
X1126823Y434538D01*
X1126844Y434637D01*
X1126861Y434737D01*
X1126874Y434838D01*
X1126883Y434939D01*
X1126889Y435040D01*
X1126891Y435141D01*
X1126892Y435141D02*
X1126892Y439657D01*
X1126891Y439657D02*
X1126889Y439776D01*
X1126883Y439896D01*
X1126873Y440015D01*
X1126859Y440133D01*
X1126842Y440252D01*
X1126820Y440369D01*
X1126795Y440486D01*
X1126765Y440601D01*
X1126732Y440716D01*
X1126695Y440830D01*
X1126655Y440942D01*
X1126610Y441053D01*
X1126562Y441162D01*
X1126511Y441270D01*
X1126456Y441376D01*
X1126397Y441480D01*
X1126335Y441582D01*
X1126270Y441682D01*
X1126201Y441780D01*
X1126129Y441876D01*
X1126054Y441969D01*
X1125977Y442059D01*
X1125896Y442147D01*
X1125812Y442232D01*
X1125725Y442314D01*
X1125636Y442394D01*
X1125544Y442470D01*
X1125450Y442544D01*
X1125353Y442614D01*
X1125255Y442681D01*
X1125154Y442745D01*
X1125050Y442805D01*
X1124945Y442862D01*
X1124838Y442915D01*
X1124730Y442965D01*
X1124620Y443011D01*
X1124508Y443053D01*
X1124395Y443092D01*
X1124281Y443127D01*
X1124166Y443158D01*
X1124049Y443186D01*
X1123932Y443209D01*
X1123815Y443229D01*
X1123696Y443245D01*
X1123577Y443257D01*
X1123458Y443265D01*
X1123339Y443269D01*
X1123219Y443269D01*
X1123100Y443265D01*
X1122981Y443257D01*
X1122862Y443245D01*
X1122743Y443229D01*
X1122626Y443209D01*
X1122509Y443186D01*
X1122392Y443158D01*
X1122277Y443127D01*
X1122163Y443092D01*
X1122050Y443053D01*
X1121938Y443011D01*
X1121828Y442965D01*
X1121720Y442915D01*
X1121613Y442862D01*
X1121508Y442805D01*
X1121404Y442745D01*
X1121303Y442681D01*
X1121205Y442614D01*
X1121108Y442544D01*
X1121014Y442470D01*
X1120922Y442394D01*
X1120833Y442314D01*
X1120746Y442232D01*
X1120662Y442147D01*
X1120581Y442059D01*
X1120504Y441969D01*
X1120429Y441876D01*
X1120357Y441780D01*
X1120288Y441682D01*
X1120223Y441582D01*
X1120161Y441480D01*
X1120102Y441376D01*
X1120047Y441270D01*
X1119996Y441162D01*
X1119948Y441053D01*
X1119903Y440942D01*
X1119863Y440830D01*
X1119826Y440716D01*
X1119793Y440601D01*
X1119763Y440486D01*
X1119738Y440369D01*
X1119716Y440252D01*
X1119699Y440133D01*
X1119685Y440015D01*
X1119675Y439896D01*
X1119669Y439776D01*
X1119667Y439657D01*
X1119667Y437851D01*
X1126892Y437851D01*
X1104137Y441463D02*
X1099621Y441463D01*
X1099621Y441464D02*
X1099488Y441462D01*
X1099356Y441456D01*
X1099224Y441446D01*
X1099092Y441433D01*
X1098960Y441415D01*
X1098830Y441394D01*
X1098699Y441369D01*
X1098570Y441340D01*
X1098442Y441307D01*
X1098314Y441271D01*
X1098188Y441231D01*
X1098063Y441187D01*
X1097939Y441139D01*
X1097817Y441088D01*
X1097696Y441033D01*
X1097577Y440975D01*
X1097459Y440913D01*
X1097344Y440848D01*
X1097230Y440779D01*
X1097119Y440708D01*
X1097010Y440632D01*
X1096903Y440554D01*
X1096798Y440473D01*
X1096696Y440388D01*
X1096596Y440301D01*
X1096499Y440211D01*
X1096404Y440118D01*
X1096313Y440022D01*
X1096224Y439924D01*
X1096138Y439823D01*
X1096055Y439719D01*
X1095975Y439613D01*
X1095899Y439505D01*
X1095825Y439395D01*
X1095755Y439282D01*
X1095688Y439168D01*
X1095625Y439051D01*
X1095565Y438933D01*
X1095508Y438813D01*
X1095455Y438691D01*
X1095406Y438568D01*
X1095360Y438444D01*
X1095318Y438318D01*
X1095280Y438191D01*
X1095245Y438063D01*
X1095214Y437934D01*
X1095187Y437805D01*
X1095164Y437674D01*
X1095144Y437543D01*
X1095129Y437411D01*
X1095117Y437279D01*
X1095109Y437147D01*
X1095105Y437014D01*
X1095105Y436882D01*
X1095109Y436749D01*
X1095117Y436617D01*
X1095129Y436485D01*
X1095144Y436353D01*
X1095164Y436222D01*
X1095187Y436091D01*
X1095214Y435962D01*
X1095245Y435833D01*
X1095280Y435705D01*
X1095318Y435578D01*
X1095360Y435452D01*
X1095406Y435328D01*
X1095455Y435205D01*
X1095508Y435083D01*
X1095565Y434963D01*
X1095625Y434845D01*
X1095688Y434728D01*
X1095755Y434614D01*
X1095825Y434501D01*
X1095899Y434391D01*
X1095975Y434283D01*
X1096055Y434177D01*
X1096138Y434073D01*
X1096224Y433972D01*
X1096313Y433874D01*
X1096404Y433778D01*
X1096499Y433685D01*
X1096596Y433595D01*
X1096696Y433508D01*
X1096798Y433423D01*
X1096903Y433342D01*
X1097010Y433264D01*
X1097119Y433188D01*
X1097230Y433117D01*
X1097344Y433048D01*
X1097459Y432983D01*
X1097577Y432921D01*
X1097696Y432863D01*
X1097817Y432808D01*
X1097939Y432757D01*
X1098063Y432709D01*
X1098188Y432665D01*
X1098314Y432625D01*
X1098442Y432589D01*
X1098570Y432556D01*
X1098699Y432527D01*
X1098830Y432502D01*
X1098960Y432481D01*
X1099092Y432463D01*
X1099224Y432450D01*
X1099356Y432440D01*
X1099488Y432434D01*
X1099621Y432432D01*
X1104137Y432432D01*
X1104137Y448688D01*
X1099621Y448688D01*
X1099502Y448686D01*
X1099382Y448680D01*
X1099263Y448670D01*
X1099145Y448656D01*
X1099026Y448639D01*
X1098909Y448617D01*
X1098792Y448592D01*
X1098677Y448562D01*
X1098562Y448529D01*
X1098448Y448492D01*
X1098336Y448452D01*
X1098225Y448407D01*
X1098116Y448359D01*
X1098008Y448308D01*
X1097902Y448253D01*
X1097798Y448194D01*
X1097696Y448132D01*
X1097596Y448067D01*
X1097498Y447998D01*
X1097402Y447926D01*
X1097309Y447851D01*
X1097219Y447774D01*
X1097131Y447693D01*
X1097046Y447609D01*
X1096964Y447522D01*
X1096884Y447433D01*
X1096808Y447341D01*
X1096734Y447247D01*
X1096664Y447150D01*
X1096597Y447052D01*
X1096533Y446951D01*
X1096473Y446847D01*
X1096416Y446742D01*
X1096363Y446635D01*
X1096313Y446527D01*
X1096267Y446417D01*
X1096225Y446305D01*
X1096186Y446192D01*
X1096151Y446078D01*
X1096120Y445963D01*
X1096092Y445846D01*
X1096069Y445729D01*
X1096049Y445612D01*
X1096033Y445493D01*
X1096021Y445374D01*
X1096013Y445255D01*
X1096009Y445136D01*
X1096009Y445016D01*
X1096013Y444897D01*
X1096021Y444778D01*
X1096033Y444659D01*
X1096049Y444540D01*
X1096069Y444423D01*
X1096092Y444306D01*
X1096120Y444189D01*
X1096151Y444074D01*
X1096186Y443960D01*
X1096225Y443847D01*
X1096267Y443735D01*
X1096313Y443625D01*
X1096363Y443517D01*
X1096416Y443410D01*
X1096473Y443305D01*
X1096533Y443201D01*
X1096597Y443100D01*
X1096664Y443002D01*
X1096734Y442905D01*
X1096808Y442811D01*
X1096884Y442719D01*
X1096964Y442630D01*
X1097046Y442543D01*
X1097131Y442459D01*
X1097219Y442378D01*
X1097309Y442301D01*
X1097402Y442226D01*
X1097498Y442154D01*
X1097596Y442085D01*
X1097696Y442020D01*
X1097798Y441958D01*
X1097902Y441899D01*
X1098008Y441844D01*
X1098116Y441793D01*
X1098225Y441745D01*
X1098336Y441700D01*
X1098448Y441660D01*
X1098562Y441623D01*
X1098677Y441590D01*
X1098792Y441560D01*
X1098909Y441535D01*
X1099026Y441513D01*
X1099145Y441496D01*
X1099263Y441482D01*
X1099382Y441472D01*
X1099502Y441466D01*
X1099621Y441464D01*
X1089377Y439657D02*
X1089377Y436044D01*
X1089376Y439657D02*
X1089374Y439776D01*
X1089368Y439896D01*
X1089358Y440015D01*
X1089344Y440133D01*
X1089327Y440252D01*
X1089305Y440369D01*
X1089280Y440486D01*
X1089250Y440601D01*
X1089217Y440716D01*
X1089180Y440830D01*
X1089140Y440942D01*
X1089095Y441053D01*
X1089047Y441162D01*
X1088996Y441270D01*
X1088941Y441376D01*
X1088882Y441480D01*
X1088820Y441582D01*
X1088755Y441682D01*
X1088686Y441780D01*
X1088614Y441876D01*
X1088539Y441969D01*
X1088462Y442059D01*
X1088381Y442147D01*
X1088297Y442232D01*
X1088210Y442314D01*
X1088121Y442394D01*
X1088029Y442470D01*
X1087935Y442544D01*
X1087838Y442614D01*
X1087740Y442681D01*
X1087639Y442745D01*
X1087535Y442805D01*
X1087430Y442862D01*
X1087323Y442915D01*
X1087215Y442965D01*
X1087105Y443011D01*
X1086993Y443053D01*
X1086880Y443092D01*
X1086766Y443127D01*
X1086651Y443158D01*
X1086534Y443186D01*
X1086417Y443209D01*
X1086300Y443229D01*
X1086181Y443245D01*
X1086062Y443257D01*
X1085943Y443265D01*
X1085824Y443269D01*
X1085704Y443269D01*
X1085585Y443265D01*
X1085466Y443257D01*
X1085347Y443245D01*
X1085228Y443229D01*
X1085111Y443209D01*
X1084994Y443186D01*
X1084877Y443158D01*
X1084762Y443127D01*
X1084648Y443092D01*
X1084535Y443053D01*
X1084423Y443011D01*
X1084313Y442965D01*
X1084205Y442915D01*
X1084098Y442862D01*
X1083993Y442805D01*
X1083889Y442745D01*
X1083788Y442681D01*
X1083690Y442614D01*
X1083593Y442544D01*
X1083499Y442470D01*
X1083407Y442394D01*
X1083318Y442314D01*
X1083231Y442232D01*
X1083147Y442147D01*
X1083066Y442059D01*
X1082989Y441969D01*
X1082914Y441876D01*
X1082842Y441780D01*
X1082773Y441682D01*
X1082708Y441582D01*
X1082646Y441480D01*
X1082587Y441376D01*
X1082532Y441270D01*
X1082481Y441162D01*
X1082433Y441053D01*
X1082388Y440942D01*
X1082348Y440830D01*
X1082311Y440716D01*
X1082278Y440601D01*
X1082248Y440486D01*
X1082223Y440369D01*
X1082201Y440252D01*
X1082184Y440133D01*
X1082170Y440015D01*
X1082160Y439896D01*
X1082154Y439776D01*
X1082152Y439657D01*
X1082152Y436044D01*
X1082154Y435925D01*
X1082160Y435805D01*
X1082170Y435686D01*
X1082184Y435568D01*
X1082201Y435449D01*
X1082223Y435332D01*
X1082248Y435215D01*
X1082278Y435100D01*
X1082311Y434985D01*
X1082348Y434871D01*
X1082388Y434759D01*
X1082433Y434648D01*
X1082481Y434539D01*
X1082532Y434431D01*
X1082587Y434325D01*
X1082646Y434221D01*
X1082708Y434119D01*
X1082773Y434019D01*
X1082842Y433921D01*
X1082914Y433825D01*
X1082989Y433732D01*
X1083066Y433642D01*
X1083147Y433554D01*
X1083231Y433469D01*
X1083318Y433387D01*
X1083407Y433307D01*
X1083499Y433231D01*
X1083593Y433157D01*
X1083690Y433087D01*
X1083788Y433020D01*
X1083889Y432956D01*
X1083993Y432896D01*
X1084098Y432839D01*
X1084205Y432786D01*
X1084313Y432736D01*
X1084423Y432690D01*
X1084535Y432648D01*
X1084648Y432609D01*
X1084762Y432574D01*
X1084877Y432543D01*
X1084994Y432515D01*
X1085111Y432492D01*
X1085228Y432472D01*
X1085347Y432456D01*
X1085466Y432444D01*
X1085585Y432436D01*
X1085704Y432432D01*
X1085824Y432432D01*
X1085943Y432436D01*
X1086062Y432444D01*
X1086181Y432456D01*
X1086300Y432472D01*
X1086417Y432492D01*
X1086534Y432515D01*
X1086651Y432543D01*
X1086766Y432574D01*
X1086880Y432609D01*
X1086993Y432648D01*
X1087105Y432690D01*
X1087215Y432736D01*
X1087323Y432786D01*
X1087430Y432839D01*
X1087535Y432896D01*
X1087639Y432956D01*
X1087740Y433020D01*
X1087838Y433087D01*
X1087935Y433157D01*
X1088029Y433231D01*
X1088121Y433307D01*
X1088210Y433387D01*
X1088297Y433469D01*
X1088381Y433554D01*
X1088462Y433642D01*
X1088539Y433732D01*
X1088614Y433825D01*
X1088686Y433921D01*
X1088755Y434019D01*
X1088820Y434119D01*
X1088882Y434221D01*
X1088941Y434325D01*
X1088996Y434431D01*
X1089047Y434539D01*
X1089095Y434648D01*
X1089140Y434759D01*
X1089180Y434871D01*
X1089217Y434985D01*
X1089250Y435100D01*
X1089280Y435215D01*
X1089305Y435332D01*
X1089327Y435449D01*
X1089344Y435568D01*
X1089358Y435686D01*
X1089368Y435805D01*
X1089374Y435925D01*
X1089376Y436044D01*
X1072742Y438754D02*
X1068678Y438754D01*
X1072742Y438754D02*
X1072854Y438752D01*
X1072965Y438746D01*
X1073076Y438736D01*
X1073187Y438723D01*
X1073297Y438705D01*
X1073406Y438683D01*
X1073515Y438658D01*
X1073623Y438629D01*
X1073729Y438596D01*
X1073835Y438559D01*
X1073939Y438519D01*
X1074041Y438475D01*
X1074142Y438427D01*
X1074241Y438376D01*
X1074339Y438321D01*
X1074434Y438263D01*
X1074527Y438202D01*
X1074618Y438137D01*
X1074707Y438069D01*
X1074793Y437998D01*
X1074876Y437925D01*
X1074957Y437848D01*
X1075036Y437768D01*
X1075111Y437686D01*
X1075183Y437601D01*
X1075253Y437514D01*
X1075319Y437424D01*
X1075382Y437332D01*
X1075442Y437237D01*
X1075498Y437141D01*
X1075551Y437043D01*
X1075600Y436943D01*
X1075646Y436841D01*
X1075688Y436738D01*
X1075727Y436633D01*
X1075762Y436527D01*
X1075793Y436420D01*
X1075820Y436312D01*
X1075844Y436203D01*
X1075863Y436093D01*
X1075879Y435983D01*
X1075891Y435872D01*
X1075899Y435760D01*
X1075903Y435649D01*
X1075903Y435537D01*
X1075899Y435426D01*
X1075891Y435314D01*
X1075879Y435203D01*
X1075863Y435093D01*
X1075844Y434983D01*
X1075820Y434874D01*
X1075793Y434766D01*
X1075762Y434659D01*
X1075727Y434553D01*
X1075688Y434448D01*
X1075646Y434345D01*
X1075600Y434243D01*
X1075551Y434143D01*
X1075498Y434045D01*
X1075442Y433949D01*
X1075382Y433854D01*
X1075319Y433762D01*
X1075253Y433672D01*
X1075183Y433585D01*
X1075111Y433500D01*
X1075036Y433418D01*
X1074957Y433338D01*
X1074876Y433261D01*
X1074793Y433188D01*
X1074707Y433117D01*
X1074618Y433049D01*
X1074527Y432984D01*
X1074434Y432923D01*
X1074339Y432865D01*
X1074241Y432810D01*
X1074142Y432759D01*
X1074041Y432711D01*
X1073939Y432667D01*
X1073835Y432627D01*
X1073729Y432590D01*
X1073623Y432557D01*
X1073515Y432528D01*
X1073406Y432503D01*
X1073297Y432481D01*
X1073187Y432463D01*
X1073076Y432450D01*
X1072965Y432440D01*
X1072854Y432434D01*
X1072742Y432432D01*
X1068678Y432432D01*
X1068678Y440560D01*
X1068680Y440661D01*
X1068686Y440762D01*
X1068695Y440863D01*
X1068708Y440964D01*
X1068725Y441064D01*
X1068746Y441163D01*
X1068770Y441261D01*
X1068798Y441358D01*
X1068830Y441455D01*
X1068865Y441550D01*
X1068904Y441643D01*
X1068946Y441735D01*
X1068992Y441826D01*
X1069041Y441915D01*
X1069093Y442001D01*
X1069149Y442086D01*
X1069207Y442169D01*
X1069269Y442249D01*
X1069334Y442327D01*
X1069401Y442403D01*
X1069471Y442476D01*
X1069544Y442546D01*
X1069620Y442613D01*
X1069698Y442678D01*
X1069778Y442740D01*
X1069861Y442798D01*
X1069946Y442854D01*
X1070033Y442906D01*
X1070121Y442955D01*
X1070212Y443001D01*
X1070304Y443043D01*
X1070397Y443082D01*
X1070492Y443117D01*
X1070589Y443149D01*
X1070686Y443177D01*
X1070784Y443201D01*
X1070883Y443222D01*
X1070983Y443239D01*
X1071084Y443252D01*
X1071185Y443261D01*
X1071286Y443267D01*
X1071387Y443269D01*
X1075000Y443269D01*
X1061156Y443269D02*
X1061156Y432432D01*
X1061156Y443269D02*
X1055737Y443269D01*
X1055737Y441463D01*
X1043668Y448688D02*
X1043668Y432432D01*
X1048184Y432432D01*
X1048285Y432434D01*
X1048386Y432440D01*
X1048487Y432449D01*
X1048588Y432462D01*
X1048688Y432479D01*
X1048787Y432500D01*
X1048885Y432524D01*
X1048982Y432552D01*
X1049079Y432584D01*
X1049174Y432619D01*
X1049267Y432658D01*
X1049359Y432700D01*
X1049450Y432746D01*
X1049539Y432795D01*
X1049625Y432847D01*
X1049710Y432903D01*
X1049793Y432961D01*
X1049873Y433023D01*
X1049951Y433088D01*
X1050027Y433155D01*
X1050100Y433225D01*
X1050170Y433298D01*
X1050237Y433374D01*
X1050302Y433452D01*
X1050364Y433532D01*
X1050422Y433615D01*
X1050478Y433700D01*
X1050530Y433787D01*
X1050579Y433875D01*
X1050625Y433966D01*
X1050667Y434058D01*
X1050706Y434151D01*
X1050741Y434246D01*
X1050773Y434343D01*
X1050801Y434440D01*
X1050825Y434538D01*
X1050846Y434637D01*
X1050863Y434737D01*
X1050876Y434838D01*
X1050885Y434939D01*
X1050891Y435040D01*
X1050893Y435141D01*
X1050893Y440560D01*
X1050891Y440661D01*
X1050885Y440762D01*
X1050876Y440863D01*
X1050863Y440964D01*
X1050846Y441064D01*
X1050825Y441163D01*
X1050801Y441261D01*
X1050773Y441358D01*
X1050741Y441455D01*
X1050706Y441550D01*
X1050667Y441643D01*
X1050625Y441735D01*
X1050579Y441826D01*
X1050530Y441915D01*
X1050478Y442001D01*
X1050422Y442086D01*
X1050364Y442169D01*
X1050302Y442249D01*
X1050237Y442327D01*
X1050170Y442403D01*
X1050100Y442476D01*
X1050027Y442546D01*
X1049951Y442613D01*
X1049873Y442678D01*
X1049793Y442740D01*
X1049710Y442798D01*
X1049625Y442854D01*
X1049539Y442906D01*
X1049450Y442955D01*
X1049359Y443001D01*
X1049267Y443043D01*
X1049174Y443082D01*
X1049079Y443117D01*
X1048982Y443149D01*
X1048885Y443177D01*
X1048787Y443201D01*
X1048688Y443222D01*
X1048588Y443239D01*
X1048487Y443252D01*
X1048386Y443261D01*
X1048285Y443267D01*
X1048184Y443269D01*
X1043668Y443269D01*
X1439238Y422018D02*
X1439238Y405762D01*
X1439238Y422018D02*
X1434722Y422018D01*
X1434591Y422016D01*
X1434459Y422010D01*
X1434328Y422001D01*
X1434198Y421987D01*
X1434067Y421970D01*
X1433938Y421949D01*
X1433809Y421925D01*
X1433681Y421896D01*
X1433553Y421864D01*
X1433427Y421828D01*
X1433302Y421789D01*
X1433177Y421746D01*
X1433055Y421699D01*
X1432933Y421649D01*
X1432813Y421595D01*
X1432695Y421538D01*
X1432579Y421477D01*
X1432464Y421413D01*
X1432351Y421346D01*
X1432240Y421275D01*
X1432132Y421201D01*
X1432025Y421124D01*
X1431921Y421044D01*
X1431819Y420961D01*
X1431720Y420876D01*
X1431623Y420787D01*
X1431529Y420695D01*
X1431437Y420601D01*
X1431348Y420504D01*
X1431263Y420405D01*
X1431180Y420303D01*
X1431100Y420199D01*
X1431023Y420092D01*
X1430949Y419984D01*
X1430878Y419873D01*
X1430811Y419760D01*
X1430747Y419645D01*
X1430686Y419529D01*
X1430629Y419411D01*
X1430575Y419291D01*
X1430525Y419169D01*
X1430478Y419047D01*
X1430435Y418922D01*
X1430396Y418797D01*
X1430360Y418671D01*
X1430328Y418543D01*
X1430299Y418415D01*
X1430275Y418286D01*
X1430254Y418157D01*
X1430237Y418026D01*
X1430223Y417896D01*
X1430214Y417765D01*
X1430208Y417633D01*
X1430206Y417502D01*
X1430207Y417502D02*
X1430207Y410278D01*
X1430206Y410278D02*
X1430208Y410147D01*
X1430214Y410015D01*
X1430223Y409884D01*
X1430237Y409754D01*
X1430254Y409623D01*
X1430275Y409494D01*
X1430299Y409365D01*
X1430328Y409237D01*
X1430360Y409109D01*
X1430396Y408983D01*
X1430435Y408858D01*
X1430478Y408733D01*
X1430525Y408611D01*
X1430575Y408489D01*
X1430629Y408369D01*
X1430686Y408251D01*
X1430747Y408135D01*
X1430811Y408020D01*
X1430878Y407907D01*
X1430949Y407796D01*
X1431023Y407688D01*
X1431100Y407581D01*
X1431180Y407477D01*
X1431263Y407375D01*
X1431348Y407276D01*
X1431437Y407179D01*
X1431529Y407085D01*
X1431623Y406993D01*
X1431720Y406904D01*
X1431819Y406819D01*
X1431921Y406736D01*
X1432025Y406656D01*
X1432132Y406579D01*
X1432240Y406505D01*
X1432351Y406434D01*
X1432464Y406367D01*
X1432579Y406303D01*
X1432695Y406242D01*
X1432813Y406185D01*
X1432933Y406131D01*
X1433055Y406081D01*
X1433177Y406034D01*
X1433302Y405991D01*
X1433427Y405952D01*
X1433553Y405916D01*
X1433681Y405884D01*
X1433809Y405855D01*
X1433938Y405831D01*
X1434067Y405810D01*
X1434198Y405793D01*
X1434328Y405779D01*
X1434459Y405770D01*
X1434591Y405764D01*
X1434722Y405762D01*
X1439238Y405762D01*
X1423260Y405762D02*
X1423260Y416599D01*
X1423711Y421115D02*
X1423711Y422018D01*
X1422808Y422018D01*
X1422808Y421115D01*
X1423711Y421115D01*
X1415618Y412084D02*
X1411102Y410278D01*
X1415618Y412084D02*
X1415706Y412121D01*
X1415792Y412162D01*
X1415877Y412206D01*
X1415960Y412254D01*
X1416040Y412305D01*
X1416119Y412359D01*
X1416195Y412417D01*
X1416269Y412477D01*
X1416341Y412541D01*
X1416409Y412607D01*
X1416475Y412677D01*
X1416538Y412748D01*
X1416599Y412823D01*
X1416656Y412899D01*
X1416709Y412978D01*
X1416760Y413059D01*
X1416807Y413142D01*
X1416851Y413227D01*
X1416891Y413314D01*
X1416928Y413402D01*
X1416961Y413492D01*
X1416991Y413583D01*
X1417016Y413675D01*
X1417038Y413768D01*
X1417056Y413862D01*
X1417071Y413956D01*
X1417081Y414051D01*
X1417087Y414147D01*
X1417090Y414242D01*
X1417089Y414338D01*
X1417083Y414433D01*
X1417074Y414529D01*
X1417061Y414623D01*
X1417045Y414717D01*
X1417024Y414811D01*
X1416999Y414903D01*
X1416971Y414994D01*
X1416939Y415084D01*
X1416904Y415173D01*
X1416865Y415260D01*
X1416822Y415346D01*
X1416776Y415430D01*
X1416726Y415511D01*
X1416674Y415591D01*
X1416618Y415669D01*
X1416558Y415744D01*
X1416496Y415816D01*
X1416431Y415886D01*
X1416363Y415954D01*
X1416293Y416018D01*
X1416220Y416080D01*
X1416144Y416138D01*
X1416066Y416194D01*
X1415986Y416246D01*
X1415904Y416295D01*
X1415820Y416340D01*
X1415734Y416382D01*
X1415647Y416421D01*
X1415558Y416456D01*
X1415467Y416487D01*
X1415376Y416514D01*
X1415283Y416538D01*
X1415190Y416558D01*
X1415096Y416574D01*
X1415001Y416586D01*
X1414906Y416595D01*
X1414810Y416599D01*
X1414715Y416600D01*
X1414468Y416593D01*
X1414222Y416581D01*
X1413976Y416563D01*
X1413730Y416538D01*
X1413486Y416508D01*
X1413242Y416472D01*
X1412999Y416431D01*
X1412757Y416383D01*
X1412516Y416329D01*
X1412277Y416270D01*
X1412039Y416205D01*
X1411803Y416134D01*
X1411568Y416058D01*
X1411335Y415976D01*
X1411105Y415888D01*
X1410877Y415795D01*
X1410650Y415697D01*
X1411102Y410277D02*
X1411014Y410240D01*
X1410928Y410199D01*
X1410843Y410155D01*
X1410760Y410107D01*
X1410680Y410056D01*
X1410601Y410002D01*
X1410525Y409944D01*
X1410451Y409884D01*
X1410379Y409820D01*
X1410311Y409754D01*
X1410245Y409684D01*
X1410182Y409613D01*
X1410121Y409538D01*
X1410064Y409462D01*
X1410011Y409383D01*
X1409960Y409302D01*
X1409913Y409219D01*
X1409869Y409134D01*
X1409829Y409047D01*
X1409792Y408959D01*
X1409759Y408869D01*
X1409729Y408778D01*
X1409704Y408686D01*
X1409682Y408593D01*
X1409664Y408499D01*
X1409649Y408405D01*
X1409639Y408310D01*
X1409633Y408214D01*
X1409630Y408119D01*
X1409631Y408023D01*
X1409637Y407928D01*
X1409646Y407832D01*
X1409659Y407738D01*
X1409675Y407644D01*
X1409696Y407550D01*
X1409721Y407458D01*
X1409749Y407367D01*
X1409781Y407277D01*
X1409816Y407188D01*
X1409855Y407101D01*
X1409898Y407015D01*
X1409944Y406931D01*
X1409994Y406850D01*
X1410046Y406770D01*
X1410102Y406692D01*
X1410162Y406617D01*
X1410224Y406545D01*
X1410289Y406475D01*
X1410357Y406407D01*
X1410427Y406343D01*
X1410500Y406281D01*
X1410576Y406223D01*
X1410654Y406167D01*
X1410734Y406115D01*
X1410816Y406066D01*
X1410900Y406021D01*
X1410986Y405979D01*
X1411073Y405940D01*
X1411162Y405905D01*
X1411253Y405874D01*
X1411344Y405847D01*
X1411437Y405823D01*
X1411530Y405803D01*
X1411624Y405787D01*
X1411719Y405775D01*
X1411814Y405766D01*
X1411910Y405762D01*
X1412005Y405761D01*
X1412005Y405762D02*
X1412367Y405771D01*
X1412729Y405789D01*
X1413090Y405816D01*
X1413450Y405851D01*
X1413810Y405894D01*
X1414169Y405946D01*
X1414526Y406007D01*
X1414881Y406076D01*
X1415235Y406153D01*
X1415587Y406239D01*
X1415937Y406333D01*
X1416285Y406436D01*
X1416630Y406546D01*
X1416972Y406665D01*
X1400698Y405762D02*
X1397086Y405762D01*
X1400698Y405762D02*
X1400799Y405764D01*
X1400900Y405770D01*
X1401001Y405779D01*
X1401102Y405792D01*
X1401202Y405809D01*
X1401301Y405830D01*
X1401399Y405854D01*
X1401496Y405882D01*
X1401593Y405914D01*
X1401688Y405949D01*
X1401781Y405988D01*
X1401873Y406030D01*
X1401964Y406076D01*
X1402053Y406125D01*
X1402139Y406177D01*
X1402224Y406233D01*
X1402307Y406291D01*
X1402387Y406353D01*
X1402465Y406418D01*
X1402541Y406485D01*
X1402614Y406555D01*
X1402684Y406628D01*
X1402751Y406704D01*
X1402816Y406782D01*
X1402878Y406862D01*
X1402936Y406945D01*
X1402992Y407030D01*
X1403044Y407117D01*
X1403093Y407205D01*
X1403139Y407296D01*
X1403181Y407388D01*
X1403220Y407481D01*
X1403255Y407576D01*
X1403287Y407673D01*
X1403315Y407770D01*
X1403339Y407868D01*
X1403360Y407967D01*
X1403377Y408067D01*
X1403390Y408168D01*
X1403399Y408269D01*
X1403405Y408370D01*
X1403407Y408471D01*
X1403408Y408471D02*
X1403408Y413890D01*
X1403407Y413890D02*
X1403405Y413991D01*
X1403399Y414092D01*
X1403390Y414193D01*
X1403377Y414294D01*
X1403360Y414394D01*
X1403339Y414493D01*
X1403315Y414591D01*
X1403287Y414688D01*
X1403255Y414785D01*
X1403220Y414880D01*
X1403181Y414973D01*
X1403139Y415065D01*
X1403093Y415156D01*
X1403044Y415245D01*
X1402992Y415331D01*
X1402936Y415416D01*
X1402878Y415499D01*
X1402816Y415579D01*
X1402751Y415657D01*
X1402684Y415733D01*
X1402614Y415806D01*
X1402541Y415876D01*
X1402465Y415943D01*
X1402387Y416008D01*
X1402307Y416070D01*
X1402224Y416128D01*
X1402139Y416184D01*
X1402053Y416236D01*
X1401964Y416285D01*
X1401873Y416331D01*
X1401781Y416373D01*
X1401688Y416412D01*
X1401593Y416447D01*
X1401496Y416479D01*
X1401399Y416507D01*
X1401301Y416531D01*
X1401202Y416552D01*
X1401102Y416569D01*
X1401001Y416582D01*
X1400900Y416591D01*
X1400799Y416597D01*
X1400698Y416599D01*
X1397086Y416599D01*
X1390920Y422018D02*
X1390920Y405762D01*
X1390920Y416599D02*
X1386405Y416599D01*
X1386301Y416597D01*
X1386198Y416591D01*
X1386094Y416581D01*
X1385991Y416567D01*
X1385889Y416549D01*
X1385788Y416528D01*
X1385687Y416502D01*
X1385588Y416473D01*
X1385489Y416440D01*
X1385392Y416403D01*
X1385297Y416362D01*
X1385203Y416318D01*
X1385111Y416270D01*
X1385021Y416219D01*
X1384932Y416164D01*
X1384846Y416106D01*
X1384763Y416044D01*
X1384681Y415980D01*
X1384603Y415912D01*
X1384527Y415842D01*
X1384453Y415769D01*
X1384383Y415692D01*
X1384315Y415614D01*
X1384251Y415532D01*
X1384189Y415449D01*
X1384131Y415363D01*
X1384076Y415274D01*
X1384025Y415184D01*
X1383977Y415092D01*
X1383933Y414998D01*
X1383892Y414903D01*
X1383855Y414806D01*
X1383822Y414707D01*
X1383793Y414608D01*
X1383767Y414507D01*
X1383746Y414406D01*
X1383728Y414304D01*
X1383714Y414201D01*
X1383704Y414097D01*
X1383698Y413994D01*
X1383696Y413890D01*
X1383695Y413890D02*
X1383695Y405762D01*
X1373764Y412084D02*
X1369700Y412084D01*
X1373764Y412084D02*
X1373876Y412082D01*
X1373987Y412076D01*
X1374098Y412066D01*
X1374209Y412053D01*
X1374319Y412035D01*
X1374428Y412013D01*
X1374537Y411988D01*
X1374645Y411959D01*
X1374751Y411926D01*
X1374857Y411889D01*
X1374961Y411849D01*
X1375063Y411805D01*
X1375164Y411757D01*
X1375263Y411706D01*
X1375361Y411651D01*
X1375456Y411593D01*
X1375549Y411532D01*
X1375640Y411467D01*
X1375729Y411399D01*
X1375815Y411328D01*
X1375898Y411255D01*
X1375979Y411178D01*
X1376058Y411098D01*
X1376133Y411016D01*
X1376205Y410931D01*
X1376275Y410844D01*
X1376341Y410754D01*
X1376404Y410662D01*
X1376464Y410567D01*
X1376520Y410471D01*
X1376573Y410373D01*
X1376622Y410273D01*
X1376668Y410171D01*
X1376710Y410068D01*
X1376749Y409963D01*
X1376784Y409857D01*
X1376815Y409750D01*
X1376842Y409642D01*
X1376866Y409533D01*
X1376885Y409423D01*
X1376901Y409313D01*
X1376913Y409202D01*
X1376921Y409090D01*
X1376925Y408979D01*
X1376925Y408867D01*
X1376921Y408756D01*
X1376913Y408644D01*
X1376901Y408533D01*
X1376885Y408423D01*
X1376866Y408313D01*
X1376842Y408204D01*
X1376815Y408096D01*
X1376784Y407989D01*
X1376749Y407883D01*
X1376710Y407778D01*
X1376668Y407675D01*
X1376622Y407573D01*
X1376573Y407473D01*
X1376520Y407375D01*
X1376464Y407279D01*
X1376404Y407184D01*
X1376341Y407092D01*
X1376275Y407002D01*
X1376205Y406915D01*
X1376133Y406830D01*
X1376058Y406748D01*
X1375979Y406668D01*
X1375898Y406591D01*
X1375815Y406518D01*
X1375729Y406447D01*
X1375640Y406379D01*
X1375549Y406314D01*
X1375456Y406253D01*
X1375361Y406195D01*
X1375263Y406140D01*
X1375164Y406089D01*
X1375063Y406041D01*
X1374961Y405997D01*
X1374857Y405957D01*
X1374751Y405920D01*
X1374645Y405887D01*
X1374537Y405858D01*
X1374428Y405833D01*
X1374319Y405811D01*
X1374209Y405793D01*
X1374098Y405780D01*
X1373987Y405770D01*
X1373876Y405764D01*
X1373764Y405762D01*
X1369700Y405762D01*
X1369700Y413890D01*
X1369701Y413890D02*
X1369703Y413991D01*
X1369709Y414092D01*
X1369718Y414193D01*
X1369731Y414294D01*
X1369748Y414394D01*
X1369769Y414493D01*
X1369793Y414591D01*
X1369821Y414688D01*
X1369853Y414785D01*
X1369888Y414880D01*
X1369927Y414973D01*
X1369969Y415065D01*
X1370015Y415156D01*
X1370064Y415245D01*
X1370116Y415331D01*
X1370172Y415416D01*
X1370230Y415499D01*
X1370292Y415579D01*
X1370357Y415657D01*
X1370424Y415733D01*
X1370494Y415806D01*
X1370567Y415876D01*
X1370643Y415943D01*
X1370721Y416008D01*
X1370801Y416070D01*
X1370884Y416128D01*
X1370969Y416184D01*
X1371056Y416236D01*
X1371144Y416285D01*
X1371235Y416331D01*
X1371327Y416373D01*
X1371420Y416412D01*
X1371515Y416447D01*
X1371612Y416479D01*
X1371709Y416507D01*
X1371807Y416531D01*
X1371906Y416552D01*
X1372006Y416569D01*
X1372107Y416582D01*
X1372208Y416591D01*
X1372309Y416597D01*
X1372410Y416599D01*
X1376022Y416599D01*
X1362178Y416599D02*
X1362178Y405762D01*
X1362178Y416599D02*
X1356759Y416599D01*
X1356759Y414793D01*
X1349206Y405762D02*
X1344691Y405762D01*
X1349206Y405762D02*
X1349307Y405764D01*
X1349408Y405770D01*
X1349509Y405779D01*
X1349610Y405792D01*
X1349710Y405809D01*
X1349809Y405830D01*
X1349907Y405854D01*
X1350004Y405882D01*
X1350101Y405914D01*
X1350196Y405949D01*
X1350289Y405988D01*
X1350381Y406030D01*
X1350472Y406076D01*
X1350561Y406125D01*
X1350647Y406177D01*
X1350732Y406233D01*
X1350815Y406291D01*
X1350895Y406353D01*
X1350973Y406418D01*
X1351049Y406485D01*
X1351122Y406555D01*
X1351192Y406628D01*
X1351259Y406704D01*
X1351324Y406782D01*
X1351386Y406862D01*
X1351444Y406945D01*
X1351500Y407030D01*
X1351552Y407117D01*
X1351601Y407205D01*
X1351647Y407296D01*
X1351689Y407388D01*
X1351728Y407481D01*
X1351763Y407576D01*
X1351795Y407673D01*
X1351823Y407770D01*
X1351847Y407868D01*
X1351868Y407967D01*
X1351885Y408067D01*
X1351898Y408168D01*
X1351907Y408269D01*
X1351913Y408370D01*
X1351915Y408471D01*
X1351915Y413890D01*
X1351913Y413991D01*
X1351907Y414092D01*
X1351898Y414193D01*
X1351885Y414294D01*
X1351868Y414394D01*
X1351847Y414493D01*
X1351823Y414591D01*
X1351795Y414688D01*
X1351763Y414785D01*
X1351728Y414880D01*
X1351689Y414973D01*
X1351647Y415065D01*
X1351601Y415156D01*
X1351552Y415245D01*
X1351500Y415331D01*
X1351444Y415416D01*
X1351386Y415499D01*
X1351324Y415579D01*
X1351259Y415657D01*
X1351192Y415733D01*
X1351122Y415806D01*
X1351049Y415876D01*
X1350973Y415943D01*
X1350895Y416008D01*
X1350815Y416070D01*
X1350732Y416128D01*
X1350647Y416184D01*
X1350561Y416236D01*
X1350472Y416285D01*
X1350381Y416331D01*
X1350289Y416373D01*
X1350196Y416412D01*
X1350101Y416447D01*
X1350004Y416479D01*
X1349907Y416507D01*
X1349809Y416531D01*
X1349710Y416552D01*
X1349610Y416569D01*
X1349509Y416582D01*
X1349408Y416591D01*
X1349307Y416597D01*
X1349206Y416599D01*
X1344691Y416599D01*
X1344691Y403053D01*
X1344693Y402952D01*
X1344699Y402851D01*
X1344708Y402750D01*
X1344721Y402649D01*
X1344738Y402549D01*
X1344759Y402450D01*
X1344783Y402352D01*
X1344811Y402255D01*
X1344843Y402158D01*
X1344878Y402063D01*
X1344917Y401970D01*
X1344959Y401878D01*
X1345005Y401787D01*
X1345054Y401699D01*
X1345106Y401612D01*
X1345162Y401527D01*
X1345220Y401444D01*
X1345282Y401364D01*
X1345347Y401286D01*
X1345414Y401210D01*
X1345484Y401137D01*
X1345557Y401067D01*
X1345633Y401000D01*
X1345711Y400935D01*
X1345791Y400873D01*
X1345874Y400815D01*
X1345959Y400759D01*
X1346046Y400707D01*
X1346134Y400658D01*
X1346225Y400612D01*
X1346317Y400570D01*
X1346410Y400531D01*
X1346505Y400496D01*
X1346602Y400464D01*
X1346699Y400436D01*
X1346797Y400412D01*
X1346896Y400391D01*
X1346996Y400374D01*
X1347097Y400361D01*
X1347198Y400352D01*
X1347299Y400346D01*
X1347400Y400344D01*
X1347400Y400343D02*
X1351012Y400343D01*
X1335065Y405762D02*
X1330549Y405762D01*
X1335065Y405762D02*
X1335166Y405764D01*
X1335267Y405770D01*
X1335368Y405779D01*
X1335469Y405792D01*
X1335569Y405809D01*
X1335668Y405830D01*
X1335766Y405854D01*
X1335863Y405882D01*
X1335960Y405914D01*
X1336055Y405949D01*
X1336148Y405988D01*
X1336240Y406030D01*
X1336331Y406076D01*
X1336420Y406125D01*
X1336506Y406177D01*
X1336591Y406233D01*
X1336674Y406291D01*
X1336754Y406353D01*
X1336832Y406418D01*
X1336908Y406485D01*
X1336981Y406555D01*
X1337051Y406628D01*
X1337118Y406704D01*
X1337183Y406782D01*
X1337245Y406862D01*
X1337303Y406945D01*
X1337359Y407030D01*
X1337411Y407117D01*
X1337460Y407205D01*
X1337506Y407296D01*
X1337548Y407388D01*
X1337587Y407481D01*
X1337622Y407576D01*
X1337654Y407673D01*
X1337682Y407770D01*
X1337706Y407868D01*
X1337727Y407967D01*
X1337744Y408067D01*
X1337757Y408168D01*
X1337766Y408269D01*
X1337772Y408370D01*
X1337774Y408471D01*
X1337774Y412987D01*
X1337772Y413106D01*
X1337766Y413226D01*
X1337756Y413345D01*
X1337742Y413463D01*
X1337725Y413582D01*
X1337703Y413699D01*
X1337678Y413816D01*
X1337648Y413931D01*
X1337615Y414046D01*
X1337578Y414160D01*
X1337538Y414272D01*
X1337493Y414383D01*
X1337445Y414492D01*
X1337394Y414600D01*
X1337339Y414706D01*
X1337280Y414810D01*
X1337218Y414912D01*
X1337153Y415012D01*
X1337084Y415110D01*
X1337012Y415206D01*
X1336937Y415299D01*
X1336860Y415389D01*
X1336779Y415477D01*
X1336695Y415562D01*
X1336608Y415644D01*
X1336519Y415724D01*
X1336427Y415800D01*
X1336333Y415874D01*
X1336236Y415944D01*
X1336138Y416011D01*
X1336037Y416075D01*
X1335933Y416135D01*
X1335828Y416192D01*
X1335721Y416245D01*
X1335613Y416295D01*
X1335503Y416341D01*
X1335391Y416383D01*
X1335278Y416422D01*
X1335164Y416457D01*
X1335049Y416488D01*
X1334932Y416516D01*
X1334815Y416539D01*
X1334698Y416559D01*
X1334579Y416575D01*
X1334460Y416587D01*
X1334341Y416595D01*
X1334222Y416599D01*
X1334102Y416599D01*
X1333983Y416595D01*
X1333864Y416587D01*
X1333745Y416575D01*
X1333626Y416559D01*
X1333509Y416539D01*
X1333392Y416516D01*
X1333275Y416488D01*
X1333160Y416457D01*
X1333046Y416422D01*
X1332933Y416383D01*
X1332821Y416341D01*
X1332711Y416295D01*
X1332603Y416245D01*
X1332496Y416192D01*
X1332391Y416135D01*
X1332287Y416075D01*
X1332186Y416011D01*
X1332088Y415944D01*
X1331991Y415874D01*
X1331897Y415800D01*
X1331805Y415724D01*
X1331716Y415644D01*
X1331629Y415562D01*
X1331545Y415477D01*
X1331464Y415389D01*
X1331387Y415299D01*
X1331312Y415206D01*
X1331240Y415110D01*
X1331171Y415012D01*
X1331106Y414912D01*
X1331044Y414810D01*
X1330985Y414706D01*
X1330930Y414600D01*
X1330879Y414492D01*
X1330831Y414383D01*
X1330786Y414272D01*
X1330746Y414160D01*
X1330709Y414046D01*
X1330676Y413931D01*
X1330646Y413816D01*
X1330621Y413699D01*
X1330599Y413582D01*
X1330582Y413463D01*
X1330568Y413345D01*
X1330558Y413226D01*
X1330552Y413106D01*
X1330550Y412987D01*
X1330549Y412987D02*
X1330549Y411181D01*
X1337774Y411181D01*
X1315139Y405762D02*
X1315139Y422018D01*
X1310623Y422018D01*
X1310490Y422016D01*
X1310358Y422010D01*
X1310226Y422000D01*
X1310094Y421987D01*
X1309962Y421969D01*
X1309832Y421948D01*
X1309701Y421923D01*
X1309572Y421894D01*
X1309444Y421861D01*
X1309316Y421825D01*
X1309190Y421785D01*
X1309065Y421741D01*
X1308941Y421693D01*
X1308819Y421642D01*
X1308698Y421587D01*
X1308579Y421529D01*
X1308461Y421467D01*
X1308346Y421402D01*
X1308232Y421333D01*
X1308121Y421262D01*
X1308012Y421186D01*
X1307905Y421108D01*
X1307800Y421027D01*
X1307698Y420942D01*
X1307598Y420855D01*
X1307501Y420765D01*
X1307406Y420672D01*
X1307315Y420576D01*
X1307226Y420478D01*
X1307140Y420377D01*
X1307057Y420273D01*
X1306977Y420167D01*
X1306901Y420059D01*
X1306827Y419949D01*
X1306757Y419836D01*
X1306690Y419722D01*
X1306627Y419605D01*
X1306567Y419487D01*
X1306510Y419367D01*
X1306457Y419245D01*
X1306408Y419122D01*
X1306362Y418998D01*
X1306320Y418872D01*
X1306282Y418745D01*
X1306247Y418617D01*
X1306216Y418488D01*
X1306189Y418359D01*
X1306166Y418228D01*
X1306146Y418097D01*
X1306131Y417965D01*
X1306119Y417833D01*
X1306111Y417701D01*
X1306107Y417568D01*
X1306107Y417436D01*
X1306111Y417303D01*
X1306119Y417171D01*
X1306131Y417039D01*
X1306146Y416907D01*
X1306166Y416776D01*
X1306189Y416645D01*
X1306216Y416516D01*
X1306247Y416387D01*
X1306282Y416259D01*
X1306320Y416132D01*
X1306362Y416006D01*
X1306408Y415882D01*
X1306457Y415759D01*
X1306510Y415637D01*
X1306567Y415517D01*
X1306627Y415399D01*
X1306690Y415282D01*
X1306757Y415168D01*
X1306827Y415055D01*
X1306901Y414945D01*
X1306977Y414837D01*
X1307057Y414731D01*
X1307140Y414627D01*
X1307226Y414526D01*
X1307315Y414428D01*
X1307406Y414332D01*
X1307501Y414239D01*
X1307598Y414149D01*
X1307698Y414062D01*
X1307800Y413977D01*
X1307905Y413896D01*
X1308012Y413818D01*
X1308121Y413742D01*
X1308232Y413671D01*
X1308346Y413602D01*
X1308461Y413537D01*
X1308579Y413475D01*
X1308698Y413417D01*
X1308819Y413362D01*
X1308941Y413311D01*
X1309065Y413263D01*
X1309190Y413219D01*
X1309316Y413179D01*
X1309444Y413143D01*
X1309572Y413110D01*
X1309701Y413081D01*
X1309832Y413056D01*
X1309962Y413035D01*
X1310094Y413017D01*
X1310226Y413004D01*
X1310358Y412994D01*
X1310490Y412988D01*
X1310623Y412986D01*
X1310623Y412987D02*
X1315139Y412987D01*
X1309720Y412987D02*
X1306108Y405762D01*
X1291124Y409374D02*
X1280286Y409374D01*
X1280286Y414793D02*
X1291124Y414793D01*
X1260243Y422018D02*
X1260118Y422016D01*
X1259993Y422010D01*
X1259868Y422001D01*
X1259744Y421987D01*
X1259620Y421970D01*
X1259496Y421949D01*
X1259374Y421924D01*
X1259252Y421895D01*
X1259131Y421863D01*
X1259011Y421827D01*
X1258892Y421787D01*
X1258775Y421744D01*
X1258659Y421697D01*
X1258544Y421646D01*
X1258432Y421592D01*
X1258320Y421534D01*
X1258211Y421474D01*
X1258104Y421409D01*
X1257998Y421342D01*
X1257895Y421271D01*
X1257794Y421197D01*
X1257695Y421120D01*
X1257599Y421040D01*
X1257505Y420957D01*
X1257414Y420872D01*
X1257325Y420783D01*
X1257240Y420692D01*
X1257157Y420598D01*
X1257077Y420502D01*
X1257000Y420403D01*
X1256926Y420302D01*
X1256855Y420199D01*
X1256788Y420093D01*
X1256723Y419986D01*
X1256663Y419877D01*
X1256605Y419765D01*
X1256551Y419653D01*
X1256500Y419538D01*
X1256453Y419422D01*
X1256410Y419305D01*
X1256370Y419186D01*
X1256334Y419066D01*
X1256302Y418945D01*
X1256273Y418823D01*
X1256248Y418701D01*
X1256227Y418577D01*
X1256210Y418453D01*
X1256196Y418329D01*
X1256187Y418204D01*
X1256181Y418079D01*
X1256179Y417954D01*
X1260243Y422018D02*
X1260386Y422016D01*
X1260528Y422010D01*
X1260671Y422000D01*
X1260813Y421987D01*
X1260954Y421969D01*
X1261096Y421948D01*
X1261236Y421923D01*
X1261376Y421894D01*
X1261515Y421861D01*
X1261653Y421824D01*
X1261790Y421784D01*
X1261925Y421740D01*
X1262060Y421692D01*
X1262193Y421640D01*
X1262325Y421585D01*
X1262455Y421526D01*
X1262583Y421464D01*
X1262710Y421398D01*
X1262835Y421329D01*
X1262958Y421257D01*
X1263079Y421181D01*
X1263197Y421102D01*
X1263314Y421019D01*
X1263428Y420934D01*
X1263540Y420845D01*
X1263649Y420754D01*
X1263756Y420659D01*
X1263861Y420562D01*
X1263962Y420461D01*
X1264061Y420358D01*
X1264157Y420253D01*
X1264250Y420144D01*
X1264340Y420033D01*
X1264427Y419920D01*
X1264511Y419805D01*
X1264591Y419687D01*
X1264669Y419567D01*
X1264743Y419445D01*
X1264813Y419321D01*
X1264881Y419195D01*
X1264944Y419067D01*
X1265005Y418938D01*
X1265062Y418807D01*
X1265115Y418675D01*
X1265164Y418541D01*
X1265210Y418406D01*
X1257535Y414793D02*
X1257441Y414885D01*
X1257351Y414979D01*
X1257263Y415076D01*
X1257178Y415176D01*
X1257096Y415278D01*
X1257017Y415383D01*
X1256942Y415490D01*
X1256870Y415599D01*
X1256801Y415710D01*
X1256735Y415824D01*
X1256673Y415939D01*
X1256614Y416056D01*
X1256559Y416175D01*
X1256508Y416295D01*
X1256460Y416417D01*
X1256415Y416540D01*
X1256375Y416664D01*
X1256338Y416790D01*
X1256305Y416917D01*
X1256276Y417044D01*
X1256250Y417173D01*
X1256229Y417302D01*
X1256211Y417432D01*
X1256198Y417562D01*
X1256188Y417692D01*
X1256182Y417823D01*
X1256180Y417954D01*
X1257534Y414793D02*
X1265210Y405762D01*
X1256179Y405762D01*
X1250239Y405762D02*
X1243014Y416599D01*
X1250239Y416599D02*
X1243014Y405762D01*
X1223771Y422018D02*
X1223646Y422016D01*
X1223521Y422010D01*
X1223396Y422001D01*
X1223272Y421987D01*
X1223148Y421970D01*
X1223024Y421949D01*
X1222902Y421924D01*
X1222780Y421895D01*
X1222659Y421863D01*
X1222539Y421827D01*
X1222420Y421787D01*
X1222303Y421744D01*
X1222187Y421697D01*
X1222072Y421646D01*
X1221960Y421592D01*
X1221848Y421534D01*
X1221739Y421474D01*
X1221632Y421409D01*
X1221526Y421342D01*
X1221423Y421271D01*
X1221322Y421197D01*
X1221223Y421120D01*
X1221127Y421040D01*
X1221033Y420957D01*
X1220942Y420872D01*
X1220853Y420783D01*
X1220768Y420692D01*
X1220685Y420598D01*
X1220605Y420502D01*
X1220528Y420403D01*
X1220454Y420302D01*
X1220383Y420199D01*
X1220316Y420093D01*
X1220251Y419986D01*
X1220191Y419877D01*
X1220133Y419765D01*
X1220079Y419653D01*
X1220028Y419538D01*
X1219981Y419422D01*
X1219938Y419305D01*
X1219898Y419186D01*
X1219862Y419066D01*
X1219830Y418945D01*
X1219801Y418823D01*
X1219776Y418701D01*
X1219755Y418577D01*
X1219738Y418453D01*
X1219724Y418329D01*
X1219715Y418204D01*
X1219709Y418079D01*
X1219707Y417954D01*
X1223771Y422018D02*
X1223914Y422016D01*
X1224056Y422010D01*
X1224199Y422000D01*
X1224341Y421987D01*
X1224482Y421969D01*
X1224624Y421948D01*
X1224764Y421923D01*
X1224904Y421894D01*
X1225043Y421861D01*
X1225181Y421824D01*
X1225318Y421784D01*
X1225453Y421740D01*
X1225588Y421692D01*
X1225721Y421640D01*
X1225853Y421585D01*
X1225983Y421526D01*
X1226111Y421464D01*
X1226238Y421398D01*
X1226363Y421329D01*
X1226486Y421257D01*
X1226607Y421181D01*
X1226725Y421102D01*
X1226842Y421019D01*
X1226956Y420934D01*
X1227068Y420845D01*
X1227177Y420754D01*
X1227284Y420659D01*
X1227389Y420562D01*
X1227490Y420461D01*
X1227589Y420358D01*
X1227685Y420253D01*
X1227778Y420144D01*
X1227868Y420033D01*
X1227955Y419920D01*
X1228039Y419805D01*
X1228119Y419687D01*
X1228197Y419567D01*
X1228271Y419445D01*
X1228341Y419321D01*
X1228409Y419195D01*
X1228472Y419067D01*
X1228533Y418938D01*
X1228590Y418807D01*
X1228643Y418675D01*
X1228692Y418541D01*
X1228738Y418406D01*
X1221062Y414793D02*
X1220968Y414885D01*
X1220878Y414979D01*
X1220790Y415076D01*
X1220705Y415176D01*
X1220623Y415278D01*
X1220544Y415383D01*
X1220469Y415490D01*
X1220397Y415599D01*
X1220328Y415710D01*
X1220262Y415824D01*
X1220200Y415939D01*
X1220141Y416056D01*
X1220086Y416175D01*
X1220035Y416295D01*
X1219987Y416417D01*
X1219942Y416540D01*
X1219902Y416664D01*
X1219865Y416790D01*
X1219832Y416917D01*
X1219803Y417044D01*
X1219777Y417173D01*
X1219756Y417302D01*
X1219738Y417432D01*
X1219725Y417562D01*
X1219715Y417692D01*
X1219709Y417823D01*
X1219707Y417954D01*
X1221061Y414793D02*
X1228738Y405762D01*
X1219707Y405762D01*
X1204075Y417954D02*
X1204077Y418079D01*
X1204083Y418204D01*
X1204092Y418329D01*
X1204106Y418453D01*
X1204123Y418577D01*
X1204144Y418701D01*
X1204169Y418823D01*
X1204198Y418945D01*
X1204230Y419066D01*
X1204266Y419186D01*
X1204306Y419305D01*
X1204349Y419422D01*
X1204396Y419538D01*
X1204447Y419653D01*
X1204501Y419765D01*
X1204559Y419877D01*
X1204619Y419986D01*
X1204684Y420093D01*
X1204751Y420199D01*
X1204822Y420302D01*
X1204896Y420403D01*
X1204973Y420502D01*
X1205053Y420598D01*
X1205136Y420692D01*
X1205221Y420783D01*
X1205310Y420872D01*
X1205401Y420957D01*
X1205495Y421040D01*
X1205591Y421120D01*
X1205690Y421197D01*
X1205791Y421271D01*
X1205894Y421342D01*
X1206000Y421409D01*
X1206107Y421474D01*
X1206216Y421534D01*
X1206328Y421592D01*
X1206440Y421646D01*
X1206555Y421697D01*
X1206671Y421744D01*
X1206788Y421787D01*
X1206907Y421827D01*
X1207027Y421863D01*
X1207148Y421895D01*
X1207270Y421924D01*
X1207392Y421949D01*
X1207516Y421970D01*
X1207640Y421987D01*
X1207764Y422001D01*
X1207889Y422010D01*
X1208014Y422016D01*
X1208139Y422018D01*
X1208282Y422016D01*
X1208424Y422010D01*
X1208567Y422000D01*
X1208709Y421987D01*
X1208850Y421969D01*
X1208992Y421948D01*
X1209132Y421923D01*
X1209272Y421894D01*
X1209411Y421861D01*
X1209549Y421824D01*
X1209686Y421784D01*
X1209821Y421740D01*
X1209956Y421692D01*
X1210089Y421640D01*
X1210221Y421585D01*
X1210351Y421526D01*
X1210479Y421464D01*
X1210606Y421398D01*
X1210731Y421329D01*
X1210854Y421257D01*
X1210975Y421181D01*
X1211093Y421102D01*
X1211210Y421019D01*
X1211324Y420934D01*
X1211436Y420845D01*
X1211545Y420754D01*
X1211652Y420659D01*
X1211757Y420562D01*
X1211858Y420461D01*
X1211957Y420358D01*
X1212053Y420253D01*
X1212146Y420144D01*
X1212236Y420033D01*
X1212323Y419920D01*
X1212407Y419805D01*
X1212487Y419687D01*
X1212565Y419567D01*
X1212639Y419445D01*
X1212709Y419321D01*
X1212777Y419195D01*
X1212840Y419067D01*
X1212901Y418938D01*
X1212958Y418807D01*
X1213011Y418675D01*
X1213060Y418541D01*
X1213106Y418406D01*
X1205431Y414793D02*
X1205337Y414885D01*
X1205247Y414979D01*
X1205159Y415076D01*
X1205074Y415176D01*
X1204992Y415278D01*
X1204913Y415383D01*
X1204838Y415490D01*
X1204766Y415599D01*
X1204697Y415710D01*
X1204631Y415824D01*
X1204569Y415939D01*
X1204510Y416056D01*
X1204455Y416175D01*
X1204404Y416295D01*
X1204356Y416417D01*
X1204311Y416540D01*
X1204271Y416664D01*
X1204234Y416790D01*
X1204201Y416917D01*
X1204172Y417044D01*
X1204146Y417173D01*
X1204125Y417302D01*
X1204107Y417432D01*
X1204094Y417562D01*
X1204084Y417692D01*
X1204078Y417823D01*
X1204076Y417954D01*
X1205430Y414793D02*
X1213106Y405762D01*
X1204075Y405762D01*
X1197475Y413890D02*
X1197471Y414210D01*
X1197460Y414529D01*
X1197441Y414849D01*
X1197414Y415167D01*
X1197380Y415485D01*
X1197338Y415802D01*
X1197288Y416118D01*
X1197231Y416433D01*
X1197167Y416746D01*
X1197095Y417058D01*
X1197016Y417368D01*
X1196929Y417675D01*
X1196835Y417981D01*
X1196734Y418284D01*
X1196625Y418585D01*
X1196510Y418883D01*
X1196387Y419179D01*
X1196257Y419471D01*
X1196120Y419760D01*
X1196121Y419761D02*
X1196082Y419869D01*
X1196039Y419976D01*
X1195993Y420081D01*
X1195942Y420185D01*
X1195889Y420287D01*
X1195832Y420387D01*
X1195771Y420485D01*
X1195707Y420580D01*
X1195640Y420674D01*
X1195569Y420765D01*
X1195496Y420854D01*
X1195419Y420940D01*
X1195340Y421023D01*
X1195258Y421104D01*
X1195173Y421182D01*
X1195085Y421256D01*
X1194995Y421328D01*
X1194903Y421396D01*
X1194808Y421462D01*
X1194711Y421524D01*
X1194612Y421582D01*
X1194510Y421638D01*
X1194408Y421689D01*
X1194303Y421737D01*
X1194197Y421782D01*
X1194089Y421823D01*
X1193980Y421860D01*
X1193870Y421893D01*
X1193758Y421922D01*
X1193646Y421948D01*
X1193533Y421970D01*
X1193419Y421987D01*
X1193305Y422001D01*
X1193190Y422011D01*
X1193075Y422017D01*
X1192960Y422019D01*
X1192960Y422018D02*
X1192845Y422016D01*
X1192730Y422010D01*
X1192615Y422000D01*
X1192501Y421986D01*
X1192387Y421969D01*
X1192274Y421947D01*
X1192162Y421921D01*
X1192050Y421892D01*
X1191940Y421859D01*
X1191831Y421822D01*
X1191723Y421781D01*
X1191617Y421736D01*
X1191513Y421688D01*
X1191410Y421637D01*
X1191309Y421581D01*
X1191209Y421523D01*
X1191112Y421461D01*
X1191018Y421396D01*
X1190925Y421327D01*
X1190835Y421255D01*
X1190747Y421181D01*
X1190662Y421103D01*
X1190580Y421022D01*
X1190501Y420939D01*
X1190424Y420853D01*
X1190351Y420764D01*
X1190280Y420673D01*
X1190213Y420579D01*
X1190149Y420484D01*
X1190088Y420386D01*
X1190031Y420286D01*
X1189978Y420184D01*
X1189927Y420080D01*
X1189881Y419975D01*
X1189838Y419868D01*
X1189799Y419760D01*
X1189662Y419471D01*
X1189532Y419179D01*
X1189409Y418883D01*
X1189294Y418585D01*
X1189185Y418284D01*
X1189084Y417981D01*
X1188990Y417675D01*
X1188903Y417368D01*
X1188824Y417058D01*
X1188752Y416746D01*
X1188688Y416433D01*
X1188631Y416118D01*
X1188581Y415802D01*
X1188539Y415485D01*
X1188505Y415167D01*
X1188478Y414849D01*
X1188459Y414529D01*
X1188448Y414210D01*
X1188444Y413890D01*
X1197475Y413890D02*
X1197471Y413570D01*
X1197460Y413251D01*
X1197441Y412931D01*
X1197414Y412613D01*
X1197380Y412295D01*
X1197338Y411978D01*
X1197288Y411662D01*
X1197231Y411347D01*
X1197167Y411034D01*
X1197095Y410722D01*
X1197016Y410412D01*
X1196929Y410105D01*
X1196835Y409799D01*
X1196734Y409496D01*
X1196625Y409195D01*
X1196510Y408897D01*
X1196387Y408601D01*
X1196257Y408309D01*
X1196120Y408020D01*
X1196121Y408020D02*
X1196082Y407912D01*
X1196039Y407805D01*
X1195993Y407700D01*
X1195942Y407596D01*
X1195889Y407494D01*
X1195832Y407394D01*
X1195771Y407296D01*
X1195707Y407201D01*
X1195640Y407107D01*
X1195569Y407016D01*
X1195496Y406927D01*
X1195419Y406841D01*
X1195340Y406758D01*
X1195258Y406677D01*
X1195173Y406599D01*
X1195085Y406525D01*
X1194995Y406453D01*
X1194902Y406384D01*
X1194808Y406319D01*
X1194711Y406257D01*
X1194611Y406199D01*
X1194510Y406143D01*
X1194408Y406092D01*
X1194303Y406044D01*
X1194197Y405999D01*
X1194089Y405958D01*
X1193980Y405921D01*
X1193870Y405888D01*
X1193758Y405859D01*
X1193646Y405833D01*
X1193533Y405811D01*
X1193419Y405794D01*
X1193305Y405780D01*
X1193190Y405770D01*
X1193075Y405764D01*
X1192960Y405762D01*
X1189800Y408020D02*
X1189663Y408309D01*
X1189533Y408601D01*
X1189410Y408897D01*
X1189295Y409195D01*
X1189186Y409496D01*
X1189085Y409799D01*
X1188991Y410105D01*
X1188904Y410412D01*
X1188825Y410722D01*
X1188753Y411034D01*
X1188689Y411347D01*
X1188632Y411662D01*
X1188582Y411978D01*
X1188540Y412295D01*
X1188506Y412613D01*
X1188479Y412931D01*
X1188460Y413251D01*
X1188449Y413570D01*
X1188445Y413890D01*
X1189799Y408020D02*
X1189838Y407912D01*
X1189881Y407805D01*
X1189927Y407700D01*
X1189978Y407596D01*
X1190031Y407494D01*
X1190089Y407394D01*
X1190149Y407296D01*
X1190213Y407201D01*
X1190280Y407107D01*
X1190351Y407016D01*
X1190424Y406927D01*
X1190501Y406841D01*
X1190580Y406758D01*
X1190662Y406677D01*
X1190747Y406599D01*
X1190835Y406525D01*
X1190925Y406453D01*
X1191018Y406384D01*
X1191112Y406319D01*
X1191209Y406257D01*
X1191309Y406199D01*
X1191410Y406143D01*
X1191513Y406092D01*
X1191617Y406044D01*
X1191723Y405999D01*
X1191831Y405958D01*
X1191940Y405921D01*
X1192050Y405888D01*
X1192162Y405859D01*
X1192274Y405833D01*
X1192387Y405811D01*
X1192501Y405794D01*
X1192615Y405780D01*
X1192730Y405770D01*
X1192845Y405764D01*
X1192960Y405762D01*
X1196572Y409374D02*
X1189347Y418406D01*
X1181844Y413890D02*
X1181840Y414210D01*
X1181829Y414529D01*
X1181810Y414849D01*
X1181783Y415167D01*
X1181749Y415485D01*
X1181707Y415802D01*
X1181657Y416118D01*
X1181600Y416433D01*
X1181536Y416746D01*
X1181464Y417058D01*
X1181385Y417368D01*
X1181298Y417675D01*
X1181204Y417981D01*
X1181103Y418284D01*
X1180994Y418585D01*
X1180879Y418883D01*
X1180756Y419179D01*
X1180626Y419471D01*
X1180489Y419760D01*
X1180490Y419761D02*
X1180451Y419869D01*
X1180408Y419976D01*
X1180362Y420081D01*
X1180311Y420185D01*
X1180258Y420287D01*
X1180201Y420387D01*
X1180140Y420485D01*
X1180076Y420580D01*
X1180009Y420674D01*
X1179938Y420765D01*
X1179865Y420854D01*
X1179788Y420940D01*
X1179709Y421023D01*
X1179627Y421104D01*
X1179542Y421182D01*
X1179454Y421256D01*
X1179364Y421328D01*
X1179272Y421396D01*
X1179177Y421462D01*
X1179080Y421524D01*
X1178981Y421582D01*
X1178879Y421638D01*
X1178777Y421689D01*
X1178672Y421737D01*
X1178566Y421782D01*
X1178458Y421823D01*
X1178349Y421860D01*
X1178239Y421893D01*
X1178127Y421922D01*
X1178015Y421948D01*
X1177902Y421970D01*
X1177788Y421987D01*
X1177674Y422001D01*
X1177559Y422011D01*
X1177444Y422017D01*
X1177329Y422019D01*
X1177329Y422018D02*
X1177214Y422016D01*
X1177099Y422010D01*
X1176984Y422000D01*
X1176870Y421986D01*
X1176756Y421969D01*
X1176643Y421947D01*
X1176531Y421921D01*
X1176419Y421892D01*
X1176309Y421859D01*
X1176200Y421822D01*
X1176092Y421781D01*
X1175986Y421736D01*
X1175882Y421688D01*
X1175779Y421637D01*
X1175678Y421581D01*
X1175578Y421523D01*
X1175481Y421461D01*
X1175387Y421396D01*
X1175294Y421327D01*
X1175204Y421255D01*
X1175116Y421181D01*
X1175031Y421103D01*
X1174949Y421022D01*
X1174870Y420939D01*
X1174793Y420853D01*
X1174720Y420764D01*
X1174649Y420673D01*
X1174582Y420579D01*
X1174518Y420484D01*
X1174457Y420386D01*
X1174400Y420286D01*
X1174347Y420184D01*
X1174296Y420080D01*
X1174250Y419975D01*
X1174207Y419868D01*
X1174168Y419760D01*
X1174031Y419471D01*
X1173901Y419179D01*
X1173778Y418883D01*
X1173663Y418585D01*
X1173554Y418284D01*
X1173453Y417981D01*
X1173359Y417675D01*
X1173272Y417368D01*
X1173193Y417058D01*
X1173121Y416746D01*
X1173057Y416433D01*
X1173000Y416118D01*
X1172950Y415802D01*
X1172908Y415485D01*
X1172874Y415167D01*
X1172847Y414849D01*
X1172828Y414529D01*
X1172817Y414210D01*
X1172813Y413890D01*
X1181844Y413890D02*
X1181840Y413570D01*
X1181829Y413251D01*
X1181810Y412931D01*
X1181783Y412613D01*
X1181749Y412295D01*
X1181707Y411978D01*
X1181657Y411662D01*
X1181600Y411347D01*
X1181536Y411034D01*
X1181464Y410722D01*
X1181385Y410412D01*
X1181298Y410105D01*
X1181204Y409799D01*
X1181103Y409496D01*
X1180994Y409195D01*
X1180879Y408897D01*
X1180756Y408601D01*
X1180626Y408309D01*
X1180489Y408020D01*
X1180490Y408020D02*
X1180451Y407912D01*
X1180408Y407805D01*
X1180362Y407700D01*
X1180311Y407596D01*
X1180258Y407494D01*
X1180201Y407394D01*
X1180140Y407296D01*
X1180076Y407201D01*
X1180009Y407107D01*
X1179938Y407016D01*
X1179865Y406927D01*
X1179788Y406841D01*
X1179709Y406758D01*
X1179627Y406677D01*
X1179542Y406599D01*
X1179454Y406525D01*
X1179364Y406453D01*
X1179271Y406384D01*
X1179177Y406319D01*
X1179080Y406257D01*
X1178980Y406199D01*
X1178879Y406143D01*
X1178777Y406092D01*
X1178672Y406044D01*
X1178566Y405999D01*
X1178458Y405958D01*
X1178349Y405921D01*
X1178239Y405888D01*
X1178127Y405859D01*
X1178015Y405833D01*
X1177902Y405811D01*
X1177788Y405794D01*
X1177674Y405780D01*
X1177559Y405770D01*
X1177444Y405764D01*
X1177329Y405762D01*
X1174168Y408020D02*
X1174031Y408309D01*
X1173901Y408601D01*
X1173778Y408897D01*
X1173663Y409195D01*
X1173554Y409496D01*
X1173453Y409799D01*
X1173359Y410105D01*
X1173272Y410412D01*
X1173193Y410722D01*
X1173121Y411034D01*
X1173057Y411347D01*
X1173000Y411662D01*
X1172950Y411978D01*
X1172908Y412295D01*
X1172874Y412613D01*
X1172847Y412931D01*
X1172828Y413251D01*
X1172817Y413570D01*
X1172813Y413890D01*
X1174168Y408020D02*
X1174207Y407912D01*
X1174250Y407805D01*
X1174296Y407700D01*
X1174347Y407596D01*
X1174400Y407494D01*
X1174458Y407394D01*
X1174518Y407296D01*
X1174582Y407201D01*
X1174649Y407107D01*
X1174720Y407016D01*
X1174793Y406927D01*
X1174870Y406841D01*
X1174949Y406758D01*
X1175031Y406677D01*
X1175116Y406599D01*
X1175204Y406525D01*
X1175294Y406453D01*
X1175387Y406384D01*
X1175481Y406319D01*
X1175578Y406257D01*
X1175678Y406199D01*
X1175779Y406143D01*
X1175882Y406092D01*
X1175986Y406044D01*
X1176092Y405999D01*
X1176200Y405958D01*
X1176309Y405921D01*
X1176419Y405888D01*
X1176531Y405859D01*
X1176643Y405833D01*
X1176756Y405811D01*
X1176870Y405794D01*
X1176984Y405780D01*
X1177099Y405770D01*
X1177214Y405764D01*
X1177329Y405762D01*
X1180941Y409374D02*
X1173716Y418406D01*
X1157876Y417502D02*
X1157876Y410278D01*
X1157877Y417502D02*
X1157875Y417635D01*
X1157869Y417767D01*
X1157859Y417899D01*
X1157846Y418031D01*
X1157828Y418163D01*
X1157807Y418293D01*
X1157782Y418424D01*
X1157753Y418553D01*
X1157720Y418681D01*
X1157684Y418809D01*
X1157644Y418935D01*
X1157600Y419060D01*
X1157552Y419184D01*
X1157501Y419306D01*
X1157446Y419427D01*
X1157388Y419546D01*
X1157326Y419664D01*
X1157261Y419779D01*
X1157192Y419893D01*
X1157121Y420004D01*
X1157045Y420113D01*
X1156967Y420220D01*
X1156886Y420325D01*
X1156801Y420427D01*
X1156714Y420527D01*
X1156624Y420624D01*
X1156531Y420719D01*
X1156435Y420810D01*
X1156337Y420899D01*
X1156236Y420985D01*
X1156132Y421068D01*
X1156026Y421148D01*
X1155918Y421224D01*
X1155808Y421298D01*
X1155695Y421368D01*
X1155581Y421435D01*
X1155464Y421498D01*
X1155346Y421558D01*
X1155226Y421615D01*
X1155104Y421668D01*
X1154981Y421717D01*
X1154857Y421763D01*
X1154731Y421805D01*
X1154604Y421843D01*
X1154476Y421878D01*
X1154347Y421909D01*
X1154218Y421936D01*
X1154087Y421959D01*
X1153956Y421979D01*
X1153824Y421994D01*
X1153692Y422006D01*
X1153560Y422014D01*
X1153427Y422018D01*
X1153295Y422018D01*
X1153162Y422014D01*
X1153030Y422006D01*
X1152898Y421994D01*
X1152766Y421979D01*
X1152635Y421959D01*
X1152504Y421936D01*
X1152375Y421909D01*
X1152246Y421878D01*
X1152118Y421843D01*
X1151991Y421805D01*
X1151865Y421763D01*
X1151741Y421717D01*
X1151618Y421668D01*
X1151496Y421615D01*
X1151376Y421558D01*
X1151258Y421498D01*
X1151141Y421435D01*
X1151027Y421368D01*
X1150914Y421298D01*
X1150804Y421224D01*
X1150696Y421148D01*
X1150590Y421068D01*
X1150486Y420985D01*
X1150385Y420899D01*
X1150287Y420810D01*
X1150191Y420719D01*
X1150098Y420624D01*
X1150008Y420527D01*
X1149921Y420427D01*
X1149836Y420325D01*
X1149755Y420220D01*
X1149677Y420113D01*
X1149601Y420004D01*
X1149530Y419893D01*
X1149461Y419779D01*
X1149396Y419664D01*
X1149334Y419546D01*
X1149276Y419427D01*
X1149221Y419306D01*
X1149170Y419184D01*
X1149122Y419060D01*
X1149078Y418935D01*
X1149038Y418809D01*
X1149002Y418681D01*
X1148969Y418553D01*
X1148940Y418424D01*
X1148915Y418293D01*
X1148894Y418163D01*
X1148876Y418031D01*
X1148863Y417899D01*
X1148853Y417767D01*
X1148847Y417635D01*
X1148845Y417502D01*
X1148845Y410278D01*
X1148847Y410145D01*
X1148853Y410013D01*
X1148863Y409881D01*
X1148876Y409749D01*
X1148894Y409617D01*
X1148915Y409487D01*
X1148940Y409356D01*
X1148969Y409227D01*
X1149002Y409099D01*
X1149038Y408971D01*
X1149078Y408845D01*
X1149122Y408720D01*
X1149170Y408596D01*
X1149221Y408474D01*
X1149276Y408353D01*
X1149334Y408234D01*
X1149396Y408116D01*
X1149461Y408001D01*
X1149530Y407887D01*
X1149601Y407776D01*
X1149677Y407667D01*
X1149755Y407560D01*
X1149836Y407455D01*
X1149921Y407353D01*
X1150008Y407253D01*
X1150098Y407156D01*
X1150191Y407061D01*
X1150287Y406970D01*
X1150385Y406881D01*
X1150486Y406795D01*
X1150590Y406712D01*
X1150696Y406632D01*
X1150804Y406556D01*
X1150914Y406482D01*
X1151027Y406412D01*
X1151141Y406345D01*
X1151258Y406282D01*
X1151376Y406222D01*
X1151496Y406165D01*
X1151618Y406112D01*
X1151741Y406063D01*
X1151865Y406017D01*
X1151991Y405975D01*
X1152118Y405937D01*
X1152246Y405902D01*
X1152375Y405871D01*
X1152504Y405844D01*
X1152635Y405821D01*
X1152766Y405801D01*
X1152898Y405786D01*
X1153030Y405774D01*
X1153162Y405766D01*
X1153295Y405762D01*
X1153427Y405762D01*
X1153560Y405766D01*
X1153692Y405774D01*
X1153824Y405786D01*
X1153956Y405801D01*
X1154087Y405821D01*
X1154218Y405844D01*
X1154347Y405871D01*
X1154476Y405902D01*
X1154604Y405937D01*
X1154731Y405975D01*
X1154857Y406017D01*
X1154981Y406063D01*
X1155104Y406112D01*
X1155226Y406165D01*
X1155346Y406222D01*
X1155464Y406282D01*
X1155581Y406345D01*
X1155695Y406412D01*
X1155808Y406482D01*
X1155918Y406556D01*
X1156026Y406632D01*
X1156132Y406712D01*
X1156236Y406795D01*
X1156337Y406881D01*
X1156435Y406970D01*
X1156531Y407061D01*
X1156624Y407156D01*
X1156714Y407253D01*
X1156801Y407353D01*
X1156886Y407455D01*
X1156967Y407560D01*
X1157045Y407667D01*
X1157121Y407776D01*
X1157192Y407887D01*
X1157261Y408001D01*
X1157326Y408116D01*
X1157388Y408234D01*
X1157446Y408353D01*
X1157501Y408474D01*
X1157552Y408596D01*
X1157600Y408720D01*
X1157644Y408845D01*
X1157684Y408971D01*
X1157720Y409099D01*
X1157753Y409227D01*
X1157782Y409356D01*
X1157807Y409487D01*
X1157828Y409617D01*
X1157846Y409749D01*
X1157859Y409881D01*
X1157869Y410013D01*
X1157875Y410145D01*
X1157877Y410278D01*
X1141863Y405762D02*
X1141863Y422018D01*
X1141863Y416599D02*
X1137347Y416599D01*
X1137243Y416597D01*
X1137140Y416591D01*
X1137036Y416581D01*
X1136933Y416567D01*
X1136831Y416549D01*
X1136730Y416528D01*
X1136629Y416502D01*
X1136530Y416473D01*
X1136431Y416440D01*
X1136334Y416403D01*
X1136239Y416362D01*
X1136145Y416318D01*
X1136053Y416270D01*
X1135963Y416219D01*
X1135874Y416164D01*
X1135788Y416106D01*
X1135705Y416044D01*
X1135623Y415980D01*
X1135545Y415912D01*
X1135469Y415842D01*
X1135395Y415769D01*
X1135325Y415692D01*
X1135257Y415614D01*
X1135193Y415532D01*
X1135131Y415449D01*
X1135073Y415363D01*
X1135018Y415274D01*
X1134967Y415184D01*
X1134919Y415092D01*
X1134875Y414998D01*
X1134834Y414903D01*
X1134797Y414806D01*
X1134764Y414707D01*
X1134735Y414608D01*
X1134709Y414507D01*
X1134688Y414406D01*
X1134670Y414304D01*
X1134656Y414201D01*
X1134646Y414097D01*
X1134640Y413994D01*
X1134638Y413890D01*
X1134638Y405762D01*
X1126996Y405762D02*
X1126996Y416599D01*
X1118868Y416599D01*
X1118767Y416597D01*
X1118666Y416591D01*
X1118565Y416582D01*
X1118464Y416569D01*
X1118364Y416552D01*
X1118265Y416531D01*
X1118167Y416507D01*
X1118070Y416479D01*
X1117973Y416447D01*
X1117878Y416412D01*
X1117785Y416373D01*
X1117693Y416331D01*
X1117602Y416285D01*
X1117514Y416236D01*
X1117427Y416184D01*
X1117342Y416128D01*
X1117259Y416070D01*
X1117179Y416008D01*
X1117101Y415943D01*
X1117025Y415876D01*
X1116952Y415806D01*
X1116882Y415733D01*
X1116815Y415657D01*
X1116750Y415579D01*
X1116688Y415499D01*
X1116630Y415416D01*
X1116574Y415331D01*
X1116522Y415245D01*
X1116473Y415156D01*
X1116427Y415065D01*
X1116385Y414973D01*
X1116346Y414880D01*
X1116311Y414785D01*
X1116279Y414688D01*
X1116251Y414591D01*
X1116227Y414493D01*
X1116206Y414394D01*
X1116189Y414294D01*
X1116176Y414193D01*
X1116167Y414092D01*
X1116161Y413991D01*
X1116159Y413890D01*
X1116159Y405762D01*
X1121577Y405762D02*
X1121577Y416599D01*
X830400Y210400D02*
X1440000Y210400D01*
X830400Y210400D02*
X830400Y7200D01*
X1465400Y7200D01*
X1465400Y210400D01*
X1440000Y210400D01*
M02*
