M48
;GenerationSoftware,Autodesk,EAGLE,9.5.1*%
;CreationDate,2019-12-12T01:52:01Z*%
FMAT,2
ICI,OFF
METRIC,TZ,000.000
T15C0.350
T14C0.813
T13C1.016
T12C1.050
T11C1.250
T10C1.300
T9C1.400
T8C1.520
T7C1.600
T6C1.905
T5C2.000
T4C2.030
T3C3.000
T2C3.175
T1C4.200
%
G90
M71
T1
X164000Y6000
X164000Y56000
X90750Y56000
X90750Y6000
X34000Y56000
X34000Y6000
T2
X45541Y46970
X45541Y19030
X78459Y46970
X78459Y19030
T3
X19400Y5490
X2600Y5490
X169400Y5490
X152600Y5490
T4
X37810Y25000
X84190Y41250
X84190Y30250
X84190Y35750
X84190Y24750
X37810Y41000
T5
X27080Y57750
X16920Y57750
T6
X3000Y53540
X149000Y53540
X156620Y53540
X156620Y58620
X149000Y58620
X10620Y53540
X10620Y58620
X3000Y58620
T7
X141940Y49900
X141920Y46500
X132000Y56900
X132000Y53500
X141940Y56900
X141920Y53500
X131000Y27400
X131000Y24000
X140940Y27400
X140920Y24000
X131000Y34400
X131000Y31000
X140940Y34400
X140920Y31000
X132000Y49900
X132000Y46500
T8
X37810Y34380
X37810Y28870
X37810Y31620
T9
X152600Y18290
X156800Y18290
X152600Y12790
X156800Y12790
X161000Y12790
X15200Y18290
X169400Y12790
X152600Y45750
X156800Y45750
X161000Y45750
X165200Y45750
X19400Y18290
X165200Y40250
X169400Y40250
X161000Y40250
X156800Y40250
X152600Y40250
X19400Y12790
X15200Y12790
X11000Y12790
X6800Y12790
X2600Y12790
X6800Y18290
X2600Y18290
X11000Y18290
X165200Y18290
X169400Y18290
X169400Y45750
X161000Y18290
X165200Y12790
T10
X3000Y46500
X3000Y26000
X3000Y41900
X3000Y30600
T11
X126540Y4840
T12
X126540Y7000
X129080Y7000
X131620Y7000
X124000Y7000
T13
X106500Y31690
X106500Y39310
T14
X55810Y4770
X55810Y2230
X48190Y4770
X48190Y2230
T15
X124000Y61000
X120000Y54000
X108000Y56000
X115000Y60000
X105000Y60270
X111000Y60000
X124000Y50000
X128000Y58000
M30