G04 EAGLE Gerber RS-274X export*
G75*
%MOMM*%
%FSLAX34Y34*%
%LPD*%
%IN*%
%IPPOS*%
%AMOC8*
5,1,8,0,0,1.08239X$1,22.5*%
G01*
%ADD10C,0.254000*%


D10*
X0Y30000D02*
X114Y27385D01*
X456Y24791D01*
X1022Y22235D01*
X1809Y19739D01*
X2811Y17321D01*
X4019Y15000D01*
X5425Y12793D01*
X7019Y10716D01*
X8787Y8787D01*
X10716Y7019D01*
X12793Y5425D01*
X15000Y4019D01*
X17321Y2811D01*
X19739Y1809D01*
X22235Y1022D01*
X24791Y456D01*
X27385Y114D01*
X30000Y0D01*
X1690000Y0D01*
X1692615Y114D01*
X1695209Y456D01*
X1697765Y1022D01*
X1700261Y1809D01*
X1702679Y2811D01*
X1705000Y4019D01*
X1707207Y5425D01*
X1709284Y7019D01*
X1711213Y8787D01*
X1712981Y10716D01*
X1714575Y12793D01*
X1715981Y15000D01*
X1717189Y17321D01*
X1718191Y19739D01*
X1718978Y22235D01*
X1719544Y24791D01*
X1719886Y27385D01*
X1720000Y30000D01*
X1720000Y610000D01*
X1719886Y612615D01*
X1719544Y615209D01*
X1718978Y617765D01*
X1718191Y620261D01*
X1717189Y622679D01*
X1715981Y625000D01*
X1714575Y627207D01*
X1712981Y629284D01*
X1711213Y631213D01*
X1709284Y632981D01*
X1707207Y634575D01*
X1705000Y635981D01*
X1702679Y637189D01*
X1700261Y638191D01*
X1697765Y638978D01*
X1695209Y639544D01*
X1692615Y639886D01*
X1690000Y640000D01*
X30000Y640000D01*
X27385Y639886D01*
X24791Y639544D01*
X22235Y638978D01*
X19739Y638191D01*
X17321Y637189D01*
X15000Y635981D01*
X12793Y634575D01*
X10716Y632981D01*
X8787Y631213D01*
X7019Y629284D01*
X5425Y627207D01*
X4019Y625000D01*
X2811Y622679D01*
X1809Y620261D01*
X1022Y617765D01*
X456Y615209D01*
X114Y612615D01*
X0Y610000D01*
X0Y30000D01*
X209000Y54364D02*
X208924Y53296D01*
X208771Y52235D01*
X208543Y51188D01*
X208241Y50160D01*
X207867Y49156D01*
X207422Y48181D01*
X206908Y47241D01*
X206329Y46340D01*
X205687Y45482D01*
X204985Y44672D01*
X204228Y43915D01*
X203418Y43213D01*
X202560Y42571D01*
X201659Y41992D01*
X200719Y41478D01*
X199744Y41033D01*
X198740Y40659D01*
X197712Y40357D01*
X196665Y40129D01*
X195604Y39976D01*
X194536Y39900D01*
X193464Y39900D01*
X192396Y39976D01*
X191335Y40129D01*
X190288Y40357D01*
X189260Y40659D01*
X188256Y41033D01*
X187281Y41478D01*
X186341Y41992D01*
X185440Y42571D01*
X184582Y43213D01*
X183772Y43915D01*
X183015Y44672D01*
X182313Y45482D01*
X181671Y46340D01*
X181092Y47241D01*
X180578Y48181D01*
X180133Y49156D01*
X179759Y50160D01*
X179457Y51188D01*
X179229Y52235D01*
X179076Y53296D01*
X179000Y54364D01*
X179000Y55436D01*
X179076Y56504D01*
X179229Y57565D01*
X179457Y58612D01*
X179759Y59640D01*
X180133Y60644D01*
X180578Y61619D01*
X181092Y62559D01*
X181671Y63460D01*
X182313Y64318D01*
X183015Y65128D01*
X183772Y65885D01*
X184582Y66587D01*
X185440Y67229D01*
X186341Y67808D01*
X187281Y68322D01*
X188256Y68767D01*
X189260Y69141D01*
X190288Y69443D01*
X191335Y69671D01*
X192396Y69824D01*
X193464Y69900D01*
X194536Y69900D01*
X195604Y69824D01*
X196665Y69671D01*
X197712Y69443D01*
X198740Y69141D01*
X199744Y68767D01*
X200719Y68322D01*
X201659Y67808D01*
X202560Y67229D01*
X203418Y66587D01*
X204228Y65885D01*
X204985Y65128D01*
X205687Y64318D01*
X206329Y63460D01*
X206908Y62559D01*
X207422Y61619D01*
X207867Y60644D01*
X208241Y59640D01*
X208543Y58612D01*
X208771Y57565D01*
X208924Y56504D01*
X209000Y55436D01*
X209000Y54364D01*
X41000Y54364D02*
X40924Y53296D01*
X40771Y52235D01*
X40543Y51188D01*
X40241Y50160D01*
X39867Y49156D01*
X39422Y48181D01*
X38908Y47241D01*
X38329Y46340D01*
X37687Y45482D01*
X36985Y44672D01*
X36228Y43915D01*
X35418Y43213D01*
X34560Y42571D01*
X33659Y41992D01*
X32719Y41478D01*
X31744Y41033D01*
X30740Y40659D01*
X29712Y40357D01*
X28665Y40129D01*
X27604Y39976D01*
X26536Y39900D01*
X25464Y39900D01*
X24396Y39976D01*
X23335Y40129D01*
X22288Y40357D01*
X21260Y40659D01*
X20256Y41033D01*
X19281Y41478D01*
X18341Y41992D01*
X17440Y42571D01*
X16582Y43213D01*
X15772Y43915D01*
X15015Y44672D01*
X14313Y45482D01*
X13671Y46340D01*
X13092Y47241D01*
X12578Y48181D01*
X12133Y49156D01*
X11759Y50160D01*
X11457Y51188D01*
X11229Y52235D01*
X11076Y53296D01*
X11000Y54364D01*
X11000Y55436D01*
X11076Y56504D01*
X11229Y57565D01*
X11457Y58612D01*
X11759Y59640D01*
X12133Y60644D01*
X12578Y61619D01*
X13092Y62559D01*
X13671Y63460D01*
X14313Y64318D01*
X15015Y65128D01*
X15772Y65885D01*
X16582Y66587D01*
X17440Y67229D01*
X18341Y67808D01*
X19281Y68322D01*
X20256Y68767D01*
X21260Y69141D01*
X22288Y69443D01*
X23335Y69671D01*
X24396Y69824D01*
X25464Y69900D01*
X26536Y69900D01*
X27604Y69824D01*
X28665Y69671D01*
X29712Y69443D01*
X30740Y69141D01*
X31744Y68767D01*
X32719Y68322D01*
X33659Y67808D01*
X34560Y67229D01*
X35418Y66587D01*
X36228Y65885D01*
X36985Y65128D01*
X37687Y64318D01*
X38329Y63460D01*
X38908Y62559D01*
X39422Y61619D01*
X39867Y60644D01*
X40241Y59640D01*
X40543Y58612D01*
X40771Y57565D01*
X40924Y56504D01*
X41000Y55436D01*
X41000Y54364D01*
X1709000Y54364D02*
X1708924Y53296D01*
X1708771Y52235D01*
X1708543Y51188D01*
X1708241Y50160D01*
X1707867Y49156D01*
X1707422Y48181D01*
X1706908Y47241D01*
X1706329Y46340D01*
X1705687Y45482D01*
X1704985Y44672D01*
X1704228Y43915D01*
X1703418Y43213D01*
X1702560Y42571D01*
X1701659Y41992D01*
X1700719Y41478D01*
X1699744Y41033D01*
X1698740Y40659D01*
X1697712Y40357D01*
X1696665Y40129D01*
X1695604Y39976D01*
X1694536Y39900D01*
X1693464Y39900D01*
X1692396Y39976D01*
X1691335Y40129D01*
X1690288Y40357D01*
X1689260Y40659D01*
X1688256Y41033D01*
X1687281Y41478D01*
X1686341Y41992D01*
X1685440Y42571D01*
X1684582Y43213D01*
X1683772Y43915D01*
X1683015Y44672D01*
X1682313Y45482D01*
X1681671Y46340D01*
X1681092Y47241D01*
X1680578Y48181D01*
X1680133Y49156D01*
X1679759Y50160D01*
X1679457Y51188D01*
X1679229Y52235D01*
X1679076Y53296D01*
X1679000Y54364D01*
X1679000Y55436D01*
X1679076Y56504D01*
X1679229Y57565D01*
X1679457Y58612D01*
X1679759Y59640D01*
X1680133Y60644D01*
X1680578Y61619D01*
X1681092Y62559D01*
X1681671Y63460D01*
X1682313Y64318D01*
X1683015Y65128D01*
X1683772Y65885D01*
X1684582Y66587D01*
X1685440Y67229D01*
X1686341Y67808D01*
X1687281Y68322D01*
X1688256Y68767D01*
X1689260Y69141D01*
X1690288Y69443D01*
X1691335Y69671D01*
X1692396Y69824D01*
X1693464Y69900D01*
X1694536Y69900D01*
X1695604Y69824D01*
X1696665Y69671D01*
X1697712Y69443D01*
X1698740Y69141D01*
X1699744Y68767D01*
X1700719Y68322D01*
X1701659Y67808D01*
X1702560Y67229D01*
X1703418Y66587D01*
X1704228Y65885D01*
X1704985Y65128D01*
X1705687Y64318D01*
X1706329Y63460D01*
X1706908Y62559D01*
X1707422Y61619D01*
X1707867Y60644D01*
X1708241Y59640D01*
X1708543Y58612D01*
X1708771Y57565D01*
X1708924Y56504D01*
X1709000Y55436D01*
X1709000Y54364D01*
X1541000Y54364D02*
X1540924Y53296D01*
X1540771Y52235D01*
X1540543Y51188D01*
X1540241Y50160D01*
X1539867Y49156D01*
X1539422Y48181D01*
X1538908Y47241D01*
X1538329Y46340D01*
X1537687Y45482D01*
X1536985Y44672D01*
X1536228Y43915D01*
X1535418Y43213D01*
X1534560Y42571D01*
X1533659Y41992D01*
X1532719Y41478D01*
X1531744Y41033D01*
X1530740Y40659D01*
X1529712Y40357D01*
X1528665Y40129D01*
X1527604Y39976D01*
X1526536Y39900D01*
X1525464Y39900D01*
X1524396Y39976D01*
X1523335Y40129D01*
X1522288Y40357D01*
X1521260Y40659D01*
X1520256Y41033D01*
X1519281Y41478D01*
X1518341Y41992D01*
X1517440Y42571D01*
X1516582Y43213D01*
X1515772Y43915D01*
X1515015Y44672D01*
X1514313Y45482D01*
X1513671Y46340D01*
X1513092Y47241D01*
X1512578Y48181D01*
X1512133Y49156D01*
X1511759Y50160D01*
X1511457Y51188D01*
X1511229Y52235D01*
X1511076Y53296D01*
X1511000Y54364D01*
X1511000Y55436D01*
X1511076Y56504D01*
X1511229Y57565D01*
X1511457Y58612D01*
X1511759Y59640D01*
X1512133Y60644D01*
X1512578Y61619D01*
X1513092Y62559D01*
X1513671Y63460D01*
X1514313Y64318D01*
X1515015Y65128D01*
X1515772Y65885D01*
X1516582Y66587D01*
X1517440Y67229D01*
X1518341Y67808D01*
X1519281Y68322D01*
X1520256Y68767D01*
X1521260Y69141D01*
X1522288Y69443D01*
X1523335Y69671D01*
X1524396Y69824D01*
X1525464Y69900D01*
X1526536Y69900D01*
X1527604Y69824D01*
X1528665Y69671D01*
X1529712Y69443D01*
X1530740Y69141D01*
X1531744Y68767D01*
X1532719Y68322D01*
X1533659Y67808D01*
X1534560Y67229D01*
X1535418Y66587D01*
X1536228Y65885D01*
X1536985Y65128D01*
X1537687Y64318D01*
X1538329Y63460D01*
X1538908Y62559D01*
X1539422Y61619D01*
X1539867Y60644D01*
X1540241Y59640D01*
X1540543Y58612D01*
X1540771Y57565D01*
X1540924Y56504D01*
X1541000Y55436D01*
X1541000Y54364D01*
X471283Y469180D02*
X471215Y468143D01*
X471079Y467113D01*
X470877Y466093D01*
X470608Y465089D01*
X470273Y464105D01*
X469876Y463145D01*
X469416Y462213D01*
X468896Y461312D01*
X468319Y460448D01*
X467686Y459624D01*
X467001Y458842D01*
X466266Y458107D01*
X465484Y457422D01*
X464660Y456789D01*
X463796Y456212D01*
X462895Y455692D01*
X461963Y455232D01*
X461003Y454835D01*
X460019Y454500D01*
X459015Y454231D01*
X457995Y454029D01*
X456965Y453893D01*
X455928Y453825D01*
X454888Y453825D01*
X453851Y453893D01*
X452821Y454029D01*
X451801Y454231D01*
X450797Y454500D01*
X449813Y454835D01*
X448853Y455232D01*
X447921Y455692D01*
X447020Y456212D01*
X446156Y456789D01*
X445332Y457422D01*
X444550Y458107D01*
X443815Y458842D01*
X443130Y459624D01*
X442497Y460448D01*
X441920Y461312D01*
X441400Y462213D01*
X440940Y463145D01*
X440543Y464105D01*
X440208Y465089D01*
X439939Y466093D01*
X439737Y467113D01*
X439601Y468143D01*
X439533Y469180D01*
X439533Y470220D01*
X439601Y471257D01*
X439737Y472287D01*
X439939Y473307D01*
X440208Y474311D01*
X440543Y475295D01*
X440940Y476255D01*
X441400Y477187D01*
X441920Y478088D01*
X442497Y478952D01*
X443130Y479776D01*
X443815Y480558D01*
X444550Y481293D01*
X445332Y481978D01*
X446156Y482611D01*
X447020Y483188D01*
X447921Y483708D01*
X448853Y484168D01*
X449813Y484565D01*
X450797Y484900D01*
X451801Y485169D01*
X452821Y485371D01*
X453851Y485507D01*
X454888Y485575D01*
X455928Y485575D01*
X456965Y485507D01*
X457995Y485371D01*
X459015Y485169D01*
X460019Y484900D01*
X461003Y484565D01*
X461963Y484168D01*
X462895Y483708D01*
X463796Y483188D01*
X464660Y482611D01*
X465484Y481978D01*
X466266Y481293D01*
X467001Y480558D01*
X467686Y479776D01*
X468319Y478952D01*
X468896Y478088D01*
X469416Y477187D01*
X469876Y476255D01*
X470273Y475295D01*
X470608Y474311D01*
X470877Y473307D01*
X471079Y472287D01*
X471215Y471257D01*
X471283Y470220D01*
X471283Y469180D01*
X471283Y189780D02*
X471215Y188743D01*
X471079Y187713D01*
X470877Y186693D01*
X470608Y185689D01*
X470273Y184705D01*
X469876Y183745D01*
X469416Y182813D01*
X468896Y181912D01*
X468319Y181048D01*
X467686Y180224D01*
X467001Y179442D01*
X466266Y178707D01*
X465484Y178022D01*
X464660Y177389D01*
X463796Y176812D01*
X462895Y176292D01*
X461963Y175832D01*
X461003Y175435D01*
X460019Y175100D01*
X459015Y174831D01*
X457995Y174629D01*
X456965Y174493D01*
X455928Y174425D01*
X454888Y174425D01*
X453851Y174493D01*
X452821Y174629D01*
X451801Y174831D01*
X450797Y175100D01*
X449813Y175435D01*
X448853Y175832D01*
X447921Y176292D01*
X447020Y176812D01*
X446156Y177389D01*
X445332Y178022D01*
X444550Y178707D01*
X443815Y179442D01*
X443130Y180224D01*
X442497Y181048D01*
X441920Y181912D01*
X441400Y182813D01*
X440940Y183745D01*
X440543Y184705D01*
X440208Y185689D01*
X439939Y186693D01*
X439737Y187713D01*
X439601Y188743D01*
X439533Y189780D01*
X439533Y190820D01*
X439601Y191857D01*
X439737Y192887D01*
X439939Y193907D01*
X440208Y194911D01*
X440543Y195895D01*
X440940Y196855D01*
X441400Y197787D01*
X441920Y198688D01*
X442497Y199552D01*
X443130Y200376D01*
X443815Y201158D01*
X444550Y201893D01*
X445332Y202578D01*
X446156Y203211D01*
X447020Y203788D01*
X447921Y204308D01*
X448853Y204768D01*
X449813Y205165D01*
X450797Y205500D01*
X451801Y205769D01*
X452821Y205971D01*
X453851Y206107D01*
X454888Y206175D01*
X455928Y206175D01*
X456965Y206107D01*
X457995Y205971D01*
X459015Y205769D01*
X460019Y205500D01*
X461003Y205165D01*
X461963Y204768D01*
X462895Y204308D01*
X463796Y203788D01*
X464660Y203211D01*
X465484Y202578D01*
X466266Y201893D01*
X467001Y201158D01*
X467686Y200376D01*
X468319Y199552D01*
X468896Y198688D01*
X469416Y197787D01*
X469876Y196855D01*
X470273Y195895D01*
X470608Y194911D01*
X470877Y193907D01*
X471079Y192887D01*
X471215Y191857D01*
X471283Y190820D01*
X471283Y189780D01*
X800467Y469180D02*
X800399Y468143D01*
X800263Y467113D01*
X800061Y466093D01*
X799792Y465089D01*
X799457Y464105D01*
X799060Y463145D01*
X798600Y462213D01*
X798080Y461312D01*
X797503Y460448D01*
X796870Y459624D01*
X796185Y458842D01*
X795450Y458107D01*
X794668Y457422D01*
X793844Y456789D01*
X792980Y456212D01*
X792079Y455692D01*
X791147Y455232D01*
X790187Y454835D01*
X789203Y454500D01*
X788199Y454231D01*
X787179Y454029D01*
X786149Y453893D01*
X785112Y453825D01*
X784072Y453825D01*
X783035Y453893D01*
X782005Y454029D01*
X780985Y454231D01*
X779981Y454500D01*
X778997Y454835D01*
X778037Y455232D01*
X777105Y455692D01*
X776204Y456212D01*
X775340Y456789D01*
X774516Y457422D01*
X773734Y458107D01*
X772999Y458842D01*
X772314Y459624D01*
X771681Y460448D01*
X771104Y461312D01*
X770584Y462213D01*
X770124Y463145D01*
X769727Y464105D01*
X769392Y465089D01*
X769123Y466093D01*
X768921Y467113D01*
X768785Y468143D01*
X768717Y469180D01*
X768717Y470220D01*
X768785Y471257D01*
X768921Y472287D01*
X769123Y473307D01*
X769392Y474311D01*
X769727Y475295D01*
X770124Y476255D01*
X770584Y477187D01*
X771104Y478088D01*
X771681Y478952D01*
X772314Y479776D01*
X772999Y480558D01*
X773734Y481293D01*
X774516Y481978D01*
X775340Y482611D01*
X776204Y483188D01*
X777105Y483708D01*
X778037Y484168D01*
X778997Y484565D01*
X779981Y484900D01*
X780985Y485169D01*
X782005Y485371D01*
X783035Y485507D01*
X784072Y485575D01*
X785112Y485575D01*
X786149Y485507D01*
X787179Y485371D01*
X788199Y485169D01*
X789203Y484900D01*
X790187Y484565D01*
X791147Y484168D01*
X792079Y483708D01*
X792980Y483188D01*
X793844Y482611D01*
X794668Y481978D01*
X795450Y481293D01*
X796185Y480558D01*
X796870Y479776D01*
X797503Y478952D01*
X798080Y478088D01*
X798600Y477187D01*
X799060Y476255D01*
X799457Y475295D01*
X799792Y474311D01*
X800061Y473307D01*
X800263Y472287D01*
X800399Y471257D01*
X800467Y470220D01*
X800467Y469180D01*
X800467Y189780D02*
X800399Y188743D01*
X800263Y187713D01*
X800061Y186693D01*
X799792Y185689D01*
X799457Y184705D01*
X799060Y183745D01*
X798600Y182813D01*
X798080Y181912D01*
X797503Y181048D01*
X796870Y180224D01*
X796185Y179442D01*
X795450Y178707D01*
X794668Y178022D01*
X793844Y177389D01*
X792980Y176812D01*
X792079Y176292D01*
X791147Y175832D01*
X790187Y175435D01*
X789203Y175100D01*
X788199Y174831D01*
X787179Y174629D01*
X786149Y174493D01*
X785112Y174425D01*
X784072Y174425D01*
X783035Y174493D01*
X782005Y174629D01*
X780985Y174831D01*
X779981Y175100D01*
X778997Y175435D01*
X778037Y175832D01*
X777105Y176292D01*
X776204Y176812D01*
X775340Y177389D01*
X774516Y178022D01*
X773734Y178707D01*
X772999Y179442D01*
X772314Y180224D01*
X771681Y181048D01*
X771104Y181912D01*
X770584Y182813D01*
X770124Y183745D01*
X769727Y184705D01*
X769392Y185689D01*
X769123Y186693D01*
X768921Y187713D01*
X768785Y188743D01*
X768717Y189780D01*
X768717Y190820D01*
X768785Y191857D01*
X768921Y192887D01*
X769123Y193907D01*
X769392Y194911D01*
X769727Y195895D01*
X770124Y196855D01*
X770584Y197787D01*
X771104Y198688D01*
X771681Y199552D01*
X772314Y200376D01*
X772999Y201158D01*
X773734Y201893D01*
X774516Y202578D01*
X775340Y203211D01*
X776204Y203788D01*
X777105Y204308D01*
X778037Y204768D01*
X778997Y205165D01*
X779981Y205500D01*
X780985Y205769D01*
X782005Y205971D01*
X783035Y206107D01*
X784072Y206175D01*
X785112Y206175D01*
X786149Y206107D01*
X787179Y205971D01*
X788199Y205769D01*
X789203Y205500D01*
X790187Y205165D01*
X791147Y204768D01*
X792079Y204308D01*
X792980Y203788D01*
X793844Y203211D01*
X794668Y202578D01*
X795450Y201893D01*
X796185Y201158D01*
X796870Y200376D01*
X797503Y199552D01*
X798080Y198688D01*
X798600Y197787D01*
X799060Y196855D01*
X799457Y195895D01*
X799792Y194911D01*
X800061Y193907D01*
X800263Y192887D01*
X800399Y191857D01*
X800467Y190820D01*
X800467Y189780D01*
X1271650Y48049D02*
X1271571Y47351D01*
X1271415Y46667D01*
X1271183Y46004D01*
X1270879Y45372D01*
X1270505Y44778D01*
X1270068Y44229D01*
X1269571Y43732D01*
X1269022Y43295D01*
X1268428Y42921D01*
X1267796Y42617D01*
X1267133Y42385D01*
X1266449Y42229D01*
X1265751Y42150D01*
X1265049Y42150D01*
X1264351Y42229D01*
X1263667Y42385D01*
X1263004Y42617D01*
X1262372Y42921D01*
X1261778Y43295D01*
X1261229Y43732D01*
X1260732Y44229D01*
X1260295Y44778D01*
X1259921Y45372D01*
X1259617Y46004D01*
X1259385Y46667D01*
X1259229Y47351D01*
X1259150Y48049D01*
X1259150Y48751D01*
X1259229Y49449D01*
X1259385Y50133D01*
X1259617Y50796D01*
X1259921Y51428D01*
X1260295Y52022D01*
X1260732Y52571D01*
X1261229Y53068D01*
X1261778Y53505D01*
X1262372Y53879D01*
X1263004Y54183D01*
X1263667Y54415D01*
X1264351Y54571D01*
X1265049Y54650D01*
X1265751Y54650D01*
X1266449Y54571D01*
X1267133Y54415D01*
X1267796Y54183D01*
X1268428Y53879D01*
X1269022Y53505D01*
X1269571Y53068D01*
X1270068Y52571D01*
X1270505Y52022D01*
X1270879Y51428D01*
X1271183Y50796D01*
X1271415Y50133D01*
X1271571Y49449D01*
X1271650Y48751D01*
X1271650Y48049D01*
X1619000Y59365D02*
X1619077Y58099D01*
X1619230Y56839D01*
X1619458Y55591D01*
X1619762Y54358D01*
X1620140Y53147D01*
X1620590Y51960D01*
X1621111Y50803D01*
X1621700Y49679D01*
X1622357Y48593D01*
X1623078Y47548D01*
X1623861Y46549D01*
X1624702Y45599D01*
X1625599Y44702D01*
X1626549Y43861D01*
X1627548Y43078D01*
X1628593Y42357D01*
X1629679Y41700D01*
X1630803Y41111D01*
X1631960Y40590D01*
X1633147Y40140D01*
X1634358Y39762D01*
X1635591Y39458D01*
X1636839Y39230D01*
X1638099Y39077D01*
X1639365Y39000D01*
X1640635Y39000D01*
X1641901Y39077D01*
X1643161Y39230D01*
X1644410Y39458D01*
X1645642Y39762D01*
X1646853Y40140D01*
X1648040Y40590D01*
X1649197Y41111D01*
X1650321Y41700D01*
X1651407Y42357D01*
X1652452Y43078D01*
X1653451Y43861D01*
X1654401Y44702D01*
X1655298Y45599D01*
X1656140Y46549D01*
X1656922Y47548D01*
X1657643Y48593D01*
X1658300Y49679D01*
X1658889Y50803D01*
X1659410Y51960D01*
X1659860Y53147D01*
X1660238Y54358D01*
X1660542Y55591D01*
X1660770Y56839D01*
X1660923Y58099D01*
X1661000Y59365D01*
X1661000Y60635D01*
X1660923Y61901D01*
X1660770Y63161D01*
X1660542Y64410D01*
X1660238Y65642D01*
X1659860Y66853D01*
X1659410Y68040D01*
X1658889Y69197D01*
X1658300Y70321D01*
X1657643Y71407D01*
X1656922Y72452D01*
X1656140Y73451D01*
X1655298Y74401D01*
X1654401Y75298D01*
X1653451Y76140D01*
X1652452Y76922D01*
X1651407Y77643D01*
X1650321Y78300D01*
X1649197Y78889D01*
X1648040Y79410D01*
X1646853Y79860D01*
X1645642Y80238D01*
X1644410Y80542D01*
X1643161Y80770D01*
X1641901Y80923D01*
X1640635Y81000D01*
X1639365Y81000D01*
X1638099Y80923D01*
X1636839Y80770D01*
X1635591Y80542D01*
X1634358Y80238D01*
X1633147Y79860D01*
X1631960Y79410D01*
X1630803Y78889D01*
X1629679Y78300D01*
X1628593Y77643D01*
X1627548Y76922D01*
X1626549Y76140D01*
X1625599Y75298D01*
X1624702Y74401D01*
X1623861Y73451D01*
X1623078Y72452D01*
X1622357Y71407D01*
X1621700Y70321D01*
X1621111Y69197D01*
X1620590Y68040D01*
X1620140Y66853D01*
X1619762Y65642D01*
X1619458Y64410D01*
X1619230Y63161D01*
X1619077Y61901D01*
X1619000Y60635D01*
X1619000Y59365D01*
X1619000Y559365D02*
X1619077Y558099D01*
X1619230Y556839D01*
X1619458Y555591D01*
X1619762Y554358D01*
X1620140Y553147D01*
X1620590Y551960D01*
X1621111Y550803D01*
X1621700Y549679D01*
X1622357Y548593D01*
X1623078Y547548D01*
X1623861Y546549D01*
X1624702Y545599D01*
X1625599Y544702D01*
X1626549Y543861D01*
X1627548Y543078D01*
X1628593Y542357D01*
X1629679Y541700D01*
X1630803Y541111D01*
X1631960Y540590D01*
X1633147Y540140D01*
X1634358Y539762D01*
X1635591Y539458D01*
X1636839Y539230D01*
X1638099Y539077D01*
X1639365Y539000D01*
X1640635Y539000D01*
X1641901Y539077D01*
X1643161Y539230D01*
X1644410Y539458D01*
X1645642Y539762D01*
X1646853Y540140D01*
X1648040Y540590D01*
X1649197Y541111D01*
X1650321Y541700D01*
X1651407Y542357D01*
X1652452Y543078D01*
X1653451Y543861D01*
X1654401Y544702D01*
X1655298Y545599D01*
X1656140Y546549D01*
X1656922Y547548D01*
X1657643Y548593D01*
X1658300Y549679D01*
X1658889Y550803D01*
X1659410Y551960D01*
X1659860Y553147D01*
X1660238Y554358D01*
X1660542Y555591D01*
X1660770Y556839D01*
X1660923Y558099D01*
X1661000Y559365D01*
X1661000Y560635D01*
X1660923Y561901D01*
X1660770Y563161D01*
X1660542Y564410D01*
X1660238Y565642D01*
X1659860Y566853D01*
X1659410Y568040D01*
X1658889Y569197D01*
X1658300Y570321D01*
X1657643Y571407D01*
X1656922Y572452D01*
X1656140Y573451D01*
X1655298Y574401D01*
X1654401Y575298D01*
X1653451Y576140D01*
X1652452Y576922D01*
X1651407Y577643D01*
X1650321Y578300D01*
X1649197Y578889D01*
X1648040Y579410D01*
X1646853Y579860D01*
X1645642Y580238D01*
X1644410Y580542D01*
X1643161Y580770D01*
X1641901Y580923D01*
X1640635Y581000D01*
X1639365Y581000D01*
X1638099Y580923D01*
X1636839Y580770D01*
X1635591Y580542D01*
X1634358Y580238D01*
X1633147Y579860D01*
X1631960Y579410D01*
X1630803Y578889D01*
X1629679Y578300D01*
X1628593Y577643D01*
X1627548Y576922D01*
X1626549Y576140D01*
X1625599Y575298D01*
X1624702Y574401D01*
X1623861Y573451D01*
X1623078Y572452D01*
X1622357Y571407D01*
X1621700Y570321D01*
X1621111Y569197D01*
X1620590Y568040D01*
X1620140Y566853D01*
X1619762Y565642D01*
X1619458Y564410D01*
X1619230Y563161D01*
X1619077Y561901D01*
X1619000Y560635D01*
X1619000Y559365D01*
X886500Y559365D02*
X886577Y558099D01*
X886730Y556839D01*
X886958Y555591D01*
X887262Y554358D01*
X887640Y553147D01*
X888090Y551960D01*
X888611Y550803D01*
X889200Y549679D01*
X889857Y548593D01*
X890578Y547548D01*
X891361Y546549D01*
X892202Y545599D01*
X893099Y544702D01*
X894049Y543861D01*
X895048Y543078D01*
X896093Y542357D01*
X897179Y541700D01*
X898303Y541111D01*
X899460Y540590D01*
X900647Y540140D01*
X901858Y539762D01*
X903091Y539458D01*
X904339Y539230D01*
X905599Y539077D01*
X906865Y539000D01*
X908135Y539000D01*
X909401Y539077D01*
X910661Y539230D01*
X911910Y539458D01*
X913142Y539762D01*
X914353Y540140D01*
X915540Y540590D01*
X916697Y541111D01*
X917821Y541700D01*
X918907Y542357D01*
X919952Y543078D01*
X920951Y543861D01*
X921901Y544702D01*
X922798Y545599D01*
X923640Y546549D01*
X924422Y547548D01*
X925143Y548593D01*
X925800Y549679D01*
X926389Y550803D01*
X926910Y551960D01*
X927360Y553147D01*
X927738Y554358D01*
X928042Y555591D01*
X928270Y556839D01*
X928423Y558099D01*
X928500Y559365D01*
X928500Y560635D01*
X928423Y561901D01*
X928270Y563161D01*
X928042Y564410D01*
X927738Y565642D01*
X927360Y566853D01*
X926910Y568040D01*
X926389Y569197D01*
X925800Y570321D01*
X925143Y571407D01*
X924422Y572452D01*
X923640Y573451D01*
X922798Y574401D01*
X921901Y575298D01*
X920951Y576140D01*
X919952Y576922D01*
X918907Y577643D01*
X917821Y578300D01*
X916697Y578889D01*
X915540Y579410D01*
X914353Y579860D01*
X913142Y580238D01*
X911910Y580542D01*
X910661Y580770D01*
X909401Y580923D01*
X908135Y581000D01*
X906865Y581000D01*
X905599Y580923D01*
X904339Y580770D01*
X903091Y580542D01*
X901858Y580238D01*
X900647Y579860D01*
X899460Y579410D01*
X898303Y578889D01*
X897179Y578300D01*
X896093Y577643D01*
X895048Y576922D01*
X894049Y576140D01*
X893099Y575298D01*
X892202Y574401D01*
X891361Y573451D01*
X890578Y572452D01*
X889857Y571407D01*
X889200Y570321D01*
X888611Y569197D01*
X888090Y568040D01*
X887640Y566853D01*
X887262Y565642D01*
X886958Y564410D01*
X886730Y563161D01*
X886577Y561901D01*
X886500Y560635D01*
X886500Y559365D01*
X886500Y59365D02*
X886577Y58099D01*
X886730Y56839D01*
X886958Y55591D01*
X887262Y54358D01*
X887640Y53147D01*
X888090Y51960D01*
X888611Y50803D01*
X889200Y49679D01*
X889857Y48593D01*
X890578Y47548D01*
X891361Y46549D01*
X892202Y45599D01*
X893099Y44702D01*
X894049Y43861D01*
X895048Y43078D01*
X896093Y42357D01*
X897179Y41700D01*
X898303Y41111D01*
X899460Y40590D01*
X900647Y40140D01*
X901858Y39762D01*
X903091Y39458D01*
X904339Y39230D01*
X905599Y39077D01*
X906865Y39000D01*
X908135Y39000D01*
X909401Y39077D01*
X910661Y39230D01*
X911910Y39458D01*
X913142Y39762D01*
X914353Y40140D01*
X915540Y40590D01*
X916697Y41111D01*
X917821Y41700D01*
X918907Y42357D01*
X919952Y43078D01*
X920951Y43861D01*
X921901Y44702D01*
X922798Y45599D01*
X923640Y46549D01*
X924422Y47548D01*
X925143Y48593D01*
X925800Y49679D01*
X926389Y50803D01*
X926910Y51960D01*
X927360Y53147D01*
X927738Y54358D01*
X928042Y55591D01*
X928270Y56839D01*
X928423Y58099D01*
X928500Y59365D01*
X928500Y60635D01*
X928423Y61901D01*
X928270Y63161D01*
X928042Y64410D01*
X927738Y65642D01*
X927360Y66853D01*
X926910Y68040D01*
X926389Y69197D01*
X925800Y70321D01*
X925143Y71407D01*
X924422Y72452D01*
X923640Y73451D01*
X922798Y74401D01*
X921901Y75298D01*
X920951Y76140D01*
X919952Y76922D01*
X918907Y77643D01*
X917821Y78300D01*
X916697Y78889D01*
X915540Y79410D01*
X914353Y79860D01*
X913142Y80238D01*
X911910Y80542D01*
X910661Y80770D01*
X909401Y80923D01*
X908135Y81000D01*
X906865Y81000D01*
X905599Y80923D01*
X904339Y80770D01*
X903091Y80542D01*
X901858Y80238D01*
X900647Y79860D01*
X899460Y79410D01*
X898303Y78889D01*
X897179Y78300D01*
X896093Y77643D01*
X895048Y76922D01*
X894049Y76140D01*
X893099Y75298D01*
X892202Y74401D01*
X891361Y73451D01*
X890578Y72452D01*
X889857Y71407D01*
X889200Y70321D01*
X888611Y69197D01*
X888090Y68040D01*
X887640Y66853D01*
X887262Y65642D01*
X886958Y64410D01*
X886730Y63161D01*
X886577Y61901D01*
X886500Y60635D01*
X886500Y59365D01*
X319000Y559365D02*
X319077Y558099D01*
X319230Y556839D01*
X319458Y555591D01*
X319762Y554358D01*
X320140Y553147D01*
X320590Y551960D01*
X321111Y550803D01*
X321700Y549679D01*
X322357Y548593D01*
X323078Y547548D01*
X323861Y546549D01*
X324702Y545599D01*
X325599Y544702D01*
X326549Y543861D01*
X327548Y543078D01*
X328593Y542357D01*
X329679Y541700D01*
X330803Y541111D01*
X331960Y540590D01*
X333147Y540140D01*
X334358Y539762D01*
X335591Y539458D01*
X336839Y539230D01*
X338099Y539077D01*
X339365Y539000D01*
X340635Y539000D01*
X341901Y539077D01*
X343161Y539230D01*
X344410Y539458D01*
X345642Y539762D01*
X346853Y540140D01*
X348040Y540590D01*
X349197Y541111D01*
X350321Y541700D01*
X351407Y542357D01*
X352452Y543078D01*
X353451Y543861D01*
X354401Y544702D01*
X355298Y545599D01*
X356140Y546549D01*
X356922Y547548D01*
X357643Y548593D01*
X358300Y549679D01*
X358889Y550803D01*
X359410Y551960D01*
X359860Y553147D01*
X360238Y554358D01*
X360542Y555591D01*
X360770Y556839D01*
X360923Y558099D01*
X361000Y559365D01*
X361000Y560635D01*
X360923Y561901D01*
X360770Y563161D01*
X360542Y564410D01*
X360238Y565642D01*
X359860Y566853D01*
X359410Y568040D01*
X358889Y569197D01*
X358300Y570321D01*
X357643Y571407D01*
X356922Y572452D01*
X356140Y573451D01*
X355298Y574401D01*
X354401Y575298D01*
X353451Y576140D01*
X352452Y576922D01*
X351407Y577643D01*
X350321Y578300D01*
X349197Y578889D01*
X348040Y579410D01*
X346853Y579860D01*
X345642Y580238D01*
X344410Y580542D01*
X343161Y580770D01*
X341901Y580923D01*
X340635Y581000D01*
X339365Y581000D01*
X338099Y580923D01*
X336839Y580770D01*
X335591Y580542D01*
X334358Y580238D01*
X333147Y579860D01*
X331960Y579410D01*
X330803Y578889D01*
X329679Y578300D01*
X328593Y577643D01*
X327548Y576922D01*
X326549Y576140D01*
X325599Y575298D01*
X324702Y574401D01*
X323861Y573451D01*
X323078Y572452D01*
X322357Y571407D01*
X321700Y570321D01*
X321111Y569197D01*
X320590Y568040D01*
X320140Y566853D01*
X319762Y565642D01*
X319458Y564410D01*
X319230Y563161D01*
X319077Y561901D01*
X319000Y560635D01*
X319000Y559365D01*
X319000Y59365D02*
X319077Y58099D01*
X319230Y56839D01*
X319458Y55591D01*
X319762Y54358D01*
X320140Y53147D01*
X320590Y51960D01*
X321111Y50803D01*
X321700Y49679D01*
X322357Y48593D01*
X323078Y47548D01*
X323861Y46549D01*
X324702Y45599D01*
X325599Y44702D01*
X326549Y43861D01*
X327548Y43078D01*
X328593Y42357D01*
X329679Y41700D01*
X330803Y41111D01*
X331960Y40590D01*
X333147Y40140D01*
X334358Y39762D01*
X335591Y39458D01*
X336839Y39230D01*
X338099Y39077D01*
X339365Y39000D01*
X340635Y39000D01*
X341901Y39077D01*
X343161Y39230D01*
X344410Y39458D01*
X345642Y39762D01*
X346853Y40140D01*
X348040Y40590D01*
X349197Y41111D01*
X350321Y41700D01*
X351407Y42357D01*
X352452Y43078D01*
X353451Y43861D01*
X354401Y44702D01*
X355298Y45599D01*
X356140Y46549D01*
X356922Y47548D01*
X357643Y48593D01*
X358300Y49679D01*
X358889Y50803D01*
X359410Y51960D01*
X359860Y53147D01*
X360238Y54358D01*
X360542Y55591D01*
X360770Y56839D01*
X360923Y58099D01*
X361000Y59365D01*
X361000Y60635D01*
X360923Y61901D01*
X360770Y63161D01*
X360542Y64410D01*
X360238Y65642D01*
X359860Y66853D01*
X359410Y68040D01*
X358889Y69197D01*
X358300Y70321D01*
X357643Y71407D01*
X356922Y72452D01*
X356140Y73451D01*
X355298Y74401D01*
X354401Y75298D01*
X353451Y76140D01*
X352452Y76922D01*
X351407Y77643D01*
X350321Y78300D01*
X349197Y78889D01*
X348040Y79410D01*
X346853Y79860D01*
X345642Y80238D01*
X344410Y80542D01*
X343161Y80770D01*
X341901Y80923D01*
X340635Y81000D01*
X339365Y81000D01*
X338099Y80923D01*
X336839Y80770D01*
X335591Y80542D01*
X334358Y80238D01*
X333147Y79860D01*
X331960Y79410D01*
X330803Y78889D01*
X329679Y78300D01*
X328593Y77643D01*
X327548Y76922D01*
X326549Y76140D01*
X325599Y75298D01*
X324702Y74401D01*
X323861Y73451D01*
X323078Y72452D01*
X322357Y71407D01*
X321700Y70321D01*
X321111Y69197D01*
X320590Y68040D01*
X320140Y66853D01*
X319762Y65642D01*
X319458Y64410D01*
X319230Y63161D01*
X319077Y61901D01*
X319000Y60635D01*
X319000Y59365D01*
M02*
