G04 EAGLE Gerber RS-274X export*
G75*
%MOMM*%
%FSLAX34Y34*%
%LPD*%
%INSoldermask Bottom*%
%IPPOS*%
%AMOC8*
5,1,8,0,0,1.08239X$1,22.5*%
G01*
%ADD10C,4.203200*%
%ADD11C,3.352800*%
%ADD12P,3.629037X8X292.500000*%
%ADD13R,1.703200X1.503200*%
%ADD14C,2.483200*%
%ADD15C,3.248200*%
%ADD16R,2.603200X2.603200*%
%ADD17C,1.524000*%
%ADD18R,2.303200X2.303200*%
%ADD19C,3.203200*%
%ADD20C,3.378200*%
%ADD21R,3.060700X3.060700*%
%ADD22R,1.778200X1.778200*%
%ADD23C,1.453200*%
%ADD24C,4.403200*%
%ADD25R,2.153200X2.153200*%
%ADD26R,3.403200X2.003200*%
%ADD27C,0.959600*%


D10*
X169200Y577500D03*
X270800Y577500D03*
D11*
X1065000Y393100D03*
D12*
X1065000Y316900D03*
D13*
X1257500Y514500D03*
X1257500Y495500D03*
D14*
X378100Y316200D03*
X378100Y288700D03*
D15*
X378100Y410000D03*
X378100Y250000D03*
X841900Y412500D03*
X841900Y302500D03*
X841900Y357500D03*
X841900Y247500D03*
D14*
X378100Y343800D03*
D13*
X1112500Y523000D03*
X1112500Y542000D03*
D16*
X1310000Y274000D03*
X1310000Y240000D03*
X1409400Y274000D03*
X1409200Y240000D03*
X1310000Y344000D03*
X1310000Y310000D03*
X1409400Y344000D03*
X1409200Y310000D03*
X1320000Y499000D03*
X1320000Y465000D03*
X1419400Y499000D03*
X1419200Y465000D03*
X1320000Y569000D03*
X1320000Y535000D03*
X1419400Y569000D03*
X1419200Y535000D03*
D17*
X481900Y47700D02*
X468692Y47700D01*
X468692Y22300D02*
X481900Y22300D01*
X558100Y22300D02*
X571308Y22300D01*
X571308Y47700D02*
X558100Y47700D01*
D13*
X1057500Y528000D03*
X1057500Y547000D03*
D18*
X1526000Y457500D03*
X1568000Y457500D03*
X1610000Y457500D03*
X1652000Y457500D03*
X1694000Y457500D03*
X1652000Y402500D03*
X1694000Y402500D03*
X1610000Y402500D03*
X1568000Y402500D03*
X1526000Y402500D03*
X194000Y127900D03*
X152000Y127900D03*
X110000Y127900D03*
X68000Y127900D03*
X26000Y127900D03*
X68000Y182900D03*
X26000Y182900D03*
X110000Y182900D03*
X152000Y182900D03*
X194000Y182900D03*
D19*
X194000Y54900D03*
X26000Y54900D03*
D18*
X1694000Y127900D03*
X1652000Y127900D03*
X1610000Y127900D03*
X1568000Y127900D03*
X1526000Y127900D03*
X1568000Y182900D03*
X1526000Y182900D03*
X1610000Y182900D03*
X1652000Y182900D03*
X1694000Y182900D03*
D19*
X1694000Y54900D03*
X1526000Y54900D03*
D20*
X455408Y469700D03*
X455408Y190300D03*
X784592Y469700D03*
X784592Y190300D03*
D21*
X30000Y586200D03*
X106200Y586200D03*
X106200Y535400D03*
X30000Y535400D03*
X1490000Y586200D03*
X1566200Y586200D03*
X1566200Y535400D03*
X1490000Y535400D03*
D22*
X1240000Y70000D03*
X1265400Y70000D03*
X1290800Y70000D03*
X1316200Y70000D03*
D23*
X1265400Y48400D03*
D24*
X1640000Y60000D03*
X1640000Y560000D03*
X907500Y560000D03*
X907500Y60000D03*
X340000Y560000D03*
X340000Y60000D03*
D25*
X30000Y260000D03*
X30000Y419000D03*
X30000Y306000D03*
X30000Y465000D03*
D26*
X190000Y242000D03*
X190000Y298000D03*
X190000Y332000D03*
X190000Y388000D03*
X70000Y388000D03*
X70000Y332000D03*
X70000Y298000D03*
X70000Y242000D03*
D27*
X1150000Y600000D03*
X1200000Y540000D03*
X1240000Y610000D03*
X1280000Y580000D03*
X1240000Y500000D03*
X1110000Y600000D03*
X1080000Y560000D03*
X1050000Y602700D03*
M02*
