M48
;GenerationSoftware,Autodesk,EAGLE,9.5.1*%
;CreationDate,2019-12-10T02:19:59Z*%
FMAT,2
ICI,OFF
METRIC,TZ,000.000
T11C0.350
T10C0.830
T9C0.850
T8C0.889
T7C1.270
T6C1.400
T5C1.905
T4C2.000
T3C2.540
T2C3.000
T1C7.620
%
G90
M71
T1
X118250Y11920
T2
X169400Y5490
X152600Y5490
X19400Y5490
X2600Y5490
T3
X58500Y29800
X58500Y55200
X29500Y29800
X29500Y55200
T4
X26500Y37420
X32500Y37420
X55500Y37420
X55500Y47580
X32500Y47580
X61500Y37420
X61500Y47580
X26500Y47580
T5
X157120Y54500
X4000Y59580
X11620Y59580
X11620Y54500
X149500Y59580
X157120Y59580
X149500Y54500
X4000Y54500
T6
X2600Y18290
X81100Y45250
X76900Y45250
X76900Y50750
X81100Y50750
X15200Y18290
X19400Y18290
X152600Y18290
X11000Y18290
X2600Y12790
X169400Y12790
X165200Y12790
X161000Y12790
X156800Y12790
X152600Y12790
X156800Y18290
X6800Y12790
X161000Y18290
X165200Y18290
X19400Y12790
X169400Y18290
X11000Y12790
X15200Y12790
X154150Y31000
X169850Y31000
X6800Y18290
T7
X47320Y3500
X37160Y18740
X85420Y14930
X85420Y7310
X27000Y3500
T8
X109868Y13444
X114186Y51290
X122314Y51290
X126632Y13444
T9
X158250Y43000
X165750Y43000
T10
X157620Y27000
X167380Y27000
T11
X134000Y61500
M30