G04 EAGLE Gerber RS-274X export*
G75*
%MOMM*%
%FSLAX34Y34*%
%LPD*%
%IN*%
%IPPOS*%
%AMOC8*
5,1,8,0,0,1.08239X$1,22.5*%
G01*
%ADD10C,0.000000*%
%ADD11C,0.254000*%


D10*
X30000Y0D02*
X1690000Y0D01*
X0Y30000D02*
X0Y610000D01*
X30000Y640000D02*
X720000Y640000D01*
X870000Y640000D02*
X1690000Y640000D01*
X1720000Y610000D02*
X1720000Y30000D01*
X30000Y640000D02*
X29275Y639991D01*
X28551Y639965D01*
X27827Y639921D01*
X27105Y639860D01*
X26384Y639781D01*
X25665Y639685D01*
X24949Y639572D01*
X24236Y639441D01*
X23526Y639293D01*
X22821Y639128D01*
X22119Y638946D01*
X21422Y638747D01*
X20729Y638532D01*
X20043Y638299D01*
X19362Y638050D01*
X18687Y637785D01*
X18019Y637504D01*
X17358Y637206D01*
X16704Y636893D01*
X16058Y636564D01*
X15420Y636219D01*
X14791Y635859D01*
X14171Y635484D01*
X13560Y635094D01*
X12958Y634690D01*
X12366Y634271D01*
X11785Y633837D01*
X11214Y633390D01*
X10655Y632929D01*
X10106Y632455D01*
X9570Y631968D01*
X9045Y631468D01*
X8532Y630955D01*
X8032Y630430D01*
X7545Y629894D01*
X7071Y629345D01*
X6610Y628786D01*
X6163Y628215D01*
X5729Y627634D01*
X5310Y627042D01*
X4906Y626440D01*
X4516Y625829D01*
X4141Y625209D01*
X3781Y624580D01*
X3436Y623942D01*
X3107Y623296D01*
X2794Y622642D01*
X2496Y621981D01*
X2215Y621313D01*
X1950Y620638D01*
X1701Y619957D01*
X1468Y619271D01*
X1253Y618578D01*
X1054Y617881D01*
X872Y617179D01*
X707Y616474D01*
X559Y615764D01*
X428Y615051D01*
X315Y614335D01*
X219Y613616D01*
X140Y612895D01*
X79Y612173D01*
X35Y611449D01*
X9Y610725D01*
X0Y610000D01*
X1690000Y640000D02*
X1690725Y639991D01*
X1691449Y639965D01*
X1692173Y639921D01*
X1692895Y639860D01*
X1693616Y639781D01*
X1694335Y639685D01*
X1695051Y639572D01*
X1695764Y639441D01*
X1696474Y639293D01*
X1697179Y639128D01*
X1697881Y638946D01*
X1698578Y638747D01*
X1699271Y638532D01*
X1699957Y638299D01*
X1700638Y638050D01*
X1701313Y637785D01*
X1701981Y637504D01*
X1702642Y637206D01*
X1703296Y636893D01*
X1703942Y636564D01*
X1704580Y636219D01*
X1705209Y635859D01*
X1705829Y635484D01*
X1706440Y635094D01*
X1707042Y634690D01*
X1707634Y634271D01*
X1708215Y633837D01*
X1708786Y633390D01*
X1709345Y632929D01*
X1709894Y632455D01*
X1710430Y631968D01*
X1710955Y631468D01*
X1711468Y630955D01*
X1711968Y630430D01*
X1712455Y629894D01*
X1712929Y629345D01*
X1713390Y628786D01*
X1713837Y628215D01*
X1714271Y627634D01*
X1714690Y627042D01*
X1715094Y626440D01*
X1715484Y625829D01*
X1715859Y625209D01*
X1716219Y624580D01*
X1716564Y623942D01*
X1716893Y623296D01*
X1717206Y622642D01*
X1717504Y621981D01*
X1717785Y621313D01*
X1718050Y620638D01*
X1718299Y619957D01*
X1718532Y619271D01*
X1718747Y618578D01*
X1718946Y617881D01*
X1719128Y617179D01*
X1719293Y616474D01*
X1719441Y615764D01*
X1719572Y615051D01*
X1719685Y614335D01*
X1719781Y613616D01*
X1719860Y612895D01*
X1719921Y612173D01*
X1719965Y611449D01*
X1719991Y610725D01*
X1720000Y610000D01*
X1720000Y30000D02*
X1719991Y29275D01*
X1719965Y28551D01*
X1719921Y27827D01*
X1719860Y27105D01*
X1719781Y26384D01*
X1719685Y25665D01*
X1719572Y24949D01*
X1719441Y24236D01*
X1719293Y23526D01*
X1719128Y22821D01*
X1718946Y22119D01*
X1718747Y21422D01*
X1718532Y20729D01*
X1718299Y20043D01*
X1718050Y19362D01*
X1717785Y18687D01*
X1717504Y18019D01*
X1717206Y17358D01*
X1716893Y16704D01*
X1716564Y16058D01*
X1716219Y15420D01*
X1715859Y14791D01*
X1715484Y14171D01*
X1715094Y13560D01*
X1714690Y12958D01*
X1714271Y12366D01*
X1713837Y11785D01*
X1713390Y11214D01*
X1712929Y10655D01*
X1712455Y10106D01*
X1711968Y9570D01*
X1711468Y9045D01*
X1710955Y8532D01*
X1710430Y8032D01*
X1709894Y7545D01*
X1709345Y7071D01*
X1708786Y6610D01*
X1708215Y6163D01*
X1707634Y5729D01*
X1707042Y5310D01*
X1706440Y4906D01*
X1705829Y4516D01*
X1705209Y4141D01*
X1704580Y3781D01*
X1703942Y3436D01*
X1703296Y3107D01*
X1702642Y2794D01*
X1701981Y2496D01*
X1701313Y2215D01*
X1700638Y1950D01*
X1699957Y1701D01*
X1699271Y1468D01*
X1698578Y1253D01*
X1697881Y1054D01*
X1697179Y872D01*
X1696474Y707D01*
X1695764Y559D01*
X1695051Y428D01*
X1694335Y315D01*
X1693616Y219D01*
X1692895Y140D01*
X1692173Y79D01*
X1691449Y35D01*
X1690725Y9D01*
X1690000Y0D01*
X30000Y0D02*
X29275Y9D01*
X28551Y35D01*
X27827Y79D01*
X27105Y140D01*
X26384Y219D01*
X25665Y315D01*
X24949Y428D01*
X24236Y559D01*
X23526Y707D01*
X22821Y872D01*
X22119Y1054D01*
X21422Y1253D01*
X20729Y1468D01*
X20043Y1701D01*
X19362Y1950D01*
X18687Y2215D01*
X18019Y2496D01*
X17358Y2794D01*
X16704Y3107D01*
X16058Y3436D01*
X15420Y3781D01*
X14791Y4141D01*
X14171Y4516D01*
X13560Y4906D01*
X12958Y5310D01*
X12366Y5729D01*
X11785Y6163D01*
X11214Y6610D01*
X10655Y7071D01*
X10106Y7545D01*
X9570Y8032D01*
X9045Y8532D01*
X8532Y9045D01*
X8032Y9570D01*
X7545Y10106D01*
X7071Y10655D01*
X6610Y11214D01*
X6163Y11785D01*
X5729Y12366D01*
X5310Y12958D01*
X4906Y13560D01*
X4516Y14171D01*
X4141Y14791D01*
X3781Y15420D01*
X3436Y16058D01*
X3107Y16704D01*
X2794Y17358D01*
X2496Y18019D01*
X2215Y18687D01*
X1950Y19362D01*
X1701Y20043D01*
X1468Y20729D01*
X1253Y21422D01*
X1054Y22119D01*
X872Y22821D01*
X707Y23526D01*
X559Y24236D01*
X428Y24949D01*
X315Y25665D01*
X219Y26384D01*
X140Y27105D01*
X79Y27827D01*
X35Y28551D01*
X9Y29275D01*
X0Y30000D01*
X720000Y640000D02*
X720006Y639517D01*
X720023Y639034D01*
X720053Y638551D01*
X720093Y638070D01*
X720146Y637589D01*
X720210Y637110D01*
X720285Y636633D01*
X720373Y636157D01*
X720471Y635684D01*
X720581Y635214D01*
X720702Y634746D01*
X720835Y634281D01*
X720979Y633820D01*
X721134Y633362D01*
X721300Y632908D01*
X721477Y632458D01*
X721664Y632013D01*
X721863Y631572D01*
X722071Y631136D01*
X722291Y630706D01*
X722521Y630280D01*
X722761Y629861D01*
X723011Y629447D01*
X723271Y629040D01*
X723540Y628639D01*
X723820Y628244D01*
X724108Y627857D01*
X724407Y627476D01*
X724714Y627103D01*
X725030Y626738D01*
X725355Y626380D01*
X725688Y626030D01*
X726030Y625688D01*
X726380Y625355D01*
X726738Y625030D01*
X727103Y624714D01*
X727476Y624407D01*
X727857Y624108D01*
X728244Y623820D01*
X728639Y623540D01*
X729040Y623271D01*
X729447Y623011D01*
X729861Y622761D01*
X730280Y622521D01*
X730706Y622291D01*
X731136Y622071D01*
X731572Y621863D01*
X732013Y621664D01*
X732458Y621477D01*
X732908Y621300D01*
X733362Y621134D01*
X733820Y620979D01*
X734281Y620835D01*
X734746Y620702D01*
X735214Y620581D01*
X735684Y620471D01*
X736157Y620373D01*
X736633Y620285D01*
X737110Y620210D01*
X737589Y620146D01*
X738070Y620093D01*
X738551Y620053D01*
X739034Y620023D01*
X739517Y620006D01*
X740000Y620000D01*
X850000Y620000D01*
X850483Y620006D01*
X850966Y620023D01*
X851449Y620053D01*
X851930Y620093D01*
X852411Y620146D01*
X852890Y620210D01*
X853367Y620285D01*
X853843Y620373D01*
X854316Y620471D01*
X854786Y620581D01*
X855254Y620702D01*
X855719Y620835D01*
X856180Y620979D01*
X856638Y621134D01*
X857092Y621300D01*
X857542Y621477D01*
X857987Y621664D01*
X858428Y621863D01*
X858864Y622071D01*
X859294Y622291D01*
X859720Y622521D01*
X860139Y622761D01*
X860553Y623011D01*
X860960Y623271D01*
X861361Y623540D01*
X861756Y623820D01*
X862143Y624108D01*
X862524Y624407D01*
X862897Y624714D01*
X863262Y625030D01*
X863620Y625355D01*
X863970Y625688D01*
X864312Y626030D01*
X864645Y626380D01*
X864970Y626738D01*
X865286Y627103D01*
X865593Y627476D01*
X865892Y627857D01*
X866180Y628244D01*
X866460Y628639D01*
X866729Y629040D01*
X866989Y629447D01*
X867239Y629861D01*
X867479Y630280D01*
X867709Y630706D01*
X867929Y631136D01*
X868137Y631572D01*
X868336Y632013D01*
X868523Y632458D01*
X868700Y632908D01*
X868866Y633362D01*
X869021Y633820D01*
X869165Y634281D01*
X869298Y634746D01*
X869419Y635214D01*
X869529Y635684D01*
X869627Y636157D01*
X869715Y636633D01*
X869790Y637110D01*
X869854Y637589D01*
X869907Y638070D01*
X869947Y638551D01*
X869977Y639034D01*
X869994Y639517D01*
X870000Y640000D01*
X953900Y182700D02*
X1411100Y182700D01*
X1449200Y220800D02*
X1449200Y449400D01*
X1411100Y487500D02*
X953900Y487500D01*
X915800Y449400D02*
X915800Y220800D01*
X1411100Y182700D02*
X1412021Y182711D01*
X1412941Y182744D01*
X1413860Y182800D01*
X1414777Y182878D01*
X1415692Y182978D01*
X1416605Y183100D01*
X1417514Y183244D01*
X1418420Y183410D01*
X1419321Y183598D01*
X1420218Y183807D01*
X1421109Y184038D01*
X1421995Y184291D01*
X1422874Y184565D01*
X1423746Y184860D01*
X1424610Y185176D01*
X1425467Y185513D01*
X1426316Y185870D01*
X1427155Y186248D01*
X1427986Y186646D01*
X1428806Y187064D01*
X1429616Y187502D01*
X1430415Y187959D01*
X1431203Y188435D01*
X1431979Y188930D01*
X1432743Y189444D01*
X1433495Y189976D01*
X1434233Y190527D01*
X1434958Y191094D01*
X1435668Y191680D01*
X1436365Y192282D01*
X1437047Y192901D01*
X1437713Y193536D01*
X1438364Y194187D01*
X1438999Y194853D01*
X1439618Y195535D01*
X1440220Y196232D01*
X1440806Y196942D01*
X1441373Y197667D01*
X1441924Y198405D01*
X1442456Y199157D01*
X1442970Y199921D01*
X1443465Y200697D01*
X1443941Y201485D01*
X1444398Y202284D01*
X1444836Y203094D01*
X1445254Y203914D01*
X1445652Y204745D01*
X1446030Y205584D01*
X1446387Y206433D01*
X1446724Y207290D01*
X1447040Y208154D01*
X1447335Y209026D01*
X1447609Y209905D01*
X1447862Y210791D01*
X1448093Y211682D01*
X1448302Y212579D01*
X1448490Y213480D01*
X1448656Y214386D01*
X1448800Y215295D01*
X1448922Y216208D01*
X1449022Y217123D01*
X1449100Y218040D01*
X1449156Y218959D01*
X1449189Y219879D01*
X1449200Y220800D01*
X953900Y182700D02*
X952979Y182711D01*
X952059Y182744D01*
X951140Y182800D01*
X950223Y182878D01*
X949308Y182978D01*
X948395Y183100D01*
X947486Y183244D01*
X946580Y183410D01*
X945679Y183598D01*
X944782Y183807D01*
X943891Y184038D01*
X943005Y184291D01*
X942126Y184565D01*
X941254Y184860D01*
X940390Y185176D01*
X939533Y185513D01*
X938684Y185870D01*
X937845Y186248D01*
X937014Y186646D01*
X936194Y187064D01*
X935384Y187502D01*
X934585Y187959D01*
X933797Y188435D01*
X933021Y188930D01*
X932257Y189444D01*
X931505Y189976D01*
X930767Y190527D01*
X930042Y191094D01*
X929332Y191680D01*
X928635Y192282D01*
X927953Y192901D01*
X927287Y193536D01*
X926636Y194187D01*
X926001Y194853D01*
X925382Y195535D01*
X924780Y196232D01*
X924194Y196942D01*
X923627Y197667D01*
X923076Y198405D01*
X922544Y199157D01*
X922030Y199921D01*
X921535Y200697D01*
X921059Y201485D01*
X920602Y202284D01*
X920164Y203094D01*
X919746Y203914D01*
X919348Y204745D01*
X918970Y205584D01*
X918613Y206433D01*
X918276Y207290D01*
X917960Y208154D01*
X917665Y209026D01*
X917391Y209905D01*
X917138Y210791D01*
X916907Y211682D01*
X916698Y212579D01*
X916510Y213480D01*
X916344Y214386D01*
X916200Y215295D01*
X916078Y216208D01*
X915978Y217123D01*
X915900Y218040D01*
X915844Y218959D01*
X915811Y219879D01*
X915800Y220800D01*
X915800Y449400D02*
X915811Y450321D01*
X915844Y451241D01*
X915900Y452160D01*
X915978Y453077D01*
X916078Y453992D01*
X916200Y454905D01*
X916344Y455814D01*
X916510Y456720D01*
X916698Y457621D01*
X916907Y458518D01*
X917138Y459409D01*
X917391Y460295D01*
X917665Y461174D01*
X917960Y462046D01*
X918276Y462910D01*
X918613Y463767D01*
X918970Y464616D01*
X919348Y465455D01*
X919746Y466286D01*
X920164Y467106D01*
X920602Y467916D01*
X921059Y468715D01*
X921535Y469503D01*
X922030Y470279D01*
X922544Y471043D01*
X923076Y471795D01*
X923627Y472533D01*
X924194Y473258D01*
X924780Y473968D01*
X925382Y474665D01*
X926001Y475347D01*
X926636Y476013D01*
X927287Y476664D01*
X927953Y477299D01*
X928635Y477918D01*
X929332Y478520D01*
X930042Y479106D01*
X930767Y479673D01*
X931505Y480224D01*
X932257Y480756D01*
X933021Y481270D01*
X933797Y481765D01*
X934585Y482241D01*
X935384Y482698D01*
X936194Y483136D01*
X937014Y483554D01*
X937845Y483952D01*
X938684Y484330D01*
X939533Y484687D01*
X940390Y485024D01*
X941254Y485340D01*
X942126Y485635D01*
X943005Y485909D01*
X943891Y486162D01*
X944782Y486393D01*
X945679Y486602D01*
X946580Y486790D01*
X947486Y486956D01*
X948395Y487100D01*
X949308Y487222D01*
X950223Y487322D01*
X951140Y487400D01*
X952059Y487456D01*
X952979Y487489D01*
X953900Y487500D01*
X1411100Y487500D02*
X1412021Y487489D01*
X1412941Y487456D01*
X1413860Y487400D01*
X1414777Y487322D01*
X1415692Y487222D01*
X1416605Y487100D01*
X1417514Y486956D01*
X1418420Y486790D01*
X1419321Y486602D01*
X1420218Y486393D01*
X1421109Y486162D01*
X1421995Y485909D01*
X1422874Y485635D01*
X1423746Y485340D01*
X1424610Y485024D01*
X1425467Y484687D01*
X1426316Y484330D01*
X1427155Y483952D01*
X1427986Y483554D01*
X1428806Y483136D01*
X1429616Y482698D01*
X1430415Y482241D01*
X1431203Y481765D01*
X1431979Y481270D01*
X1432743Y480756D01*
X1433495Y480224D01*
X1434233Y479673D01*
X1434958Y479106D01*
X1435668Y478520D01*
X1436365Y477918D01*
X1437047Y477299D01*
X1437713Y476664D01*
X1438364Y476013D01*
X1438999Y475347D01*
X1439618Y474665D01*
X1440220Y473968D01*
X1440806Y473258D01*
X1441373Y472533D01*
X1441924Y471795D01*
X1442456Y471043D01*
X1442970Y470279D01*
X1443465Y469503D01*
X1443941Y468715D01*
X1444398Y467916D01*
X1444836Y467106D01*
X1445254Y466286D01*
X1445652Y465455D01*
X1446030Y464616D01*
X1446387Y463767D01*
X1446724Y462910D01*
X1447040Y462046D01*
X1447335Y461174D01*
X1447609Y460295D01*
X1447862Y459409D01*
X1448093Y458518D01*
X1448302Y457621D01*
X1448490Y456720D01*
X1448656Y455814D01*
X1448800Y454905D01*
X1448922Y453992D01*
X1449022Y453077D01*
X1449100Y452160D01*
X1449156Y451241D01*
X1449189Y450321D01*
X1449200Y449400D01*
X1679000Y54900D02*
X1679005Y55268D01*
X1679018Y55636D01*
X1679041Y56003D01*
X1679072Y56370D01*
X1679113Y56736D01*
X1679162Y57101D01*
X1679221Y57464D01*
X1679288Y57826D01*
X1679364Y58187D01*
X1679450Y58545D01*
X1679543Y58901D01*
X1679646Y59254D01*
X1679757Y59605D01*
X1679877Y59953D01*
X1680005Y60298D01*
X1680142Y60640D01*
X1680287Y60979D01*
X1680440Y61313D01*
X1680602Y61644D01*
X1680771Y61971D01*
X1680949Y62293D01*
X1681134Y62612D01*
X1681327Y62925D01*
X1681528Y63234D01*
X1681736Y63537D01*
X1681952Y63835D01*
X1682175Y64128D01*
X1682405Y64416D01*
X1682642Y64698D01*
X1682886Y64973D01*
X1683136Y65243D01*
X1683393Y65507D01*
X1683657Y65764D01*
X1683927Y66014D01*
X1684202Y66258D01*
X1684484Y66495D01*
X1684772Y66725D01*
X1685065Y66948D01*
X1685363Y67164D01*
X1685666Y67372D01*
X1685975Y67573D01*
X1686288Y67766D01*
X1686607Y67951D01*
X1686929Y68129D01*
X1687256Y68298D01*
X1687587Y68460D01*
X1687921Y68613D01*
X1688260Y68758D01*
X1688602Y68895D01*
X1688947Y69023D01*
X1689295Y69143D01*
X1689646Y69254D01*
X1689999Y69357D01*
X1690355Y69450D01*
X1690713Y69536D01*
X1691074Y69612D01*
X1691436Y69679D01*
X1691799Y69738D01*
X1692164Y69787D01*
X1692530Y69828D01*
X1692897Y69859D01*
X1693264Y69882D01*
X1693632Y69895D01*
X1694000Y69900D01*
X1694368Y69895D01*
X1694736Y69882D01*
X1695103Y69859D01*
X1695470Y69828D01*
X1695836Y69787D01*
X1696201Y69738D01*
X1696564Y69679D01*
X1696926Y69612D01*
X1697287Y69536D01*
X1697645Y69450D01*
X1698001Y69357D01*
X1698354Y69254D01*
X1698705Y69143D01*
X1699053Y69023D01*
X1699398Y68895D01*
X1699740Y68758D01*
X1700079Y68613D01*
X1700413Y68460D01*
X1700744Y68298D01*
X1701071Y68129D01*
X1701393Y67951D01*
X1701712Y67766D01*
X1702025Y67573D01*
X1702334Y67372D01*
X1702637Y67164D01*
X1702935Y66948D01*
X1703228Y66725D01*
X1703516Y66495D01*
X1703798Y66258D01*
X1704073Y66014D01*
X1704343Y65764D01*
X1704607Y65507D01*
X1704864Y65243D01*
X1705114Y64973D01*
X1705358Y64698D01*
X1705595Y64416D01*
X1705825Y64128D01*
X1706048Y63835D01*
X1706264Y63537D01*
X1706472Y63234D01*
X1706673Y62925D01*
X1706866Y62612D01*
X1707051Y62293D01*
X1707229Y61971D01*
X1707398Y61644D01*
X1707560Y61313D01*
X1707713Y60979D01*
X1707858Y60640D01*
X1707995Y60298D01*
X1708123Y59953D01*
X1708243Y59605D01*
X1708354Y59254D01*
X1708457Y58901D01*
X1708550Y58545D01*
X1708636Y58187D01*
X1708712Y57826D01*
X1708779Y57464D01*
X1708838Y57101D01*
X1708887Y56736D01*
X1708928Y56370D01*
X1708959Y56003D01*
X1708982Y55636D01*
X1708995Y55268D01*
X1709000Y54900D01*
X1708995Y54532D01*
X1708982Y54164D01*
X1708959Y53797D01*
X1708928Y53430D01*
X1708887Y53064D01*
X1708838Y52699D01*
X1708779Y52336D01*
X1708712Y51974D01*
X1708636Y51613D01*
X1708550Y51255D01*
X1708457Y50899D01*
X1708354Y50546D01*
X1708243Y50195D01*
X1708123Y49847D01*
X1707995Y49502D01*
X1707858Y49160D01*
X1707713Y48821D01*
X1707560Y48487D01*
X1707398Y48156D01*
X1707229Y47829D01*
X1707051Y47507D01*
X1706866Y47188D01*
X1706673Y46875D01*
X1706472Y46566D01*
X1706264Y46263D01*
X1706048Y45965D01*
X1705825Y45672D01*
X1705595Y45384D01*
X1705358Y45102D01*
X1705114Y44827D01*
X1704864Y44557D01*
X1704607Y44293D01*
X1704343Y44036D01*
X1704073Y43786D01*
X1703798Y43542D01*
X1703516Y43305D01*
X1703228Y43075D01*
X1702935Y42852D01*
X1702637Y42636D01*
X1702334Y42428D01*
X1702025Y42227D01*
X1701712Y42034D01*
X1701393Y41849D01*
X1701071Y41671D01*
X1700744Y41502D01*
X1700413Y41340D01*
X1700079Y41187D01*
X1699740Y41042D01*
X1699398Y40905D01*
X1699053Y40777D01*
X1698705Y40657D01*
X1698354Y40546D01*
X1698001Y40443D01*
X1697645Y40350D01*
X1697287Y40264D01*
X1696926Y40188D01*
X1696564Y40121D01*
X1696201Y40062D01*
X1695836Y40013D01*
X1695470Y39972D01*
X1695103Y39941D01*
X1694736Y39918D01*
X1694368Y39905D01*
X1694000Y39900D01*
X1693632Y39905D01*
X1693264Y39918D01*
X1692897Y39941D01*
X1692530Y39972D01*
X1692164Y40013D01*
X1691799Y40062D01*
X1691436Y40121D01*
X1691074Y40188D01*
X1690713Y40264D01*
X1690355Y40350D01*
X1689999Y40443D01*
X1689646Y40546D01*
X1689295Y40657D01*
X1688947Y40777D01*
X1688602Y40905D01*
X1688260Y41042D01*
X1687921Y41187D01*
X1687587Y41340D01*
X1687256Y41502D01*
X1686929Y41671D01*
X1686607Y41849D01*
X1686288Y42034D01*
X1685975Y42227D01*
X1685666Y42428D01*
X1685363Y42636D01*
X1685065Y42852D01*
X1684772Y43075D01*
X1684484Y43305D01*
X1684202Y43542D01*
X1683927Y43786D01*
X1683657Y44036D01*
X1683393Y44293D01*
X1683136Y44557D01*
X1682886Y44827D01*
X1682642Y45102D01*
X1682405Y45384D01*
X1682175Y45672D01*
X1681952Y45965D01*
X1681736Y46263D01*
X1681528Y46566D01*
X1681327Y46875D01*
X1681134Y47188D01*
X1680949Y47507D01*
X1680771Y47829D01*
X1680602Y48156D01*
X1680440Y48487D01*
X1680287Y48821D01*
X1680142Y49160D01*
X1680005Y49502D01*
X1679877Y49847D01*
X1679757Y50195D01*
X1679646Y50546D01*
X1679543Y50899D01*
X1679450Y51255D01*
X1679364Y51613D01*
X1679288Y51974D01*
X1679221Y52336D01*
X1679162Y52699D01*
X1679113Y53064D01*
X1679072Y53430D01*
X1679041Y53797D01*
X1679018Y54164D01*
X1679005Y54532D01*
X1679000Y54900D01*
X1511000Y54900D02*
X1511005Y55268D01*
X1511018Y55636D01*
X1511041Y56003D01*
X1511072Y56370D01*
X1511113Y56736D01*
X1511162Y57101D01*
X1511221Y57464D01*
X1511288Y57826D01*
X1511364Y58187D01*
X1511450Y58545D01*
X1511543Y58901D01*
X1511646Y59254D01*
X1511757Y59605D01*
X1511877Y59953D01*
X1512005Y60298D01*
X1512142Y60640D01*
X1512287Y60979D01*
X1512440Y61313D01*
X1512602Y61644D01*
X1512771Y61971D01*
X1512949Y62293D01*
X1513134Y62612D01*
X1513327Y62925D01*
X1513528Y63234D01*
X1513736Y63537D01*
X1513952Y63835D01*
X1514175Y64128D01*
X1514405Y64416D01*
X1514642Y64698D01*
X1514886Y64973D01*
X1515136Y65243D01*
X1515393Y65507D01*
X1515657Y65764D01*
X1515927Y66014D01*
X1516202Y66258D01*
X1516484Y66495D01*
X1516772Y66725D01*
X1517065Y66948D01*
X1517363Y67164D01*
X1517666Y67372D01*
X1517975Y67573D01*
X1518288Y67766D01*
X1518607Y67951D01*
X1518929Y68129D01*
X1519256Y68298D01*
X1519587Y68460D01*
X1519921Y68613D01*
X1520260Y68758D01*
X1520602Y68895D01*
X1520947Y69023D01*
X1521295Y69143D01*
X1521646Y69254D01*
X1521999Y69357D01*
X1522355Y69450D01*
X1522713Y69536D01*
X1523074Y69612D01*
X1523436Y69679D01*
X1523799Y69738D01*
X1524164Y69787D01*
X1524530Y69828D01*
X1524897Y69859D01*
X1525264Y69882D01*
X1525632Y69895D01*
X1526000Y69900D01*
X1526368Y69895D01*
X1526736Y69882D01*
X1527103Y69859D01*
X1527470Y69828D01*
X1527836Y69787D01*
X1528201Y69738D01*
X1528564Y69679D01*
X1528926Y69612D01*
X1529287Y69536D01*
X1529645Y69450D01*
X1530001Y69357D01*
X1530354Y69254D01*
X1530705Y69143D01*
X1531053Y69023D01*
X1531398Y68895D01*
X1531740Y68758D01*
X1532079Y68613D01*
X1532413Y68460D01*
X1532744Y68298D01*
X1533071Y68129D01*
X1533393Y67951D01*
X1533712Y67766D01*
X1534025Y67573D01*
X1534334Y67372D01*
X1534637Y67164D01*
X1534935Y66948D01*
X1535228Y66725D01*
X1535516Y66495D01*
X1535798Y66258D01*
X1536073Y66014D01*
X1536343Y65764D01*
X1536607Y65507D01*
X1536864Y65243D01*
X1537114Y64973D01*
X1537358Y64698D01*
X1537595Y64416D01*
X1537825Y64128D01*
X1538048Y63835D01*
X1538264Y63537D01*
X1538472Y63234D01*
X1538673Y62925D01*
X1538866Y62612D01*
X1539051Y62293D01*
X1539229Y61971D01*
X1539398Y61644D01*
X1539560Y61313D01*
X1539713Y60979D01*
X1539858Y60640D01*
X1539995Y60298D01*
X1540123Y59953D01*
X1540243Y59605D01*
X1540354Y59254D01*
X1540457Y58901D01*
X1540550Y58545D01*
X1540636Y58187D01*
X1540712Y57826D01*
X1540779Y57464D01*
X1540838Y57101D01*
X1540887Y56736D01*
X1540928Y56370D01*
X1540959Y56003D01*
X1540982Y55636D01*
X1540995Y55268D01*
X1541000Y54900D01*
X1540995Y54532D01*
X1540982Y54164D01*
X1540959Y53797D01*
X1540928Y53430D01*
X1540887Y53064D01*
X1540838Y52699D01*
X1540779Y52336D01*
X1540712Y51974D01*
X1540636Y51613D01*
X1540550Y51255D01*
X1540457Y50899D01*
X1540354Y50546D01*
X1540243Y50195D01*
X1540123Y49847D01*
X1539995Y49502D01*
X1539858Y49160D01*
X1539713Y48821D01*
X1539560Y48487D01*
X1539398Y48156D01*
X1539229Y47829D01*
X1539051Y47507D01*
X1538866Y47188D01*
X1538673Y46875D01*
X1538472Y46566D01*
X1538264Y46263D01*
X1538048Y45965D01*
X1537825Y45672D01*
X1537595Y45384D01*
X1537358Y45102D01*
X1537114Y44827D01*
X1536864Y44557D01*
X1536607Y44293D01*
X1536343Y44036D01*
X1536073Y43786D01*
X1535798Y43542D01*
X1535516Y43305D01*
X1535228Y43075D01*
X1534935Y42852D01*
X1534637Y42636D01*
X1534334Y42428D01*
X1534025Y42227D01*
X1533712Y42034D01*
X1533393Y41849D01*
X1533071Y41671D01*
X1532744Y41502D01*
X1532413Y41340D01*
X1532079Y41187D01*
X1531740Y41042D01*
X1531398Y40905D01*
X1531053Y40777D01*
X1530705Y40657D01*
X1530354Y40546D01*
X1530001Y40443D01*
X1529645Y40350D01*
X1529287Y40264D01*
X1528926Y40188D01*
X1528564Y40121D01*
X1528201Y40062D01*
X1527836Y40013D01*
X1527470Y39972D01*
X1527103Y39941D01*
X1526736Y39918D01*
X1526368Y39905D01*
X1526000Y39900D01*
X1525632Y39905D01*
X1525264Y39918D01*
X1524897Y39941D01*
X1524530Y39972D01*
X1524164Y40013D01*
X1523799Y40062D01*
X1523436Y40121D01*
X1523074Y40188D01*
X1522713Y40264D01*
X1522355Y40350D01*
X1521999Y40443D01*
X1521646Y40546D01*
X1521295Y40657D01*
X1520947Y40777D01*
X1520602Y40905D01*
X1520260Y41042D01*
X1519921Y41187D01*
X1519587Y41340D01*
X1519256Y41502D01*
X1518929Y41671D01*
X1518607Y41849D01*
X1518288Y42034D01*
X1517975Y42227D01*
X1517666Y42428D01*
X1517363Y42636D01*
X1517065Y42852D01*
X1516772Y43075D01*
X1516484Y43305D01*
X1516202Y43542D01*
X1515927Y43786D01*
X1515657Y44036D01*
X1515393Y44293D01*
X1515136Y44557D01*
X1514886Y44827D01*
X1514642Y45102D01*
X1514405Y45384D01*
X1514175Y45672D01*
X1513952Y45965D01*
X1513736Y46263D01*
X1513528Y46566D01*
X1513327Y46875D01*
X1513134Y47188D01*
X1512949Y47507D01*
X1512771Y47829D01*
X1512602Y48156D01*
X1512440Y48487D01*
X1512287Y48821D01*
X1512142Y49160D01*
X1512005Y49502D01*
X1511877Y49847D01*
X1511757Y50195D01*
X1511646Y50546D01*
X1511543Y50899D01*
X1511450Y51255D01*
X1511364Y51613D01*
X1511288Y51974D01*
X1511221Y52336D01*
X1511162Y52699D01*
X1511113Y53064D01*
X1511072Y53430D01*
X1511041Y53797D01*
X1511018Y54164D01*
X1511005Y54532D01*
X1511000Y54900D01*
X179000Y54900D02*
X179005Y55268D01*
X179018Y55636D01*
X179041Y56003D01*
X179072Y56370D01*
X179113Y56736D01*
X179162Y57101D01*
X179221Y57464D01*
X179288Y57826D01*
X179364Y58187D01*
X179450Y58545D01*
X179543Y58901D01*
X179646Y59254D01*
X179757Y59605D01*
X179877Y59953D01*
X180005Y60298D01*
X180142Y60640D01*
X180287Y60979D01*
X180440Y61313D01*
X180602Y61644D01*
X180771Y61971D01*
X180949Y62293D01*
X181134Y62612D01*
X181327Y62925D01*
X181528Y63234D01*
X181736Y63537D01*
X181952Y63835D01*
X182175Y64128D01*
X182405Y64416D01*
X182642Y64698D01*
X182886Y64973D01*
X183136Y65243D01*
X183393Y65507D01*
X183657Y65764D01*
X183927Y66014D01*
X184202Y66258D01*
X184484Y66495D01*
X184772Y66725D01*
X185065Y66948D01*
X185363Y67164D01*
X185666Y67372D01*
X185975Y67573D01*
X186288Y67766D01*
X186607Y67951D01*
X186929Y68129D01*
X187256Y68298D01*
X187587Y68460D01*
X187921Y68613D01*
X188260Y68758D01*
X188602Y68895D01*
X188947Y69023D01*
X189295Y69143D01*
X189646Y69254D01*
X189999Y69357D01*
X190355Y69450D01*
X190713Y69536D01*
X191074Y69612D01*
X191436Y69679D01*
X191799Y69738D01*
X192164Y69787D01*
X192530Y69828D01*
X192897Y69859D01*
X193264Y69882D01*
X193632Y69895D01*
X194000Y69900D01*
X194368Y69895D01*
X194736Y69882D01*
X195103Y69859D01*
X195470Y69828D01*
X195836Y69787D01*
X196201Y69738D01*
X196564Y69679D01*
X196926Y69612D01*
X197287Y69536D01*
X197645Y69450D01*
X198001Y69357D01*
X198354Y69254D01*
X198705Y69143D01*
X199053Y69023D01*
X199398Y68895D01*
X199740Y68758D01*
X200079Y68613D01*
X200413Y68460D01*
X200744Y68298D01*
X201071Y68129D01*
X201393Y67951D01*
X201712Y67766D01*
X202025Y67573D01*
X202334Y67372D01*
X202637Y67164D01*
X202935Y66948D01*
X203228Y66725D01*
X203516Y66495D01*
X203798Y66258D01*
X204073Y66014D01*
X204343Y65764D01*
X204607Y65507D01*
X204864Y65243D01*
X205114Y64973D01*
X205358Y64698D01*
X205595Y64416D01*
X205825Y64128D01*
X206048Y63835D01*
X206264Y63537D01*
X206472Y63234D01*
X206673Y62925D01*
X206866Y62612D01*
X207051Y62293D01*
X207229Y61971D01*
X207398Y61644D01*
X207560Y61313D01*
X207713Y60979D01*
X207858Y60640D01*
X207995Y60298D01*
X208123Y59953D01*
X208243Y59605D01*
X208354Y59254D01*
X208457Y58901D01*
X208550Y58545D01*
X208636Y58187D01*
X208712Y57826D01*
X208779Y57464D01*
X208838Y57101D01*
X208887Y56736D01*
X208928Y56370D01*
X208959Y56003D01*
X208982Y55636D01*
X208995Y55268D01*
X209000Y54900D01*
X208995Y54532D01*
X208982Y54164D01*
X208959Y53797D01*
X208928Y53430D01*
X208887Y53064D01*
X208838Y52699D01*
X208779Y52336D01*
X208712Y51974D01*
X208636Y51613D01*
X208550Y51255D01*
X208457Y50899D01*
X208354Y50546D01*
X208243Y50195D01*
X208123Y49847D01*
X207995Y49502D01*
X207858Y49160D01*
X207713Y48821D01*
X207560Y48487D01*
X207398Y48156D01*
X207229Y47829D01*
X207051Y47507D01*
X206866Y47188D01*
X206673Y46875D01*
X206472Y46566D01*
X206264Y46263D01*
X206048Y45965D01*
X205825Y45672D01*
X205595Y45384D01*
X205358Y45102D01*
X205114Y44827D01*
X204864Y44557D01*
X204607Y44293D01*
X204343Y44036D01*
X204073Y43786D01*
X203798Y43542D01*
X203516Y43305D01*
X203228Y43075D01*
X202935Y42852D01*
X202637Y42636D01*
X202334Y42428D01*
X202025Y42227D01*
X201712Y42034D01*
X201393Y41849D01*
X201071Y41671D01*
X200744Y41502D01*
X200413Y41340D01*
X200079Y41187D01*
X199740Y41042D01*
X199398Y40905D01*
X199053Y40777D01*
X198705Y40657D01*
X198354Y40546D01*
X198001Y40443D01*
X197645Y40350D01*
X197287Y40264D01*
X196926Y40188D01*
X196564Y40121D01*
X196201Y40062D01*
X195836Y40013D01*
X195470Y39972D01*
X195103Y39941D01*
X194736Y39918D01*
X194368Y39905D01*
X194000Y39900D01*
X193632Y39905D01*
X193264Y39918D01*
X192897Y39941D01*
X192530Y39972D01*
X192164Y40013D01*
X191799Y40062D01*
X191436Y40121D01*
X191074Y40188D01*
X190713Y40264D01*
X190355Y40350D01*
X189999Y40443D01*
X189646Y40546D01*
X189295Y40657D01*
X188947Y40777D01*
X188602Y40905D01*
X188260Y41042D01*
X187921Y41187D01*
X187587Y41340D01*
X187256Y41502D01*
X186929Y41671D01*
X186607Y41849D01*
X186288Y42034D01*
X185975Y42227D01*
X185666Y42428D01*
X185363Y42636D01*
X185065Y42852D01*
X184772Y43075D01*
X184484Y43305D01*
X184202Y43542D01*
X183927Y43786D01*
X183657Y44036D01*
X183393Y44293D01*
X183136Y44557D01*
X182886Y44827D01*
X182642Y45102D01*
X182405Y45384D01*
X182175Y45672D01*
X181952Y45965D01*
X181736Y46263D01*
X181528Y46566D01*
X181327Y46875D01*
X181134Y47188D01*
X180949Y47507D01*
X180771Y47829D01*
X180602Y48156D01*
X180440Y48487D01*
X180287Y48821D01*
X180142Y49160D01*
X180005Y49502D01*
X179877Y49847D01*
X179757Y50195D01*
X179646Y50546D01*
X179543Y50899D01*
X179450Y51255D01*
X179364Y51613D01*
X179288Y51974D01*
X179221Y52336D01*
X179162Y52699D01*
X179113Y53064D01*
X179072Y53430D01*
X179041Y53797D01*
X179018Y54164D01*
X179005Y54532D01*
X179000Y54900D01*
X11000Y54900D02*
X11005Y55268D01*
X11018Y55636D01*
X11041Y56003D01*
X11072Y56370D01*
X11113Y56736D01*
X11162Y57101D01*
X11221Y57464D01*
X11288Y57826D01*
X11364Y58187D01*
X11450Y58545D01*
X11543Y58901D01*
X11646Y59254D01*
X11757Y59605D01*
X11877Y59953D01*
X12005Y60298D01*
X12142Y60640D01*
X12287Y60979D01*
X12440Y61313D01*
X12602Y61644D01*
X12771Y61971D01*
X12949Y62293D01*
X13134Y62612D01*
X13327Y62925D01*
X13528Y63234D01*
X13736Y63537D01*
X13952Y63835D01*
X14175Y64128D01*
X14405Y64416D01*
X14642Y64698D01*
X14886Y64973D01*
X15136Y65243D01*
X15393Y65507D01*
X15657Y65764D01*
X15927Y66014D01*
X16202Y66258D01*
X16484Y66495D01*
X16772Y66725D01*
X17065Y66948D01*
X17363Y67164D01*
X17666Y67372D01*
X17975Y67573D01*
X18288Y67766D01*
X18607Y67951D01*
X18929Y68129D01*
X19256Y68298D01*
X19587Y68460D01*
X19921Y68613D01*
X20260Y68758D01*
X20602Y68895D01*
X20947Y69023D01*
X21295Y69143D01*
X21646Y69254D01*
X21999Y69357D01*
X22355Y69450D01*
X22713Y69536D01*
X23074Y69612D01*
X23436Y69679D01*
X23799Y69738D01*
X24164Y69787D01*
X24530Y69828D01*
X24897Y69859D01*
X25264Y69882D01*
X25632Y69895D01*
X26000Y69900D01*
X26368Y69895D01*
X26736Y69882D01*
X27103Y69859D01*
X27470Y69828D01*
X27836Y69787D01*
X28201Y69738D01*
X28564Y69679D01*
X28926Y69612D01*
X29287Y69536D01*
X29645Y69450D01*
X30001Y69357D01*
X30354Y69254D01*
X30705Y69143D01*
X31053Y69023D01*
X31398Y68895D01*
X31740Y68758D01*
X32079Y68613D01*
X32413Y68460D01*
X32744Y68298D01*
X33071Y68129D01*
X33393Y67951D01*
X33712Y67766D01*
X34025Y67573D01*
X34334Y67372D01*
X34637Y67164D01*
X34935Y66948D01*
X35228Y66725D01*
X35516Y66495D01*
X35798Y66258D01*
X36073Y66014D01*
X36343Y65764D01*
X36607Y65507D01*
X36864Y65243D01*
X37114Y64973D01*
X37358Y64698D01*
X37595Y64416D01*
X37825Y64128D01*
X38048Y63835D01*
X38264Y63537D01*
X38472Y63234D01*
X38673Y62925D01*
X38866Y62612D01*
X39051Y62293D01*
X39229Y61971D01*
X39398Y61644D01*
X39560Y61313D01*
X39713Y60979D01*
X39858Y60640D01*
X39995Y60298D01*
X40123Y59953D01*
X40243Y59605D01*
X40354Y59254D01*
X40457Y58901D01*
X40550Y58545D01*
X40636Y58187D01*
X40712Y57826D01*
X40779Y57464D01*
X40838Y57101D01*
X40887Y56736D01*
X40928Y56370D01*
X40959Y56003D01*
X40982Y55636D01*
X40995Y55268D01*
X41000Y54900D01*
X40995Y54532D01*
X40982Y54164D01*
X40959Y53797D01*
X40928Y53430D01*
X40887Y53064D01*
X40838Y52699D01*
X40779Y52336D01*
X40712Y51974D01*
X40636Y51613D01*
X40550Y51255D01*
X40457Y50899D01*
X40354Y50546D01*
X40243Y50195D01*
X40123Y49847D01*
X39995Y49502D01*
X39858Y49160D01*
X39713Y48821D01*
X39560Y48487D01*
X39398Y48156D01*
X39229Y47829D01*
X39051Y47507D01*
X38866Y47188D01*
X38673Y46875D01*
X38472Y46566D01*
X38264Y46263D01*
X38048Y45965D01*
X37825Y45672D01*
X37595Y45384D01*
X37358Y45102D01*
X37114Y44827D01*
X36864Y44557D01*
X36607Y44293D01*
X36343Y44036D01*
X36073Y43786D01*
X35798Y43542D01*
X35516Y43305D01*
X35228Y43075D01*
X34935Y42852D01*
X34637Y42636D01*
X34334Y42428D01*
X34025Y42227D01*
X33712Y42034D01*
X33393Y41849D01*
X33071Y41671D01*
X32744Y41502D01*
X32413Y41340D01*
X32079Y41187D01*
X31740Y41042D01*
X31398Y40905D01*
X31053Y40777D01*
X30705Y40657D01*
X30354Y40546D01*
X30001Y40443D01*
X29645Y40350D01*
X29287Y40264D01*
X28926Y40188D01*
X28564Y40121D01*
X28201Y40062D01*
X27836Y40013D01*
X27470Y39972D01*
X27103Y39941D01*
X26736Y39918D01*
X26368Y39905D01*
X26000Y39900D01*
X25632Y39905D01*
X25264Y39918D01*
X24897Y39941D01*
X24530Y39972D01*
X24164Y40013D01*
X23799Y40062D01*
X23436Y40121D01*
X23074Y40188D01*
X22713Y40264D01*
X22355Y40350D01*
X21999Y40443D01*
X21646Y40546D01*
X21295Y40657D01*
X20947Y40777D01*
X20602Y40905D01*
X20260Y41042D01*
X19921Y41187D01*
X19587Y41340D01*
X19256Y41502D01*
X18929Y41671D01*
X18607Y41849D01*
X18288Y42034D01*
X17975Y42227D01*
X17666Y42428D01*
X17363Y42636D01*
X17065Y42852D01*
X16772Y43075D01*
X16484Y43305D01*
X16202Y43542D01*
X15927Y43786D01*
X15657Y44036D01*
X15393Y44293D01*
X15136Y44557D01*
X14886Y44827D01*
X14642Y45102D01*
X14405Y45384D01*
X14175Y45672D01*
X13952Y45965D01*
X13736Y46263D01*
X13528Y46566D01*
X13327Y46875D01*
X13134Y47188D01*
X12949Y47507D01*
X12771Y47829D01*
X12602Y48156D01*
X12440Y48487D01*
X12287Y48821D01*
X12142Y49160D01*
X12005Y49502D01*
X11877Y49847D01*
X11757Y50195D01*
X11646Y50546D01*
X11543Y50899D01*
X11450Y51255D01*
X11364Y51613D01*
X11288Y51974D01*
X11221Y52336D01*
X11162Y52699D01*
X11113Y53064D01*
X11072Y53430D01*
X11041Y53797D01*
X11018Y54164D01*
X11005Y54532D01*
X11000Y54900D01*
D11*
X0Y30000D02*
X114Y27385D01*
X456Y24791D01*
X1022Y22235D01*
X1809Y19739D01*
X2811Y17321D01*
X4019Y15000D01*
X5425Y12793D01*
X7019Y10716D01*
X8787Y8787D01*
X10716Y7019D01*
X12793Y5425D01*
X15000Y4019D01*
X17321Y2811D01*
X19739Y1809D01*
X22235Y1022D01*
X24791Y456D01*
X27385Y114D01*
X30000Y0D01*
X1690000Y0D01*
X1692615Y114D01*
X1695209Y456D01*
X1697765Y1022D01*
X1700261Y1809D01*
X1702679Y2811D01*
X1705000Y4019D01*
X1707207Y5425D01*
X1709284Y7019D01*
X1711213Y8787D01*
X1712981Y10716D01*
X1714575Y12793D01*
X1715981Y15000D01*
X1717189Y17321D01*
X1718191Y19739D01*
X1718978Y22235D01*
X1719544Y24791D01*
X1719886Y27385D01*
X1720000Y30000D01*
X1720000Y610000D01*
X1719886Y612615D01*
X1719544Y615209D01*
X1718978Y617765D01*
X1718191Y620261D01*
X1717189Y622679D01*
X1715981Y625000D01*
X1714575Y627207D01*
X1712981Y629284D01*
X1711213Y631213D01*
X1709284Y632981D01*
X1707207Y634575D01*
X1705000Y635981D01*
X1702679Y637189D01*
X1700261Y638191D01*
X1697765Y638978D01*
X1695209Y639544D01*
X1692615Y639886D01*
X1690000Y640000D01*
X870000Y640000D01*
X869924Y638257D01*
X869696Y636527D01*
X869319Y634824D01*
X868794Y633160D01*
X868126Y631548D01*
X867321Y630000D01*
X866383Y628528D01*
X865321Y627144D01*
X864142Y625858D01*
X862856Y624679D01*
X861472Y623617D01*
X860000Y622680D01*
X858452Y621874D01*
X856840Y621206D01*
X855176Y620681D01*
X853473Y620304D01*
X851743Y620076D01*
X850000Y620000D01*
X740000Y620000D01*
X738257Y620076D01*
X736527Y620304D01*
X734824Y620681D01*
X733160Y621206D01*
X731548Y621874D01*
X730000Y622680D01*
X728528Y623617D01*
X727144Y624679D01*
X725858Y625858D01*
X724679Y627144D01*
X723617Y628528D01*
X722680Y630000D01*
X721874Y631548D01*
X721206Y633160D01*
X720681Y634824D01*
X720304Y636527D01*
X720076Y638257D01*
X720000Y640000D01*
X30000Y640000D01*
X27385Y639886D01*
X24791Y639544D01*
X22235Y638978D01*
X19739Y638191D01*
X17321Y637189D01*
X15000Y635981D01*
X12793Y634575D01*
X10716Y632981D01*
X8787Y631213D01*
X7019Y629284D01*
X5425Y627207D01*
X4019Y625000D01*
X2811Y622679D01*
X1809Y620261D01*
X1022Y617765D01*
X456Y615209D01*
X114Y612615D01*
X0Y610000D01*
X0Y30000D01*
X915800Y220800D02*
X915945Y217479D01*
X916379Y214184D01*
X917098Y210939D01*
X918098Y207769D01*
X919370Y204698D01*
X920904Y201750D01*
X922690Y198947D01*
X924714Y196310D01*
X926959Y193859D01*
X929410Y191614D01*
X932047Y189590D01*
X934850Y187804D01*
X937798Y186270D01*
X940869Y184998D01*
X944039Y183998D01*
X947284Y183279D01*
X950579Y182845D01*
X953900Y182700D01*
X1411100Y182700D01*
X1414421Y182845D01*
X1417716Y183279D01*
X1420961Y183998D01*
X1424131Y184998D01*
X1427202Y186270D01*
X1430150Y187804D01*
X1432953Y189590D01*
X1435590Y191614D01*
X1438041Y193859D01*
X1440286Y196310D01*
X1442310Y198947D01*
X1444096Y201750D01*
X1445630Y204698D01*
X1446902Y207769D01*
X1447902Y210939D01*
X1448621Y214184D01*
X1449055Y217479D01*
X1449200Y220800D01*
X1449200Y449400D01*
X1449457Y450858D01*
X1449762Y453666D01*
X1449820Y456490D01*
X1449633Y459309D01*
X1449200Y462100D01*
X1448526Y464843D01*
X1447615Y467517D01*
X1446475Y470101D01*
X1445113Y472576D01*
X1443542Y474923D01*
X1441771Y477124D01*
X1439816Y479163D01*
X1437690Y481023D01*
X1435411Y482691D01*
X1432994Y484154D01*
X1430459Y485400D01*
X1427826Y486421D01*
X1425113Y487209D01*
X1422342Y487757D01*
X1419534Y488062D01*
X1416710Y488120D01*
X1413891Y487933D01*
X1411100Y487500D01*
X953900Y487500D01*
X950579Y487355D01*
X947284Y486921D01*
X944039Y486202D01*
X940869Y485202D01*
X937798Y483930D01*
X934850Y482396D01*
X932047Y480610D01*
X929410Y478586D01*
X926959Y476341D01*
X924714Y473890D01*
X922690Y471253D01*
X920904Y468450D01*
X919370Y465502D01*
X918098Y462431D01*
X917098Y459261D01*
X916379Y456016D01*
X915945Y452721D01*
X915800Y449400D01*
X915800Y220800D01*
X915800Y220800D02*
X915945Y217479D01*
X916379Y214184D01*
X917098Y210939D01*
X918098Y207769D01*
X919370Y204698D01*
X920904Y201750D01*
X922690Y198947D01*
X924714Y196310D01*
X926959Y193859D01*
X929410Y191614D01*
X932047Y189590D01*
X934850Y187804D01*
X937798Y186270D01*
X940869Y184998D01*
X944039Y183998D01*
X947284Y183279D01*
X950579Y182845D01*
X953900Y182700D01*
X1411100Y182700D01*
X1414421Y182845D01*
X1417716Y183279D01*
X1420961Y183998D01*
X1424131Y184998D01*
X1427202Y186270D01*
X1430150Y187804D01*
X1432953Y189590D01*
X1435590Y191614D01*
X1438041Y193859D01*
X1440286Y196310D01*
X1442310Y198947D01*
X1444096Y201750D01*
X1445630Y204698D01*
X1446902Y207769D01*
X1447902Y210939D01*
X1448621Y214184D01*
X1449055Y217479D01*
X1449200Y220800D01*
X1449200Y449400D01*
X1449055Y452721D01*
X1448621Y456016D01*
X1447902Y459261D01*
X1446902Y462431D01*
X1445630Y465502D01*
X1444096Y468450D01*
X1442310Y471253D01*
X1440286Y473890D01*
X1438041Y476341D01*
X1435590Y478586D01*
X1432953Y480610D01*
X1430150Y482396D01*
X1427202Y483930D01*
X1424131Y485202D01*
X1420961Y486202D01*
X1417716Y486921D01*
X1414421Y487355D01*
X1411100Y487500D01*
X953900Y487500D01*
X950579Y487355D01*
X947284Y486921D01*
X944039Y486202D01*
X940869Y485202D01*
X937798Y483930D01*
X934850Y482396D01*
X932047Y480610D01*
X929410Y478586D01*
X926959Y476341D01*
X924714Y473890D01*
X922690Y471253D01*
X920904Y468450D01*
X919370Y465502D01*
X918098Y462431D01*
X917098Y459261D01*
X916379Y456016D01*
X915945Y452721D01*
X915800Y449400D01*
X915800Y220800D01*
X1709000Y54364D02*
X1708924Y53296D01*
X1708771Y52235D01*
X1708543Y51188D01*
X1708241Y50160D01*
X1707867Y49156D01*
X1707422Y48181D01*
X1706908Y47241D01*
X1706329Y46340D01*
X1705687Y45482D01*
X1704985Y44672D01*
X1704228Y43915D01*
X1703418Y43213D01*
X1702560Y42571D01*
X1701659Y41992D01*
X1700719Y41478D01*
X1699744Y41033D01*
X1698740Y40659D01*
X1697712Y40357D01*
X1696665Y40129D01*
X1695604Y39976D01*
X1694536Y39900D01*
X1693464Y39900D01*
X1692396Y39976D01*
X1691335Y40129D01*
X1690288Y40357D01*
X1689260Y40659D01*
X1688256Y41033D01*
X1687281Y41478D01*
X1686341Y41992D01*
X1685440Y42571D01*
X1684582Y43213D01*
X1683772Y43915D01*
X1683015Y44672D01*
X1682313Y45482D01*
X1681671Y46340D01*
X1681092Y47241D01*
X1680578Y48181D01*
X1680133Y49156D01*
X1679759Y50160D01*
X1679457Y51188D01*
X1679229Y52235D01*
X1679076Y53296D01*
X1679000Y54364D01*
X1679000Y55436D01*
X1679076Y56504D01*
X1679229Y57565D01*
X1679457Y58612D01*
X1679759Y59640D01*
X1680133Y60644D01*
X1680578Y61619D01*
X1681092Y62559D01*
X1681671Y63460D01*
X1682313Y64318D01*
X1683015Y65128D01*
X1683772Y65885D01*
X1684582Y66587D01*
X1685440Y67229D01*
X1686341Y67808D01*
X1687281Y68322D01*
X1688256Y68767D01*
X1689260Y69141D01*
X1690288Y69443D01*
X1691335Y69671D01*
X1692396Y69824D01*
X1693464Y69900D01*
X1694536Y69900D01*
X1695604Y69824D01*
X1696665Y69671D01*
X1697712Y69443D01*
X1698740Y69141D01*
X1699744Y68767D01*
X1700719Y68322D01*
X1701659Y67808D01*
X1702560Y67229D01*
X1703418Y66587D01*
X1704228Y65885D01*
X1704985Y65128D01*
X1705687Y64318D01*
X1706329Y63460D01*
X1706908Y62559D01*
X1707422Y61619D01*
X1707867Y60644D01*
X1708241Y59640D01*
X1708543Y58612D01*
X1708771Y57565D01*
X1708924Y56504D01*
X1709000Y55436D01*
X1709000Y54364D01*
X1541000Y54364D02*
X1540924Y53296D01*
X1540771Y52235D01*
X1540543Y51188D01*
X1540241Y50160D01*
X1539867Y49156D01*
X1539422Y48181D01*
X1538908Y47241D01*
X1538329Y46340D01*
X1537687Y45482D01*
X1536985Y44672D01*
X1536228Y43915D01*
X1535418Y43213D01*
X1534560Y42571D01*
X1533659Y41992D01*
X1532719Y41478D01*
X1531744Y41033D01*
X1530740Y40659D01*
X1529712Y40357D01*
X1528665Y40129D01*
X1527604Y39976D01*
X1526536Y39900D01*
X1525464Y39900D01*
X1524396Y39976D01*
X1523335Y40129D01*
X1522288Y40357D01*
X1521260Y40659D01*
X1520256Y41033D01*
X1519281Y41478D01*
X1518341Y41992D01*
X1517440Y42571D01*
X1516582Y43213D01*
X1515772Y43915D01*
X1515015Y44672D01*
X1514313Y45482D01*
X1513671Y46340D01*
X1513092Y47241D01*
X1512578Y48181D01*
X1512133Y49156D01*
X1511759Y50160D01*
X1511457Y51188D01*
X1511229Y52235D01*
X1511076Y53296D01*
X1511000Y54364D01*
X1511000Y55436D01*
X1511076Y56504D01*
X1511229Y57565D01*
X1511457Y58612D01*
X1511759Y59640D01*
X1512133Y60644D01*
X1512578Y61619D01*
X1513092Y62559D01*
X1513671Y63460D01*
X1514313Y64318D01*
X1515015Y65128D01*
X1515772Y65885D01*
X1516582Y66587D01*
X1517440Y67229D01*
X1518341Y67808D01*
X1519281Y68322D01*
X1520256Y68767D01*
X1521260Y69141D01*
X1522288Y69443D01*
X1523335Y69671D01*
X1524396Y69824D01*
X1525464Y69900D01*
X1526536Y69900D01*
X1527604Y69824D01*
X1528665Y69671D01*
X1529712Y69443D01*
X1530740Y69141D01*
X1531744Y68767D01*
X1532719Y68322D01*
X1533659Y67808D01*
X1534560Y67229D01*
X1535418Y66587D01*
X1536228Y65885D01*
X1536985Y65128D01*
X1537687Y64318D01*
X1538329Y63460D01*
X1538908Y62559D01*
X1539422Y61619D01*
X1539867Y60644D01*
X1540241Y59640D01*
X1540543Y58612D01*
X1540771Y57565D01*
X1540924Y56504D01*
X1541000Y55436D01*
X1541000Y54364D01*
X209000Y54364D02*
X208924Y53296D01*
X208771Y52235D01*
X208543Y51188D01*
X208241Y50160D01*
X207867Y49156D01*
X207422Y48181D01*
X206908Y47241D01*
X206329Y46340D01*
X205687Y45482D01*
X204985Y44672D01*
X204228Y43915D01*
X203418Y43213D01*
X202560Y42571D01*
X201659Y41992D01*
X200719Y41478D01*
X199744Y41033D01*
X198740Y40659D01*
X197712Y40357D01*
X196665Y40129D01*
X195604Y39976D01*
X194536Y39900D01*
X193464Y39900D01*
X192396Y39976D01*
X191335Y40129D01*
X190288Y40357D01*
X189260Y40659D01*
X188256Y41033D01*
X187281Y41478D01*
X186341Y41992D01*
X185440Y42571D01*
X184582Y43213D01*
X183772Y43915D01*
X183015Y44672D01*
X182313Y45482D01*
X181671Y46340D01*
X181092Y47241D01*
X180578Y48181D01*
X180133Y49156D01*
X179759Y50160D01*
X179457Y51188D01*
X179229Y52235D01*
X179076Y53296D01*
X179000Y54364D01*
X179000Y55436D01*
X179076Y56504D01*
X179229Y57565D01*
X179457Y58612D01*
X179759Y59640D01*
X180133Y60644D01*
X180578Y61619D01*
X181092Y62559D01*
X181671Y63460D01*
X182313Y64318D01*
X183015Y65128D01*
X183772Y65885D01*
X184582Y66587D01*
X185440Y67229D01*
X186341Y67808D01*
X187281Y68322D01*
X188256Y68767D01*
X189260Y69141D01*
X190288Y69443D01*
X191335Y69671D01*
X192396Y69824D01*
X193464Y69900D01*
X194536Y69900D01*
X195604Y69824D01*
X196665Y69671D01*
X197712Y69443D01*
X198740Y69141D01*
X199744Y68767D01*
X200719Y68322D01*
X201659Y67808D01*
X202560Y67229D01*
X203418Y66587D01*
X204228Y65885D01*
X204985Y65128D01*
X205687Y64318D01*
X206329Y63460D01*
X206908Y62559D01*
X207422Y61619D01*
X207867Y60644D01*
X208241Y59640D01*
X208543Y58612D01*
X208771Y57565D01*
X208924Y56504D01*
X209000Y55436D01*
X209000Y54364D01*
X41000Y54364D02*
X40924Y53296D01*
X40771Y52235D01*
X40543Y51188D01*
X40241Y50160D01*
X39867Y49156D01*
X39422Y48181D01*
X38908Y47241D01*
X38329Y46340D01*
X37687Y45482D01*
X36985Y44672D01*
X36228Y43915D01*
X35418Y43213D01*
X34560Y42571D01*
X33659Y41992D01*
X32719Y41478D01*
X31744Y41033D01*
X30740Y40659D01*
X29712Y40357D01*
X28665Y40129D01*
X27604Y39976D01*
X26536Y39900D01*
X25464Y39900D01*
X24396Y39976D01*
X23335Y40129D01*
X22288Y40357D01*
X21260Y40659D01*
X20256Y41033D01*
X19281Y41478D01*
X18341Y41992D01*
X17440Y42571D01*
X16582Y43213D01*
X15772Y43915D01*
X15015Y44672D01*
X14313Y45482D01*
X13671Y46340D01*
X13092Y47241D01*
X12578Y48181D01*
X12133Y49156D01*
X11759Y50160D01*
X11457Y51188D01*
X11229Y52235D01*
X11076Y53296D01*
X11000Y54364D01*
X11000Y55436D01*
X11076Y56504D01*
X11229Y57565D01*
X11457Y58612D01*
X11759Y59640D01*
X12133Y60644D01*
X12578Y61619D01*
X13092Y62559D01*
X13671Y63460D01*
X14313Y64318D01*
X15015Y65128D01*
X15772Y65885D01*
X16582Y66587D01*
X17440Y67229D01*
X18341Y67808D01*
X19281Y68322D01*
X20256Y68767D01*
X21260Y69141D01*
X22288Y69443D01*
X23335Y69671D01*
X24396Y69824D01*
X25464Y69900D01*
X26536Y69900D01*
X27604Y69824D01*
X28665Y69671D01*
X29712Y69443D01*
X30740Y69141D01*
X31744Y68767D01*
X32719Y68322D01*
X33659Y67808D01*
X34560Y67229D01*
X35418Y66587D01*
X36228Y65885D01*
X36985Y65128D01*
X37687Y64318D01*
X38329Y63460D01*
X38908Y62559D01*
X39422Y61619D01*
X39867Y60644D01*
X40241Y59640D01*
X40543Y58612D01*
X40771Y57565D01*
X40924Y56504D01*
X41000Y55436D01*
X41000Y54364D01*
M02*
