G04 EAGLE Gerber RS-274X export*
G75*
%MOMM*%
%FSLAX34Y34*%
%LPD*%
%INBottom Copper*%
%IPPOS*%
%AMOC8*
5,1,8,0,0,1.08239X$1,22.5*%
G01*
%ADD10C,1.524000*%
%ADD11C,1.397000*%
%ADD12C,8.636000*%
%ADD13R,2.100000X2.100000*%
%ADD14C,1.450000*%
%ADD15C,2.100000*%
%ADD16C,1.430000*%
%ADD17R,1.905000X1.905000*%
%ADD18R,2.857500X2.857500*%
%ADD19C,4.000000*%
%ADD20R,3.556000X3.556000*%
%ADD21C,1.016000*%
%ADD22C,1.270000*%
%ADD23C,0.756400*%
%ADD24C,0.200000*%
%ADD25C,3.000000*%
%ADD26C,1.000000*%

G36*
X520003Y10161D02*
X520003Y10161D01*
X520006Y10161D01*
X520353Y10181D01*
X520711Y10201D01*
X520714Y10201D01*
X520717Y10201D01*
X521057Y10260D01*
X521414Y10320D01*
X521416Y10321D01*
X521419Y10321D01*
X521764Y10421D01*
X522098Y10517D01*
X522101Y10519D01*
X522104Y10519D01*
X522428Y10654D01*
X522756Y10790D01*
X522759Y10792D01*
X522761Y10793D01*
X523073Y10965D01*
X523380Y11135D01*
X523382Y11137D01*
X523385Y11138D01*
X523682Y11349D01*
X523961Y11547D01*
X523963Y11549D01*
X523965Y11551D01*
X524233Y11791D01*
X524492Y12022D01*
X524494Y12025D01*
X524496Y12026D01*
X524734Y12294D01*
X524966Y12554D01*
X524968Y12556D01*
X524970Y12558D01*
X525168Y12839D01*
X525378Y13135D01*
X525380Y13138D01*
X525381Y13140D01*
X525544Y13436D01*
X525722Y13759D01*
X525723Y13762D01*
X525725Y13764D01*
X525853Y14074D01*
X525994Y14417D01*
X525995Y14420D01*
X525996Y14423D01*
X526087Y14741D01*
X526191Y15102D01*
X526192Y15105D01*
X526192Y15107D01*
X526252Y15461D01*
X526310Y15804D01*
X526310Y15807D01*
X526311Y15810D01*
X526349Y16510D01*
X526349Y309300D01*
X526349Y309303D01*
X526349Y309306D01*
X526329Y309653D01*
X526309Y310011D01*
X526309Y310014D01*
X526309Y310017D01*
X526250Y310357D01*
X526190Y310714D01*
X526189Y310716D01*
X526189Y310719D01*
X526089Y311064D01*
X525993Y311398D01*
X525991Y311401D01*
X525991Y311404D01*
X525856Y311728D01*
X525720Y312056D01*
X525718Y312059D01*
X525717Y312061D01*
X525545Y312373D01*
X525375Y312680D01*
X525373Y312682D01*
X525372Y312685D01*
X525161Y312982D01*
X524963Y313261D01*
X524961Y313263D01*
X524959Y313265D01*
X524734Y313517D01*
X524488Y313792D01*
X524485Y313794D01*
X524484Y313796D01*
X524222Y314029D01*
X523956Y314266D01*
X523954Y314268D01*
X523952Y314270D01*
X523671Y314468D01*
X523375Y314678D01*
X523372Y314680D01*
X523370Y314681D01*
X523074Y314844D01*
X522751Y315022D01*
X522748Y315023D01*
X522746Y315025D01*
X522428Y315156D01*
X522093Y315294D01*
X522090Y315295D01*
X522087Y315296D01*
X521758Y315391D01*
X521408Y315491D01*
X521405Y315492D01*
X521403Y315492D01*
X521049Y315552D01*
X520706Y315610D01*
X520703Y315610D01*
X520700Y315611D01*
X520000Y315649D01*
X506794Y315649D01*
X500601Y317309D01*
X495048Y320515D01*
X490515Y325048D01*
X487309Y330601D01*
X485649Y336794D01*
X485649Y409300D01*
X485649Y409303D01*
X485649Y409306D01*
X485629Y409653D01*
X485609Y410011D01*
X485609Y410014D01*
X485609Y410017D01*
X485550Y410357D01*
X485490Y410714D01*
X485489Y410716D01*
X485489Y410719D01*
X485389Y411064D01*
X485293Y411398D01*
X485291Y411401D01*
X485291Y411404D01*
X485156Y411728D01*
X485020Y412056D01*
X485018Y412059D01*
X485017Y412061D01*
X484845Y412373D01*
X484675Y412680D01*
X484673Y412682D01*
X484672Y412685D01*
X484461Y412982D01*
X484263Y413261D01*
X484261Y413263D01*
X484259Y413265D01*
X484019Y413533D01*
X483788Y413792D01*
X483785Y413794D01*
X483784Y413796D01*
X483516Y414034D01*
X483256Y414266D01*
X483254Y414268D01*
X483252Y414270D01*
X482971Y414468D01*
X482675Y414678D01*
X482672Y414680D01*
X482670Y414681D01*
X482374Y414844D01*
X482051Y415022D01*
X482048Y415023D01*
X482046Y415025D01*
X481728Y415156D01*
X481393Y415294D01*
X481390Y415295D01*
X481387Y415296D01*
X481058Y415391D01*
X480708Y415491D01*
X480705Y415492D01*
X480703Y415492D01*
X480349Y415552D01*
X480006Y415610D01*
X480003Y415610D01*
X480000Y415611D01*
X479300Y415649D01*
X225000Y415649D01*
X224997Y415649D01*
X224994Y415649D01*
X224647Y415629D01*
X224289Y415609D01*
X224286Y415609D01*
X224283Y415609D01*
X223943Y415550D01*
X223586Y415490D01*
X223584Y415489D01*
X223581Y415489D01*
X223236Y415389D01*
X222902Y415293D01*
X222899Y415291D01*
X222896Y415291D01*
X222572Y415156D01*
X222244Y415020D01*
X222241Y415018D01*
X222239Y415017D01*
X221927Y414845D01*
X221620Y414675D01*
X221618Y414673D01*
X221615Y414672D01*
X221318Y414461D01*
X221039Y414263D01*
X221037Y414261D01*
X221035Y414259D01*
X220767Y414019D01*
X220508Y413788D01*
X220507Y413785D01*
X220504Y413784D01*
X220266Y413516D01*
X220034Y413256D01*
X220032Y413254D01*
X220030Y413252D01*
X219832Y412971D01*
X219622Y412675D01*
X219621Y412672D01*
X219619Y412670D01*
X219456Y412374D01*
X219278Y412051D01*
X219277Y412048D01*
X219275Y412046D01*
X219144Y411728D01*
X219006Y411393D01*
X219005Y411390D01*
X219004Y411387D01*
X218910Y411058D01*
X218809Y410708D01*
X218808Y410705D01*
X218808Y410703D01*
X218748Y410349D01*
X218690Y410006D01*
X218690Y410003D01*
X218689Y410000D01*
X218651Y409300D01*
X218651Y340000D01*
X218651Y339997D01*
X218651Y339994D01*
X218671Y339640D01*
X218691Y339289D01*
X218691Y339286D01*
X218691Y339283D01*
X218751Y338935D01*
X218810Y338586D01*
X218811Y338584D01*
X218811Y338581D01*
X218911Y338236D01*
X219007Y337902D01*
X219009Y337899D01*
X219009Y337896D01*
X219145Y337571D01*
X219280Y337244D01*
X219282Y337241D01*
X219283Y337239D01*
X219457Y336923D01*
X219625Y336620D01*
X219627Y336618D01*
X219628Y336615D01*
X219839Y336318D01*
X220038Y336039D01*
X220039Y336037D01*
X220041Y336035D01*
X220284Y335764D01*
X220512Y335508D01*
X220515Y335507D01*
X220516Y335504D01*
X220793Y335258D01*
X221044Y335034D01*
X221046Y335032D01*
X221048Y335030D01*
X221340Y334824D01*
X221625Y334622D01*
X221628Y334621D01*
X221630Y334619D01*
X221926Y334456D01*
X222249Y334278D01*
X222252Y334277D01*
X222254Y334275D01*
X222572Y334144D01*
X222907Y334006D01*
X222910Y334005D01*
X222913Y334004D01*
X223242Y333910D01*
X223592Y333809D01*
X223595Y333808D01*
X223598Y333808D01*
X223951Y333748D01*
X224294Y333690D01*
X224297Y333690D01*
X224300Y333689D01*
X225000Y333651D01*
X272063Y333651D01*
X272246Y333661D01*
X272429Y333661D01*
X272601Y333681D01*
X272774Y333691D01*
X272955Y333721D01*
X273137Y333742D01*
X273304Y333781D01*
X316695Y333781D01*
X316706Y333779D01*
X316875Y333740D01*
X317057Y333720D01*
X317237Y333689D01*
X317413Y333680D01*
X317583Y333661D01*
X317757Y333661D01*
X317937Y333651D01*
X327370Y333651D01*
X413651Y247370D01*
X413651Y16510D01*
X413651Y16507D01*
X413651Y16504D01*
X413671Y16157D01*
X413691Y15799D01*
X413691Y15796D01*
X413691Y15793D01*
X413751Y15442D01*
X413810Y15096D01*
X413811Y15094D01*
X413811Y15091D01*
X413915Y14734D01*
X414007Y14412D01*
X414009Y14409D01*
X414009Y14406D01*
X414147Y14076D01*
X414280Y13754D01*
X414282Y13751D01*
X414283Y13749D01*
X414455Y13437D01*
X414625Y13130D01*
X414627Y13128D01*
X414628Y13125D01*
X414843Y12823D01*
X415038Y12549D01*
X415039Y12547D01*
X415041Y12545D01*
X415281Y12277D01*
X415512Y12018D01*
X415515Y12016D01*
X415516Y12014D01*
X415784Y11776D01*
X416044Y11544D01*
X416046Y11542D01*
X416048Y11540D01*
X416329Y11342D01*
X416625Y11132D01*
X416628Y11130D01*
X416630Y11129D01*
X416926Y10966D01*
X417249Y10788D01*
X417252Y10787D01*
X417254Y10785D01*
X417572Y10654D01*
X417907Y10516D01*
X417910Y10515D01*
X417913Y10514D01*
X418242Y10419D01*
X418592Y10319D01*
X418595Y10318D01*
X418598Y10318D01*
X418951Y10258D01*
X419294Y10200D01*
X419297Y10200D01*
X419300Y10199D01*
X420000Y10161D01*
X520000Y10161D01*
X520003Y10161D01*
G37*
G36*
X562246Y333661D02*
X562246Y333661D01*
X562429Y333661D01*
X562601Y333681D01*
X562774Y333691D01*
X562955Y333721D01*
X563137Y333742D01*
X563304Y333781D01*
X606695Y333781D01*
X606706Y333779D01*
X606875Y333740D01*
X607057Y333720D01*
X607237Y333689D01*
X607413Y333680D01*
X607583Y333661D01*
X607757Y333661D01*
X607937Y333651D01*
X850000Y333651D01*
X850003Y333651D01*
X850006Y333651D01*
X850353Y333671D01*
X850711Y333691D01*
X850714Y333691D01*
X850717Y333691D01*
X851057Y333750D01*
X851414Y333810D01*
X851416Y333811D01*
X851419Y333811D01*
X851764Y333911D01*
X852098Y334007D01*
X852101Y334009D01*
X852104Y334009D01*
X852428Y334144D01*
X852756Y334280D01*
X852759Y334282D01*
X852761Y334283D01*
X853073Y334455D01*
X853380Y334625D01*
X853382Y334627D01*
X853385Y334628D01*
X853682Y334839D01*
X853961Y335038D01*
X853963Y335039D01*
X853965Y335041D01*
X854233Y335281D01*
X854492Y335512D01*
X854494Y335515D01*
X854496Y335516D01*
X854724Y335773D01*
X854966Y336044D01*
X854968Y336046D01*
X854970Y336048D01*
X855162Y336321D01*
X855378Y336625D01*
X855380Y336628D01*
X855381Y336630D01*
X855543Y336923D01*
X855722Y337249D01*
X855723Y337252D01*
X855725Y337254D01*
X855853Y337565D01*
X855994Y337907D01*
X855995Y337910D01*
X855996Y337913D01*
X856089Y338237D01*
X856191Y338592D01*
X856192Y338595D01*
X856192Y338598D01*
X856251Y338943D01*
X856310Y339294D01*
X856310Y339297D01*
X856311Y339300D01*
X856349Y340000D01*
X856349Y545000D01*
X856349Y545003D01*
X856349Y545006D01*
X856329Y545353D01*
X856309Y545711D01*
X856309Y545714D01*
X856309Y545717D01*
X856250Y546057D01*
X856190Y546414D01*
X856189Y546416D01*
X856189Y546419D01*
X856089Y546764D01*
X855993Y547098D01*
X855991Y547101D01*
X855991Y547104D01*
X855856Y547428D01*
X855720Y547756D01*
X855718Y547759D01*
X855717Y547761D01*
X855545Y548073D01*
X855375Y548380D01*
X855373Y548382D01*
X855372Y548385D01*
X855161Y548682D01*
X854963Y548961D01*
X854961Y548963D01*
X854959Y548965D01*
X854719Y549233D01*
X854488Y549492D01*
X854485Y549494D01*
X854484Y549496D01*
X854216Y549734D01*
X853956Y549966D01*
X853954Y549968D01*
X853952Y549970D01*
X853671Y550168D01*
X853375Y550378D01*
X853372Y550380D01*
X853370Y550381D01*
X853074Y550544D01*
X852751Y550722D01*
X852748Y550723D01*
X852746Y550725D01*
X852428Y550856D01*
X852093Y550994D01*
X852090Y550995D01*
X852087Y550996D01*
X851758Y551091D01*
X851408Y551191D01*
X851405Y551192D01*
X851403Y551192D01*
X851049Y551252D01*
X850706Y551310D01*
X850703Y551310D01*
X850700Y551311D01*
X850000Y551349D01*
X695000Y551349D01*
X694997Y551349D01*
X694994Y551349D01*
X694647Y551329D01*
X694289Y551309D01*
X694286Y551309D01*
X694283Y551309D01*
X693943Y551250D01*
X693586Y551190D01*
X693584Y551189D01*
X693581Y551189D01*
X693236Y551089D01*
X692902Y550993D01*
X692899Y550991D01*
X692896Y550991D01*
X692572Y550856D01*
X692244Y550720D01*
X692241Y550718D01*
X692239Y550717D01*
X691927Y550545D01*
X691620Y550375D01*
X691618Y550373D01*
X691615Y550372D01*
X691318Y550161D01*
X691039Y549963D01*
X691037Y549961D01*
X691035Y549959D01*
X690767Y549719D01*
X690508Y549488D01*
X690507Y549485D01*
X690504Y549484D01*
X690266Y549216D01*
X690034Y548956D01*
X690032Y548954D01*
X690030Y548952D01*
X689832Y548671D01*
X689622Y548375D01*
X689621Y548372D01*
X689619Y548370D01*
X689456Y548074D01*
X689278Y547751D01*
X689277Y547748D01*
X689275Y547746D01*
X689144Y547428D01*
X689006Y547093D01*
X689005Y547090D01*
X689004Y547087D01*
X688910Y546758D01*
X688809Y546408D01*
X688808Y546405D01*
X688808Y546403D01*
X688748Y546049D01*
X688690Y545706D01*
X688690Y545703D01*
X688689Y545700D01*
X688651Y545000D01*
X688651Y521654D01*
X688658Y521530D01*
X688656Y521406D01*
X688678Y521175D01*
X688691Y520943D01*
X688712Y520821D01*
X688723Y520697D01*
X688772Y520464D01*
X688810Y520240D01*
X688842Y520128D01*
X688867Y520011D01*
X689351Y518206D01*
X689351Y436794D01*
X688867Y434989D01*
X688842Y434868D01*
X688808Y434748D01*
X688769Y434520D01*
X688722Y434292D01*
X688710Y434168D01*
X688689Y434046D01*
X688676Y433808D01*
X688655Y433583D01*
X688657Y433466D01*
X688651Y433346D01*
X688651Y430510D01*
X688614Y430488D01*
X688409Y430375D01*
X688309Y430304D01*
X688204Y430240D01*
X688019Y430098D01*
X687828Y429963D01*
X687737Y429881D01*
X687640Y429806D01*
X687472Y429643D01*
X687297Y429488D01*
X687216Y429396D01*
X687127Y429311D01*
X686979Y429131D01*
X686823Y428956D01*
X686752Y428856D01*
X686674Y428761D01*
X686543Y428561D01*
X686411Y428375D01*
X686355Y428274D01*
X686290Y428175D01*
X684485Y425048D01*
X679952Y420515D01*
X674399Y417309D01*
X668206Y415649D01*
X510000Y415649D01*
X509997Y415649D01*
X509994Y415649D01*
X509647Y415629D01*
X509289Y415609D01*
X509286Y415609D01*
X509283Y415609D01*
X508943Y415550D01*
X508586Y415490D01*
X508584Y415489D01*
X508581Y415489D01*
X508236Y415389D01*
X507902Y415293D01*
X507899Y415291D01*
X507896Y415291D01*
X507572Y415156D01*
X507244Y415020D01*
X507241Y415018D01*
X507239Y415017D01*
X506927Y414845D01*
X506620Y414675D01*
X506618Y414673D01*
X506615Y414672D01*
X506318Y414461D01*
X506039Y414263D01*
X506037Y414261D01*
X506035Y414259D01*
X505765Y414017D01*
X505508Y413788D01*
X505507Y413785D01*
X505504Y413784D01*
X505266Y413516D01*
X505034Y413256D01*
X505032Y413254D01*
X505030Y413252D01*
X504832Y412971D01*
X504622Y412675D01*
X504621Y412672D01*
X504619Y412670D01*
X504456Y412374D01*
X504278Y412051D01*
X504277Y412048D01*
X504275Y412046D01*
X504144Y411728D01*
X504006Y411393D01*
X504005Y411390D01*
X504004Y411387D01*
X503910Y411058D01*
X503809Y410708D01*
X503808Y410705D01*
X503808Y410703D01*
X503744Y410326D01*
X503690Y410006D01*
X503690Y410003D01*
X503689Y410000D01*
X503651Y409300D01*
X503651Y340000D01*
X503651Y339997D01*
X503651Y339994D01*
X503671Y339640D01*
X503691Y339289D01*
X503691Y339286D01*
X503691Y339283D01*
X503750Y338943D01*
X503810Y338586D01*
X503811Y338584D01*
X503811Y338581D01*
X503911Y338236D01*
X504007Y337902D01*
X504009Y337899D01*
X504009Y337896D01*
X504144Y337572D01*
X504280Y337244D01*
X504282Y337241D01*
X504283Y337239D01*
X504457Y336923D01*
X504625Y336620D01*
X504627Y336618D01*
X504628Y336615D01*
X504839Y336318D01*
X505038Y336039D01*
X505039Y336037D01*
X505041Y336035D01*
X505284Y335764D01*
X505512Y335508D01*
X505515Y335507D01*
X505516Y335504D01*
X505790Y335261D01*
X506044Y335034D01*
X506046Y335032D01*
X506048Y335030D01*
X506340Y334824D01*
X506625Y334622D01*
X506628Y334621D01*
X506630Y334619D01*
X506926Y334456D01*
X507249Y334278D01*
X507252Y334277D01*
X507254Y334275D01*
X507572Y334144D01*
X507907Y334006D01*
X507910Y334005D01*
X507913Y334004D01*
X508242Y333910D01*
X508592Y333809D01*
X508595Y333808D01*
X508598Y333808D01*
X508951Y333748D01*
X509294Y333690D01*
X509297Y333690D01*
X509300Y333689D01*
X510000Y333651D01*
X562063Y333651D01*
X562246Y333661D01*
G37*
G36*
X665003Y433651D02*
X665003Y433651D01*
X665006Y433651D01*
X665353Y433671D01*
X665711Y433691D01*
X665714Y433691D01*
X665717Y433691D01*
X666057Y433750D01*
X666414Y433810D01*
X666416Y433811D01*
X666419Y433811D01*
X666764Y433911D01*
X667098Y434007D01*
X667101Y434009D01*
X667104Y434009D01*
X667428Y434144D01*
X667756Y434280D01*
X667759Y434282D01*
X667761Y434283D01*
X668073Y434455D01*
X668380Y434625D01*
X668382Y434627D01*
X668385Y434628D01*
X668682Y434839D01*
X668961Y435038D01*
X668963Y435039D01*
X668965Y435041D01*
X669233Y435281D01*
X669492Y435512D01*
X669494Y435515D01*
X669496Y435516D01*
X669734Y435784D01*
X669966Y436044D01*
X669968Y436046D01*
X669970Y436048D01*
X670168Y436329D01*
X670378Y436625D01*
X670380Y436628D01*
X670381Y436630D01*
X670544Y436926D01*
X670722Y437249D01*
X670723Y437252D01*
X670725Y437254D01*
X670856Y437572D01*
X670994Y437907D01*
X670995Y437910D01*
X670996Y437913D01*
X671091Y438242D01*
X671191Y438592D01*
X671192Y438595D01*
X671192Y438598D01*
X671252Y438951D01*
X671310Y439294D01*
X671310Y439297D01*
X671311Y439300D01*
X671349Y440000D01*
X671349Y515000D01*
X671349Y515003D01*
X671349Y515006D01*
X671329Y515353D01*
X671309Y515711D01*
X671309Y515714D01*
X671309Y515717D01*
X671250Y516057D01*
X671190Y516414D01*
X671189Y516416D01*
X671189Y516419D01*
X671089Y516764D01*
X670993Y517098D01*
X670991Y517101D01*
X670991Y517104D01*
X670856Y517428D01*
X670720Y517756D01*
X670718Y517759D01*
X670717Y517761D01*
X670545Y518073D01*
X670375Y518380D01*
X670373Y518382D01*
X670372Y518385D01*
X670161Y518682D01*
X669963Y518961D01*
X669961Y518963D01*
X669959Y518965D01*
X669719Y519233D01*
X669488Y519492D01*
X669485Y519494D01*
X669484Y519496D01*
X669216Y519734D01*
X668956Y519966D01*
X668954Y519968D01*
X668952Y519970D01*
X668671Y520168D01*
X668375Y520378D01*
X668372Y520380D01*
X668370Y520381D01*
X668074Y520544D01*
X667751Y520722D01*
X667748Y520723D01*
X667746Y520725D01*
X667428Y520856D01*
X667093Y520994D01*
X667090Y520995D01*
X667087Y520996D01*
X666758Y521091D01*
X666408Y521191D01*
X666405Y521192D01*
X666403Y521192D01*
X666049Y521252D01*
X665706Y521310D01*
X665703Y521310D01*
X665700Y521311D01*
X665000Y521349D01*
X225000Y521349D01*
X224997Y521349D01*
X224994Y521349D01*
X224647Y521329D01*
X224289Y521309D01*
X224286Y521309D01*
X224283Y521309D01*
X223943Y521250D01*
X223586Y521190D01*
X223584Y521189D01*
X223581Y521189D01*
X223236Y521089D01*
X222902Y520993D01*
X222899Y520991D01*
X222896Y520991D01*
X222572Y520856D01*
X222244Y520720D01*
X222241Y520718D01*
X222239Y520717D01*
X221927Y520545D01*
X221620Y520375D01*
X221618Y520373D01*
X221615Y520372D01*
X221318Y520161D01*
X221039Y519963D01*
X221037Y519961D01*
X221035Y519959D01*
X220767Y519719D01*
X220508Y519488D01*
X220507Y519485D01*
X220504Y519484D01*
X220266Y519216D01*
X220034Y518956D01*
X220032Y518954D01*
X220030Y518952D01*
X219832Y518671D01*
X219622Y518375D01*
X219621Y518372D01*
X219619Y518370D01*
X219456Y518074D01*
X219278Y517751D01*
X219277Y517748D01*
X219275Y517746D01*
X219144Y517428D01*
X219006Y517093D01*
X219005Y517090D01*
X219004Y517087D01*
X218910Y516758D01*
X218809Y516408D01*
X218808Y516405D01*
X218808Y516403D01*
X218748Y516049D01*
X218690Y515706D01*
X218690Y515703D01*
X218689Y515700D01*
X218651Y515000D01*
X218651Y440000D01*
X218651Y439997D01*
X218651Y439994D01*
X218671Y439647D01*
X218691Y439289D01*
X218691Y439286D01*
X218691Y439283D01*
X218750Y438943D01*
X218810Y438586D01*
X218811Y438584D01*
X218811Y438581D01*
X218911Y438236D01*
X219007Y437902D01*
X219009Y437899D01*
X219009Y437896D01*
X219144Y437572D01*
X219280Y437244D01*
X219282Y437241D01*
X219283Y437239D01*
X219455Y436927D01*
X219625Y436620D01*
X219627Y436618D01*
X219628Y436615D01*
X219839Y436318D01*
X220038Y436039D01*
X220039Y436037D01*
X220041Y436035D01*
X220281Y435767D01*
X220512Y435508D01*
X220515Y435507D01*
X220516Y435504D01*
X220784Y435266D01*
X221044Y435034D01*
X221046Y435032D01*
X221048Y435030D01*
X221329Y434832D01*
X221625Y434622D01*
X221628Y434621D01*
X221630Y434619D01*
X221926Y434456D01*
X222249Y434278D01*
X222252Y434277D01*
X222254Y434275D01*
X222572Y434144D01*
X222907Y434006D01*
X222910Y434005D01*
X222913Y434004D01*
X223242Y433910D01*
X223592Y433809D01*
X223595Y433808D01*
X223598Y433808D01*
X223951Y433748D01*
X224294Y433690D01*
X224297Y433690D01*
X224300Y433689D01*
X225000Y433651D01*
X665000Y433651D01*
X665003Y433651D01*
G37*
%LPC*%
G36*
X754919Y423999D02*
X754919Y423999D01*
X748303Y426740D01*
X743240Y431803D01*
X740499Y438419D01*
X740499Y466581D01*
X743240Y473197D01*
X748303Y478260D01*
X754919Y481001D01*
X783081Y481001D01*
X787570Y479141D01*
X787574Y479140D01*
X787578Y479138D01*
X787912Y479021D01*
X788243Y478906D01*
X788247Y478905D01*
X788251Y478903D01*
X788595Y478825D01*
X788937Y478747D01*
X788942Y478747D01*
X788946Y478746D01*
X789295Y478707D01*
X789645Y478668D01*
X789650Y478668D01*
X789654Y478667D01*
X790012Y478668D01*
X790358Y478668D01*
X790362Y478668D01*
X790366Y478668D01*
X790728Y478710D01*
X791066Y478748D01*
X791070Y478749D01*
X791074Y478749D01*
X791414Y478827D01*
X791760Y478907D01*
X791764Y478908D01*
X791768Y478909D01*
X792430Y479141D01*
X792432Y479142D01*
X792433Y479142D01*
X796919Y481001D01*
X825081Y481001D01*
X831697Y478260D01*
X836760Y473197D01*
X839501Y466581D01*
X839501Y438419D01*
X836760Y431803D01*
X831697Y426740D01*
X825081Y423999D01*
X796919Y423999D01*
X792430Y425859D01*
X792426Y425860D01*
X792422Y425862D01*
X792088Y425979D01*
X791757Y426094D01*
X791753Y426095D01*
X791749Y426097D01*
X791413Y426173D01*
X791063Y426253D01*
X791058Y426253D01*
X791054Y426254D01*
X790716Y426292D01*
X790355Y426332D01*
X790350Y426332D01*
X790346Y426333D01*
X789988Y426332D01*
X789642Y426332D01*
X789638Y426332D01*
X789634Y426332D01*
X789274Y426291D01*
X788934Y426252D01*
X788930Y426251D01*
X788926Y426251D01*
X788586Y426173D01*
X788240Y426093D01*
X788236Y426092D01*
X788232Y426091D01*
X787570Y425859D01*
X783081Y423999D01*
X754919Y423999D01*
G37*
%LPD*%
%LPC*%
G36*
X271349Y380549D02*
X271349Y380549D01*
X271349Y395859D01*
X273639Y395058D01*
X275921Y393959D01*
X278064Y392612D01*
X280044Y391034D01*
X281834Y389244D01*
X283412Y387264D01*
X284759Y385121D01*
X285858Y382839D01*
X286659Y380549D01*
X271349Y380549D01*
G37*
%LPD*%
%LPC*%
G36*
X621349Y482149D02*
X621349Y482149D01*
X621349Y497459D01*
X623639Y496658D01*
X625921Y495559D01*
X628064Y494212D01*
X630044Y492634D01*
X631834Y490844D01*
X633412Y488864D01*
X634759Y486721D01*
X635858Y484439D01*
X636659Y482149D01*
X621349Y482149D01*
G37*
%LPD*%
%LPC*%
G36*
X621349Y380549D02*
X621349Y380549D01*
X621349Y395859D01*
X623639Y395058D01*
X625921Y393959D01*
X628064Y392612D01*
X630044Y391034D01*
X631834Y389244D01*
X633412Y387264D01*
X634759Y385121D01*
X635858Y382839D01*
X636659Y380549D01*
X621349Y380549D01*
G37*
%LPD*%
%LPC*%
G36*
X271349Y482149D02*
X271349Y482149D01*
X271349Y497459D01*
X273639Y496658D01*
X275921Y495559D01*
X278064Y494212D01*
X280044Y492634D01*
X281834Y490844D01*
X283412Y488864D01*
X284759Y486721D01*
X285858Y484439D01*
X286659Y482149D01*
X271349Y482149D01*
G37*
%LPD*%
%LPC*%
G36*
X561349Y482149D02*
X561349Y482149D01*
X561349Y497459D01*
X563639Y496658D01*
X565921Y495559D01*
X568064Y494212D01*
X570044Y492634D01*
X571834Y490844D01*
X573412Y488864D01*
X574759Y486721D01*
X575858Y484439D01*
X576659Y482149D01*
X561349Y482149D01*
G37*
%LPD*%
%LPC*%
G36*
X331349Y482149D02*
X331349Y482149D01*
X331349Y497459D01*
X333639Y496658D01*
X335921Y495559D01*
X338064Y494212D01*
X340044Y492634D01*
X341834Y490844D01*
X343412Y488864D01*
X344759Y486721D01*
X345858Y484439D01*
X346659Y482149D01*
X331349Y482149D01*
G37*
%LPD*%
%LPC*%
G36*
X561349Y380549D02*
X561349Y380549D01*
X561349Y395859D01*
X563639Y395058D01*
X565921Y393959D01*
X568064Y392612D01*
X570044Y391034D01*
X571834Y389244D01*
X573412Y387264D01*
X574759Y385121D01*
X575858Y382839D01*
X576659Y380549D01*
X561349Y380549D01*
G37*
%LPD*%
%LPC*%
G36*
X331349Y380549D02*
X331349Y380549D01*
X331349Y395859D01*
X333639Y395058D01*
X335921Y393959D01*
X338064Y392612D01*
X340044Y391034D01*
X341834Y389244D01*
X343412Y387264D01*
X344759Y385121D01*
X345858Y382839D01*
X346659Y380549D01*
X331349Y380549D01*
G37*
%LPD*%
%LPC*%
G36*
X303341Y482149D02*
X303341Y482149D01*
X303412Y482352D01*
X304142Y484439D01*
X305241Y486721D01*
X305679Y487419D01*
X305680Y487419D01*
X305680Y487420D01*
X306588Y488864D01*
X308166Y490844D01*
X309956Y492634D01*
X311936Y494212D01*
X314079Y495559D01*
X316361Y496658D01*
X318651Y497459D01*
X318651Y482149D01*
X303341Y482149D01*
G37*
%LPD*%
%LPC*%
G36*
X533341Y482149D02*
X533341Y482149D01*
X533412Y482352D01*
X534142Y484439D01*
X535241Y486721D01*
X535679Y487419D01*
X535680Y487419D01*
X535680Y487420D01*
X536588Y488864D01*
X538166Y490844D01*
X539956Y492634D01*
X541936Y494212D01*
X544079Y495559D01*
X546361Y496658D01*
X548651Y497459D01*
X548651Y482149D01*
X533341Y482149D01*
G37*
%LPD*%
%LPC*%
G36*
X593341Y482149D02*
X593341Y482149D01*
X593412Y482352D01*
X594142Y484439D01*
X595241Y486721D01*
X595679Y487419D01*
X595680Y487419D01*
X595680Y487420D01*
X596588Y488864D01*
X598166Y490844D01*
X599956Y492634D01*
X601936Y494212D01*
X604079Y495559D01*
X606361Y496658D01*
X608651Y497459D01*
X608651Y482149D01*
X593341Y482149D01*
G37*
%LPD*%
%LPC*%
G36*
X243341Y482149D02*
X243341Y482149D01*
X243412Y482352D01*
X244142Y484439D01*
X245241Y486721D01*
X245679Y487419D01*
X245680Y487419D01*
X245680Y487420D01*
X246588Y488864D01*
X248166Y490844D01*
X249956Y492634D01*
X251936Y494212D01*
X254079Y495559D01*
X256361Y496658D01*
X258651Y497459D01*
X258651Y482149D01*
X243341Y482149D01*
G37*
%LPD*%
%LPC*%
G36*
X533341Y380549D02*
X533341Y380549D01*
X533972Y382352D01*
X534142Y382839D01*
X535241Y385121D01*
X536588Y387264D01*
X538166Y389244D01*
X539956Y391034D01*
X541936Y392612D01*
X544079Y393959D01*
X546361Y395058D01*
X548651Y395859D01*
X548651Y380549D01*
X533341Y380549D01*
G37*
%LPD*%
%LPC*%
G36*
X593341Y380549D02*
X593341Y380549D01*
X593972Y382352D01*
X594142Y382839D01*
X595241Y385121D01*
X596588Y387264D01*
X598166Y389244D01*
X599956Y391034D01*
X601936Y392612D01*
X604079Y393959D01*
X606361Y395058D01*
X608651Y395859D01*
X608651Y380549D01*
X593341Y380549D01*
G37*
%LPD*%
%LPC*%
G36*
X561349Y469451D02*
X561349Y469451D01*
X576659Y469451D01*
X575858Y467161D01*
X574759Y464879D01*
X573412Y462736D01*
X571834Y460756D01*
X570044Y458966D01*
X568064Y457388D01*
X565921Y456041D01*
X563639Y454942D01*
X561349Y454141D01*
X561349Y469451D01*
G37*
%LPD*%
%LPC*%
G36*
X243341Y380549D02*
X243341Y380549D01*
X244142Y382839D01*
X245241Y385121D01*
X246588Y387264D01*
X248166Y389244D01*
X249956Y391034D01*
X251936Y392612D01*
X254079Y393959D01*
X256361Y395058D01*
X258651Y395859D01*
X258651Y380549D01*
X243341Y380549D01*
G37*
%LPD*%
%LPC*%
G36*
X303341Y380549D02*
X303341Y380549D01*
X304142Y382839D01*
X305241Y385121D01*
X306588Y387264D01*
X308166Y389244D01*
X309956Y391034D01*
X311936Y392612D01*
X314079Y393959D01*
X316361Y395058D01*
X318651Y395859D01*
X318651Y380549D01*
X303341Y380549D01*
G37*
%LPD*%
%LPC*%
G36*
X621349Y469451D02*
X621349Y469451D01*
X636659Y469451D01*
X635858Y467161D01*
X634759Y464879D01*
X633412Y462736D01*
X631834Y460756D01*
X630044Y458966D01*
X628064Y457388D01*
X625921Y456041D01*
X623639Y454942D01*
X621349Y454141D01*
X621349Y469451D01*
G37*
%LPD*%
%LPC*%
G36*
X271349Y469451D02*
X271349Y469451D01*
X286659Y469451D01*
X285858Y467161D01*
X284759Y464879D01*
X283412Y462736D01*
X281834Y460756D01*
X280044Y458966D01*
X278064Y457388D01*
X275921Y456041D01*
X273639Y454942D01*
X271349Y454141D01*
X271349Y469451D01*
G37*
%LPD*%
%LPC*%
G36*
X331349Y469451D02*
X331349Y469451D01*
X346659Y469451D01*
X345858Y467161D01*
X344759Y464879D01*
X343412Y462736D01*
X341834Y460756D01*
X340044Y458966D01*
X338064Y457388D01*
X335921Y456041D01*
X333639Y454942D01*
X331349Y454141D01*
X331349Y469451D01*
G37*
%LPD*%
%LPC*%
G36*
X621349Y367851D02*
X621349Y367851D01*
X636659Y367851D01*
X636533Y367490D01*
X636533Y367489D01*
X635858Y365561D01*
X634759Y363279D01*
X634221Y362423D01*
X634220Y362422D01*
X633412Y361136D01*
X631834Y359156D01*
X630044Y357366D01*
X628064Y355788D01*
X625921Y354441D01*
X623639Y353342D01*
X621349Y352541D01*
X621349Y367851D01*
G37*
%LPD*%
%LPC*%
G36*
X561349Y367851D02*
X561349Y367851D01*
X576659Y367851D01*
X576533Y367490D01*
X576533Y367489D01*
X575858Y365561D01*
X574759Y363279D01*
X574221Y362423D01*
X574220Y362422D01*
X573412Y361136D01*
X571834Y359156D01*
X570044Y357366D01*
X568064Y355788D01*
X565921Y354441D01*
X563639Y353342D01*
X561349Y352541D01*
X561349Y367851D01*
G37*
%LPD*%
%LPC*%
G36*
X331349Y367851D02*
X331349Y367851D01*
X346659Y367851D01*
X345858Y365561D01*
X344759Y363279D01*
X344424Y362745D01*
X344423Y362744D01*
X343412Y361136D01*
X341834Y359156D01*
X340044Y357366D01*
X338064Y355788D01*
X335921Y354441D01*
X333639Y353342D01*
X331349Y352541D01*
X331349Y367851D01*
G37*
%LPD*%
%LPC*%
G36*
X271349Y367851D02*
X271349Y367851D01*
X286659Y367851D01*
X285858Y365561D01*
X284759Y363279D01*
X284424Y362745D01*
X284423Y362744D01*
X283412Y361136D01*
X281834Y359156D01*
X280044Y357366D01*
X278064Y355788D01*
X275921Y354441D01*
X273639Y353342D01*
X271349Y352541D01*
X271349Y367851D01*
G37*
%LPD*%
%LPC*%
G36*
X546361Y454942D02*
X546361Y454942D01*
X544079Y456041D01*
X541936Y457388D01*
X539956Y458966D01*
X538166Y460756D01*
X536588Y462736D01*
X535241Y464879D01*
X534142Y467161D01*
X533341Y469451D01*
X548651Y469451D01*
X548651Y454141D01*
X546361Y454942D01*
G37*
%LPD*%
%LPC*%
G36*
X606361Y454942D02*
X606361Y454942D01*
X604079Y456041D01*
X601936Y457388D01*
X599956Y458966D01*
X598166Y460756D01*
X596588Y462736D01*
X595241Y464879D01*
X594142Y467161D01*
X593341Y469451D01*
X608651Y469451D01*
X608651Y454141D01*
X606361Y454942D01*
G37*
%LPD*%
%LPC*%
G36*
X256361Y454942D02*
X256361Y454942D01*
X254079Y456041D01*
X251936Y457388D01*
X249956Y458966D01*
X248166Y460756D01*
X246588Y462736D01*
X245241Y464879D01*
X244142Y467161D01*
X243341Y469451D01*
X258651Y469451D01*
X258651Y454141D01*
X256361Y454942D01*
G37*
%LPD*%
%LPC*%
G36*
X316361Y454942D02*
X316361Y454942D01*
X314079Y456041D01*
X311936Y457388D01*
X309956Y458966D01*
X308166Y460756D01*
X306588Y462736D01*
X305241Y464879D01*
X304142Y467161D01*
X303341Y469451D01*
X318651Y469451D01*
X318651Y454141D01*
X316361Y454942D01*
G37*
%LPD*%
%LPC*%
G36*
X606361Y353342D02*
X606361Y353342D01*
X604079Y354441D01*
X601936Y355788D01*
X599956Y357366D01*
X598166Y359156D01*
X596588Y361136D01*
X595241Y363279D01*
X594142Y365561D01*
X593341Y367851D01*
X608651Y367851D01*
X608651Y352541D01*
X606361Y353342D01*
G37*
%LPD*%
%LPC*%
G36*
X546361Y353342D02*
X546361Y353342D01*
X544079Y354441D01*
X541936Y355788D01*
X539956Y357366D01*
X538166Y359156D01*
X536588Y361136D01*
X535241Y363279D01*
X534142Y365561D01*
X533341Y367851D01*
X548651Y367851D01*
X548651Y352541D01*
X546361Y353342D01*
G37*
%LPD*%
%LPC*%
G36*
X316361Y353342D02*
X316361Y353342D01*
X314079Y354441D01*
X311936Y355788D01*
X309956Y357366D01*
X308166Y359156D01*
X306588Y361136D01*
X305241Y363279D01*
X304142Y365561D01*
X303341Y367851D01*
X318651Y367851D01*
X318651Y352541D01*
X316361Y353342D01*
G37*
%LPD*%
%LPC*%
G36*
X256361Y353342D02*
X256361Y353342D01*
X254079Y354441D01*
X251936Y355788D01*
X249956Y357366D01*
X248166Y359156D01*
X246588Y361136D01*
X245241Y363279D01*
X244142Y365561D01*
X243341Y367851D01*
X258651Y367851D01*
X258651Y352541D01*
X256361Y353342D01*
G37*
%LPD*%
%LPC*%
G36*
X775349Y513849D02*
X775349Y513849D01*
X775349Y520541D01*
X779750Y520541D01*
X780241Y520443D01*
X780704Y520252D01*
X781120Y519973D01*
X781473Y519620D01*
X781752Y519204D01*
X781943Y518741D01*
X782041Y518250D01*
X782041Y513849D01*
X775349Y513849D01*
G37*
%LPD*%
%LPC*%
G36*
X817349Y513849D02*
X817349Y513849D01*
X817349Y520541D01*
X821750Y520541D01*
X822241Y520443D01*
X822704Y520252D01*
X823120Y519973D01*
X823473Y519620D01*
X823752Y519204D01*
X823943Y518741D01*
X824041Y518250D01*
X824041Y513849D01*
X817349Y513849D01*
G37*
%LPD*%
%LPC*%
G36*
X817349Y494459D02*
X817349Y494459D01*
X817349Y501151D01*
X824041Y501151D01*
X824041Y496750D01*
X823943Y496259D01*
X823752Y495796D01*
X823473Y495380D01*
X823120Y495027D01*
X822704Y494748D01*
X822241Y494557D01*
X821750Y494459D01*
X817349Y494459D01*
G37*
%LPD*%
%LPC*%
G36*
X797959Y513849D02*
X797959Y513849D01*
X797959Y518250D01*
X798057Y518741D01*
X798248Y519204D01*
X798527Y519620D01*
X798880Y519973D01*
X799296Y520252D01*
X799759Y520443D01*
X800250Y520541D01*
X804651Y520541D01*
X804651Y513849D01*
X797959Y513849D01*
G37*
%LPD*%
%LPC*%
G36*
X755959Y513849D02*
X755959Y513849D01*
X755959Y518250D01*
X756057Y518741D01*
X756248Y519204D01*
X756527Y519620D01*
X756880Y519973D01*
X757296Y520252D01*
X757759Y520443D01*
X758250Y520541D01*
X762651Y520541D01*
X762651Y513849D01*
X755959Y513849D01*
G37*
%LPD*%
%LPC*%
G36*
X775349Y494459D02*
X775349Y494459D01*
X775349Y501151D01*
X782041Y501151D01*
X782041Y496750D01*
X781943Y496259D01*
X781752Y495796D01*
X781473Y495380D01*
X781120Y495027D01*
X780704Y494748D01*
X780241Y494557D01*
X779750Y494459D01*
X775349Y494459D01*
G37*
%LPD*%
%LPC*%
G36*
X800250Y494459D02*
X800250Y494459D01*
X799759Y494557D01*
X799296Y494748D01*
X798880Y495027D01*
X798527Y495380D01*
X798248Y495796D01*
X798057Y496259D01*
X797959Y496750D01*
X797959Y501151D01*
X804651Y501151D01*
X804651Y494459D01*
X800250Y494459D01*
G37*
%LPD*%
%LPC*%
G36*
X758250Y494459D02*
X758250Y494459D01*
X757759Y494557D01*
X757296Y494748D01*
X756880Y495027D01*
X756527Y495380D01*
X756248Y495796D01*
X756057Y496259D01*
X755959Y496750D01*
X755959Y501151D01*
X762651Y501151D01*
X762651Y494459D01*
X758250Y494459D01*
G37*
%LPD*%
%LPC*%
G36*
X479549Y41349D02*
X479549Y41349D01*
X479549Y47066D01*
X482975Y47066D01*
X483466Y46968D01*
X483929Y46777D01*
X484345Y46498D01*
X484698Y46145D01*
X484977Y45729D01*
X485168Y45266D01*
X485266Y44775D01*
X485266Y41349D01*
X479549Y41349D01*
G37*
%LPD*%
%LPC*%
G36*
X461134Y41349D02*
X461134Y41349D01*
X461134Y44775D01*
X461232Y45266D01*
X461423Y45729D01*
X461702Y46145D01*
X462055Y46498D01*
X462471Y46777D01*
X462934Y46968D01*
X463425Y47066D01*
X466851Y47066D01*
X466851Y41349D01*
X461134Y41349D01*
G37*
%LPD*%
%LPC*%
G36*
X479549Y22934D02*
X479549Y22934D01*
X479549Y28651D01*
X485266Y28651D01*
X485266Y25225D01*
X485168Y24734D01*
X484977Y24271D01*
X484698Y23855D01*
X484345Y23502D01*
X483929Y23223D01*
X483466Y23032D01*
X482975Y22934D01*
X479549Y22934D01*
G37*
%LPD*%
%LPC*%
G36*
X463425Y22934D02*
X463425Y22934D01*
X462934Y23032D01*
X462471Y23223D01*
X462055Y23502D01*
X461702Y23855D01*
X461423Y24271D01*
X461232Y24734D01*
X461134Y25225D01*
X461134Y28651D01*
X466851Y28651D01*
X466851Y22934D01*
X463425Y22934D01*
G37*
%LPD*%
D10*
X1223140Y512900D03*
X1141860Y512900D03*
D11*
X1266320Y134440D03*
X1098680Y134440D03*
D12*
X1182500Y119200D03*
D13*
X1694000Y127900D03*
X1652000Y127900D03*
X1610000Y127900D03*
X1568000Y127900D03*
X1526000Y127900D03*
X1568000Y182900D03*
X1526000Y182900D03*
X1610000Y182900D03*
X1652000Y182900D03*
X1694000Y182900D03*
D14*
X1657500Y430000D03*
X1582500Y430000D03*
D15*
X1541500Y310000D03*
X1698500Y310000D03*
D16*
X1576200Y270000D03*
X1673800Y270000D03*
D13*
X811000Y452500D03*
X769000Y452500D03*
X769000Y507500D03*
X811000Y507500D03*
D17*
X270000Y35000D03*
X473200Y35000D03*
X371600Y187400D03*
X854200Y149300D03*
X854200Y73100D03*
D13*
X194000Y127900D03*
X152000Y127900D03*
X110000Y127900D03*
X68000Y127900D03*
X26000Y127900D03*
X68000Y182900D03*
X26000Y182900D03*
X110000Y182900D03*
X152000Y182900D03*
X194000Y182900D03*
D18*
X40000Y595800D03*
X116200Y595800D03*
X116200Y545000D03*
X40000Y545000D03*
X1495000Y595800D03*
X1571200Y595800D03*
X1571200Y545000D03*
X1495000Y545000D03*
D19*
X555000Y374200D03*
X555000Y475800D03*
X325000Y475800D03*
X325000Y374200D03*
D20*
X585000Y552000D03*
X585000Y298000D03*
X295000Y298000D03*
X295000Y552000D03*
D19*
X615000Y374200D03*
X615000Y475800D03*
X265000Y475800D03*
X265000Y374200D03*
D21*
X1098680Y134440D02*
X1100000Y129320D01*
X1100000Y100000D01*
X1150000Y50000D01*
X1325000Y50000D01*
X1395000Y120000D01*
X1545100Y160000D02*
X1568000Y182900D01*
X1465000Y120000D02*
X1395000Y120000D01*
X1465000Y120000D02*
X1505000Y160000D01*
X1545100Y160000D01*
D22*
X1630950Y148950D02*
X1630950Y250250D01*
X1450900Y529100D02*
X1340000Y529100D01*
X1243140Y529100D01*
X1223140Y512900D01*
X1491500Y488500D02*
X1491500Y360000D01*
X1541500Y310000D01*
X1491500Y488500D02*
X1450900Y529100D01*
X1541500Y310000D02*
X1541500Y304700D01*
X1576200Y270000D01*
X1611200Y270000D01*
X1630950Y250250D01*
X1630950Y148950D02*
X1652000Y127900D01*
D23*
X1340000Y615000D03*
D24*
X1340000Y529100D01*
D22*
X1673800Y285300D02*
X1673800Y270000D01*
X1673800Y285300D02*
X1698500Y310000D01*
X1657500Y351000D01*
X1657500Y430000D01*
D25*
X325800Y374200D02*
X325000Y374200D01*
X473200Y226800D02*
X473200Y35000D01*
X473200Y226800D02*
X325800Y374200D01*
D26*
X854200Y149300D02*
X983500Y20000D01*
X1545000Y20000D01*
D21*
X1680000Y90000D02*
X1695000Y105000D01*
X1695000Y126900D01*
X1694000Y127900D01*
X1615000Y90000D02*
X1545000Y20000D01*
X1615000Y90000D02*
X1680000Y90000D01*
D25*
X674200Y374200D02*
X555000Y374200D01*
X674200Y374200D02*
X710000Y410000D01*
X769000Y507500D02*
X811000Y507500D01*
X769000Y507500D02*
X729000Y507500D01*
X710000Y488500D01*
X710000Y410000D01*
X555000Y475800D02*
X325000Y475800D01*
M02*
