G04 EAGLE Gerber RS-274X export*
G75*
%MOMM*%
%FSLAX34Y34*%
%LPD*%
%INTop Copper*%
%IPPOS*%
%AMOC8*
5,1,8,0,0,1.08239X$1,22.5*%
G01*
%ADD10C,1.524000*%
%ADD11C,1.397000*%
%ADD12C,8.636000*%
%ADD13R,2.100000X2.100000*%
%ADD14C,1.450000*%
%ADD15C,2.100000*%
%ADD16C,1.430000*%
%ADD17R,1.200000X1.200000*%
%ADD18R,1.300000X1.500000*%
%ADD19R,1.905000X1.905000*%
%ADD20R,2.857500X2.857500*%
%ADD21C,4.000000*%
%ADD22R,3.556000X3.556000*%
%ADD23C,1.016000*%
%ADD24C,0.200000*%
%ADD25C,0.756400*%
%ADD26C,3.000000*%

G36*
X1690129Y10169D02*
X1690129Y10169D01*
X1690327Y10171D01*
X1692264Y10298D01*
X1692490Y10328D01*
X1692717Y10349D01*
X1692815Y10370D01*
X1692891Y10380D01*
X1693020Y10413D01*
X1693231Y10458D01*
X1696973Y11461D01*
X1697044Y11485D01*
X1697118Y11502D01*
X1697344Y11586D01*
X1697572Y11663D01*
X1697640Y11696D01*
X1697711Y11722D01*
X1698043Y11891D01*
X1698141Y11938D01*
X1698157Y11949D01*
X1698179Y11960D01*
X1701534Y13897D01*
X1701597Y13939D01*
X1701663Y13975D01*
X1701859Y14114D01*
X1702060Y14247D01*
X1702117Y14297D01*
X1702179Y14340D01*
X1702456Y14590D01*
X1702538Y14661D01*
X1702551Y14676D01*
X1702569Y14692D01*
X1705308Y17431D01*
X1705358Y17488D01*
X1705413Y17539D01*
X1705567Y17725D01*
X1705726Y17905D01*
X1705769Y17968D01*
X1705817Y18026D01*
X1706020Y18339D01*
X1706081Y18429D01*
X1706090Y18446D01*
X1706103Y18466D01*
X1708040Y21821D01*
X1708073Y21889D01*
X1708113Y21953D01*
X1708214Y22172D01*
X1708321Y22388D01*
X1708345Y22459D01*
X1708377Y22528D01*
X1708492Y22883D01*
X1708528Y22985D01*
X1708532Y23004D01*
X1708539Y23027D01*
X1709104Y25135D01*
X1709149Y25359D01*
X1709202Y25582D01*
X1709212Y25669D01*
X1709229Y25755D01*
X1709245Y25983D01*
X1709270Y26211D01*
X1709268Y26298D01*
X1709274Y26386D01*
X1709262Y26614D01*
X1709257Y26843D01*
X1709245Y26929D01*
X1709240Y27017D01*
X1709199Y27242D01*
X1709166Y27468D01*
X1709142Y27552D01*
X1709126Y27639D01*
X1709057Y27856D01*
X1708995Y28077D01*
X1708961Y28158D01*
X1708935Y28241D01*
X1708839Y28448D01*
X1708750Y28659D01*
X1708706Y28735D01*
X1708669Y28814D01*
X1708548Y29008D01*
X1708433Y29206D01*
X1708379Y29276D01*
X1708333Y29350D01*
X1708188Y29527D01*
X1708049Y29708D01*
X1707988Y29771D01*
X1707932Y29838D01*
X1707766Y29996D01*
X1707605Y30158D01*
X1707536Y30212D01*
X1707473Y30273D01*
X1707288Y30407D01*
X1707108Y30549D01*
X1707033Y30594D01*
X1706962Y30645D01*
X1706762Y30756D01*
X1706566Y30873D01*
X1706485Y30908D01*
X1706409Y30951D01*
X1706196Y31035D01*
X1705987Y31127D01*
X1705903Y31151D01*
X1705821Y31184D01*
X1705599Y31241D01*
X1705380Y31305D01*
X1705294Y31319D01*
X1705209Y31341D01*
X1704982Y31369D01*
X1704756Y31405D01*
X1704668Y31408D01*
X1704582Y31419D01*
X1704353Y31419D01*
X1704124Y31426D01*
X1704037Y31418D01*
X1703949Y31418D01*
X1703722Y31389D01*
X1703495Y31367D01*
X1703398Y31347D01*
X1703323Y31337D01*
X1703193Y31303D01*
X1702981Y31258D01*
X1697312Y29739D01*
X1690688Y29739D01*
X1684288Y31454D01*
X1678551Y34766D01*
X1673866Y39451D01*
X1670554Y45188D01*
X1668839Y51588D01*
X1668839Y58212D01*
X1670554Y64612D01*
X1673866Y70349D01*
X1678551Y75034D01*
X1684288Y78346D01*
X1690688Y80061D01*
X1697312Y80061D01*
X1703546Y78390D01*
X1703749Y78350D01*
X1703950Y78300D01*
X1704058Y78287D01*
X1704166Y78266D01*
X1704372Y78251D01*
X1704577Y78227D01*
X1704687Y78228D01*
X1704796Y78220D01*
X1705003Y78232D01*
X1705210Y78234D01*
X1705318Y78249D01*
X1705427Y78255D01*
X1705631Y78292D01*
X1705836Y78320D01*
X1705942Y78349D01*
X1706049Y78369D01*
X1706246Y78431D01*
X1706446Y78485D01*
X1706547Y78527D01*
X1706652Y78560D01*
X1706839Y78647D01*
X1707030Y78726D01*
X1707126Y78780D01*
X1707225Y78826D01*
X1707400Y78936D01*
X1707580Y79038D01*
X1707668Y79104D01*
X1707760Y79162D01*
X1707920Y79293D01*
X1708086Y79417D01*
X1708164Y79493D01*
X1708249Y79563D01*
X1708391Y79713D01*
X1708540Y79857D01*
X1708608Y79943D01*
X1708683Y80022D01*
X1708805Y80189D01*
X1708934Y80351D01*
X1708991Y80444D01*
X1709056Y80533D01*
X1709156Y80714D01*
X1709264Y80890D01*
X1709308Y80990D01*
X1709361Y81086D01*
X1709437Y81278D01*
X1709522Y81467D01*
X1709554Y81572D01*
X1709594Y81674D01*
X1709646Y81874D01*
X1709706Y82072D01*
X1709724Y82180D01*
X1709751Y82286D01*
X1709777Y82491D01*
X1709812Y82695D01*
X1709818Y82821D01*
X1709830Y82913D01*
X1709830Y83036D01*
X1709839Y83219D01*
X1709839Y110400D01*
X1709828Y110585D01*
X1709826Y110770D01*
X1709808Y110900D01*
X1709799Y111031D01*
X1709764Y111212D01*
X1709739Y111396D01*
X1709705Y111522D01*
X1709680Y111652D01*
X1709622Y111828D01*
X1709574Y112006D01*
X1709524Y112127D01*
X1709483Y112252D01*
X1709404Y112420D01*
X1709334Y112590D01*
X1709269Y112705D01*
X1709213Y112823D01*
X1709113Y112979D01*
X1709022Y113140D01*
X1708943Y113245D01*
X1708872Y113356D01*
X1708753Y113498D01*
X1708642Y113646D01*
X1708551Y113740D01*
X1708467Y113841D01*
X1708331Y113967D01*
X1708202Y114100D01*
X1708100Y114182D01*
X1708003Y114271D01*
X1707853Y114379D01*
X1707709Y114494D01*
X1707596Y114563D01*
X1707490Y114639D01*
X1707327Y114727D01*
X1707169Y114824D01*
X1707049Y114877D01*
X1706934Y114940D01*
X1706761Y115006D01*
X1706592Y115082D01*
X1706467Y115120D01*
X1706344Y115168D01*
X1706164Y115212D01*
X1705987Y115266D01*
X1705858Y115288D01*
X1705730Y115319D01*
X1705547Y115341D01*
X1705364Y115372D01*
X1705211Y115380D01*
X1705103Y115392D01*
X1704994Y115391D01*
X1704840Y115399D01*
X1683102Y115399D01*
X1682367Y115704D01*
X1681804Y116267D01*
X1681499Y117002D01*
X1681499Y134086D01*
X1681492Y134205D01*
X1681494Y134325D01*
X1681472Y134521D01*
X1681459Y134717D01*
X1681437Y134834D01*
X1681424Y134953D01*
X1681377Y135144D01*
X1681340Y135338D01*
X1681303Y135451D01*
X1681275Y135567D01*
X1681205Y135751D01*
X1681143Y135939D01*
X1681092Y136046D01*
X1681050Y136158D01*
X1680957Y136332D01*
X1680873Y136510D01*
X1680808Y136610D01*
X1680752Y136716D01*
X1680638Y136876D01*
X1680532Y137042D01*
X1680455Y137134D01*
X1680386Y137231D01*
X1680216Y137420D01*
X1680127Y137527D01*
X1680084Y137567D01*
X1680035Y137621D01*
X1672456Y145200D01*
X1671999Y146303D01*
X1671999Y167001D01*
X1671983Y167251D01*
X1671974Y167501D01*
X1671963Y167566D01*
X1671959Y167631D01*
X1671912Y167877D01*
X1671871Y168125D01*
X1671852Y168188D01*
X1671840Y168252D01*
X1671762Y168491D01*
X1671690Y168730D01*
X1671664Y168790D01*
X1671643Y168853D01*
X1671536Y169080D01*
X1671435Y169308D01*
X1671401Y169365D01*
X1671373Y169424D01*
X1671237Y169636D01*
X1671108Y169850D01*
X1671067Y169901D01*
X1671032Y169956D01*
X1670871Y170149D01*
X1670716Y170345D01*
X1670669Y170391D01*
X1670627Y170442D01*
X1670443Y170612D01*
X1670264Y170787D01*
X1670212Y170827D01*
X1670163Y170872D01*
X1669960Y171018D01*
X1669760Y171169D01*
X1669703Y171202D01*
X1669650Y171240D01*
X1669430Y171359D01*
X1669212Y171484D01*
X1669151Y171509D01*
X1669094Y171540D01*
X1668860Y171631D01*
X1668629Y171727D01*
X1668565Y171745D01*
X1668504Y171768D01*
X1668261Y171828D01*
X1668019Y171895D01*
X1667954Y171904D01*
X1667890Y171920D01*
X1667642Y171949D01*
X1667393Y171984D01*
X1667328Y171985D01*
X1667263Y171993D01*
X1667013Y171990D01*
X1666761Y171994D01*
X1666696Y171987D01*
X1666630Y171986D01*
X1666383Y171952D01*
X1666133Y171924D01*
X1666069Y171909D01*
X1666004Y171900D01*
X1665763Y171834D01*
X1665519Y171775D01*
X1665457Y171752D01*
X1665394Y171735D01*
X1665163Y171640D01*
X1664928Y171550D01*
X1664870Y171519D01*
X1664810Y171494D01*
X1664592Y171371D01*
X1664371Y171253D01*
X1664317Y171215D01*
X1664260Y171182D01*
X1664059Y171032D01*
X1663855Y170887D01*
X1663801Y170838D01*
X1663754Y170803D01*
X1663666Y170717D01*
X1662898Y170399D01*
X1641102Y170399D01*
X1640367Y170704D01*
X1639804Y171267D01*
X1639499Y172002D01*
X1639499Y193798D01*
X1639804Y194533D01*
X1640367Y195096D01*
X1641102Y195401D01*
X1662898Y195401D01*
X1663674Y195079D01*
X1663837Y194928D01*
X1663890Y194890D01*
X1663939Y194847D01*
X1664147Y194706D01*
X1664350Y194560D01*
X1664408Y194529D01*
X1664462Y194492D01*
X1664686Y194379D01*
X1664906Y194260D01*
X1664968Y194236D01*
X1665026Y194206D01*
X1665262Y194122D01*
X1665496Y194032D01*
X1665560Y194016D01*
X1665622Y193994D01*
X1665867Y193940D01*
X1666110Y193880D01*
X1666175Y193873D01*
X1666239Y193858D01*
X1666489Y193836D01*
X1666737Y193807D01*
X1666803Y193808D01*
X1666869Y193802D01*
X1667120Y193811D01*
X1667370Y193814D01*
X1667435Y193823D01*
X1667500Y193825D01*
X1667747Y193866D01*
X1667996Y193900D01*
X1668059Y193917D01*
X1668124Y193928D01*
X1668364Y194000D01*
X1668606Y194065D01*
X1668667Y194090D01*
X1668730Y194109D01*
X1668959Y194210D01*
X1669190Y194306D01*
X1669248Y194338D01*
X1669308Y194365D01*
X1669522Y194494D01*
X1669740Y194618D01*
X1669793Y194657D01*
X1669849Y194691D01*
X1670045Y194847D01*
X1670246Y194997D01*
X1670293Y195043D01*
X1670344Y195084D01*
X1670519Y195262D01*
X1670700Y195437D01*
X1670741Y195488D01*
X1670787Y195535D01*
X1670938Y195735D01*
X1671094Y195931D01*
X1671129Y195987D01*
X1671168Y196039D01*
X1671293Y196256D01*
X1671424Y196470D01*
X1671451Y196530D01*
X1671483Y196587D01*
X1671579Y196818D01*
X1671682Y197047D01*
X1671701Y197110D01*
X1671726Y197171D01*
X1671793Y197413D01*
X1671866Y197652D01*
X1671877Y197717D01*
X1671894Y197780D01*
X1671930Y198028D01*
X1671972Y198275D01*
X1671976Y198349D01*
X1671984Y198406D01*
X1671986Y198545D01*
X1671999Y198799D01*
X1671999Y226686D01*
X1671992Y226805D01*
X1671994Y226925D01*
X1671972Y227121D01*
X1671959Y227317D01*
X1671937Y227434D01*
X1671924Y227553D01*
X1671877Y227744D01*
X1671840Y227938D01*
X1671803Y228051D01*
X1671775Y228167D01*
X1671705Y228351D01*
X1671643Y228539D01*
X1671592Y228647D01*
X1671550Y228758D01*
X1671457Y228931D01*
X1671373Y229110D01*
X1671308Y229210D01*
X1671252Y229316D01*
X1671138Y229476D01*
X1671032Y229642D01*
X1670955Y229734D01*
X1670886Y229831D01*
X1670716Y230020D01*
X1670627Y230127D01*
X1670584Y230167D01*
X1670535Y230221D01*
X1632456Y268300D01*
X1631999Y269403D01*
X1631999Y495597D01*
X1632456Y496700D01*
X1634003Y498247D01*
X1688035Y552279D01*
X1688114Y552368D01*
X1688200Y552451D01*
X1688323Y552605D01*
X1688453Y552753D01*
X1688520Y552852D01*
X1688594Y552945D01*
X1688697Y553113D01*
X1688807Y553276D01*
X1688861Y553383D01*
X1688924Y553485D01*
X1689004Y553664D01*
X1689093Y553840D01*
X1689133Y553953D01*
X1689182Y554061D01*
X1689239Y554250D01*
X1689306Y554435D01*
X1689331Y554552D01*
X1689366Y554666D01*
X1689399Y554861D01*
X1689441Y555053D01*
X1689452Y555172D01*
X1689472Y555289D01*
X1689485Y555543D01*
X1689498Y555682D01*
X1689495Y555740D01*
X1689499Y555814D01*
X1689499Y592000D01*
X1689488Y592185D01*
X1689486Y592370D01*
X1689468Y592500D01*
X1689459Y592631D01*
X1689424Y592812D01*
X1689399Y592996D01*
X1689365Y593122D01*
X1689340Y593252D01*
X1689282Y593428D01*
X1689234Y593606D01*
X1689184Y593727D01*
X1689143Y593852D01*
X1689064Y594020D01*
X1688994Y594190D01*
X1688929Y594305D01*
X1688873Y594423D01*
X1688773Y594579D01*
X1688682Y594740D01*
X1688603Y594845D01*
X1688532Y594956D01*
X1688413Y595098D01*
X1688302Y595246D01*
X1688211Y595340D01*
X1688127Y595441D01*
X1687991Y595567D01*
X1687862Y595700D01*
X1687760Y595782D01*
X1687663Y595871D01*
X1687513Y595979D01*
X1687369Y596094D01*
X1687256Y596163D01*
X1687150Y596239D01*
X1686987Y596327D01*
X1686829Y596424D01*
X1686709Y596477D01*
X1686594Y596540D01*
X1686421Y596606D01*
X1686252Y596682D01*
X1686127Y596720D01*
X1686004Y596768D01*
X1685824Y596812D01*
X1685647Y596866D01*
X1685518Y596888D01*
X1685390Y596919D01*
X1685207Y596941D01*
X1685024Y596972D01*
X1684871Y596980D01*
X1684763Y596992D01*
X1684654Y596991D01*
X1684500Y596999D01*
X1684102Y596999D01*
X1683336Y597316D01*
X1683264Y597387D01*
X1683159Y597466D01*
X1683061Y597553D01*
X1682907Y597657D01*
X1682760Y597769D01*
X1682646Y597834D01*
X1682537Y597908D01*
X1682372Y597992D01*
X1682212Y598084D01*
X1682091Y598134D01*
X1681974Y598194D01*
X1681799Y598256D01*
X1681629Y598327D01*
X1681502Y598362D01*
X1681378Y598406D01*
X1681198Y598446D01*
X1681019Y598495D01*
X1680889Y598513D01*
X1680761Y598542D01*
X1680577Y598558D01*
X1680393Y598584D01*
X1680262Y598586D01*
X1680131Y598598D01*
X1679946Y598591D01*
X1679761Y598594D01*
X1679631Y598580D01*
X1679500Y598575D01*
X1679317Y598545D01*
X1679133Y598524D01*
X1679005Y598493D01*
X1678876Y598472D01*
X1678699Y598419D01*
X1678519Y598375D01*
X1678396Y598329D01*
X1678270Y598291D01*
X1678101Y598216D01*
X1677928Y598150D01*
X1677812Y598088D01*
X1677692Y598035D01*
X1677534Y597940D01*
X1677371Y597852D01*
X1677264Y597777D01*
X1677151Y597709D01*
X1677006Y597594D01*
X1676855Y597487D01*
X1676741Y597384D01*
X1676655Y597316D01*
X1676650Y597311D01*
X1675898Y596999D01*
X1663102Y596999D01*
X1662367Y597304D01*
X1661240Y598431D01*
X1661232Y598440D01*
X1661195Y598475D01*
X1661186Y598484D01*
X1661149Y598528D01*
X1660960Y598700D01*
X1660775Y598876D01*
X1660726Y598912D01*
X1660681Y598953D01*
X1660472Y599099D01*
X1660266Y599251D01*
X1660213Y599281D01*
X1660163Y599315D01*
X1659937Y599434D01*
X1659714Y599559D01*
X1659658Y599581D01*
X1659604Y599610D01*
X1659364Y599699D01*
X1659127Y599795D01*
X1659069Y599810D01*
X1659012Y599831D01*
X1658764Y599890D01*
X1658516Y599954D01*
X1658455Y599962D01*
X1658397Y599976D01*
X1658143Y600003D01*
X1657889Y600036D01*
X1657828Y600036D01*
X1657768Y600042D01*
X1657513Y600036D01*
X1657257Y600037D01*
X1657197Y600030D01*
X1657136Y600028D01*
X1656883Y599990D01*
X1656629Y599959D01*
X1656571Y599944D01*
X1656511Y599935D01*
X1656265Y599865D01*
X1656017Y599802D01*
X1655961Y599780D01*
X1655903Y599763D01*
X1655667Y599663D01*
X1655429Y599569D01*
X1655376Y599540D01*
X1655321Y599516D01*
X1655100Y599388D01*
X1654876Y599264D01*
X1654827Y599228D01*
X1654775Y599198D01*
X1654572Y599042D01*
X1654365Y598892D01*
X1654321Y598850D01*
X1654273Y598813D01*
X1654091Y598633D01*
X1653906Y598458D01*
X1653867Y598411D01*
X1653824Y598368D01*
X1653667Y598167D01*
X1653504Y597969D01*
X1653472Y597918D01*
X1653435Y597870D01*
X1653304Y597651D01*
X1653168Y597434D01*
X1653139Y597373D01*
X1653112Y597327D01*
X1653056Y597199D01*
X1652942Y596960D01*
X1652696Y596367D01*
X1652133Y595804D01*
X1651398Y595499D01*
X1637602Y595499D01*
X1637587Y595505D01*
X1637311Y595600D01*
X1637032Y595698D01*
X1637010Y595703D01*
X1636989Y595710D01*
X1636703Y595769D01*
X1636414Y595831D01*
X1636392Y595833D01*
X1636370Y595837D01*
X1636077Y595860D01*
X1635784Y595885D01*
X1635762Y595884D01*
X1635740Y595886D01*
X1635445Y595871D01*
X1635153Y595859D01*
X1635131Y595855D01*
X1635109Y595854D01*
X1634817Y595802D01*
X1634529Y595753D01*
X1634508Y595747D01*
X1634486Y595743D01*
X1634205Y595655D01*
X1633925Y595570D01*
X1633904Y595561D01*
X1633883Y595554D01*
X1633615Y595431D01*
X1633348Y595312D01*
X1633328Y595300D01*
X1632741Y595057D01*
X1632250Y594959D01*
X1630499Y594959D01*
X1630499Y605000D01*
X1630499Y615041D01*
X1632250Y615041D01*
X1632741Y614943D01*
X1633351Y614690D01*
X1633403Y614659D01*
X1633424Y614651D01*
X1633443Y614640D01*
X1633713Y614525D01*
X1633984Y614409D01*
X1634005Y614402D01*
X1634025Y614394D01*
X1634310Y614314D01*
X1634591Y614233D01*
X1634613Y614229D01*
X1634634Y614223D01*
X1634925Y614181D01*
X1635215Y614135D01*
X1635237Y614135D01*
X1635259Y614131D01*
X1635554Y614125D01*
X1635847Y614117D01*
X1635869Y614119D01*
X1635891Y614119D01*
X1636185Y614150D01*
X1636476Y614179D01*
X1636498Y614184D01*
X1636520Y614186D01*
X1636807Y614254D01*
X1637092Y614319D01*
X1637115Y614328D01*
X1637135Y614332D01*
X1637237Y614371D01*
X1637587Y614495D01*
X1637602Y614501D01*
X1651398Y614501D01*
X1652133Y614196D01*
X1652696Y613633D01*
X1652942Y613040D01*
X1653007Y612907D01*
X1653018Y612880D01*
X1653034Y612851D01*
X1653055Y612809D01*
X1653162Y612578D01*
X1653194Y612527D01*
X1653220Y612472D01*
X1653361Y612259D01*
X1653496Y612042D01*
X1653535Y611995D01*
X1653568Y611944D01*
X1653734Y611750D01*
X1653896Y611552D01*
X1653940Y611510D01*
X1653980Y611465D01*
X1654169Y611294D01*
X1654355Y611117D01*
X1654404Y611081D01*
X1654448Y611041D01*
X1654658Y610895D01*
X1654864Y610743D01*
X1654917Y610714D01*
X1654967Y610679D01*
X1655193Y610561D01*
X1655417Y610437D01*
X1655473Y610414D01*
X1655527Y610386D01*
X1655766Y610297D01*
X1656004Y610202D01*
X1656063Y610187D01*
X1656119Y610166D01*
X1656369Y610108D01*
X1656616Y610044D01*
X1656676Y610036D01*
X1656735Y610022D01*
X1656989Y609996D01*
X1657243Y609964D01*
X1657304Y609964D01*
X1657364Y609958D01*
X1657619Y609964D01*
X1657875Y609964D01*
X1657935Y609971D01*
X1657996Y609973D01*
X1658248Y610011D01*
X1658502Y610043D01*
X1658561Y610058D01*
X1658621Y610067D01*
X1658867Y610137D01*
X1659114Y610201D01*
X1659170Y610224D01*
X1659229Y610240D01*
X1659464Y610341D01*
X1659701Y610435D01*
X1659754Y610465D01*
X1659810Y610488D01*
X1660030Y610617D01*
X1660254Y610741D01*
X1660303Y610777D01*
X1660355Y610808D01*
X1660558Y610964D01*
X1660764Y611115D01*
X1660808Y611157D01*
X1660856Y611194D01*
X1661029Y611365D01*
X1661101Y611430D01*
X1661176Y611505D01*
X1661223Y611550D01*
X1661234Y611563D01*
X1662367Y612696D01*
X1663102Y613001D01*
X1675898Y613001D01*
X1676664Y612684D01*
X1676736Y612613D01*
X1676841Y612534D01*
X1676939Y612447D01*
X1677092Y612343D01*
X1677240Y612231D01*
X1677354Y612166D01*
X1677462Y612092D01*
X1677627Y612009D01*
X1677788Y611916D01*
X1677909Y611866D01*
X1678026Y611806D01*
X1678200Y611744D01*
X1678371Y611673D01*
X1678498Y611638D01*
X1678622Y611594D01*
X1678802Y611554D01*
X1678981Y611505D01*
X1679111Y611487D01*
X1679239Y611458D01*
X1679423Y611442D01*
X1679606Y611416D01*
X1679738Y611414D01*
X1679869Y611402D01*
X1680053Y611409D01*
X1680238Y611406D01*
X1680369Y611420D01*
X1680500Y611425D01*
X1680683Y611455D01*
X1680867Y611476D01*
X1680994Y611507D01*
X1681124Y611528D01*
X1681301Y611581D01*
X1681481Y611625D01*
X1681604Y611671D01*
X1681730Y611709D01*
X1681899Y611784D01*
X1682072Y611850D01*
X1682187Y611912D01*
X1682308Y611965D01*
X1682466Y612060D01*
X1682629Y612147D01*
X1682736Y612223D01*
X1682849Y612291D01*
X1682994Y612406D01*
X1683145Y612513D01*
X1683259Y612616D01*
X1683344Y612684D01*
X1683350Y612689D01*
X1684102Y613001D01*
X1696898Y613001D01*
X1697633Y612696D01*
X1698196Y612133D01*
X1698501Y611398D01*
X1698501Y598602D01*
X1698196Y597867D01*
X1696965Y596636D01*
X1696886Y596546D01*
X1696800Y596463D01*
X1696677Y596309D01*
X1696547Y596161D01*
X1696480Y596062D01*
X1696406Y595969D01*
X1696303Y595801D01*
X1696193Y595638D01*
X1696139Y595531D01*
X1696076Y595430D01*
X1695996Y595250D01*
X1695907Y595074D01*
X1695867Y594962D01*
X1695818Y594853D01*
X1695761Y594664D01*
X1695694Y594479D01*
X1695669Y594362D01*
X1695634Y594248D01*
X1695601Y594054D01*
X1695559Y593861D01*
X1695548Y593743D01*
X1695528Y593625D01*
X1695515Y593371D01*
X1695502Y593232D01*
X1695505Y593174D01*
X1695501Y593101D01*
X1695501Y554774D01*
X1695506Y554688D01*
X1695504Y554601D01*
X1695526Y554372D01*
X1695541Y554143D01*
X1695557Y554058D01*
X1695565Y553972D01*
X1695617Y553748D01*
X1695660Y553523D01*
X1695687Y553440D01*
X1695701Y553380D01*
X1695701Y552103D01*
X1695244Y551000D01*
X1693697Y549453D01*
X1639465Y495221D01*
X1639386Y495132D01*
X1639300Y495049D01*
X1639177Y494895D01*
X1639047Y494747D01*
X1638980Y494648D01*
X1638906Y494555D01*
X1638803Y494387D01*
X1638693Y494224D01*
X1638639Y494117D01*
X1638576Y494015D01*
X1638496Y493836D01*
X1638407Y493660D01*
X1638367Y493547D01*
X1638318Y493439D01*
X1638261Y493250D01*
X1638194Y493065D01*
X1638169Y492948D01*
X1638134Y492834D01*
X1638101Y492639D01*
X1638059Y492447D01*
X1638048Y492328D01*
X1638028Y492211D01*
X1638015Y491957D01*
X1638002Y491818D01*
X1638005Y491760D01*
X1638001Y491686D01*
X1638001Y273314D01*
X1638008Y273195D01*
X1638006Y273075D01*
X1638028Y272879D01*
X1638041Y272683D01*
X1638063Y272566D01*
X1638076Y272447D01*
X1638123Y272256D01*
X1638160Y272062D01*
X1638197Y271949D01*
X1638225Y271833D01*
X1638295Y271649D01*
X1638357Y271461D01*
X1638408Y271353D01*
X1638450Y271242D01*
X1638543Y271069D01*
X1638627Y270890D01*
X1638692Y270790D01*
X1638748Y270684D01*
X1638862Y270524D01*
X1638968Y270358D01*
X1639045Y270266D01*
X1639114Y270169D01*
X1639284Y269980D01*
X1639373Y269873D01*
X1639416Y269833D01*
X1639465Y269779D01*
X1677544Y231700D01*
X1678001Y230597D01*
X1678001Y200400D01*
X1678012Y200215D01*
X1678014Y200030D01*
X1678032Y199900D01*
X1678041Y199769D01*
X1678076Y199588D01*
X1678101Y199404D01*
X1678135Y199278D01*
X1678160Y199148D01*
X1678218Y198972D01*
X1678266Y198794D01*
X1678316Y198673D01*
X1678357Y198548D01*
X1678436Y198380D01*
X1678506Y198210D01*
X1678571Y198095D01*
X1678627Y197977D01*
X1678727Y197821D01*
X1678818Y197660D01*
X1678897Y197555D01*
X1678968Y197444D01*
X1679087Y197302D01*
X1679198Y197154D01*
X1679289Y197060D01*
X1679373Y196959D01*
X1679509Y196833D01*
X1679638Y196700D01*
X1679740Y196618D01*
X1679837Y196529D01*
X1679987Y196421D01*
X1680131Y196306D01*
X1680244Y196237D01*
X1680350Y196161D01*
X1680513Y196073D01*
X1680671Y195976D01*
X1680791Y195923D01*
X1680906Y195860D01*
X1681079Y195794D01*
X1681248Y195718D01*
X1681373Y195680D01*
X1681496Y195632D01*
X1681676Y195588D01*
X1681853Y195534D01*
X1681982Y195512D01*
X1682110Y195481D01*
X1682293Y195459D01*
X1682476Y195428D01*
X1682629Y195420D01*
X1682737Y195408D01*
X1682846Y195409D01*
X1683000Y195401D01*
X1704840Y195401D01*
X1705025Y195412D01*
X1705210Y195414D01*
X1705340Y195432D01*
X1705471Y195441D01*
X1705652Y195476D01*
X1705836Y195501D01*
X1705962Y195535D01*
X1706092Y195560D01*
X1706268Y195618D01*
X1706446Y195666D01*
X1706567Y195716D01*
X1706692Y195757D01*
X1706860Y195836D01*
X1707030Y195906D01*
X1707145Y195971D01*
X1707263Y196027D01*
X1707419Y196127D01*
X1707580Y196218D01*
X1707685Y196297D01*
X1707796Y196368D01*
X1707938Y196487D01*
X1708086Y196598D01*
X1708180Y196689D01*
X1708281Y196773D01*
X1708407Y196909D01*
X1708540Y197038D01*
X1708622Y197140D01*
X1708711Y197237D01*
X1708819Y197387D01*
X1708934Y197531D01*
X1709003Y197644D01*
X1709079Y197750D01*
X1709167Y197913D01*
X1709264Y198071D01*
X1709317Y198191D01*
X1709380Y198306D01*
X1709446Y198479D01*
X1709522Y198648D01*
X1709560Y198773D01*
X1709608Y198896D01*
X1709652Y199076D01*
X1709706Y199253D01*
X1709728Y199382D01*
X1709759Y199510D01*
X1709781Y199693D01*
X1709812Y199876D01*
X1709820Y200029D01*
X1709832Y200137D01*
X1709831Y200246D01*
X1709839Y200400D01*
X1709839Y293684D01*
X1709825Y293902D01*
X1709820Y294119D01*
X1709806Y294217D01*
X1709799Y294315D01*
X1709758Y294529D01*
X1709726Y294744D01*
X1709699Y294839D01*
X1709680Y294936D01*
X1709612Y295143D01*
X1709553Y295352D01*
X1709514Y295443D01*
X1709483Y295537D01*
X1709390Y295734D01*
X1709305Y295934D01*
X1709255Y296019D01*
X1709213Y296108D01*
X1709095Y296291D01*
X1708985Y296479D01*
X1708925Y296557D01*
X1708872Y296640D01*
X1708732Y296807D01*
X1708599Y296980D01*
X1708530Y297050D01*
X1708467Y297125D01*
X1708307Y297273D01*
X1708153Y297428D01*
X1708076Y297488D01*
X1708003Y297555D01*
X1707827Y297682D01*
X1707655Y297816D01*
X1707570Y297866D01*
X1707490Y297924D01*
X1707298Y298027D01*
X1707111Y298138D01*
X1707020Y298177D01*
X1706934Y298224D01*
X1706730Y298303D01*
X1706531Y298389D01*
X1706436Y298416D01*
X1706344Y298452D01*
X1706133Y298504D01*
X1705923Y298565D01*
X1705826Y298580D01*
X1705730Y298604D01*
X1705515Y298629D01*
X1705299Y298662D01*
X1705200Y298665D01*
X1705103Y298677D01*
X1704885Y298674D01*
X1704667Y298681D01*
X1704569Y298671D01*
X1704470Y298670D01*
X1704255Y298640D01*
X1704038Y298619D01*
X1703942Y298597D01*
X1703844Y298583D01*
X1703634Y298527D01*
X1703422Y298478D01*
X1703316Y298441D01*
X1703234Y298419D01*
X1703115Y298370D01*
X1702927Y298303D01*
X1700987Y297499D01*
X1696013Y297499D01*
X1691419Y299402D01*
X1687902Y302919D01*
X1685999Y307513D01*
X1685999Y312487D01*
X1687902Y317081D01*
X1691419Y320598D01*
X1696013Y322501D01*
X1700987Y322501D01*
X1702927Y321697D01*
X1703133Y321627D01*
X1703336Y321548D01*
X1703432Y321524D01*
X1703525Y321493D01*
X1703738Y321449D01*
X1703950Y321396D01*
X1704047Y321385D01*
X1704144Y321365D01*
X1704361Y321349D01*
X1704577Y321323D01*
X1704676Y321324D01*
X1704774Y321317D01*
X1704992Y321328D01*
X1705210Y321330D01*
X1705307Y321344D01*
X1705406Y321349D01*
X1705620Y321387D01*
X1705836Y321417D01*
X1705931Y321442D01*
X1706028Y321460D01*
X1706236Y321525D01*
X1706446Y321581D01*
X1706537Y321619D01*
X1706631Y321648D01*
X1706829Y321739D01*
X1707030Y321822D01*
X1707116Y321871D01*
X1707206Y321912D01*
X1707391Y322027D01*
X1707580Y322134D01*
X1707659Y322193D01*
X1707743Y322245D01*
X1707912Y322383D01*
X1708086Y322513D01*
X1708157Y322582D01*
X1708233Y322644D01*
X1708383Y322802D01*
X1708540Y322953D01*
X1708601Y323030D01*
X1708669Y323102D01*
X1708798Y323277D01*
X1708934Y323447D01*
X1708986Y323531D01*
X1709044Y323611D01*
X1709150Y323800D01*
X1709264Y323987D01*
X1709304Y324077D01*
X1709352Y324163D01*
X1709433Y324365D01*
X1709522Y324563D01*
X1709551Y324658D01*
X1709587Y324749D01*
X1709642Y324960D01*
X1709706Y325168D01*
X1709722Y325265D01*
X1709747Y325361D01*
X1709775Y325576D01*
X1709812Y325791D01*
X1709818Y325904D01*
X1709828Y325988D01*
X1709829Y326117D01*
X1709839Y326316D01*
X1709839Y610000D01*
X1709831Y610129D01*
X1709829Y610327D01*
X1709702Y612264D01*
X1709672Y612490D01*
X1709651Y612717D01*
X1709630Y612815D01*
X1709620Y612891D01*
X1709587Y613020D01*
X1709542Y613231D01*
X1708539Y616973D01*
X1708515Y617044D01*
X1708498Y617118D01*
X1708414Y617344D01*
X1708337Y617572D01*
X1708304Y617640D01*
X1708278Y617711D01*
X1708109Y618043D01*
X1708062Y618141D01*
X1708051Y618157D01*
X1708040Y618179D01*
X1706103Y621534D01*
X1706061Y621597D01*
X1706025Y621663D01*
X1705886Y621859D01*
X1705753Y622060D01*
X1705703Y622117D01*
X1705660Y622179D01*
X1705410Y622456D01*
X1705339Y622538D01*
X1705324Y622551D01*
X1705308Y622569D01*
X1702569Y625308D01*
X1702512Y625358D01*
X1702461Y625413D01*
X1702275Y625567D01*
X1702095Y625726D01*
X1702032Y625769D01*
X1701974Y625817D01*
X1701661Y626020D01*
X1701571Y626081D01*
X1701554Y626090D01*
X1701534Y626103D01*
X1698179Y628040D01*
X1698111Y628073D01*
X1698047Y628113D01*
X1697828Y628214D01*
X1697612Y628321D01*
X1697541Y628345D01*
X1697472Y628377D01*
X1697117Y628492D01*
X1697015Y628528D01*
X1696996Y628532D01*
X1696973Y628539D01*
X1693231Y629542D01*
X1693007Y629587D01*
X1692785Y629640D01*
X1692686Y629652D01*
X1692611Y629667D01*
X1692477Y629676D01*
X1692264Y629702D01*
X1690327Y629829D01*
X1690198Y629829D01*
X1690000Y629839D01*
X1443192Y629839D01*
X1442974Y629825D01*
X1442756Y629820D01*
X1442659Y629805D01*
X1442561Y629799D01*
X1442347Y629758D01*
X1442131Y629725D01*
X1442037Y629699D01*
X1441940Y629680D01*
X1441732Y629612D01*
X1441523Y629552D01*
X1441433Y629514D01*
X1441340Y629483D01*
X1441142Y629390D01*
X1440942Y629304D01*
X1440857Y629255D01*
X1440768Y629213D01*
X1440584Y629095D01*
X1440396Y628985D01*
X1440319Y628925D01*
X1440236Y628872D01*
X1440069Y628732D01*
X1439896Y628599D01*
X1439826Y628529D01*
X1439751Y628467D01*
X1439602Y628307D01*
X1439448Y628153D01*
X1439388Y628075D01*
X1439321Y628003D01*
X1439194Y627826D01*
X1439060Y627654D01*
X1439010Y627569D01*
X1438953Y627490D01*
X1438849Y627298D01*
X1438738Y627110D01*
X1438699Y627020D01*
X1438652Y626934D01*
X1438573Y626730D01*
X1438487Y626530D01*
X1438460Y626435D01*
X1438424Y626344D01*
X1438372Y626132D01*
X1438311Y625922D01*
X1438296Y625825D01*
X1438273Y625730D01*
X1438247Y625514D01*
X1438214Y625298D01*
X1438211Y625200D01*
X1438200Y625103D01*
X1438202Y624885D01*
X1438196Y624666D01*
X1438205Y624568D01*
X1438206Y624470D01*
X1438236Y624255D01*
X1438258Y624037D01*
X1438279Y623941D01*
X1438293Y623844D01*
X1438350Y623634D01*
X1438398Y623421D01*
X1438419Y623363D01*
X1438541Y622750D01*
X1438541Y619999D01*
X1429500Y619999D01*
X1429316Y619988D01*
X1429131Y619986D01*
X1429001Y619968D01*
X1428870Y619959D01*
X1428688Y619925D01*
X1428505Y619899D01*
X1428378Y619865D01*
X1428249Y619840D01*
X1428073Y619783D01*
X1427894Y619734D01*
X1427773Y619685D01*
X1427648Y619644D01*
X1427481Y619564D01*
X1427310Y619494D01*
X1427196Y619429D01*
X1427077Y619373D01*
X1426921Y619273D01*
X1426760Y619182D01*
X1426655Y619103D01*
X1426545Y619032D01*
X1426402Y618913D01*
X1426255Y618802D01*
X1426254Y618802D01*
X1426160Y618711D01*
X1426059Y618627D01*
X1426059Y618626D01*
X1425933Y618491D01*
X1425800Y618362D01*
X1425718Y618259D01*
X1425629Y618163D01*
X1425521Y618013D01*
X1425406Y617868D01*
X1425337Y617756D01*
X1425261Y617649D01*
X1425173Y617487D01*
X1425076Y617329D01*
X1425022Y617209D01*
X1424960Y617093D01*
X1424893Y616921D01*
X1424818Y616752D01*
X1424780Y616626D01*
X1424732Y616504D01*
X1424688Y616324D01*
X1424634Y616147D01*
X1424612Y616017D01*
X1424581Y615890D01*
X1424559Y615707D01*
X1424528Y615524D01*
X1424520Y615370D01*
X1424507Y615262D01*
X1424509Y615153D01*
X1424501Y615000D01*
X1424501Y604959D01*
X1422750Y604959D01*
X1422259Y605057D01*
X1421649Y605310D01*
X1421597Y605341D01*
X1421576Y605349D01*
X1421557Y605360D01*
X1421287Y605475D01*
X1421016Y605591D01*
X1420995Y605598D01*
X1420975Y605606D01*
X1420690Y605686D01*
X1420409Y605767D01*
X1420387Y605771D01*
X1420366Y605777D01*
X1420075Y605819D01*
X1419785Y605865D01*
X1419763Y605865D01*
X1419741Y605869D01*
X1419446Y605875D01*
X1419153Y605883D01*
X1419131Y605881D01*
X1419109Y605881D01*
X1418815Y605850D01*
X1418524Y605821D01*
X1418502Y605816D01*
X1418480Y605814D01*
X1418193Y605746D01*
X1417908Y605681D01*
X1417885Y605672D01*
X1417865Y605668D01*
X1417763Y605629D01*
X1417413Y605505D01*
X1417398Y605499D01*
X1403602Y605499D01*
X1402867Y605804D01*
X1402304Y606367D01*
X1401992Y607120D01*
X1401988Y607185D01*
X1401986Y607370D01*
X1401968Y607500D01*
X1401959Y607631D01*
X1401924Y607812D01*
X1401899Y607996D01*
X1401865Y608122D01*
X1401840Y608252D01*
X1401782Y608428D01*
X1401734Y608606D01*
X1401684Y608727D01*
X1401643Y608852D01*
X1401564Y609020D01*
X1401494Y609190D01*
X1401429Y609305D01*
X1401373Y609423D01*
X1401273Y609579D01*
X1401182Y609740D01*
X1401103Y609845D01*
X1401032Y609956D01*
X1400913Y610098D01*
X1400802Y610246D01*
X1400711Y610340D01*
X1400627Y610441D01*
X1400491Y610567D01*
X1400362Y610700D01*
X1400260Y610782D01*
X1400163Y610871D01*
X1400013Y610979D01*
X1399869Y611094D01*
X1399756Y611163D01*
X1399650Y611239D01*
X1399487Y611327D01*
X1399329Y611424D01*
X1399209Y611477D01*
X1399094Y611540D01*
X1398921Y611606D01*
X1398752Y611682D01*
X1398627Y611720D01*
X1398504Y611768D01*
X1398324Y611812D01*
X1398147Y611866D01*
X1398018Y611888D01*
X1397890Y611919D01*
X1397707Y611941D01*
X1397524Y611972D01*
X1397371Y611980D01*
X1397263Y611992D01*
X1397154Y611991D01*
X1397000Y611999D01*
X1393248Y611999D01*
X1393096Y611990D01*
X1392944Y611990D01*
X1392781Y611970D01*
X1392617Y611959D01*
X1392468Y611931D01*
X1392317Y611912D01*
X1392158Y611871D01*
X1391997Y611840D01*
X1391852Y611793D01*
X1391705Y611755D01*
X1391552Y611695D01*
X1391396Y611643D01*
X1391258Y611578D01*
X1391117Y611522D01*
X1390973Y611443D01*
X1390825Y611373D01*
X1390696Y611290D01*
X1390563Y611217D01*
X1390431Y611121D01*
X1390292Y611032D01*
X1390175Y610934D01*
X1390053Y610845D01*
X1389934Y610732D01*
X1389807Y610627D01*
X1389704Y610515D01*
X1389593Y610411D01*
X1389489Y610284D01*
X1389377Y610163D01*
X1389289Y610040D01*
X1389192Y609922D01*
X1389105Y609783D01*
X1389009Y609650D01*
X1388937Y609516D01*
X1388856Y609387D01*
X1388770Y609207D01*
X1388709Y609094D01*
X1388678Y609015D01*
X1388630Y608913D01*
X1388196Y607867D01*
X1387633Y607304D01*
X1386898Y606999D01*
X1374102Y606999D01*
X1373336Y607316D01*
X1373264Y607387D01*
X1373159Y607466D01*
X1373061Y607553D01*
X1372908Y607657D01*
X1372760Y607769D01*
X1372646Y607834D01*
X1372538Y607908D01*
X1372373Y607991D01*
X1372212Y608084D01*
X1372091Y608134D01*
X1371974Y608194D01*
X1371800Y608256D01*
X1371629Y608327D01*
X1371502Y608362D01*
X1371378Y608406D01*
X1371198Y608446D01*
X1371019Y608495D01*
X1370889Y608513D01*
X1370761Y608542D01*
X1370577Y608558D01*
X1370394Y608584D01*
X1370262Y608586D01*
X1370131Y608598D01*
X1369947Y608591D01*
X1369762Y608594D01*
X1369631Y608580D01*
X1369500Y608575D01*
X1369317Y608545D01*
X1369133Y608524D01*
X1369006Y608493D01*
X1368876Y608472D01*
X1368699Y608419D01*
X1368519Y608375D01*
X1368396Y608329D01*
X1368270Y608291D01*
X1368101Y608216D01*
X1367928Y608150D01*
X1367813Y608088D01*
X1367692Y608035D01*
X1367534Y607940D01*
X1367371Y607853D01*
X1367264Y607777D01*
X1367151Y607709D01*
X1367006Y607594D01*
X1366855Y607487D01*
X1366741Y607384D01*
X1366656Y607316D01*
X1366650Y607311D01*
X1365898Y606999D01*
X1353102Y606999D01*
X1352367Y607304D01*
X1351804Y607867D01*
X1351516Y608562D01*
X1351420Y608758D01*
X1351332Y608957D01*
X1351281Y609041D01*
X1351237Y609130D01*
X1351118Y609311D01*
X1351005Y609498D01*
X1350944Y609575D01*
X1350890Y609658D01*
X1350748Y609823D01*
X1350613Y609994D01*
X1350542Y610062D01*
X1350478Y610137D01*
X1350317Y610284D01*
X1350161Y610436D01*
X1350083Y610495D01*
X1350009Y610561D01*
X1349830Y610686D01*
X1349657Y610817D01*
X1349572Y610866D01*
X1349491Y610923D01*
X1349298Y611024D01*
X1349109Y611132D01*
X1349018Y611170D01*
X1348931Y611216D01*
X1348727Y611292D01*
X1348526Y611376D01*
X1348431Y611402D01*
X1348338Y611436D01*
X1348126Y611486D01*
X1347916Y611543D01*
X1347819Y611557D01*
X1347723Y611580D01*
X1347506Y611602D01*
X1347291Y611633D01*
X1347192Y611634D01*
X1347094Y611644D01*
X1346876Y611639D01*
X1346659Y611643D01*
X1346560Y611632D01*
X1346462Y611629D01*
X1346247Y611597D01*
X1346030Y611573D01*
X1345935Y611549D01*
X1345837Y611535D01*
X1345628Y611475D01*
X1345416Y611424D01*
X1345324Y611389D01*
X1345229Y611362D01*
X1345029Y611276D01*
X1344825Y611199D01*
X1344738Y611152D01*
X1344648Y611114D01*
X1344460Y611004D01*
X1344268Y610901D01*
X1344187Y610844D01*
X1344102Y610794D01*
X1343930Y610661D01*
X1343752Y610535D01*
X1343669Y610460D01*
X1343602Y610408D01*
X1343510Y610317D01*
X1343362Y610184D01*
X1343276Y610098D01*
X1341150Y609217D01*
X1338850Y609217D01*
X1336724Y610098D01*
X1335098Y611724D01*
X1334217Y613850D01*
X1334217Y616150D01*
X1335098Y618276D01*
X1336724Y619902D01*
X1337494Y620221D01*
X1337747Y620345D01*
X1338005Y620467D01*
X1338033Y620485D01*
X1338062Y620500D01*
X1338298Y620655D01*
X1338537Y620808D01*
X1338562Y620829D01*
X1338590Y620847D01*
X1338805Y621032D01*
X1339022Y621213D01*
X1339045Y621237D01*
X1339070Y621259D01*
X1339260Y621470D01*
X1339452Y621677D01*
X1339471Y621703D01*
X1339494Y621728D01*
X1339656Y621961D01*
X1339821Y622190D01*
X1339836Y622219D01*
X1339855Y622246D01*
X1339987Y622498D01*
X1340121Y622746D01*
X1340133Y622777D01*
X1340148Y622806D01*
X1340247Y623072D01*
X1340349Y623336D01*
X1340357Y623368D01*
X1340368Y623399D01*
X1340433Y623675D01*
X1340501Y623950D01*
X1340504Y623982D01*
X1340512Y624014D01*
X1340541Y624298D01*
X1340574Y624577D01*
X1340573Y624610D01*
X1340577Y624643D01*
X1340570Y624927D01*
X1340567Y625210D01*
X1340562Y625242D01*
X1340562Y625275D01*
X1340519Y625555D01*
X1340480Y625836D01*
X1340472Y625867D01*
X1340467Y625900D01*
X1340389Y626173D01*
X1340316Y626446D01*
X1340303Y626476D01*
X1340294Y626508D01*
X1340183Y626769D01*
X1340075Y627030D01*
X1340059Y627059D01*
X1340046Y627089D01*
X1339903Y627334D01*
X1339763Y627580D01*
X1339743Y627606D01*
X1339726Y627635D01*
X1339554Y627859D01*
X1339384Y628086D01*
X1339361Y628109D01*
X1339341Y628135D01*
X1339142Y628335D01*
X1338944Y628540D01*
X1338918Y628560D01*
X1338895Y628583D01*
X1338672Y628757D01*
X1338450Y628934D01*
X1338422Y628951D01*
X1338396Y628972D01*
X1338153Y629115D01*
X1337910Y629264D01*
X1337880Y629277D01*
X1337852Y629294D01*
X1337593Y629406D01*
X1337334Y629522D01*
X1337302Y629532D01*
X1337272Y629545D01*
X1337000Y629623D01*
X1336729Y629706D01*
X1336696Y629711D01*
X1336665Y629720D01*
X1336386Y629764D01*
X1336106Y629812D01*
X1336069Y629814D01*
X1336040Y629818D01*
X1335914Y629822D01*
X1335581Y629839D01*
X1060000Y629839D01*
X1059815Y629828D01*
X1059630Y629826D01*
X1059500Y629808D01*
X1059369Y629799D01*
X1059188Y629764D01*
X1059004Y629739D01*
X1058878Y629705D01*
X1058748Y629680D01*
X1058572Y629622D01*
X1058394Y629574D01*
X1058273Y629524D01*
X1058148Y629483D01*
X1057980Y629404D01*
X1057810Y629334D01*
X1057695Y629269D01*
X1057577Y629213D01*
X1057421Y629113D01*
X1057260Y629022D01*
X1057155Y628943D01*
X1057044Y628872D01*
X1056902Y628753D01*
X1056754Y628642D01*
X1056660Y628551D01*
X1056559Y628467D01*
X1056433Y628331D01*
X1056300Y628202D01*
X1056218Y628100D01*
X1056129Y628003D01*
X1056021Y627853D01*
X1055906Y627709D01*
X1055837Y627596D01*
X1055761Y627490D01*
X1055673Y627327D01*
X1055576Y627169D01*
X1055523Y627049D01*
X1055460Y626934D01*
X1055394Y626761D01*
X1055318Y626592D01*
X1055280Y626467D01*
X1055232Y626344D01*
X1055188Y626164D01*
X1055134Y625987D01*
X1055112Y625858D01*
X1055081Y625730D01*
X1055059Y625547D01*
X1055028Y625364D01*
X1055020Y625211D01*
X1055008Y625103D01*
X1055009Y624994D01*
X1055001Y624840D01*
X1055001Y502660D01*
X1055012Y502475D01*
X1055014Y502290D01*
X1055032Y502160D01*
X1055041Y502029D01*
X1055076Y501848D01*
X1055101Y501664D01*
X1055135Y501538D01*
X1055160Y501408D01*
X1055218Y501232D01*
X1055266Y501054D01*
X1055316Y500933D01*
X1055357Y500808D01*
X1055436Y500640D01*
X1055506Y500470D01*
X1055571Y500355D01*
X1055627Y500237D01*
X1055727Y500081D01*
X1055819Y499920D01*
X1055897Y499815D01*
X1055968Y499704D01*
X1056087Y499562D01*
X1056198Y499414D01*
X1056289Y499320D01*
X1056373Y499219D01*
X1056509Y499093D01*
X1056638Y498960D01*
X1056740Y498878D01*
X1056837Y498789D01*
X1056987Y498681D01*
X1057131Y498566D01*
X1057244Y498497D01*
X1057350Y498421D01*
X1057513Y498333D01*
X1057671Y498236D01*
X1057791Y498183D01*
X1057906Y498120D01*
X1058079Y498054D01*
X1058248Y497978D01*
X1058373Y497940D01*
X1058496Y497892D01*
X1058676Y497848D01*
X1058853Y497794D01*
X1058982Y497772D01*
X1059110Y497741D01*
X1059293Y497719D01*
X1059476Y497688D01*
X1059629Y497680D01*
X1059737Y497668D01*
X1059846Y497669D01*
X1060000Y497661D01*
X1130661Y497661D01*
X1130911Y497677D01*
X1131161Y497686D01*
X1131226Y497697D01*
X1131291Y497701D01*
X1131537Y497748D01*
X1131785Y497789D01*
X1131848Y497808D01*
X1131912Y497820D01*
X1132151Y497898D01*
X1132390Y497970D01*
X1132450Y497996D01*
X1132513Y498017D01*
X1132740Y498124D01*
X1132969Y498225D01*
X1133025Y498259D01*
X1133084Y498287D01*
X1133295Y498423D01*
X1133510Y498552D01*
X1133561Y498593D01*
X1133616Y498628D01*
X1133809Y498789D01*
X1134005Y498944D01*
X1134051Y498991D01*
X1134102Y499033D01*
X1134272Y499217D01*
X1134447Y499396D01*
X1134487Y499449D01*
X1134532Y499497D01*
X1134678Y499700D01*
X1134829Y499900D01*
X1134862Y499957D01*
X1134900Y500010D01*
X1135019Y500230D01*
X1135144Y500448D01*
X1135169Y500509D01*
X1135200Y500566D01*
X1135291Y500800D01*
X1135387Y501031D01*
X1135405Y501095D01*
X1135428Y501156D01*
X1135488Y501399D01*
X1135555Y501641D01*
X1135564Y501706D01*
X1135580Y501770D01*
X1135609Y502018D01*
X1135644Y502267D01*
X1135645Y502332D01*
X1135653Y502397D01*
X1135650Y502647D01*
X1135654Y502899D01*
X1135647Y502964D01*
X1135646Y503030D01*
X1135612Y503277D01*
X1135584Y503527D01*
X1135569Y503591D01*
X1135560Y503656D01*
X1135494Y503897D01*
X1135435Y504141D01*
X1135412Y504203D01*
X1135395Y504266D01*
X1135300Y504497D01*
X1135210Y504732D01*
X1135179Y504790D01*
X1135154Y504850D01*
X1135031Y505068D01*
X1134912Y505289D01*
X1134874Y505343D01*
X1134842Y505400D01*
X1134692Y505600D01*
X1134547Y505805D01*
X1134497Y505860D01*
X1134463Y505906D01*
X1134366Y506006D01*
X1134195Y506195D01*
X1134110Y506281D01*
X1133170Y507575D01*
X1133004Y507901D01*
X1141860Y507901D01*
X1150716Y507901D01*
X1150550Y507575D01*
X1149610Y506281D01*
X1149525Y506195D01*
X1149359Y506007D01*
X1149188Y505823D01*
X1149150Y505770D01*
X1149107Y505721D01*
X1148966Y505513D01*
X1148820Y505310D01*
X1148789Y505252D01*
X1148752Y505198D01*
X1148639Y504974D01*
X1148520Y504754D01*
X1148496Y504692D01*
X1148466Y504634D01*
X1148382Y504398D01*
X1148292Y504164D01*
X1148276Y504100D01*
X1148254Y504038D01*
X1148200Y503794D01*
X1148140Y503550D01*
X1148133Y503485D01*
X1148118Y503421D01*
X1148096Y503171D01*
X1148067Y502923D01*
X1148068Y502857D01*
X1148062Y502792D01*
X1148071Y502541D01*
X1148074Y502290D01*
X1148083Y502225D01*
X1148085Y502160D01*
X1148126Y501913D01*
X1148160Y501664D01*
X1148177Y501601D01*
X1148188Y501536D01*
X1148260Y501295D01*
X1148325Y501054D01*
X1148350Y500994D01*
X1148369Y500930D01*
X1148470Y500701D01*
X1148566Y500470D01*
X1148598Y500412D01*
X1148625Y500352D01*
X1148754Y500138D01*
X1148878Y499920D01*
X1148917Y499867D01*
X1148951Y499811D01*
X1149107Y499615D01*
X1149257Y499414D01*
X1149303Y499367D01*
X1149344Y499316D01*
X1149523Y499140D01*
X1149697Y498960D01*
X1149748Y498919D01*
X1149795Y498873D01*
X1149995Y498722D01*
X1150191Y498566D01*
X1150247Y498531D01*
X1150299Y498492D01*
X1150516Y498367D01*
X1150730Y498236D01*
X1150790Y498209D01*
X1150847Y498177D01*
X1151078Y498081D01*
X1151307Y497978D01*
X1151370Y497959D01*
X1151431Y497934D01*
X1151672Y497867D01*
X1151912Y497794D01*
X1151977Y497783D01*
X1152040Y497766D01*
X1152288Y497730D01*
X1152535Y497688D01*
X1152609Y497684D01*
X1152666Y497676D01*
X1152805Y497674D01*
X1153059Y497661D01*
X1212704Y497661D01*
X1212954Y497677D01*
X1213205Y497686D01*
X1213270Y497697D01*
X1213335Y497701D01*
X1213581Y497748D01*
X1213828Y497789D01*
X1213891Y497808D01*
X1213956Y497820D01*
X1214194Y497898D01*
X1214434Y497970D01*
X1214494Y497996D01*
X1214557Y498017D01*
X1214783Y498124D01*
X1215012Y498225D01*
X1215068Y498259D01*
X1215128Y498287D01*
X1215339Y498422D01*
X1215553Y498552D01*
X1215605Y498593D01*
X1215660Y498628D01*
X1215852Y498789D01*
X1216049Y498944D01*
X1216095Y498991D01*
X1216145Y499033D01*
X1216316Y499217D01*
X1216491Y499396D01*
X1216531Y499448D01*
X1216575Y499497D01*
X1216721Y499700D01*
X1216872Y499900D01*
X1216905Y499957D01*
X1216944Y500010D01*
X1217063Y500231D01*
X1217187Y500448D01*
X1217213Y500509D01*
X1217244Y500566D01*
X1217334Y500801D01*
X1217431Y501031D01*
X1217448Y501094D01*
X1217472Y501156D01*
X1217532Y501399D01*
X1217598Y501641D01*
X1217608Y501706D01*
X1217624Y501770D01*
X1217652Y502018D01*
X1217688Y502266D01*
X1217689Y502332D01*
X1217697Y502397D01*
X1217694Y502647D01*
X1217698Y502898D01*
X1217691Y502964D01*
X1217690Y503030D01*
X1217656Y503277D01*
X1217628Y503527D01*
X1217612Y503591D01*
X1217603Y503656D01*
X1217538Y503897D01*
X1217479Y504141D01*
X1217456Y504203D01*
X1217439Y504266D01*
X1217343Y504497D01*
X1217254Y504732D01*
X1217223Y504790D01*
X1217198Y504850D01*
X1217074Y505068D01*
X1216956Y505289D01*
X1216918Y505343D01*
X1216886Y505400D01*
X1216735Y505601D01*
X1216590Y505805D01*
X1216541Y505859D01*
X1216507Y505906D01*
X1216409Y506006D01*
X1216239Y506195D01*
X1214984Y507450D01*
X1213519Y510986D01*
X1213519Y514814D01*
X1214984Y518350D01*
X1217690Y521056D01*
X1221226Y522521D01*
X1225054Y522521D01*
X1228590Y521056D01*
X1231296Y518350D01*
X1232761Y514814D01*
X1232761Y510986D01*
X1231296Y507450D01*
X1230041Y506195D01*
X1229875Y506007D01*
X1229705Y505823D01*
X1229666Y505770D01*
X1229623Y505721D01*
X1229482Y505513D01*
X1229336Y505310D01*
X1229305Y505252D01*
X1229268Y505197D01*
X1229155Y504974D01*
X1229036Y504754D01*
X1229012Y504692D01*
X1228983Y504634D01*
X1228899Y504398D01*
X1228808Y504164D01*
X1228792Y504100D01*
X1228770Y504038D01*
X1228717Y503793D01*
X1228656Y503550D01*
X1228649Y503485D01*
X1228635Y503421D01*
X1228612Y503171D01*
X1228583Y502923D01*
X1228584Y502857D01*
X1228578Y502791D01*
X1228588Y502540D01*
X1228590Y502290D01*
X1228599Y502225D01*
X1228602Y502160D01*
X1228642Y501912D01*
X1228677Y501664D01*
X1228694Y501601D01*
X1228705Y501536D01*
X1228776Y501296D01*
X1228841Y501054D01*
X1228866Y500993D01*
X1228885Y500930D01*
X1228987Y500701D01*
X1229082Y500470D01*
X1229114Y500412D01*
X1229141Y500352D01*
X1229271Y500138D01*
X1229394Y499920D01*
X1229434Y499867D01*
X1229468Y499811D01*
X1229623Y499615D01*
X1229773Y499414D01*
X1229819Y499367D01*
X1229860Y499316D01*
X1230039Y499140D01*
X1230213Y498960D01*
X1230265Y498919D01*
X1230312Y498873D01*
X1230511Y498722D01*
X1230707Y498566D01*
X1230763Y498531D01*
X1230816Y498492D01*
X1231033Y498367D01*
X1231247Y498236D01*
X1231307Y498209D01*
X1231364Y498177D01*
X1231595Y498080D01*
X1231823Y497978D01*
X1231886Y497959D01*
X1231947Y497933D01*
X1232189Y497867D01*
X1232428Y497794D01*
X1232493Y497783D01*
X1232556Y497766D01*
X1232804Y497730D01*
X1233051Y497688D01*
X1233125Y497684D01*
X1233182Y497676D01*
X1233322Y497674D01*
X1233576Y497661D01*
X1416538Y497661D01*
X1427140Y495241D01*
X1436939Y490522D01*
X1445441Y483741D01*
X1452222Y475239D01*
X1456941Y465440D01*
X1459361Y454838D01*
X1459361Y215362D01*
X1456941Y204760D01*
X1452222Y194961D01*
X1445441Y186459D01*
X1436939Y179678D01*
X1427140Y174959D01*
X1416538Y172539D01*
X1195973Y172539D01*
X1195680Y172521D01*
X1195386Y172505D01*
X1195364Y172501D01*
X1195342Y172499D01*
X1195053Y172444D01*
X1194764Y172391D01*
X1194743Y172384D01*
X1194722Y172380D01*
X1194441Y172288D01*
X1194162Y172199D01*
X1194142Y172190D01*
X1194121Y172183D01*
X1193854Y172057D01*
X1193588Y171934D01*
X1193570Y171922D01*
X1193550Y171913D01*
X1193301Y171754D01*
X1193053Y171598D01*
X1193036Y171584D01*
X1193017Y171572D01*
X1192792Y171384D01*
X1192564Y171197D01*
X1192549Y171181D01*
X1192532Y171167D01*
X1192333Y170952D01*
X1192130Y170737D01*
X1192117Y170719D01*
X1192102Y170703D01*
X1191932Y170466D01*
X1191757Y170227D01*
X1191747Y170207D01*
X1191734Y170190D01*
X1191595Y169932D01*
X1191452Y169673D01*
X1191444Y169653D01*
X1191433Y169634D01*
X1191328Y169360D01*
X1191219Y169086D01*
X1191213Y169064D01*
X1191205Y169044D01*
X1191135Y168759D01*
X1191062Y168473D01*
X1191059Y168452D01*
X1191054Y168430D01*
X1191020Y168139D01*
X1190983Y167846D01*
X1190983Y167824D01*
X1190981Y167803D01*
X1190984Y167511D01*
X1190985Y167214D01*
X1190987Y167192D01*
X1190988Y167170D01*
X1191028Y166880D01*
X1191066Y166587D01*
X1191071Y166566D01*
X1191074Y166544D01*
X1191151Y166260D01*
X1191225Y165976D01*
X1191233Y165955D01*
X1191239Y165934D01*
X1191351Y165662D01*
X1191460Y165389D01*
X1191471Y165370D01*
X1191479Y165350D01*
X1191625Y165093D01*
X1191768Y164837D01*
X1191781Y164819D01*
X1191792Y164800D01*
X1191968Y164565D01*
X1192143Y164328D01*
X1192158Y164312D01*
X1192171Y164294D01*
X1192375Y164084D01*
X1192579Y163870D01*
X1192596Y163856D01*
X1192611Y163840D01*
X1192841Y163656D01*
X1193069Y163471D01*
X1193087Y163459D01*
X1193104Y163446D01*
X1193357Y163292D01*
X1193605Y163137D01*
X1193625Y163128D01*
X1193644Y163116D01*
X1193913Y162996D01*
X1194180Y162873D01*
X1194203Y162866D01*
X1194221Y162858D01*
X1194325Y162826D01*
X1194679Y162711D01*
X1199939Y161302D01*
X1210242Y155354D01*
X1218654Y146942D01*
X1224602Y136639D01*
X1227681Y125148D01*
X1227681Y113252D01*
X1224602Y101761D01*
X1218654Y91458D01*
X1210242Y83046D01*
X1199939Y77098D01*
X1188448Y74019D01*
X1176552Y74019D01*
X1165061Y77098D01*
X1154758Y83046D01*
X1146346Y91458D01*
X1140398Y101761D01*
X1137319Y113252D01*
X1137319Y125148D01*
X1140398Y136639D01*
X1146346Y146942D01*
X1154758Y155354D01*
X1165061Y161302D01*
X1170321Y162711D01*
X1170598Y162805D01*
X1170879Y162897D01*
X1170899Y162906D01*
X1170920Y162913D01*
X1171182Y163040D01*
X1171450Y163167D01*
X1171469Y163179D01*
X1171488Y163189D01*
X1171734Y163349D01*
X1171983Y163508D01*
X1171999Y163522D01*
X1172018Y163534D01*
X1172243Y163725D01*
X1172468Y163913D01*
X1172483Y163929D01*
X1172499Y163944D01*
X1172698Y164161D01*
X1172898Y164377D01*
X1172911Y164394D01*
X1172925Y164411D01*
X1173094Y164651D01*
X1173266Y164890D01*
X1173277Y164910D01*
X1173289Y164928D01*
X1173426Y165187D01*
X1173567Y165446D01*
X1173575Y165467D01*
X1173585Y165486D01*
X1173688Y165761D01*
X1173795Y166036D01*
X1173800Y166057D01*
X1173807Y166078D01*
X1173876Y166364D01*
X1173946Y166650D01*
X1173949Y166671D01*
X1173954Y166693D01*
X1173985Y166987D01*
X1174019Y167277D01*
X1174019Y167299D01*
X1174021Y167321D01*
X1174016Y167618D01*
X1174012Y167910D01*
X1174009Y167931D01*
X1174009Y167953D01*
X1173966Y168245D01*
X1173926Y168536D01*
X1173920Y168557D01*
X1173917Y168579D01*
X1173838Y168863D01*
X1173761Y169146D01*
X1173753Y169166D01*
X1173747Y169187D01*
X1173632Y169460D01*
X1173521Y169730D01*
X1173510Y169750D01*
X1173501Y169770D01*
X1173354Y170024D01*
X1173208Y170280D01*
X1173195Y170298D01*
X1173184Y170317D01*
X1173006Y170549D01*
X1172829Y170786D01*
X1172814Y170802D01*
X1172801Y170819D01*
X1172595Y171027D01*
X1172389Y171240D01*
X1172372Y171253D01*
X1172357Y171269D01*
X1172126Y171450D01*
X1171896Y171634D01*
X1171877Y171646D01*
X1171860Y171659D01*
X1171608Y171810D01*
X1171356Y171964D01*
X1171336Y171973D01*
X1171317Y171984D01*
X1171048Y172102D01*
X1170779Y172222D01*
X1170758Y172228D01*
X1170738Y172237D01*
X1170457Y172320D01*
X1170174Y172406D01*
X1170153Y172409D01*
X1170132Y172416D01*
X1169842Y172462D01*
X1169551Y172512D01*
X1169527Y172513D01*
X1169508Y172516D01*
X1169399Y172520D01*
X1169027Y172539D01*
X948462Y172539D01*
X937860Y174959D01*
X928061Y179678D01*
X922756Y183909D01*
X922629Y183997D01*
X922508Y184094D01*
X922370Y184178D01*
X922238Y184271D01*
X922101Y184343D01*
X921968Y184424D01*
X921821Y184490D01*
X921678Y184564D01*
X921533Y184619D01*
X921392Y184682D01*
X921237Y184729D01*
X921086Y184785D01*
X920935Y184821D01*
X920787Y184866D01*
X920628Y184893D01*
X920471Y184930D01*
X920317Y184946D01*
X920164Y184972D01*
X919969Y184982D01*
X919842Y184995D01*
X919755Y184993D01*
X919639Y184999D01*
X760000Y184999D01*
X759815Y184988D01*
X759630Y184986D01*
X759500Y184968D01*
X759369Y184959D01*
X759188Y184924D01*
X759004Y184899D01*
X758878Y184865D01*
X758748Y184840D01*
X758572Y184782D01*
X758394Y184734D01*
X758273Y184684D01*
X758148Y184643D01*
X757980Y184564D01*
X757810Y184494D01*
X757695Y184429D01*
X757577Y184373D01*
X757421Y184273D01*
X757260Y184182D01*
X757155Y184103D01*
X757044Y184032D01*
X756902Y183913D01*
X756754Y183802D01*
X756660Y183711D01*
X756559Y183627D01*
X756433Y183491D01*
X756300Y183362D01*
X756218Y183260D01*
X756129Y183163D01*
X756021Y183013D01*
X755906Y182869D01*
X755837Y182756D01*
X755761Y182650D01*
X755673Y182487D01*
X755576Y182329D01*
X755523Y182209D01*
X755460Y182094D01*
X755394Y181921D01*
X755318Y181752D01*
X755280Y181627D01*
X755232Y181504D01*
X755188Y181324D01*
X755134Y181147D01*
X755112Y181018D01*
X755081Y180890D01*
X755059Y180707D01*
X755028Y180524D01*
X755020Y180371D01*
X755008Y180263D01*
X755009Y180154D01*
X755001Y180000D01*
X755001Y15160D01*
X755012Y14975D01*
X755014Y14790D01*
X755032Y14660D01*
X755041Y14529D01*
X755076Y14348D01*
X755101Y14164D01*
X755135Y14038D01*
X755160Y13908D01*
X755218Y13732D01*
X755266Y13554D01*
X755316Y13433D01*
X755357Y13308D01*
X755436Y13140D01*
X755506Y12970D01*
X755571Y12855D01*
X755627Y12737D01*
X755727Y12581D01*
X755818Y12420D01*
X755897Y12315D01*
X755968Y12204D01*
X756087Y12062D01*
X756198Y11914D01*
X756289Y11820D01*
X756373Y11719D01*
X756509Y11593D01*
X756638Y11460D01*
X756740Y11378D01*
X756837Y11289D01*
X756987Y11181D01*
X757131Y11066D01*
X757244Y10997D01*
X757350Y10921D01*
X757513Y10833D01*
X757671Y10736D01*
X757791Y10683D01*
X757906Y10620D01*
X758079Y10554D01*
X758248Y10478D01*
X758373Y10440D01*
X758496Y10392D01*
X758676Y10348D01*
X758853Y10294D01*
X758982Y10272D01*
X759110Y10241D01*
X759293Y10219D01*
X759476Y10188D01*
X759629Y10180D01*
X759737Y10168D01*
X759846Y10169D01*
X760000Y10161D01*
X1690000Y10161D01*
X1690129Y10169D01*
G37*
G36*
X321514Y10161D02*
X321514Y10161D01*
X321519Y10161D01*
X321872Y10181D01*
X322221Y10201D01*
X322226Y10201D01*
X322230Y10202D01*
X322581Y10262D01*
X322924Y10320D01*
X322928Y10321D01*
X322932Y10322D01*
X323284Y10424D01*
X323608Y10517D01*
X323612Y10519D01*
X323616Y10520D01*
X323942Y10656D01*
X324266Y10790D01*
X324270Y10792D01*
X324274Y10794D01*
X324581Y10964D01*
X324890Y11135D01*
X324893Y11137D01*
X324897Y11140D01*
X325196Y11352D01*
X325471Y11547D01*
X325474Y11550D01*
X325477Y11553D01*
X326000Y12020D01*
X442630Y128651D01*
X615000Y128651D01*
X615004Y128651D01*
X615009Y128651D01*
X615362Y128671D01*
X615711Y128691D01*
X615716Y128691D01*
X615720Y128692D01*
X616071Y128752D01*
X616414Y128810D01*
X616418Y128811D01*
X616422Y128812D01*
X616774Y128914D01*
X617098Y129007D01*
X617102Y129009D01*
X617106Y129010D01*
X617432Y129146D01*
X617756Y129280D01*
X617760Y129282D01*
X617764Y129284D01*
X618071Y129454D01*
X618380Y129625D01*
X618383Y129627D01*
X618387Y129630D01*
X618686Y129842D01*
X618961Y130038D01*
X618964Y130040D01*
X618967Y130043D01*
X619490Y130510D01*
X854490Y365510D01*
X854492Y365514D01*
X854496Y365516D01*
X854730Y365779D01*
X854964Y366042D01*
X854967Y366045D01*
X854970Y366048D01*
X855171Y366333D01*
X855377Y366623D01*
X855379Y366626D01*
X855381Y366630D01*
X855552Y366940D01*
X855721Y367246D01*
X855723Y367250D01*
X855725Y367254D01*
X855856Y367572D01*
X855994Y367905D01*
X855995Y367909D01*
X855996Y367913D01*
X856093Y368251D01*
X856191Y368589D01*
X856191Y368593D01*
X856192Y368598D01*
X856252Y368954D01*
X856310Y369292D01*
X856310Y369296D01*
X856311Y369300D01*
X856349Y370000D01*
X856349Y485000D01*
X856349Y485003D01*
X856349Y485006D01*
X856329Y485353D01*
X856309Y485711D01*
X856309Y485714D01*
X856309Y485717D01*
X856251Y486054D01*
X856190Y486414D01*
X856189Y486416D01*
X856189Y486419D01*
X856090Y486760D01*
X855993Y487098D01*
X855991Y487101D01*
X855991Y487104D01*
X855858Y487422D01*
X855720Y487756D01*
X855718Y487759D01*
X855717Y487761D01*
X855550Y488064D01*
X855375Y488380D01*
X855373Y488382D01*
X855372Y488385D01*
X855161Y488682D01*
X854963Y488961D01*
X854961Y488963D01*
X854959Y488965D01*
X854728Y489223D01*
X854488Y489492D01*
X854485Y489494D01*
X854484Y489496D01*
X854216Y489734D01*
X853956Y489966D01*
X853954Y489968D01*
X853952Y489970D01*
X853671Y490168D01*
X853375Y490378D01*
X853372Y490380D01*
X853370Y490381D01*
X853074Y490544D01*
X852751Y490722D01*
X852748Y490723D01*
X852746Y490725D01*
X852428Y490856D01*
X852093Y490994D01*
X852090Y490995D01*
X852087Y490996D01*
X851758Y491091D01*
X851408Y491191D01*
X851405Y491192D01*
X851403Y491192D01*
X851049Y491252D01*
X850706Y491310D01*
X850703Y491310D01*
X850700Y491311D01*
X850000Y491349D01*
X842886Y491349D01*
X842704Y491339D01*
X842522Y491339D01*
X842349Y491319D01*
X842174Y491309D01*
X841995Y491279D01*
X841814Y491258D01*
X841644Y491219D01*
X841472Y491190D01*
X841297Y491140D01*
X841120Y491099D01*
X840955Y491041D01*
X840787Y490993D01*
X840619Y490923D01*
X840448Y490863D01*
X840291Y490787D01*
X840129Y490720D01*
X839970Y490632D01*
X839807Y490553D01*
X839658Y490459D01*
X839506Y490375D01*
X839358Y490270D01*
X839204Y490173D01*
X839067Y490063D01*
X838925Y489963D01*
X838790Y489842D01*
X838648Y489728D01*
X838524Y489604D01*
X838394Y489488D01*
X838273Y489352D01*
X838145Y489223D01*
X838036Y489086D01*
X837920Y488956D01*
X837814Y488808D01*
X837701Y488665D01*
X837609Y488517D01*
X837508Y488375D01*
X837420Y488215D01*
X837323Y488062D01*
X837247Y487902D01*
X837163Y487751D01*
X837097Y487591D01*
X837020Y487430D01*
X836760Y486803D01*
X831697Y481740D01*
X825081Y478999D01*
X796919Y478999D01*
X792430Y480859D01*
X792426Y480860D01*
X792422Y480862D01*
X792088Y480979D01*
X791757Y481094D01*
X791753Y481095D01*
X791749Y481097D01*
X791405Y481175D01*
X791063Y481253D01*
X791058Y481253D01*
X791054Y481254D01*
X790705Y481293D01*
X790355Y481332D01*
X790350Y481332D01*
X790346Y481333D01*
X789988Y481332D01*
X789642Y481332D01*
X789638Y481332D01*
X789634Y481332D01*
X789272Y481290D01*
X788934Y481252D01*
X788930Y481251D01*
X788926Y481251D01*
X788586Y481173D01*
X788240Y481093D01*
X788236Y481092D01*
X788232Y481091D01*
X787570Y480859D01*
X787568Y480858D01*
X787567Y480858D01*
X783081Y478999D01*
X754919Y478999D01*
X748303Y481740D01*
X743240Y486803D01*
X742980Y487430D01*
X742901Y487594D01*
X742832Y487761D01*
X742747Y487914D01*
X742671Y488072D01*
X742574Y488226D01*
X742486Y488385D01*
X742385Y488527D01*
X742292Y488675D01*
X742179Y488817D01*
X742073Y488965D01*
X741957Y489095D01*
X741848Y489232D01*
X741719Y489360D01*
X741598Y489496D01*
X741468Y489612D01*
X741344Y489735D01*
X741202Y489849D01*
X741066Y489970D01*
X740924Y490070D01*
X740787Y490179D01*
X740633Y490276D01*
X740484Y490381D01*
X740331Y490465D01*
X740183Y490558D01*
X740019Y490637D01*
X739860Y490725D01*
X739699Y490791D01*
X739541Y490867D01*
X739370Y490927D01*
X739202Y490996D01*
X739034Y491044D01*
X738869Y491102D01*
X738691Y491142D01*
X738517Y491192D01*
X738345Y491221D01*
X738174Y491260D01*
X737994Y491280D01*
X737814Y491311D01*
X737637Y491320D01*
X737466Y491340D01*
X737293Y491339D01*
X737114Y491349D01*
X710000Y491349D01*
X709997Y491349D01*
X709994Y491349D01*
X709647Y491329D01*
X709289Y491309D01*
X709286Y491309D01*
X709283Y491309D01*
X708943Y491250D01*
X708586Y491190D01*
X708584Y491189D01*
X708581Y491189D01*
X708236Y491089D01*
X707902Y490993D01*
X707899Y490991D01*
X707896Y490991D01*
X707572Y490856D01*
X707244Y490720D01*
X707241Y490718D01*
X707239Y490717D01*
X706927Y490545D01*
X706620Y490375D01*
X706618Y490373D01*
X706615Y490372D01*
X706318Y490161D01*
X706039Y489963D01*
X706037Y489961D01*
X706035Y489959D01*
X705767Y489719D01*
X705508Y489488D01*
X705507Y489485D01*
X705504Y489484D01*
X705266Y489216D01*
X705034Y488956D01*
X705032Y488954D01*
X705030Y488952D01*
X704828Y488665D01*
X704622Y488375D01*
X704621Y488372D01*
X704619Y488370D01*
X704449Y488062D01*
X704278Y487751D01*
X704277Y487748D01*
X704275Y487746D01*
X704142Y487422D01*
X704006Y487093D01*
X704005Y487090D01*
X704004Y487087D01*
X703910Y486758D01*
X703809Y486408D01*
X703808Y486405D01*
X703808Y486403D01*
X703748Y486049D01*
X703690Y485706D01*
X703690Y485703D01*
X703689Y485700D01*
X703651Y485000D01*
X703651Y377630D01*
X622640Y296620D01*
X622638Y296616D01*
X622634Y296614D01*
X622400Y296351D01*
X622166Y296088D01*
X622163Y296085D01*
X622160Y296082D01*
X621959Y295797D01*
X621753Y295507D01*
X621751Y295504D01*
X621749Y295500D01*
X621578Y295190D01*
X621409Y294884D01*
X621407Y294880D01*
X621405Y294876D01*
X621271Y294551D01*
X621136Y294225D01*
X621135Y294221D01*
X621134Y294217D01*
X621037Y293879D01*
X620939Y293541D01*
X620939Y293537D01*
X620938Y293532D01*
X620878Y293176D01*
X620820Y292838D01*
X620820Y292834D01*
X620819Y292830D01*
X620781Y292130D01*
X620781Y276639D01*
X618040Y270023D01*
X612977Y264960D01*
X606361Y262219D01*
X563639Y262219D01*
X557023Y264960D01*
X552494Y269490D01*
X552490Y269493D01*
X552487Y269496D01*
X552224Y269731D01*
X551962Y269964D01*
X551959Y269967D01*
X551956Y269970D01*
X551669Y270173D01*
X551381Y270377D01*
X551377Y270379D01*
X551374Y270381D01*
X551073Y270547D01*
X550758Y270721D01*
X550754Y270723D01*
X550750Y270725D01*
X550433Y270855D01*
X550099Y270994D01*
X550095Y270995D01*
X550091Y270996D01*
X549759Y271091D01*
X549415Y271191D01*
X549411Y271191D01*
X549406Y271192D01*
X549052Y271252D01*
X548712Y271310D01*
X548708Y271310D01*
X548704Y271311D01*
X548004Y271349D01*
X331996Y271349D01*
X331992Y271349D01*
X331987Y271349D01*
X331634Y271329D01*
X331285Y271309D01*
X331281Y271309D01*
X331276Y271308D01*
X330922Y271248D01*
X330582Y271190D01*
X330578Y271189D01*
X330574Y271188D01*
X330230Y271088D01*
X329898Y270993D01*
X329894Y270991D01*
X329890Y270990D01*
X329570Y270856D01*
X329240Y270720D01*
X329236Y270718D01*
X329232Y270716D01*
X328920Y270543D01*
X328616Y270375D01*
X328613Y270373D01*
X328609Y270370D01*
X328310Y270158D01*
X328035Y269963D01*
X328032Y269960D01*
X328029Y269957D01*
X327506Y269490D01*
X322977Y264960D01*
X316361Y262219D01*
X273639Y262219D01*
X267023Y264960D01*
X262494Y269490D01*
X262490Y269493D01*
X262487Y269496D01*
X262224Y269731D01*
X261962Y269964D01*
X261959Y269967D01*
X261956Y269970D01*
X261669Y270173D01*
X261381Y270377D01*
X261377Y270379D01*
X261374Y270381D01*
X261073Y270547D01*
X260758Y270721D01*
X260754Y270723D01*
X260750Y270725D01*
X260433Y270855D01*
X260099Y270994D01*
X260095Y270995D01*
X260091Y270996D01*
X259759Y271091D01*
X259415Y271191D01*
X259411Y271191D01*
X259406Y271192D01*
X259052Y271252D01*
X258712Y271310D01*
X258708Y271310D01*
X258704Y271311D01*
X258004Y271349D01*
X16510Y271349D01*
X16507Y271349D01*
X16504Y271349D01*
X16157Y271329D01*
X15799Y271309D01*
X15796Y271309D01*
X15793Y271309D01*
X15453Y271250D01*
X15096Y271190D01*
X15094Y271189D01*
X15091Y271189D01*
X14746Y271089D01*
X14412Y270993D01*
X14409Y270991D01*
X14406Y270991D01*
X14082Y270856D01*
X13754Y270720D01*
X13751Y270718D01*
X13749Y270717D01*
X13437Y270545D01*
X13130Y270375D01*
X13128Y270373D01*
X13125Y270372D01*
X12828Y270161D01*
X12549Y269963D01*
X12547Y269961D01*
X12545Y269959D01*
X12277Y269719D01*
X12018Y269488D01*
X12016Y269485D01*
X12014Y269484D01*
X11776Y269216D01*
X11544Y268956D01*
X11542Y268954D01*
X11540Y268952D01*
X11342Y268671D01*
X11132Y268375D01*
X11130Y268372D01*
X11129Y268370D01*
X10966Y268074D01*
X10788Y267751D01*
X10787Y267748D01*
X10785Y267746D01*
X10654Y267428D01*
X10516Y267093D01*
X10515Y267090D01*
X10514Y267087D01*
X10419Y266758D01*
X10319Y266408D01*
X10318Y266405D01*
X10318Y266403D01*
X10258Y266049D01*
X10200Y265706D01*
X10200Y265703D01*
X10199Y265700D01*
X10161Y265000D01*
X10161Y202290D01*
X10161Y202287D01*
X10161Y202284D01*
X10181Y201926D01*
X10201Y201579D01*
X10201Y201576D01*
X10201Y201573D01*
X10260Y201233D01*
X10320Y200876D01*
X10321Y200874D01*
X10321Y200871D01*
X10421Y200525D01*
X10517Y200192D01*
X10519Y200189D01*
X10519Y200186D01*
X10655Y199860D01*
X10790Y199534D01*
X10792Y199531D01*
X10793Y199529D01*
X10971Y199207D01*
X11135Y198910D01*
X11137Y198908D01*
X11138Y198905D01*
X11349Y198608D01*
X11547Y198329D01*
X11549Y198327D01*
X11551Y198325D01*
X11800Y198047D01*
X12022Y197798D01*
X12025Y197796D01*
X12026Y197794D01*
X12299Y197552D01*
X12554Y197324D01*
X12556Y197322D01*
X12558Y197320D01*
X12845Y197117D01*
X13135Y196912D01*
X13138Y196910D01*
X13140Y196909D01*
X13436Y196746D01*
X13759Y196568D01*
X13762Y196567D01*
X13764Y196565D01*
X14082Y196434D01*
X14417Y196296D01*
X14420Y196295D01*
X14423Y196294D01*
X14752Y196199D01*
X15102Y196099D01*
X15105Y196098D01*
X15107Y196098D01*
X15461Y196038D01*
X15804Y195980D01*
X15807Y195980D01*
X15810Y195979D01*
X16510Y195941D01*
X19651Y195941D01*
X19651Y182900D01*
X19651Y169859D01*
X16510Y169859D01*
X16507Y169859D01*
X16504Y169859D01*
X16157Y169839D01*
X15799Y169819D01*
X15796Y169819D01*
X15793Y169819D01*
X15453Y169760D01*
X15096Y169700D01*
X15094Y169699D01*
X15091Y169699D01*
X14746Y169599D01*
X14412Y169503D01*
X14409Y169501D01*
X14406Y169501D01*
X14082Y169366D01*
X13754Y169230D01*
X13751Y169228D01*
X13749Y169227D01*
X13428Y169050D01*
X13130Y168885D01*
X13128Y168883D01*
X13125Y168882D01*
X12828Y168671D01*
X12549Y168473D01*
X12547Y168471D01*
X12545Y168469D01*
X12277Y168229D01*
X12018Y167998D01*
X12016Y167995D01*
X12014Y167994D01*
X11776Y167726D01*
X11544Y167466D01*
X11542Y167464D01*
X11540Y167462D01*
X11342Y167181D01*
X11132Y166885D01*
X11130Y166882D01*
X11129Y166880D01*
X10965Y166582D01*
X10788Y166261D01*
X10787Y166258D01*
X10785Y166256D01*
X10650Y165927D01*
X10516Y165603D01*
X10515Y165600D01*
X10514Y165597D01*
X10417Y165259D01*
X10319Y164918D01*
X10318Y164915D01*
X10318Y164913D01*
X10258Y164559D01*
X10200Y164216D01*
X10200Y164213D01*
X10199Y164210D01*
X10161Y163510D01*
X10161Y147290D01*
X10161Y147287D01*
X10161Y147284D01*
X10181Y146926D01*
X10201Y146579D01*
X10201Y146576D01*
X10201Y146573D01*
X10261Y146224D01*
X10320Y145876D01*
X10321Y145874D01*
X10321Y145871D01*
X10421Y145525D01*
X10517Y145192D01*
X10519Y145189D01*
X10519Y145186D01*
X10656Y144858D01*
X10790Y144534D01*
X10792Y144531D01*
X10793Y144529D01*
X10971Y144207D01*
X11135Y143910D01*
X11137Y143908D01*
X11138Y143905D01*
X11349Y143608D01*
X11547Y143329D01*
X11549Y143327D01*
X11551Y143325D01*
X11800Y143047D01*
X12022Y142798D01*
X12025Y142796D01*
X12026Y142794D01*
X12299Y142552D01*
X12554Y142324D01*
X12556Y142322D01*
X12558Y142320D01*
X12848Y142115D01*
X13135Y141912D01*
X13138Y141910D01*
X13140Y141909D01*
X13436Y141746D01*
X13759Y141568D01*
X13762Y141567D01*
X13764Y141565D01*
X14082Y141434D01*
X14417Y141296D01*
X14420Y141295D01*
X14423Y141294D01*
X14752Y141199D01*
X15102Y141099D01*
X15105Y141098D01*
X15107Y141098D01*
X15461Y141038D01*
X15804Y140980D01*
X15807Y140980D01*
X15810Y140979D01*
X16510Y140941D01*
X19651Y140941D01*
X19651Y127900D01*
X19651Y114859D01*
X16510Y114859D01*
X16507Y114859D01*
X16504Y114859D01*
X16157Y114839D01*
X15799Y114819D01*
X15796Y114819D01*
X15793Y114819D01*
X15453Y114760D01*
X15096Y114700D01*
X15094Y114699D01*
X15091Y114699D01*
X14746Y114599D01*
X14412Y114503D01*
X14409Y114501D01*
X14406Y114501D01*
X14082Y114366D01*
X13754Y114230D01*
X13751Y114228D01*
X13749Y114227D01*
X13437Y114055D01*
X13130Y113885D01*
X13128Y113883D01*
X13125Y113882D01*
X12828Y113671D01*
X12549Y113473D01*
X12547Y113471D01*
X12545Y113469D01*
X12277Y113229D01*
X12018Y112998D01*
X12016Y112995D01*
X12014Y112994D01*
X11768Y112717D01*
X11544Y112466D01*
X11542Y112464D01*
X11540Y112462D01*
X11340Y112178D01*
X11132Y111885D01*
X11130Y111882D01*
X11129Y111880D01*
X10965Y111582D01*
X10788Y111261D01*
X10787Y111258D01*
X10785Y111256D01*
X10654Y110938D01*
X10516Y110603D01*
X10515Y110600D01*
X10514Y110597D01*
X10419Y110265D01*
X10319Y109918D01*
X10318Y109915D01*
X10318Y109913D01*
X10258Y109559D01*
X10200Y109216D01*
X10200Y109213D01*
X10199Y109210D01*
X10161Y108510D01*
X10161Y84979D01*
X10168Y84858D01*
X10165Y84736D01*
X10188Y84502D01*
X10201Y84267D01*
X10221Y84148D01*
X10232Y84027D01*
X10281Y83797D01*
X10320Y83565D01*
X10354Y83449D01*
X10379Y83330D01*
X10452Y83106D01*
X10517Y82880D01*
X10564Y82769D01*
X10602Y82653D01*
X10700Y82440D01*
X10790Y82222D01*
X10849Y82116D01*
X10900Y82006D01*
X11021Y81804D01*
X11135Y81599D01*
X11205Y81500D01*
X11268Y81396D01*
X11411Y81210D01*
X11547Y81018D01*
X11628Y80928D01*
X11702Y80832D01*
X11866Y80662D01*
X12022Y80487D01*
X12113Y80406D01*
X12197Y80319D01*
X12379Y80169D01*
X12554Y80013D01*
X12653Y79942D01*
X12746Y79865D01*
X12943Y79737D01*
X13135Y79601D01*
X13242Y79542D01*
X13343Y79476D01*
X13553Y79370D01*
X13759Y79256D01*
X13871Y79210D01*
X13979Y79156D01*
X14200Y79074D01*
X14417Y78984D01*
X14534Y78951D01*
X14648Y78909D01*
X14876Y78853D01*
X15102Y78788D01*
X15222Y78767D01*
X15339Y78738D01*
X15572Y78708D01*
X15804Y78669D01*
X15925Y78662D01*
X16046Y78646D01*
X16281Y78642D01*
X16516Y78629D01*
X16637Y78636D01*
X16758Y78634D01*
X16993Y78657D01*
X17227Y78670D01*
X17346Y78690D01*
X17467Y78702D01*
X17704Y78752D01*
X17929Y78790D01*
X18039Y78822D01*
X18153Y78846D01*
X22688Y80061D01*
X29312Y80061D01*
X35712Y78346D01*
X41449Y75034D01*
X46134Y70349D01*
X49446Y64612D01*
X51161Y58212D01*
X51161Y51588D01*
X49446Y45188D01*
X46134Y39451D01*
X41449Y34766D01*
X35712Y31454D01*
X29312Y29739D01*
X22688Y29739D01*
X19379Y30626D01*
X19378Y30626D01*
X19376Y30626D01*
X19045Y30696D01*
X18682Y30771D01*
X18680Y30771D01*
X18679Y30772D01*
X18364Y30801D01*
X17972Y30838D01*
X17971Y30838D01*
X17970Y30838D01*
X17632Y30831D01*
X17260Y30824D01*
X17259Y30824D01*
X17257Y30824D01*
X16904Y30777D01*
X16554Y30731D01*
X16553Y30731D01*
X16551Y30731D01*
X16199Y30643D01*
X15862Y30559D01*
X15861Y30559D01*
X15860Y30559D01*
X15529Y30436D01*
X15195Y30311D01*
X15193Y30311D01*
X15192Y30310D01*
X14881Y30153D01*
X14559Y29990D01*
X14558Y29989D01*
X14556Y29989D01*
X14276Y29805D01*
X13963Y29599D01*
X13962Y29599D01*
X13961Y29598D01*
X13706Y29386D01*
X13415Y29145D01*
X13414Y29144D01*
X13413Y29143D01*
X13166Y28886D01*
X12921Y28631D01*
X12920Y28630D01*
X12919Y28629D01*
X12704Y28348D01*
X12487Y28066D01*
X12487Y28064D01*
X12486Y28063D01*
X12310Y27770D01*
X12120Y27455D01*
X12120Y27454D01*
X12119Y27453D01*
X11960Y27105D01*
X11824Y26808D01*
X11823Y26806D01*
X11823Y26805D01*
X11702Y26437D01*
X11602Y26131D01*
X11601Y26129D01*
X11601Y26128D01*
X11529Y25780D01*
X11457Y25433D01*
X11456Y25431D01*
X11456Y25430D01*
X11423Y25070D01*
X11391Y24724D01*
X11391Y24722D01*
X11391Y24721D01*
X11399Y24312D01*
X11405Y24011D01*
X11405Y24010D01*
X11405Y24009D01*
X11454Y23640D01*
X11499Y23305D01*
X11499Y23304D01*
X11499Y23302D01*
X11600Y22899D01*
X11671Y22614D01*
X11671Y22613D01*
X11672Y22611D01*
X11809Y22244D01*
X11920Y21946D01*
X11920Y21945D01*
X11921Y21944D01*
X12237Y21318D01*
X13799Y18613D01*
X13867Y18509D01*
X13927Y18401D01*
X14062Y18212D01*
X14189Y18017D01*
X14269Y17922D01*
X14340Y17820D01*
X14499Y17643D01*
X14644Y17469D01*
X14728Y17387D01*
X14808Y17298D01*
X17298Y14808D01*
X17299Y14807D01*
X17300Y14806D01*
X17392Y14724D01*
X17477Y14636D01*
X17657Y14488D01*
X17829Y14333D01*
X17830Y14333D01*
X17832Y14332D01*
X17932Y14261D01*
X18026Y14182D01*
X18226Y14052D01*
X18410Y13921D01*
X18411Y13921D01*
X18413Y13920D01*
X18514Y13864D01*
X18613Y13799D01*
X21663Y12038D01*
X21774Y11982D01*
X21880Y11918D01*
X22091Y11822D01*
X22299Y11717D01*
X22415Y11674D01*
X22528Y11622D01*
X22754Y11548D01*
X22967Y11469D01*
X23080Y11441D01*
X23194Y11404D01*
X26596Y10492D01*
X26863Y10437D01*
X27128Y10374D01*
X27212Y10364D01*
X27293Y10347D01*
X27550Y10323D01*
X27824Y10290D01*
X29585Y10174D01*
X29788Y10172D01*
X30000Y10161D01*
X321510Y10161D01*
X321514Y10161D01*
G37*
%LPC*%
G36*
X95919Y99399D02*
X95919Y99399D01*
X89303Y102140D01*
X84240Y107203D01*
X82692Y110940D01*
X82613Y111104D01*
X82543Y111271D01*
X82459Y111424D01*
X82383Y111582D01*
X82286Y111736D01*
X82198Y111895D01*
X82097Y112037D01*
X82004Y112185D01*
X81890Y112327D01*
X81785Y112475D01*
X81669Y112605D01*
X81560Y112742D01*
X81431Y112870D01*
X81310Y113006D01*
X81179Y113122D01*
X81056Y113245D01*
X80914Y113359D01*
X80778Y113480D01*
X80635Y113580D01*
X80499Y113689D01*
X80344Y113786D01*
X80196Y113891D01*
X80043Y113975D01*
X79895Y114068D01*
X79731Y114147D01*
X79572Y114235D01*
X79411Y114301D01*
X79253Y114377D01*
X79081Y114437D01*
X78914Y114506D01*
X78746Y114554D01*
X78581Y114612D01*
X78403Y114652D01*
X78229Y114702D01*
X78056Y114731D01*
X77886Y114770D01*
X77705Y114790D01*
X77526Y114821D01*
X77349Y114830D01*
X77178Y114850D01*
X77005Y114849D01*
X76826Y114859D01*
X74349Y114859D01*
X74349Y127900D01*
X74349Y140941D01*
X76826Y140941D01*
X77008Y140951D01*
X77189Y140951D01*
X77363Y140971D01*
X77537Y140981D01*
X77716Y141011D01*
X77897Y141032D01*
X78068Y141071D01*
X78240Y141100D01*
X78414Y141150D01*
X78592Y141191D01*
X78757Y141249D01*
X78924Y141297D01*
X79092Y141367D01*
X79264Y141427D01*
X79421Y141503D01*
X79582Y141570D01*
X79742Y141658D01*
X79905Y141737D01*
X80053Y141831D01*
X80206Y141915D01*
X80354Y142020D01*
X80508Y142117D01*
X80645Y142227D01*
X80787Y142327D01*
X80922Y142448D01*
X81064Y142562D01*
X81188Y142686D01*
X81318Y142802D01*
X81439Y142938D01*
X81567Y143067D01*
X81676Y143203D01*
X81792Y143334D01*
X81897Y143482D01*
X82010Y143625D01*
X82103Y143772D01*
X82204Y143915D01*
X82292Y144074D01*
X82388Y144228D01*
X82465Y144388D01*
X82548Y144539D01*
X82615Y144699D01*
X82692Y144860D01*
X84240Y148597D01*
X86553Y150910D01*
X86555Y150912D01*
X86558Y150914D01*
X86796Y151182D01*
X87028Y151442D01*
X87030Y151444D01*
X87032Y151446D01*
X87239Y151739D01*
X87440Y152023D01*
X87442Y152025D01*
X87443Y152028D01*
X87619Y152346D01*
X87785Y152646D01*
X87786Y152649D01*
X87787Y152651D01*
X87929Y152994D01*
X88057Y153304D01*
X88058Y153307D01*
X88059Y153310D01*
X88161Y153663D01*
X88254Y153989D01*
X88255Y153992D01*
X88256Y153995D01*
X88317Y154356D01*
X88374Y154691D01*
X88374Y154694D01*
X88374Y154697D01*
X88394Y155062D01*
X88413Y155403D01*
X88413Y155406D01*
X88413Y155409D01*
X88393Y155761D01*
X88373Y156114D01*
X88372Y156117D01*
X88372Y156120D01*
X88313Y156466D01*
X88253Y156816D01*
X88252Y156819D01*
X88252Y156822D01*
X88154Y157161D01*
X88056Y157501D01*
X88054Y157503D01*
X88054Y157506D01*
X87922Y157822D01*
X87782Y158159D01*
X87781Y158161D01*
X87780Y158164D01*
X87610Y158470D01*
X87437Y158782D01*
X87436Y158784D01*
X87434Y158787D01*
X87226Y159080D01*
X87025Y159363D01*
X87023Y159365D01*
X87021Y159367D01*
X86554Y159890D01*
X84240Y162203D01*
X82692Y165940D01*
X82613Y166104D01*
X82543Y166271D01*
X82459Y166424D01*
X82383Y166582D01*
X82286Y166736D01*
X82198Y166895D01*
X82097Y167037D01*
X82004Y167185D01*
X81890Y167327D01*
X81785Y167475D01*
X81668Y167605D01*
X81560Y167742D01*
X81431Y167870D01*
X81310Y168006D01*
X81179Y168122D01*
X81056Y168245D01*
X80914Y168359D01*
X80778Y168480D01*
X80635Y168581D01*
X80499Y168689D01*
X80345Y168786D01*
X80196Y168891D01*
X80043Y168975D01*
X79895Y169068D01*
X79732Y169147D01*
X79572Y169235D01*
X79411Y169301D01*
X79253Y169377D01*
X79082Y169437D01*
X78913Y169506D01*
X78746Y169554D01*
X78581Y169612D01*
X78403Y169652D01*
X78229Y169702D01*
X78056Y169731D01*
X77886Y169770D01*
X77705Y169790D01*
X77526Y169821D01*
X77349Y169830D01*
X77178Y169850D01*
X77005Y169849D01*
X76826Y169859D01*
X74349Y169859D01*
X74349Y182900D01*
X74349Y195941D01*
X76826Y195941D01*
X77008Y195951D01*
X77189Y195951D01*
X77363Y195971D01*
X77537Y195981D01*
X77717Y196011D01*
X77897Y196032D01*
X78068Y196071D01*
X78240Y196100D01*
X78414Y196150D01*
X78592Y196191D01*
X78757Y196249D01*
X78924Y196297D01*
X79092Y196367D01*
X79264Y196427D01*
X79421Y196503D01*
X79582Y196570D01*
X79742Y196658D01*
X79905Y196737D01*
X80053Y196830D01*
X80206Y196915D01*
X80354Y197020D01*
X80508Y197117D01*
X80644Y197226D01*
X80787Y197327D01*
X80922Y197449D01*
X81064Y197562D01*
X81187Y197686D01*
X81318Y197802D01*
X81439Y197938D01*
X81567Y198067D01*
X81676Y198204D01*
X81792Y198334D01*
X81897Y198482D01*
X82010Y198625D01*
X82103Y198773D01*
X82204Y198915D01*
X82292Y199074D01*
X82388Y199228D01*
X82465Y199389D01*
X82548Y199539D01*
X82615Y199699D01*
X82692Y199860D01*
X84240Y203597D01*
X89303Y208660D01*
X95919Y211401D01*
X124081Y211401D01*
X128570Y209541D01*
X128574Y209540D01*
X128578Y209538D01*
X128912Y209421D01*
X129243Y209306D01*
X129247Y209305D01*
X129251Y209303D01*
X129587Y209227D01*
X129937Y209147D01*
X129942Y209147D01*
X129946Y209146D01*
X130284Y209108D01*
X130645Y209068D01*
X130650Y209068D01*
X130654Y209067D01*
X131012Y209068D01*
X131358Y209068D01*
X131362Y209068D01*
X131366Y209068D01*
X131726Y209109D01*
X132066Y209148D01*
X132070Y209149D01*
X132074Y209149D01*
X132414Y209227D01*
X132760Y209307D01*
X132764Y209308D01*
X132768Y209309D01*
X133430Y209541D01*
X137919Y211401D01*
X166081Y211401D01*
X170570Y209541D01*
X170574Y209540D01*
X170578Y209538D01*
X170912Y209421D01*
X171243Y209306D01*
X171247Y209305D01*
X171251Y209303D01*
X171595Y209225D01*
X171937Y209147D01*
X171942Y209147D01*
X171946Y209146D01*
X172295Y209107D01*
X172645Y209068D01*
X172650Y209068D01*
X172654Y209067D01*
X173012Y209068D01*
X173358Y209068D01*
X173362Y209068D01*
X173366Y209068D01*
X173728Y209110D01*
X174066Y209148D01*
X174070Y209149D01*
X174074Y209149D01*
X174414Y209227D01*
X174760Y209307D01*
X174764Y209308D01*
X174768Y209309D01*
X175430Y209541D01*
X175432Y209542D01*
X175433Y209542D01*
X179919Y211401D01*
X208081Y211401D01*
X214697Y208660D01*
X219760Y203597D01*
X222501Y196981D01*
X222501Y168819D01*
X219760Y162203D01*
X217447Y159890D01*
X217445Y159888D01*
X217442Y159886D01*
X217202Y159616D01*
X216972Y159358D01*
X216970Y159356D01*
X216968Y159354D01*
X216757Y159055D01*
X216560Y158777D01*
X216558Y158775D01*
X216557Y158772D01*
X216380Y158452D01*
X216215Y158154D01*
X216214Y158151D01*
X216213Y158149D01*
X216070Y157802D01*
X215943Y157496D01*
X215942Y157493D01*
X215941Y157490D01*
X215839Y157137D01*
X215746Y156811D01*
X215745Y156808D01*
X215744Y156805D01*
X215683Y156444D01*
X215626Y156109D01*
X215626Y156106D01*
X215626Y156103D01*
X215606Y155738D01*
X215587Y155397D01*
X215587Y155394D01*
X215587Y155391D01*
X215607Y155039D01*
X215627Y154686D01*
X215628Y154683D01*
X215628Y154680D01*
X215687Y154332D01*
X215747Y153984D01*
X215748Y153981D01*
X215748Y153978D01*
X215847Y153637D01*
X215944Y153299D01*
X215946Y153297D01*
X215946Y153294D01*
X216084Y152963D01*
X216218Y152641D01*
X216219Y152639D01*
X216220Y152636D01*
X216395Y152321D01*
X216563Y152018D01*
X216564Y152016D01*
X216566Y152013D01*
X216774Y151720D01*
X216975Y151437D01*
X216977Y151435D01*
X216979Y151433D01*
X217446Y150910D01*
X219760Y148597D01*
X222501Y141981D01*
X222501Y113819D01*
X219760Y107203D01*
X214697Y102140D01*
X208081Y99399D01*
X179919Y99399D01*
X175430Y101259D01*
X175426Y101260D01*
X175422Y101262D01*
X175088Y101379D01*
X174757Y101494D01*
X174753Y101495D01*
X174749Y101497D01*
X174413Y101573D01*
X174063Y101653D01*
X174058Y101653D01*
X174054Y101654D01*
X173716Y101692D01*
X173355Y101732D01*
X173350Y101732D01*
X173346Y101733D01*
X172988Y101732D01*
X172642Y101732D01*
X172638Y101732D01*
X172634Y101732D01*
X172274Y101691D01*
X171934Y101652D01*
X171930Y101651D01*
X171926Y101651D01*
X171586Y101573D01*
X171240Y101493D01*
X171236Y101492D01*
X171232Y101491D01*
X170570Y101259D01*
X166081Y99399D01*
X137919Y99399D01*
X133430Y101259D01*
X133426Y101260D01*
X133422Y101262D01*
X133088Y101379D01*
X132757Y101494D01*
X132753Y101495D01*
X132749Y101497D01*
X132413Y101573D01*
X132063Y101653D01*
X132058Y101653D01*
X132054Y101654D01*
X131716Y101692D01*
X131355Y101732D01*
X131350Y101732D01*
X131346Y101733D01*
X130988Y101732D01*
X130642Y101732D01*
X130638Y101732D01*
X130634Y101732D01*
X130274Y101691D01*
X129934Y101652D01*
X129930Y101651D01*
X129926Y101651D01*
X129586Y101573D01*
X129240Y101493D01*
X129236Y101492D01*
X129232Y101491D01*
X128570Y101259D01*
X124081Y99399D01*
X95919Y99399D01*
G37*
%LPD*%
%LPC*%
G36*
X1557102Y115399D02*
X1557102Y115399D01*
X1556367Y115704D01*
X1555804Y116267D01*
X1555499Y117002D01*
X1555499Y138798D01*
X1555819Y139571D01*
X1555821Y139573D01*
X1555992Y139757D01*
X1556030Y139810D01*
X1556073Y139859D01*
X1556214Y140067D01*
X1556360Y140270D01*
X1556391Y140328D01*
X1556428Y140382D01*
X1556541Y140606D01*
X1556660Y140826D01*
X1556684Y140888D01*
X1556714Y140946D01*
X1556798Y141182D01*
X1556888Y141416D01*
X1556904Y141480D01*
X1556926Y141542D01*
X1556980Y141787D01*
X1557040Y142030D01*
X1557047Y142095D01*
X1557062Y142159D01*
X1557084Y142409D01*
X1557113Y142657D01*
X1557112Y142723D01*
X1557118Y142789D01*
X1557109Y143040D01*
X1557106Y143290D01*
X1557097Y143355D01*
X1557095Y143420D01*
X1557054Y143667D01*
X1557020Y143916D01*
X1557003Y143979D01*
X1556992Y144044D01*
X1556920Y144284D01*
X1556855Y144526D01*
X1556830Y144587D01*
X1556811Y144650D01*
X1556710Y144879D01*
X1556614Y145110D01*
X1556582Y145168D01*
X1556555Y145228D01*
X1556426Y145442D01*
X1556302Y145660D01*
X1556263Y145713D01*
X1556229Y145769D01*
X1556073Y145965D01*
X1555923Y146166D01*
X1555877Y146213D01*
X1555836Y146264D01*
X1555658Y146440D01*
X1555483Y146620D01*
X1555431Y146661D01*
X1555385Y146707D01*
X1555185Y146857D01*
X1554989Y147014D01*
X1554933Y147049D01*
X1554881Y147088D01*
X1554664Y147213D01*
X1554450Y147344D01*
X1554390Y147370D01*
X1554333Y147403D01*
X1554101Y147500D01*
X1553873Y147602D01*
X1553810Y147621D01*
X1553749Y147646D01*
X1553507Y147713D01*
X1553268Y147786D01*
X1553203Y147797D01*
X1553140Y147814D01*
X1552892Y147850D01*
X1552645Y147892D01*
X1552571Y147896D01*
X1552514Y147904D01*
X1552375Y147906D01*
X1552121Y147919D01*
X1542548Y147919D01*
X1542472Y147914D01*
X1542396Y147917D01*
X1542157Y147894D01*
X1541917Y147879D01*
X1541842Y147865D01*
X1541767Y147858D01*
X1541533Y147805D01*
X1541297Y147760D01*
X1541224Y147736D01*
X1541150Y147720D01*
X1540924Y147638D01*
X1540696Y147563D01*
X1540627Y147531D01*
X1540555Y147505D01*
X1540342Y147396D01*
X1540125Y147293D01*
X1540060Y147251D01*
X1539993Y147217D01*
X1539795Y147081D01*
X1539592Y146952D01*
X1539534Y146903D01*
X1539471Y146860D01*
X1539291Y146700D01*
X1539107Y146547D01*
X1539055Y146491D01*
X1538998Y146440D01*
X1538840Y146259D01*
X1538677Y146083D01*
X1538633Y146022D01*
X1538583Y145964D01*
X1538448Y145764D01*
X1538309Y145570D01*
X1538273Y145503D01*
X1538230Y145439D01*
X1538122Y145224D01*
X1538008Y145014D01*
X1537981Y144943D01*
X1537947Y144874D01*
X1537867Y144648D01*
X1537780Y144424D01*
X1537762Y144350D01*
X1537737Y144278D01*
X1537686Y144043D01*
X1537629Y143810D01*
X1537620Y143735D01*
X1537604Y143660D01*
X1537583Y143421D01*
X1537556Y143183D01*
X1537557Y143106D01*
X1537550Y143030D01*
X1537560Y142790D01*
X1537563Y142550D01*
X1537573Y142475D01*
X1537576Y142399D01*
X1537616Y142162D01*
X1537649Y141924D01*
X1537669Y141851D01*
X1537682Y141776D01*
X1537751Y141546D01*
X1537814Y141314D01*
X1537843Y141244D01*
X1537865Y141171D01*
X1537963Y140952D01*
X1538054Y140730D01*
X1538092Y140663D01*
X1538123Y140594D01*
X1538312Y140276D01*
X1538367Y140180D01*
X1538379Y140164D01*
X1538391Y140143D01*
X1538752Y139604D01*
X1538943Y139141D01*
X1539041Y138650D01*
X1539041Y132899D01*
X1526000Y132899D01*
X1512959Y132899D01*
X1512959Y138650D01*
X1513057Y139141D01*
X1513248Y139604D01*
X1513609Y140143D01*
X1513647Y140208D01*
X1513691Y140270D01*
X1513805Y140482D01*
X1513926Y140689D01*
X1513955Y140759D01*
X1513992Y140826D01*
X1514078Y141050D01*
X1514172Y141272D01*
X1514192Y141345D01*
X1514220Y141416D01*
X1514277Y141649D01*
X1514342Y141880D01*
X1514353Y141956D01*
X1514371Y142030D01*
X1514399Y142268D01*
X1514434Y142506D01*
X1514435Y142582D01*
X1514444Y142657D01*
X1514442Y142897D01*
X1514446Y143138D01*
X1514438Y143213D01*
X1514437Y143290D01*
X1514405Y143527D01*
X1514379Y143766D01*
X1514361Y143840D01*
X1514351Y143916D01*
X1514288Y144147D01*
X1514233Y144381D01*
X1514206Y144452D01*
X1514186Y144526D01*
X1514095Y144748D01*
X1514010Y144973D01*
X1513975Y145040D01*
X1513946Y145110D01*
X1513827Y145319D01*
X1513715Y145532D01*
X1513671Y145594D01*
X1513633Y145660D01*
X1513490Y145852D01*
X1513351Y146049D01*
X1513300Y146105D01*
X1513254Y146166D01*
X1513087Y146338D01*
X1512925Y146516D01*
X1512867Y146565D01*
X1512814Y146620D01*
X1512627Y146770D01*
X1512444Y146925D01*
X1512380Y146967D01*
X1512321Y147014D01*
X1512115Y147140D01*
X1511915Y147271D01*
X1511846Y147304D01*
X1511781Y147344D01*
X1511562Y147442D01*
X1511346Y147547D01*
X1511274Y147571D01*
X1511204Y147602D01*
X1510974Y147672D01*
X1510747Y147749D01*
X1510672Y147764D01*
X1510599Y147786D01*
X1510362Y147826D01*
X1510127Y147873D01*
X1510052Y147879D01*
X1509976Y147892D01*
X1509606Y147911D01*
X1509497Y147919D01*
X1509477Y147918D01*
X1509452Y147919D01*
X1505004Y147919D01*
X1504885Y147912D01*
X1504765Y147914D01*
X1504569Y147892D01*
X1504373Y147879D01*
X1504256Y147857D01*
X1504137Y147844D01*
X1503946Y147797D01*
X1503752Y147760D01*
X1503639Y147723D01*
X1503523Y147695D01*
X1503339Y147625D01*
X1503151Y147563D01*
X1503043Y147512D01*
X1502932Y147470D01*
X1502759Y147377D01*
X1502580Y147293D01*
X1502480Y147228D01*
X1502374Y147172D01*
X1502214Y147058D01*
X1502048Y146952D01*
X1501956Y146875D01*
X1501859Y146806D01*
X1501670Y146636D01*
X1501563Y146547D01*
X1501523Y146504D01*
X1501469Y146455D01*
X1479651Y124637D01*
X1477048Y123559D01*
X1442266Y123559D01*
X1442234Y123557D01*
X1442202Y123559D01*
X1441918Y123537D01*
X1441665Y123521D01*
X1439978Y123558D01*
X1439929Y123556D01*
X1439868Y123559D01*
X1438185Y123559D01*
X1438167Y123563D01*
X1438135Y123565D01*
X1438103Y123572D01*
X1437580Y123611D01*
X1273433Y127202D01*
X1273292Y127196D01*
X1273151Y127200D01*
X1272977Y127183D01*
X1272802Y127176D01*
X1272662Y127152D01*
X1272522Y127138D01*
X1272352Y127099D01*
X1272178Y127070D01*
X1272043Y127029D01*
X1271906Y126998D01*
X1271702Y126926D01*
X1271574Y126887D01*
X1271504Y126856D01*
X1271411Y126823D01*
X1268107Y125454D01*
X1264533Y125454D01*
X1261230Y126822D01*
X1258702Y129350D01*
X1257334Y132653D01*
X1257334Y136227D01*
X1258702Y139530D01*
X1261230Y142058D01*
X1264533Y143426D01*
X1268107Y143426D01*
X1272192Y141734D01*
X1272222Y141724D01*
X1272251Y141710D01*
X1272521Y141621D01*
X1272790Y141529D01*
X1272821Y141523D01*
X1272851Y141513D01*
X1273131Y141459D01*
X1273409Y141402D01*
X1273441Y141400D01*
X1273472Y141393D01*
X1273996Y141354D01*
X1440023Y137722D01*
X1440072Y137724D01*
X1440133Y137721D01*
X1470636Y137721D01*
X1470755Y137728D01*
X1470875Y137726D01*
X1471071Y137748D01*
X1471267Y137761D01*
X1471384Y137783D01*
X1471503Y137796D01*
X1471694Y137843D01*
X1471888Y137880D01*
X1472001Y137917D01*
X1472117Y137945D01*
X1472301Y138015D01*
X1472489Y138077D01*
X1472597Y138128D01*
X1472708Y138170D01*
X1472881Y138263D01*
X1473060Y138347D01*
X1473160Y138412D01*
X1473266Y138468D01*
X1473426Y138582D01*
X1473592Y138688D01*
X1473684Y138765D01*
X1473781Y138834D01*
X1473970Y139004D01*
X1474077Y139093D01*
X1474117Y139136D01*
X1474171Y139185D01*
X1495989Y161003D01*
X1498592Y162081D01*
X1510157Y162081D01*
X1510407Y162097D01*
X1510657Y162106D01*
X1510722Y162117D01*
X1510788Y162121D01*
X1511034Y162168D01*
X1511281Y162209D01*
X1511344Y162228D01*
X1511408Y162240D01*
X1511647Y162318D01*
X1511887Y162390D01*
X1511947Y162416D01*
X1512009Y162437D01*
X1512236Y162544D01*
X1512465Y162645D01*
X1512521Y162679D01*
X1512580Y162707D01*
X1512792Y162843D01*
X1513006Y162972D01*
X1513057Y163013D01*
X1513113Y163048D01*
X1513305Y163209D01*
X1513502Y163364D01*
X1513548Y163411D01*
X1513598Y163453D01*
X1513768Y163637D01*
X1513944Y163816D01*
X1513983Y163868D01*
X1514028Y163917D01*
X1514174Y164120D01*
X1514325Y164320D01*
X1514358Y164377D01*
X1514396Y164430D01*
X1514515Y164650D01*
X1514640Y164868D01*
X1514666Y164929D01*
X1514697Y164986D01*
X1514787Y165220D01*
X1514883Y165451D01*
X1514901Y165515D01*
X1514925Y165576D01*
X1514984Y165818D01*
X1515051Y166061D01*
X1515060Y166126D01*
X1515076Y166190D01*
X1515105Y166437D01*
X1515141Y166687D01*
X1515142Y166752D01*
X1515149Y166817D01*
X1515147Y167067D01*
X1515150Y167319D01*
X1515143Y167384D01*
X1515142Y167450D01*
X1515108Y167697D01*
X1515080Y167947D01*
X1515065Y168011D01*
X1515056Y168076D01*
X1514991Y168318D01*
X1514932Y168561D01*
X1514908Y168622D01*
X1514891Y168686D01*
X1514796Y168918D01*
X1514707Y169152D01*
X1514676Y169210D01*
X1514651Y169270D01*
X1514527Y169488D01*
X1514409Y169709D01*
X1514371Y169763D01*
X1514338Y169820D01*
X1514188Y170021D01*
X1514043Y170225D01*
X1513994Y170279D01*
X1513959Y170326D01*
X1513862Y170426D01*
X1513692Y170615D01*
X1513526Y170781D01*
X1513248Y171196D01*
X1513057Y171659D01*
X1512959Y172150D01*
X1512959Y177901D01*
X1526000Y177901D01*
X1539041Y177901D01*
X1539041Y172150D01*
X1538943Y171659D01*
X1538752Y171196D01*
X1538474Y170781D01*
X1538308Y170615D01*
X1538142Y170427D01*
X1537972Y170243D01*
X1537934Y170190D01*
X1537890Y170141D01*
X1537750Y169933D01*
X1537604Y169730D01*
X1537573Y169672D01*
X1537536Y169618D01*
X1537422Y169394D01*
X1537303Y169174D01*
X1537280Y169112D01*
X1537250Y169054D01*
X1537166Y168818D01*
X1537075Y168584D01*
X1537060Y168520D01*
X1537038Y168458D01*
X1536984Y168213D01*
X1536924Y167970D01*
X1536916Y167905D01*
X1536902Y167841D01*
X1536880Y167590D01*
X1536851Y167343D01*
X1536851Y167277D01*
X1536846Y167211D01*
X1536855Y166961D01*
X1536858Y166710D01*
X1536867Y166645D01*
X1536869Y166580D01*
X1536910Y166333D01*
X1536944Y166084D01*
X1536961Y166021D01*
X1536972Y165956D01*
X1537044Y165716D01*
X1537109Y165474D01*
X1537134Y165413D01*
X1537153Y165350D01*
X1537254Y165121D01*
X1537349Y164890D01*
X1537382Y164833D01*
X1537408Y164772D01*
X1537538Y164558D01*
X1537662Y164340D01*
X1537701Y164287D01*
X1537735Y164231D01*
X1537890Y164035D01*
X1538041Y163834D01*
X1538087Y163787D01*
X1538127Y163736D01*
X1538306Y163561D01*
X1538481Y163380D01*
X1538532Y163339D01*
X1538579Y163293D01*
X1538779Y163142D01*
X1538974Y162986D01*
X1539031Y162951D01*
X1539083Y162912D01*
X1539300Y162787D01*
X1539514Y162656D01*
X1539574Y162630D01*
X1539631Y162597D01*
X1539862Y162501D01*
X1540091Y162398D01*
X1540154Y162379D01*
X1540214Y162354D01*
X1540456Y162287D01*
X1540696Y162214D01*
X1540760Y162203D01*
X1540824Y162186D01*
X1541072Y162150D01*
X1541319Y162108D01*
X1541392Y162104D01*
X1541449Y162096D01*
X1541589Y162094D01*
X1541843Y162081D01*
X1552921Y162081D01*
X1553170Y162097D01*
X1553421Y162106D01*
X1553486Y162117D01*
X1553551Y162121D01*
X1553797Y162168D01*
X1554045Y162209D01*
X1554108Y162228D01*
X1554172Y162240D01*
X1554410Y162318D01*
X1554650Y162390D01*
X1554710Y162416D01*
X1554773Y162437D01*
X1555000Y162544D01*
X1555228Y162645D01*
X1555284Y162679D01*
X1555344Y162707D01*
X1555556Y162843D01*
X1555770Y162972D01*
X1555821Y163013D01*
X1555876Y163048D01*
X1556069Y163209D01*
X1556265Y163364D01*
X1556311Y163411D01*
X1556362Y163453D01*
X1556532Y163637D01*
X1556707Y163816D01*
X1556747Y163868D01*
X1556792Y163917D01*
X1556937Y164120D01*
X1557089Y164320D01*
X1557122Y164377D01*
X1557160Y164430D01*
X1557279Y164650D01*
X1557404Y164868D01*
X1557429Y164929D01*
X1557460Y164986D01*
X1557550Y165220D01*
X1557647Y165451D01*
X1557665Y165515D01*
X1557688Y165576D01*
X1557748Y165818D01*
X1557815Y166061D01*
X1557824Y166126D01*
X1557840Y166190D01*
X1557869Y166437D01*
X1557904Y166686D01*
X1557905Y166752D01*
X1557913Y166817D01*
X1557910Y167067D01*
X1557914Y167319D01*
X1557907Y167384D01*
X1557906Y167450D01*
X1557872Y167697D01*
X1557844Y167947D01*
X1557829Y168010D01*
X1557820Y168076D01*
X1557754Y168318D01*
X1557695Y168561D01*
X1557672Y168622D01*
X1557655Y168686D01*
X1557560Y168917D01*
X1557470Y169152D01*
X1557439Y169210D01*
X1557414Y169270D01*
X1557291Y169488D01*
X1557173Y169709D01*
X1557135Y169763D01*
X1557102Y169820D01*
X1556952Y170021D01*
X1556807Y170225D01*
X1556758Y170280D01*
X1556723Y170326D01*
X1556626Y170426D01*
X1556456Y170615D01*
X1555804Y171267D01*
X1555499Y172002D01*
X1555499Y193798D01*
X1555804Y194533D01*
X1556367Y195096D01*
X1557102Y195401D01*
X1578898Y195401D01*
X1579633Y195096D01*
X1580196Y194533D01*
X1580501Y193798D01*
X1580501Y172584D01*
X1580517Y172334D01*
X1580526Y172083D01*
X1580537Y172018D01*
X1580541Y171953D01*
X1580588Y171707D01*
X1580629Y171460D01*
X1580648Y171397D01*
X1580660Y171332D01*
X1580738Y171094D01*
X1580810Y170854D01*
X1580836Y170794D01*
X1580857Y170731D01*
X1580964Y170504D01*
X1581065Y170276D01*
X1581099Y170220D01*
X1581127Y170160D01*
X1581263Y169949D01*
X1581392Y169735D01*
X1581433Y169683D01*
X1581468Y169628D01*
X1581629Y169435D01*
X1581784Y169239D01*
X1581831Y169193D01*
X1581873Y169143D01*
X1582057Y168973D01*
X1582236Y168797D01*
X1582289Y168757D01*
X1582337Y168713D01*
X1582540Y168567D01*
X1582740Y168415D01*
X1582797Y168383D01*
X1582850Y168344D01*
X1583070Y168226D01*
X1583288Y168100D01*
X1583349Y168075D01*
X1583406Y168044D01*
X1583640Y167954D01*
X1583871Y167857D01*
X1583935Y167840D01*
X1583996Y167816D01*
X1584239Y167756D01*
X1584481Y167689D01*
X1584546Y167680D01*
X1584610Y167664D01*
X1584858Y167635D01*
X1585106Y167600D01*
X1585172Y167599D01*
X1585237Y167591D01*
X1585487Y167594D01*
X1585738Y167590D01*
X1585804Y167597D01*
X1585870Y167598D01*
X1586117Y167632D01*
X1586367Y167660D01*
X1586431Y167676D01*
X1586496Y167685D01*
X1586737Y167750D01*
X1586981Y167809D01*
X1587043Y167832D01*
X1587106Y167849D01*
X1587337Y167945D01*
X1587572Y168034D01*
X1587630Y168065D01*
X1587690Y168090D01*
X1587909Y168214D01*
X1588129Y168332D01*
X1588183Y168370D01*
X1588240Y168402D01*
X1588440Y168552D01*
X1588645Y168697D01*
X1588700Y168747D01*
X1588746Y168781D01*
X1588846Y168878D01*
X1589035Y169049D01*
X1596035Y176049D01*
X1596114Y176138D01*
X1596200Y176221D01*
X1596323Y176375D01*
X1596453Y176523D01*
X1596520Y176622D01*
X1596594Y176715D01*
X1596697Y176883D01*
X1596807Y177046D01*
X1596861Y177153D01*
X1596924Y177255D01*
X1597004Y177434D01*
X1597093Y177610D01*
X1597133Y177723D01*
X1597182Y177831D01*
X1597239Y178020D01*
X1597306Y178205D01*
X1597331Y178322D01*
X1597366Y178436D01*
X1597399Y178631D01*
X1597441Y178823D01*
X1597452Y178942D01*
X1597472Y179059D01*
X1597485Y179313D01*
X1597498Y179452D01*
X1597495Y179510D01*
X1597499Y179584D01*
X1597499Y193798D01*
X1597804Y194533D01*
X1598367Y195096D01*
X1599102Y195401D01*
X1620898Y195401D01*
X1621633Y195096D01*
X1622196Y194533D01*
X1622501Y193798D01*
X1622501Y172002D01*
X1622196Y171267D01*
X1621633Y170704D01*
X1620898Y170399D01*
X1612484Y170399D01*
X1612365Y170392D01*
X1612245Y170394D01*
X1612049Y170372D01*
X1611853Y170359D01*
X1611736Y170337D01*
X1611617Y170324D01*
X1611426Y170277D01*
X1611232Y170240D01*
X1611119Y170203D01*
X1611003Y170175D01*
X1610819Y170105D01*
X1610631Y170043D01*
X1610523Y169992D01*
X1610412Y169950D01*
X1610239Y169857D01*
X1610060Y169773D01*
X1609960Y169708D01*
X1609854Y169652D01*
X1609694Y169538D01*
X1609528Y169432D01*
X1609436Y169355D01*
X1609339Y169286D01*
X1609150Y169116D01*
X1609043Y169027D01*
X1609003Y168984D01*
X1608949Y168935D01*
X1589011Y148997D01*
X1586408Y147919D01*
X1583879Y147919D01*
X1583629Y147903D01*
X1583379Y147894D01*
X1583314Y147883D01*
X1583249Y147879D01*
X1583002Y147832D01*
X1582755Y147791D01*
X1582692Y147772D01*
X1582628Y147760D01*
X1582389Y147682D01*
X1582150Y147610D01*
X1582090Y147584D01*
X1582027Y147563D01*
X1581800Y147456D01*
X1581572Y147355D01*
X1581515Y147321D01*
X1581456Y147293D01*
X1581244Y147157D01*
X1581030Y147028D01*
X1580979Y146987D01*
X1580924Y146952D01*
X1580731Y146791D01*
X1580535Y146636D01*
X1580489Y146589D01*
X1580438Y146547D01*
X1580268Y146363D01*
X1580093Y146184D01*
X1580053Y146132D01*
X1580008Y146083D01*
X1579862Y145880D01*
X1579711Y145680D01*
X1579678Y145623D01*
X1579640Y145570D01*
X1579521Y145350D01*
X1579396Y145132D01*
X1579371Y145071D01*
X1579340Y145014D01*
X1579249Y144780D01*
X1579153Y144549D01*
X1579135Y144485D01*
X1579112Y144424D01*
X1579052Y144181D01*
X1578985Y143939D01*
X1578976Y143874D01*
X1578960Y143810D01*
X1578931Y143562D01*
X1578896Y143313D01*
X1578895Y143248D01*
X1578887Y143183D01*
X1578890Y142933D01*
X1578886Y142681D01*
X1578893Y142616D01*
X1578894Y142550D01*
X1578928Y142303D01*
X1578956Y142053D01*
X1578971Y141989D01*
X1578980Y141924D01*
X1579046Y141683D01*
X1579105Y141439D01*
X1579128Y141377D01*
X1579145Y141314D01*
X1579240Y141083D01*
X1579330Y140848D01*
X1579361Y140790D01*
X1579386Y140730D01*
X1579509Y140512D01*
X1579627Y140291D01*
X1579665Y140237D01*
X1579698Y140180D01*
X1579848Y139979D01*
X1579993Y139775D01*
X1580042Y139721D01*
X1580077Y139674D01*
X1580175Y139574D01*
X1580184Y139564D01*
X1580501Y138798D01*
X1580501Y117002D01*
X1580196Y116267D01*
X1579633Y115704D01*
X1578898Y115399D01*
X1557102Y115399D01*
G37*
%LPD*%
%LPC*%
G36*
X358494Y159874D02*
X358494Y159874D01*
X351878Y162615D01*
X346815Y167678D01*
X344074Y174294D01*
X344074Y200506D01*
X346815Y207122D01*
X351878Y212185D01*
X358494Y214926D01*
X384706Y214926D01*
X391322Y212185D01*
X396385Y207122D01*
X399126Y200506D01*
X399126Y174294D01*
X396385Y167678D01*
X391322Y162615D01*
X384706Y159874D01*
X358494Y159874D01*
G37*
%LPD*%
%LPC*%
G36*
X1522688Y29739D02*
X1522688Y29739D01*
X1516288Y31454D01*
X1510551Y34766D01*
X1505866Y39451D01*
X1502554Y45188D01*
X1500839Y51588D01*
X1500839Y58212D01*
X1502554Y64612D01*
X1505866Y70349D01*
X1510551Y75034D01*
X1516288Y78346D01*
X1522688Y80061D01*
X1529312Y80061D01*
X1535712Y78346D01*
X1541449Y75034D01*
X1546134Y70349D01*
X1549446Y64612D01*
X1551161Y58212D01*
X1551161Y51588D01*
X1549446Y45188D01*
X1546134Y39451D01*
X1541449Y34766D01*
X1535712Y31454D01*
X1529312Y29739D01*
X1522688Y29739D01*
G37*
%LPD*%
%LPC*%
G36*
X190688Y29739D02*
X190688Y29739D01*
X184288Y31454D01*
X178551Y34766D01*
X173866Y39451D01*
X170554Y45188D01*
X168839Y51588D01*
X168839Y58212D01*
X170554Y64612D01*
X173866Y70349D01*
X178551Y75034D01*
X184288Y78346D01*
X190688Y80061D01*
X197312Y80061D01*
X203712Y78346D01*
X209449Y75034D01*
X214134Y70349D01*
X217446Y64612D01*
X219161Y58212D01*
X219161Y51588D01*
X217446Y45188D01*
X214134Y39451D01*
X209449Y34766D01*
X203712Y31454D01*
X197312Y29739D01*
X190688Y29739D01*
G37*
%LPD*%
%LPC*%
G36*
X1480314Y579512D02*
X1480314Y579512D01*
X1479579Y579816D01*
X1479016Y580379D01*
X1478712Y581114D01*
X1478712Y610486D01*
X1479016Y611221D01*
X1479579Y611784D01*
X1480314Y612088D01*
X1509686Y612088D01*
X1510421Y611784D01*
X1510984Y611221D01*
X1511288Y610486D01*
X1511288Y581114D01*
X1510984Y580379D01*
X1510421Y579816D01*
X1509686Y579512D01*
X1480314Y579512D01*
G37*
%LPD*%
%LPC*%
G36*
X1556514Y579512D02*
X1556514Y579512D01*
X1555779Y579816D01*
X1555216Y580379D01*
X1554912Y581114D01*
X1554912Y610486D01*
X1555216Y611221D01*
X1555779Y611784D01*
X1556514Y612088D01*
X1585886Y612088D01*
X1586621Y611784D01*
X1587184Y611221D01*
X1587488Y610486D01*
X1587488Y581114D01*
X1587184Y580379D01*
X1586621Y579816D01*
X1585886Y579512D01*
X1556514Y579512D01*
G37*
%LPD*%
%LPC*%
G36*
X1556514Y528712D02*
X1556514Y528712D01*
X1555779Y529016D01*
X1555216Y529579D01*
X1554912Y530314D01*
X1554912Y559686D01*
X1555216Y560421D01*
X1555779Y560984D01*
X1556514Y561288D01*
X1585886Y561288D01*
X1586621Y560984D01*
X1587184Y560421D01*
X1587488Y559686D01*
X1587488Y530314D01*
X1587184Y529579D01*
X1586621Y529016D01*
X1585886Y528712D01*
X1556514Y528712D01*
G37*
%LPD*%
%LPC*%
G36*
X1480314Y528712D02*
X1480314Y528712D01*
X1479579Y529016D01*
X1479016Y529579D01*
X1478712Y530314D01*
X1478712Y559686D01*
X1479016Y560421D01*
X1479579Y560984D01*
X1480314Y561288D01*
X1509686Y561288D01*
X1510421Y560984D01*
X1510984Y560421D01*
X1511288Y559686D01*
X1511288Y530314D01*
X1510984Y529579D01*
X1510421Y529016D01*
X1509686Y528712D01*
X1480314Y528712D01*
G37*
%LPD*%
%LPC*%
G36*
X1599102Y115399D02*
X1599102Y115399D01*
X1598367Y115704D01*
X1597804Y116267D01*
X1597499Y117002D01*
X1597499Y138798D01*
X1597804Y139533D01*
X1598367Y140096D01*
X1599102Y140401D01*
X1620898Y140401D01*
X1621633Y140096D01*
X1622196Y139533D01*
X1622501Y138798D01*
X1622501Y117002D01*
X1622196Y116267D01*
X1621633Y115704D01*
X1620898Y115399D01*
X1599102Y115399D01*
G37*
%LPD*%
%LPC*%
G36*
X1641102Y115399D02*
X1641102Y115399D01*
X1640367Y115704D01*
X1639804Y116267D01*
X1639499Y117002D01*
X1639499Y138798D01*
X1639804Y139533D01*
X1640367Y140096D01*
X1641102Y140401D01*
X1662898Y140401D01*
X1663633Y140096D01*
X1664196Y139533D01*
X1664501Y138798D01*
X1664501Y117002D01*
X1664196Y116267D01*
X1663633Y115704D01*
X1662898Y115399D01*
X1641102Y115399D01*
G37*
%LPD*%
%LPC*%
G36*
X844277Y137774D02*
X844277Y137774D01*
X843542Y138079D01*
X842979Y138642D01*
X842674Y139377D01*
X842674Y159223D01*
X842979Y159958D01*
X843542Y160521D01*
X844277Y160826D01*
X864123Y160826D01*
X864858Y160521D01*
X865421Y159958D01*
X865726Y159223D01*
X865726Y139377D01*
X865421Y138642D01*
X864858Y138079D01*
X864123Y137774D01*
X844277Y137774D01*
G37*
%LPD*%
%LPC*%
G36*
X1539013Y297499D02*
X1539013Y297499D01*
X1534419Y299402D01*
X1530902Y302919D01*
X1528999Y307513D01*
X1528999Y312487D01*
X1530902Y317081D01*
X1534419Y320598D01*
X1539013Y322501D01*
X1543987Y322501D01*
X1548581Y320598D01*
X1552098Y317081D01*
X1554001Y312487D01*
X1554001Y307513D01*
X1552098Y302919D01*
X1548581Y299402D01*
X1543987Y297499D01*
X1539013Y297499D01*
G37*
%LPD*%
%LPC*%
G36*
X1655660Y420749D02*
X1655660Y420749D01*
X1652260Y422158D01*
X1649658Y424760D01*
X1648249Y428160D01*
X1648249Y431840D01*
X1649658Y435240D01*
X1652260Y437842D01*
X1655660Y439251D01*
X1659340Y439251D01*
X1662740Y437842D01*
X1665342Y435240D01*
X1666751Y431840D01*
X1666751Y428160D01*
X1665342Y424760D01*
X1662740Y422158D01*
X1659340Y420749D01*
X1655660Y420749D01*
G37*
%LPD*%
%LPC*%
G36*
X1574380Y260849D02*
X1574380Y260849D01*
X1571017Y262242D01*
X1568442Y264817D01*
X1567049Y268180D01*
X1567049Y271820D01*
X1568442Y275183D01*
X1571017Y277758D01*
X1574380Y279151D01*
X1578020Y279151D01*
X1581383Y277758D01*
X1583958Y275183D01*
X1585351Y271820D01*
X1585351Y268180D01*
X1583958Y264817D01*
X1581383Y262242D01*
X1578020Y260849D01*
X1574380Y260849D01*
G37*
%LPD*%
%LPC*%
G36*
X1671980Y260849D02*
X1671980Y260849D01*
X1668617Y262242D01*
X1666042Y264817D01*
X1664649Y268180D01*
X1664649Y271820D01*
X1666042Y275183D01*
X1668617Y277758D01*
X1671980Y279151D01*
X1675620Y279151D01*
X1678983Y277758D01*
X1681558Y275183D01*
X1682951Y271820D01*
X1682951Y268180D01*
X1681558Y264817D01*
X1678983Y262242D01*
X1675620Y260849D01*
X1671980Y260849D01*
G37*
%LPD*%
%LPC*%
G36*
X1096893Y125454D02*
X1096893Y125454D01*
X1093590Y126822D01*
X1091062Y129350D01*
X1089694Y132653D01*
X1089694Y136227D01*
X1091062Y139530D01*
X1093590Y142058D01*
X1096893Y143426D01*
X1100467Y143426D01*
X1103770Y142058D01*
X1106298Y139530D01*
X1107666Y136227D01*
X1107666Y132653D01*
X1106298Y129350D01*
X1103770Y126822D01*
X1100467Y125454D01*
X1096893Y125454D01*
G37*
%LPD*%
%LPC*%
G36*
X1530999Y187899D02*
X1530999Y187899D01*
X1530999Y195941D01*
X1536750Y195941D01*
X1537241Y195843D01*
X1537704Y195652D01*
X1538120Y195374D01*
X1538474Y195020D01*
X1538752Y194604D01*
X1538943Y194141D01*
X1539041Y193650D01*
X1539041Y187899D01*
X1530999Y187899D01*
G37*
%LPD*%
%LPC*%
G36*
X1530999Y114859D02*
X1530999Y114859D01*
X1530999Y122901D01*
X1539041Y122901D01*
X1539041Y117150D01*
X1538943Y116659D01*
X1538752Y116196D01*
X1538474Y115780D01*
X1538120Y115426D01*
X1537704Y115148D01*
X1537241Y114957D01*
X1536750Y114859D01*
X1530999Y114859D01*
G37*
%LPD*%
%LPC*%
G36*
X1512959Y187899D02*
X1512959Y187899D01*
X1512959Y193650D01*
X1513057Y194141D01*
X1513248Y194604D01*
X1513526Y195020D01*
X1513880Y195374D01*
X1514296Y195652D01*
X1514759Y195843D01*
X1515250Y195941D01*
X1521001Y195941D01*
X1521001Y187899D01*
X1512959Y187899D01*
G37*
%LPD*%
%LPC*%
G36*
X1515250Y114859D02*
X1515250Y114859D01*
X1514759Y114957D01*
X1514296Y115148D01*
X1513880Y115426D01*
X1513526Y115780D01*
X1513248Y116196D01*
X1513057Y116659D01*
X1512959Y117150D01*
X1512959Y122901D01*
X1521001Y122901D01*
X1521001Y114859D01*
X1515250Y114859D01*
G37*
%LPD*%
%LPC*%
G36*
X859199Y78099D02*
X859199Y78099D01*
X859199Y85166D01*
X863975Y85166D01*
X864466Y85068D01*
X864929Y84877D01*
X865345Y84599D01*
X865699Y84245D01*
X865977Y83829D01*
X866168Y83366D01*
X866266Y82875D01*
X866266Y78099D01*
X859199Y78099D01*
G37*
%LPD*%
%LPC*%
G36*
X842134Y78099D02*
X842134Y78099D01*
X842134Y82875D01*
X842232Y83366D01*
X842423Y83829D01*
X842701Y84245D01*
X843055Y84599D01*
X843471Y84877D01*
X843934Y85068D01*
X844425Y85166D01*
X849201Y85166D01*
X849201Y78099D01*
X842134Y78099D01*
G37*
%LPD*%
%LPC*%
G36*
X859199Y61034D02*
X859199Y61034D01*
X859199Y68101D01*
X866266Y68101D01*
X866266Y63325D01*
X866168Y62834D01*
X865977Y62371D01*
X865699Y61955D01*
X865345Y61601D01*
X864929Y61323D01*
X864466Y61132D01*
X863975Y61034D01*
X859199Y61034D01*
G37*
%LPD*%
%LPC*%
G36*
X844425Y61034D02*
X844425Y61034D01*
X843934Y61132D01*
X843471Y61323D01*
X843055Y61601D01*
X842701Y61955D01*
X842423Y62371D01*
X842232Y62834D01*
X842134Y63325D01*
X842134Y68101D01*
X849201Y68101D01*
X849201Y61034D01*
X844425Y61034D01*
G37*
%LPD*%
%LPC*%
G36*
X817349Y458849D02*
X817349Y458849D01*
X817349Y465541D01*
X821750Y465541D01*
X822241Y465443D01*
X822704Y465252D01*
X823120Y464973D01*
X823473Y464620D01*
X823752Y464204D01*
X823943Y463741D01*
X824041Y463250D01*
X824041Y458849D01*
X817349Y458849D01*
G37*
%LPD*%
%LPC*%
G36*
X775349Y458849D02*
X775349Y458849D01*
X775349Y465541D01*
X779750Y465541D01*
X780241Y465443D01*
X780704Y465252D01*
X781120Y464973D01*
X781473Y464620D01*
X781752Y464204D01*
X781943Y463741D01*
X782041Y463250D01*
X782041Y458849D01*
X775349Y458849D01*
G37*
%LPD*%
%LPC*%
G36*
X32349Y189249D02*
X32349Y189249D01*
X32349Y195941D01*
X36750Y195941D01*
X37241Y195843D01*
X37704Y195652D01*
X38120Y195373D01*
X38473Y195020D01*
X38752Y194604D01*
X38943Y194141D01*
X39041Y193650D01*
X39041Y189249D01*
X32349Y189249D01*
G37*
%LPD*%
%LPC*%
G36*
X32349Y134249D02*
X32349Y134249D01*
X32349Y140941D01*
X36750Y140941D01*
X37241Y140843D01*
X37704Y140652D01*
X38120Y140373D01*
X38473Y140020D01*
X38752Y139604D01*
X38943Y139141D01*
X39041Y138650D01*
X39041Y134249D01*
X32349Y134249D01*
G37*
%LPD*%
%LPC*%
G36*
X797959Y458849D02*
X797959Y458849D01*
X797959Y463250D01*
X798057Y463741D01*
X798248Y464204D01*
X798527Y464620D01*
X798880Y464973D01*
X799296Y465252D01*
X799759Y465443D01*
X800250Y465541D01*
X804651Y465541D01*
X804651Y458849D01*
X797959Y458849D01*
G37*
%LPD*%
%LPC*%
G36*
X817349Y439459D02*
X817349Y439459D01*
X817349Y446151D01*
X824041Y446151D01*
X824041Y441750D01*
X823943Y441259D01*
X823752Y440796D01*
X823473Y440380D01*
X823120Y440027D01*
X822704Y439748D01*
X822241Y439557D01*
X821750Y439459D01*
X817349Y439459D01*
G37*
%LPD*%
%LPC*%
G36*
X54959Y189249D02*
X54959Y189249D01*
X54959Y193650D01*
X55057Y194141D01*
X55248Y194604D01*
X55527Y195020D01*
X55880Y195373D01*
X56296Y195652D01*
X56759Y195843D01*
X57250Y195941D01*
X61651Y195941D01*
X61651Y189249D01*
X54959Y189249D01*
G37*
%LPD*%
%LPC*%
G36*
X32349Y169859D02*
X32349Y169859D01*
X32349Y176551D01*
X39041Y176551D01*
X39041Y172150D01*
X38943Y171659D01*
X38752Y171196D01*
X38473Y170780D01*
X38120Y170427D01*
X37704Y170148D01*
X37241Y169957D01*
X36750Y169859D01*
X32349Y169859D01*
G37*
%LPD*%
%LPC*%
G36*
X54959Y134249D02*
X54959Y134249D01*
X54959Y138650D01*
X55057Y139141D01*
X55248Y139604D01*
X55527Y140020D01*
X55880Y140373D01*
X56296Y140652D01*
X56759Y140843D01*
X57250Y140941D01*
X61651Y140941D01*
X61651Y134249D01*
X54959Y134249D01*
G37*
%LPD*%
%LPC*%
G36*
X32349Y114859D02*
X32349Y114859D01*
X32349Y121551D01*
X39041Y121551D01*
X39041Y117150D01*
X38943Y116659D01*
X38752Y116196D01*
X38473Y115780D01*
X38120Y115427D01*
X37704Y115148D01*
X37241Y114957D01*
X36750Y114859D01*
X32349Y114859D01*
G37*
%LPD*%
%LPC*%
G36*
X775349Y439459D02*
X775349Y439459D01*
X775349Y446151D01*
X782041Y446151D01*
X782041Y441750D01*
X781943Y441259D01*
X781752Y440796D01*
X781473Y440380D01*
X781120Y440027D01*
X780704Y439748D01*
X780241Y439557D01*
X779750Y439459D01*
X775349Y439459D01*
G37*
%LPD*%
%LPC*%
G36*
X755959Y458849D02*
X755959Y458849D01*
X755959Y463250D01*
X756057Y463741D01*
X756248Y464204D01*
X756527Y464620D01*
X756880Y464973D01*
X757296Y465252D01*
X757759Y465443D01*
X758250Y465541D01*
X762651Y465541D01*
X762651Y458849D01*
X755959Y458849D01*
G37*
%LPD*%
%LPC*%
G36*
X758250Y439459D02*
X758250Y439459D01*
X757759Y439557D01*
X757296Y439748D01*
X756880Y440027D01*
X756527Y440380D01*
X756248Y440796D01*
X756057Y441259D01*
X755959Y441750D01*
X755959Y446151D01*
X762651Y446151D01*
X762651Y439459D01*
X758250Y439459D01*
G37*
%LPD*%
%LPC*%
G36*
X57250Y169859D02*
X57250Y169859D01*
X56759Y169957D01*
X56296Y170148D01*
X55880Y170427D01*
X55527Y170780D01*
X55248Y171196D01*
X55057Y171659D01*
X54959Y172150D01*
X54959Y176551D01*
X61651Y176551D01*
X61651Y169859D01*
X57250Y169859D01*
G37*
%LPD*%
%LPC*%
G36*
X57250Y114859D02*
X57250Y114859D01*
X56759Y114957D01*
X56296Y115148D01*
X55880Y115427D01*
X55527Y115780D01*
X55248Y116196D01*
X55057Y116659D01*
X54959Y117150D01*
X54959Y121551D01*
X61651Y121551D01*
X61651Y114859D01*
X57250Y114859D01*
G37*
%LPD*%
%LPC*%
G36*
X800250Y439459D02*
X800250Y439459D01*
X799759Y439557D01*
X799296Y439748D01*
X798880Y440027D01*
X798527Y440380D01*
X798248Y440796D01*
X798057Y441259D01*
X797959Y441750D01*
X797959Y446151D01*
X804651Y446151D01*
X804651Y439459D01*
X800250Y439459D01*
G37*
%LPD*%
%LPC*%
G36*
X276349Y41349D02*
X276349Y41349D01*
X276349Y47066D01*
X279775Y47066D01*
X280266Y46968D01*
X280729Y46777D01*
X281145Y46498D01*
X281498Y46145D01*
X281777Y45729D01*
X281968Y45266D01*
X282066Y44775D01*
X282066Y41349D01*
X276349Y41349D01*
G37*
%LPD*%
%LPC*%
G36*
X257934Y41349D02*
X257934Y41349D01*
X257934Y44775D01*
X258032Y45266D01*
X258223Y45729D01*
X258502Y46145D01*
X258855Y46498D01*
X259271Y46777D01*
X259734Y46968D01*
X260225Y47066D01*
X263651Y47066D01*
X263651Y41349D01*
X257934Y41349D01*
G37*
%LPD*%
%LPC*%
G36*
X276349Y22934D02*
X276349Y22934D01*
X276349Y28651D01*
X282066Y28651D01*
X282066Y25225D01*
X281968Y24734D01*
X281777Y24271D01*
X281498Y23855D01*
X281145Y23502D01*
X280729Y23223D01*
X280266Y23032D01*
X279775Y22934D01*
X276349Y22934D01*
G37*
%LPD*%
%LPC*%
G36*
X260225Y22934D02*
X260225Y22934D01*
X259734Y23032D01*
X259271Y23223D01*
X258855Y23502D01*
X258502Y23855D01*
X258223Y24271D01*
X258032Y24734D01*
X257934Y25225D01*
X257934Y28651D01*
X263651Y28651D01*
X263651Y22934D01*
X260225Y22934D01*
G37*
%LPD*%
%LPC*%
G36*
X1434499Y604959D02*
X1434499Y604959D01*
X1434499Y610001D01*
X1438541Y610001D01*
X1438541Y607250D01*
X1438443Y606759D01*
X1438252Y606296D01*
X1437974Y605880D01*
X1437620Y605526D01*
X1437204Y605248D01*
X1436741Y605057D01*
X1436250Y604959D01*
X1434499Y604959D01*
G37*
%LPD*%
%LPC*%
G36*
X1616459Y609999D02*
X1616459Y609999D01*
X1616459Y612750D01*
X1616557Y613241D01*
X1616748Y613704D01*
X1617026Y614120D01*
X1617380Y614474D01*
X1617796Y614752D01*
X1618259Y614943D01*
X1618750Y615041D01*
X1620501Y615041D01*
X1620501Y609999D01*
X1616459Y609999D01*
G37*
%LPD*%
%LPC*%
G36*
X1618750Y594959D02*
X1618750Y594959D01*
X1618259Y595057D01*
X1617796Y595248D01*
X1617380Y595526D01*
X1617026Y595880D01*
X1616748Y596296D01*
X1616557Y596759D01*
X1616459Y597250D01*
X1616459Y600001D01*
X1620501Y600001D01*
X1620501Y594959D01*
X1618750Y594959D01*
G37*
%LPD*%
%LPC*%
G36*
X1146859Y517899D02*
X1146859Y517899D01*
X1146859Y521756D01*
X1147185Y521590D01*
X1148479Y520650D01*
X1149610Y519519D01*
X1150550Y518225D01*
X1150716Y517899D01*
X1146859Y517899D01*
G37*
%LPD*%
%LPC*%
G36*
X1133004Y517899D02*
X1133004Y517899D01*
X1133170Y518225D01*
X1134110Y519519D01*
X1135241Y520650D01*
X1136535Y521590D01*
X1136861Y521756D01*
X1136861Y517899D01*
X1133004Y517899D01*
G37*
%LPD*%
%LPC*%
G36*
X1587499Y434999D02*
X1587499Y434999D01*
X1587499Y438441D01*
X1587632Y438374D01*
X1588878Y437468D01*
X1589968Y436378D01*
X1590874Y435132D01*
X1590941Y434999D01*
X1587499Y434999D01*
G37*
%LPD*%
%LPC*%
G36*
X1574059Y434999D02*
X1574059Y434999D01*
X1574126Y435132D01*
X1575032Y436378D01*
X1576122Y437468D01*
X1577368Y438374D01*
X1577501Y438441D01*
X1577501Y434999D01*
X1574059Y434999D01*
G37*
%LPD*%
%LPC*%
G36*
X1587499Y425001D02*
X1587499Y425001D01*
X1590941Y425001D01*
X1590874Y424868D01*
X1589968Y423622D01*
X1588878Y422532D01*
X1587632Y421626D01*
X1587499Y421559D01*
X1587499Y425001D01*
G37*
%LPD*%
%LPC*%
G36*
X1577368Y421626D02*
X1577368Y421626D01*
X1576122Y422532D01*
X1575032Y423622D01*
X1574126Y424868D01*
X1574059Y425001D01*
X1577501Y425001D01*
X1577501Y421559D01*
X1577368Y421626D01*
G37*
%LPD*%
D10*
X1223140Y512900D03*
X1141860Y512900D03*
D11*
X1266320Y134440D03*
X1098680Y134440D03*
D12*
X1182500Y119200D03*
D13*
X1694000Y127900D03*
X1652000Y127900D03*
X1610000Y127900D03*
X1568000Y127900D03*
X1526000Y127900D03*
X1568000Y182900D03*
X1526000Y182900D03*
X1610000Y182900D03*
X1652000Y182900D03*
X1694000Y182900D03*
D14*
X1657500Y430000D03*
X1582500Y430000D03*
D15*
X1541500Y310000D03*
X1698500Y310000D03*
D16*
X1576200Y270000D03*
X1673800Y270000D03*
D13*
X811000Y452500D03*
X769000Y452500D03*
X769000Y507500D03*
X811000Y507500D03*
D17*
X1380500Y615000D03*
X1359500Y615000D03*
D18*
X1429500Y615000D03*
X1410500Y615000D03*
D19*
X270000Y35000D03*
X473200Y35000D03*
X371600Y187400D03*
X854200Y149300D03*
X854200Y73100D03*
D17*
X1669500Y605000D03*
X1690500Y605000D03*
D18*
X1625500Y605000D03*
X1644500Y605000D03*
D13*
X194000Y127900D03*
X152000Y127900D03*
X110000Y127900D03*
X68000Y127900D03*
X26000Y127900D03*
X68000Y182900D03*
X26000Y182900D03*
X110000Y182900D03*
X152000Y182900D03*
X194000Y182900D03*
D20*
X40000Y595800D03*
X116200Y595800D03*
X116200Y545000D03*
X40000Y545000D03*
X1495000Y595800D03*
X1571200Y595800D03*
X1571200Y545000D03*
X1495000Y545000D03*
D21*
X555000Y374200D03*
X555000Y475800D03*
X325000Y475800D03*
X325000Y374200D03*
D22*
X585000Y552000D03*
X585000Y298000D03*
X295000Y298000D03*
X295000Y552000D03*
D21*
X615000Y374200D03*
X615000Y475800D03*
X265000Y475800D03*
X265000Y374200D03*
D23*
X1266320Y134440D02*
X1440000Y130640D01*
X1475640Y130640D01*
X1500000Y155000D02*
X1585000Y155000D01*
X1610000Y180000D01*
X1610000Y182900D01*
X1500000Y155000D02*
X1475640Y130640D01*
D24*
X1359500Y615000D02*
X1340000Y615000D01*
D25*
X1340000Y615000D03*
D24*
X1380500Y615000D02*
X1410500Y615000D01*
D26*
X68000Y127900D02*
X26000Y127900D01*
X68000Y127900D02*
X68000Y182900D01*
X26000Y182900D01*
X26000Y127900D01*
X769000Y452500D02*
X811000Y452500D01*
X769000Y452500D02*
X769000Y364000D01*
X245000Y240000D02*
X98000Y240000D01*
X245000Y240000D02*
X270000Y240000D01*
X295000Y240000D01*
X645000Y240000D01*
X769000Y364000D01*
X270000Y215000D02*
X270000Y35000D01*
X270000Y215000D02*
X270000Y220000D01*
X270000Y240000D01*
X68000Y210000D02*
X68000Y182900D01*
X68000Y210000D02*
X98000Y240000D01*
X270000Y215000D02*
X295000Y240000D01*
X270000Y220000D02*
X265000Y220000D01*
X245000Y240000D01*
D24*
X1635000Y495000D02*
X1692700Y552700D01*
X1635000Y495000D02*
X1635000Y270000D01*
X1675000Y230000D01*
X1675000Y146900D01*
X1694000Y127900D01*
X1692700Y552700D02*
X1692500Y552900D01*
X1692500Y603000D01*
X1690500Y605000D01*
X1669500Y605000D02*
X1644500Y605000D01*
M02*
