G04 EAGLE Gerber RS-274X export*
G75*
%MOMM*%
%FSLAX34Y34*%
%LPD*%
%INSilkscreen Bottom*%
%IPPOS*%
%AMOC8*
5,1,8,0,0,1.08239X$1,22.5*%
G01*
%ADD10C,0.152400*%
%ADD11C,0.203200*%
%ADD12C,0.130000*%


D10*
X64238Y220762D02*
X64238Y237018D01*
X64238Y229793D02*
X55207Y229793D01*
X55207Y237018D02*
X55207Y220762D01*
X43570Y220762D02*
X48989Y237018D01*
X38152Y237018D02*
X43570Y220762D01*
X32316Y227084D02*
X21478Y227084D01*
X26897Y232502D02*
X26897Y221665D01*
X834238Y420762D02*
X834238Y437018D01*
X834238Y429793D02*
X825207Y429793D01*
X825207Y437018D02*
X825207Y420762D01*
X813570Y420762D02*
X818989Y437018D01*
X808152Y437018D02*
X813570Y420762D01*
X802316Y427084D02*
X791478Y427084D01*
X796897Y432502D02*
X796897Y421665D01*
X785399Y418956D02*
X778174Y418956D01*
X771713Y420762D02*
X771713Y437018D01*
X767198Y437018D01*
X767067Y437016D01*
X766935Y437010D01*
X766804Y437001D01*
X766674Y436987D01*
X766543Y436970D01*
X766414Y436949D01*
X766285Y436925D01*
X766157Y436896D01*
X766029Y436864D01*
X765903Y436828D01*
X765778Y436789D01*
X765653Y436746D01*
X765531Y436699D01*
X765409Y436649D01*
X765289Y436595D01*
X765171Y436538D01*
X765055Y436477D01*
X764940Y436413D01*
X764827Y436346D01*
X764716Y436275D01*
X764608Y436201D01*
X764501Y436124D01*
X764397Y436044D01*
X764295Y435961D01*
X764196Y435876D01*
X764099Y435787D01*
X764005Y435695D01*
X763913Y435601D01*
X763824Y435504D01*
X763739Y435405D01*
X763656Y435303D01*
X763576Y435199D01*
X763499Y435092D01*
X763425Y434984D01*
X763354Y434873D01*
X763287Y434760D01*
X763223Y434645D01*
X763162Y434529D01*
X763105Y434411D01*
X763051Y434291D01*
X763001Y434169D01*
X762954Y434047D01*
X762911Y433922D01*
X762872Y433797D01*
X762836Y433671D01*
X762804Y433543D01*
X762775Y433415D01*
X762751Y433286D01*
X762730Y433157D01*
X762713Y433026D01*
X762699Y432896D01*
X762690Y432765D01*
X762684Y432633D01*
X762682Y432502D01*
X762682Y425278D01*
X762684Y425147D01*
X762690Y425015D01*
X762699Y424884D01*
X762713Y424754D01*
X762730Y424623D01*
X762751Y424494D01*
X762775Y424365D01*
X762804Y424237D01*
X762836Y424109D01*
X762872Y423983D01*
X762911Y423858D01*
X762954Y423733D01*
X763001Y423611D01*
X763051Y423489D01*
X763105Y423369D01*
X763162Y423251D01*
X763223Y423135D01*
X763287Y423020D01*
X763354Y422907D01*
X763425Y422796D01*
X763499Y422688D01*
X763576Y422581D01*
X763656Y422477D01*
X763739Y422375D01*
X763824Y422276D01*
X763913Y422179D01*
X764005Y422085D01*
X764099Y421993D01*
X764196Y421904D01*
X764295Y421819D01*
X764397Y421736D01*
X764501Y421656D01*
X764608Y421579D01*
X764716Y421505D01*
X764827Y421434D01*
X764940Y421367D01*
X765055Y421303D01*
X765171Y421242D01*
X765289Y421185D01*
X765409Y421131D01*
X765531Y421081D01*
X765653Y421034D01*
X765778Y420991D01*
X765903Y420952D01*
X766029Y420916D01*
X766157Y420884D01*
X766285Y420855D01*
X766414Y420831D01*
X766543Y420810D01*
X766674Y420793D01*
X766804Y420779D01*
X766935Y420770D01*
X767067Y420764D01*
X767198Y420762D01*
X771713Y420762D01*
X754948Y420762D02*
X754948Y437018D01*
X750433Y437018D01*
X750300Y437016D01*
X750168Y437010D01*
X750036Y437000D01*
X749904Y436987D01*
X749772Y436969D01*
X749642Y436948D01*
X749511Y436923D01*
X749382Y436894D01*
X749254Y436861D01*
X749126Y436825D01*
X749000Y436785D01*
X748875Y436741D01*
X748751Y436693D01*
X748629Y436642D01*
X748508Y436587D01*
X748389Y436529D01*
X748271Y436467D01*
X748156Y436402D01*
X748042Y436333D01*
X747931Y436262D01*
X747822Y436186D01*
X747715Y436108D01*
X747610Y436027D01*
X747508Y435942D01*
X747408Y435855D01*
X747311Y435765D01*
X747216Y435672D01*
X747125Y435576D01*
X747036Y435478D01*
X746950Y435377D01*
X746867Y435273D01*
X746787Y435167D01*
X746711Y435059D01*
X746637Y434949D01*
X746567Y434836D01*
X746500Y434722D01*
X746437Y434605D01*
X746377Y434487D01*
X746320Y434367D01*
X746267Y434245D01*
X746218Y434122D01*
X746172Y433998D01*
X746130Y433872D01*
X746092Y433745D01*
X746057Y433617D01*
X746026Y433488D01*
X745999Y433359D01*
X745976Y433228D01*
X745956Y433097D01*
X745941Y432965D01*
X745929Y432833D01*
X745921Y432701D01*
X745917Y432568D01*
X745917Y432436D01*
X745921Y432303D01*
X745929Y432171D01*
X745941Y432039D01*
X745956Y431907D01*
X745976Y431776D01*
X745999Y431645D01*
X746026Y431516D01*
X746057Y431387D01*
X746092Y431259D01*
X746130Y431132D01*
X746172Y431006D01*
X746218Y430882D01*
X746267Y430759D01*
X746320Y430637D01*
X746377Y430517D01*
X746437Y430399D01*
X746500Y430282D01*
X746567Y430168D01*
X746637Y430055D01*
X746711Y429945D01*
X746787Y429837D01*
X746867Y429731D01*
X746950Y429627D01*
X747036Y429526D01*
X747125Y429428D01*
X747216Y429332D01*
X747311Y429239D01*
X747408Y429149D01*
X747508Y429062D01*
X747610Y428977D01*
X747715Y428896D01*
X747822Y428818D01*
X747931Y428742D01*
X748042Y428671D01*
X748156Y428602D01*
X748271Y428537D01*
X748389Y428475D01*
X748508Y428417D01*
X748629Y428362D01*
X748751Y428311D01*
X748875Y428263D01*
X749000Y428219D01*
X749126Y428179D01*
X749254Y428143D01*
X749382Y428110D01*
X749511Y428081D01*
X749642Y428056D01*
X749772Y428035D01*
X749904Y428017D01*
X750036Y428004D01*
X750168Y427994D01*
X750300Y427988D01*
X750433Y427986D01*
X750433Y427987D02*
X754948Y427987D01*
X749530Y427987D02*
X745917Y420762D01*
X734893Y429342D02*
X740312Y437018D01*
X734893Y429342D02*
X729474Y437018D01*
X734893Y429342D02*
X734893Y420762D01*
X764238Y555762D02*
X764238Y572018D01*
X764238Y564793D02*
X755207Y564793D01*
X755207Y572018D02*
X755207Y555762D01*
X743570Y555762D02*
X748989Y572018D01*
X738152Y572018D02*
X743570Y555762D01*
X732316Y562084D02*
X721478Y562084D01*
X726897Y567502D02*
X726897Y556665D01*
X715399Y553956D02*
X708174Y553956D01*
X699247Y555762D02*
X702859Y572018D01*
X695634Y566599D02*
X699247Y555762D01*
X692022Y555762D02*
X695634Y566599D01*
X688410Y572018D02*
X692022Y555762D01*
X681884Y555762D02*
X674659Y555762D01*
X681884Y555762D02*
X681884Y572018D01*
X674659Y572018D01*
X676465Y564793D02*
X681884Y564793D01*
X665414Y572018D02*
X665414Y555762D01*
X669930Y572018D02*
X660899Y572018D01*
D11*
X678791Y601016D02*
X683984Y624384D01*
X673598Y616595D02*
X678791Y601016D01*
X668405Y601016D02*
X673598Y616595D01*
X663212Y624384D02*
X668405Y601016D01*
X655706Y601016D02*
X645321Y601016D01*
X655706Y601016D02*
X655706Y624384D01*
X645321Y624384D01*
X647917Y613998D02*
X655706Y613998D01*
X631238Y601016D02*
X631095Y601018D01*
X630952Y601024D01*
X630809Y601034D01*
X630667Y601048D01*
X630525Y601065D01*
X630383Y601087D01*
X630242Y601112D01*
X630102Y601142D01*
X629963Y601175D01*
X629825Y601212D01*
X629688Y601253D01*
X629552Y601297D01*
X629417Y601346D01*
X629284Y601398D01*
X629152Y601453D01*
X629022Y601513D01*
X628893Y601576D01*
X628766Y601642D01*
X628642Y601712D01*
X628519Y601785D01*
X628398Y601862D01*
X628279Y601941D01*
X628163Y602025D01*
X628048Y602111D01*
X627937Y602200D01*
X627827Y602293D01*
X627721Y602388D01*
X627617Y602487D01*
X627516Y602588D01*
X627417Y602692D01*
X627322Y602798D01*
X627229Y602908D01*
X627140Y603019D01*
X627054Y603134D01*
X626971Y603250D01*
X626891Y603369D01*
X626814Y603490D01*
X626741Y603612D01*
X626671Y603737D01*
X626605Y603864D01*
X626542Y603993D01*
X626482Y604123D01*
X626427Y604255D01*
X626375Y604388D01*
X626326Y604523D01*
X626282Y604659D01*
X626241Y604796D01*
X626204Y604934D01*
X626171Y605073D01*
X626141Y605213D01*
X626116Y605354D01*
X626094Y605496D01*
X626077Y605638D01*
X626063Y605780D01*
X626053Y605923D01*
X626047Y606066D01*
X626045Y606209D01*
X631238Y601016D02*
X631501Y601019D01*
X631763Y601029D01*
X632025Y601044D01*
X632286Y601066D01*
X632547Y601094D01*
X632807Y601129D01*
X633067Y601170D01*
X633325Y601216D01*
X633582Y601269D01*
X633838Y601329D01*
X634092Y601394D01*
X634345Y601465D01*
X634595Y601542D01*
X634844Y601626D01*
X635091Y601715D01*
X635336Y601810D01*
X635578Y601911D01*
X635818Y602018D01*
X636055Y602130D01*
X636289Y602248D01*
X636521Y602372D01*
X636749Y602501D01*
X636975Y602636D01*
X637197Y602776D01*
X637415Y602921D01*
X637631Y603071D01*
X637842Y603227D01*
X638050Y603387D01*
X638253Y603553D01*
X638453Y603723D01*
X638649Y603898D01*
X638840Y604077D01*
X639027Y604261D01*
X638379Y619191D02*
X638377Y619334D01*
X638371Y619477D01*
X638361Y619620D01*
X638347Y619762D01*
X638330Y619904D01*
X638308Y620046D01*
X638283Y620187D01*
X638253Y620327D01*
X638220Y620466D01*
X638183Y620604D01*
X638142Y620741D01*
X638098Y620877D01*
X638049Y621012D01*
X637997Y621145D01*
X637942Y621277D01*
X637882Y621407D01*
X637819Y621536D01*
X637753Y621663D01*
X637683Y621788D01*
X637610Y621910D01*
X637533Y622031D01*
X637453Y622150D01*
X637370Y622266D01*
X637284Y622381D01*
X637195Y622492D01*
X637102Y622602D01*
X637007Y622708D01*
X636908Y622812D01*
X636807Y622913D01*
X636703Y623012D01*
X636597Y623107D01*
X636487Y623200D01*
X636376Y623289D01*
X636261Y623375D01*
X636145Y623458D01*
X636026Y623538D01*
X635905Y623615D01*
X635783Y623688D01*
X635658Y623758D01*
X635531Y623824D01*
X635402Y623887D01*
X635272Y623947D01*
X635140Y624002D01*
X635007Y624054D01*
X634872Y624103D01*
X634736Y624147D01*
X634599Y624188D01*
X634461Y624225D01*
X634322Y624258D01*
X634182Y624288D01*
X634041Y624313D01*
X633899Y624335D01*
X633757Y624352D01*
X633615Y624366D01*
X633472Y624376D01*
X633329Y624382D01*
X633186Y624384D01*
X632954Y624381D01*
X632722Y624373D01*
X632490Y624359D01*
X632259Y624340D01*
X632028Y624315D01*
X631798Y624285D01*
X631569Y624249D01*
X631341Y624208D01*
X631113Y624161D01*
X630887Y624109D01*
X630662Y624051D01*
X630439Y623988D01*
X630217Y623920D01*
X629997Y623847D01*
X629779Y623768D01*
X629562Y623685D01*
X629348Y623596D01*
X629136Y623502D01*
X628926Y623403D01*
X628718Y623299D01*
X628514Y623190D01*
X628311Y623076D01*
X628112Y622957D01*
X627915Y622834D01*
X627722Y622706D01*
X627531Y622574D01*
X627344Y622437D01*
X635783Y614647D02*
X635906Y614722D01*
X636027Y614800D01*
X636146Y614882D01*
X636262Y614966D01*
X636376Y615054D01*
X636488Y615145D01*
X636598Y615239D01*
X636704Y615336D01*
X636808Y615436D01*
X636909Y615538D01*
X637008Y615644D01*
X637103Y615752D01*
X637196Y615862D01*
X637285Y615975D01*
X637371Y616091D01*
X637455Y616208D01*
X637534Y616328D01*
X637611Y616450D01*
X637684Y616574D01*
X637754Y616700D01*
X637820Y616828D01*
X637883Y616958D01*
X637942Y617089D01*
X637998Y617222D01*
X638050Y617357D01*
X638098Y617493D01*
X638143Y617630D01*
X638183Y617768D01*
X638220Y617907D01*
X638254Y618047D01*
X638283Y618188D01*
X638308Y618330D01*
X638330Y618473D01*
X638348Y618616D01*
X638361Y618759D01*
X638371Y618903D01*
X638377Y619047D01*
X638379Y619191D01*
X628642Y610753D02*
X628519Y610678D01*
X628398Y610600D01*
X628279Y610518D01*
X628163Y610434D01*
X628049Y610346D01*
X627937Y610255D01*
X627828Y610161D01*
X627721Y610064D01*
X627617Y609964D01*
X627516Y609862D01*
X627417Y609756D01*
X627322Y609648D01*
X627229Y609538D01*
X627140Y609425D01*
X627054Y609310D01*
X626971Y609192D01*
X626891Y609072D01*
X626814Y608950D01*
X626741Y608826D01*
X626671Y608700D01*
X626605Y608572D01*
X626542Y608442D01*
X626483Y608311D01*
X626427Y608178D01*
X626375Y608043D01*
X626327Y607907D01*
X626282Y607770D01*
X626242Y607632D01*
X626205Y607493D01*
X626172Y607353D01*
X626142Y607212D01*
X626117Y607070D01*
X626095Y606927D01*
X626077Y606784D01*
X626064Y606641D01*
X626054Y606497D01*
X626048Y606353D01*
X626046Y606209D01*
X628642Y610753D02*
X635782Y614647D01*
X613746Y624384D02*
X613746Y601016D01*
X620237Y624384D02*
X607255Y624384D01*
X600030Y601016D02*
X589644Y601016D01*
X600030Y601016D02*
X600030Y624384D01*
X589644Y624384D01*
X592240Y613998D02*
X600030Y613998D01*
X581895Y624384D02*
X581895Y601016D01*
X581895Y624384D02*
X575404Y624384D01*
X575245Y624382D01*
X575086Y624376D01*
X574926Y624366D01*
X574768Y624353D01*
X574609Y624335D01*
X574452Y624314D01*
X574294Y624288D01*
X574138Y624259D01*
X573982Y624226D01*
X573827Y624189D01*
X573673Y624149D01*
X573520Y624104D01*
X573368Y624056D01*
X573217Y624005D01*
X573068Y623949D01*
X572920Y623890D01*
X572774Y623827D01*
X572629Y623761D01*
X572486Y623691D01*
X572344Y623618D01*
X572205Y623541D01*
X572067Y623461D01*
X571931Y623377D01*
X571798Y623290D01*
X571666Y623200D01*
X571537Y623107D01*
X571411Y623010D01*
X571286Y622911D01*
X571164Y622808D01*
X571045Y622703D01*
X570928Y622594D01*
X570814Y622483D01*
X570703Y622369D01*
X570594Y622252D01*
X570489Y622133D01*
X570386Y622011D01*
X570287Y621886D01*
X570190Y621760D01*
X570097Y621631D01*
X570007Y621499D01*
X569920Y621366D01*
X569836Y621230D01*
X569756Y621092D01*
X569679Y620953D01*
X569606Y620811D01*
X569536Y620668D01*
X569470Y620523D01*
X569407Y620377D01*
X569348Y620229D01*
X569292Y620080D01*
X569241Y619929D01*
X569193Y619777D01*
X569148Y619624D01*
X569108Y619470D01*
X569071Y619315D01*
X569038Y619159D01*
X569009Y619003D01*
X568983Y618845D01*
X568962Y618688D01*
X568944Y618529D01*
X568931Y618371D01*
X568921Y618211D01*
X568915Y618052D01*
X568913Y617893D01*
X568915Y617734D01*
X568921Y617575D01*
X568931Y617415D01*
X568944Y617257D01*
X568962Y617098D01*
X568983Y616941D01*
X569009Y616783D01*
X569038Y616627D01*
X569071Y616471D01*
X569108Y616316D01*
X569148Y616162D01*
X569193Y616009D01*
X569241Y615857D01*
X569292Y615706D01*
X569348Y615557D01*
X569407Y615409D01*
X569470Y615263D01*
X569536Y615118D01*
X569606Y614975D01*
X569679Y614833D01*
X569756Y614694D01*
X569836Y614556D01*
X569920Y614420D01*
X570007Y614287D01*
X570097Y614155D01*
X570190Y614026D01*
X570287Y613900D01*
X570386Y613775D01*
X570489Y613653D01*
X570594Y613534D01*
X570703Y613417D01*
X570814Y613303D01*
X570928Y613192D01*
X571045Y613083D01*
X571164Y612978D01*
X571286Y612875D01*
X571411Y612776D01*
X571537Y612679D01*
X571666Y612586D01*
X571798Y612496D01*
X571931Y612409D01*
X572067Y612325D01*
X572205Y612245D01*
X572344Y612168D01*
X572486Y612095D01*
X572629Y612025D01*
X572774Y611959D01*
X572920Y611896D01*
X573068Y611837D01*
X573217Y611781D01*
X573368Y611730D01*
X573520Y611682D01*
X573673Y611637D01*
X573827Y611597D01*
X573982Y611560D01*
X574138Y611527D01*
X574294Y611498D01*
X574452Y611472D01*
X574609Y611451D01*
X574768Y611433D01*
X574926Y611420D01*
X575086Y611410D01*
X575245Y611404D01*
X575404Y611402D01*
X581895Y611402D01*
X574106Y611402D02*
X568913Y601016D01*
X560384Y601016D02*
X560384Y624384D01*
X547402Y601016D01*
X547402Y624384D01*
X526954Y624384D02*
X526954Y601016D01*
X526954Y624384D02*
X516568Y624384D01*
X516568Y613998D02*
X526954Y613998D01*
X509579Y617893D02*
X509579Y607507D01*
X509579Y617893D02*
X509577Y618052D01*
X509571Y618211D01*
X509561Y618371D01*
X509548Y618529D01*
X509530Y618688D01*
X509509Y618845D01*
X509483Y619003D01*
X509454Y619159D01*
X509421Y619315D01*
X509384Y619470D01*
X509344Y619624D01*
X509299Y619777D01*
X509251Y619929D01*
X509200Y620080D01*
X509144Y620229D01*
X509085Y620377D01*
X509022Y620523D01*
X508956Y620668D01*
X508886Y620811D01*
X508813Y620953D01*
X508736Y621092D01*
X508656Y621230D01*
X508572Y621366D01*
X508485Y621499D01*
X508395Y621631D01*
X508302Y621760D01*
X508205Y621886D01*
X508106Y622011D01*
X508003Y622133D01*
X507898Y622252D01*
X507789Y622369D01*
X507678Y622483D01*
X507564Y622594D01*
X507447Y622703D01*
X507328Y622808D01*
X507206Y622911D01*
X507081Y623010D01*
X506955Y623107D01*
X506826Y623200D01*
X506694Y623290D01*
X506561Y623377D01*
X506425Y623461D01*
X506287Y623541D01*
X506148Y623618D01*
X506006Y623691D01*
X505863Y623761D01*
X505718Y623827D01*
X505572Y623890D01*
X505424Y623949D01*
X505275Y624005D01*
X505124Y624056D01*
X504972Y624104D01*
X504819Y624149D01*
X504665Y624189D01*
X504510Y624226D01*
X504354Y624259D01*
X504198Y624288D01*
X504040Y624314D01*
X503883Y624335D01*
X503724Y624353D01*
X503566Y624366D01*
X503406Y624376D01*
X503247Y624382D01*
X503088Y624384D01*
X502929Y624382D01*
X502770Y624376D01*
X502610Y624366D01*
X502452Y624353D01*
X502293Y624335D01*
X502136Y624314D01*
X501978Y624288D01*
X501822Y624259D01*
X501666Y624226D01*
X501511Y624189D01*
X501357Y624149D01*
X501204Y624104D01*
X501052Y624056D01*
X500901Y624005D01*
X500752Y623949D01*
X500604Y623890D01*
X500458Y623827D01*
X500313Y623761D01*
X500170Y623691D01*
X500028Y623618D01*
X499889Y623541D01*
X499751Y623461D01*
X499615Y623377D01*
X499482Y623290D01*
X499350Y623200D01*
X499221Y623107D01*
X499095Y623010D01*
X498970Y622911D01*
X498848Y622808D01*
X498729Y622703D01*
X498612Y622594D01*
X498498Y622483D01*
X498387Y622369D01*
X498278Y622252D01*
X498173Y622133D01*
X498070Y622011D01*
X497971Y621886D01*
X497874Y621760D01*
X497781Y621631D01*
X497691Y621499D01*
X497604Y621366D01*
X497520Y621230D01*
X497440Y621092D01*
X497363Y620953D01*
X497290Y620811D01*
X497220Y620668D01*
X497154Y620523D01*
X497091Y620377D01*
X497032Y620229D01*
X496976Y620080D01*
X496925Y619929D01*
X496877Y619777D01*
X496832Y619624D01*
X496792Y619470D01*
X496755Y619315D01*
X496722Y619159D01*
X496693Y619003D01*
X496667Y618845D01*
X496646Y618688D01*
X496628Y618529D01*
X496615Y618371D01*
X496605Y618211D01*
X496599Y618052D01*
X496597Y617893D01*
X496597Y607507D01*
X496599Y607348D01*
X496605Y607189D01*
X496615Y607029D01*
X496628Y606871D01*
X496646Y606712D01*
X496667Y606555D01*
X496693Y606397D01*
X496722Y606241D01*
X496755Y606085D01*
X496792Y605930D01*
X496832Y605776D01*
X496877Y605623D01*
X496925Y605471D01*
X496976Y605320D01*
X497032Y605171D01*
X497091Y605023D01*
X497154Y604877D01*
X497220Y604732D01*
X497290Y604589D01*
X497363Y604447D01*
X497440Y604308D01*
X497520Y604170D01*
X497604Y604034D01*
X497691Y603901D01*
X497781Y603769D01*
X497874Y603640D01*
X497971Y603514D01*
X498070Y603389D01*
X498173Y603267D01*
X498278Y603148D01*
X498387Y603031D01*
X498498Y602917D01*
X498612Y602806D01*
X498729Y602697D01*
X498848Y602592D01*
X498970Y602489D01*
X499095Y602390D01*
X499221Y602293D01*
X499350Y602200D01*
X499482Y602110D01*
X499615Y602023D01*
X499751Y601939D01*
X499889Y601859D01*
X500028Y601782D01*
X500170Y601709D01*
X500313Y601639D01*
X500458Y601573D01*
X500604Y601510D01*
X500752Y601451D01*
X500901Y601395D01*
X501052Y601344D01*
X501204Y601296D01*
X501357Y601251D01*
X501511Y601211D01*
X501666Y601174D01*
X501822Y601141D01*
X501978Y601112D01*
X502136Y601086D01*
X502293Y601065D01*
X502452Y601047D01*
X502610Y601034D01*
X502770Y601024D01*
X502929Y601018D01*
X503088Y601016D01*
X503247Y601018D01*
X503406Y601024D01*
X503566Y601034D01*
X503724Y601047D01*
X503883Y601065D01*
X504040Y601086D01*
X504198Y601112D01*
X504354Y601141D01*
X504510Y601174D01*
X504665Y601211D01*
X504819Y601251D01*
X504972Y601296D01*
X505124Y601344D01*
X505275Y601395D01*
X505424Y601451D01*
X505572Y601510D01*
X505718Y601573D01*
X505863Y601639D01*
X506006Y601709D01*
X506148Y601782D01*
X506287Y601859D01*
X506425Y601939D01*
X506561Y602023D01*
X506694Y602110D01*
X506826Y602200D01*
X506955Y602293D01*
X507081Y602390D01*
X507206Y602489D01*
X507328Y602592D01*
X507447Y602697D01*
X507564Y602806D01*
X507678Y602917D01*
X507789Y603031D01*
X507898Y603148D01*
X508003Y603267D01*
X508106Y603389D01*
X508205Y603514D01*
X508302Y603640D01*
X508395Y603769D01*
X508485Y603901D01*
X508572Y604034D01*
X508656Y604170D01*
X508736Y604308D01*
X508813Y604447D01*
X508886Y604589D01*
X508956Y604732D01*
X509022Y604877D01*
X509085Y605023D01*
X509144Y605171D01*
X509200Y605320D01*
X509251Y605471D01*
X509299Y605623D01*
X509344Y605776D01*
X509384Y605930D01*
X509421Y606085D01*
X509454Y606241D01*
X509483Y606397D01*
X509509Y606555D01*
X509530Y606712D01*
X509548Y606871D01*
X509561Y607029D01*
X509571Y607189D01*
X509577Y607348D01*
X509579Y607507D01*
X487941Y601016D02*
X487941Y624384D01*
X481450Y624384D01*
X481291Y624382D01*
X481132Y624376D01*
X480972Y624366D01*
X480814Y624353D01*
X480655Y624335D01*
X480498Y624314D01*
X480340Y624288D01*
X480184Y624259D01*
X480028Y624226D01*
X479873Y624189D01*
X479719Y624149D01*
X479566Y624104D01*
X479414Y624056D01*
X479263Y624005D01*
X479114Y623949D01*
X478966Y623890D01*
X478820Y623827D01*
X478675Y623761D01*
X478532Y623691D01*
X478390Y623618D01*
X478251Y623541D01*
X478113Y623461D01*
X477977Y623377D01*
X477844Y623290D01*
X477712Y623200D01*
X477583Y623107D01*
X477457Y623010D01*
X477332Y622911D01*
X477210Y622808D01*
X477091Y622703D01*
X476974Y622594D01*
X476860Y622483D01*
X476749Y622369D01*
X476640Y622252D01*
X476535Y622133D01*
X476432Y622011D01*
X476333Y621886D01*
X476236Y621760D01*
X476143Y621631D01*
X476053Y621499D01*
X475966Y621366D01*
X475882Y621230D01*
X475802Y621092D01*
X475725Y620953D01*
X475652Y620811D01*
X475582Y620668D01*
X475516Y620523D01*
X475453Y620377D01*
X475394Y620229D01*
X475338Y620080D01*
X475287Y619929D01*
X475239Y619777D01*
X475194Y619624D01*
X475154Y619470D01*
X475117Y619315D01*
X475084Y619159D01*
X475055Y619003D01*
X475029Y618845D01*
X475008Y618688D01*
X474990Y618529D01*
X474977Y618371D01*
X474967Y618211D01*
X474961Y618052D01*
X474959Y617893D01*
X474961Y617734D01*
X474967Y617575D01*
X474977Y617415D01*
X474990Y617257D01*
X475008Y617098D01*
X475029Y616941D01*
X475055Y616783D01*
X475084Y616627D01*
X475117Y616471D01*
X475154Y616316D01*
X475194Y616162D01*
X475239Y616009D01*
X475287Y615857D01*
X475338Y615706D01*
X475394Y615557D01*
X475453Y615409D01*
X475516Y615263D01*
X475582Y615118D01*
X475652Y614975D01*
X475725Y614833D01*
X475802Y614694D01*
X475882Y614556D01*
X475966Y614420D01*
X476053Y614287D01*
X476143Y614155D01*
X476236Y614026D01*
X476333Y613900D01*
X476432Y613775D01*
X476535Y613653D01*
X476640Y613534D01*
X476749Y613417D01*
X476860Y613303D01*
X476974Y613192D01*
X477091Y613083D01*
X477210Y612978D01*
X477332Y612875D01*
X477457Y612776D01*
X477583Y612679D01*
X477712Y612586D01*
X477844Y612496D01*
X477977Y612409D01*
X478113Y612325D01*
X478251Y612245D01*
X478390Y612168D01*
X478532Y612095D01*
X478675Y612025D01*
X478820Y611959D01*
X478966Y611896D01*
X479114Y611837D01*
X479263Y611781D01*
X479414Y611730D01*
X479566Y611682D01*
X479719Y611637D01*
X479873Y611597D01*
X480028Y611560D01*
X480184Y611527D01*
X480340Y611498D01*
X480498Y611472D01*
X480655Y611451D01*
X480814Y611433D01*
X480972Y611420D01*
X481132Y611410D01*
X481291Y611404D01*
X481450Y611402D01*
X487941Y611402D01*
X480152Y611402D02*
X474959Y601016D01*
X466336Y601016D02*
X466336Y624384D01*
X458547Y611402D01*
X450758Y624384D01*
X450758Y601016D01*
X441376Y607507D02*
X441376Y624384D01*
X441375Y607507D02*
X441373Y607348D01*
X441367Y607189D01*
X441357Y607029D01*
X441344Y606871D01*
X441326Y606712D01*
X441305Y606555D01*
X441279Y606397D01*
X441250Y606241D01*
X441217Y606085D01*
X441180Y605930D01*
X441140Y605776D01*
X441095Y605623D01*
X441047Y605471D01*
X440996Y605320D01*
X440940Y605171D01*
X440881Y605023D01*
X440818Y604877D01*
X440752Y604732D01*
X440682Y604589D01*
X440609Y604447D01*
X440532Y604308D01*
X440452Y604170D01*
X440368Y604034D01*
X440281Y603901D01*
X440191Y603769D01*
X440098Y603640D01*
X440001Y603514D01*
X439902Y603389D01*
X439799Y603267D01*
X439694Y603148D01*
X439585Y603031D01*
X439474Y602917D01*
X439360Y602806D01*
X439243Y602697D01*
X439124Y602592D01*
X439002Y602489D01*
X438877Y602390D01*
X438751Y602293D01*
X438622Y602200D01*
X438490Y602110D01*
X438357Y602023D01*
X438221Y601939D01*
X438083Y601859D01*
X437944Y601782D01*
X437802Y601709D01*
X437659Y601639D01*
X437514Y601573D01*
X437368Y601510D01*
X437220Y601451D01*
X437071Y601395D01*
X436920Y601344D01*
X436768Y601296D01*
X436615Y601251D01*
X436461Y601211D01*
X436306Y601174D01*
X436150Y601141D01*
X435994Y601112D01*
X435836Y601086D01*
X435679Y601065D01*
X435520Y601047D01*
X435362Y601034D01*
X435202Y601024D01*
X435043Y601018D01*
X434884Y601016D01*
X434725Y601018D01*
X434566Y601024D01*
X434406Y601034D01*
X434248Y601047D01*
X434089Y601065D01*
X433932Y601086D01*
X433774Y601112D01*
X433618Y601141D01*
X433462Y601174D01*
X433307Y601211D01*
X433153Y601251D01*
X433000Y601296D01*
X432848Y601344D01*
X432697Y601395D01*
X432548Y601451D01*
X432400Y601510D01*
X432254Y601573D01*
X432109Y601639D01*
X431966Y601709D01*
X431824Y601782D01*
X431685Y601859D01*
X431547Y601939D01*
X431411Y602023D01*
X431278Y602110D01*
X431146Y602200D01*
X431017Y602293D01*
X430891Y602390D01*
X430766Y602489D01*
X430644Y602592D01*
X430525Y602697D01*
X430408Y602806D01*
X430294Y602917D01*
X430183Y603031D01*
X430074Y603148D01*
X429969Y603267D01*
X429866Y603389D01*
X429767Y603514D01*
X429670Y603640D01*
X429577Y603769D01*
X429487Y603901D01*
X429400Y604034D01*
X429316Y604170D01*
X429236Y604308D01*
X429159Y604447D01*
X429086Y604589D01*
X429016Y604732D01*
X428950Y604877D01*
X428887Y605023D01*
X428828Y605171D01*
X428772Y605320D01*
X428721Y605471D01*
X428673Y605623D01*
X428628Y605776D01*
X428588Y605930D01*
X428551Y606085D01*
X428518Y606241D01*
X428489Y606397D01*
X428463Y606555D01*
X428442Y606712D01*
X428424Y606871D01*
X428411Y607029D01*
X428401Y607189D01*
X428395Y607348D01*
X428393Y607507D01*
X428393Y624384D01*
X419080Y624384D02*
X419080Y601016D01*
X408695Y601016D01*
X403004Y601016D02*
X395215Y624384D01*
X387425Y601016D01*
X389373Y606858D02*
X401057Y606858D01*
X368932Y601016D02*
X368932Y624384D01*
X362441Y624384D01*
X362282Y624382D01*
X362123Y624376D01*
X361963Y624366D01*
X361805Y624353D01*
X361646Y624335D01*
X361489Y624314D01*
X361331Y624288D01*
X361175Y624259D01*
X361019Y624226D01*
X360864Y624189D01*
X360710Y624149D01*
X360557Y624104D01*
X360405Y624056D01*
X360254Y624005D01*
X360105Y623949D01*
X359957Y623890D01*
X359811Y623827D01*
X359666Y623761D01*
X359523Y623691D01*
X359381Y623618D01*
X359242Y623541D01*
X359104Y623461D01*
X358968Y623377D01*
X358835Y623290D01*
X358703Y623200D01*
X358574Y623107D01*
X358448Y623010D01*
X358323Y622911D01*
X358201Y622808D01*
X358082Y622703D01*
X357965Y622594D01*
X357851Y622483D01*
X357740Y622369D01*
X357631Y622252D01*
X357526Y622133D01*
X357423Y622011D01*
X357324Y621886D01*
X357227Y621760D01*
X357134Y621631D01*
X357044Y621499D01*
X356957Y621366D01*
X356873Y621230D01*
X356793Y621092D01*
X356716Y620953D01*
X356643Y620811D01*
X356573Y620668D01*
X356507Y620523D01*
X356444Y620377D01*
X356385Y620229D01*
X356329Y620080D01*
X356278Y619929D01*
X356230Y619777D01*
X356185Y619624D01*
X356145Y619470D01*
X356108Y619315D01*
X356075Y619159D01*
X356046Y619003D01*
X356020Y618845D01*
X355999Y618688D01*
X355981Y618529D01*
X355968Y618371D01*
X355958Y618211D01*
X355952Y618052D01*
X355950Y617893D01*
X355952Y617734D01*
X355958Y617575D01*
X355968Y617415D01*
X355981Y617257D01*
X355999Y617098D01*
X356020Y616941D01*
X356046Y616783D01*
X356075Y616627D01*
X356108Y616471D01*
X356145Y616316D01*
X356185Y616162D01*
X356230Y616009D01*
X356278Y615857D01*
X356329Y615706D01*
X356385Y615557D01*
X356444Y615409D01*
X356507Y615263D01*
X356573Y615118D01*
X356643Y614975D01*
X356716Y614833D01*
X356793Y614694D01*
X356873Y614556D01*
X356957Y614420D01*
X357044Y614287D01*
X357134Y614155D01*
X357227Y614026D01*
X357324Y613900D01*
X357423Y613775D01*
X357526Y613653D01*
X357631Y613534D01*
X357740Y613417D01*
X357851Y613303D01*
X357965Y613192D01*
X358082Y613083D01*
X358201Y612978D01*
X358323Y612875D01*
X358448Y612776D01*
X358574Y612679D01*
X358703Y612586D01*
X358835Y612496D01*
X358968Y612409D01*
X359104Y612325D01*
X359242Y612245D01*
X359381Y612168D01*
X359523Y612095D01*
X359666Y612025D01*
X359811Y611959D01*
X359957Y611896D01*
X360105Y611837D01*
X360254Y611781D01*
X360405Y611730D01*
X360557Y611682D01*
X360710Y611637D01*
X360864Y611597D01*
X361019Y611560D01*
X361175Y611527D01*
X361331Y611498D01*
X361489Y611472D01*
X361646Y611451D01*
X361805Y611433D01*
X361963Y611420D01*
X362123Y611410D01*
X362282Y611404D01*
X362441Y611402D01*
X368932Y611402D01*
X361143Y611402D02*
X355950Y601016D01*
X349415Y601016D02*
X341626Y624384D01*
X333837Y601016D01*
X335784Y606858D02*
X347468Y606858D01*
X322069Y601016D02*
X316876Y601016D01*
X322069Y601016D02*
X322212Y601018D01*
X322355Y601024D01*
X322498Y601034D01*
X322640Y601048D01*
X322782Y601065D01*
X322924Y601087D01*
X323065Y601112D01*
X323205Y601142D01*
X323344Y601175D01*
X323482Y601212D01*
X323619Y601253D01*
X323755Y601297D01*
X323890Y601346D01*
X324023Y601398D01*
X324155Y601453D01*
X324285Y601513D01*
X324414Y601576D01*
X324541Y601642D01*
X324666Y601712D01*
X324788Y601785D01*
X324909Y601862D01*
X325028Y601942D01*
X325144Y602025D01*
X325259Y602111D01*
X325370Y602200D01*
X325480Y602293D01*
X325586Y602388D01*
X325690Y602487D01*
X325791Y602588D01*
X325890Y602692D01*
X325985Y602798D01*
X326078Y602908D01*
X326167Y603019D01*
X326253Y603134D01*
X326336Y603250D01*
X326416Y603369D01*
X326493Y603490D01*
X326566Y603613D01*
X326636Y603737D01*
X326702Y603864D01*
X326765Y603993D01*
X326825Y604123D01*
X326880Y604255D01*
X326932Y604388D01*
X326981Y604523D01*
X327025Y604659D01*
X327066Y604796D01*
X327103Y604934D01*
X327136Y605073D01*
X327166Y605213D01*
X327191Y605354D01*
X327213Y605496D01*
X327230Y605638D01*
X327244Y605780D01*
X327254Y605923D01*
X327260Y606066D01*
X327262Y606209D01*
X327262Y619191D01*
X327260Y619334D01*
X327254Y619477D01*
X327244Y619620D01*
X327230Y619762D01*
X327213Y619904D01*
X327191Y620046D01*
X327166Y620187D01*
X327136Y620327D01*
X327103Y620466D01*
X327066Y620604D01*
X327025Y620741D01*
X326981Y620877D01*
X326932Y621012D01*
X326880Y621145D01*
X326825Y621277D01*
X326765Y621407D01*
X326702Y621536D01*
X326636Y621663D01*
X326566Y621788D01*
X326493Y621910D01*
X326416Y622031D01*
X326336Y622150D01*
X326253Y622266D01*
X326167Y622381D01*
X326078Y622492D01*
X325985Y622602D01*
X325890Y622708D01*
X325791Y622812D01*
X325690Y622913D01*
X325586Y623012D01*
X325480Y623107D01*
X325370Y623200D01*
X325259Y623289D01*
X325144Y623375D01*
X325028Y623458D01*
X324909Y623538D01*
X324788Y623615D01*
X324666Y623688D01*
X324541Y623758D01*
X324414Y623824D01*
X324285Y623887D01*
X324155Y623947D01*
X324023Y624002D01*
X323890Y624054D01*
X323755Y624103D01*
X323619Y624147D01*
X323482Y624188D01*
X323344Y624225D01*
X323205Y624258D01*
X323065Y624288D01*
X322924Y624313D01*
X322782Y624335D01*
X322640Y624352D01*
X322498Y624366D01*
X322355Y624376D01*
X322212Y624382D01*
X322069Y624384D01*
X316876Y624384D01*
X307524Y624384D02*
X307524Y601016D01*
X310120Y601016D02*
X304928Y601016D01*
X304928Y624384D02*
X310120Y624384D01*
X296616Y624384D02*
X296616Y601016D01*
X283634Y601016D02*
X296616Y624384D01*
X283634Y624384D02*
X283634Y601016D01*
X265258Y613998D02*
X261363Y613998D01*
X261363Y601016D01*
X269153Y601016D01*
X269296Y601018D01*
X269439Y601024D01*
X269582Y601034D01*
X269724Y601048D01*
X269866Y601065D01*
X270008Y601087D01*
X270149Y601112D01*
X270289Y601142D01*
X270428Y601175D01*
X270566Y601212D01*
X270703Y601253D01*
X270839Y601297D01*
X270974Y601346D01*
X271107Y601398D01*
X271239Y601453D01*
X271369Y601513D01*
X271498Y601576D01*
X271625Y601642D01*
X271750Y601712D01*
X271872Y601785D01*
X271993Y601862D01*
X272112Y601942D01*
X272228Y602025D01*
X272343Y602111D01*
X272454Y602200D01*
X272564Y602293D01*
X272670Y602388D01*
X272774Y602487D01*
X272875Y602588D01*
X272974Y602692D01*
X273069Y602798D01*
X273162Y602908D01*
X273251Y603019D01*
X273337Y603134D01*
X273420Y603250D01*
X273500Y603369D01*
X273577Y603490D01*
X273650Y603613D01*
X273720Y603737D01*
X273786Y603864D01*
X273849Y603993D01*
X273909Y604123D01*
X273964Y604255D01*
X274016Y604388D01*
X274065Y604523D01*
X274109Y604659D01*
X274150Y604796D01*
X274187Y604934D01*
X274220Y605073D01*
X274250Y605213D01*
X274275Y605354D01*
X274297Y605496D01*
X274314Y605638D01*
X274328Y605780D01*
X274338Y605923D01*
X274344Y606066D01*
X274346Y606209D01*
X274345Y606209D02*
X274345Y619191D01*
X274346Y619191D02*
X274344Y619334D01*
X274338Y619477D01*
X274328Y619620D01*
X274314Y619762D01*
X274297Y619904D01*
X274275Y620046D01*
X274250Y620187D01*
X274220Y620327D01*
X274187Y620466D01*
X274150Y620604D01*
X274109Y620741D01*
X274065Y620877D01*
X274016Y621012D01*
X273964Y621145D01*
X273909Y621277D01*
X273849Y621407D01*
X273786Y621536D01*
X273720Y621663D01*
X273650Y621788D01*
X273577Y621910D01*
X273500Y622031D01*
X273420Y622150D01*
X273337Y622266D01*
X273251Y622381D01*
X273162Y622492D01*
X273069Y622602D01*
X272974Y622708D01*
X272875Y622812D01*
X272774Y622913D01*
X272670Y623012D01*
X272564Y623107D01*
X272454Y623200D01*
X272343Y623289D01*
X272228Y623375D01*
X272112Y623458D01*
X271993Y623538D01*
X271872Y623615D01*
X271750Y623688D01*
X271625Y623758D01*
X271498Y623824D01*
X271369Y623887D01*
X271239Y623947D01*
X271107Y624002D01*
X270974Y624054D01*
X270839Y624103D01*
X270703Y624147D01*
X270566Y624188D01*
X270428Y624225D01*
X270289Y624258D01*
X270149Y624288D01*
X270008Y624313D01*
X269866Y624335D01*
X269724Y624352D01*
X269582Y624366D01*
X269439Y624376D01*
X269296Y624382D01*
X269153Y624384D01*
X261363Y624384D01*
D12*
X710000Y109500D02*
X710000Y50000D01*
X750000Y50000D02*
X750000Y109500D01*
X709350Y90000D02*
X658000Y90000D01*
X750650Y90000D02*
X825628Y90000D01*
X709350Y90000D02*
X684000Y93192D01*
X684000Y86808D01*
X709350Y90000D01*
X684000Y91300D01*
X684000Y88700D02*
X709350Y90000D01*
X684000Y92600D01*
X684000Y87400D02*
X709350Y90000D01*
X750650Y90000D02*
X776000Y93192D01*
X776000Y86808D01*
X750650Y90000D01*
X776000Y91300D01*
X776000Y88700D02*
X750650Y90000D01*
X776000Y92600D01*
X776000Y87400D02*
X750650Y90000D01*
D10*
X821253Y112763D02*
X824866Y100119D01*
X815835Y100119D01*
X818544Y103732D02*
X818544Y96507D01*
X809860Y96507D02*
X809860Y97410D01*
X808957Y97410D01*
X808957Y96507D01*
X809860Y96507D01*
X802982Y104635D02*
X802978Y104955D01*
X802967Y105274D01*
X802948Y105594D01*
X802921Y105912D01*
X802887Y106230D01*
X802845Y106547D01*
X802795Y106863D01*
X802738Y107178D01*
X802674Y107491D01*
X802602Y107803D01*
X802523Y108113D01*
X802436Y108420D01*
X802342Y108726D01*
X802241Y109029D01*
X802132Y109330D01*
X802017Y109628D01*
X801894Y109924D01*
X801764Y110216D01*
X801627Y110505D01*
X801628Y110506D02*
X801589Y110614D01*
X801546Y110721D01*
X801500Y110826D01*
X801449Y110930D01*
X801396Y111032D01*
X801339Y111132D01*
X801278Y111230D01*
X801214Y111325D01*
X801147Y111419D01*
X801076Y111510D01*
X801003Y111599D01*
X800926Y111685D01*
X800847Y111768D01*
X800765Y111849D01*
X800680Y111927D01*
X800592Y112001D01*
X800502Y112073D01*
X800410Y112141D01*
X800315Y112207D01*
X800218Y112269D01*
X800119Y112327D01*
X800017Y112383D01*
X799915Y112434D01*
X799810Y112482D01*
X799704Y112527D01*
X799596Y112568D01*
X799487Y112605D01*
X799377Y112638D01*
X799265Y112667D01*
X799153Y112693D01*
X799040Y112715D01*
X798926Y112732D01*
X798812Y112746D01*
X798697Y112756D01*
X798582Y112762D01*
X798467Y112764D01*
X798467Y112763D02*
X798352Y112761D01*
X798237Y112755D01*
X798122Y112745D01*
X798008Y112731D01*
X797894Y112714D01*
X797781Y112692D01*
X797669Y112666D01*
X797557Y112637D01*
X797447Y112604D01*
X797338Y112567D01*
X797230Y112526D01*
X797124Y112481D01*
X797020Y112433D01*
X796917Y112382D01*
X796816Y112326D01*
X796716Y112268D01*
X796619Y112206D01*
X796525Y112141D01*
X796432Y112072D01*
X796342Y112000D01*
X796254Y111926D01*
X796169Y111848D01*
X796087Y111767D01*
X796008Y111684D01*
X795931Y111598D01*
X795858Y111509D01*
X795787Y111418D01*
X795720Y111324D01*
X795656Y111229D01*
X795595Y111131D01*
X795538Y111031D01*
X795485Y110929D01*
X795434Y110825D01*
X795388Y110720D01*
X795345Y110613D01*
X795306Y110505D01*
X795169Y110216D01*
X795039Y109924D01*
X794916Y109628D01*
X794801Y109330D01*
X794692Y109029D01*
X794591Y108726D01*
X794497Y108420D01*
X794410Y108113D01*
X794331Y107803D01*
X794259Y107491D01*
X794195Y107178D01*
X794138Y106863D01*
X794088Y106547D01*
X794046Y106230D01*
X794012Y105912D01*
X793985Y105594D01*
X793966Y105274D01*
X793955Y104955D01*
X793951Y104635D01*
X802982Y104635D02*
X802978Y104315D01*
X802967Y103996D01*
X802948Y103676D01*
X802921Y103358D01*
X802887Y103040D01*
X802845Y102723D01*
X802795Y102407D01*
X802738Y102092D01*
X802674Y101779D01*
X802602Y101467D01*
X802523Y101157D01*
X802436Y100850D01*
X802342Y100544D01*
X802241Y100241D01*
X802132Y99940D01*
X802017Y99642D01*
X801894Y99346D01*
X801764Y99054D01*
X801627Y98765D01*
X801628Y98765D02*
X801589Y98657D01*
X801546Y98550D01*
X801500Y98445D01*
X801449Y98341D01*
X801396Y98239D01*
X801339Y98139D01*
X801278Y98041D01*
X801214Y97946D01*
X801147Y97852D01*
X801076Y97761D01*
X801003Y97672D01*
X800926Y97586D01*
X800847Y97503D01*
X800765Y97422D01*
X800680Y97344D01*
X800592Y97270D01*
X800502Y97198D01*
X800409Y97129D01*
X800315Y97064D01*
X800218Y97002D01*
X800118Y96944D01*
X800017Y96888D01*
X799915Y96837D01*
X799810Y96789D01*
X799704Y96744D01*
X799596Y96703D01*
X799487Y96666D01*
X799377Y96633D01*
X799265Y96604D01*
X799153Y96578D01*
X799040Y96556D01*
X798926Y96539D01*
X798812Y96525D01*
X798697Y96515D01*
X798582Y96509D01*
X798467Y96507D01*
X795306Y98765D02*
X795169Y99054D01*
X795039Y99346D01*
X794916Y99642D01*
X794801Y99940D01*
X794692Y100241D01*
X794591Y100544D01*
X794497Y100850D01*
X794410Y101157D01*
X794331Y101467D01*
X794259Y101779D01*
X794195Y102092D01*
X794138Y102407D01*
X794088Y102723D01*
X794046Y103040D01*
X794012Y103358D01*
X793985Y103676D01*
X793966Y103996D01*
X793955Y104315D01*
X793951Y104635D01*
X795306Y98765D02*
X795345Y98657D01*
X795388Y98550D01*
X795434Y98445D01*
X795485Y98341D01*
X795538Y98239D01*
X795596Y98139D01*
X795656Y98041D01*
X795720Y97946D01*
X795787Y97852D01*
X795858Y97761D01*
X795931Y97672D01*
X796008Y97586D01*
X796087Y97503D01*
X796169Y97422D01*
X796254Y97344D01*
X796342Y97270D01*
X796432Y97198D01*
X796525Y97129D01*
X796619Y97064D01*
X796716Y97002D01*
X796816Y96944D01*
X796917Y96888D01*
X797020Y96837D01*
X797124Y96789D01*
X797230Y96744D01*
X797338Y96703D01*
X797447Y96666D01*
X797557Y96633D01*
X797669Y96604D01*
X797781Y96578D01*
X797894Y96556D01*
X798008Y96539D01*
X798122Y96525D01*
X798237Y96515D01*
X798352Y96509D01*
X798467Y96507D01*
X802079Y100119D02*
X794854Y109151D01*
X787351Y104635D02*
X787347Y104955D01*
X787336Y105274D01*
X787317Y105594D01*
X787290Y105912D01*
X787256Y106230D01*
X787214Y106547D01*
X787164Y106863D01*
X787107Y107178D01*
X787043Y107491D01*
X786971Y107803D01*
X786892Y108113D01*
X786805Y108420D01*
X786711Y108726D01*
X786610Y109029D01*
X786501Y109330D01*
X786386Y109628D01*
X786263Y109924D01*
X786133Y110216D01*
X785996Y110505D01*
X785996Y110506D02*
X785957Y110614D01*
X785914Y110721D01*
X785868Y110826D01*
X785817Y110930D01*
X785764Y111032D01*
X785707Y111132D01*
X785646Y111230D01*
X785582Y111325D01*
X785515Y111419D01*
X785444Y111510D01*
X785371Y111599D01*
X785294Y111685D01*
X785215Y111768D01*
X785133Y111849D01*
X785048Y111927D01*
X784960Y112001D01*
X784870Y112073D01*
X784778Y112141D01*
X784683Y112207D01*
X784586Y112269D01*
X784487Y112327D01*
X784385Y112383D01*
X784283Y112434D01*
X784178Y112482D01*
X784072Y112527D01*
X783964Y112568D01*
X783855Y112605D01*
X783745Y112638D01*
X783633Y112667D01*
X783521Y112693D01*
X783408Y112715D01*
X783294Y112732D01*
X783180Y112746D01*
X783065Y112756D01*
X782950Y112762D01*
X782835Y112764D01*
X782835Y112763D02*
X782720Y112761D01*
X782605Y112755D01*
X782490Y112745D01*
X782376Y112731D01*
X782262Y112714D01*
X782149Y112692D01*
X782037Y112666D01*
X781925Y112637D01*
X781815Y112604D01*
X781706Y112567D01*
X781598Y112526D01*
X781492Y112481D01*
X781388Y112433D01*
X781285Y112382D01*
X781184Y112326D01*
X781084Y112268D01*
X780987Y112206D01*
X780893Y112141D01*
X780800Y112072D01*
X780710Y112000D01*
X780622Y111926D01*
X780537Y111848D01*
X780455Y111767D01*
X780376Y111684D01*
X780299Y111598D01*
X780226Y111509D01*
X780155Y111418D01*
X780088Y111324D01*
X780024Y111229D01*
X779963Y111131D01*
X779906Y111031D01*
X779853Y110929D01*
X779802Y110825D01*
X779756Y110720D01*
X779713Y110613D01*
X779674Y110505D01*
X779675Y110505D02*
X779538Y110216D01*
X779408Y109924D01*
X779285Y109628D01*
X779170Y109330D01*
X779061Y109029D01*
X778960Y108726D01*
X778866Y108420D01*
X778779Y108113D01*
X778700Y107803D01*
X778628Y107491D01*
X778564Y107178D01*
X778507Y106863D01*
X778457Y106547D01*
X778415Y106230D01*
X778381Y105912D01*
X778354Y105594D01*
X778335Y105274D01*
X778324Y104955D01*
X778320Y104635D01*
X787351Y104635D02*
X787347Y104315D01*
X787336Y103996D01*
X787317Y103676D01*
X787290Y103358D01*
X787256Y103040D01*
X787214Y102723D01*
X787164Y102407D01*
X787107Y102092D01*
X787043Y101779D01*
X786971Y101467D01*
X786892Y101157D01*
X786805Y100850D01*
X786711Y100544D01*
X786610Y100241D01*
X786501Y99940D01*
X786386Y99642D01*
X786263Y99346D01*
X786133Y99054D01*
X785996Y98765D01*
X785957Y98657D01*
X785914Y98550D01*
X785868Y98445D01*
X785817Y98341D01*
X785764Y98239D01*
X785707Y98139D01*
X785646Y98041D01*
X785582Y97946D01*
X785515Y97852D01*
X785444Y97761D01*
X785371Y97672D01*
X785294Y97586D01*
X785215Y97503D01*
X785133Y97422D01*
X785048Y97344D01*
X784960Y97270D01*
X784870Y97198D01*
X784777Y97129D01*
X784683Y97064D01*
X784586Y97002D01*
X784486Y96944D01*
X784385Y96888D01*
X784283Y96837D01*
X784178Y96789D01*
X784072Y96744D01*
X783964Y96703D01*
X783855Y96666D01*
X783745Y96633D01*
X783633Y96604D01*
X783521Y96578D01*
X783408Y96556D01*
X783294Y96539D01*
X783180Y96525D01*
X783065Y96515D01*
X782950Y96509D01*
X782835Y96507D01*
X779675Y98765D02*
X779538Y99054D01*
X779408Y99346D01*
X779285Y99642D01*
X779170Y99940D01*
X779061Y100241D01*
X778960Y100544D01*
X778866Y100850D01*
X778779Y101157D01*
X778700Y101467D01*
X778628Y101779D01*
X778564Y102092D01*
X778507Y102407D01*
X778457Y102723D01*
X778415Y103040D01*
X778381Y103358D01*
X778354Y103676D01*
X778335Y103996D01*
X778324Y104315D01*
X778320Y104635D01*
X779674Y98765D02*
X779713Y98657D01*
X779756Y98550D01*
X779802Y98445D01*
X779853Y98341D01*
X779906Y98239D01*
X779964Y98139D01*
X780024Y98041D01*
X780088Y97946D01*
X780155Y97852D01*
X780226Y97761D01*
X780299Y97672D01*
X780376Y97586D01*
X780455Y97503D01*
X780537Y97422D01*
X780622Y97344D01*
X780710Y97270D01*
X780800Y97198D01*
X780893Y97129D01*
X780987Y97064D01*
X781084Y97002D01*
X781184Y96944D01*
X781285Y96888D01*
X781388Y96837D01*
X781492Y96789D01*
X781598Y96744D01*
X781706Y96703D01*
X781815Y96666D01*
X781925Y96633D01*
X782037Y96604D01*
X782149Y96578D01*
X782262Y96556D01*
X782376Y96539D01*
X782490Y96525D01*
X782605Y96515D01*
X782720Y96509D01*
X782835Y96507D01*
X786448Y100119D02*
X779223Y109151D01*
X139238Y477432D02*
X139238Y493688D01*
X139238Y486463D02*
X130207Y486463D01*
X130207Y493688D02*
X130207Y477432D01*
X121696Y477432D02*
X121696Y493688D01*
X123503Y477432D02*
X119890Y477432D01*
X119890Y493688D02*
X123503Y493688D01*
X106864Y486463D02*
X104155Y486463D01*
X104155Y477432D01*
X109574Y477432D01*
X109692Y477434D01*
X109810Y477440D01*
X109928Y477449D01*
X110045Y477463D01*
X110162Y477480D01*
X110279Y477501D01*
X110394Y477526D01*
X110509Y477555D01*
X110623Y477588D01*
X110735Y477624D01*
X110846Y477664D01*
X110956Y477707D01*
X111065Y477754D01*
X111172Y477804D01*
X111277Y477859D01*
X111380Y477916D01*
X111481Y477977D01*
X111581Y478041D01*
X111678Y478108D01*
X111773Y478178D01*
X111865Y478252D01*
X111956Y478328D01*
X112043Y478408D01*
X112128Y478490D01*
X112210Y478575D01*
X112290Y478662D01*
X112366Y478753D01*
X112440Y478845D01*
X112510Y478940D01*
X112577Y479037D01*
X112641Y479137D01*
X112702Y479238D01*
X112759Y479341D01*
X112814Y479446D01*
X112864Y479553D01*
X112911Y479662D01*
X112954Y479772D01*
X112994Y479883D01*
X113030Y479995D01*
X113063Y480109D01*
X113092Y480224D01*
X113117Y480339D01*
X113138Y480456D01*
X113155Y480573D01*
X113169Y480690D01*
X113178Y480808D01*
X113184Y480926D01*
X113186Y481044D01*
X113186Y490076D01*
X113184Y490194D01*
X113178Y490312D01*
X113169Y490430D01*
X113155Y490547D01*
X113138Y490664D01*
X113117Y490781D01*
X113092Y490896D01*
X113063Y491011D01*
X113030Y491125D01*
X112994Y491237D01*
X112954Y491348D01*
X112911Y491458D01*
X112864Y491567D01*
X112814Y491674D01*
X112759Y491779D01*
X112702Y491882D01*
X112641Y491983D01*
X112577Y492083D01*
X112510Y492180D01*
X112440Y492275D01*
X112366Y492367D01*
X112290Y492458D01*
X112210Y492545D01*
X112128Y492630D01*
X112043Y492712D01*
X111956Y492792D01*
X111865Y492868D01*
X111773Y492942D01*
X111678Y493012D01*
X111581Y493079D01*
X111481Y493143D01*
X111380Y493204D01*
X111277Y493261D01*
X111172Y493316D01*
X111065Y493366D01*
X110956Y493413D01*
X110846Y493456D01*
X110735Y493496D01*
X110623Y493532D01*
X110509Y493565D01*
X110394Y493594D01*
X110279Y493619D01*
X110162Y493640D01*
X110045Y493657D01*
X109928Y493671D01*
X109810Y493680D01*
X109692Y493686D01*
X109574Y493688D01*
X104155Y493688D01*
X96513Y493688D02*
X96513Y477432D01*
X96513Y486463D02*
X87482Y486463D01*
X87482Y493688D02*
X87482Y477432D01*
X139238Y467018D02*
X133819Y450762D01*
X128401Y467018D01*
X122704Y462502D02*
X122704Y455278D01*
X122704Y462502D02*
X122702Y462635D01*
X122696Y462767D01*
X122686Y462899D01*
X122673Y463031D01*
X122655Y463163D01*
X122634Y463293D01*
X122609Y463424D01*
X122580Y463553D01*
X122547Y463681D01*
X122511Y463809D01*
X122471Y463935D01*
X122427Y464060D01*
X122379Y464184D01*
X122328Y464306D01*
X122273Y464427D01*
X122215Y464546D01*
X122153Y464664D01*
X122088Y464779D01*
X122019Y464893D01*
X121948Y465004D01*
X121872Y465113D01*
X121794Y465220D01*
X121713Y465325D01*
X121628Y465427D01*
X121541Y465527D01*
X121451Y465624D01*
X121358Y465719D01*
X121262Y465810D01*
X121164Y465899D01*
X121063Y465985D01*
X120959Y466068D01*
X120853Y466148D01*
X120745Y466224D01*
X120635Y466298D01*
X120522Y466368D01*
X120408Y466435D01*
X120291Y466498D01*
X120173Y466558D01*
X120053Y466615D01*
X119931Y466668D01*
X119808Y466717D01*
X119684Y466763D01*
X119558Y466805D01*
X119431Y466843D01*
X119303Y466878D01*
X119174Y466909D01*
X119045Y466936D01*
X118914Y466959D01*
X118783Y466979D01*
X118651Y466994D01*
X118519Y467006D01*
X118387Y467014D01*
X118254Y467018D01*
X118122Y467018D01*
X117989Y467014D01*
X117857Y467006D01*
X117725Y466994D01*
X117593Y466979D01*
X117462Y466959D01*
X117331Y466936D01*
X117202Y466909D01*
X117073Y466878D01*
X116945Y466843D01*
X116818Y466805D01*
X116692Y466763D01*
X116568Y466717D01*
X116445Y466668D01*
X116323Y466615D01*
X116203Y466558D01*
X116085Y466498D01*
X115968Y466435D01*
X115854Y466368D01*
X115741Y466298D01*
X115631Y466224D01*
X115523Y466148D01*
X115417Y466068D01*
X115313Y465985D01*
X115212Y465899D01*
X115114Y465810D01*
X115018Y465719D01*
X114925Y465624D01*
X114835Y465527D01*
X114748Y465427D01*
X114663Y465325D01*
X114582Y465220D01*
X114504Y465113D01*
X114428Y465004D01*
X114357Y464893D01*
X114288Y464779D01*
X114223Y464664D01*
X114161Y464546D01*
X114103Y464427D01*
X114048Y464306D01*
X113997Y464184D01*
X113949Y464060D01*
X113905Y463935D01*
X113865Y463809D01*
X113829Y463681D01*
X113796Y463553D01*
X113767Y463424D01*
X113742Y463293D01*
X113721Y463163D01*
X113703Y463031D01*
X113690Y462899D01*
X113680Y462767D01*
X113674Y462635D01*
X113672Y462502D01*
X113673Y462502D02*
X113673Y455278D01*
X113672Y455278D02*
X113674Y455145D01*
X113680Y455013D01*
X113690Y454881D01*
X113703Y454749D01*
X113721Y454617D01*
X113742Y454487D01*
X113767Y454356D01*
X113796Y454227D01*
X113829Y454099D01*
X113865Y453971D01*
X113905Y453845D01*
X113949Y453720D01*
X113997Y453596D01*
X114048Y453474D01*
X114103Y453353D01*
X114161Y453234D01*
X114223Y453116D01*
X114288Y453001D01*
X114357Y452887D01*
X114428Y452776D01*
X114504Y452667D01*
X114582Y452560D01*
X114663Y452455D01*
X114748Y452353D01*
X114835Y452253D01*
X114925Y452156D01*
X115018Y452061D01*
X115114Y451970D01*
X115212Y451881D01*
X115313Y451795D01*
X115417Y451712D01*
X115523Y451632D01*
X115631Y451556D01*
X115741Y451482D01*
X115854Y451412D01*
X115968Y451345D01*
X116085Y451282D01*
X116203Y451222D01*
X116323Y451165D01*
X116445Y451112D01*
X116568Y451063D01*
X116692Y451017D01*
X116818Y450975D01*
X116945Y450937D01*
X117073Y450902D01*
X117202Y450871D01*
X117331Y450844D01*
X117462Y450821D01*
X117593Y450801D01*
X117725Y450786D01*
X117857Y450774D01*
X117989Y450766D01*
X118122Y450762D01*
X118254Y450762D01*
X118387Y450766D01*
X118519Y450774D01*
X118651Y450786D01*
X118783Y450801D01*
X118914Y450821D01*
X119045Y450844D01*
X119174Y450871D01*
X119303Y450902D01*
X119431Y450937D01*
X119558Y450975D01*
X119684Y451017D01*
X119808Y451063D01*
X119931Y451112D01*
X120053Y451165D01*
X120173Y451222D01*
X120291Y451282D01*
X120408Y451345D01*
X120522Y451412D01*
X120635Y451482D01*
X120745Y451556D01*
X120853Y451632D01*
X120959Y451712D01*
X121063Y451795D01*
X121164Y451881D01*
X121262Y451970D01*
X121358Y452061D01*
X121451Y452156D01*
X121541Y452253D01*
X121628Y452353D01*
X121713Y452455D01*
X121794Y452560D01*
X121872Y452667D01*
X121948Y452776D01*
X122019Y452887D01*
X122088Y453001D01*
X122153Y453116D01*
X122215Y453234D01*
X122273Y453353D01*
X122328Y453474D01*
X122379Y453596D01*
X122427Y453720D01*
X122471Y453845D01*
X122511Y453971D01*
X122547Y454099D01*
X122580Y454227D01*
X122609Y454356D01*
X122634Y454487D01*
X122655Y454617D01*
X122673Y454749D01*
X122686Y454881D01*
X122696Y455013D01*
X122702Y455145D01*
X122704Y455278D01*
X106522Y450762D02*
X106522Y467018D01*
X106522Y450762D02*
X99297Y450762D01*
X90052Y450762D02*
X90052Y467018D01*
X94567Y467018D02*
X85536Y467018D01*
X75463Y467018D02*
X80881Y450762D01*
X70044Y450762D02*
X75463Y467018D01*
X71399Y454826D02*
X79527Y454826D01*
X57504Y459793D02*
X54795Y459793D01*
X54795Y450762D01*
X60214Y450762D01*
X60332Y450764D01*
X60450Y450770D01*
X60568Y450779D01*
X60685Y450793D01*
X60802Y450810D01*
X60919Y450831D01*
X61034Y450856D01*
X61149Y450885D01*
X61263Y450918D01*
X61375Y450954D01*
X61486Y450994D01*
X61596Y451037D01*
X61705Y451084D01*
X61812Y451134D01*
X61917Y451189D01*
X62020Y451246D01*
X62121Y451307D01*
X62221Y451371D01*
X62318Y451438D01*
X62413Y451508D01*
X62505Y451582D01*
X62596Y451658D01*
X62683Y451738D01*
X62768Y451820D01*
X62850Y451905D01*
X62930Y451992D01*
X63006Y452083D01*
X63080Y452175D01*
X63150Y452270D01*
X63217Y452367D01*
X63281Y452467D01*
X63342Y452568D01*
X63399Y452671D01*
X63454Y452776D01*
X63504Y452883D01*
X63551Y452992D01*
X63594Y453102D01*
X63634Y453213D01*
X63670Y453325D01*
X63703Y453439D01*
X63732Y453554D01*
X63757Y453669D01*
X63778Y453786D01*
X63795Y453903D01*
X63809Y454020D01*
X63818Y454138D01*
X63824Y454256D01*
X63826Y454374D01*
X63826Y463406D01*
X63824Y463524D01*
X63818Y463642D01*
X63809Y463760D01*
X63795Y463877D01*
X63778Y463994D01*
X63757Y464111D01*
X63732Y464226D01*
X63703Y464341D01*
X63670Y464455D01*
X63634Y464567D01*
X63594Y464678D01*
X63551Y464788D01*
X63504Y464897D01*
X63454Y465004D01*
X63399Y465109D01*
X63342Y465212D01*
X63281Y465313D01*
X63217Y465413D01*
X63150Y465510D01*
X63080Y465605D01*
X63006Y465697D01*
X62930Y465788D01*
X62850Y465875D01*
X62768Y465960D01*
X62683Y466042D01*
X62596Y466122D01*
X62505Y466198D01*
X62413Y466272D01*
X62318Y466342D01*
X62221Y466409D01*
X62121Y466473D01*
X62020Y466534D01*
X61917Y466591D01*
X61812Y466646D01*
X61705Y466696D01*
X61596Y466743D01*
X61486Y466786D01*
X61375Y466826D01*
X61263Y466862D01*
X61149Y466895D01*
X61034Y466924D01*
X60919Y466949D01*
X60802Y466970D01*
X60685Y466987D01*
X60568Y467001D01*
X60450Y467010D01*
X60332Y467016D01*
X60214Y467018D01*
X54795Y467018D01*
X47123Y450762D02*
X39898Y450762D01*
X47123Y450762D02*
X47123Y467018D01*
X39898Y467018D01*
X41704Y459793D02*
X47123Y459793D01*
X664238Y73688D02*
X664238Y57432D01*
X664238Y66463D02*
X655207Y66463D01*
X655207Y73688D02*
X655207Y57432D01*
X646696Y57432D02*
X646696Y73688D01*
X648503Y57432D02*
X644890Y57432D01*
X644890Y73688D02*
X648503Y73688D01*
X631864Y66463D02*
X629155Y66463D01*
X629155Y57432D01*
X634574Y57432D01*
X634692Y57434D01*
X634810Y57440D01*
X634928Y57449D01*
X635045Y57463D01*
X635162Y57480D01*
X635279Y57501D01*
X635394Y57526D01*
X635509Y57555D01*
X635623Y57588D01*
X635735Y57624D01*
X635846Y57664D01*
X635956Y57707D01*
X636065Y57754D01*
X636172Y57804D01*
X636277Y57859D01*
X636380Y57916D01*
X636481Y57977D01*
X636581Y58041D01*
X636678Y58108D01*
X636773Y58178D01*
X636865Y58252D01*
X636956Y58328D01*
X637043Y58408D01*
X637128Y58490D01*
X637210Y58575D01*
X637290Y58662D01*
X637366Y58753D01*
X637440Y58845D01*
X637510Y58940D01*
X637577Y59037D01*
X637641Y59137D01*
X637702Y59238D01*
X637759Y59341D01*
X637814Y59446D01*
X637864Y59553D01*
X637911Y59662D01*
X637954Y59772D01*
X637994Y59883D01*
X638030Y59995D01*
X638063Y60109D01*
X638092Y60224D01*
X638117Y60339D01*
X638138Y60456D01*
X638155Y60573D01*
X638169Y60690D01*
X638178Y60808D01*
X638184Y60926D01*
X638186Y61044D01*
X638186Y70076D01*
X638184Y70194D01*
X638178Y70312D01*
X638169Y70430D01*
X638155Y70547D01*
X638138Y70664D01*
X638117Y70781D01*
X638092Y70896D01*
X638063Y71011D01*
X638030Y71125D01*
X637994Y71237D01*
X637954Y71348D01*
X637911Y71458D01*
X637864Y71567D01*
X637814Y71674D01*
X637759Y71779D01*
X637702Y71882D01*
X637641Y71983D01*
X637577Y72083D01*
X637510Y72180D01*
X637440Y72275D01*
X637366Y72367D01*
X637290Y72458D01*
X637210Y72545D01*
X637128Y72630D01*
X637043Y72712D01*
X636956Y72792D01*
X636865Y72868D01*
X636773Y72942D01*
X636678Y73012D01*
X636581Y73079D01*
X636481Y73143D01*
X636380Y73204D01*
X636277Y73261D01*
X636172Y73316D01*
X636065Y73366D01*
X635956Y73413D01*
X635846Y73456D01*
X635735Y73496D01*
X635623Y73532D01*
X635509Y73565D01*
X635394Y73594D01*
X635279Y73619D01*
X635162Y73640D01*
X635045Y73657D01*
X634928Y73671D01*
X634810Y73680D01*
X634692Y73686D01*
X634574Y73688D01*
X629155Y73688D01*
X621513Y73688D02*
X621513Y57432D01*
X621513Y66463D02*
X612482Y66463D01*
X612482Y73688D02*
X612482Y57432D01*
X664238Y47018D02*
X658819Y30762D01*
X653401Y47018D01*
X647704Y42502D02*
X647704Y35278D01*
X647704Y42502D02*
X647702Y42635D01*
X647696Y42767D01*
X647686Y42899D01*
X647673Y43031D01*
X647655Y43163D01*
X647634Y43293D01*
X647609Y43424D01*
X647580Y43553D01*
X647547Y43681D01*
X647511Y43809D01*
X647471Y43935D01*
X647427Y44060D01*
X647379Y44184D01*
X647328Y44306D01*
X647273Y44427D01*
X647215Y44546D01*
X647153Y44664D01*
X647088Y44779D01*
X647019Y44893D01*
X646948Y45004D01*
X646872Y45113D01*
X646794Y45220D01*
X646713Y45325D01*
X646628Y45427D01*
X646541Y45527D01*
X646451Y45624D01*
X646358Y45719D01*
X646262Y45810D01*
X646164Y45899D01*
X646063Y45985D01*
X645959Y46068D01*
X645853Y46148D01*
X645745Y46224D01*
X645635Y46298D01*
X645522Y46368D01*
X645408Y46435D01*
X645291Y46498D01*
X645173Y46558D01*
X645053Y46615D01*
X644931Y46668D01*
X644808Y46717D01*
X644684Y46763D01*
X644558Y46805D01*
X644431Y46843D01*
X644303Y46878D01*
X644174Y46909D01*
X644045Y46936D01*
X643914Y46959D01*
X643783Y46979D01*
X643651Y46994D01*
X643519Y47006D01*
X643387Y47014D01*
X643254Y47018D01*
X643122Y47018D01*
X642989Y47014D01*
X642857Y47006D01*
X642725Y46994D01*
X642593Y46979D01*
X642462Y46959D01*
X642331Y46936D01*
X642202Y46909D01*
X642073Y46878D01*
X641945Y46843D01*
X641818Y46805D01*
X641692Y46763D01*
X641568Y46717D01*
X641445Y46668D01*
X641323Y46615D01*
X641203Y46558D01*
X641085Y46498D01*
X640968Y46435D01*
X640854Y46368D01*
X640741Y46298D01*
X640631Y46224D01*
X640523Y46148D01*
X640417Y46068D01*
X640313Y45985D01*
X640212Y45899D01*
X640114Y45810D01*
X640018Y45719D01*
X639925Y45624D01*
X639835Y45527D01*
X639748Y45427D01*
X639663Y45325D01*
X639582Y45220D01*
X639504Y45113D01*
X639428Y45004D01*
X639357Y44893D01*
X639288Y44779D01*
X639223Y44664D01*
X639161Y44546D01*
X639103Y44427D01*
X639048Y44306D01*
X638997Y44184D01*
X638949Y44060D01*
X638905Y43935D01*
X638865Y43809D01*
X638829Y43681D01*
X638796Y43553D01*
X638767Y43424D01*
X638742Y43293D01*
X638721Y43163D01*
X638703Y43031D01*
X638690Y42899D01*
X638680Y42767D01*
X638674Y42635D01*
X638672Y42502D01*
X638673Y42502D02*
X638673Y35278D01*
X638672Y35278D02*
X638674Y35145D01*
X638680Y35013D01*
X638690Y34881D01*
X638703Y34749D01*
X638721Y34617D01*
X638742Y34487D01*
X638767Y34356D01*
X638796Y34227D01*
X638829Y34099D01*
X638865Y33971D01*
X638905Y33845D01*
X638949Y33720D01*
X638997Y33596D01*
X639048Y33474D01*
X639103Y33353D01*
X639161Y33234D01*
X639223Y33116D01*
X639288Y33001D01*
X639357Y32887D01*
X639428Y32776D01*
X639504Y32667D01*
X639582Y32560D01*
X639663Y32455D01*
X639748Y32353D01*
X639835Y32253D01*
X639925Y32156D01*
X640018Y32061D01*
X640114Y31970D01*
X640212Y31881D01*
X640313Y31795D01*
X640417Y31712D01*
X640523Y31632D01*
X640631Y31556D01*
X640741Y31482D01*
X640854Y31412D01*
X640968Y31345D01*
X641085Y31282D01*
X641203Y31222D01*
X641323Y31165D01*
X641445Y31112D01*
X641568Y31063D01*
X641692Y31017D01*
X641818Y30975D01*
X641945Y30937D01*
X642073Y30902D01*
X642202Y30871D01*
X642331Y30844D01*
X642462Y30821D01*
X642593Y30801D01*
X642725Y30786D01*
X642857Y30774D01*
X642989Y30766D01*
X643122Y30762D01*
X643254Y30762D01*
X643387Y30766D01*
X643519Y30774D01*
X643651Y30786D01*
X643783Y30801D01*
X643914Y30821D01*
X644045Y30844D01*
X644174Y30871D01*
X644303Y30902D01*
X644431Y30937D01*
X644558Y30975D01*
X644684Y31017D01*
X644808Y31063D01*
X644931Y31112D01*
X645053Y31165D01*
X645173Y31222D01*
X645291Y31282D01*
X645408Y31345D01*
X645522Y31412D01*
X645635Y31482D01*
X645745Y31556D01*
X645853Y31632D01*
X645959Y31712D01*
X646063Y31795D01*
X646164Y31881D01*
X646262Y31970D01*
X646358Y32061D01*
X646451Y32156D01*
X646541Y32253D01*
X646628Y32353D01*
X646713Y32455D01*
X646794Y32560D01*
X646872Y32667D01*
X646948Y32776D01*
X647019Y32887D01*
X647088Y33001D01*
X647153Y33116D01*
X647215Y33234D01*
X647273Y33353D01*
X647328Y33474D01*
X647379Y33596D01*
X647427Y33720D01*
X647471Y33845D01*
X647511Y33971D01*
X647547Y34099D01*
X647580Y34227D01*
X647609Y34356D01*
X647634Y34487D01*
X647655Y34617D01*
X647673Y34749D01*
X647686Y34881D01*
X647696Y35013D01*
X647702Y35145D01*
X647704Y35278D01*
X631522Y30762D02*
X631522Y47018D01*
X631522Y30762D02*
X624297Y30762D01*
X615052Y30762D02*
X615052Y47018D01*
X619567Y47018D02*
X610536Y47018D01*
X600463Y47018D02*
X605881Y30762D01*
X595044Y30762D02*
X600463Y47018D01*
X596399Y34826D02*
X604527Y34826D01*
X582504Y39793D02*
X579795Y39793D01*
X579795Y30762D01*
X585214Y30762D01*
X585332Y30764D01*
X585450Y30770D01*
X585568Y30779D01*
X585685Y30793D01*
X585802Y30810D01*
X585919Y30831D01*
X586034Y30856D01*
X586149Y30885D01*
X586263Y30918D01*
X586375Y30954D01*
X586486Y30994D01*
X586596Y31037D01*
X586705Y31084D01*
X586812Y31134D01*
X586917Y31189D01*
X587020Y31246D01*
X587121Y31307D01*
X587221Y31371D01*
X587318Y31438D01*
X587413Y31508D01*
X587505Y31582D01*
X587596Y31658D01*
X587683Y31738D01*
X587768Y31820D01*
X587850Y31905D01*
X587930Y31992D01*
X588006Y32083D01*
X588080Y32175D01*
X588150Y32270D01*
X588217Y32367D01*
X588281Y32467D01*
X588342Y32568D01*
X588399Y32671D01*
X588454Y32776D01*
X588504Y32883D01*
X588551Y32992D01*
X588594Y33102D01*
X588634Y33213D01*
X588670Y33325D01*
X588703Y33439D01*
X588732Y33554D01*
X588757Y33669D01*
X588778Y33786D01*
X588795Y33903D01*
X588809Y34020D01*
X588818Y34138D01*
X588824Y34256D01*
X588826Y34374D01*
X588826Y43406D01*
X588824Y43524D01*
X588818Y43642D01*
X588809Y43760D01*
X588795Y43877D01*
X588778Y43994D01*
X588757Y44111D01*
X588732Y44226D01*
X588703Y44341D01*
X588670Y44455D01*
X588634Y44567D01*
X588594Y44678D01*
X588551Y44788D01*
X588504Y44897D01*
X588454Y45004D01*
X588399Y45109D01*
X588342Y45212D01*
X588281Y45313D01*
X588217Y45413D01*
X588150Y45510D01*
X588080Y45605D01*
X588006Y45697D01*
X587930Y45788D01*
X587850Y45875D01*
X587768Y45960D01*
X587683Y46042D01*
X587596Y46122D01*
X587505Y46198D01*
X587413Y46272D01*
X587318Y46342D01*
X587221Y46409D01*
X587121Y46473D01*
X587020Y46534D01*
X586917Y46591D01*
X586812Y46646D01*
X586705Y46696D01*
X586596Y46743D01*
X586486Y46786D01*
X586375Y46826D01*
X586263Y46862D01*
X586149Y46895D01*
X586034Y46924D01*
X585919Y46949D01*
X585802Y46970D01*
X585685Y46987D01*
X585568Y47001D01*
X585450Y47010D01*
X585332Y47016D01*
X585214Y47018D01*
X579795Y47018D01*
X572123Y30762D02*
X564898Y30762D01*
X572123Y30762D02*
X572123Y47018D01*
X564898Y47018D01*
X566704Y39793D02*
X572123Y39793D01*
X939238Y57432D02*
X939238Y73688D01*
X939238Y57432D02*
X932013Y57432D01*
X926242Y61948D02*
X926242Y69172D01*
X926240Y69305D01*
X926234Y69437D01*
X926224Y69569D01*
X926211Y69701D01*
X926193Y69833D01*
X926172Y69963D01*
X926147Y70094D01*
X926118Y70223D01*
X926085Y70351D01*
X926049Y70479D01*
X926009Y70605D01*
X925965Y70730D01*
X925917Y70854D01*
X925866Y70976D01*
X925811Y71097D01*
X925753Y71216D01*
X925691Y71334D01*
X925626Y71449D01*
X925557Y71563D01*
X925486Y71674D01*
X925410Y71783D01*
X925332Y71890D01*
X925251Y71995D01*
X925166Y72097D01*
X925079Y72197D01*
X924989Y72294D01*
X924896Y72389D01*
X924800Y72480D01*
X924702Y72569D01*
X924601Y72655D01*
X924497Y72738D01*
X924391Y72818D01*
X924283Y72894D01*
X924173Y72968D01*
X924060Y73038D01*
X923946Y73105D01*
X923829Y73168D01*
X923711Y73228D01*
X923591Y73285D01*
X923469Y73338D01*
X923346Y73387D01*
X923222Y73433D01*
X923096Y73475D01*
X922969Y73513D01*
X922841Y73548D01*
X922712Y73579D01*
X922583Y73606D01*
X922452Y73629D01*
X922321Y73649D01*
X922189Y73664D01*
X922057Y73676D01*
X921925Y73684D01*
X921792Y73688D01*
X921660Y73688D01*
X921527Y73684D01*
X921395Y73676D01*
X921263Y73664D01*
X921131Y73649D01*
X921000Y73629D01*
X920869Y73606D01*
X920740Y73579D01*
X920611Y73548D01*
X920483Y73513D01*
X920356Y73475D01*
X920230Y73433D01*
X920106Y73387D01*
X919983Y73338D01*
X919861Y73285D01*
X919741Y73228D01*
X919623Y73168D01*
X919506Y73105D01*
X919392Y73038D01*
X919279Y72968D01*
X919169Y72894D01*
X919061Y72818D01*
X918955Y72738D01*
X918851Y72655D01*
X918750Y72569D01*
X918652Y72480D01*
X918556Y72389D01*
X918463Y72294D01*
X918373Y72197D01*
X918286Y72097D01*
X918201Y71995D01*
X918120Y71890D01*
X918042Y71783D01*
X917966Y71674D01*
X917895Y71563D01*
X917826Y71449D01*
X917761Y71334D01*
X917699Y71216D01*
X917641Y71097D01*
X917586Y70976D01*
X917535Y70854D01*
X917487Y70730D01*
X917443Y70605D01*
X917403Y70479D01*
X917367Y70351D01*
X917334Y70223D01*
X917305Y70094D01*
X917280Y69963D01*
X917259Y69833D01*
X917241Y69701D01*
X917228Y69569D01*
X917218Y69437D01*
X917212Y69305D01*
X917210Y69172D01*
X917211Y69172D02*
X917211Y61948D01*
X917210Y61948D02*
X917212Y61815D01*
X917218Y61683D01*
X917228Y61551D01*
X917241Y61419D01*
X917259Y61287D01*
X917280Y61157D01*
X917305Y61026D01*
X917334Y60897D01*
X917367Y60769D01*
X917403Y60641D01*
X917443Y60515D01*
X917487Y60390D01*
X917535Y60266D01*
X917586Y60144D01*
X917641Y60023D01*
X917699Y59904D01*
X917761Y59786D01*
X917826Y59671D01*
X917895Y59557D01*
X917966Y59446D01*
X918042Y59337D01*
X918120Y59230D01*
X918201Y59125D01*
X918286Y59023D01*
X918373Y58923D01*
X918463Y58826D01*
X918556Y58731D01*
X918652Y58640D01*
X918750Y58551D01*
X918851Y58465D01*
X918955Y58382D01*
X919061Y58302D01*
X919169Y58226D01*
X919279Y58152D01*
X919392Y58082D01*
X919506Y58015D01*
X919623Y57952D01*
X919741Y57892D01*
X919861Y57835D01*
X919983Y57782D01*
X920106Y57733D01*
X920230Y57687D01*
X920356Y57645D01*
X920483Y57607D01*
X920611Y57572D01*
X920740Y57541D01*
X920869Y57514D01*
X921000Y57491D01*
X921131Y57471D01*
X921263Y57456D01*
X921395Y57444D01*
X921527Y57436D01*
X921660Y57432D01*
X921792Y57432D01*
X921925Y57436D01*
X922057Y57444D01*
X922189Y57456D01*
X922321Y57471D01*
X922452Y57491D01*
X922583Y57514D01*
X922712Y57541D01*
X922841Y57572D01*
X922969Y57607D01*
X923096Y57645D01*
X923222Y57687D01*
X923346Y57733D01*
X923469Y57782D01*
X923591Y57835D01*
X923711Y57892D01*
X923829Y57952D01*
X923946Y58015D01*
X924060Y58082D01*
X924173Y58152D01*
X924283Y58226D01*
X924391Y58302D01*
X924497Y58382D01*
X924601Y58465D01*
X924702Y58551D01*
X924800Y58640D01*
X924896Y58731D01*
X924989Y58826D01*
X925079Y58923D01*
X925166Y59023D01*
X925251Y59125D01*
X925332Y59230D01*
X925410Y59337D01*
X925486Y59446D01*
X925557Y59557D01*
X925626Y59671D01*
X925691Y59786D01*
X925753Y59904D01*
X925811Y60023D01*
X925866Y60144D01*
X925917Y60266D01*
X925965Y60390D01*
X926009Y60515D01*
X926049Y60641D01*
X926085Y60769D01*
X926118Y60897D01*
X926147Y61026D01*
X926172Y61157D01*
X926193Y61287D01*
X926211Y61419D01*
X926224Y61551D01*
X926234Y61683D01*
X926240Y61815D01*
X926242Y61948D01*
X911236Y73688D02*
X907623Y57432D01*
X904011Y68269D01*
X900398Y57432D01*
X896786Y73688D01*
X939238Y47018D02*
X933819Y30762D01*
X928401Y47018D01*
X922704Y42502D02*
X922704Y35278D01*
X922704Y42502D02*
X922702Y42635D01*
X922696Y42767D01*
X922686Y42899D01*
X922673Y43031D01*
X922655Y43163D01*
X922634Y43293D01*
X922609Y43424D01*
X922580Y43553D01*
X922547Y43681D01*
X922511Y43809D01*
X922471Y43935D01*
X922427Y44060D01*
X922379Y44184D01*
X922328Y44306D01*
X922273Y44427D01*
X922215Y44546D01*
X922153Y44664D01*
X922088Y44779D01*
X922019Y44893D01*
X921948Y45004D01*
X921872Y45113D01*
X921794Y45220D01*
X921713Y45325D01*
X921628Y45427D01*
X921541Y45527D01*
X921451Y45624D01*
X921358Y45719D01*
X921262Y45810D01*
X921164Y45899D01*
X921063Y45985D01*
X920959Y46068D01*
X920853Y46148D01*
X920745Y46224D01*
X920635Y46298D01*
X920522Y46368D01*
X920408Y46435D01*
X920291Y46498D01*
X920173Y46558D01*
X920053Y46615D01*
X919931Y46668D01*
X919808Y46717D01*
X919684Y46763D01*
X919558Y46805D01*
X919431Y46843D01*
X919303Y46878D01*
X919174Y46909D01*
X919045Y46936D01*
X918914Y46959D01*
X918783Y46979D01*
X918651Y46994D01*
X918519Y47006D01*
X918387Y47014D01*
X918254Y47018D01*
X918122Y47018D01*
X917989Y47014D01*
X917857Y47006D01*
X917725Y46994D01*
X917593Y46979D01*
X917462Y46959D01*
X917331Y46936D01*
X917202Y46909D01*
X917073Y46878D01*
X916945Y46843D01*
X916818Y46805D01*
X916692Y46763D01*
X916568Y46717D01*
X916445Y46668D01*
X916323Y46615D01*
X916203Y46558D01*
X916085Y46498D01*
X915968Y46435D01*
X915854Y46368D01*
X915741Y46298D01*
X915631Y46224D01*
X915523Y46148D01*
X915417Y46068D01*
X915313Y45985D01*
X915212Y45899D01*
X915114Y45810D01*
X915018Y45719D01*
X914925Y45624D01*
X914835Y45527D01*
X914748Y45427D01*
X914663Y45325D01*
X914582Y45220D01*
X914504Y45113D01*
X914428Y45004D01*
X914357Y44893D01*
X914288Y44779D01*
X914223Y44664D01*
X914161Y44546D01*
X914103Y44427D01*
X914048Y44306D01*
X913997Y44184D01*
X913949Y44060D01*
X913905Y43935D01*
X913865Y43809D01*
X913829Y43681D01*
X913796Y43553D01*
X913767Y43424D01*
X913742Y43293D01*
X913721Y43163D01*
X913703Y43031D01*
X913690Y42899D01*
X913680Y42767D01*
X913674Y42635D01*
X913672Y42502D01*
X913673Y42502D02*
X913673Y35278D01*
X913672Y35278D02*
X913674Y35145D01*
X913680Y35013D01*
X913690Y34881D01*
X913703Y34749D01*
X913721Y34617D01*
X913742Y34487D01*
X913767Y34356D01*
X913796Y34227D01*
X913829Y34099D01*
X913865Y33971D01*
X913905Y33845D01*
X913949Y33720D01*
X913997Y33596D01*
X914048Y33474D01*
X914103Y33353D01*
X914161Y33234D01*
X914223Y33116D01*
X914288Y33001D01*
X914357Y32887D01*
X914428Y32776D01*
X914504Y32667D01*
X914582Y32560D01*
X914663Y32455D01*
X914748Y32353D01*
X914835Y32253D01*
X914925Y32156D01*
X915018Y32061D01*
X915114Y31970D01*
X915212Y31881D01*
X915313Y31795D01*
X915417Y31712D01*
X915523Y31632D01*
X915631Y31556D01*
X915741Y31482D01*
X915854Y31412D01*
X915968Y31345D01*
X916085Y31282D01*
X916203Y31222D01*
X916323Y31165D01*
X916445Y31112D01*
X916568Y31063D01*
X916692Y31017D01*
X916818Y30975D01*
X916945Y30937D01*
X917073Y30902D01*
X917202Y30871D01*
X917331Y30844D01*
X917462Y30821D01*
X917593Y30801D01*
X917725Y30786D01*
X917857Y30774D01*
X917989Y30766D01*
X918122Y30762D01*
X918254Y30762D01*
X918387Y30766D01*
X918519Y30774D01*
X918651Y30786D01*
X918783Y30801D01*
X918914Y30821D01*
X919045Y30844D01*
X919174Y30871D01*
X919303Y30902D01*
X919431Y30937D01*
X919558Y30975D01*
X919684Y31017D01*
X919808Y31063D01*
X919931Y31112D01*
X920053Y31165D01*
X920173Y31222D01*
X920291Y31282D01*
X920408Y31345D01*
X920522Y31412D01*
X920635Y31482D01*
X920745Y31556D01*
X920853Y31632D01*
X920959Y31712D01*
X921063Y31795D01*
X921164Y31881D01*
X921262Y31970D01*
X921358Y32061D01*
X921451Y32156D01*
X921541Y32253D01*
X921628Y32353D01*
X921713Y32455D01*
X921794Y32560D01*
X921872Y32667D01*
X921948Y32776D01*
X922019Y32887D01*
X922088Y33001D01*
X922153Y33116D01*
X922215Y33234D01*
X922273Y33353D01*
X922328Y33474D01*
X922379Y33596D01*
X922427Y33720D01*
X922471Y33845D01*
X922511Y33971D01*
X922547Y34099D01*
X922580Y34227D01*
X922609Y34356D01*
X922634Y34487D01*
X922655Y34617D01*
X922673Y34749D01*
X922686Y34881D01*
X922696Y35013D01*
X922702Y35145D01*
X922704Y35278D01*
X906522Y30762D02*
X906522Y47018D01*
X906522Y30762D02*
X899297Y30762D01*
X890052Y30762D02*
X890052Y47018D01*
X894567Y47018D02*
X885536Y47018D01*
X875463Y47018D02*
X880881Y30762D01*
X870044Y30762D02*
X875463Y47018D01*
X871399Y34826D02*
X879527Y34826D01*
X857504Y39793D02*
X854795Y39793D01*
X854795Y30762D01*
X860214Y30762D01*
X860332Y30764D01*
X860450Y30770D01*
X860568Y30779D01*
X860685Y30793D01*
X860802Y30810D01*
X860919Y30831D01*
X861034Y30856D01*
X861149Y30885D01*
X861263Y30918D01*
X861375Y30954D01*
X861486Y30994D01*
X861596Y31037D01*
X861705Y31084D01*
X861812Y31134D01*
X861917Y31189D01*
X862020Y31246D01*
X862121Y31307D01*
X862221Y31371D01*
X862318Y31438D01*
X862413Y31508D01*
X862505Y31582D01*
X862596Y31658D01*
X862683Y31738D01*
X862768Y31820D01*
X862850Y31905D01*
X862930Y31992D01*
X863006Y32083D01*
X863080Y32175D01*
X863150Y32270D01*
X863217Y32367D01*
X863281Y32467D01*
X863342Y32568D01*
X863399Y32671D01*
X863454Y32776D01*
X863504Y32883D01*
X863551Y32992D01*
X863594Y33102D01*
X863634Y33213D01*
X863670Y33325D01*
X863703Y33439D01*
X863732Y33554D01*
X863757Y33669D01*
X863778Y33786D01*
X863795Y33903D01*
X863809Y34020D01*
X863818Y34138D01*
X863824Y34256D01*
X863826Y34374D01*
X863826Y43406D01*
X863824Y43524D01*
X863818Y43642D01*
X863809Y43760D01*
X863795Y43877D01*
X863778Y43994D01*
X863757Y44111D01*
X863732Y44226D01*
X863703Y44341D01*
X863670Y44455D01*
X863634Y44567D01*
X863594Y44678D01*
X863551Y44788D01*
X863504Y44897D01*
X863454Y45004D01*
X863399Y45109D01*
X863342Y45212D01*
X863281Y45313D01*
X863217Y45413D01*
X863150Y45510D01*
X863080Y45605D01*
X863006Y45697D01*
X862930Y45788D01*
X862850Y45875D01*
X862768Y45960D01*
X862683Y46042D01*
X862596Y46122D01*
X862505Y46198D01*
X862413Y46272D01*
X862318Y46342D01*
X862221Y46409D01*
X862121Y46473D01*
X862020Y46534D01*
X861917Y46591D01*
X861812Y46646D01*
X861705Y46696D01*
X861596Y46743D01*
X861486Y46786D01*
X861375Y46826D01*
X861263Y46862D01*
X861149Y46895D01*
X861034Y46924D01*
X860919Y46949D01*
X860802Y46970D01*
X860685Y46987D01*
X860568Y47001D01*
X860450Y47010D01*
X860332Y47016D01*
X860214Y47018D01*
X854795Y47018D01*
X847123Y30762D02*
X839898Y30762D01*
X847123Y30762D02*
X847123Y47018D01*
X839898Y47018D01*
X841704Y39793D02*
X847123Y39793D01*
X519238Y570762D02*
X519238Y587018D01*
X514722Y587018D01*
X514589Y587016D01*
X514457Y587010D01*
X514325Y587000D01*
X514193Y586987D01*
X514061Y586969D01*
X513931Y586948D01*
X513800Y586923D01*
X513671Y586894D01*
X513543Y586861D01*
X513415Y586825D01*
X513289Y586785D01*
X513164Y586741D01*
X513040Y586693D01*
X512918Y586642D01*
X512797Y586587D01*
X512678Y586529D01*
X512560Y586467D01*
X512445Y586402D01*
X512331Y586333D01*
X512220Y586262D01*
X512111Y586186D01*
X512004Y586108D01*
X511899Y586027D01*
X511797Y585942D01*
X511697Y585855D01*
X511600Y585765D01*
X511505Y585672D01*
X511414Y585576D01*
X511325Y585478D01*
X511239Y585377D01*
X511156Y585273D01*
X511076Y585167D01*
X511000Y585059D01*
X510926Y584949D01*
X510856Y584836D01*
X510789Y584722D01*
X510726Y584605D01*
X510666Y584487D01*
X510609Y584367D01*
X510556Y584245D01*
X510507Y584122D01*
X510461Y583998D01*
X510419Y583872D01*
X510381Y583745D01*
X510346Y583617D01*
X510315Y583488D01*
X510288Y583359D01*
X510265Y583228D01*
X510245Y583097D01*
X510230Y582965D01*
X510218Y582833D01*
X510210Y582701D01*
X510206Y582568D01*
X510206Y582436D01*
X510210Y582303D01*
X510218Y582171D01*
X510230Y582039D01*
X510245Y581907D01*
X510265Y581776D01*
X510288Y581645D01*
X510315Y581516D01*
X510346Y581387D01*
X510381Y581259D01*
X510419Y581132D01*
X510461Y581006D01*
X510507Y580882D01*
X510556Y580759D01*
X510609Y580637D01*
X510666Y580517D01*
X510726Y580399D01*
X510789Y580282D01*
X510856Y580168D01*
X510926Y580055D01*
X511000Y579945D01*
X511076Y579837D01*
X511156Y579731D01*
X511239Y579627D01*
X511325Y579526D01*
X511414Y579428D01*
X511505Y579332D01*
X511600Y579239D01*
X511697Y579149D01*
X511797Y579062D01*
X511899Y578977D01*
X512004Y578896D01*
X512111Y578818D01*
X512220Y578742D01*
X512331Y578671D01*
X512445Y578602D01*
X512560Y578537D01*
X512678Y578475D01*
X512797Y578417D01*
X512918Y578362D01*
X513040Y578311D01*
X513164Y578263D01*
X513289Y578219D01*
X513415Y578179D01*
X513543Y578143D01*
X513671Y578110D01*
X513800Y578081D01*
X513931Y578056D01*
X514061Y578035D01*
X514193Y578017D01*
X514325Y578004D01*
X514457Y577994D01*
X514589Y577988D01*
X514722Y577986D01*
X514722Y577987D02*
X519238Y577987D01*
X513819Y577987D02*
X510207Y570762D01*
X503148Y570762D02*
X495923Y570762D01*
X503148Y570762D02*
X503148Y587018D01*
X495923Y587018D01*
X497729Y579793D02*
X503148Y579793D01*
X491054Y587018D02*
X485636Y570762D01*
X480217Y587018D01*
X474520Y570762D02*
X470005Y570762D01*
X469872Y570764D01*
X469740Y570770D01*
X469608Y570780D01*
X469476Y570793D01*
X469344Y570811D01*
X469214Y570832D01*
X469083Y570857D01*
X468954Y570886D01*
X468826Y570919D01*
X468698Y570955D01*
X468572Y570995D01*
X468447Y571039D01*
X468323Y571087D01*
X468201Y571138D01*
X468080Y571193D01*
X467961Y571251D01*
X467843Y571313D01*
X467728Y571378D01*
X467614Y571447D01*
X467503Y571518D01*
X467394Y571594D01*
X467287Y571672D01*
X467182Y571753D01*
X467080Y571838D01*
X466980Y571925D01*
X466883Y572015D01*
X466788Y572108D01*
X466697Y572204D01*
X466608Y572302D01*
X466522Y572403D01*
X466439Y572507D01*
X466359Y572613D01*
X466283Y572721D01*
X466209Y572831D01*
X466139Y572944D01*
X466072Y573058D01*
X466009Y573175D01*
X465949Y573293D01*
X465892Y573413D01*
X465839Y573535D01*
X465790Y573658D01*
X465744Y573782D01*
X465702Y573908D01*
X465664Y574035D01*
X465629Y574163D01*
X465598Y574292D01*
X465571Y574421D01*
X465548Y574552D01*
X465528Y574683D01*
X465513Y574815D01*
X465501Y574947D01*
X465493Y575079D01*
X465489Y575212D01*
X465489Y575344D01*
X465493Y575477D01*
X465501Y575609D01*
X465513Y575741D01*
X465528Y575873D01*
X465548Y576004D01*
X465571Y576135D01*
X465598Y576264D01*
X465629Y576393D01*
X465664Y576521D01*
X465702Y576648D01*
X465744Y576774D01*
X465790Y576898D01*
X465839Y577021D01*
X465892Y577143D01*
X465949Y577263D01*
X466009Y577381D01*
X466072Y577498D01*
X466139Y577612D01*
X466209Y577725D01*
X466283Y577835D01*
X466359Y577943D01*
X466439Y578049D01*
X466522Y578153D01*
X466608Y578254D01*
X466697Y578352D01*
X466788Y578448D01*
X466883Y578541D01*
X466980Y578631D01*
X467080Y578718D01*
X467182Y578803D01*
X467287Y578884D01*
X467394Y578962D01*
X467503Y579038D01*
X467614Y579109D01*
X467728Y579178D01*
X467843Y579243D01*
X467961Y579305D01*
X468080Y579363D01*
X468201Y579418D01*
X468323Y579469D01*
X468447Y579517D01*
X468572Y579561D01*
X468698Y579601D01*
X468826Y579637D01*
X468954Y579670D01*
X469083Y579699D01*
X469214Y579724D01*
X469344Y579745D01*
X469476Y579763D01*
X469608Y579776D01*
X469740Y579786D01*
X469872Y579792D01*
X470005Y579794D01*
X469101Y587018D02*
X474520Y587018D01*
X469101Y587018D02*
X468982Y587016D01*
X468862Y587010D01*
X468743Y587000D01*
X468625Y586986D01*
X468506Y586969D01*
X468389Y586947D01*
X468272Y586922D01*
X468157Y586892D01*
X468042Y586859D01*
X467928Y586822D01*
X467816Y586782D01*
X467705Y586737D01*
X467596Y586689D01*
X467488Y586638D01*
X467382Y586583D01*
X467278Y586524D01*
X467176Y586462D01*
X467076Y586397D01*
X466978Y586328D01*
X466882Y586256D01*
X466789Y586181D01*
X466699Y586104D01*
X466611Y586023D01*
X466526Y585939D01*
X466444Y585852D01*
X466364Y585763D01*
X466288Y585671D01*
X466214Y585577D01*
X466144Y585480D01*
X466077Y585382D01*
X466013Y585281D01*
X465953Y585177D01*
X465896Y585072D01*
X465843Y584965D01*
X465793Y584857D01*
X465747Y584747D01*
X465705Y584635D01*
X465666Y584522D01*
X465631Y584408D01*
X465600Y584293D01*
X465572Y584176D01*
X465549Y584059D01*
X465529Y583942D01*
X465513Y583823D01*
X465501Y583704D01*
X465493Y583585D01*
X465489Y583466D01*
X465489Y583346D01*
X465493Y583227D01*
X465501Y583108D01*
X465513Y582989D01*
X465529Y582870D01*
X465549Y582753D01*
X465572Y582636D01*
X465600Y582519D01*
X465631Y582404D01*
X465666Y582290D01*
X465705Y582177D01*
X465747Y582065D01*
X465793Y581955D01*
X465843Y581847D01*
X465896Y581740D01*
X465953Y581635D01*
X466013Y581531D01*
X466077Y581430D01*
X466144Y581332D01*
X466214Y581235D01*
X466288Y581141D01*
X466364Y581049D01*
X466444Y580960D01*
X466526Y580873D01*
X466611Y580789D01*
X466699Y580708D01*
X466789Y580631D01*
X466882Y580556D01*
X466978Y580484D01*
X467076Y580415D01*
X467176Y580350D01*
X467278Y580288D01*
X467382Y580229D01*
X467488Y580174D01*
X467596Y580123D01*
X467705Y580075D01*
X467816Y580030D01*
X467928Y579990D01*
X468042Y579953D01*
X468157Y579920D01*
X468272Y579890D01*
X468389Y579865D01*
X468506Y579843D01*
X468625Y579826D01*
X468743Y579812D01*
X468862Y579802D01*
X468982Y579796D01*
X469101Y579794D01*
X469101Y579793D02*
X472714Y579793D01*
X459568Y570762D02*
X458664Y570762D01*
X459568Y570762D02*
X459568Y571665D01*
X458664Y571665D01*
X458664Y570762D01*
X460019Y567150D01*
X443568Y579793D02*
X439052Y579793D01*
X439052Y579794D02*
X438919Y579792D01*
X438787Y579786D01*
X438655Y579776D01*
X438523Y579763D01*
X438391Y579745D01*
X438261Y579724D01*
X438130Y579699D01*
X438001Y579670D01*
X437873Y579637D01*
X437745Y579601D01*
X437619Y579561D01*
X437494Y579517D01*
X437370Y579469D01*
X437248Y579418D01*
X437127Y579363D01*
X437008Y579305D01*
X436890Y579243D01*
X436775Y579178D01*
X436661Y579109D01*
X436550Y579038D01*
X436441Y578962D01*
X436334Y578884D01*
X436229Y578803D01*
X436127Y578718D01*
X436027Y578631D01*
X435930Y578541D01*
X435835Y578448D01*
X435744Y578352D01*
X435655Y578254D01*
X435569Y578153D01*
X435486Y578049D01*
X435406Y577943D01*
X435330Y577835D01*
X435256Y577725D01*
X435186Y577612D01*
X435119Y577498D01*
X435056Y577381D01*
X434996Y577263D01*
X434939Y577143D01*
X434886Y577021D01*
X434837Y576898D01*
X434791Y576774D01*
X434749Y576648D01*
X434711Y576521D01*
X434676Y576393D01*
X434645Y576264D01*
X434618Y576135D01*
X434595Y576004D01*
X434575Y575873D01*
X434560Y575741D01*
X434548Y575609D01*
X434540Y575477D01*
X434536Y575344D01*
X434536Y575212D01*
X434540Y575079D01*
X434548Y574947D01*
X434560Y574815D01*
X434575Y574683D01*
X434595Y574552D01*
X434618Y574421D01*
X434645Y574292D01*
X434676Y574163D01*
X434711Y574035D01*
X434749Y573908D01*
X434791Y573782D01*
X434837Y573658D01*
X434886Y573535D01*
X434939Y573413D01*
X434996Y573293D01*
X435056Y573175D01*
X435119Y573058D01*
X435186Y572944D01*
X435256Y572831D01*
X435330Y572721D01*
X435406Y572613D01*
X435486Y572507D01*
X435569Y572403D01*
X435655Y572302D01*
X435744Y572204D01*
X435835Y572108D01*
X435930Y572015D01*
X436027Y571925D01*
X436127Y571838D01*
X436229Y571753D01*
X436334Y571672D01*
X436441Y571594D01*
X436550Y571518D01*
X436661Y571447D01*
X436775Y571378D01*
X436890Y571313D01*
X437008Y571251D01*
X437127Y571193D01*
X437248Y571138D01*
X437370Y571087D01*
X437494Y571039D01*
X437619Y570995D01*
X437745Y570955D01*
X437873Y570919D01*
X438001Y570886D01*
X438130Y570857D01*
X438261Y570832D01*
X438391Y570811D01*
X438523Y570793D01*
X438655Y570780D01*
X438787Y570770D01*
X438919Y570764D01*
X439052Y570762D01*
X443568Y570762D01*
X443568Y587018D01*
X439052Y587018D01*
X438933Y587016D01*
X438813Y587010D01*
X438694Y587000D01*
X438576Y586986D01*
X438457Y586969D01*
X438340Y586947D01*
X438223Y586922D01*
X438108Y586892D01*
X437993Y586859D01*
X437879Y586822D01*
X437767Y586782D01*
X437656Y586737D01*
X437547Y586689D01*
X437439Y586638D01*
X437333Y586583D01*
X437229Y586524D01*
X437127Y586462D01*
X437027Y586397D01*
X436929Y586328D01*
X436833Y586256D01*
X436740Y586181D01*
X436650Y586104D01*
X436562Y586023D01*
X436477Y585939D01*
X436395Y585852D01*
X436315Y585763D01*
X436239Y585671D01*
X436165Y585577D01*
X436095Y585480D01*
X436028Y585382D01*
X435964Y585281D01*
X435904Y585177D01*
X435847Y585072D01*
X435794Y584965D01*
X435744Y584857D01*
X435698Y584747D01*
X435656Y584635D01*
X435617Y584522D01*
X435582Y584408D01*
X435551Y584293D01*
X435523Y584176D01*
X435500Y584059D01*
X435480Y583942D01*
X435464Y583823D01*
X435452Y583704D01*
X435444Y583585D01*
X435440Y583466D01*
X435440Y583346D01*
X435444Y583227D01*
X435452Y583108D01*
X435464Y582989D01*
X435480Y582870D01*
X435500Y582753D01*
X435523Y582636D01*
X435551Y582519D01*
X435582Y582404D01*
X435617Y582290D01*
X435656Y582177D01*
X435698Y582065D01*
X435744Y581955D01*
X435794Y581847D01*
X435847Y581740D01*
X435904Y581635D01*
X435964Y581531D01*
X436028Y581430D01*
X436095Y581332D01*
X436165Y581235D01*
X436239Y581141D01*
X436315Y581049D01*
X436395Y580960D01*
X436477Y580873D01*
X436562Y580789D01*
X436650Y580708D01*
X436740Y580631D01*
X436833Y580556D01*
X436929Y580484D01*
X437027Y580415D01*
X437127Y580350D01*
X437229Y580288D01*
X437333Y580229D01*
X437439Y580174D01*
X437547Y580123D01*
X437656Y580075D01*
X437767Y580030D01*
X437879Y579990D01*
X437993Y579953D01*
X438108Y579920D01*
X438223Y579890D01*
X438340Y579865D01*
X438457Y579843D01*
X438576Y579826D01*
X438694Y579812D01*
X438813Y579802D01*
X438933Y579796D01*
X439052Y579794D01*
X428147Y575278D02*
X428147Y587018D01*
X428148Y575278D02*
X428146Y575145D01*
X428140Y575013D01*
X428130Y574881D01*
X428117Y574749D01*
X428099Y574617D01*
X428078Y574487D01*
X428053Y574356D01*
X428024Y574227D01*
X427991Y574099D01*
X427955Y573971D01*
X427915Y573845D01*
X427871Y573720D01*
X427823Y573596D01*
X427772Y573474D01*
X427717Y573353D01*
X427659Y573234D01*
X427597Y573116D01*
X427532Y573001D01*
X427463Y572887D01*
X427392Y572776D01*
X427316Y572667D01*
X427238Y572560D01*
X427157Y572455D01*
X427072Y572353D01*
X426985Y572253D01*
X426895Y572156D01*
X426802Y572061D01*
X426706Y571970D01*
X426608Y571881D01*
X426507Y571795D01*
X426403Y571712D01*
X426297Y571632D01*
X426189Y571556D01*
X426079Y571482D01*
X425966Y571412D01*
X425852Y571345D01*
X425735Y571282D01*
X425617Y571222D01*
X425497Y571165D01*
X425375Y571112D01*
X425252Y571063D01*
X425128Y571017D01*
X425002Y570975D01*
X424875Y570937D01*
X424747Y570902D01*
X424618Y570871D01*
X424489Y570844D01*
X424358Y570821D01*
X424227Y570801D01*
X424095Y570786D01*
X423963Y570774D01*
X423831Y570766D01*
X423698Y570762D01*
X423566Y570762D01*
X423433Y570766D01*
X423301Y570774D01*
X423169Y570786D01*
X423037Y570801D01*
X422906Y570821D01*
X422775Y570844D01*
X422646Y570871D01*
X422517Y570902D01*
X422389Y570937D01*
X422262Y570975D01*
X422136Y571017D01*
X422012Y571063D01*
X421889Y571112D01*
X421767Y571165D01*
X421647Y571222D01*
X421529Y571282D01*
X421412Y571345D01*
X421298Y571412D01*
X421185Y571482D01*
X421075Y571556D01*
X420967Y571632D01*
X420861Y571712D01*
X420757Y571795D01*
X420656Y571881D01*
X420558Y571970D01*
X420462Y572061D01*
X420369Y572156D01*
X420279Y572253D01*
X420192Y572353D01*
X420107Y572455D01*
X420026Y572560D01*
X419948Y572667D01*
X419872Y572776D01*
X419801Y572887D01*
X419732Y573001D01*
X419667Y573116D01*
X419605Y573234D01*
X419547Y573353D01*
X419492Y573474D01*
X419441Y573596D01*
X419393Y573720D01*
X419349Y573845D01*
X419309Y573971D01*
X419273Y574099D01*
X419240Y574227D01*
X419211Y574356D01*
X419186Y574487D01*
X419165Y574617D01*
X419147Y574749D01*
X419134Y574881D01*
X419124Y575013D01*
X419118Y575145D01*
X419116Y575278D01*
X419116Y587018D01*
X410606Y587018D02*
X410606Y570762D01*
X412412Y570762D02*
X408800Y570762D01*
X408800Y587018D02*
X412412Y587018D01*
X402066Y587018D02*
X402066Y570762D01*
X394841Y570762D01*
X388548Y570762D02*
X388548Y587018D01*
X384033Y587018D01*
X383902Y587016D01*
X383770Y587010D01*
X383639Y587001D01*
X383509Y586987D01*
X383378Y586970D01*
X383249Y586949D01*
X383120Y586925D01*
X382992Y586896D01*
X382864Y586864D01*
X382738Y586828D01*
X382613Y586789D01*
X382488Y586746D01*
X382366Y586699D01*
X382244Y586649D01*
X382124Y586595D01*
X382006Y586538D01*
X381890Y586477D01*
X381775Y586413D01*
X381662Y586346D01*
X381551Y586275D01*
X381443Y586201D01*
X381336Y586124D01*
X381232Y586044D01*
X381130Y585961D01*
X381031Y585876D01*
X380934Y585787D01*
X380840Y585695D01*
X380748Y585601D01*
X380659Y585504D01*
X380574Y585405D01*
X380491Y585303D01*
X380411Y585199D01*
X380334Y585092D01*
X380260Y584984D01*
X380189Y584873D01*
X380122Y584760D01*
X380058Y584645D01*
X379997Y584529D01*
X379940Y584411D01*
X379886Y584291D01*
X379836Y584169D01*
X379789Y584047D01*
X379746Y583922D01*
X379707Y583797D01*
X379671Y583671D01*
X379639Y583543D01*
X379610Y583415D01*
X379586Y583286D01*
X379565Y583157D01*
X379548Y583026D01*
X379534Y582896D01*
X379525Y582765D01*
X379519Y582633D01*
X379517Y582502D01*
X379517Y575278D01*
X379519Y575147D01*
X379525Y575015D01*
X379534Y574884D01*
X379548Y574754D01*
X379565Y574623D01*
X379586Y574494D01*
X379610Y574365D01*
X379639Y574237D01*
X379671Y574109D01*
X379707Y573983D01*
X379746Y573858D01*
X379789Y573733D01*
X379836Y573611D01*
X379886Y573489D01*
X379940Y573369D01*
X379997Y573251D01*
X380058Y573135D01*
X380122Y573020D01*
X380189Y572907D01*
X380260Y572796D01*
X380334Y572688D01*
X380411Y572581D01*
X380491Y572477D01*
X380574Y572375D01*
X380659Y572276D01*
X380748Y572179D01*
X380840Y572085D01*
X380934Y571993D01*
X381031Y571904D01*
X381130Y571819D01*
X381232Y571736D01*
X381336Y571656D01*
X381443Y571579D01*
X381551Y571505D01*
X381662Y571434D01*
X381775Y571367D01*
X381890Y571303D01*
X382006Y571242D01*
X382124Y571185D01*
X382244Y571131D01*
X382366Y571081D01*
X382488Y571034D01*
X382613Y570991D01*
X382738Y570952D01*
X382864Y570916D01*
X382992Y570884D01*
X383120Y570855D01*
X383249Y570831D01*
X383378Y570810D01*
X383509Y570793D01*
X383639Y570779D01*
X383770Y570770D01*
X383902Y570764D01*
X384033Y570762D01*
X388548Y570762D01*
X372396Y583406D02*
X367880Y587018D01*
X367880Y570762D01*
X363365Y570762D02*
X372396Y570762D01*
X630182Y444238D02*
X635600Y427982D01*
X624763Y427982D02*
X630182Y444238D01*
X626118Y432046D02*
X634246Y432046D01*
X617677Y427982D02*
X617677Y444238D01*
X619483Y427982D02*
X615871Y427982D01*
X615871Y444238D02*
X619483Y444238D01*
X609075Y444238D02*
X609075Y427982D01*
X609075Y444238D02*
X604559Y444238D01*
X604426Y444236D01*
X604294Y444230D01*
X604162Y444220D01*
X604030Y444207D01*
X603898Y444189D01*
X603768Y444168D01*
X603637Y444143D01*
X603508Y444114D01*
X603380Y444081D01*
X603252Y444045D01*
X603126Y444005D01*
X603001Y443961D01*
X602877Y443913D01*
X602755Y443862D01*
X602634Y443807D01*
X602515Y443749D01*
X602397Y443687D01*
X602282Y443622D01*
X602168Y443553D01*
X602057Y443482D01*
X601948Y443406D01*
X601841Y443328D01*
X601736Y443247D01*
X601634Y443162D01*
X601534Y443075D01*
X601437Y442985D01*
X601342Y442892D01*
X601251Y442796D01*
X601162Y442698D01*
X601076Y442597D01*
X600993Y442493D01*
X600913Y442387D01*
X600837Y442279D01*
X600763Y442169D01*
X600693Y442056D01*
X600626Y441942D01*
X600563Y441825D01*
X600503Y441707D01*
X600446Y441587D01*
X600393Y441465D01*
X600344Y441342D01*
X600298Y441218D01*
X600256Y441092D01*
X600218Y440965D01*
X600183Y440837D01*
X600152Y440708D01*
X600125Y440579D01*
X600102Y440448D01*
X600082Y440317D01*
X600067Y440185D01*
X600055Y440053D01*
X600047Y439921D01*
X600043Y439788D01*
X600043Y439656D01*
X600047Y439523D01*
X600055Y439391D01*
X600067Y439259D01*
X600082Y439127D01*
X600102Y438996D01*
X600125Y438865D01*
X600152Y438736D01*
X600183Y438607D01*
X600218Y438479D01*
X600256Y438352D01*
X600298Y438226D01*
X600344Y438102D01*
X600393Y437979D01*
X600446Y437857D01*
X600503Y437737D01*
X600563Y437619D01*
X600626Y437502D01*
X600693Y437388D01*
X600763Y437275D01*
X600837Y437165D01*
X600913Y437057D01*
X600993Y436951D01*
X601076Y436847D01*
X601162Y436746D01*
X601251Y436648D01*
X601342Y436552D01*
X601437Y436459D01*
X601534Y436369D01*
X601634Y436282D01*
X601736Y436197D01*
X601841Y436116D01*
X601948Y436038D01*
X602057Y435962D01*
X602168Y435891D01*
X602282Y435822D01*
X602397Y435757D01*
X602515Y435695D01*
X602634Y435637D01*
X602755Y435582D01*
X602877Y435531D01*
X603001Y435483D01*
X603126Y435439D01*
X603252Y435399D01*
X603380Y435363D01*
X603508Y435330D01*
X603637Y435301D01*
X603768Y435276D01*
X603898Y435255D01*
X604030Y435237D01*
X604162Y435224D01*
X604294Y435214D01*
X604426Y435208D01*
X604559Y435206D01*
X604559Y435207D02*
X609075Y435207D01*
X603656Y435207D02*
X600044Y427982D01*
X584466Y427982D02*
X584466Y444238D01*
X579951Y444238D01*
X579818Y444236D01*
X579686Y444230D01*
X579554Y444220D01*
X579422Y444207D01*
X579290Y444189D01*
X579160Y444168D01*
X579029Y444143D01*
X578900Y444114D01*
X578772Y444081D01*
X578644Y444045D01*
X578518Y444005D01*
X578393Y443961D01*
X578269Y443913D01*
X578147Y443862D01*
X578026Y443807D01*
X577907Y443749D01*
X577789Y443687D01*
X577674Y443622D01*
X577560Y443553D01*
X577449Y443482D01*
X577340Y443406D01*
X577233Y443328D01*
X577128Y443247D01*
X577026Y443162D01*
X576926Y443075D01*
X576829Y442985D01*
X576734Y442892D01*
X576643Y442796D01*
X576554Y442698D01*
X576468Y442597D01*
X576385Y442493D01*
X576305Y442387D01*
X576229Y442279D01*
X576155Y442169D01*
X576085Y442056D01*
X576018Y441942D01*
X575955Y441825D01*
X575895Y441707D01*
X575838Y441587D01*
X575785Y441465D01*
X575736Y441342D01*
X575690Y441218D01*
X575648Y441092D01*
X575610Y440965D01*
X575575Y440837D01*
X575544Y440708D01*
X575517Y440579D01*
X575494Y440448D01*
X575474Y440317D01*
X575459Y440185D01*
X575447Y440053D01*
X575439Y439921D01*
X575435Y439788D01*
X575435Y439656D01*
X575439Y439523D01*
X575447Y439391D01*
X575459Y439259D01*
X575474Y439127D01*
X575494Y438996D01*
X575517Y438865D01*
X575544Y438736D01*
X575575Y438607D01*
X575610Y438479D01*
X575648Y438352D01*
X575690Y438226D01*
X575736Y438102D01*
X575785Y437979D01*
X575838Y437857D01*
X575895Y437737D01*
X575955Y437619D01*
X576018Y437502D01*
X576085Y437388D01*
X576155Y437275D01*
X576229Y437165D01*
X576305Y437057D01*
X576385Y436951D01*
X576468Y436847D01*
X576554Y436746D01*
X576643Y436648D01*
X576734Y436552D01*
X576829Y436459D01*
X576926Y436369D01*
X577026Y436282D01*
X577128Y436197D01*
X577233Y436116D01*
X577340Y436038D01*
X577449Y435962D01*
X577560Y435891D01*
X577674Y435822D01*
X577789Y435757D01*
X577907Y435695D01*
X578026Y435637D01*
X578147Y435582D01*
X578269Y435531D01*
X578393Y435483D01*
X578518Y435439D01*
X578644Y435399D01*
X578772Y435363D01*
X578900Y435330D01*
X579029Y435301D01*
X579160Y435276D01*
X579290Y435255D01*
X579422Y435237D01*
X579554Y435224D01*
X579686Y435214D01*
X579818Y435208D01*
X579951Y435206D01*
X579951Y435207D02*
X584466Y435207D01*
X569706Y435207D02*
X569706Y431594D01*
X569706Y435207D02*
X569704Y435326D01*
X569698Y435446D01*
X569688Y435565D01*
X569674Y435683D01*
X569657Y435802D01*
X569635Y435919D01*
X569610Y436036D01*
X569580Y436151D01*
X569547Y436266D01*
X569510Y436380D01*
X569470Y436492D01*
X569425Y436603D01*
X569377Y436712D01*
X569326Y436820D01*
X569271Y436926D01*
X569212Y437030D01*
X569150Y437132D01*
X569085Y437232D01*
X569016Y437330D01*
X568944Y437426D01*
X568869Y437519D01*
X568792Y437609D01*
X568711Y437697D01*
X568627Y437782D01*
X568540Y437864D01*
X568451Y437944D01*
X568359Y438020D01*
X568265Y438094D01*
X568168Y438164D01*
X568070Y438231D01*
X567969Y438295D01*
X567865Y438355D01*
X567760Y438412D01*
X567653Y438465D01*
X567545Y438515D01*
X567435Y438561D01*
X567323Y438603D01*
X567210Y438642D01*
X567096Y438677D01*
X566981Y438708D01*
X566864Y438736D01*
X566747Y438759D01*
X566630Y438779D01*
X566511Y438795D01*
X566392Y438807D01*
X566273Y438815D01*
X566154Y438819D01*
X566034Y438819D01*
X565915Y438815D01*
X565796Y438807D01*
X565677Y438795D01*
X565558Y438779D01*
X565441Y438759D01*
X565324Y438736D01*
X565207Y438708D01*
X565092Y438677D01*
X564978Y438642D01*
X564865Y438603D01*
X564753Y438561D01*
X564643Y438515D01*
X564535Y438465D01*
X564428Y438412D01*
X564323Y438355D01*
X564219Y438295D01*
X564118Y438231D01*
X564020Y438164D01*
X563923Y438094D01*
X563829Y438020D01*
X563737Y437944D01*
X563648Y437864D01*
X563561Y437782D01*
X563477Y437697D01*
X563396Y437609D01*
X563319Y437519D01*
X563244Y437426D01*
X563172Y437330D01*
X563103Y437232D01*
X563038Y437132D01*
X562976Y437030D01*
X562917Y436926D01*
X562862Y436820D01*
X562811Y436712D01*
X562763Y436603D01*
X562718Y436492D01*
X562678Y436380D01*
X562641Y436266D01*
X562608Y436151D01*
X562578Y436036D01*
X562553Y435919D01*
X562531Y435802D01*
X562514Y435683D01*
X562500Y435565D01*
X562490Y435446D01*
X562484Y435326D01*
X562482Y435207D01*
X562481Y435207D02*
X562481Y431594D01*
X562482Y431594D02*
X562484Y431475D01*
X562490Y431355D01*
X562500Y431236D01*
X562514Y431118D01*
X562531Y430999D01*
X562553Y430882D01*
X562578Y430765D01*
X562608Y430650D01*
X562641Y430535D01*
X562678Y430421D01*
X562718Y430309D01*
X562763Y430198D01*
X562811Y430089D01*
X562862Y429981D01*
X562917Y429875D01*
X562976Y429771D01*
X563038Y429669D01*
X563103Y429569D01*
X563172Y429471D01*
X563244Y429375D01*
X563319Y429282D01*
X563396Y429192D01*
X563477Y429104D01*
X563561Y429019D01*
X563648Y428937D01*
X563737Y428857D01*
X563829Y428781D01*
X563923Y428707D01*
X564020Y428637D01*
X564118Y428570D01*
X564219Y428506D01*
X564323Y428446D01*
X564428Y428389D01*
X564535Y428336D01*
X564643Y428286D01*
X564753Y428240D01*
X564865Y428198D01*
X564978Y428159D01*
X565092Y428124D01*
X565207Y428093D01*
X565324Y428065D01*
X565441Y428042D01*
X565558Y428022D01*
X565677Y428006D01*
X565796Y427994D01*
X565915Y427986D01*
X566034Y427982D01*
X566154Y427982D01*
X566273Y427986D01*
X566392Y427994D01*
X566511Y428006D01*
X566630Y428022D01*
X566747Y428042D01*
X566864Y428065D01*
X566981Y428093D01*
X567096Y428124D01*
X567210Y428159D01*
X567323Y428198D01*
X567435Y428240D01*
X567545Y428286D01*
X567653Y428336D01*
X567760Y428389D01*
X567865Y428446D01*
X567969Y428506D01*
X568070Y428570D01*
X568168Y428637D01*
X568265Y428707D01*
X568359Y428781D01*
X568451Y428857D01*
X568540Y428937D01*
X568627Y429019D01*
X568711Y429104D01*
X568792Y429192D01*
X568869Y429282D01*
X568944Y429375D01*
X569016Y429471D01*
X569085Y429569D01*
X569150Y429669D01*
X569212Y429771D01*
X569271Y429875D01*
X569326Y429981D01*
X569377Y430089D01*
X569425Y430198D01*
X569470Y430309D01*
X569510Y430421D01*
X569547Y430535D01*
X569580Y430650D01*
X569610Y430765D01*
X569635Y430882D01*
X569657Y430999D01*
X569674Y431118D01*
X569688Y431236D01*
X569698Y431355D01*
X569704Y431475D01*
X569706Y431594D01*
X554804Y434304D02*
X550289Y432498D01*
X554805Y434304D02*
X554893Y434341D01*
X554979Y434382D01*
X555064Y434426D01*
X555147Y434474D01*
X555227Y434525D01*
X555306Y434579D01*
X555382Y434637D01*
X555456Y434697D01*
X555528Y434761D01*
X555596Y434827D01*
X555662Y434897D01*
X555725Y434968D01*
X555786Y435043D01*
X555843Y435119D01*
X555896Y435198D01*
X555947Y435279D01*
X555994Y435362D01*
X556038Y435447D01*
X556078Y435534D01*
X556115Y435622D01*
X556148Y435712D01*
X556178Y435803D01*
X556203Y435895D01*
X556225Y435988D01*
X556243Y436082D01*
X556258Y436176D01*
X556268Y436271D01*
X556274Y436367D01*
X556277Y436462D01*
X556276Y436558D01*
X556270Y436653D01*
X556261Y436749D01*
X556248Y436843D01*
X556232Y436937D01*
X556211Y437031D01*
X556186Y437123D01*
X556158Y437214D01*
X556126Y437304D01*
X556091Y437393D01*
X556052Y437480D01*
X556009Y437566D01*
X555963Y437650D01*
X555913Y437731D01*
X555861Y437811D01*
X555805Y437889D01*
X555745Y437964D01*
X555683Y438036D01*
X555618Y438106D01*
X555550Y438174D01*
X555480Y438238D01*
X555407Y438300D01*
X555331Y438358D01*
X555253Y438414D01*
X555173Y438466D01*
X555091Y438515D01*
X555007Y438560D01*
X554921Y438602D01*
X554834Y438641D01*
X554745Y438676D01*
X554654Y438707D01*
X554563Y438734D01*
X554470Y438758D01*
X554377Y438778D01*
X554283Y438794D01*
X554188Y438806D01*
X554093Y438815D01*
X553997Y438819D01*
X553902Y438820D01*
X553655Y438813D01*
X553409Y438801D01*
X553163Y438783D01*
X552917Y438758D01*
X552673Y438728D01*
X552429Y438692D01*
X552186Y438651D01*
X551944Y438603D01*
X551703Y438549D01*
X551464Y438490D01*
X551226Y438425D01*
X550990Y438354D01*
X550755Y438278D01*
X550522Y438196D01*
X550292Y438108D01*
X550064Y438015D01*
X549837Y437917D01*
X550289Y432497D02*
X550201Y432460D01*
X550115Y432419D01*
X550030Y432375D01*
X549947Y432327D01*
X549867Y432276D01*
X549788Y432222D01*
X549712Y432164D01*
X549638Y432104D01*
X549566Y432040D01*
X549498Y431974D01*
X549432Y431904D01*
X549369Y431833D01*
X549308Y431758D01*
X549251Y431682D01*
X549198Y431603D01*
X549147Y431522D01*
X549100Y431439D01*
X549056Y431354D01*
X549016Y431267D01*
X548979Y431179D01*
X548946Y431089D01*
X548916Y430998D01*
X548891Y430906D01*
X548869Y430813D01*
X548851Y430719D01*
X548836Y430625D01*
X548826Y430530D01*
X548820Y430434D01*
X548817Y430339D01*
X548818Y430243D01*
X548824Y430148D01*
X548833Y430052D01*
X548846Y429958D01*
X548862Y429864D01*
X548883Y429770D01*
X548908Y429678D01*
X548936Y429587D01*
X548968Y429497D01*
X549003Y429408D01*
X549042Y429321D01*
X549085Y429235D01*
X549131Y429151D01*
X549181Y429070D01*
X549233Y428990D01*
X549289Y428912D01*
X549349Y428837D01*
X549411Y428765D01*
X549476Y428695D01*
X549544Y428627D01*
X549614Y428563D01*
X549687Y428501D01*
X549763Y428443D01*
X549841Y428387D01*
X549921Y428335D01*
X550003Y428286D01*
X550087Y428241D01*
X550173Y428199D01*
X550260Y428160D01*
X550349Y428125D01*
X550440Y428094D01*
X550531Y428067D01*
X550624Y428043D01*
X550717Y428023D01*
X550811Y428007D01*
X550906Y427995D01*
X551001Y427986D01*
X551097Y427982D01*
X551192Y427981D01*
X551192Y427982D02*
X551554Y427991D01*
X551916Y428009D01*
X552277Y428036D01*
X552637Y428071D01*
X552997Y428114D01*
X553356Y428166D01*
X553713Y428227D01*
X554068Y428296D01*
X554422Y428373D01*
X554774Y428459D01*
X555124Y428553D01*
X555472Y428656D01*
X555817Y428766D01*
X556159Y428885D01*
X542647Y427982D02*
X542647Y438819D01*
X543098Y443335D02*
X543098Y444238D01*
X542195Y444238D01*
X542195Y443335D01*
X543098Y443335D01*
X537657Y438819D02*
X532238Y438819D01*
X535851Y444238D02*
X535851Y430691D01*
X535850Y430691D02*
X535848Y430590D01*
X535842Y430489D01*
X535833Y430388D01*
X535820Y430287D01*
X535803Y430187D01*
X535782Y430088D01*
X535758Y429990D01*
X535730Y429893D01*
X535698Y429796D01*
X535663Y429701D01*
X535624Y429608D01*
X535582Y429516D01*
X535536Y429425D01*
X535487Y429337D01*
X535435Y429250D01*
X535379Y429165D01*
X535321Y429082D01*
X535259Y429002D01*
X535194Y428924D01*
X535127Y428848D01*
X535057Y428775D01*
X534984Y428705D01*
X534908Y428638D01*
X534830Y428573D01*
X534750Y428511D01*
X534667Y428453D01*
X534582Y428397D01*
X534496Y428345D01*
X534407Y428296D01*
X534316Y428250D01*
X534224Y428208D01*
X534131Y428169D01*
X534036Y428134D01*
X533939Y428102D01*
X533842Y428074D01*
X533744Y428050D01*
X533645Y428029D01*
X533545Y428012D01*
X533444Y427999D01*
X533343Y427990D01*
X533242Y427984D01*
X533141Y427982D01*
X532238Y427982D01*
X526495Y427982D02*
X526495Y438819D01*
X526946Y443335D02*
X526946Y444238D01*
X526043Y444238D01*
X526043Y443335D01*
X526946Y443335D01*
X520728Y438819D02*
X517116Y427982D01*
X513504Y438819D01*
X504993Y427982D02*
X500478Y427982D01*
X504993Y427982D02*
X505094Y427984D01*
X505195Y427990D01*
X505296Y427999D01*
X505397Y428012D01*
X505497Y428029D01*
X505596Y428050D01*
X505694Y428074D01*
X505791Y428102D01*
X505888Y428134D01*
X505983Y428169D01*
X506076Y428208D01*
X506168Y428250D01*
X506259Y428296D01*
X506348Y428345D01*
X506434Y428397D01*
X506519Y428453D01*
X506602Y428511D01*
X506682Y428573D01*
X506760Y428638D01*
X506836Y428705D01*
X506909Y428775D01*
X506979Y428848D01*
X507046Y428924D01*
X507111Y429002D01*
X507173Y429082D01*
X507231Y429165D01*
X507287Y429250D01*
X507339Y429337D01*
X507388Y429425D01*
X507434Y429516D01*
X507476Y429608D01*
X507515Y429701D01*
X507550Y429796D01*
X507582Y429893D01*
X507610Y429990D01*
X507634Y430088D01*
X507655Y430187D01*
X507672Y430287D01*
X507685Y430388D01*
X507694Y430489D01*
X507700Y430590D01*
X507702Y430691D01*
X507702Y435207D01*
X507700Y435326D01*
X507694Y435446D01*
X507684Y435565D01*
X507670Y435683D01*
X507653Y435802D01*
X507631Y435919D01*
X507606Y436036D01*
X507576Y436151D01*
X507543Y436266D01*
X507506Y436380D01*
X507466Y436492D01*
X507421Y436603D01*
X507373Y436712D01*
X507322Y436820D01*
X507267Y436926D01*
X507208Y437030D01*
X507146Y437132D01*
X507081Y437232D01*
X507012Y437330D01*
X506940Y437426D01*
X506865Y437519D01*
X506788Y437609D01*
X506707Y437697D01*
X506623Y437782D01*
X506536Y437864D01*
X506447Y437944D01*
X506355Y438020D01*
X506261Y438094D01*
X506164Y438164D01*
X506066Y438231D01*
X505965Y438295D01*
X505861Y438355D01*
X505756Y438412D01*
X505649Y438465D01*
X505541Y438515D01*
X505431Y438561D01*
X505319Y438603D01*
X505206Y438642D01*
X505092Y438677D01*
X504977Y438708D01*
X504860Y438736D01*
X504743Y438759D01*
X504626Y438779D01*
X504507Y438795D01*
X504388Y438807D01*
X504269Y438815D01*
X504150Y438819D01*
X504030Y438819D01*
X503911Y438815D01*
X503792Y438807D01*
X503673Y438795D01*
X503554Y438779D01*
X503437Y438759D01*
X503320Y438736D01*
X503203Y438708D01*
X503088Y438677D01*
X502974Y438642D01*
X502861Y438603D01*
X502749Y438561D01*
X502639Y438515D01*
X502531Y438465D01*
X502424Y438412D01*
X502319Y438355D01*
X502215Y438295D01*
X502114Y438231D01*
X502016Y438164D01*
X501919Y438094D01*
X501825Y438020D01*
X501733Y437944D01*
X501644Y437864D01*
X501557Y437782D01*
X501473Y437697D01*
X501392Y437609D01*
X501315Y437519D01*
X501240Y437426D01*
X501168Y437330D01*
X501099Y437232D01*
X501034Y437132D01*
X500972Y437030D01*
X500913Y436926D01*
X500858Y436820D01*
X500807Y436712D01*
X500759Y436603D01*
X500714Y436492D01*
X500674Y436380D01*
X500637Y436266D01*
X500604Y436151D01*
X500574Y436036D01*
X500549Y435919D01*
X500527Y435802D01*
X500510Y435683D01*
X500496Y435565D01*
X500486Y435446D01*
X500480Y435326D01*
X500478Y435207D01*
X500478Y433401D01*
X507702Y433401D01*
X482731Y434304D02*
X478667Y434304D01*
X482731Y434304D02*
X482843Y434302D01*
X482954Y434296D01*
X483065Y434286D01*
X483176Y434273D01*
X483286Y434255D01*
X483395Y434233D01*
X483504Y434208D01*
X483612Y434179D01*
X483718Y434146D01*
X483824Y434109D01*
X483928Y434069D01*
X484030Y434025D01*
X484131Y433977D01*
X484230Y433926D01*
X484328Y433871D01*
X484423Y433813D01*
X484516Y433752D01*
X484607Y433687D01*
X484696Y433619D01*
X484782Y433548D01*
X484865Y433475D01*
X484946Y433398D01*
X485025Y433318D01*
X485100Y433236D01*
X485172Y433151D01*
X485242Y433064D01*
X485308Y432974D01*
X485371Y432882D01*
X485431Y432787D01*
X485487Y432691D01*
X485540Y432593D01*
X485589Y432493D01*
X485635Y432391D01*
X485677Y432288D01*
X485716Y432183D01*
X485751Y432077D01*
X485782Y431970D01*
X485809Y431862D01*
X485833Y431753D01*
X485852Y431643D01*
X485868Y431533D01*
X485880Y431422D01*
X485888Y431310D01*
X485892Y431199D01*
X485892Y431087D01*
X485888Y430976D01*
X485880Y430864D01*
X485868Y430753D01*
X485852Y430643D01*
X485833Y430533D01*
X485809Y430424D01*
X485782Y430316D01*
X485751Y430209D01*
X485716Y430103D01*
X485677Y429998D01*
X485635Y429895D01*
X485589Y429793D01*
X485540Y429693D01*
X485487Y429595D01*
X485431Y429499D01*
X485371Y429404D01*
X485308Y429312D01*
X485242Y429222D01*
X485172Y429135D01*
X485100Y429050D01*
X485025Y428968D01*
X484946Y428888D01*
X484865Y428811D01*
X484782Y428738D01*
X484696Y428667D01*
X484607Y428599D01*
X484516Y428534D01*
X484423Y428473D01*
X484328Y428415D01*
X484230Y428360D01*
X484131Y428309D01*
X484030Y428261D01*
X483928Y428217D01*
X483824Y428177D01*
X483718Y428140D01*
X483612Y428107D01*
X483504Y428078D01*
X483395Y428053D01*
X483286Y428031D01*
X483176Y428013D01*
X483065Y428000D01*
X482954Y427990D01*
X482843Y427984D01*
X482731Y427982D01*
X478667Y427982D01*
X478667Y436110D01*
X478669Y436211D01*
X478675Y436312D01*
X478684Y436413D01*
X478697Y436514D01*
X478714Y436614D01*
X478735Y436713D01*
X478759Y436811D01*
X478787Y436908D01*
X478819Y437005D01*
X478854Y437100D01*
X478893Y437193D01*
X478935Y437285D01*
X478981Y437376D01*
X479030Y437465D01*
X479082Y437551D01*
X479138Y437636D01*
X479196Y437719D01*
X479258Y437799D01*
X479323Y437877D01*
X479390Y437953D01*
X479460Y438026D01*
X479533Y438096D01*
X479609Y438163D01*
X479687Y438228D01*
X479767Y438290D01*
X479850Y438348D01*
X479935Y438404D01*
X480022Y438456D01*
X480110Y438505D01*
X480201Y438551D01*
X480293Y438593D01*
X480386Y438632D01*
X480481Y438667D01*
X480578Y438699D01*
X480675Y438727D01*
X480773Y438751D01*
X480872Y438772D01*
X480972Y438789D01*
X481073Y438802D01*
X481174Y438811D01*
X481275Y438817D01*
X481376Y438819D01*
X481377Y438819D02*
X484989Y438819D01*
X471230Y438819D02*
X471230Y427982D01*
X471230Y438819D02*
X466714Y438819D01*
X466610Y438817D01*
X466507Y438811D01*
X466403Y438801D01*
X466300Y438787D01*
X466198Y438769D01*
X466097Y438748D01*
X465996Y438722D01*
X465897Y438693D01*
X465798Y438660D01*
X465701Y438623D01*
X465606Y438582D01*
X465512Y438538D01*
X465420Y438490D01*
X465330Y438439D01*
X465241Y438384D01*
X465155Y438326D01*
X465072Y438264D01*
X464990Y438200D01*
X464912Y438132D01*
X464836Y438062D01*
X464762Y437989D01*
X464692Y437912D01*
X464624Y437834D01*
X464560Y437752D01*
X464498Y437669D01*
X464440Y437583D01*
X464385Y437494D01*
X464334Y437404D01*
X464286Y437312D01*
X464242Y437218D01*
X464201Y437123D01*
X464164Y437026D01*
X464131Y436927D01*
X464102Y436828D01*
X464076Y436727D01*
X464055Y436626D01*
X464037Y436524D01*
X464023Y436421D01*
X464013Y436317D01*
X464007Y436214D01*
X464005Y436110D01*
X464005Y427982D01*
X450010Y427982D02*
X450010Y444238D01*
X450010Y427982D02*
X454526Y427982D01*
X454627Y427984D01*
X454728Y427990D01*
X454829Y427999D01*
X454930Y428012D01*
X455030Y428029D01*
X455129Y428050D01*
X455227Y428074D01*
X455324Y428102D01*
X455421Y428134D01*
X455516Y428169D01*
X455609Y428208D01*
X455701Y428250D01*
X455792Y428296D01*
X455881Y428345D01*
X455967Y428397D01*
X456052Y428453D01*
X456135Y428511D01*
X456215Y428573D01*
X456293Y428638D01*
X456369Y428705D01*
X456442Y428775D01*
X456512Y428848D01*
X456579Y428924D01*
X456644Y429002D01*
X456706Y429082D01*
X456764Y429165D01*
X456820Y429250D01*
X456872Y429337D01*
X456921Y429425D01*
X456967Y429516D01*
X457009Y429608D01*
X457048Y429701D01*
X457083Y429796D01*
X457115Y429893D01*
X457143Y429990D01*
X457167Y430088D01*
X457188Y430187D01*
X457205Y430287D01*
X457218Y430388D01*
X457227Y430489D01*
X457233Y430590D01*
X457235Y430691D01*
X457235Y436110D01*
X457233Y436211D01*
X457227Y436312D01*
X457218Y436413D01*
X457205Y436514D01*
X457188Y436614D01*
X457167Y436713D01*
X457143Y436811D01*
X457115Y436908D01*
X457083Y437005D01*
X457048Y437100D01*
X457009Y437193D01*
X456967Y437285D01*
X456921Y437376D01*
X456872Y437465D01*
X456820Y437551D01*
X456764Y437636D01*
X456706Y437719D01*
X456644Y437799D01*
X456579Y437877D01*
X456512Y437953D01*
X456442Y438026D01*
X456369Y438096D01*
X456293Y438163D01*
X456215Y438228D01*
X456135Y438290D01*
X456052Y438348D01*
X455967Y438404D01*
X455881Y438456D01*
X455792Y438505D01*
X455701Y438551D01*
X455609Y438593D01*
X455516Y438632D01*
X455421Y438667D01*
X455324Y438699D01*
X455227Y438727D01*
X455129Y438751D01*
X455030Y438772D01*
X454930Y438789D01*
X454829Y438802D01*
X454728Y438811D01*
X454627Y438817D01*
X454526Y438819D01*
X450010Y438819D01*
X433886Y444238D02*
X433886Y427982D01*
X433886Y444238D02*
X429370Y444238D01*
X429237Y444236D01*
X429105Y444230D01*
X428973Y444220D01*
X428841Y444207D01*
X428709Y444189D01*
X428579Y444168D01*
X428448Y444143D01*
X428319Y444114D01*
X428191Y444081D01*
X428063Y444045D01*
X427937Y444005D01*
X427812Y443961D01*
X427688Y443913D01*
X427566Y443862D01*
X427445Y443807D01*
X427326Y443749D01*
X427208Y443687D01*
X427093Y443622D01*
X426979Y443553D01*
X426868Y443482D01*
X426759Y443406D01*
X426652Y443328D01*
X426547Y443247D01*
X426445Y443162D01*
X426345Y443075D01*
X426248Y442985D01*
X426153Y442892D01*
X426062Y442796D01*
X425973Y442698D01*
X425887Y442597D01*
X425804Y442493D01*
X425724Y442387D01*
X425648Y442279D01*
X425574Y442169D01*
X425504Y442056D01*
X425437Y441942D01*
X425374Y441825D01*
X425314Y441707D01*
X425257Y441587D01*
X425204Y441465D01*
X425155Y441342D01*
X425109Y441218D01*
X425067Y441092D01*
X425029Y440965D01*
X424994Y440837D01*
X424963Y440708D01*
X424936Y440579D01*
X424913Y440448D01*
X424893Y440317D01*
X424878Y440185D01*
X424866Y440053D01*
X424858Y439921D01*
X424854Y439788D01*
X424854Y439656D01*
X424858Y439523D01*
X424866Y439391D01*
X424878Y439259D01*
X424893Y439127D01*
X424913Y438996D01*
X424936Y438865D01*
X424963Y438736D01*
X424994Y438607D01*
X425029Y438479D01*
X425067Y438352D01*
X425109Y438226D01*
X425155Y438102D01*
X425204Y437979D01*
X425257Y437857D01*
X425314Y437737D01*
X425374Y437619D01*
X425437Y437502D01*
X425504Y437388D01*
X425574Y437275D01*
X425648Y437165D01*
X425724Y437057D01*
X425804Y436951D01*
X425887Y436847D01*
X425973Y436746D01*
X426062Y436648D01*
X426153Y436552D01*
X426248Y436459D01*
X426345Y436369D01*
X426445Y436282D01*
X426547Y436197D01*
X426652Y436116D01*
X426759Y436038D01*
X426868Y435962D01*
X426979Y435891D01*
X427093Y435822D01*
X427208Y435757D01*
X427326Y435695D01*
X427445Y435637D01*
X427566Y435582D01*
X427688Y435531D01*
X427812Y435483D01*
X427937Y435439D01*
X428063Y435399D01*
X428191Y435363D01*
X428319Y435330D01*
X428448Y435301D01*
X428579Y435276D01*
X428709Y435255D01*
X428841Y435237D01*
X428973Y435224D01*
X429105Y435214D01*
X429237Y435208D01*
X429370Y435206D01*
X429370Y435207D02*
X433886Y435207D01*
X418520Y438819D02*
X418520Y427982D01*
X418520Y438819D02*
X413101Y438819D01*
X413101Y437013D01*
X405474Y427982D02*
X400959Y427982D01*
X405474Y427982D02*
X405575Y427984D01*
X405676Y427990D01*
X405777Y427999D01*
X405878Y428012D01*
X405978Y428029D01*
X406077Y428050D01*
X406175Y428074D01*
X406272Y428102D01*
X406369Y428134D01*
X406464Y428169D01*
X406557Y428208D01*
X406649Y428250D01*
X406740Y428296D01*
X406829Y428345D01*
X406915Y428397D01*
X407000Y428453D01*
X407083Y428511D01*
X407163Y428573D01*
X407241Y428638D01*
X407317Y428705D01*
X407390Y428775D01*
X407460Y428848D01*
X407527Y428924D01*
X407592Y429002D01*
X407654Y429082D01*
X407712Y429165D01*
X407768Y429250D01*
X407820Y429337D01*
X407869Y429425D01*
X407915Y429516D01*
X407957Y429608D01*
X407996Y429701D01*
X408031Y429796D01*
X408063Y429893D01*
X408091Y429990D01*
X408115Y430088D01*
X408136Y430187D01*
X408153Y430287D01*
X408166Y430388D01*
X408175Y430489D01*
X408181Y430590D01*
X408183Y430691D01*
X408184Y430691D02*
X408184Y435207D01*
X408183Y435207D02*
X408181Y435326D01*
X408175Y435446D01*
X408165Y435565D01*
X408151Y435683D01*
X408134Y435802D01*
X408112Y435919D01*
X408087Y436036D01*
X408057Y436151D01*
X408024Y436266D01*
X407987Y436380D01*
X407947Y436492D01*
X407902Y436603D01*
X407854Y436712D01*
X407803Y436820D01*
X407748Y436926D01*
X407689Y437030D01*
X407627Y437132D01*
X407562Y437232D01*
X407493Y437330D01*
X407421Y437426D01*
X407346Y437519D01*
X407269Y437609D01*
X407188Y437697D01*
X407104Y437782D01*
X407017Y437864D01*
X406928Y437944D01*
X406836Y438020D01*
X406742Y438094D01*
X406645Y438164D01*
X406547Y438231D01*
X406446Y438295D01*
X406342Y438355D01*
X406237Y438412D01*
X406130Y438465D01*
X406022Y438515D01*
X405912Y438561D01*
X405800Y438603D01*
X405687Y438642D01*
X405573Y438677D01*
X405458Y438708D01*
X405341Y438736D01*
X405224Y438759D01*
X405107Y438779D01*
X404988Y438795D01*
X404869Y438807D01*
X404750Y438815D01*
X404631Y438819D01*
X404511Y438819D01*
X404392Y438815D01*
X404273Y438807D01*
X404154Y438795D01*
X404035Y438779D01*
X403918Y438759D01*
X403801Y438736D01*
X403684Y438708D01*
X403569Y438677D01*
X403455Y438642D01*
X403342Y438603D01*
X403230Y438561D01*
X403120Y438515D01*
X403012Y438465D01*
X402905Y438412D01*
X402800Y438355D01*
X402696Y438295D01*
X402595Y438231D01*
X402497Y438164D01*
X402400Y438094D01*
X402306Y438020D01*
X402214Y437944D01*
X402125Y437864D01*
X402038Y437782D01*
X401954Y437697D01*
X401873Y437609D01*
X401796Y437519D01*
X401721Y437426D01*
X401649Y437330D01*
X401580Y437232D01*
X401515Y437132D01*
X401453Y437030D01*
X401394Y436926D01*
X401339Y436820D01*
X401288Y436712D01*
X401240Y436603D01*
X401195Y436492D01*
X401155Y436380D01*
X401118Y436266D01*
X401085Y436151D01*
X401055Y436036D01*
X401030Y435919D01*
X401008Y435802D01*
X400991Y435683D01*
X400977Y435565D01*
X400967Y435446D01*
X400961Y435326D01*
X400959Y435207D01*
X400959Y433401D01*
X408184Y433401D01*
X391910Y427982D02*
X388297Y427982D01*
X391910Y427982D02*
X392011Y427984D01*
X392112Y427990D01*
X392213Y427999D01*
X392314Y428012D01*
X392414Y428029D01*
X392513Y428050D01*
X392611Y428074D01*
X392708Y428102D01*
X392805Y428134D01*
X392900Y428169D01*
X392993Y428208D01*
X393085Y428250D01*
X393176Y428296D01*
X393265Y428345D01*
X393351Y428397D01*
X393436Y428453D01*
X393519Y428511D01*
X393599Y428573D01*
X393677Y428638D01*
X393753Y428705D01*
X393826Y428775D01*
X393896Y428848D01*
X393963Y428924D01*
X394028Y429002D01*
X394090Y429082D01*
X394148Y429165D01*
X394204Y429250D01*
X394256Y429337D01*
X394305Y429425D01*
X394351Y429516D01*
X394393Y429608D01*
X394432Y429701D01*
X394467Y429796D01*
X394499Y429893D01*
X394527Y429990D01*
X394551Y430088D01*
X394572Y430187D01*
X394589Y430287D01*
X394602Y430388D01*
X394611Y430489D01*
X394617Y430590D01*
X394619Y430691D01*
X394619Y436110D01*
X394617Y436211D01*
X394611Y436312D01*
X394602Y436413D01*
X394589Y436514D01*
X394572Y436614D01*
X394551Y436713D01*
X394527Y436811D01*
X394499Y436908D01*
X394467Y437005D01*
X394432Y437100D01*
X394393Y437193D01*
X394351Y437285D01*
X394305Y437376D01*
X394256Y437465D01*
X394204Y437551D01*
X394148Y437636D01*
X394090Y437719D01*
X394028Y437799D01*
X393963Y437877D01*
X393896Y437953D01*
X393826Y438026D01*
X393753Y438096D01*
X393677Y438163D01*
X393599Y438228D01*
X393519Y438290D01*
X393436Y438348D01*
X393351Y438404D01*
X393265Y438456D01*
X393176Y438505D01*
X393085Y438551D01*
X392993Y438593D01*
X392900Y438632D01*
X392805Y438667D01*
X392708Y438699D01*
X392611Y438727D01*
X392513Y438751D01*
X392414Y438772D01*
X392314Y438789D01*
X392213Y438802D01*
X392112Y438811D01*
X392011Y438817D01*
X391910Y438819D01*
X388297Y438819D01*
X382132Y444238D02*
X382132Y427982D01*
X382132Y438819D02*
X377616Y438819D01*
X377512Y438817D01*
X377409Y438811D01*
X377305Y438801D01*
X377202Y438787D01*
X377100Y438769D01*
X376999Y438748D01*
X376898Y438722D01*
X376799Y438693D01*
X376700Y438660D01*
X376603Y438623D01*
X376508Y438582D01*
X376414Y438538D01*
X376322Y438490D01*
X376232Y438439D01*
X376143Y438384D01*
X376057Y438326D01*
X375974Y438264D01*
X375892Y438200D01*
X375814Y438132D01*
X375738Y438062D01*
X375664Y437989D01*
X375594Y437912D01*
X375526Y437834D01*
X375462Y437752D01*
X375400Y437669D01*
X375342Y437583D01*
X375287Y437494D01*
X375236Y437404D01*
X375188Y437312D01*
X375144Y437218D01*
X375103Y437123D01*
X375066Y437026D01*
X375033Y436927D01*
X375004Y436828D01*
X374978Y436727D01*
X374957Y436626D01*
X374939Y436524D01*
X374925Y436421D01*
X374915Y436317D01*
X374909Y436214D01*
X374907Y436110D01*
X374907Y427982D01*
X364976Y434304D02*
X360912Y434304D01*
X364976Y434304D02*
X365088Y434302D01*
X365199Y434296D01*
X365310Y434286D01*
X365421Y434273D01*
X365531Y434255D01*
X365640Y434233D01*
X365749Y434208D01*
X365857Y434179D01*
X365963Y434146D01*
X366069Y434109D01*
X366173Y434069D01*
X366275Y434025D01*
X366376Y433977D01*
X366475Y433926D01*
X366573Y433871D01*
X366668Y433813D01*
X366761Y433752D01*
X366852Y433687D01*
X366941Y433619D01*
X367027Y433548D01*
X367110Y433475D01*
X367191Y433398D01*
X367270Y433318D01*
X367345Y433236D01*
X367417Y433151D01*
X367487Y433064D01*
X367553Y432974D01*
X367616Y432882D01*
X367676Y432787D01*
X367732Y432691D01*
X367785Y432593D01*
X367834Y432493D01*
X367880Y432391D01*
X367922Y432288D01*
X367961Y432183D01*
X367996Y432077D01*
X368027Y431970D01*
X368054Y431862D01*
X368078Y431753D01*
X368097Y431643D01*
X368113Y431533D01*
X368125Y431422D01*
X368133Y431310D01*
X368137Y431199D01*
X368137Y431087D01*
X368133Y430976D01*
X368125Y430864D01*
X368113Y430753D01*
X368097Y430643D01*
X368078Y430533D01*
X368054Y430424D01*
X368027Y430316D01*
X367996Y430209D01*
X367961Y430103D01*
X367922Y429998D01*
X367880Y429895D01*
X367834Y429793D01*
X367785Y429693D01*
X367732Y429595D01*
X367676Y429499D01*
X367616Y429404D01*
X367553Y429312D01*
X367487Y429222D01*
X367417Y429135D01*
X367345Y429050D01*
X367270Y428968D01*
X367191Y428888D01*
X367110Y428811D01*
X367027Y428738D01*
X366941Y428667D01*
X366852Y428599D01*
X366761Y428534D01*
X366668Y428473D01*
X366573Y428415D01*
X366475Y428360D01*
X366376Y428309D01*
X366275Y428261D01*
X366173Y428217D01*
X366069Y428177D01*
X365963Y428140D01*
X365857Y428107D01*
X365749Y428078D01*
X365640Y428053D01*
X365531Y428031D01*
X365421Y428013D01*
X365310Y428000D01*
X365199Y427990D01*
X365088Y427984D01*
X364976Y427982D01*
X360912Y427982D01*
X360912Y436110D01*
X360914Y436211D01*
X360920Y436312D01*
X360929Y436413D01*
X360942Y436514D01*
X360959Y436614D01*
X360980Y436713D01*
X361004Y436811D01*
X361032Y436908D01*
X361064Y437005D01*
X361099Y437100D01*
X361138Y437193D01*
X361180Y437285D01*
X361226Y437376D01*
X361275Y437465D01*
X361327Y437551D01*
X361383Y437636D01*
X361441Y437719D01*
X361503Y437799D01*
X361568Y437877D01*
X361635Y437953D01*
X361705Y438026D01*
X361778Y438096D01*
X361854Y438163D01*
X361932Y438228D01*
X362012Y438290D01*
X362095Y438348D01*
X362180Y438404D01*
X362267Y438456D01*
X362355Y438505D01*
X362446Y438551D01*
X362538Y438593D01*
X362631Y438632D01*
X362726Y438667D01*
X362823Y438699D01*
X362920Y438727D01*
X363018Y438751D01*
X363117Y438772D01*
X363217Y438789D01*
X363318Y438802D01*
X363419Y438811D01*
X363520Y438817D01*
X363621Y438819D01*
X367234Y438819D01*
X353390Y438819D02*
X353390Y427982D01*
X353390Y438819D02*
X347971Y438819D01*
X347971Y437013D01*
X340418Y427982D02*
X335902Y427982D01*
X340418Y427982D02*
X340519Y427984D01*
X340620Y427990D01*
X340721Y427999D01*
X340822Y428012D01*
X340922Y428029D01*
X341021Y428050D01*
X341119Y428074D01*
X341216Y428102D01*
X341313Y428134D01*
X341408Y428169D01*
X341501Y428208D01*
X341593Y428250D01*
X341684Y428296D01*
X341773Y428345D01*
X341859Y428397D01*
X341944Y428453D01*
X342027Y428511D01*
X342107Y428573D01*
X342185Y428638D01*
X342261Y428705D01*
X342334Y428775D01*
X342404Y428848D01*
X342471Y428924D01*
X342536Y429002D01*
X342598Y429082D01*
X342656Y429165D01*
X342712Y429250D01*
X342764Y429337D01*
X342813Y429425D01*
X342859Y429516D01*
X342901Y429608D01*
X342940Y429701D01*
X342975Y429796D01*
X343007Y429893D01*
X343035Y429990D01*
X343059Y430088D01*
X343080Y430187D01*
X343097Y430287D01*
X343110Y430388D01*
X343119Y430489D01*
X343125Y430590D01*
X343127Y430691D01*
X343127Y436110D01*
X343125Y436211D01*
X343119Y436312D01*
X343110Y436413D01*
X343097Y436514D01*
X343080Y436614D01*
X343059Y436713D01*
X343035Y436811D01*
X343007Y436908D01*
X342975Y437005D01*
X342940Y437100D01*
X342901Y437193D01*
X342859Y437285D01*
X342813Y437376D01*
X342764Y437465D01*
X342712Y437551D01*
X342656Y437636D01*
X342598Y437719D01*
X342536Y437799D01*
X342471Y437877D01*
X342404Y437953D01*
X342334Y438026D01*
X342261Y438096D01*
X342185Y438163D01*
X342107Y438228D01*
X342027Y438290D01*
X341944Y438348D01*
X341859Y438404D01*
X341773Y438456D01*
X341684Y438505D01*
X341593Y438551D01*
X341501Y438593D01*
X341408Y438632D01*
X341313Y438667D01*
X341216Y438699D01*
X341119Y438727D01*
X341021Y438751D01*
X340922Y438772D01*
X340822Y438789D01*
X340721Y438802D01*
X340620Y438811D01*
X340519Y438817D01*
X340418Y438819D01*
X335902Y438819D01*
X335902Y425273D01*
X335904Y425172D01*
X335910Y425071D01*
X335919Y424970D01*
X335932Y424869D01*
X335949Y424769D01*
X335970Y424670D01*
X335994Y424572D01*
X336022Y424475D01*
X336054Y424378D01*
X336089Y424283D01*
X336128Y424190D01*
X336170Y424098D01*
X336216Y424007D01*
X336265Y423919D01*
X336317Y423832D01*
X336373Y423747D01*
X336431Y423664D01*
X336493Y423584D01*
X336558Y423506D01*
X336625Y423430D01*
X336695Y423357D01*
X336768Y423287D01*
X336844Y423220D01*
X336922Y423155D01*
X337002Y423093D01*
X337085Y423035D01*
X337170Y422979D01*
X337257Y422927D01*
X337345Y422878D01*
X337436Y422832D01*
X337528Y422790D01*
X337621Y422751D01*
X337716Y422716D01*
X337813Y422684D01*
X337910Y422656D01*
X338008Y422632D01*
X338107Y422611D01*
X338207Y422594D01*
X338308Y422581D01*
X338409Y422572D01*
X338510Y422566D01*
X338611Y422564D01*
X338611Y422563D02*
X342224Y422563D01*
X326276Y427982D02*
X321761Y427982D01*
X326276Y427982D02*
X326377Y427984D01*
X326478Y427990D01*
X326579Y427999D01*
X326680Y428012D01*
X326780Y428029D01*
X326879Y428050D01*
X326977Y428074D01*
X327074Y428102D01*
X327171Y428134D01*
X327266Y428169D01*
X327359Y428208D01*
X327451Y428250D01*
X327542Y428296D01*
X327631Y428345D01*
X327717Y428397D01*
X327802Y428453D01*
X327885Y428511D01*
X327965Y428573D01*
X328043Y428638D01*
X328119Y428705D01*
X328192Y428775D01*
X328262Y428848D01*
X328329Y428924D01*
X328394Y429002D01*
X328456Y429082D01*
X328514Y429165D01*
X328570Y429250D01*
X328622Y429337D01*
X328671Y429425D01*
X328717Y429516D01*
X328759Y429608D01*
X328798Y429701D01*
X328833Y429796D01*
X328865Y429893D01*
X328893Y429990D01*
X328917Y430088D01*
X328938Y430187D01*
X328955Y430287D01*
X328968Y430388D01*
X328977Y430489D01*
X328983Y430590D01*
X328985Y430691D01*
X328986Y430691D02*
X328986Y435207D01*
X328985Y435207D02*
X328983Y435326D01*
X328977Y435446D01*
X328967Y435565D01*
X328953Y435683D01*
X328936Y435802D01*
X328914Y435919D01*
X328889Y436036D01*
X328859Y436151D01*
X328826Y436266D01*
X328789Y436380D01*
X328749Y436492D01*
X328704Y436603D01*
X328656Y436712D01*
X328605Y436820D01*
X328550Y436926D01*
X328491Y437030D01*
X328429Y437132D01*
X328364Y437232D01*
X328295Y437330D01*
X328223Y437426D01*
X328148Y437519D01*
X328071Y437609D01*
X327990Y437697D01*
X327906Y437782D01*
X327819Y437864D01*
X327730Y437944D01*
X327638Y438020D01*
X327544Y438094D01*
X327447Y438164D01*
X327349Y438231D01*
X327248Y438295D01*
X327144Y438355D01*
X327039Y438412D01*
X326932Y438465D01*
X326824Y438515D01*
X326714Y438561D01*
X326602Y438603D01*
X326489Y438642D01*
X326375Y438677D01*
X326260Y438708D01*
X326143Y438736D01*
X326026Y438759D01*
X325909Y438779D01*
X325790Y438795D01*
X325671Y438807D01*
X325552Y438815D01*
X325433Y438819D01*
X325313Y438819D01*
X325194Y438815D01*
X325075Y438807D01*
X324956Y438795D01*
X324837Y438779D01*
X324720Y438759D01*
X324603Y438736D01*
X324486Y438708D01*
X324371Y438677D01*
X324257Y438642D01*
X324144Y438603D01*
X324032Y438561D01*
X323922Y438515D01*
X323814Y438465D01*
X323707Y438412D01*
X323602Y438355D01*
X323498Y438295D01*
X323397Y438231D01*
X323299Y438164D01*
X323202Y438094D01*
X323108Y438020D01*
X323016Y437944D01*
X322927Y437864D01*
X322840Y437782D01*
X322756Y437697D01*
X322675Y437609D01*
X322598Y437519D01*
X322523Y437426D01*
X322451Y437330D01*
X322382Y437232D01*
X322317Y437132D01*
X322255Y437030D01*
X322196Y436926D01*
X322141Y436820D01*
X322090Y436712D01*
X322042Y436603D01*
X321997Y436492D01*
X321957Y436380D01*
X321920Y436266D01*
X321887Y436151D01*
X321857Y436036D01*
X321832Y435919D01*
X321810Y435802D01*
X321793Y435683D01*
X321779Y435565D01*
X321769Y435446D01*
X321763Y435326D01*
X321761Y435207D01*
X321761Y433401D01*
X328986Y433401D01*
X306231Y437013D02*
X301715Y437013D01*
X301715Y437014D02*
X301582Y437012D01*
X301450Y437006D01*
X301318Y436996D01*
X301186Y436983D01*
X301054Y436965D01*
X300924Y436944D01*
X300793Y436919D01*
X300664Y436890D01*
X300536Y436857D01*
X300408Y436821D01*
X300282Y436781D01*
X300157Y436737D01*
X300033Y436689D01*
X299911Y436638D01*
X299790Y436583D01*
X299671Y436525D01*
X299553Y436463D01*
X299438Y436398D01*
X299324Y436329D01*
X299213Y436258D01*
X299104Y436182D01*
X298997Y436104D01*
X298892Y436023D01*
X298790Y435938D01*
X298690Y435851D01*
X298593Y435761D01*
X298498Y435668D01*
X298407Y435572D01*
X298318Y435474D01*
X298232Y435373D01*
X298149Y435269D01*
X298069Y435163D01*
X297993Y435055D01*
X297919Y434945D01*
X297849Y434832D01*
X297782Y434718D01*
X297719Y434601D01*
X297659Y434483D01*
X297602Y434363D01*
X297549Y434241D01*
X297500Y434118D01*
X297454Y433994D01*
X297412Y433868D01*
X297374Y433741D01*
X297339Y433613D01*
X297308Y433484D01*
X297281Y433355D01*
X297258Y433224D01*
X297238Y433093D01*
X297223Y432961D01*
X297211Y432829D01*
X297203Y432697D01*
X297199Y432564D01*
X297199Y432432D01*
X297203Y432299D01*
X297211Y432167D01*
X297223Y432035D01*
X297238Y431903D01*
X297258Y431772D01*
X297281Y431641D01*
X297308Y431512D01*
X297339Y431383D01*
X297374Y431255D01*
X297412Y431128D01*
X297454Y431002D01*
X297500Y430878D01*
X297549Y430755D01*
X297602Y430633D01*
X297659Y430513D01*
X297719Y430395D01*
X297782Y430278D01*
X297849Y430164D01*
X297919Y430051D01*
X297993Y429941D01*
X298069Y429833D01*
X298149Y429727D01*
X298232Y429623D01*
X298318Y429522D01*
X298407Y429424D01*
X298498Y429328D01*
X298593Y429235D01*
X298690Y429145D01*
X298790Y429058D01*
X298892Y428973D01*
X298997Y428892D01*
X299104Y428814D01*
X299213Y428738D01*
X299324Y428667D01*
X299438Y428598D01*
X299553Y428533D01*
X299671Y428471D01*
X299790Y428413D01*
X299911Y428358D01*
X300033Y428307D01*
X300157Y428259D01*
X300282Y428215D01*
X300408Y428175D01*
X300536Y428139D01*
X300664Y428106D01*
X300793Y428077D01*
X300924Y428052D01*
X301054Y428031D01*
X301186Y428013D01*
X301318Y428000D01*
X301450Y427990D01*
X301582Y427984D01*
X301715Y427982D01*
X306231Y427982D01*
X306231Y444238D01*
X301715Y444238D01*
X301596Y444236D01*
X301476Y444230D01*
X301357Y444220D01*
X301239Y444206D01*
X301120Y444189D01*
X301003Y444167D01*
X300886Y444142D01*
X300771Y444112D01*
X300656Y444079D01*
X300542Y444042D01*
X300430Y444002D01*
X300319Y443957D01*
X300210Y443909D01*
X300102Y443858D01*
X299996Y443803D01*
X299892Y443744D01*
X299790Y443682D01*
X299690Y443617D01*
X299592Y443548D01*
X299496Y443476D01*
X299403Y443401D01*
X299313Y443324D01*
X299225Y443243D01*
X299140Y443159D01*
X299058Y443072D01*
X298978Y442983D01*
X298902Y442891D01*
X298828Y442797D01*
X298758Y442700D01*
X298691Y442602D01*
X298627Y442501D01*
X298567Y442397D01*
X298510Y442292D01*
X298457Y442185D01*
X298407Y442077D01*
X298361Y441967D01*
X298319Y441855D01*
X298280Y441742D01*
X298245Y441628D01*
X298214Y441513D01*
X298186Y441396D01*
X298163Y441279D01*
X298143Y441162D01*
X298127Y441043D01*
X298115Y440924D01*
X298107Y440805D01*
X298103Y440686D01*
X298103Y440566D01*
X298107Y440447D01*
X298115Y440328D01*
X298127Y440209D01*
X298143Y440090D01*
X298163Y439973D01*
X298186Y439856D01*
X298214Y439739D01*
X298245Y439624D01*
X298280Y439510D01*
X298319Y439397D01*
X298361Y439285D01*
X298407Y439175D01*
X298457Y439067D01*
X298510Y438960D01*
X298567Y438855D01*
X298627Y438751D01*
X298691Y438650D01*
X298758Y438552D01*
X298828Y438455D01*
X298902Y438361D01*
X298978Y438269D01*
X299058Y438180D01*
X299140Y438093D01*
X299225Y438009D01*
X299313Y437928D01*
X299403Y437851D01*
X299496Y437776D01*
X299592Y437704D01*
X299690Y437635D01*
X299790Y437570D01*
X299892Y437508D01*
X299996Y437449D01*
X300102Y437394D01*
X300210Y437343D01*
X300319Y437295D01*
X300430Y437250D01*
X300542Y437210D01*
X300656Y437173D01*
X300771Y437140D01*
X300886Y437110D01*
X301003Y437085D01*
X301120Y437063D01*
X301239Y437046D01*
X301357Y437032D01*
X301476Y437022D01*
X301596Y437016D01*
X301715Y437014D01*
X291471Y435207D02*
X291471Y431594D01*
X291470Y435207D02*
X291468Y435326D01*
X291462Y435446D01*
X291452Y435565D01*
X291438Y435683D01*
X291421Y435802D01*
X291399Y435919D01*
X291374Y436036D01*
X291344Y436151D01*
X291311Y436266D01*
X291274Y436380D01*
X291234Y436492D01*
X291189Y436603D01*
X291141Y436712D01*
X291090Y436820D01*
X291035Y436926D01*
X290976Y437030D01*
X290914Y437132D01*
X290849Y437232D01*
X290780Y437330D01*
X290708Y437426D01*
X290633Y437519D01*
X290556Y437609D01*
X290475Y437697D01*
X290391Y437782D01*
X290304Y437864D01*
X290215Y437944D01*
X290123Y438020D01*
X290029Y438094D01*
X289932Y438164D01*
X289834Y438231D01*
X289733Y438295D01*
X289629Y438355D01*
X289524Y438412D01*
X289417Y438465D01*
X289309Y438515D01*
X289199Y438561D01*
X289087Y438603D01*
X288974Y438642D01*
X288860Y438677D01*
X288745Y438708D01*
X288628Y438736D01*
X288511Y438759D01*
X288394Y438779D01*
X288275Y438795D01*
X288156Y438807D01*
X288037Y438815D01*
X287918Y438819D01*
X287798Y438819D01*
X287679Y438815D01*
X287560Y438807D01*
X287441Y438795D01*
X287322Y438779D01*
X287205Y438759D01*
X287088Y438736D01*
X286971Y438708D01*
X286856Y438677D01*
X286742Y438642D01*
X286629Y438603D01*
X286517Y438561D01*
X286407Y438515D01*
X286299Y438465D01*
X286192Y438412D01*
X286087Y438355D01*
X285983Y438295D01*
X285882Y438231D01*
X285784Y438164D01*
X285687Y438094D01*
X285593Y438020D01*
X285501Y437944D01*
X285412Y437864D01*
X285325Y437782D01*
X285241Y437697D01*
X285160Y437609D01*
X285083Y437519D01*
X285008Y437426D01*
X284936Y437330D01*
X284867Y437232D01*
X284802Y437132D01*
X284740Y437030D01*
X284681Y436926D01*
X284626Y436820D01*
X284575Y436712D01*
X284527Y436603D01*
X284482Y436492D01*
X284442Y436380D01*
X284405Y436266D01*
X284372Y436151D01*
X284342Y436036D01*
X284317Y435919D01*
X284295Y435802D01*
X284278Y435683D01*
X284264Y435565D01*
X284254Y435446D01*
X284248Y435326D01*
X284246Y435207D01*
X284246Y431594D01*
X284248Y431475D01*
X284254Y431355D01*
X284264Y431236D01*
X284278Y431118D01*
X284295Y430999D01*
X284317Y430882D01*
X284342Y430765D01*
X284372Y430650D01*
X284405Y430535D01*
X284442Y430421D01*
X284482Y430309D01*
X284527Y430198D01*
X284575Y430089D01*
X284626Y429981D01*
X284681Y429875D01*
X284740Y429771D01*
X284802Y429669D01*
X284867Y429569D01*
X284936Y429471D01*
X285008Y429375D01*
X285083Y429282D01*
X285160Y429192D01*
X285241Y429104D01*
X285325Y429019D01*
X285412Y428937D01*
X285501Y428857D01*
X285593Y428781D01*
X285687Y428707D01*
X285784Y428637D01*
X285882Y428570D01*
X285983Y428506D01*
X286087Y428446D01*
X286192Y428389D01*
X286299Y428336D01*
X286407Y428286D01*
X286517Y428240D01*
X286629Y428198D01*
X286742Y428159D01*
X286856Y428124D01*
X286971Y428093D01*
X287088Y428065D01*
X287205Y428042D01*
X287322Y428022D01*
X287441Y428006D01*
X287560Y427994D01*
X287679Y427986D01*
X287798Y427982D01*
X287918Y427982D01*
X288037Y427986D01*
X288156Y427994D01*
X288275Y428006D01*
X288394Y428022D01*
X288511Y428042D01*
X288628Y428065D01*
X288745Y428093D01*
X288860Y428124D01*
X288974Y428159D01*
X289087Y428198D01*
X289199Y428240D01*
X289309Y428286D01*
X289417Y428336D01*
X289524Y428389D01*
X289629Y428446D01*
X289733Y428506D01*
X289834Y428570D01*
X289932Y428637D01*
X290029Y428707D01*
X290123Y428781D01*
X290215Y428857D01*
X290304Y428937D01*
X290391Y429019D01*
X290475Y429104D01*
X290556Y429192D01*
X290633Y429282D01*
X290708Y429375D01*
X290780Y429471D01*
X290849Y429569D01*
X290914Y429669D01*
X290976Y429771D01*
X291035Y429875D01*
X291090Y429981D01*
X291141Y430089D01*
X291189Y430198D01*
X291234Y430309D01*
X291274Y430421D01*
X291311Y430535D01*
X291344Y430650D01*
X291374Y430765D01*
X291399Y430882D01*
X291421Y430999D01*
X291438Y431118D01*
X291452Y431236D01*
X291462Y431355D01*
X291468Y431475D01*
X291470Y431594D01*
X274836Y434304D02*
X270772Y434304D01*
X274836Y434304D02*
X274948Y434302D01*
X275059Y434296D01*
X275170Y434286D01*
X275281Y434273D01*
X275391Y434255D01*
X275500Y434233D01*
X275609Y434208D01*
X275717Y434179D01*
X275823Y434146D01*
X275929Y434109D01*
X276033Y434069D01*
X276135Y434025D01*
X276236Y433977D01*
X276335Y433926D01*
X276433Y433871D01*
X276528Y433813D01*
X276621Y433752D01*
X276712Y433687D01*
X276801Y433619D01*
X276887Y433548D01*
X276970Y433475D01*
X277051Y433398D01*
X277130Y433318D01*
X277205Y433236D01*
X277277Y433151D01*
X277347Y433064D01*
X277413Y432974D01*
X277476Y432882D01*
X277536Y432787D01*
X277592Y432691D01*
X277645Y432593D01*
X277694Y432493D01*
X277740Y432391D01*
X277782Y432288D01*
X277821Y432183D01*
X277856Y432077D01*
X277887Y431970D01*
X277914Y431862D01*
X277938Y431753D01*
X277957Y431643D01*
X277973Y431533D01*
X277985Y431422D01*
X277993Y431310D01*
X277997Y431199D01*
X277997Y431087D01*
X277993Y430976D01*
X277985Y430864D01*
X277973Y430753D01*
X277957Y430643D01*
X277938Y430533D01*
X277914Y430424D01*
X277887Y430316D01*
X277856Y430209D01*
X277821Y430103D01*
X277782Y429998D01*
X277740Y429895D01*
X277694Y429793D01*
X277645Y429693D01*
X277592Y429595D01*
X277536Y429499D01*
X277476Y429404D01*
X277413Y429312D01*
X277347Y429222D01*
X277277Y429135D01*
X277205Y429050D01*
X277130Y428968D01*
X277051Y428888D01*
X276970Y428811D01*
X276887Y428738D01*
X276801Y428667D01*
X276712Y428599D01*
X276621Y428534D01*
X276528Y428473D01*
X276433Y428415D01*
X276335Y428360D01*
X276236Y428309D01*
X276135Y428261D01*
X276033Y428217D01*
X275929Y428177D01*
X275823Y428140D01*
X275717Y428107D01*
X275609Y428078D01*
X275500Y428053D01*
X275391Y428031D01*
X275281Y428013D01*
X275170Y428000D01*
X275059Y427990D01*
X274948Y427984D01*
X274836Y427982D01*
X270772Y427982D01*
X270772Y436110D01*
X270774Y436211D01*
X270780Y436312D01*
X270789Y436413D01*
X270802Y436514D01*
X270819Y436614D01*
X270840Y436713D01*
X270864Y436811D01*
X270892Y436908D01*
X270924Y437005D01*
X270959Y437100D01*
X270998Y437193D01*
X271040Y437285D01*
X271086Y437376D01*
X271135Y437465D01*
X271187Y437551D01*
X271243Y437636D01*
X271301Y437719D01*
X271363Y437799D01*
X271428Y437877D01*
X271495Y437953D01*
X271565Y438026D01*
X271638Y438096D01*
X271714Y438163D01*
X271792Y438228D01*
X271872Y438290D01*
X271955Y438348D01*
X272040Y438404D01*
X272127Y438456D01*
X272215Y438505D01*
X272306Y438551D01*
X272398Y438593D01*
X272491Y438632D01*
X272586Y438667D01*
X272683Y438699D01*
X272780Y438727D01*
X272878Y438751D01*
X272977Y438772D01*
X273077Y438789D01*
X273178Y438802D01*
X273279Y438811D01*
X273380Y438817D01*
X273481Y438819D01*
X277094Y438819D01*
X263250Y438819D02*
X263250Y427982D01*
X263250Y438819D02*
X257831Y438819D01*
X257831Y437013D01*
X245762Y444238D02*
X245762Y427982D01*
X250278Y427982D01*
X250379Y427984D01*
X250480Y427990D01*
X250581Y427999D01*
X250682Y428012D01*
X250782Y428029D01*
X250881Y428050D01*
X250979Y428074D01*
X251076Y428102D01*
X251173Y428134D01*
X251268Y428169D01*
X251361Y428208D01*
X251453Y428250D01*
X251544Y428296D01*
X251633Y428345D01*
X251719Y428397D01*
X251804Y428453D01*
X251887Y428511D01*
X251967Y428573D01*
X252045Y428638D01*
X252121Y428705D01*
X252194Y428775D01*
X252264Y428848D01*
X252331Y428924D01*
X252396Y429002D01*
X252458Y429082D01*
X252516Y429165D01*
X252572Y429250D01*
X252624Y429337D01*
X252673Y429425D01*
X252719Y429516D01*
X252761Y429608D01*
X252800Y429701D01*
X252835Y429796D01*
X252867Y429893D01*
X252895Y429990D01*
X252919Y430088D01*
X252940Y430187D01*
X252957Y430287D01*
X252970Y430388D01*
X252979Y430489D01*
X252985Y430590D01*
X252987Y430691D01*
X252987Y436110D01*
X252985Y436211D01*
X252979Y436312D01*
X252970Y436413D01*
X252957Y436514D01*
X252940Y436614D01*
X252919Y436713D01*
X252895Y436811D01*
X252867Y436908D01*
X252835Y437005D01*
X252800Y437100D01*
X252761Y437193D01*
X252719Y437285D01*
X252673Y437376D01*
X252624Y437465D01*
X252572Y437551D01*
X252516Y437636D01*
X252458Y437719D01*
X252396Y437799D01*
X252331Y437877D01*
X252264Y437953D01*
X252194Y438026D01*
X252121Y438096D01*
X252045Y438163D01*
X251967Y438228D01*
X251887Y438290D01*
X251804Y438348D01*
X251719Y438404D01*
X251633Y438456D01*
X251544Y438505D01*
X251453Y438551D01*
X251361Y438593D01*
X251268Y438632D01*
X251173Y438667D01*
X251076Y438699D01*
X250979Y438727D01*
X250881Y438751D01*
X250782Y438772D01*
X250682Y438789D01*
X250581Y438802D01*
X250480Y438811D01*
X250379Y438817D01*
X250278Y438819D01*
X245762Y438819D01*
X635600Y417568D02*
X635600Y401312D01*
X635600Y417568D02*
X631085Y417568D01*
X630952Y417566D01*
X630820Y417560D01*
X630688Y417550D01*
X630556Y417537D01*
X630424Y417519D01*
X630294Y417498D01*
X630163Y417473D01*
X630034Y417444D01*
X629906Y417411D01*
X629778Y417375D01*
X629652Y417335D01*
X629527Y417291D01*
X629403Y417243D01*
X629281Y417192D01*
X629160Y417137D01*
X629041Y417079D01*
X628923Y417017D01*
X628808Y416952D01*
X628694Y416883D01*
X628583Y416812D01*
X628474Y416736D01*
X628367Y416658D01*
X628262Y416577D01*
X628160Y416492D01*
X628060Y416405D01*
X627963Y416315D01*
X627868Y416222D01*
X627777Y416126D01*
X627688Y416028D01*
X627602Y415927D01*
X627519Y415823D01*
X627439Y415717D01*
X627363Y415609D01*
X627289Y415499D01*
X627219Y415386D01*
X627152Y415272D01*
X627089Y415155D01*
X627029Y415037D01*
X626972Y414917D01*
X626919Y414795D01*
X626870Y414672D01*
X626824Y414548D01*
X626782Y414422D01*
X626744Y414295D01*
X626709Y414167D01*
X626678Y414038D01*
X626651Y413909D01*
X626628Y413778D01*
X626608Y413647D01*
X626593Y413515D01*
X626581Y413383D01*
X626573Y413251D01*
X626569Y413118D01*
X626569Y412986D01*
X626573Y412853D01*
X626581Y412721D01*
X626593Y412589D01*
X626608Y412457D01*
X626628Y412326D01*
X626651Y412195D01*
X626678Y412066D01*
X626709Y411937D01*
X626744Y411809D01*
X626782Y411682D01*
X626824Y411556D01*
X626870Y411432D01*
X626919Y411309D01*
X626972Y411187D01*
X627029Y411067D01*
X627089Y410949D01*
X627152Y410832D01*
X627219Y410718D01*
X627289Y410605D01*
X627363Y410495D01*
X627439Y410387D01*
X627519Y410281D01*
X627602Y410177D01*
X627688Y410076D01*
X627777Y409978D01*
X627868Y409882D01*
X627963Y409789D01*
X628060Y409699D01*
X628160Y409612D01*
X628262Y409527D01*
X628367Y409446D01*
X628474Y409368D01*
X628583Y409292D01*
X628694Y409221D01*
X628808Y409152D01*
X628923Y409087D01*
X629041Y409025D01*
X629160Y408967D01*
X629281Y408912D01*
X629403Y408861D01*
X629527Y408813D01*
X629652Y408769D01*
X629778Y408729D01*
X629906Y408693D01*
X630034Y408660D01*
X630163Y408631D01*
X630294Y408606D01*
X630424Y408585D01*
X630556Y408567D01*
X630688Y408554D01*
X630820Y408544D01*
X630952Y408538D01*
X631085Y408536D01*
X631085Y408537D02*
X635600Y408537D01*
X620234Y412149D02*
X620234Y401312D01*
X620234Y412149D02*
X614816Y412149D01*
X614816Y410343D01*
X607189Y401312D02*
X602673Y401312D01*
X607189Y401312D02*
X607290Y401314D01*
X607391Y401320D01*
X607492Y401329D01*
X607593Y401342D01*
X607693Y401359D01*
X607792Y401380D01*
X607890Y401404D01*
X607987Y401432D01*
X608084Y401464D01*
X608179Y401499D01*
X608272Y401538D01*
X608364Y401580D01*
X608455Y401626D01*
X608544Y401675D01*
X608630Y401727D01*
X608715Y401783D01*
X608798Y401841D01*
X608878Y401903D01*
X608956Y401968D01*
X609032Y402035D01*
X609105Y402105D01*
X609175Y402178D01*
X609242Y402254D01*
X609307Y402332D01*
X609369Y402412D01*
X609427Y402495D01*
X609483Y402580D01*
X609535Y402667D01*
X609584Y402755D01*
X609630Y402846D01*
X609672Y402938D01*
X609711Y403031D01*
X609746Y403126D01*
X609778Y403223D01*
X609806Y403320D01*
X609830Y403418D01*
X609851Y403517D01*
X609868Y403617D01*
X609881Y403718D01*
X609890Y403819D01*
X609896Y403920D01*
X609898Y404021D01*
X609898Y408537D01*
X609896Y408656D01*
X609890Y408776D01*
X609880Y408895D01*
X609866Y409013D01*
X609849Y409132D01*
X609827Y409249D01*
X609802Y409366D01*
X609772Y409481D01*
X609739Y409596D01*
X609702Y409710D01*
X609662Y409822D01*
X609617Y409933D01*
X609569Y410042D01*
X609518Y410150D01*
X609463Y410256D01*
X609404Y410360D01*
X609342Y410462D01*
X609277Y410562D01*
X609208Y410660D01*
X609136Y410756D01*
X609061Y410849D01*
X608984Y410939D01*
X608903Y411027D01*
X608819Y411112D01*
X608732Y411194D01*
X608643Y411274D01*
X608551Y411350D01*
X608457Y411424D01*
X608360Y411494D01*
X608262Y411561D01*
X608161Y411625D01*
X608057Y411685D01*
X607952Y411742D01*
X607845Y411795D01*
X607737Y411845D01*
X607627Y411891D01*
X607515Y411933D01*
X607402Y411972D01*
X607288Y412007D01*
X607173Y412038D01*
X607056Y412066D01*
X606939Y412089D01*
X606822Y412109D01*
X606703Y412125D01*
X606584Y412137D01*
X606465Y412145D01*
X606346Y412149D01*
X606226Y412149D01*
X606107Y412145D01*
X605988Y412137D01*
X605869Y412125D01*
X605750Y412109D01*
X605633Y412089D01*
X605516Y412066D01*
X605399Y412038D01*
X605284Y412007D01*
X605170Y411972D01*
X605057Y411933D01*
X604945Y411891D01*
X604835Y411845D01*
X604727Y411795D01*
X604620Y411742D01*
X604515Y411685D01*
X604411Y411625D01*
X604310Y411561D01*
X604212Y411494D01*
X604115Y411424D01*
X604021Y411350D01*
X603929Y411274D01*
X603840Y411194D01*
X603753Y411112D01*
X603669Y411027D01*
X603588Y410939D01*
X603511Y410849D01*
X603436Y410756D01*
X603364Y410660D01*
X603295Y410562D01*
X603230Y410462D01*
X603168Y410360D01*
X603109Y410256D01*
X603054Y410150D01*
X603003Y410042D01*
X602955Y409933D01*
X602910Y409822D01*
X602870Y409710D01*
X602833Y409596D01*
X602800Y409481D01*
X602770Y409366D01*
X602745Y409249D01*
X602723Y409132D01*
X602706Y409013D01*
X602692Y408895D01*
X602682Y408776D01*
X602676Y408656D01*
X602674Y408537D01*
X602673Y408537D02*
X602673Y406731D01*
X609898Y406731D01*
X593624Y401312D02*
X590012Y401312D01*
X593624Y401312D02*
X593725Y401314D01*
X593826Y401320D01*
X593927Y401329D01*
X594028Y401342D01*
X594128Y401359D01*
X594227Y401380D01*
X594325Y401404D01*
X594422Y401432D01*
X594519Y401464D01*
X594614Y401499D01*
X594707Y401538D01*
X594799Y401580D01*
X594890Y401626D01*
X594979Y401675D01*
X595065Y401727D01*
X595150Y401783D01*
X595233Y401841D01*
X595313Y401903D01*
X595391Y401968D01*
X595467Y402035D01*
X595540Y402105D01*
X595610Y402178D01*
X595677Y402254D01*
X595742Y402332D01*
X595804Y402412D01*
X595862Y402495D01*
X595918Y402580D01*
X595970Y402667D01*
X596019Y402755D01*
X596065Y402846D01*
X596107Y402938D01*
X596146Y403031D01*
X596181Y403126D01*
X596213Y403223D01*
X596241Y403320D01*
X596265Y403418D01*
X596286Y403517D01*
X596303Y403617D01*
X596316Y403718D01*
X596325Y403819D01*
X596331Y403920D01*
X596333Y404021D01*
X596334Y404021D02*
X596334Y409440D01*
X596333Y409440D02*
X596331Y409541D01*
X596325Y409642D01*
X596316Y409743D01*
X596303Y409844D01*
X596286Y409944D01*
X596265Y410043D01*
X596241Y410141D01*
X596213Y410238D01*
X596181Y410335D01*
X596146Y410430D01*
X596107Y410523D01*
X596065Y410615D01*
X596019Y410706D01*
X595970Y410795D01*
X595918Y410881D01*
X595862Y410966D01*
X595804Y411049D01*
X595742Y411129D01*
X595677Y411207D01*
X595610Y411283D01*
X595540Y411356D01*
X595467Y411426D01*
X595391Y411493D01*
X595313Y411558D01*
X595233Y411620D01*
X595150Y411678D01*
X595065Y411734D01*
X594979Y411786D01*
X594890Y411835D01*
X594799Y411881D01*
X594707Y411923D01*
X594614Y411962D01*
X594519Y411997D01*
X594422Y412029D01*
X594325Y412057D01*
X594227Y412081D01*
X594128Y412102D01*
X594028Y412119D01*
X593927Y412132D01*
X593826Y412141D01*
X593725Y412147D01*
X593624Y412149D01*
X590012Y412149D01*
X583846Y417568D02*
X583846Y401312D01*
X583846Y412149D02*
X579331Y412149D01*
X579227Y412147D01*
X579124Y412141D01*
X579020Y412131D01*
X578917Y412117D01*
X578815Y412099D01*
X578714Y412078D01*
X578613Y412052D01*
X578514Y412023D01*
X578415Y411990D01*
X578318Y411953D01*
X578223Y411912D01*
X578129Y411868D01*
X578037Y411820D01*
X577947Y411769D01*
X577858Y411714D01*
X577772Y411656D01*
X577689Y411594D01*
X577607Y411530D01*
X577529Y411462D01*
X577453Y411392D01*
X577379Y411319D01*
X577309Y411242D01*
X577241Y411164D01*
X577177Y411082D01*
X577115Y410999D01*
X577057Y410913D01*
X577002Y410824D01*
X576951Y410734D01*
X576903Y410642D01*
X576859Y410548D01*
X576818Y410453D01*
X576781Y410356D01*
X576748Y410257D01*
X576719Y410158D01*
X576693Y410057D01*
X576672Y409956D01*
X576654Y409854D01*
X576640Y409751D01*
X576630Y409647D01*
X576624Y409544D01*
X576622Y409440D01*
X576621Y409440D02*
X576621Y401312D01*
X566691Y407634D02*
X562627Y407634D01*
X566691Y407634D02*
X566803Y407632D01*
X566914Y407626D01*
X567025Y407616D01*
X567136Y407603D01*
X567246Y407585D01*
X567355Y407563D01*
X567464Y407538D01*
X567572Y407509D01*
X567678Y407476D01*
X567784Y407439D01*
X567888Y407399D01*
X567990Y407355D01*
X568091Y407307D01*
X568190Y407256D01*
X568288Y407201D01*
X568383Y407143D01*
X568476Y407082D01*
X568567Y407017D01*
X568656Y406949D01*
X568742Y406878D01*
X568825Y406805D01*
X568906Y406728D01*
X568985Y406648D01*
X569060Y406566D01*
X569132Y406481D01*
X569202Y406394D01*
X569268Y406304D01*
X569331Y406212D01*
X569391Y406117D01*
X569447Y406021D01*
X569500Y405923D01*
X569549Y405823D01*
X569595Y405721D01*
X569637Y405618D01*
X569676Y405513D01*
X569711Y405407D01*
X569742Y405300D01*
X569769Y405192D01*
X569793Y405083D01*
X569812Y404973D01*
X569828Y404863D01*
X569840Y404752D01*
X569848Y404640D01*
X569852Y404529D01*
X569852Y404417D01*
X569848Y404306D01*
X569840Y404194D01*
X569828Y404083D01*
X569812Y403973D01*
X569793Y403863D01*
X569769Y403754D01*
X569742Y403646D01*
X569711Y403539D01*
X569676Y403433D01*
X569637Y403328D01*
X569595Y403225D01*
X569549Y403123D01*
X569500Y403023D01*
X569447Y402925D01*
X569391Y402829D01*
X569331Y402734D01*
X569268Y402642D01*
X569202Y402552D01*
X569132Y402465D01*
X569060Y402380D01*
X568985Y402298D01*
X568906Y402218D01*
X568825Y402141D01*
X568742Y402068D01*
X568656Y401997D01*
X568567Y401929D01*
X568476Y401864D01*
X568383Y401803D01*
X568288Y401745D01*
X568190Y401690D01*
X568091Y401639D01*
X567990Y401591D01*
X567888Y401547D01*
X567784Y401507D01*
X567678Y401470D01*
X567572Y401437D01*
X567464Y401408D01*
X567355Y401383D01*
X567246Y401361D01*
X567136Y401343D01*
X567025Y401330D01*
X566914Y401320D01*
X566803Y401314D01*
X566691Y401312D01*
X562627Y401312D01*
X562627Y409440D01*
X562629Y409541D01*
X562635Y409642D01*
X562644Y409743D01*
X562657Y409844D01*
X562674Y409944D01*
X562695Y410043D01*
X562719Y410141D01*
X562747Y410238D01*
X562779Y410335D01*
X562814Y410430D01*
X562853Y410523D01*
X562895Y410615D01*
X562941Y410706D01*
X562990Y410795D01*
X563042Y410881D01*
X563098Y410966D01*
X563156Y411049D01*
X563218Y411129D01*
X563283Y411207D01*
X563350Y411283D01*
X563420Y411356D01*
X563493Y411426D01*
X563569Y411493D01*
X563647Y411558D01*
X563727Y411620D01*
X563810Y411678D01*
X563895Y411734D01*
X563982Y411786D01*
X564070Y411835D01*
X564161Y411881D01*
X564253Y411923D01*
X564346Y411962D01*
X564441Y411997D01*
X564538Y412029D01*
X564635Y412057D01*
X564733Y412081D01*
X564832Y412102D01*
X564932Y412119D01*
X565033Y412132D01*
X565134Y412141D01*
X565235Y412147D01*
X565336Y412149D01*
X568948Y412149D01*
X555104Y412149D02*
X555104Y401312D01*
X555104Y412149D02*
X549686Y412149D01*
X549686Y410343D01*
X542132Y401312D02*
X537617Y401312D01*
X542132Y401312D02*
X542233Y401314D01*
X542334Y401320D01*
X542435Y401329D01*
X542536Y401342D01*
X542636Y401359D01*
X542735Y401380D01*
X542833Y401404D01*
X542930Y401432D01*
X543027Y401464D01*
X543122Y401499D01*
X543215Y401538D01*
X543307Y401580D01*
X543398Y401626D01*
X543487Y401675D01*
X543573Y401727D01*
X543658Y401783D01*
X543741Y401841D01*
X543821Y401903D01*
X543899Y401968D01*
X543975Y402035D01*
X544048Y402105D01*
X544118Y402178D01*
X544185Y402254D01*
X544250Y402332D01*
X544312Y402412D01*
X544370Y402495D01*
X544426Y402580D01*
X544478Y402667D01*
X544527Y402755D01*
X544573Y402846D01*
X544615Y402938D01*
X544654Y403031D01*
X544689Y403126D01*
X544721Y403223D01*
X544749Y403320D01*
X544773Y403418D01*
X544794Y403517D01*
X544811Y403617D01*
X544824Y403718D01*
X544833Y403819D01*
X544839Y403920D01*
X544841Y404021D01*
X544842Y404021D02*
X544842Y409440D01*
X544841Y409440D02*
X544839Y409541D01*
X544833Y409642D01*
X544824Y409743D01*
X544811Y409844D01*
X544794Y409944D01*
X544773Y410043D01*
X544749Y410141D01*
X544721Y410238D01*
X544689Y410335D01*
X544654Y410430D01*
X544615Y410523D01*
X544573Y410615D01*
X544527Y410706D01*
X544478Y410795D01*
X544426Y410881D01*
X544370Y410966D01*
X544312Y411049D01*
X544250Y411129D01*
X544185Y411207D01*
X544118Y411283D01*
X544048Y411356D01*
X543975Y411426D01*
X543899Y411493D01*
X543821Y411558D01*
X543741Y411620D01*
X543658Y411678D01*
X543573Y411734D01*
X543487Y411786D01*
X543398Y411835D01*
X543307Y411881D01*
X543215Y411923D01*
X543122Y411962D01*
X543027Y411997D01*
X542930Y412029D01*
X542833Y412057D01*
X542735Y412081D01*
X542636Y412102D01*
X542536Y412119D01*
X542435Y412132D01*
X542334Y412141D01*
X542233Y412147D01*
X542132Y412149D01*
X537617Y412149D01*
X537617Y398603D01*
X537619Y398502D01*
X537625Y398401D01*
X537634Y398300D01*
X537647Y398199D01*
X537664Y398099D01*
X537685Y398000D01*
X537709Y397902D01*
X537737Y397805D01*
X537769Y397708D01*
X537804Y397613D01*
X537843Y397520D01*
X537885Y397428D01*
X537931Y397337D01*
X537980Y397249D01*
X538032Y397162D01*
X538088Y397077D01*
X538146Y396994D01*
X538208Y396914D01*
X538273Y396836D01*
X538340Y396760D01*
X538410Y396687D01*
X538483Y396617D01*
X538559Y396550D01*
X538637Y396485D01*
X538717Y396423D01*
X538800Y396365D01*
X538885Y396309D01*
X538972Y396257D01*
X539060Y396208D01*
X539151Y396162D01*
X539243Y396120D01*
X539336Y396081D01*
X539431Y396046D01*
X539528Y396014D01*
X539625Y395986D01*
X539723Y395962D01*
X539822Y395941D01*
X539922Y395924D01*
X540023Y395911D01*
X540124Y395902D01*
X540225Y395896D01*
X540326Y395894D01*
X540326Y395893D02*
X543938Y395893D01*
X527991Y401312D02*
X523475Y401312D01*
X527991Y401312D02*
X528092Y401314D01*
X528193Y401320D01*
X528294Y401329D01*
X528395Y401342D01*
X528495Y401359D01*
X528594Y401380D01*
X528692Y401404D01*
X528789Y401432D01*
X528886Y401464D01*
X528981Y401499D01*
X529074Y401538D01*
X529166Y401580D01*
X529257Y401626D01*
X529346Y401675D01*
X529432Y401727D01*
X529517Y401783D01*
X529600Y401841D01*
X529680Y401903D01*
X529758Y401968D01*
X529834Y402035D01*
X529907Y402105D01*
X529977Y402178D01*
X530044Y402254D01*
X530109Y402332D01*
X530171Y402412D01*
X530229Y402495D01*
X530285Y402580D01*
X530337Y402667D01*
X530386Y402755D01*
X530432Y402846D01*
X530474Y402938D01*
X530513Y403031D01*
X530548Y403126D01*
X530580Y403223D01*
X530608Y403320D01*
X530632Y403418D01*
X530653Y403517D01*
X530670Y403617D01*
X530683Y403718D01*
X530692Y403819D01*
X530698Y403920D01*
X530700Y404021D01*
X530700Y408537D01*
X530698Y408656D01*
X530692Y408776D01*
X530682Y408895D01*
X530668Y409013D01*
X530651Y409132D01*
X530629Y409249D01*
X530604Y409366D01*
X530574Y409481D01*
X530541Y409596D01*
X530504Y409710D01*
X530464Y409822D01*
X530419Y409933D01*
X530371Y410042D01*
X530320Y410150D01*
X530265Y410256D01*
X530206Y410360D01*
X530144Y410462D01*
X530079Y410562D01*
X530010Y410660D01*
X529938Y410756D01*
X529863Y410849D01*
X529786Y410939D01*
X529705Y411027D01*
X529621Y411112D01*
X529534Y411194D01*
X529445Y411274D01*
X529353Y411350D01*
X529259Y411424D01*
X529162Y411494D01*
X529064Y411561D01*
X528963Y411625D01*
X528859Y411685D01*
X528754Y411742D01*
X528647Y411795D01*
X528539Y411845D01*
X528429Y411891D01*
X528317Y411933D01*
X528204Y411972D01*
X528090Y412007D01*
X527975Y412038D01*
X527858Y412066D01*
X527741Y412089D01*
X527624Y412109D01*
X527505Y412125D01*
X527386Y412137D01*
X527267Y412145D01*
X527148Y412149D01*
X527028Y412149D01*
X526909Y412145D01*
X526790Y412137D01*
X526671Y412125D01*
X526552Y412109D01*
X526435Y412089D01*
X526318Y412066D01*
X526201Y412038D01*
X526086Y412007D01*
X525972Y411972D01*
X525859Y411933D01*
X525747Y411891D01*
X525637Y411845D01*
X525529Y411795D01*
X525422Y411742D01*
X525317Y411685D01*
X525213Y411625D01*
X525112Y411561D01*
X525014Y411494D01*
X524917Y411424D01*
X524823Y411350D01*
X524731Y411274D01*
X524642Y411194D01*
X524555Y411112D01*
X524471Y411027D01*
X524390Y410939D01*
X524313Y410849D01*
X524238Y410756D01*
X524166Y410660D01*
X524097Y410562D01*
X524032Y410462D01*
X523970Y410360D01*
X523911Y410256D01*
X523856Y410150D01*
X523805Y410042D01*
X523757Y409933D01*
X523712Y409822D01*
X523672Y409710D01*
X523635Y409596D01*
X523602Y409481D01*
X523572Y409366D01*
X523547Y409249D01*
X523525Y409132D01*
X523508Y409013D01*
X523494Y408895D01*
X523484Y408776D01*
X523478Y408656D01*
X523476Y408537D01*
X523475Y408537D02*
X523475Y406731D01*
X530700Y406731D01*
X508065Y401312D02*
X508065Y417568D01*
X503549Y417568D01*
X503416Y417566D01*
X503284Y417560D01*
X503152Y417550D01*
X503020Y417537D01*
X502888Y417519D01*
X502758Y417498D01*
X502627Y417473D01*
X502498Y417444D01*
X502370Y417411D01*
X502242Y417375D01*
X502116Y417335D01*
X501991Y417291D01*
X501867Y417243D01*
X501745Y417192D01*
X501624Y417137D01*
X501505Y417079D01*
X501387Y417017D01*
X501272Y416952D01*
X501158Y416883D01*
X501047Y416812D01*
X500938Y416736D01*
X500831Y416658D01*
X500726Y416577D01*
X500624Y416492D01*
X500524Y416405D01*
X500427Y416315D01*
X500332Y416222D01*
X500241Y416126D01*
X500152Y416028D01*
X500066Y415927D01*
X499983Y415823D01*
X499903Y415717D01*
X499827Y415609D01*
X499753Y415499D01*
X499683Y415386D01*
X499616Y415272D01*
X499553Y415155D01*
X499493Y415037D01*
X499436Y414917D01*
X499383Y414795D01*
X499334Y414672D01*
X499288Y414548D01*
X499246Y414422D01*
X499208Y414295D01*
X499173Y414167D01*
X499142Y414038D01*
X499115Y413909D01*
X499092Y413778D01*
X499072Y413647D01*
X499057Y413515D01*
X499045Y413383D01*
X499037Y413251D01*
X499033Y413118D01*
X499033Y412986D01*
X499037Y412853D01*
X499045Y412721D01*
X499057Y412589D01*
X499072Y412457D01*
X499092Y412326D01*
X499115Y412195D01*
X499142Y412066D01*
X499173Y411937D01*
X499208Y411809D01*
X499246Y411682D01*
X499288Y411556D01*
X499334Y411432D01*
X499383Y411309D01*
X499436Y411187D01*
X499493Y411067D01*
X499553Y410949D01*
X499616Y410832D01*
X499683Y410718D01*
X499753Y410605D01*
X499827Y410495D01*
X499903Y410387D01*
X499983Y410281D01*
X500066Y410177D01*
X500152Y410076D01*
X500241Y409978D01*
X500332Y409882D01*
X500427Y409789D01*
X500524Y409699D01*
X500624Y409612D01*
X500726Y409527D01*
X500831Y409446D01*
X500938Y409368D01*
X501047Y409292D01*
X501158Y409221D01*
X501272Y409152D01*
X501387Y409087D01*
X501505Y409025D01*
X501624Y408967D01*
X501745Y408912D01*
X501867Y408861D01*
X501991Y408813D01*
X502116Y408769D01*
X502242Y408729D01*
X502370Y408693D01*
X502498Y408660D01*
X502627Y408631D01*
X502758Y408606D01*
X502888Y408585D01*
X503020Y408567D01*
X503152Y408554D01*
X503284Y408544D01*
X503416Y408538D01*
X503549Y408536D01*
X503549Y408537D02*
X508065Y408537D01*
X502646Y408537D02*
X499034Y401312D01*
X484050Y404924D02*
X473212Y404924D01*
X473212Y410343D02*
X484050Y410343D01*
X453169Y417568D02*
X453044Y417566D01*
X452919Y417560D01*
X452794Y417551D01*
X452670Y417537D01*
X452546Y417520D01*
X452422Y417499D01*
X452300Y417474D01*
X452178Y417445D01*
X452057Y417413D01*
X451937Y417377D01*
X451818Y417337D01*
X451701Y417294D01*
X451585Y417247D01*
X451470Y417196D01*
X451358Y417142D01*
X451246Y417084D01*
X451137Y417024D01*
X451030Y416959D01*
X450924Y416892D01*
X450821Y416821D01*
X450720Y416747D01*
X450621Y416670D01*
X450525Y416590D01*
X450431Y416507D01*
X450340Y416422D01*
X450251Y416333D01*
X450166Y416242D01*
X450083Y416148D01*
X450003Y416052D01*
X449926Y415953D01*
X449852Y415852D01*
X449781Y415749D01*
X449714Y415643D01*
X449649Y415536D01*
X449589Y415427D01*
X449531Y415315D01*
X449477Y415203D01*
X449426Y415088D01*
X449379Y414972D01*
X449336Y414855D01*
X449296Y414736D01*
X449260Y414616D01*
X449228Y414495D01*
X449199Y414373D01*
X449174Y414251D01*
X449153Y414127D01*
X449136Y414003D01*
X449122Y413879D01*
X449113Y413754D01*
X449107Y413629D01*
X449105Y413504D01*
X453169Y417568D02*
X453312Y417566D01*
X453454Y417560D01*
X453597Y417550D01*
X453739Y417537D01*
X453880Y417519D01*
X454022Y417498D01*
X454162Y417473D01*
X454302Y417444D01*
X454441Y417411D01*
X454579Y417374D01*
X454716Y417334D01*
X454851Y417290D01*
X454986Y417242D01*
X455119Y417190D01*
X455251Y417135D01*
X455381Y417076D01*
X455509Y417014D01*
X455636Y416948D01*
X455761Y416879D01*
X455884Y416807D01*
X456005Y416731D01*
X456123Y416652D01*
X456240Y416569D01*
X456354Y416484D01*
X456466Y416395D01*
X456575Y416304D01*
X456682Y416209D01*
X456787Y416112D01*
X456888Y416011D01*
X456987Y415908D01*
X457083Y415803D01*
X457176Y415694D01*
X457266Y415583D01*
X457353Y415470D01*
X457437Y415355D01*
X457517Y415237D01*
X457595Y415117D01*
X457669Y414995D01*
X457739Y414871D01*
X457807Y414745D01*
X457870Y414617D01*
X457931Y414488D01*
X457988Y414357D01*
X458041Y414225D01*
X458090Y414091D01*
X458136Y413956D01*
X450461Y410343D02*
X450367Y410435D01*
X450277Y410529D01*
X450189Y410626D01*
X450104Y410726D01*
X450022Y410828D01*
X449943Y410933D01*
X449868Y411040D01*
X449796Y411149D01*
X449727Y411260D01*
X449661Y411374D01*
X449599Y411489D01*
X449540Y411606D01*
X449485Y411725D01*
X449434Y411845D01*
X449386Y411967D01*
X449341Y412090D01*
X449301Y412214D01*
X449264Y412340D01*
X449231Y412467D01*
X449202Y412594D01*
X449176Y412723D01*
X449155Y412852D01*
X449137Y412982D01*
X449124Y413112D01*
X449114Y413242D01*
X449108Y413373D01*
X449106Y413504D01*
X450460Y410343D02*
X458137Y401312D01*
X449105Y401312D01*
X443165Y401312D02*
X435941Y412149D01*
X443165Y412149D02*
X435941Y401312D01*
X421664Y410343D02*
X416245Y410343D01*
X416127Y410341D01*
X416009Y410335D01*
X415891Y410326D01*
X415774Y410312D01*
X415657Y410295D01*
X415540Y410274D01*
X415425Y410249D01*
X415310Y410220D01*
X415196Y410187D01*
X415084Y410151D01*
X414973Y410111D01*
X414863Y410068D01*
X414754Y410021D01*
X414647Y409971D01*
X414542Y409916D01*
X414439Y409859D01*
X414338Y409798D01*
X414238Y409734D01*
X414141Y409667D01*
X414046Y409597D01*
X413954Y409523D01*
X413863Y409447D01*
X413776Y409367D01*
X413691Y409285D01*
X413609Y409200D01*
X413529Y409113D01*
X413453Y409022D01*
X413379Y408930D01*
X413309Y408835D01*
X413242Y408738D01*
X413178Y408638D01*
X413117Y408537D01*
X413060Y408434D01*
X413005Y408329D01*
X412955Y408222D01*
X412908Y408113D01*
X412865Y408003D01*
X412825Y407892D01*
X412789Y407780D01*
X412756Y407666D01*
X412727Y407551D01*
X412702Y407436D01*
X412681Y407319D01*
X412664Y407202D01*
X412650Y407085D01*
X412641Y406967D01*
X412635Y406849D01*
X412633Y406731D01*
X412633Y405828D01*
X412632Y405828D02*
X412634Y405695D01*
X412640Y405563D01*
X412650Y405431D01*
X412663Y405299D01*
X412681Y405167D01*
X412702Y405037D01*
X412727Y404906D01*
X412756Y404777D01*
X412789Y404649D01*
X412825Y404521D01*
X412865Y404395D01*
X412909Y404270D01*
X412957Y404146D01*
X413008Y404024D01*
X413063Y403903D01*
X413121Y403784D01*
X413183Y403666D01*
X413248Y403551D01*
X413317Y403437D01*
X413388Y403326D01*
X413464Y403217D01*
X413542Y403110D01*
X413623Y403005D01*
X413708Y402903D01*
X413795Y402803D01*
X413885Y402706D01*
X413978Y402611D01*
X414074Y402520D01*
X414172Y402431D01*
X414273Y402345D01*
X414377Y402262D01*
X414483Y402182D01*
X414591Y402106D01*
X414701Y402032D01*
X414814Y401962D01*
X414928Y401895D01*
X415045Y401832D01*
X415163Y401772D01*
X415283Y401715D01*
X415405Y401662D01*
X415528Y401613D01*
X415652Y401567D01*
X415778Y401525D01*
X415905Y401487D01*
X416033Y401452D01*
X416162Y401421D01*
X416291Y401394D01*
X416422Y401371D01*
X416553Y401351D01*
X416685Y401336D01*
X416817Y401324D01*
X416949Y401316D01*
X417082Y401312D01*
X417214Y401312D01*
X417347Y401316D01*
X417479Y401324D01*
X417611Y401336D01*
X417743Y401351D01*
X417874Y401371D01*
X418005Y401394D01*
X418134Y401421D01*
X418263Y401452D01*
X418391Y401487D01*
X418518Y401525D01*
X418644Y401567D01*
X418768Y401613D01*
X418891Y401662D01*
X419013Y401715D01*
X419133Y401772D01*
X419251Y401832D01*
X419368Y401895D01*
X419482Y401962D01*
X419595Y402032D01*
X419705Y402106D01*
X419813Y402182D01*
X419919Y402262D01*
X420023Y402345D01*
X420124Y402431D01*
X420222Y402520D01*
X420318Y402611D01*
X420411Y402706D01*
X420501Y402803D01*
X420588Y402903D01*
X420673Y403005D01*
X420754Y403110D01*
X420832Y403217D01*
X420908Y403326D01*
X420979Y403437D01*
X421048Y403551D01*
X421113Y403666D01*
X421175Y403784D01*
X421233Y403903D01*
X421288Y404024D01*
X421339Y404146D01*
X421387Y404270D01*
X421431Y404395D01*
X421471Y404521D01*
X421507Y404649D01*
X421540Y404777D01*
X421569Y404906D01*
X421594Y405037D01*
X421615Y405167D01*
X421633Y405299D01*
X421646Y405431D01*
X421656Y405563D01*
X421662Y405695D01*
X421664Y405828D01*
X421664Y410343D01*
X421662Y410518D01*
X421656Y410692D01*
X421645Y410866D01*
X421630Y411040D01*
X421611Y411214D01*
X421588Y411387D01*
X421561Y411559D01*
X421529Y411731D01*
X421494Y411902D01*
X421454Y412072D01*
X421410Y412241D01*
X421362Y412409D01*
X421310Y412576D01*
X421254Y412741D01*
X421194Y412905D01*
X421131Y413068D01*
X421063Y413228D01*
X420991Y413388D01*
X420916Y413545D01*
X420836Y413701D01*
X420753Y413854D01*
X420667Y414006D01*
X420576Y414155D01*
X420482Y414302D01*
X420385Y414447D01*
X420284Y414590D01*
X420180Y414730D01*
X420072Y414867D01*
X419961Y415002D01*
X419847Y415134D01*
X419730Y415263D01*
X419609Y415390D01*
X419486Y415513D01*
X419359Y415634D01*
X419230Y415751D01*
X419098Y415865D01*
X418963Y415976D01*
X418826Y416084D01*
X418686Y416188D01*
X418543Y416289D01*
X418398Y416386D01*
X418251Y416480D01*
X418102Y416571D01*
X417950Y416657D01*
X417797Y416740D01*
X417641Y416820D01*
X417484Y416895D01*
X417324Y416967D01*
X417164Y417035D01*
X417001Y417098D01*
X416837Y417158D01*
X416672Y417214D01*
X416505Y417266D01*
X416337Y417314D01*
X416168Y417358D01*
X415998Y417398D01*
X415827Y417433D01*
X415655Y417465D01*
X415483Y417492D01*
X415310Y417515D01*
X415136Y417534D01*
X414962Y417549D01*
X414788Y417560D01*
X414614Y417566D01*
X414439Y417568D01*
X401065Y417568D02*
X400940Y417566D01*
X400815Y417560D01*
X400690Y417551D01*
X400566Y417537D01*
X400442Y417520D01*
X400318Y417499D01*
X400196Y417474D01*
X400074Y417445D01*
X399953Y417413D01*
X399833Y417377D01*
X399714Y417337D01*
X399597Y417294D01*
X399481Y417247D01*
X399366Y417196D01*
X399254Y417142D01*
X399142Y417084D01*
X399033Y417024D01*
X398926Y416959D01*
X398820Y416892D01*
X398717Y416821D01*
X398616Y416747D01*
X398517Y416670D01*
X398421Y416590D01*
X398327Y416507D01*
X398236Y416422D01*
X398147Y416333D01*
X398062Y416242D01*
X397979Y416148D01*
X397899Y416052D01*
X397822Y415953D01*
X397748Y415852D01*
X397677Y415749D01*
X397610Y415643D01*
X397545Y415536D01*
X397485Y415427D01*
X397427Y415315D01*
X397373Y415203D01*
X397322Y415088D01*
X397275Y414972D01*
X397232Y414855D01*
X397192Y414736D01*
X397156Y414616D01*
X397124Y414495D01*
X397095Y414373D01*
X397070Y414251D01*
X397049Y414127D01*
X397032Y414003D01*
X397018Y413879D01*
X397009Y413754D01*
X397003Y413629D01*
X397001Y413504D01*
X401065Y417568D02*
X401208Y417566D01*
X401350Y417560D01*
X401493Y417550D01*
X401635Y417537D01*
X401776Y417519D01*
X401918Y417498D01*
X402058Y417473D01*
X402198Y417444D01*
X402337Y417411D01*
X402475Y417374D01*
X402612Y417334D01*
X402747Y417290D01*
X402882Y417242D01*
X403015Y417190D01*
X403147Y417135D01*
X403277Y417076D01*
X403405Y417014D01*
X403532Y416948D01*
X403657Y416879D01*
X403780Y416807D01*
X403901Y416731D01*
X404019Y416652D01*
X404136Y416569D01*
X404250Y416484D01*
X404362Y416395D01*
X404471Y416304D01*
X404578Y416209D01*
X404683Y416112D01*
X404784Y416011D01*
X404883Y415908D01*
X404979Y415803D01*
X405072Y415694D01*
X405162Y415583D01*
X405249Y415470D01*
X405333Y415355D01*
X405413Y415237D01*
X405491Y415117D01*
X405565Y414995D01*
X405635Y414871D01*
X405703Y414745D01*
X405766Y414617D01*
X405827Y414488D01*
X405884Y414357D01*
X405937Y414225D01*
X405986Y414091D01*
X406032Y413956D01*
X398357Y410343D02*
X398263Y410435D01*
X398173Y410529D01*
X398085Y410626D01*
X398000Y410726D01*
X397918Y410828D01*
X397839Y410933D01*
X397764Y411040D01*
X397692Y411149D01*
X397623Y411260D01*
X397557Y411374D01*
X397495Y411489D01*
X397436Y411606D01*
X397381Y411725D01*
X397330Y411845D01*
X397282Y411967D01*
X397237Y412090D01*
X397197Y412214D01*
X397160Y412340D01*
X397127Y412467D01*
X397098Y412594D01*
X397072Y412723D01*
X397051Y412852D01*
X397033Y412982D01*
X397020Y413112D01*
X397010Y413242D01*
X397004Y413373D01*
X397002Y413504D01*
X398356Y410343D02*
X406033Y401312D01*
X397001Y401312D01*
X390401Y409440D02*
X390397Y409760D01*
X390386Y410079D01*
X390367Y410399D01*
X390340Y410717D01*
X390306Y411035D01*
X390264Y411352D01*
X390214Y411668D01*
X390157Y411983D01*
X390093Y412296D01*
X390021Y412608D01*
X389942Y412918D01*
X389855Y413225D01*
X389761Y413531D01*
X389660Y413834D01*
X389551Y414135D01*
X389436Y414433D01*
X389313Y414729D01*
X389183Y415021D01*
X389046Y415310D01*
X389047Y415311D02*
X389008Y415419D01*
X388965Y415526D01*
X388919Y415631D01*
X388868Y415735D01*
X388815Y415837D01*
X388758Y415937D01*
X388697Y416035D01*
X388633Y416130D01*
X388566Y416224D01*
X388495Y416315D01*
X388422Y416404D01*
X388345Y416490D01*
X388266Y416573D01*
X388184Y416654D01*
X388099Y416732D01*
X388011Y416806D01*
X387921Y416878D01*
X387829Y416946D01*
X387734Y417012D01*
X387637Y417074D01*
X387538Y417132D01*
X387436Y417188D01*
X387334Y417239D01*
X387229Y417287D01*
X387123Y417332D01*
X387015Y417373D01*
X386906Y417410D01*
X386796Y417443D01*
X386684Y417472D01*
X386572Y417498D01*
X386459Y417520D01*
X386345Y417537D01*
X386231Y417551D01*
X386116Y417561D01*
X386001Y417567D01*
X385886Y417569D01*
X385886Y417568D02*
X385771Y417566D01*
X385656Y417560D01*
X385541Y417550D01*
X385427Y417536D01*
X385313Y417519D01*
X385200Y417497D01*
X385088Y417471D01*
X384976Y417442D01*
X384866Y417409D01*
X384757Y417372D01*
X384649Y417331D01*
X384543Y417286D01*
X384439Y417238D01*
X384336Y417187D01*
X384235Y417131D01*
X384135Y417073D01*
X384038Y417011D01*
X383944Y416946D01*
X383851Y416877D01*
X383761Y416805D01*
X383673Y416731D01*
X383588Y416653D01*
X383506Y416572D01*
X383427Y416489D01*
X383350Y416403D01*
X383277Y416314D01*
X383206Y416223D01*
X383139Y416129D01*
X383075Y416034D01*
X383014Y415936D01*
X382957Y415836D01*
X382904Y415734D01*
X382853Y415630D01*
X382807Y415525D01*
X382764Y415418D01*
X382725Y415310D01*
X382588Y415021D01*
X382458Y414729D01*
X382335Y414433D01*
X382220Y414135D01*
X382111Y413834D01*
X382010Y413531D01*
X381916Y413225D01*
X381829Y412918D01*
X381750Y412608D01*
X381678Y412296D01*
X381614Y411983D01*
X381557Y411668D01*
X381507Y411352D01*
X381465Y411035D01*
X381431Y410717D01*
X381404Y410399D01*
X381385Y410079D01*
X381374Y409760D01*
X381370Y409440D01*
X390401Y409440D02*
X390397Y409120D01*
X390386Y408801D01*
X390367Y408481D01*
X390340Y408163D01*
X390306Y407845D01*
X390264Y407528D01*
X390214Y407212D01*
X390157Y406897D01*
X390093Y406584D01*
X390021Y406272D01*
X389942Y405962D01*
X389855Y405655D01*
X389761Y405349D01*
X389660Y405046D01*
X389551Y404745D01*
X389436Y404447D01*
X389313Y404151D01*
X389183Y403859D01*
X389046Y403570D01*
X389047Y403570D02*
X389008Y403462D01*
X388965Y403355D01*
X388919Y403250D01*
X388868Y403146D01*
X388815Y403044D01*
X388758Y402944D01*
X388697Y402846D01*
X388633Y402751D01*
X388566Y402657D01*
X388495Y402566D01*
X388422Y402477D01*
X388345Y402391D01*
X388266Y402308D01*
X388184Y402227D01*
X388099Y402149D01*
X388011Y402075D01*
X387921Y402003D01*
X387828Y401934D01*
X387734Y401869D01*
X387637Y401807D01*
X387537Y401749D01*
X387436Y401693D01*
X387334Y401642D01*
X387229Y401594D01*
X387123Y401549D01*
X387015Y401508D01*
X386906Y401471D01*
X386796Y401438D01*
X386684Y401409D01*
X386572Y401383D01*
X386459Y401361D01*
X386345Y401344D01*
X386231Y401330D01*
X386116Y401320D01*
X386001Y401314D01*
X385886Y401312D01*
X382726Y403570D02*
X382589Y403859D01*
X382459Y404151D01*
X382336Y404447D01*
X382221Y404745D01*
X382112Y405046D01*
X382011Y405349D01*
X381917Y405655D01*
X381830Y405962D01*
X381751Y406272D01*
X381679Y406584D01*
X381615Y406897D01*
X381558Y407212D01*
X381508Y407528D01*
X381466Y407845D01*
X381432Y408163D01*
X381405Y408481D01*
X381386Y408801D01*
X381375Y409120D01*
X381371Y409440D01*
X382725Y403570D02*
X382764Y403462D01*
X382807Y403355D01*
X382853Y403250D01*
X382904Y403146D01*
X382957Y403044D01*
X383015Y402944D01*
X383075Y402846D01*
X383139Y402751D01*
X383206Y402657D01*
X383277Y402566D01*
X383350Y402477D01*
X383427Y402391D01*
X383506Y402308D01*
X383588Y402227D01*
X383673Y402149D01*
X383761Y402075D01*
X383851Y402003D01*
X383944Y401934D01*
X384038Y401869D01*
X384135Y401807D01*
X384235Y401749D01*
X384336Y401693D01*
X384439Y401642D01*
X384543Y401594D01*
X384649Y401549D01*
X384757Y401508D01*
X384866Y401471D01*
X384976Y401438D01*
X385088Y401409D01*
X385200Y401383D01*
X385313Y401361D01*
X385427Y401344D01*
X385541Y401330D01*
X385656Y401320D01*
X385771Y401314D01*
X385886Y401312D01*
X389498Y404924D02*
X382273Y413956D01*
X366434Y413052D02*
X366434Y405828D01*
X366434Y413052D02*
X366432Y413185D01*
X366426Y413317D01*
X366416Y413449D01*
X366403Y413581D01*
X366385Y413713D01*
X366364Y413843D01*
X366339Y413974D01*
X366310Y414103D01*
X366277Y414231D01*
X366241Y414359D01*
X366201Y414485D01*
X366157Y414610D01*
X366109Y414734D01*
X366058Y414856D01*
X366003Y414977D01*
X365945Y415096D01*
X365883Y415214D01*
X365818Y415329D01*
X365749Y415443D01*
X365678Y415554D01*
X365602Y415663D01*
X365524Y415770D01*
X365443Y415875D01*
X365358Y415977D01*
X365271Y416077D01*
X365181Y416174D01*
X365088Y416269D01*
X364992Y416360D01*
X364894Y416449D01*
X364793Y416535D01*
X364689Y416618D01*
X364583Y416698D01*
X364475Y416774D01*
X364365Y416848D01*
X364252Y416918D01*
X364138Y416985D01*
X364021Y417048D01*
X363903Y417108D01*
X363783Y417165D01*
X363661Y417218D01*
X363538Y417267D01*
X363414Y417313D01*
X363288Y417355D01*
X363161Y417393D01*
X363033Y417428D01*
X362904Y417459D01*
X362775Y417486D01*
X362644Y417509D01*
X362513Y417529D01*
X362381Y417544D01*
X362249Y417556D01*
X362117Y417564D01*
X361984Y417568D01*
X361852Y417568D01*
X361719Y417564D01*
X361587Y417556D01*
X361455Y417544D01*
X361323Y417529D01*
X361192Y417509D01*
X361061Y417486D01*
X360932Y417459D01*
X360803Y417428D01*
X360675Y417393D01*
X360548Y417355D01*
X360422Y417313D01*
X360298Y417267D01*
X360175Y417218D01*
X360053Y417165D01*
X359933Y417108D01*
X359815Y417048D01*
X359698Y416985D01*
X359584Y416918D01*
X359471Y416848D01*
X359361Y416774D01*
X359253Y416698D01*
X359147Y416618D01*
X359043Y416535D01*
X358942Y416449D01*
X358844Y416360D01*
X358748Y416269D01*
X358655Y416174D01*
X358565Y416077D01*
X358478Y415977D01*
X358393Y415875D01*
X358312Y415770D01*
X358234Y415663D01*
X358158Y415554D01*
X358087Y415443D01*
X358018Y415329D01*
X357953Y415214D01*
X357891Y415096D01*
X357833Y414977D01*
X357778Y414856D01*
X357727Y414734D01*
X357679Y414610D01*
X357635Y414485D01*
X357595Y414359D01*
X357559Y414231D01*
X357526Y414103D01*
X357497Y413974D01*
X357472Y413843D01*
X357451Y413713D01*
X357433Y413581D01*
X357420Y413449D01*
X357410Y413317D01*
X357404Y413185D01*
X357402Y413052D01*
X357402Y405828D01*
X357404Y405695D01*
X357410Y405563D01*
X357420Y405431D01*
X357433Y405299D01*
X357451Y405167D01*
X357472Y405037D01*
X357497Y404906D01*
X357526Y404777D01*
X357559Y404649D01*
X357595Y404521D01*
X357635Y404395D01*
X357679Y404270D01*
X357727Y404146D01*
X357778Y404024D01*
X357833Y403903D01*
X357891Y403784D01*
X357953Y403666D01*
X358018Y403551D01*
X358087Y403437D01*
X358158Y403326D01*
X358234Y403217D01*
X358312Y403110D01*
X358393Y403005D01*
X358478Y402903D01*
X358565Y402803D01*
X358655Y402706D01*
X358748Y402611D01*
X358844Y402520D01*
X358942Y402431D01*
X359043Y402345D01*
X359147Y402262D01*
X359253Y402182D01*
X359361Y402106D01*
X359471Y402032D01*
X359584Y401962D01*
X359698Y401895D01*
X359815Y401832D01*
X359933Y401772D01*
X360053Y401715D01*
X360175Y401662D01*
X360298Y401613D01*
X360422Y401567D01*
X360548Y401525D01*
X360675Y401487D01*
X360803Y401452D01*
X360932Y401421D01*
X361061Y401394D01*
X361192Y401371D01*
X361323Y401351D01*
X361455Y401336D01*
X361587Y401324D01*
X361719Y401316D01*
X361852Y401312D01*
X361984Y401312D01*
X362117Y401316D01*
X362249Y401324D01*
X362381Y401336D01*
X362513Y401351D01*
X362644Y401371D01*
X362775Y401394D01*
X362904Y401421D01*
X363033Y401452D01*
X363161Y401487D01*
X363288Y401525D01*
X363414Y401567D01*
X363538Y401613D01*
X363661Y401662D01*
X363783Y401715D01*
X363903Y401772D01*
X364021Y401832D01*
X364138Y401895D01*
X364252Y401962D01*
X364365Y402032D01*
X364475Y402106D01*
X364583Y402182D01*
X364689Y402262D01*
X364793Y402345D01*
X364894Y402431D01*
X364992Y402520D01*
X365088Y402611D01*
X365181Y402706D01*
X365271Y402803D01*
X365358Y402903D01*
X365443Y403005D01*
X365524Y403110D01*
X365602Y403217D01*
X365678Y403326D01*
X365749Y403437D01*
X365818Y403551D01*
X365883Y403666D01*
X365945Y403784D01*
X366003Y403903D01*
X366058Y404024D01*
X366109Y404146D01*
X366157Y404270D01*
X366201Y404395D01*
X366241Y404521D01*
X366277Y404649D01*
X366310Y404777D01*
X366339Y404906D01*
X366364Y405037D01*
X366385Y405167D01*
X366403Y405299D01*
X366416Y405431D01*
X366426Y405563D01*
X366432Y405695D01*
X366434Y405828D01*
X350420Y401312D02*
X350420Y417568D01*
X350420Y412149D02*
X345905Y412149D01*
X345801Y412147D01*
X345698Y412141D01*
X345594Y412131D01*
X345491Y412117D01*
X345389Y412099D01*
X345288Y412078D01*
X345187Y412052D01*
X345088Y412023D01*
X344989Y411990D01*
X344892Y411953D01*
X344797Y411912D01*
X344703Y411868D01*
X344611Y411820D01*
X344521Y411769D01*
X344432Y411714D01*
X344346Y411656D01*
X344263Y411594D01*
X344181Y411530D01*
X344103Y411462D01*
X344027Y411392D01*
X343953Y411319D01*
X343883Y411242D01*
X343815Y411164D01*
X343751Y411082D01*
X343689Y410999D01*
X343631Y410913D01*
X343576Y410824D01*
X343525Y410734D01*
X343477Y410642D01*
X343433Y410548D01*
X343392Y410453D01*
X343355Y410356D01*
X343322Y410257D01*
X343293Y410158D01*
X343267Y410057D01*
X343246Y409956D01*
X343228Y409854D01*
X343214Y409751D01*
X343204Y409647D01*
X343198Y409544D01*
X343196Y409440D01*
X343195Y409440D02*
X343195Y401312D01*
X335553Y401312D02*
X335553Y412149D01*
X327425Y412149D01*
X327324Y412147D01*
X327223Y412141D01*
X327122Y412132D01*
X327021Y412119D01*
X326921Y412102D01*
X326822Y412081D01*
X326724Y412057D01*
X326627Y412029D01*
X326530Y411997D01*
X326435Y411962D01*
X326342Y411923D01*
X326250Y411881D01*
X326159Y411835D01*
X326071Y411786D01*
X325984Y411734D01*
X325899Y411678D01*
X325816Y411620D01*
X325736Y411558D01*
X325658Y411493D01*
X325582Y411426D01*
X325509Y411356D01*
X325439Y411283D01*
X325372Y411207D01*
X325307Y411129D01*
X325245Y411049D01*
X325187Y410966D01*
X325131Y410881D01*
X325079Y410795D01*
X325030Y410706D01*
X324984Y410615D01*
X324942Y410523D01*
X324903Y410430D01*
X324868Y410335D01*
X324836Y410238D01*
X324808Y410141D01*
X324784Y410043D01*
X324763Y409944D01*
X324746Y409844D01*
X324733Y409743D01*
X324724Y409642D01*
X324718Y409541D01*
X324716Y409440D01*
X324716Y401312D01*
X330134Y401312D02*
X330134Y412149D01*
X270000Y9600D02*
X879600Y9600D01*
X879600Y212800D01*
X244600Y212800D01*
X244600Y9600D01*
X270000Y9600D01*
M02*
