G04 EAGLE Gerber RS-274X export*
G75*
%MOMM*%
%FSLAX34Y34*%
%LPD*%
%INTop Copper*%
%IPPOS*%
%AMOC8*
5,1,8,0,0,1.08239X$1,22.5*%
G01*
%ADD10C,1.524000*%
%ADD11C,1.397000*%
%ADD12C,8.636000*%
%ADD13R,2.100000X2.100000*%
%ADD14C,1.450000*%
%ADD15C,2.100000*%
%ADD16C,1.430000*%
%ADD17R,1.200000X1.200000*%
%ADD18R,1.500000X1.300000*%
%ADD19R,1.905000X1.905000*%
%ADD20R,2.857500X2.857500*%
%ADD21C,4.000000*%
%ADD22R,3.556000X3.556000*%
%ADD23C,0.200000*%
%ADD24C,3.000000*%

G36*
X895003Y10161D02*
X895003Y10161D01*
X895006Y10161D01*
X895353Y10181D01*
X895711Y10201D01*
X895714Y10201D01*
X895717Y10201D01*
X896057Y10260D01*
X896414Y10320D01*
X896416Y10321D01*
X896419Y10321D01*
X896764Y10421D01*
X897098Y10517D01*
X897101Y10519D01*
X897104Y10519D01*
X897428Y10654D01*
X897756Y10790D01*
X897759Y10792D01*
X897761Y10793D01*
X898073Y10965D01*
X898380Y11135D01*
X898382Y11137D01*
X898385Y11138D01*
X898682Y11349D01*
X898961Y11547D01*
X898963Y11549D01*
X898965Y11551D01*
X899233Y11791D01*
X899492Y12022D01*
X899494Y12025D01*
X899496Y12026D01*
X899726Y12285D01*
X899966Y12554D01*
X899968Y12556D01*
X899970Y12558D01*
X900168Y12839D01*
X900378Y13135D01*
X900380Y13138D01*
X900381Y13140D01*
X900544Y13436D01*
X900722Y13759D01*
X900723Y13762D01*
X900725Y13764D01*
X900856Y14082D01*
X900994Y14417D01*
X900995Y14420D01*
X900996Y14423D01*
X901091Y14752D01*
X901191Y15102D01*
X901192Y15105D01*
X901192Y15107D01*
X901251Y15457D01*
X901310Y15804D01*
X901310Y15807D01*
X901311Y15810D01*
X901349Y16510D01*
X901349Y330000D01*
X901349Y330004D01*
X901349Y330009D01*
X901329Y330362D01*
X901309Y330711D01*
X901309Y330716D01*
X901308Y330720D01*
X901248Y331071D01*
X901190Y331414D01*
X901189Y331418D01*
X901188Y331422D01*
X901086Y331774D01*
X900993Y332098D01*
X900991Y332102D01*
X900990Y332106D01*
X900854Y332432D01*
X900720Y332756D01*
X900718Y332760D01*
X900716Y332764D01*
X900546Y333071D01*
X900375Y333380D01*
X900373Y333383D01*
X900370Y333387D01*
X900158Y333686D01*
X899963Y333961D01*
X899960Y333964D01*
X899957Y333967D01*
X899490Y334490D01*
X825200Y408780D01*
X825199Y408781D01*
X825198Y408782D01*
X824940Y409012D01*
X824668Y409254D01*
X824667Y409255D01*
X824666Y409256D01*
X824381Y409458D01*
X824087Y409667D01*
X824086Y409667D01*
X824085Y409668D01*
X823742Y409857D01*
X823464Y410011D01*
X823463Y410012D01*
X823461Y410012D01*
X823119Y410154D01*
X822805Y410284D01*
X822804Y410284D01*
X822803Y410284D01*
X822452Y410385D01*
X822121Y410481D01*
X822120Y410481D01*
X822118Y410481D01*
X821752Y410543D01*
X821418Y410600D01*
X821417Y410600D01*
X821416Y410600D01*
X821065Y410619D01*
X820707Y410639D01*
X820706Y410639D01*
X820704Y410639D01*
X820371Y410620D01*
X819996Y410599D01*
X819994Y410599D01*
X819993Y410599D01*
X819687Y410546D01*
X819294Y410479D01*
X819292Y410479D01*
X819291Y410479D01*
X818958Y410382D01*
X818609Y410282D01*
X818608Y410281D01*
X818606Y410281D01*
X818274Y410142D01*
X817951Y410009D01*
X817950Y410008D01*
X817949Y410007D01*
X817648Y409841D01*
X817328Y409663D01*
X817327Y409663D01*
X817325Y409662D01*
X817039Y409458D01*
X816747Y409251D01*
X816746Y409250D01*
X816745Y409249D01*
X816485Y409016D01*
X816216Y408776D01*
X816215Y408774D01*
X816214Y408774D01*
X815999Y408532D01*
X815742Y408244D01*
X815741Y408243D01*
X815740Y408242D01*
X815528Y407941D01*
X815330Y407662D01*
X815330Y407661D01*
X815329Y407660D01*
X815154Y407342D01*
X814986Y407039D01*
X814986Y407037D01*
X814985Y407036D01*
X814859Y406730D01*
X814715Y406380D01*
X814714Y406379D01*
X814714Y406377D01*
X814613Y406025D01*
X814518Y405695D01*
X814518Y405694D01*
X814518Y405693D01*
X814461Y405353D01*
X814400Y404993D01*
X814400Y404991D01*
X814399Y404990D01*
X814361Y404290D01*
X814361Y188962D01*
X813000Y182999D01*
X812999Y182998D01*
X811941Y178360D01*
X811764Y177993D01*
X811764Y177992D01*
X808706Y171644D01*
X808706Y171643D01*
X807222Y168561D01*
X800514Y160150D01*
X800514Y160149D01*
X800441Y160059D01*
X791939Y153278D01*
X783502Y149215D01*
X783501Y149215D01*
X782140Y148559D01*
X771538Y146139D01*
X592071Y146139D01*
X591832Y146126D01*
X591593Y146121D01*
X591477Y146106D01*
X591360Y146099D01*
X591124Y146059D01*
X590887Y146028D01*
X590773Y145999D01*
X590658Y145980D01*
X590428Y145914D01*
X590195Y145856D01*
X590086Y145815D01*
X589973Y145783D01*
X589752Y145691D01*
X589527Y145607D01*
X589423Y145555D01*
X589315Y145510D01*
X589105Y145394D01*
X588892Y145286D01*
X588794Y145222D01*
X588692Y145165D01*
X588496Y145026D01*
X588296Y144895D01*
X588206Y144820D01*
X588111Y144753D01*
X587932Y144593D01*
X587748Y144440D01*
X587667Y144356D01*
X587580Y144278D01*
X587420Y144099D01*
X587254Y143926D01*
X587183Y143833D01*
X587105Y143746D01*
X586967Y143551D01*
X586821Y143361D01*
X586761Y143261D01*
X586693Y143165D01*
X586577Y142955D01*
X586454Y142750D01*
X586406Y142644D01*
X586349Y142541D01*
X586258Y142320D01*
X586158Y142102D01*
X586122Y141991D01*
X586077Y141883D01*
X586011Y141653D01*
X585936Y141425D01*
X585913Y141310D01*
X585880Y141198D01*
X585840Y140962D01*
X585792Y140727D01*
X585781Y140611D01*
X585762Y140496D01*
X585748Y140257D01*
X585726Y140018D01*
X585729Y139901D01*
X585722Y139784D01*
X585736Y139545D01*
X585741Y139306D01*
X585756Y139190D01*
X585763Y139073D01*
X585803Y138837D01*
X585835Y138599D01*
X585863Y138486D01*
X585883Y138371D01*
X585949Y138141D01*
X586007Y137908D01*
X586048Y137799D01*
X586081Y137686D01*
X586173Y137465D01*
X586253Y137249D01*
X578140Y137249D01*
X570027Y137249D01*
X570028Y137251D01*
X570111Y137475D01*
X570203Y137697D01*
X570235Y137810D01*
X570276Y137919D01*
X570334Y138152D01*
X570400Y138382D01*
X570419Y138497D01*
X570447Y138611D01*
X570479Y138849D01*
X570518Y139084D01*
X570525Y139201D01*
X570540Y139317D01*
X570545Y139557D01*
X570558Y139796D01*
X570551Y139912D01*
X570553Y140029D01*
X570531Y140268D01*
X570517Y140507D01*
X570498Y140622D01*
X570487Y140739D01*
X570438Y140973D01*
X570397Y141209D01*
X570365Y141322D01*
X570341Y141436D01*
X570266Y141664D01*
X570199Y141894D01*
X570154Y142002D01*
X570118Y142113D01*
X570018Y142330D01*
X569926Y142551D01*
X569869Y142654D01*
X569820Y142760D01*
X569697Y142965D01*
X569581Y143175D01*
X569513Y143270D01*
X569452Y143370D01*
X569306Y143560D01*
X569168Y143755D01*
X569090Y143842D01*
X569018Y143935D01*
X568852Y144107D01*
X568692Y144286D01*
X568605Y144363D01*
X568524Y144448D01*
X568339Y144600D01*
X568160Y144760D01*
X568065Y144827D01*
X567975Y144902D01*
X567774Y145033D01*
X567579Y145171D01*
X567476Y145228D01*
X567378Y145291D01*
X567165Y145399D01*
X566955Y145515D01*
X566846Y145559D01*
X566742Y145612D01*
X566517Y145695D01*
X566296Y145786D01*
X566184Y145819D01*
X566074Y145859D01*
X565841Y145917D01*
X565611Y145982D01*
X565496Y146002D01*
X565382Y146030D01*
X565145Y146061D01*
X564909Y146101D01*
X564790Y146107D01*
X564676Y146122D01*
X564448Y146126D01*
X564209Y146139D01*
X510463Y146139D01*
X510283Y146129D01*
X510103Y146129D01*
X509928Y146109D01*
X509752Y146099D01*
X509574Y146069D01*
X509395Y146049D01*
X509223Y146009D01*
X509050Y145980D01*
X508877Y145930D01*
X508701Y145890D01*
X508534Y145831D01*
X508365Y145783D01*
X508199Y145714D01*
X508028Y145654D01*
X507870Y145577D01*
X507707Y145510D01*
X507549Y145422D01*
X507387Y145344D01*
X507238Y145250D01*
X507084Y145165D01*
X506937Y145061D01*
X506784Y144964D01*
X506646Y144854D01*
X506503Y144753D01*
X506368Y144632D01*
X506227Y144520D01*
X506103Y144395D01*
X505972Y144278D01*
X505852Y144143D01*
X505724Y144015D01*
X505615Y143878D01*
X505497Y143746D01*
X505393Y143599D01*
X505281Y143458D01*
X505187Y143309D01*
X505085Y143165D01*
X504998Y143007D01*
X504902Y142854D01*
X504826Y142695D01*
X504741Y142541D01*
X504672Y142374D01*
X504594Y142212D01*
X504536Y142046D01*
X504469Y141883D01*
X504419Y141709D01*
X504360Y141539D01*
X504321Y141367D01*
X504272Y141198D01*
X504242Y141020D01*
X504202Y140844D01*
X504183Y140669D01*
X504154Y140496D01*
X504144Y140316D01*
X504124Y140136D01*
X504124Y139960D01*
X504114Y139784D01*
X504124Y139604D01*
X504125Y139424D01*
X504145Y139249D01*
X504155Y139073D01*
X504185Y138895D01*
X504206Y138716D01*
X504245Y138544D01*
X504275Y138371D01*
X504325Y138198D01*
X504365Y138022D01*
X504425Y137853D01*
X504473Y137686D01*
X504539Y137528D01*
X504597Y137360D01*
X506481Y132814D01*
X506481Y128986D01*
X505016Y125450D01*
X502310Y122744D01*
X498774Y121279D01*
X494946Y121279D01*
X491410Y122744D01*
X488704Y125450D01*
X487239Y128986D01*
X487239Y132814D01*
X489123Y137360D01*
X489182Y137530D01*
X489251Y137697D01*
X489300Y137867D01*
X489358Y138033D01*
X489398Y138209D01*
X489448Y138382D01*
X489477Y138555D01*
X489516Y138727D01*
X489536Y138907D01*
X489566Y139084D01*
X489576Y139260D01*
X489596Y139435D01*
X489596Y139616D01*
X489606Y139796D01*
X489596Y139972D01*
X489596Y140148D01*
X489575Y140327D01*
X489565Y140507D01*
X489536Y140681D01*
X489516Y140856D01*
X489476Y141032D01*
X489445Y141209D01*
X489396Y141378D01*
X489357Y141550D01*
X489297Y141721D01*
X489247Y141894D01*
X489180Y142056D01*
X489121Y142222D01*
X489043Y142385D01*
X488974Y142551D01*
X488888Y142706D01*
X488812Y142864D01*
X488716Y143017D01*
X488629Y143175D01*
X488526Y143318D01*
X488433Y143467D01*
X488320Y143608D01*
X488216Y143755D01*
X488098Y143886D01*
X487988Y144024D01*
X487860Y144151D01*
X487740Y144286D01*
X487609Y144403D01*
X487484Y144527D01*
X487343Y144640D01*
X487208Y144760D01*
X487064Y144861D01*
X486927Y144971D01*
X486774Y145067D01*
X486627Y145171D01*
X486472Y145256D01*
X486323Y145350D01*
X486161Y145428D01*
X486003Y145515D01*
X485840Y145582D01*
X485681Y145658D01*
X485511Y145718D01*
X485344Y145786D01*
X485175Y145835D01*
X485008Y145893D01*
X484833Y145933D01*
X484659Y145982D01*
X484485Y146012D01*
X484314Y146051D01*
X484135Y146071D01*
X483957Y146101D01*
X483778Y146110D01*
X483606Y146130D01*
X483434Y146129D01*
X483257Y146139D01*
X303462Y146139D01*
X292860Y148559D01*
X283061Y153278D01*
X274559Y160059D01*
X267778Y168561D01*
X263059Y178360D01*
X260639Y188962D01*
X260639Y428438D01*
X261944Y434152D01*
X261944Y434153D01*
X263059Y439040D01*
X263116Y439158D01*
X263116Y439159D01*
X266174Y445507D01*
X266174Y445508D01*
X267778Y448839D01*
X269224Y450652D01*
X274287Y457001D01*
X274288Y457002D01*
X274559Y457341D01*
X283061Y464122D01*
X290981Y467936D01*
X290982Y467936D01*
X292860Y468841D01*
X303462Y471261D01*
X515829Y471261D01*
X515949Y471267D01*
X516069Y471265D01*
X516304Y471287D01*
X516540Y471301D01*
X516659Y471321D01*
X516778Y471332D01*
X517010Y471380D01*
X517243Y471420D01*
X517358Y471453D01*
X517475Y471478D01*
X517700Y471552D01*
X517927Y471617D01*
X518038Y471663D01*
X518152Y471701D01*
X518367Y471800D01*
X518585Y471890D01*
X518690Y471948D01*
X518799Y471998D01*
X519002Y472121D01*
X519209Y472235D01*
X519306Y472304D01*
X519409Y472366D01*
X519597Y472511D01*
X519790Y472647D01*
X519879Y472727D01*
X519974Y472800D01*
X520145Y472965D01*
X520321Y473122D01*
X520401Y473212D01*
X520487Y473295D01*
X520638Y473477D01*
X520795Y473654D01*
X520865Y473752D01*
X520941Y473844D01*
X521070Y474042D01*
X521207Y474235D01*
X521265Y474340D01*
X521331Y474440D01*
X521437Y474651D01*
X521551Y474859D01*
X521597Y474970D01*
X521651Y475077D01*
X521733Y475298D01*
X521824Y475517D01*
X521857Y475632D01*
X521898Y475745D01*
X521955Y475974D01*
X522020Y476202D01*
X522040Y476320D01*
X522069Y476436D01*
X522100Y476671D01*
X522139Y476904D01*
X522146Y477024D01*
X522161Y477143D01*
X522165Y477379D01*
X522178Y477616D01*
X522172Y477736D01*
X522174Y477855D01*
X522151Y478091D01*
X522138Y478327D01*
X522118Y478445D01*
X522106Y478564D01*
X522058Y478796D01*
X522018Y479029D01*
X521984Y479144D01*
X521960Y479262D01*
X521885Y479487D01*
X521820Y479714D01*
X521774Y479824D01*
X521736Y479938D01*
X521637Y480153D01*
X521546Y480371D01*
X521488Y480476D01*
X521438Y480585D01*
X521316Y480788D01*
X521201Y480995D01*
X521132Y481092D01*
X521070Y481195D01*
X520925Y481383D01*
X520788Y481575D01*
X520708Y481664D01*
X520635Y481759D01*
X520470Y481930D01*
X520313Y482106D01*
X520223Y482185D01*
X520140Y482272D01*
X519958Y482422D01*
X519781Y482580D01*
X519683Y482649D01*
X519591Y482725D01*
X519388Y482858D01*
X519199Y482991D01*
X519101Y483045D01*
X519004Y483109D01*
X509758Y488446D01*
X501346Y496858D01*
X495398Y507161D01*
X492319Y518652D01*
X492319Y530548D01*
X495398Y542039D01*
X501346Y552342D01*
X509758Y560754D01*
X520061Y566702D01*
X531552Y569781D01*
X543448Y569781D01*
X554939Y566702D01*
X565242Y560754D01*
X573654Y552342D01*
X579602Y542039D01*
X582681Y530548D01*
X582681Y518652D01*
X579602Y507161D01*
X573654Y496858D01*
X565242Y488446D01*
X555996Y483109D01*
X555896Y483043D01*
X555791Y482985D01*
X555599Y482848D01*
X555400Y482718D01*
X555308Y482642D01*
X555210Y482572D01*
X555034Y482415D01*
X554852Y482264D01*
X554768Y482177D01*
X554679Y482098D01*
X554522Y481921D01*
X554358Y481751D01*
X554285Y481655D01*
X554205Y481566D01*
X554068Y481373D01*
X553924Y481185D01*
X553862Y481083D01*
X553793Y480985D01*
X553678Y480777D01*
X553556Y480575D01*
X553507Y480466D01*
X553449Y480361D01*
X553358Y480142D01*
X553260Y479927D01*
X553222Y479813D01*
X553176Y479703D01*
X553111Y479475D01*
X553037Y479251D01*
X553013Y479133D01*
X552980Y479018D01*
X552940Y478785D01*
X552892Y478553D01*
X552881Y478434D01*
X552861Y478316D01*
X552848Y478079D01*
X552826Y477844D01*
X552828Y477724D01*
X552822Y477604D01*
X552835Y477368D01*
X552840Y477131D01*
X552855Y477013D01*
X552862Y476893D01*
X552902Y476660D01*
X552933Y476425D01*
X552962Y476309D01*
X552982Y476191D01*
X553048Y475963D01*
X553105Y475734D01*
X553147Y475622D01*
X553180Y475506D01*
X553271Y475288D01*
X553353Y475066D01*
X553408Y474959D01*
X553454Y474849D01*
X553568Y474641D01*
X553675Y474430D01*
X553741Y474330D01*
X553799Y474225D01*
X553936Y474033D01*
X554066Y473835D01*
X554143Y473742D01*
X554212Y473645D01*
X554369Y473469D01*
X554521Y473287D01*
X554608Y473203D01*
X554687Y473114D01*
X554864Y472957D01*
X555035Y472793D01*
X555130Y472720D01*
X555219Y472640D01*
X555413Y472504D01*
X555600Y472360D01*
X555703Y472298D01*
X555801Y472229D01*
X556008Y472115D01*
X556211Y471993D01*
X556320Y471943D01*
X556425Y471885D01*
X556643Y471795D01*
X556859Y471697D01*
X556973Y471659D01*
X557083Y471614D01*
X557311Y471549D01*
X557536Y471475D01*
X557653Y471451D01*
X557768Y471418D01*
X558002Y471378D01*
X558233Y471330D01*
X558353Y471319D01*
X558471Y471299D01*
X558713Y471286D01*
X558943Y471265D01*
X559056Y471267D01*
X559171Y471261D01*
X747390Y471261D01*
X747391Y471261D01*
X747393Y471261D01*
X747757Y471281D01*
X748101Y471301D01*
X748103Y471301D01*
X748104Y471301D01*
X748482Y471365D01*
X748804Y471420D01*
X748805Y471420D01*
X748806Y471421D01*
X749171Y471526D01*
X749488Y471617D01*
X749489Y471618D01*
X749491Y471618D01*
X749809Y471751D01*
X750146Y471890D01*
X750148Y471891D01*
X750149Y471891D01*
X750476Y472072D01*
X750770Y472235D01*
X750771Y472236D01*
X750772Y472237D01*
X751096Y472466D01*
X751351Y472647D01*
X751352Y472648D01*
X751353Y472649D01*
X751630Y472897D01*
X751882Y473122D01*
X751883Y473123D01*
X751884Y473124D01*
X752129Y473400D01*
X752356Y473654D01*
X752357Y473655D01*
X752358Y473656D01*
X752555Y473934D01*
X752768Y474235D01*
X752769Y474237D01*
X752770Y474238D01*
X752914Y474500D01*
X753112Y474859D01*
X753113Y474860D01*
X753114Y474861D01*
X753256Y475206D01*
X753384Y475517D01*
X753385Y475519D01*
X753385Y475520D01*
X753477Y475840D01*
X753581Y476202D01*
X753581Y476203D01*
X753582Y476205D01*
X753645Y476577D01*
X753700Y476904D01*
X753700Y476906D01*
X753700Y476907D01*
X753721Y477293D01*
X753739Y477616D01*
X753739Y477617D01*
X753739Y477619D01*
X753718Y477986D01*
X753699Y478327D01*
X753698Y478328D01*
X753698Y478330D01*
X753634Y478704D01*
X753579Y479029D01*
X753578Y479030D01*
X753578Y479032D01*
X753477Y479381D01*
X753381Y479714D01*
X753380Y479715D01*
X753380Y479716D01*
X753243Y480044D01*
X753107Y480371D01*
X753107Y480373D01*
X753106Y480374D01*
X752938Y480677D01*
X752762Y480995D01*
X752761Y480996D01*
X752760Y480997D01*
X752542Y481304D01*
X752349Y481575D01*
X752348Y481576D01*
X752347Y481577D01*
X751880Y482100D01*
X661349Y572630D01*
X661349Y623490D01*
X661349Y623493D01*
X661349Y623496D01*
X661330Y623839D01*
X661309Y624201D01*
X661309Y624204D01*
X661309Y624207D01*
X661251Y624547D01*
X661190Y624904D01*
X661189Y624906D01*
X661189Y624909D01*
X661089Y625253D01*
X660993Y625588D01*
X660991Y625591D01*
X660991Y625594D01*
X660862Y625903D01*
X660720Y626246D01*
X660718Y626249D01*
X660717Y626251D01*
X660545Y626563D01*
X660375Y626870D01*
X660373Y626872D01*
X660372Y626875D01*
X660169Y627160D01*
X659963Y627451D01*
X659961Y627453D01*
X659959Y627455D01*
X659719Y627723D01*
X659488Y627982D01*
X659485Y627984D01*
X659484Y627986D01*
X659219Y628221D01*
X658956Y628456D01*
X658954Y628458D01*
X658952Y628460D01*
X658671Y628658D01*
X658375Y628868D01*
X658372Y628870D01*
X658370Y628871D01*
X658074Y629034D01*
X657751Y629212D01*
X657748Y629213D01*
X657746Y629215D01*
X657428Y629346D01*
X657093Y629484D01*
X657090Y629485D01*
X657087Y629486D01*
X656758Y629581D01*
X656408Y629681D01*
X656405Y629682D01*
X656403Y629682D01*
X656049Y629742D01*
X655706Y629800D01*
X655703Y629800D01*
X655700Y629801D01*
X655000Y629839D01*
X285237Y629839D01*
X285058Y629829D01*
X284879Y629829D01*
X284703Y629809D01*
X284526Y629799D01*
X284349Y629769D01*
X284171Y629749D01*
X283998Y629710D01*
X283823Y629680D01*
X283651Y629630D01*
X283477Y629590D01*
X283309Y629532D01*
X283139Y629483D01*
X282974Y629414D01*
X282804Y629355D01*
X282644Y629278D01*
X282481Y629210D01*
X282324Y629123D01*
X282163Y629045D01*
X282012Y628951D01*
X281857Y628865D01*
X281711Y628761D01*
X281560Y628666D01*
X281421Y628555D01*
X281276Y628453D01*
X281143Y628333D01*
X281003Y628221D01*
X280877Y628096D01*
X280745Y627978D01*
X280626Y627844D01*
X280500Y627717D01*
X280389Y627579D01*
X280271Y627446D01*
X280167Y627300D01*
X280056Y627160D01*
X279962Y627010D01*
X279859Y626865D01*
X279772Y626708D01*
X279677Y626556D01*
X279600Y626397D01*
X279515Y626241D01*
X279446Y626076D01*
X279369Y625914D01*
X279310Y625747D01*
X279243Y625583D01*
X279193Y625410D01*
X279134Y625242D01*
X279095Y625069D01*
X279046Y624898D01*
X279016Y624721D01*
X278976Y624547D01*
X278957Y624371D01*
X278927Y624196D01*
X278917Y624017D01*
X278897Y623839D01*
X278897Y623661D01*
X278888Y623484D01*
X278898Y623306D01*
X278898Y623126D01*
X278918Y622950D01*
X278928Y622773D01*
X278958Y622597D01*
X278979Y622419D01*
X279018Y622246D01*
X279048Y622071D01*
X279098Y621899D01*
X279138Y621724D01*
X279197Y621557D01*
X279246Y621386D01*
X279315Y621221D01*
X279374Y621052D01*
X279452Y620893D01*
X279520Y620729D01*
X279607Y620572D01*
X279684Y620411D01*
X279779Y620261D01*
X279865Y620105D01*
X279969Y619960D01*
X280064Y619808D01*
X280175Y619669D01*
X280278Y619525D01*
X280397Y619392D01*
X280509Y619252D01*
X280635Y619126D01*
X280753Y618994D01*
X280887Y618875D01*
X281014Y618749D01*
X281153Y618638D01*
X281285Y618520D01*
X281431Y618417D01*
X281572Y618306D01*
X281722Y618211D01*
X281867Y618109D01*
X282024Y618023D01*
X282176Y617928D01*
X282338Y617849D01*
X282491Y617765D01*
X282616Y617714D01*
X283196Y617133D01*
X283501Y616398D01*
X283501Y603602D01*
X283433Y603439D01*
X283373Y603268D01*
X283304Y603099D01*
X283256Y602931D01*
X283198Y602767D01*
X283158Y602590D01*
X283107Y602414D01*
X283078Y602242D01*
X283040Y602072D01*
X283019Y601892D01*
X282989Y601712D01*
X282979Y601537D01*
X282960Y601364D01*
X282960Y601182D01*
X282950Y601000D01*
X282960Y600826D01*
X282960Y600652D01*
X282980Y600471D01*
X282991Y600289D01*
X283020Y600117D01*
X283040Y599944D01*
X283081Y599766D01*
X283111Y599587D01*
X283160Y599419D01*
X283199Y599249D01*
X283259Y599078D01*
X283310Y598903D01*
X283377Y598742D01*
X283434Y598577D01*
X283513Y598413D01*
X283583Y598245D01*
X283668Y598093D01*
X283744Y597935D01*
X283841Y597781D01*
X283929Y597622D01*
X284030Y597480D01*
X284096Y597376D01*
X284501Y596398D01*
X284501Y582504D01*
X284486Y582463D01*
X284485Y582459D01*
X284484Y582454D01*
X284406Y582109D01*
X284328Y581768D01*
X284327Y581764D01*
X284326Y581760D01*
X284288Y581411D01*
X284248Y581061D01*
X284248Y581056D01*
X284248Y581052D01*
X284248Y580691D01*
X284248Y580348D01*
X284249Y580344D01*
X284249Y580339D01*
X284289Y579989D01*
X284328Y579640D01*
X284329Y579636D01*
X284330Y579631D01*
X284409Y579289D01*
X284487Y578946D01*
X284489Y578941D01*
X284490Y578937D01*
X284722Y578276D01*
X284943Y577741D01*
X285041Y577250D01*
X285041Y576849D01*
X275000Y576849D01*
X264959Y576849D01*
X264959Y577250D01*
X265057Y577741D01*
X265278Y578276D01*
X265280Y578280D01*
X265282Y578284D01*
X265387Y578587D01*
X265514Y578948D01*
X265515Y578953D01*
X265516Y578957D01*
X265592Y579292D01*
X265672Y579643D01*
X265673Y579647D01*
X265674Y579651D01*
X265712Y580000D01*
X265752Y580351D01*
X265752Y580355D01*
X265752Y580360D01*
X265752Y580706D01*
X265752Y581063D01*
X265751Y581068D01*
X265751Y581072D01*
X265712Y581411D01*
X265672Y581771D01*
X265671Y581775D01*
X265670Y581780D01*
X265592Y582121D01*
X265513Y582465D01*
X265511Y582470D01*
X265510Y582474D01*
X265499Y582506D01*
X265499Y595650D01*
X265499Y595653D01*
X265499Y595656D01*
X265480Y595990D01*
X265459Y596361D01*
X265459Y596364D01*
X265459Y596367D01*
X265404Y596685D01*
X265340Y597064D01*
X265339Y597066D01*
X265339Y597069D01*
X265239Y597414D01*
X265143Y597748D01*
X265141Y597751D01*
X265141Y597754D01*
X265006Y598078D01*
X264870Y598406D01*
X264868Y598409D01*
X264867Y598411D01*
X264695Y598723D01*
X264525Y599030D01*
X264523Y599032D01*
X264522Y599035D01*
X264315Y599325D01*
X264113Y599611D01*
X264111Y599613D01*
X264109Y599615D01*
X263869Y599883D01*
X263638Y600142D01*
X263635Y600144D01*
X263634Y600146D01*
X263366Y600384D01*
X263106Y600616D01*
X263104Y600618D01*
X263102Y600620D01*
X262821Y600818D01*
X262525Y601028D01*
X262522Y601030D01*
X262520Y601031D01*
X262224Y601194D01*
X261901Y601372D01*
X261898Y601373D01*
X261896Y601375D01*
X261578Y601506D01*
X261243Y601644D01*
X261240Y601645D01*
X261237Y601646D01*
X260908Y601741D01*
X260558Y601841D01*
X260555Y601842D01*
X260553Y601842D01*
X260199Y601902D01*
X259856Y601960D01*
X259853Y601960D01*
X259850Y601961D01*
X259150Y601999D01*
X248102Y601999D01*
X247367Y602304D01*
X246540Y603131D01*
X246539Y603132D01*
X246538Y603133D01*
X246263Y603378D01*
X246008Y603606D01*
X246007Y603606D01*
X246006Y603607D01*
X245690Y603832D01*
X245427Y604018D01*
X245426Y604019D01*
X245425Y604019D01*
X245088Y604205D01*
X244804Y604362D01*
X244803Y604363D01*
X244801Y604364D01*
X244449Y604509D01*
X244146Y604635D01*
X244144Y604635D01*
X244143Y604636D01*
X243785Y604739D01*
X243461Y604832D01*
X243460Y604832D01*
X243458Y604833D01*
X243108Y604892D01*
X242758Y604951D01*
X242757Y604951D01*
X242756Y604951D01*
X242411Y604970D01*
X242047Y604991D01*
X242046Y604991D01*
X242044Y604991D01*
X241705Y604971D01*
X241336Y604950D01*
X241334Y604950D01*
X241333Y604950D01*
X241010Y604895D01*
X240634Y604831D01*
X240632Y604830D01*
X240631Y604830D01*
X240299Y604734D01*
X239949Y604633D01*
X239948Y604632D01*
X239946Y604632D01*
X239635Y604503D01*
X239291Y604360D01*
X239290Y604359D01*
X239289Y604359D01*
X238997Y604197D01*
X238668Y604015D01*
X238667Y604014D01*
X238665Y604013D01*
X238410Y603832D01*
X238087Y603602D01*
X238086Y603601D01*
X238085Y603600D01*
X237837Y603378D01*
X237556Y603127D01*
X237555Y603126D01*
X237554Y603125D01*
X237288Y602826D01*
X237082Y602595D01*
X237081Y602594D01*
X237080Y602593D01*
X236865Y602288D01*
X236670Y602014D01*
X236670Y602013D01*
X236669Y602011D01*
X236503Y601710D01*
X236327Y601390D01*
X236326Y601389D01*
X236325Y601387D01*
X236178Y601031D01*
X236055Y600732D01*
X236054Y600730D01*
X236054Y600729D01*
X235952Y600375D01*
X235858Y600047D01*
X235858Y600045D01*
X235858Y600044D01*
X235794Y599667D01*
X235740Y599344D01*
X235740Y599343D01*
X235739Y599341D01*
X235701Y598641D01*
X235701Y552103D01*
X235244Y551000D01*
X183360Y499117D01*
X183358Y499114D01*
X183354Y499111D01*
X183120Y498848D01*
X182886Y498585D01*
X182883Y498582D01*
X182880Y498579D01*
X182679Y498294D01*
X182473Y498004D01*
X182471Y498001D01*
X182469Y497997D01*
X182291Y497673D01*
X182129Y497381D01*
X182127Y497377D01*
X182125Y497373D01*
X181991Y497048D01*
X181856Y496723D01*
X181855Y496718D01*
X181854Y496714D01*
X181755Y496368D01*
X181659Y496038D01*
X181659Y496034D01*
X181658Y496030D01*
X181597Y495668D01*
X181540Y495336D01*
X181540Y495331D01*
X181539Y495327D01*
X181501Y494627D01*
X181501Y321530D01*
X181511Y321349D01*
X181511Y321167D01*
X181531Y320993D01*
X181541Y320819D01*
X181571Y320640D01*
X181592Y320459D01*
X181631Y320289D01*
X181660Y320117D01*
X181710Y319942D01*
X181751Y319765D01*
X181809Y319600D01*
X181857Y319432D01*
X181927Y319264D01*
X181987Y319092D01*
X182063Y318935D01*
X182130Y318774D01*
X182218Y318615D01*
X182297Y318451D01*
X182391Y318303D01*
X182475Y318150D01*
X182580Y318003D01*
X182677Y317848D01*
X182787Y317712D01*
X182887Y317570D01*
X183008Y317434D01*
X183122Y317292D01*
X183246Y317169D01*
X183362Y317039D01*
X183498Y316918D01*
X183627Y316789D01*
X183764Y316680D01*
X183894Y316564D01*
X184042Y316459D01*
X184185Y316346D01*
X184332Y316253D01*
X184475Y316152D01*
X184635Y316064D01*
X184788Y315968D01*
X184948Y315891D01*
X185099Y315808D01*
X185259Y315742D01*
X185420Y315664D01*
X185581Y315598D01*
X189098Y312081D01*
X191001Y307487D01*
X191001Y302513D01*
X189098Y297919D01*
X185581Y294402D01*
X180987Y292499D01*
X176013Y292499D01*
X171419Y294402D01*
X167902Y297919D01*
X165999Y302513D01*
X165999Y307487D01*
X167902Y312081D01*
X171419Y315598D01*
X171580Y315664D01*
X171744Y315743D01*
X171911Y315813D01*
X172064Y315897D01*
X172222Y315973D01*
X172376Y316070D01*
X172535Y316158D01*
X172677Y316259D01*
X172825Y316352D01*
X172967Y316466D01*
X173115Y316571D01*
X173245Y316688D01*
X173382Y316797D01*
X173510Y316925D01*
X173646Y317047D01*
X173762Y317177D01*
X173885Y317301D01*
X173999Y317443D01*
X174120Y317579D01*
X174220Y317721D01*
X174329Y317858D01*
X174426Y318012D01*
X174531Y318160D01*
X174615Y318313D01*
X174708Y318461D01*
X174787Y318625D01*
X174875Y318784D01*
X174941Y318945D01*
X175017Y319103D01*
X175077Y319275D01*
X175146Y319443D01*
X175194Y319611D01*
X175252Y319776D01*
X175292Y319953D01*
X175342Y320128D01*
X175371Y320300D01*
X175410Y320470D01*
X175430Y320651D01*
X175461Y320830D01*
X175470Y321007D01*
X175490Y321178D01*
X175489Y321352D01*
X175499Y321530D01*
X175499Y499097D01*
X175956Y500200D01*
X227840Y552083D01*
X227842Y552086D01*
X227846Y552089D01*
X228080Y552352D01*
X228314Y552615D01*
X228317Y552618D01*
X228320Y552621D01*
X228521Y552906D01*
X228727Y553196D01*
X228729Y553199D01*
X228731Y553203D01*
X228902Y553513D01*
X229071Y553819D01*
X229073Y553823D01*
X229075Y553827D01*
X229208Y554150D01*
X229344Y554477D01*
X229345Y554482D01*
X229346Y554486D01*
X229443Y554824D01*
X229541Y555162D01*
X229541Y555166D01*
X229542Y555170D01*
X229602Y555526D01*
X229660Y555864D01*
X229660Y555869D01*
X229661Y555873D01*
X229699Y556573D01*
X229699Y595650D01*
X229699Y595653D01*
X229699Y595656D01*
X229680Y595990D01*
X229659Y596361D01*
X229659Y596364D01*
X229659Y596367D01*
X229604Y596685D01*
X229540Y597064D01*
X229539Y597066D01*
X229539Y597069D01*
X229439Y597414D01*
X229343Y597748D01*
X229341Y597751D01*
X229341Y597754D01*
X229206Y598078D01*
X229070Y598406D01*
X229068Y598409D01*
X229067Y598411D01*
X228895Y598723D01*
X228725Y599030D01*
X228723Y599032D01*
X228722Y599035D01*
X228515Y599325D01*
X228313Y599611D01*
X228311Y599613D01*
X228309Y599615D01*
X228069Y599883D01*
X227838Y600142D01*
X227835Y600144D01*
X227834Y600146D01*
X227566Y600384D01*
X227306Y600616D01*
X227304Y600618D01*
X227302Y600620D01*
X227021Y600818D01*
X226725Y601028D01*
X226722Y601030D01*
X226720Y601031D01*
X226424Y601194D01*
X226101Y601372D01*
X226098Y601373D01*
X226096Y601375D01*
X225778Y601506D01*
X225443Y601644D01*
X225440Y601645D01*
X225437Y601646D01*
X225108Y601741D01*
X224758Y601841D01*
X224755Y601842D01*
X224753Y601842D01*
X224399Y601902D01*
X224056Y601960D01*
X224053Y601960D01*
X224050Y601961D01*
X223350Y601999D01*
X220850Y601999D01*
X220847Y601999D01*
X220844Y601999D01*
X220497Y601979D01*
X220139Y601959D01*
X220136Y601959D01*
X220133Y601959D01*
X219793Y601900D01*
X219436Y601840D01*
X219434Y601839D01*
X219431Y601839D01*
X219086Y601739D01*
X218752Y601643D01*
X218749Y601641D01*
X218746Y601641D01*
X218422Y601506D01*
X218094Y601370D01*
X218091Y601368D01*
X218089Y601367D01*
X217777Y601195D01*
X217470Y601025D01*
X217468Y601023D01*
X217465Y601022D01*
X217168Y600811D01*
X216889Y600613D01*
X216887Y600611D01*
X216885Y600609D01*
X216611Y600364D01*
X216358Y600138D01*
X216356Y600135D01*
X216354Y600134D01*
X216116Y599866D01*
X215884Y599606D01*
X215882Y599604D01*
X215880Y599602D01*
X215677Y599314D01*
X215472Y599025D01*
X215470Y599022D01*
X215469Y599020D01*
X215306Y598724D01*
X215128Y598401D01*
X215127Y598398D01*
X215125Y598396D01*
X214994Y598078D01*
X214856Y597743D01*
X214855Y597740D01*
X214854Y597737D01*
X214759Y597408D01*
X214659Y597058D01*
X214658Y597055D01*
X214658Y597053D01*
X214594Y596676D01*
X214540Y596356D01*
X214540Y596353D01*
X214539Y596350D01*
X214501Y595650D01*
X214501Y582504D01*
X214486Y582463D01*
X214485Y582459D01*
X214484Y582454D01*
X214406Y582109D01*
X214328Y581768D01*
X214327Y581764D01*
X214326Y581760D01*
X214288Y581411D01*
X214248Y581061D01*
X214248Y581056D01*
X214248Y581052D01*
X214248Y580691D01*
X214248Y580348D01*
X214249Y580344D01*
X214249Y580339D01*
X214289Y579989D01*
X214328Y579640D01*
X214329Y579636D01*
X214330Y579631D01*
X214409Y579289D01*
X214487Y578946D01*
X214489Y578941D01*
X214490Y578937D01*
X214722Y578276D01*
X214943Y577741D01*
X215041Y577250D01*
X215041Y576849D01*
X205000Y576849D01*
X194959Y576849D01*
X194959Y577250D01*
X195057Y577741D01*
X195278Y578276D01*
X195280Y578280D01*
X195282Y578284D01*
X195387Y578587D01*
X195514Y578948D01*
X195515Y578953D01*
X195516Y578957D01*
X195592Y579292D01*
X195672Y579643D01*
X195673Y579647D01*
X195674Y579651D01*
X195712Y580000D01*
X195752Y580351D01*
X195752Y580355D01*
X195752Y580360D01*
X195752Y580706D01*
X195752Y581063D01*
X195751Y581068D01*
X195751Y581072D01*
X195712Y581411D01*
X195672Y581771D01*
X195671Y581775D01*
X195670Y581780D01*
X195592Y582121D01*
X195513Y582465D01*
X195511Y582470D01*
X195510Y582474D01*
X195499Y582506D01*
X195499Y596398D01*
X195903Y597373D01*
X195976Y597489D01*
X196077Y597632D01*
X196165Y597791D01*
X196262Y597945D01*
X196337Y598103D01*
X196422Y598255D01*
X196491Y598423D01*
X196570Y598588D01*
X196627Y598752D01*
X196694Y598914D01*
X196745Y599089D01*
X196804Y599260D01*
X196843Y599430D01*
X196891Y599598D01*
X196922Y599778D01*
X196962Y599955D01*
X196981Y600129D01*
X197010Y600301D01*
X197020Y600482D01*
X197041Y600663D01*
X197040Y600838D01*
X197050Y601012D01*
X197040Y601193D01*
X197039Y601376D01*
X197020Y601549D01*
X197010Y601723D01*
X196979Y601902D01*
X196959Y602084D01*
X196919Y602254D01*
X196890Y602426D01*
X196840Y602600D01*
X196799Y602778D01*
X196740Y602945D01*
X196693Y603110D01*
X196626Y603270D01*
X196567Y603439D01*
X196499Y603602D01*
X196499Y616398D01*
X196804Y617133D01*
X197385Y617715D01*
X197519Y617770D01*
X197675Y617856D01*
X197835Y617933D01*
X197986Y618028D01*
X198143Y618115D01*
X198287Y618218D01*
X198438Y618312D01*
X198578Y618424D01*
X198724Y618528D01*
X198856Y618646D01*
X198995Y618756D01*
X199121Y618883D01*
X199255Y619002D01*
X199373Y619135D01*
X199498Y619260D01*
X199610Y619400D01*
X199729Y619534D01*
X199832Y619679D01*
X199942Y619817D01*
X200037Y619969D01*
X200141Y620115D01*
X200227Y620271D01*
X200321Y620421D01*
X200399Y620582D01*
X200485Y620739D01*
X200553Y620903D01*
X200630Y621063D01*
X200689Y621232D01*
X200757Y621397D01*
X200806Y621568D01*
X200865Y621735D01*
X200905Y621910D01*
X200954Y622082D01*
X200984Y622257D01*
X201023Y622430D01*
X201043Y622608D01*
X201073Y622784D01*
X201083Y622962D01*
X201102Y623138D01*
X201102Y623317D01*
X201112Y623496D01*
X201102Y623673D01*
X201102Y623850D01*
X201082Y624029D01*
X201072Y624207D01*
X201042Y624381D01*
X201022Y624558D01*
X200982Y624733D01*
X200952Y624909D01*
X200902Y625080D01*
X200863Y625253D01*
X200803Y625421D01*
X200754Y625594D01*
X200686Y625757D01*
X200627Y625925D01*
X200549Y626086D01*
X200480Y626251D01*
X200394Y626407D01*
X200317Y626567D01*
X200222Y626718D01*
X200135Y626875D01*
X200032Y627019D01*
X199938Y627169D01*
X199826Y627309D01*
X199722Y627455D01*
X199604Y627587D01*
X199493Y627726D01*
X199366Y627852D01*
X199247Y627986D01*
X199114Y628104D01*
X198988Y628229D01*
X198849Y628340D01*
X198715Y628460D01*
X198570Y628562D01*
X198431Y628673D01*
X198279Y628768D01*
X198133Y628871D01*
X197978Y628957D01*
X197827Y629051D01*
X197666Y629128D01*
X197509Y629215D01*
X197345Y629282D01*
X197185Y629359D01*
X197016Y629418D01*
X196850Y629486D01*
X196680Y629535D01*
X196512Y629594D01*
X196337Y629633D01*
X196166Y629682D01*
X195991Y629712D01*
X195817Y629751D01*
X195640Y629771D01*
X195463Y629801D01*
X195283Y629811D01*
X195109Y629830D01*
X194939Y629830D01*
X194763Y629839D01*
X30000Y629839D01*
X29797Y629828D01*
X29585Y629826D01*
X27824Y629710D01*
X27554Y629677D01*
X27282Y629651D01*
X27199Y629634D01*
X27117Y629624D01*
X26866Y629564D01*
X26596Y629508D01*
X23194Y628596D01*
X23076Y628557D01*
X22956Y628527D01*
X22738Y628446D01*
X22518Y628373D01*
X22405Y628322D01*
X22289Y628278D01*
X22076Y628171D01*
X21870Y628076D01*
X21770Y628016D01*
X21663Y627962D01*
X18613Y626201D01*
X18510Y626133D01*
X18401Y626073D01*
X18211Y625938D01*
X18017Y625811D01*
X17922Y625732D01*
X17821Y625660D01*
X17643Y625501D01*
X17469Y625356D01*
X17387Y625272D01*
X17298Y625192D01*
X16283Y624176D01*
X15033Y622927D01*
X15032Y622926D01*
X15031Y622925D01*
X14798Y622663D01*
X14559Y622396D01*
X14558Y622395D01*
X14557Y622394D01*
X14335Y622081D01*
X14146Y621815D01*
X14146Y621814D01*
X14145Y621812D01*
X13966Y621489D01*
X13802Y621191D01*
X13801Y621190D01*
X13801Y621189D01*
X13656Y620839D01*
X13529Y620533D01*
X13529Y620532D01*
X13528Y620530D01*
X13426Y620173D01*
X13332Y619848D01*
X13332Y619847D01*
X13332Y619846D01*
X13272Y619495D01*
X13213Y619146D01*
X13213Y619144D01*
X13213Y619143D01*
X13193Y618787D01*
X13174Y618435D01*
X13174Y618433D01*
X13174Y618432D01*
X13193Y618086D01*
X13214Y617723D01*
X13214Y617722D01*
X13214Y617721D01*
X13270Y617397D01*
X13334Y617021D01*
X13334Y617020D01*
X13334Y617018D01*
X13428Y616695D01*
X13531Y616337D01*
X13532Y616335D01*
X13532Y616334D01*
X13671Y616000D01*
X13804Y615679D01*
X13805Y615677D01*
X13806Y615676D01*
X13988Y615347D01*
X14149Y615055D01*
X14150Y615054D01*
X14151Y615053D01*
X14360Y614759D01*
X14562Y614475D01*
X14563Y614474D01*
X14564Y614472D01*
X14793Y614216D01*
X15037Y613944D01*
X15038Y613943D01*
X15039Y613942D01*
X15315Y613696D01*
X15569Y613470D01*
X15570Y613469D01*
X15571Y613468D01*
X15875Y613253D01*
X16150Y613058D01*
X16152Y613057D01*
X16153Y613056D01*
X16472Y612881D01*
X16774Y612714D01*
X16776Y612713D01*
X16777Y612713D01*
X17077Y612589D01*
X17433Y612442D01*
X17434Y612442D01*
X17436Y612441D01*
X17744Y612353D01*
X18118Y612246D01*
X18119Y612245D01*
X18120Y612245D01*
X18484Y612184D01*
X18820Y612127D01*
X18821Y612127D01*
X18823Y612127D01*
X19523Y612088D01*
X44685Y612088D01*
X45421Y611784D01*
X45984Y611221D01*
X46288Y610485D01*
X46288Y581115D01*
X45984Y580379D01*
X45421Y579816D01*
X44685Y579512D01*
X16510Y579512D01*
X16507Y579512D01*
X16504Y579512D01*
X16157Y579492D01*
X15799Y579472D01*
X15796Y579471D01*
X15793Y579471D01*
X15453Y579413D01*
X15096Y579352D01*
X15094Y579352D01*
X15091Y579351D01*
X14746Y579251D01*
X14412Y579155D01*
X14409Y579154D01*
X14406Y579153D01*
X14082Y579018D01*
X13754Y578882D01*
X13751Y578881D01*
X13749Y578880D01*
X13437Y578707D01*
X13130Y578537D01*
X13128Y578536D01*
X13125Y578534D01*
X12828Y578323D01*
X12549Y578125D01*
X12547Y578123D01*
X12545Y578121D01*
X12277Y577881D01*
X12018Y577650D01*
X12016Y577648D01*
X12014Y577646D01*
X11776Y577378D01*
X11544Y577119D01*
X11542Y577116D01*
X11540Y577114D01*
X11342Y576834D01*
X11132Y576537D01*
X11130Y576535D01*
X11129Y576533D01*
X10963Y576232D01*
X10788Y575914D01*
X10787Y575911D01*
X10785Y575909D01*
X10654Y575590D01*
X10516Y575255D01*
X10515Y575252D01*
X10514Y575250D01*
X10418Y574917D01*
X10319Y574571D01*
X10318Y574568D01*
X10318Y574565D01*
X10258Y574211D01*
X10200Y573868D01*
X10200Y573865D01*
X10199Y573862D01*
X10161Y573163D01*
X10161Y567637D01*
X10161Y567635D01*
X10161Y567632D01*
X10181Y567275D01*
X10201Y566926D01*
X10201Y566923D01*
X10201Y566921D01*
X10262Y566566D01*
X10320Y566224D01*
X10321Y566221D01*
X10321Y566218D01*
X10422Y565872D01*
X10517Y565539D01*
X10519Y565537D01*
X10519Y565534D01*
X10658Y565200D01*
X10790Y564881D01*
X10792Y564879D01*
X10793Y564876D01*
X10969Y564558D01*
X11135Y564258D01*
X11137Y564256D01*
X11138Y564253D01*
X11351Y563954D01*
X11547Y563677D01*
X11549Y563675D01*
X11551Y563672D01*
X11796Y563399D01*
X12022Y563146D01*
X12025Y563144D01*
X12026Y563142D01*
X12300Y562898D01*
X12554Y562671D01*
X12556Y562670D01*
X12558Y562668D01*
X12850Y562462D01*
X13135Y562259D01*
X13138Y562258D01*
X13140Y562256D01*
X13436Y562093D01*
X13759Y561915D01*
X13762Y561914D01*
X13764Y561913D01*
X14082Y561781D01*
X14417Y561643D01*
X14420Y561642D01*
X14423Y561641D01*
X14752Y561547D01*
X15102Y561446D01*
X15105Y561446D01*
X15107Y561445D01*
X15461Y561386D01*
X15804Y561328D01*
X15807Y561327D01*
X15810Y561327D01*
X16510Y561288D01*
X44685Y561288D01*
X45421Y560984D01*
X45984Y560421D01*
X46288Y559685D01*
X46288Y530315D01*
X45984Y529579D01*
X45421Y529016D01*
X44685Y528712D01*
X16510Y528712D01*
X16507Y528712D01*
X16504Y528712D01*
X16157Y528692D01*
X15799Y528672D01*
X15796Y528671D01*
X15793Y528671D01*
X15453Y528613D01*
X15096Y528552D01*
X15094Y528552D01*
X15091Y528551D01*
X14746Y528451D01*
X14412Y528355D01*
X14409Y528354D01*
X14406Y528353D01*
X14082Y528218D01*
X13754Y528082D01*
X13751Y528081D01*
X13749Y528080D01*
X13437Y527907D01*
X13130Y527737D01*
X13128Y527736D01*
X13125Y527734D01*
X12828Y527523D01*
X12549Y527325D01*
X12547Y527323D01*
X12545Y527321D01*
X12266Y527071D01*
X12018Y526850D01*
X12016Y526848D01*
X12014Y526846D01*
X11767Y526569D01*
X11544Y526319D01*
X11542Y526316D01*
X11540Y526314D01*
X11341Y526033D01*
X11132Y525737D01*
X11130Y525735D01*
X11129Y525733D01*
X10963Y525432D01*
X10788Y525114D01*
X10787Y525111D01*
X10785Y525109D01*
X10653Y524787D01*
X10516Y524455D01*
X10515Y524452D01*
X10514Y524450D01*
X10418Y524117D01*
X10319Y523771D01*
X10318Y523768D01*
X10318Y523765D01*
X10258Y523411D01*
X10200Y523068D01*
X10200Y523065D01*
X10199Y523062D01*
X10161Y522363D01*
X10161Y323336D01*
X10171Y323156D01*
X10171Y322976D01*
X10191Y322801D01*
X10201Y322625D01*
X10231Y322447D01*
X10251Y322268D01*
X10291Y322096D01*
X10320Y321923D01*
X10370Y321749D01*
X10410Y321573D01*
X10469Y321407D01*
X10517Y321238D01*
X10587Y321071D01*
X10646Y320901D01*
X10723Y320743D01*
X10790Y320580D01*
X10878Y320422D01*
X10956Y320259D01*
X11050Y320110D01*
X11135Y319956D01*
X11239Y319809D01*
X11336Y319657D01*
X11446Y319519D01*
X11547Y319376D01*
X11668Y319241D01*
X11780Y319100D01*
X11905Y318976D01*
X12022Y318845D01*
X12157Y318724D01*
X12285Y318597D01*
X12422Y318487D01*
X12554Y318370D01*
X12701Y318266D01*
X12842Y318153D01*
X12991Y318060D01*
X13135Y317958D01*
X13293Y317871D01*
X13446Y317775D01*
X13605Y317699D01*
X13759Y317614D01*
X13925Y317545D01*
X14088Y317467D01*
X14255Y317409D01*
X14417Y317342D01*
X14591Y317292D01*
X14761Y317233D01*
X14933Y317194D01*
X15102Y317145D01*
X15280Y317115D01*
X15456Y317075D01*
X15631Y317056D01*
X15804Y317026D01*
X15984Y317016D01*
X16164Y316996D01*
X16340Y316997D01*
X16516Y316987D01*
X16696Y316997D01*
X16876Y316997D01*
X17051Y317017D01*
X17227Y317028D01*
X17404Y317058D01*
X17584Y317078D01*
X17756Y317118D01*
X17929Y317148D01*
X18102Y317198D01*
X18278Y317238D01*
X18447Y317297D01*
X18614Y317345D01*
X18772Y317411D01*
X18940Y317470D01*
X19014Y317501D01*
X23987Y317501D01*
X28581Y315598D01*
X32098Y312081D01*
X34001Y307487D01*
X34001Y302513D01*
X32098Y297919D01*
X28581Y294402D01*
X23987Y292499D01*
X19014Y292499D01*
X18940Y292530D01*
X18769Y292589D01*
X18603Y292658D01*
X18433Y292707D01*
X18267Y292765D01*
X18092Y292805D01*
X17918Y292855D01*
X17744Y292884D01*
X17573Y292924D01*
X17394Y292944D01*
X17216Y292974D01*
X17040Y292983D01*
X16865Y293003D01*
X16685Y293003D01*
X16504Y293013D01*
X16329Y293003D01*
X16152Y293003D01*
X15973Y292983D01*
X15793Y292972D01*
X15620Y292943D01*
X15444Y292923D01*
X15268Y292883D01*
X15091Y292852D01*
X14922Y292804D01*
X14750Y292764D01*
X14580Y292705D01*
X14406Y292655D01*
X14244Y292587D01*
X14078Y292529D01*
X13915Y292450D01*
X13749Y292381D01*
X13595Y292296D01*
X13436Y292219D01*
X13283Y292123D01*
X13125Y292036D01*
X12982Y291934D01*
X12833Y291840D01*
X12692Y291727D01*
X12545Y291623D01*
X12414Y291506D01*
X12276Y291395D01*
X12149Y291268D01*
X12014Y291147D01*
X11897Y291016D01*
X11773Y290891D01*
X11660Y290750D01*
X11540Y290616D01*
X11439Y290472D01*
X11329Y290334D01*
X11233Y290181D01*
X11129Y290034D01*
X11044Y289880D01*
X10950Y289731D01*
X10872Y289568D01*
X10785Y289410D01*
X10718Y289247D01*
X10642Y289088D01*
X10582Y288918D01*
X10514Y288751D01*
X10465Y288582D01*
X10407Y288416D01*
X10367Y288240D01*
X10318Y288066D01*
X10288Y287893D01*
X10249Y287721D01*
X10229Y287542D01*
X10199Y287364D01*
X10190Y287185D01*
X10170Y287013D01*
X10171Y286841D01*
X10161Y286664D01*
X10161Y270039D01*
X10171Y269860D01*
X10171Y269681D01*
X10191Y269505D01*
X10201Y269327D01*
X10231Y269151D01*
X10251Y268973D01*
X10290Y268800D01*
X10320Y268625D01*
X10370Y268453D01*
X10410Y268278D01*
X10468Y268111D01*
X10517Y267940D01*
X10586Y267775D01*
X10645Y267606D01*
X10722Y267446D01*
X10790Y267282D01*
X10877Y267126D01*
X10955Y266964D01*
X11049Y266814D01*
X11135Y266659D01*
X11239Y266513D01*
X11334Y266361D01*
X11445Y266223D01*
X11547Y266078D01*
X11667Y265945D01*
X11778Y265805D01*
X11904Y265679D01*
X12022Y265547D01*
X12156Y265428D01*
X12283Y265301D01*
X12421Y265191D01*
X12554Y265072D01*
X12656Y265000D01*
X12545Y264920D01*
X12413Y264802D01*
X12274Y264691D01*
X12148Y264565D01*
X12014Y264445D01*
X11896Y264312D01*
X11771Y264187D01*
X11660Y264047D01*
X11540Y263913D01*
X11438Y263768D01*
X11327Y263629D01*
X11232Y263478D01*
X11129Y263331D01*
X11043Y263176D01*
X10949Y263026D01*
X10872Y262864D01*
X10785Y262707D01*
X10718Y262543D01*
X10641Y262383D01*
X10582Y262214D01*
X10514Y262049D01*
X10465Y261878D01*
X10406Y261711D01*
X10367Y261536D01*
X10318Y261364D01*
X10288Y261189D01*
X10249Y261016D01*
X10229Y260838D01*
X10199Y260661D01*
X10189Y260481D01*
X10170Y260308D01*
X10170Y260137D01*
X10161Y259961D01*
X10161Y202290D01*
X10161Y202287D01*
X10161Y202284D01*
X10181Y201926D01*
X10201Y201579D01*
X10201Y201576D01*
X10201Y201573D01*
X10264Y201204D01*
X10320Y200876D01*
X10321Y200874D01*
X10321Y200871D01*
X10421Y200526D01*
X10517Y200192D01*
X10519Y200189D01*
X10519Y200186D01*
X10654Y199862D01*
X10790Y199534D01*
X10792Y199531D01*
X10793Y199529D01*
X10971Y199207D01*
X11135Y198910D01*
X11137Y198908D01*
X11138Y198905D01*
X11349Y198608D01*
X11547Y198329D01*
X11549Y198327D01*
X11551Y198325D01*
X11800Y198047D01*
X12022Y197798D01*
X12025Y197796D01*
X12026Y197794D01*
X12294Y197556D01*
X12554Y197324D01*
X12556Y197322D01*
X12558Y197320D01*
X12839Y197122D01*
X13135Y196912D01*
X13138Y196910D01*
X13140Y196909D01*
X13436Y196746D01*
X13759Y196568D01*
X13762Y196567D01*
X13764Y196565D01*
X14082Y196434D01*
X14417Y196296D01*
X14420Y196295D01*
X14423Y196294D01*
X14752Y196199D01*
X15102Y196099D01*
X15105Y196098D01*
X15107Y196098D01*
X15461Y196038D01*
X15804Y195980D01*
X15807Y195980D01*
X15810Y195979D01*
X16510Y195941D01*
X19651Y195941D01*
X19651Y182900D01*
X19651Y169859D01*
X16510Y169859D01*
X16507Y169859D01*
X16504Y169859D01*
X16157Y169839D01*
X15799Y169819D01*
X15796Y169819D01*
X15793Y169819D01*
X15451Y169760D01*
X15096Y169700D01*
X15094Y169699D01*
X15091Y169699D01*
X14746Y169599D01*
X14412Y169503D01*
X14409Y169501D01*
X14406Y169501D01*
X14082Y169366D01*
X13754Y169230D01*
X13751Y169228D01*
X13749Y169227D01*
X13431Y169051D01*
X13130Y168885D01*
X13128Y168883D01*
X13125Y168882D01*
X12828Y168671D01*
X12549Y168473D01*
X12547Y168471D01*
X12545Y168469D01*
X12277Y168229D01*
X12018Y167998D01*
X12016Y167995D01*
X12014Y167994D01*
X11773Y167722D01*
X11544Y167466D01*
X11542Y167464D01*
X11540Y167462D01*
X11342Y167181D01*
X11132Y166885D01*
X11130Y166882D01*
X11129Y166880D01*
X10956Y166567D01*
X10788Y166261D01*
X10787Y166258D01*
X10785Y166256D01*
X10650Y165927D01*
X10516Y165603D01*
X10515Y165600D01*
X10514Y165597D01*
X10419Y165267D01*
X10319Y164918D01*
X10318Y164915D01*
X10318Y164913D01*
X10258Y164559D01*
X10200Y164216D01*
X10200Y164213D01*
X10199Y164210D01*
X10161Y163510D01*
X10161Y147290D01*
X10161Y147287D01*
X10161Y147284D01*
X10181Y146926D01*
X10201Y146579D01*
X10201Y146576D01*
X10201Y146573D01*
X10264Y146204D01*
X10320Y145876D01*
X10321Y145874D01*
X10321Y145871D01*
X10424Y145515D01*
X10517Y145192D01*
X10519Y145189D01*
X10519Y145186D01*
X10654Y144862D01*
X10790Y144534D01*
X10792Y144531D01*
X10793Y144529D01*
X10971Y144207D01*
X11135Y143910D01*
X11137Y143908D01*
X11138Y143905D01*
X11349Y143608D01*
X11547Y143329D01*
X11549Y143327D01*
X11551Y143325D01*
X11800Y143047D01*
X12022Y142798D01*
X12025Y142796D01*
X12026Y142794D01*
X12301Y142549D01*
X12554Y142324D01*
X12556Y142322D01*
X12558Y142320D01*
X12848Y142115D01*
X13135Y141912D01*
X13138Y141910D01*
X13140Y141909D01*
X13436Y141746D01*
X13759Y141568D01*
X13762Y141567D01*
X13764Y141565D01*
X14082Y141434D01*
X14417Y141296D01*
X14420Y141295D01*
X14423Y141294D01*
X14752Y141199D01*
X15102Y141099D01*
X15105Y141098D01*
X15107Y141098D01*
X15461Y141038D01*
X15804Y140980D01*
X15807Y140980D01*
X15810Y140979D01*
X16510Y140941D01*
X19651Y140941D01*
X19651Y127900D01*
X19651Y114859D01*
X16510Y114859D01*
X16507Y114859D01*
X16504Y114859D01*
X16157Y114839D01*
X15799Y114819D01*
X15796Y114819D01*
X15793Y114819D01*
X15451Y114760D01*
X15096Y114700D01*
X15094Y114699D01*
X15091Y114699D01*
X14746Y114599D01*
X14412Y114503D01*
X14409Y114501D01*
X14406Y114501D01*
X14082Y114366D01*
X13754Y114230D01*
X13751Y114228D01*
X13749Y114227D01*
X13437Y114055D01*
X13130Y113885D01*
X13128Y113883D01*
X13125Y113882D01*
X12826Y113669D01*
X12549Y113473D01*
X12547Y113471D01*
X12545Y113469D01*
X12277Y113229D01*
X12018Y112998D01*
X12016Y112995D01*
X12014Y112994D01*
X11768Y112717D01*
X11544Y112466D01*
X11542Y112464D01*
X11540Y112462D01*
X11342Y112181D01*
X11132Y111885D01*
X11130Y111882D01*
X11129Y111880D01*
X10966Y111584D01*
X10788Y111261D01*
X10787Y111258D01*
X10785Y111256D01*
X10650Y110927D01*
X10516Y110603D01*
X10515Y110600D01*
X10514Y110597D01*
X10417Y110261D01*
X10319Y109918D01*
X10318Y109915D01*
X10318Y109913D01*
X10257Y109555D01*
X10200Y109216D01*
X10200Y109213D01*
X10199Y109210D01*
X10161Y108510D01*
X10161Y84979D01*
X10168Y84858D01*
X10165Y84736D01*
X10188Y84502D01*
X10201Y84267D01*
X10221Y84148D01*
X10232Y84027D01*
X10281Y83797D01*
X10320Y83565D01*
X10354Y83449D01*
X10379Y83330D01*
X10452Y83106D01*
X10517Y82881D01*
X10564Y82769D01*
X10602Y82653D01*
X10700Y82440D01*
X10790Y82222D01*
X10849Y82116D01*
X10900Y82006D01*
X11021Y81805D01*
X11135Y81599D01*
X11205Y81500D01*
X11268Y81396D01*
X11412Y81209D01*
X11547Y81018D01*
X11628Y80928D01*
X11702Y80832D01*
X11866Y80662D01*
X12022Y80487D01*
X12113Y80406D01*
X12197Y80319D01*
X12378Y80169D01*
X12554Y80013D01*
X12653Y79942D01*
X12746Y79865D01*
X12943Y79737D01*
X13135Y79601D01*
X13241Y79542D01*
X13343Y79476D01*
X13553Y79370D01*
X13759Y79256D01*
X13871Y79210D01*
X13979Y79156D01*
X14200Y79074D01*
X14417Y78984D01*
X14534Y78951D01*
X14647Y78909D01*
X14876Y78852D01*
X15102Y78788D01*
X15221Y78767D01*
X15339Y78738D01*
X15573Y78708D01*
X15804Y78669D01*
X15925Y78662D01*
X16046Y78646D01*
X16281Y78642D01*
X16516Y78629D01*
X16637Y78636D01*
X16758Y78634D01*
X16992Y78657D01*
X17227Y78670D01*
X17346Y78690D01*
X17467Y78702D01*
X17703Y78752D01*
X17929Y78790D01*
X18039Y78822D01*
X18153Y78846D01*
X22688Y80061D01*
X29312Y80061D01*
X35712Y78346D01*
X41449Y75034D01*
X46134Y70349D01*
X49446Y64612D01*
X51161Y58212D01*
X51161Y51588D01*
X49446Y45188D01*
X46134Y39451D01*
X41449Y34766D01*
X35712Y31454D01*
X29312Y29739D01*
X22688Y29739D01*
X19379Y30626D01*
X19378Y30626D01*
X19376Y30626D01*
X19045Y30696D01*
X18682Y30771D01*
X18680Y30771D01*
X18679Y30772D01*
X18364Y30801D01*
X17972Y30838D01*
X17971Y30838D01*
X17970Y30838D01*
X17632Y30831D01*
X17260Y30824D01*
X17259Y30824D01*
X17257Y30824D01*
X16904Y30777D01*
X16554Y30731D01*
X16553Y30731D01*
X16551Y30731D01*
X16199Y30643D01*
X15862Y30559D01*
X15861Y30559D01*
X15860Y30559D01*
X15529Y30436D01*
X15195Y30311D01*
X15193Y30311D01*
X15192Y30310D01*
X14881Y30153D01*
X14559Y29990D01*
X14558Y29989D01*
X14556Y29989D01*
X14276Y29805D01*
X13963Y29599D01*
X13962Y29599D01*
X13961Y29598D01*
X13706Y29386D01*
X13415Y29145D01*
X13414Y29144D01*
X13413Y29143D01*
X13166Y28886D01*
X12921Y28631D01*
X12920Y28630D01*
X12919Y28629D01*
X12704Y28348D01*
X12487Y28066D01*
X12487Y28064D01*
X12486Y28063D01*
X12310Y27770D01*
X12120Y27455D01*
X12120Y27454D01*
X12119Y27453D01*
X11960Y27105D01*
X11824Y26808D01*
X11823Y26806D01*
X11823Y26805D01*
X11702Y26437D01*
X11602Y26131D01*
X11601Y26129D01*
X11601Y26128D01*
X11529Y25780D01*
X11457Y25433D01*
X11456Y25431D01*
X11456Y25430D01*
X11423Y25070D01*
X11391Y24724D01*
X11391Y24722D01*
X11391Y24721D01*
X11399Y24312D01*
X11405Y24011D01*
X11405Y24010D01*
X11405Y24009D01*
X11459Y23603D01*
X11499Y23305D01*
X11499Y23304D01*
X11499Y23302D01*
X11600Y22899D01*
X11671Y22614D01*
X11671Y22613D01*
X11672Y22611D01*
X11809Y22244D01*
X11920Y21946D01*
X11920Y21945D01*
X11921Y21944D01*
X12237Y21318D01*
X13799Y18613D01*
X13867Y18509D01*
X13927Y18401D01*
X14062Y18212D01*
X14189Y18017D01*
X14269Y17922D01*
X14340Y17820D01*
X14499Y17643D01*
X14644Y17469D01*
X14728Y17387D01*
X14808Y17298D01*
X17298Y14808D01*
X17391Y14725D01*
X17477Y14636D01*
X17656Y14488D01*
X17829Y14333D01*
X17931Y14261D01*
X18026Y14182D01*
X18225Y14052D01*
X18410Y13921D01*
X18513Y13865D01*
X18613Y13799D01*
X21663Y12038D01*
X21774Y11982D01*
X21880Y11918D01*
X22092Y11822D01*
X22299Y11717D01*
X22415Y11674D01*
X22528Y11622D01*
X22754Y11548D01*
X22967Y11469D01*
X23080Y11441D01*
X23194Y11404D01*
X26596Y10492D01*
X26864Y10437D01*
X27128Y10374D01*
X27212Y10364D01*
X27293Y10347D01*
X27551Y10323D01*
X27824Y10290D01*
X29585Y10174D01*
X29788Y10172D01*
X30000Y10161D01*
X895000Y10161D01*
X895003Y10161D01*
G37*
G36*
X1580003Y83651D02*
X1580003Y83651D01*
X1580006Y83651D01*
X1580353Y83671D01*
X1580711Y83691D01*
X1580714Y83691D01*
X1580717Y83691D01*
X1581057Y83750D01*
X1581414Y83810D01*
X1581416Y83811D01*
X1581419Y83811D01*
X1581764Y83911D01*
X1582098Y84007D01*
X1582101Y84009D01*
X1582104Y84009D01*
X1582428Y84144D01*
X1582756Y84280D01*
X1582759Y84282D01*
X1582761Y84283D01*
X1583073Y84455D01*
X1583380Y84625D01*
X1583382Y84627D01*
X1583385Y84628D01*
X1583682Y84839D01*
X1583961Y85038D01*
X1583963Y85039D01*
X1583965Y85041D01*
X1584233Y85281D01*
X1584492Y85512D01*
X1584494Y85515D01*
X1584496Y85516D01*
X1584734Y85784D01*
X1584966Y86044D01*
X1584968Y86046D01*
X1584970Y86048D01*
X1585168Y86329D01*
X1585378Y86625D01*
X1585380Y86628D01*
X1585381Y86630D01*
X1585544Y86926D01*
X1585722Y87249D01*
X1585723Y87252D01*
X1585725Y87254D01*
X1585856Y87572D01*
X1585994Y87907D01*
X1585995Y87910D01*
X1585996Y87913D01*
X1586091Y88242D01*
X1586191Y88592D01*
X1586192Y88595D01*
X1586192Y88598D01*
X1586252Y88951D01*
X1586310Y89294D01*
X1586310Y89297D01*
X1586311Y89300D01*
X1586349Y90000D01*
X1586349Y108634D01*
X1586334Y108904D01*
X1586326Y109173D01*
X1586314Y109259D01*
X1586309Y109346D01*
X1586264Y109612D01*
X1586226Y109879D01*
X1586204Y109962D01*
X1586190Y110048D01*
X1586115Y110307D01*
X1586048Y110568D01*
X1586016Y110649D01*
X1585993Y110732D01*
X1585889Y110981D01*
X1585793Y111234D01*
X1585753Y111310D01*
X1585720Y111391D01*
X1585589Y111627D01*
X1585465Y111866D01*
X1585417Y111938D01*
X1585375Y112014D01*
X1585219Y112234D01*
X1585069Y112458D01*
X1585013Y112524D01*
X1584963Y112595D01*
X1584783Y112796D01*
X1584608Y113002D01*
X1584545Y113061D01*
X1584488Y113126D01*
X1584286Y113305D01*
X1584090Y113491D01*
X1584021Y113543D01*
X1583956Y113600D01*
X1583736Y113756D01*
X1583520Y113918D01*
X1583446Y113962D01*
X1583375Y114012D01*
X1583138Y114143D01*
X1582906Y114279D01*
X1582827Y114315D01*
X1582751Y114356D01*
X1582502Y114460D01*
X1582255Y114569D01*
X1582173Y114596D01*
X1582093Y114629D01*
X1581833Y114703D01*
X1581576Y114785D01*
X1581492Y114801D01*
X1581408Y114825D01*
X1581142Y114870D01*
X1580877Y114923D01*
X1580791Y114930D01*
X1580706Y114944D01*
X1580436Y114959D01*
X1580167Y114981D01*
X1580081Y114979D01*
X1579994Y114983D01*
X1579725Y114968D01*
X1579455Y114960D01*
X1579368Y114948D01*
X1579283Y114943D01*
X1579032Y114900D01*
X1578761Y114861D01*
X1578750Y114859D01*
X1574349Y114859D01*
X1574349Y127900D01*
X1574349Y140941D01*
X1578750Y140941D01*
X1578761Y140939D01*
X1579029Y140901D01*
X1579294Y140856D01*
X1579381Y140851D01*
X1579467Y140839D01*
X1579736Y140831D01*
X1580006Y140817D01*
X1580092Y140821D01*
X1580179Y140819D01*
X1580447Y140842D01*
X1580717Y140857D01*
X1580802Y140872D01*
X1580889Y140879D01*
X1581153Y140932D01*
X1581419Y140977D01*
X1581502Y141001D01*
X1581587Y141018D01*
X1581845Y141100D01*
X1582104Y141175D01*
X1582183Y141208D01*
X1582266Y141235D01*
X1582512Y141345D01*
X1582761Y141448D01*
X1582837Y141491D01*
X1582916Y141526D01*
X1583148Y141663D01*
X1583385Y141794D01*
X1583455Y141844D01*
X1583530Y141888D01*
X1583745Y142051D01*
X1583965Y142207D01*
X1584029Y142265D01*
X1584099Y142317D01*
X1584295Y142502D01*
X1584496Y142682D01*
X1584553Y142747D01*
X1584616Y142806D01*
X1584790Y143013D01*
X1584970Y143214D01*
X1585020Y143285D01*
X1585075Y143351D01*
X1585225Y143575D01*
X1585381Y143796D01*
X1585423Y143872D01*
X1585471Y143944D01*
X1585595Y144183D01*
X1585725Y144420D01*
X1585758Y144500D01*
X1585797Y144577D01*
X1585894Y144830D01*
X1585996Y145078D01*
X1586020Y145162D01*
X1586051Y145243D01*
X1586118Y145504D01*
X1586192Y145763D01*
X1586207Y145849D01*
X1586228Y145933D01*
X1586266Y146200D01*
X1586311Y146466D01*
X1586315Y146553D01*
X1586327Y146638D01*
X1586334Y146893D01*
X1586349Y147166D01*
X1586349Y163634D01*
X1586334Y163904D01*
X1586326Y164173D01*
X1586314Y164259D01*
X1586309Y164346D01*
X1586264Y164612D01*
X1586226Y164879D01*
X1586204Y164962D01*
X1586190Y165048D01*
X1586115Y165307D01*
X1586048Y165568D01*
X1586016Y165649D01*
X1585993Y165732D01*
X1585889Y165981D01*
X1585793Y166234D01*
X1585753Y166310D01*
X1585720Y166391D01*
X1585589Y166627D01*
X1585465Y166866D01*
X1585417Y166938D01*
X1585375Y167014D01*
X1585219Y167234D01*
X1585069Y167458D01*
X1585013Y167524D01*
X1584963Y167595D01*
X1584783Y167796D01*
X1584608Y168002D01*
X1584545Y168061D01*
X1584488Y168126D01*
X1584286Y168305D01*
X1584090Y168491D01*
X1584021Y168543D01*
X1583956Y168600D01*
X1583736Y168756D01*
X1583520Y168918D01*
X1583446Y168962D01*
X1583375Y169012D01*
X1583138Y169143D01*
X1582906Y169279D01*
X1582827Y169315D01*
X1582751Y169356D01*
X1582502Y169460D01*
X1582255Y169569D01*
X1582173Y169596D01*
X1582093Y169629D01*
X1581833Y169703D01*
X1581576Y169785D01*
X1581492Y169801D01*
X1581408Y169825D01*
X1581142Y169870D01*
X1580877Y169923D01*
X1580791Y169930D01*
X1580706Y169944D01*
X1580436Y169959D01*
X1580167Y169981D01*
X1580081Y169979D01*
X1579994Y169983D01*
X1579725Y169968D01*
X1579455Y169960D01*
X1579368Y169948D01*
X1579283Y169943D01*
X1579032Y169900D01*
X1578761Y169861D01*
X1578750Y169859D01*
X1574349Y169859D01*
X1574349Y182900D01*
X1574349Y182903D01*
X1574349Y182905D01*
X1574330Y183253D01*
X1574309Y183611D01*
X1574309Y183614D01*
X1574309Y183617D01*
X1574251Y183957D01*
X1574190Y184313D01*
X1574189Y184316D01*
X1574189Y184319D01*
X1574089Y184664D01*
X1573993Y184998D01*
X1573992Y185000D01*
X1573991Y185003D01*
X1573856Y185327D01*
X1573720Y185656D01*
X1573718Y185659D01*
X1573717Y185661D01*
X1573554Y185956D01*
X1573375Y186279D01*
X1573374Y186282D01*
X1573372Y186284D01*
X1573161Y186581D01*
X1572963Y186860D01*
X1572961Y186862D01*
X1572959Y186865D01*
X1572719Y187133D01*
X1572488Y187391D01*
X1572487Y187392D01*
X1572485Y187393D01*
X1572484Y187395D01*
X1572483Y187395D01*
X1572483Y187396D01*
X1572216Y187634D01*
X1571956Y187866D01*
X1571953Y187868D01*
X1571951Y187870D01*
X1571671Y188068D01*
X1571375Y188278D01*
X1571372Y188280D01*
X1571370Y188281D01*
X1571073Y188444D01*
X1570751Y188622D01*
X1570748Y188624D01*
X1570746Y188625D01*
X1570427Y188756D01*
X1570092Y188895D01*
X1570090Y188895D01*
X1570087Y188896D01*
X1569758Y188991D01*
X1569408Y189091D01*
X1569405Y189092D01*
X1569402Y189093D01*
X1569048Y189152D01*
X1568705Y189210D01*
X1568703Y189210D01*
X1568700Y189211D01*
X1568000Y189249D01*
X1554959Y189249D01*
X1554959Y193650D01*
X1555057Y194141D01*
X1555248Y194604D01*
X1555527Y195020D01*
X1556017Y195510D01*
X1556018Y195511D01*
X1556019Y195512D01*
X1556249Y195770D01*
X1556492Y196042D01*
X1556493Y196043D01*
X1556494Y196044D01*
X1556682Y196309D01*
X1556904Y196623D01*
X1556905Y196624D01*
X1556906Y196625D01*
X1557092Y196963D01*
X1557249Y197246D01*
X1557249Y197247D01*
X1557250Y197249D01*
X1557387Y197581D01*
X1557521Y197905D01*
X1557522Y197906D01*
X1557522Y197907D01*
X1557623Y198259D01*
X1557718Y198589D01*
X1557718Y198590D01*
X1557719Y198592D01*
X1557775Y198926D01*
X1557837Y199292D01*
X1557837Y199293D01*
X1557838Y199294D01*
X1557856Y199634D01*
X1557877Y200003D01*
X1557877Y200004D01*
X1557877Y200006D01*
X1557858Y200339D01*
X1557837Y200714D01*
X1557836Y200716D01*
X1557836Y200717D01*
X1557788Y200998D01*
X1557717Y201416D01*
X1557716Y201418D01*
X1557716Y201419D01*
X1557622Y201745D01*
X1557519Y202101D01*
X1557519Y202102D01*
X1557518Y202104D01*
X1557386Y202422D01*
X1557246Y202759D01*
X1557246Y202760D01*
X1557245Y202761D01*
X1557094Y203034D01*
X1556901Y203382D01*
X1556900Y203383D01*
X1556900Y203385D01*
X1556707Y203656D01*
X1556488Y203963D01*
X1556487Y203964D01*
X1556487Y203965D01*
X1556255Y204223D01*
X1556013Y204494D01*
X1556012Y204495D01*
X1556011Y204496D01*
X1555770Y204711D01*
X1555482Y204968D01*
X1555480Y204969D01*
X1555479Y204970D01*
X1555193Y205172D01*
X1554900Y205380D01*
X1554899Y205380D01*
X1554898Y205381D01*
X1554604Y205543D01*
X1554276Y205724D01*
X1554275Y205724D01*
X1554274Y205725D01*
X1553981Y205845D01*
X1553618Y205995D01*
X1553616Y205996D01*
X1553615Y205996D01*
X1553288Y206090D01*
X1552933Y206192D01*
X1552931Y206192D01*
X1552930Y206192D01*
X1552591Y206249D01*
X1552230Y206310D01*
X1552229Y206310D01*
X1552228Y206311D01*
X1551528Y206349D01*
X1542472Y206349D01*
X1542471Y206349D01*
X1542469Y206349D01*
X1542104Y206329D01*
X1541761Y206309D01*
X1541760Y206309D01*
X1541758Y206309D01*
X1541380Y206245D01*
X1541059Y206190D01*
X1541057Y206190D01*
X1541056Y206189D01*
X1540691Y206084D01*
X1540374Y205993D01*
X1540373Y205992D01*
X1540371Y205992D01*
X1540053Y205859D01*
X1539716Y205720D01*
X1539715Y205719D01*
X1539713Y205719D01*
X1539387Y205538D01*
X1539093Y205375D01*
X1539092Y205374D01*
X1539090Y205373D01*
X1538767Y205144D01*
X1538512Y204963D01*
X1538511Y204962D01*
X1538509Y204961D01*
X1538224Y204706D01*
X1537981Y204488D01*
X1537980Y204487D01*
X1537979Y204486D01*
X1537733Y204210D01*
X1537506Y203956D01*
X1537505Y203955D01*
X1537504Y203954D01*
X1537306Y203673D01*
X1537094Y203375D01*
X1537093Y203373D01*
X1537093Y203372D01*
X1536906Y203034D01*
X1536750Y202751D01*
X1536750Y202750D01*
X1536749Y202749D01*
X1536607Y202404D01*
X1536478Y202093D01*
X1536477Y202091D01*
X1536477Y202090D01*
X1536379Y201749D01*
X1536281Y201408D01*
X1536281Y201407D01*
X1536281Y201405D01*
X1536218Y201033D01*
X1536162Y200706D01*
X1536162Y200704D01*
X1536162Y200703D01*
X1536140Y200309D01*
X1536123Y199994D01*
X1536123Y199993D01*
X1536123Y199991D01*
X1536146Y199592D01*
X1536164Y199283D01*
X1536164Y199282D01*
X1536164Y199280D01*
X1536233Y198880D01*
X1536284Y198581D01*
X1536284Y198580D01*
X1536284Y198578D01*
X1536392Y198207D01*
X1536482Y197896D01*
X1536482Y197895D01*
X1536483Y197894D01*
X1536622Y197559D01*
X1536755Y197239D01*
X1536756Y197237D01*
X1536756Y197236D01*
X1536924Y196933D01*
X1537100Y196615D01*
X1537101Y196614D01*
X1537102Y196613D01*
X1537321Y196306D01*
X1537513Y196035D01*
X1537514Y196034D01*
X1537515Y196033D01*
X1537983Y195510D01*
X1538473Y195020D01*
X1538752Y194604D01*
X1538943Y194141D01*
X1539041Y193650D01*
X1539041Y189249D01*
X1526000Y189249D01*
X1512959Y189249D01*
X1512959Y193650D01*
X1513057Y194141D01*
X1513248Y194604D01*
X1513527Y195020D01*
X1514017Y195510D01*
X1514018Y195511D01*
X1514019Y195512D01*
X1514249Y195770D01*
X1514492Y196042D01*
X1514493Y196043D01*
X1514494Y196044D01*
X1514682Y196309D01*
X1514904Y196623D01*
X1514905Y196624D01*
X1514906Y196625D01*
X1515092Y196963D01*
X1515249Y197246D01*
X1515249Y197247D01*
X1515250Y197249D01*
X1515387Y197581D01*
X1515521Y197905D01*
X1515522Y197906D01*
X1515522Y197907D01*
X1515623Y198259D01*
X1515718Y198589D01*
X1515718Y198590D01*
X1515719Y198592D01*
X1515775Y198926D01*
X1515837Y199292D01*
X1515837Y199293D01*
X1515838Y199294D01*
X1515856Y199634D01*
X1515877Y200003D01*
X1515877Y200004D01*
X1515877Y200006D01*
X1515858Y200339D01*
X1515837Y200714D01*
X1515836Y200716D01*
X1515836Y200717D01*
X1515788Y200998D01*
X1515717Y201416D01*
X1515716Y201418D01*
X1515716Y201419D01*
X1515622Y201745D01*
X1515519Y202101D01*
X1515519Y202102D01*
X1515518Y202104D01*
X1515386Y202422D01*
X1515246Y202759D01*
X1515246Y202760D01*
X1515245Y202761D01*
X1515094Y203034D01*
X1514901Y203382D01*
X1514900Y203383D01*
X1514900Y203385D01*
X1514707Y203656D01*
X1514488Y203963D01*
X1514487Y203964D01*
X1514487Y203965D01*
X1514255Y204223D01*
X1514013Y204494D01*
X1514012Y204495D01*
X1514011Y204496D01*
X1513770Y204711D01*
X1513482Y204968D01*
X1513480Y204969D01*
X1513479Y204970D01*
X1513193Y205172D01*
X1512900Y205380D01*
X1512899Y205380D01*
X1512898Y205381D01*
X1512604Y205543D01*
X1512276Y205724D01*
X1512275Y205724D01*
X1512274Y205725D01*
X1511981Y205845D01*
X1511618Y205995D01*
X1511616Y205996D01*
X1511615Y205996D01*
X1511288Y206090D01*
X1510933Y206192D01*
X1510931Y206192D01*
X1510930Y206192D01*
X1510591Y206249D01*
X1510230Y206310D01*
X1510229Y206310D01*
X1510228Y206311D01*
X1509528Y206349D01*
X1470366Y206349D01*
X1470186Y206339D01*
X1470006Y206339D01*
X1469831Y206319D01*
X1469655Y206309D01*
X1469477Y206279D01*
X1469298Y206259D01*
X1469126Y206219D01*
X1468953Y206190D01*
X1468779Y206140D01*
X1468603Y206100D01*
X1468437Y206041D01*
X1468268Y205993D01*
X1468102Y205924D01*
X1467931Y205864D01*
X1467773Y205787D01*
X1467610Y205720D01*
X1467452Y205632D01*
X1467290Y205554D01*
X1467141Y205460D01*
X1466987Y205375D01*
X1466840Y205271D01*
X1466687Y205174D01*
X1466549Y205064D01*
X1466406Y204963D01*
X1466271Y204843D01*
X1466130Y204730D01*
X1466006Y204605D01*
X1465875Y204488D01*
X1465755Y204353D01*
X1465627Y204225D01*
X1465517Y204087D01*
X1465400Y203956D01*
X1465296Y203809D01*
X1465184Y203668D01*
X1465090Y203519D01*
X1464988Y203375D01*
X1464901Y203217D01*
X1464805Y203064D01*
X1464729Y202905D01*
X1464644Y202751D01*
X1464575Y202584D01*
X1464497Y202422D01*
X1464439Y202256D01*
X1464372Y202093D01*
X1464322Y201919D01*
X1464263Y201749D01*
X1464224Y201577D01*
X1464175Y201408D01*
X1464145Y201230D01*
X1464105Y201054D01*
X1464086Y200879D01*
X1464056Y200706D01*
X1464046Y200526D01*
X1464026Y200346D01*
X1464027Y200170D01*
X1464017Y199994D01*
X1464027Y199814D01*
X1464028Y199634D01*
X1464048Y199459D01*
X1464058Y199283D01*
X1464088Y199105D01*
X1464108Y198926D01*
X1464148Y198754D01*
X1464178Y198581D01*
X1464228Y198408D01*
X1464268Y198232D01*
X1464327Y198063D01*
X1464376Y197896D01*
X1464442Y197738D01*
X1464500Y197570D01*
X1464526Y197509D01*
X1464526Y172491D01*
X1462242Y166978D01*
X1458022Y162758D01*
X1452509Y160474D01*
X1427491Y160474D01*
X1421978Y162758D01*
X1417758Y166978D01*
X1415474Y172491D01*
X1415474Y197509D01*
X1415500Y197570D01*
X1415559Y197741D01*
X1415628Y197907D01*
X1415677Y198076D01*
X1415735Y198243D01*
X1415775Y198419D01*
X1415825Y198592D01*
X1415854Y198765D01*
X1415893Y198937D01*
X1415914Y199117D01*
X1415944Y199294D01*
X1415953Y199470D01*
X1415973Y199645D01*
X1415973Y199826D01*
X1415983Y200006D01*
X1415973Y200182D01*
X1415973Y200358D01*
X1415953Y200537D01*
X1415942Y200717D01*
X1415913Y200891D01*
X1415893Y201066D01*
X1415853Y201241D01*
X1415822Y201419D01*
X1415773Y201588D01*
X1415734Y201760D01*
X1415675Y201930D01*
X1415624Y202104D01*
X1415557Y202266D01*
X1415499Y202432D01*
X1415420Y202594D01*
X1415351Y202761D01*
X1415266Y202916D01*
X1415189Y203074D01*
X1415093Y203227D01*
X1415006Y203385D01*
X1414904Y203528D01*
X1414810Y203677D01*
X1414697Y203818D01*
X1414593Y203965D01*
X1414475Y204096D01*
X1414365Y204234D01*
X1414238Y204361D01*
X1414117Y204496D01*
X1413986Y204613D01*
X1413861Y204737D01*
X1413720Y204850D01*
X1413585Y204970D01*
X1413442Y205071D01*
X1413304Y205181D01*
X1413151Y205277D01*
X1413004Y205381D01*
X1412850Y205466D01*
X1412700Y205560D01*
X1412538Y205638D01*
X1412380Y205725D01*
X1412217Y205792D01*
X1412058Y205868D01*
X1411888Y205928D01*
X1411721Y205996D01*
X1411552Y206045D01*
X1411386Y206103D01*
X1411210Y206143D01*
X1411036Y206192D01*
X1410863Y206222D01*
X1410691Y206261D01*
X1410512Y206281D01*
X1410334Y206311D01*
X1410155Y206320D01*
X1409983Y206340D01*
X1409811Y206339D01*
X1409634Y206349D01*
X1267166Y206349D01*
X1266986Y206339D01*
X1266806Y206339D01*
X1266631Y206319D01*
X1266455Y206309D01*
X1266277Y206279D01*
X1266098Y206259D01*
X1265926Y206219D01*
X1265753Y206190D01*
X1265579Y206140D01*
X1265403Y206100D01*
X1265237Y206041D01*
X1265068Y205993D01*
X1264902Y205924D01*
X1264731Y205864D01*
X1264573Y205787D01*
X1264410Y205720D01*
X1264252Y205632D01*
X1264090Y205554D01*
X1263941Y205460D01*
X1263787Y205375D01*
X1263640Y205271D01*
X1263487Y205174D01*
X1263349Y205064D01*
X1263206Y204963D01*
X1263071Y204843D01*
X1262930Y204730D01*
X1262806Y204605D01*
X1262675Y204488D01*
X1262555Y204353D01*
X1262427Y204225D01*
X1262317Y204087D01*
X1262200Y203956D01*
X1262096Y203809D01*
X1261984Y203668D01*
X1261890Y203519D01*
X1261788Y203375D01*
X1261701Y203217D01*
X1261605Y203064D01*
X1261529Y202905D01*
X1261444Y202751D01*
X1261375Y202584D01*
X1261297Y202422D01*
X1261239Y202256D01*
X1261172Y202093D01*
X1261122Y201919D01*
X1261063Y201749D01*
X1261024Y201577D01*
X1260975Y201408D01*
X1260945Y201230D01*
X1260905Y201054D01*
X1260886Y200879D01*
X1260856Y200706D01*
X1260846Y200526D01*
X1260826Y200346D01*
X1260827Y200170D01*
X1260817Y199994D01*
X1260827Y199814D01*
X1260828Y199634D01*
X1260848Y199459D01*
X1260858Y199283D01*
X1260888Y199105D01*
X1260908Y198926D01*
X1260948Y198754D01*
X1260978Y198581D01*
X1261028Y198408D01*
X1261068Y198232D01*
X1261127Y198063D01*
X1261176Y197896D01*
X1261242Y197738D01*
X1261300Y197570D01*
X1261326Y197509D01*
X1261326Y172491D01*
X1259042Y166978D01*
X1254822Y162758D01*
X1249309Y160474D01*
X1224291Y160474D01*
X1218778Y162758D01*
X1214558Y166978D01*
X1212274Y172491D01*
X1212274Y197509D01*
X1212300Y197570D01*
X1212359Y197741D01*
X1212428Y197907D01*
X1212477Y198076D01*
X1212535Y198243D01*
X1212575Y198419D01*
X1212625Y198592D01*
X1212654Y198765D01*
X1212693Y198937D01*
X1212714Y199117D01*
X1212744Y199294D01*
X1212753Y199470D01*
X1212773Y199645D01*
X1212773Y199826D01*
X1212783Y200006D01*
X1212773Y200182D01*
X1212773Y200358D01*
X1212753Y200537D01*
X1212742Y200717D01*
X1212713Y200891D01*
X1212693Y201066D01*
X1212653Y201241D01*
X1212622Y201419D01*
X1212573Y201588D01*
X1212534Y201760D01*
X1212475Y201930D01*
X1212424Y202104D01*
X1212357Y202266D01*
X1212299Y202432D01*
X1212220Y202594D01*
X1212151Y202761D01*
X1212066Y202916D01*
X1211989Y203074D01*
X1211893Y203227D01*
X1211806Y203385D01*
X1211704Y203528D01*
X1211610Y203677D01*
X1211497Y203818D01*
X1211393Y203965D01*
X1211275Y204096D01*
X1211165Y204234D01*
X1211038Y204361D01*
X1210917Y204496D01*
X1210786Y204613D01*
X1210661Y204737D01*
X1210520Y204850D01*
X1210385Y204970D01*
X1210242Y205071D01*
X1210104Y205181D01*
X1209951Y205277D01*
X1209804Y205381D01*
X1209650Y205466D01*
X1209500Y205560D01*
X1209338Y205638D01*
X1209180Y205725D01*
X1209017Y205792D01*
X1208858Y205868D01*
X1208688Y205928D01*
X1208521Y205996D01*
X1208352Y206045D01*
X1208186Y206103D01*
X1208010Y206143D01*
X1207836Y206192D01*
X1207663Y206222D01*
X1207491Y206261D01*
X1207312Y206281D01*
X1207134Y206311D01*
X1206955Y206320D01*
X1206783Y206340D01*
X1206611Y206339D01*
X1206434Y206349D01*
X1122630Y206349D01*
X1056349Y272630D01*
X1056349Y368718D01*
X1056342Y368842D01*
X1056344Y368966D01*
X1056322Y369198D01*
X1056309Y369429D01*
X1056289Y369551D01*
X1056277Y369675D01*
X1056228Y369908D01*
X1056190Y370132D01*
X1056158Y370244D01*
X1056133Y370361D01*
X1054999Y374592D01*
X1054999Y383808D01*
X1056133Y388039D01*
X1056158Y388160D01*
X1056192Y388279D01*
X1056231Y388509D01*
X1056278Y388736D01*
X1056290Y388859D01*
X1056311Y388982D01*
X1056324Y389220D01*
X1056345Y389445D01*
X1056343Y389562D01*
X1056349Y389682D01*
X1056349Y400000D01*
X1056349Y400004D01*
X1056349Y400009D01*
X1056329Y400362D01*
X1056309Y400711D01*
X1056309Y400716D01*
X1056308Y400720D01*
X1056248Y401071D01*
X1056190Y401414D01*
X1056189Y401418D01*
X1056188Y401422D01*
X1056086Y401774D01*
X1055993Y402098D01*
X1055991Y402102D01*
X1055990Y402106D01*
X1055854Y402432D01*
X1055720Y402756D01*
X1055718Y402760D01*
X1055716Y402764D01*
X1055546Y403071D01*
X1055375Y403380D01*
X1055373Y403383D01*
X1055370Y403387D01*
X1055158Y403686D01*
X1054963Y403961D01*
X1054960Y403964D01*
X1054957Y403967D01*
X1054490Y404490D01*
X931320Y527659D01*
X931184Y527781D01*
X931055Y527909D01*
X930919Y528018D01*
X930789Y528134D01*
X930640Y528239D01*
X930498Y528353D01*
X930350Y528445D01*
X930207Y528546D01*
X930048Y528634D01*
X929894Y528731D01*
X929737Y528806D01*
X929584Y528891D01*
X929416Y528960D01*
X929252Y529039D01*
X929087Y529096D01*
X928926Y529163D01*
X928751Y529214D01*
X928579Y529273D01*
X928409Y529312D01*
X928241Y529360D01*
X928062Y529391D01*
X927884Y529431D01*
X927710Y529450D01*
X927539Y529479D01*
X927357Y529490D01*
X927176Y529510D01*
X927002Y529509D01*
X926827Y529519D01*
X926646Y529509D01*
X926464Y529509D01*
X926290Y529489D01*
X926116Y529479D01*
X925937Y529448D01*
X925756Y529428D01*
X925586Y529388D01*
X925414Y529359D01*
X925239Y529309D01*
X925062Y529268D01*
X924894Y529209D01*
X924729Y529161D01*
X924569Y529095D01*
X924400Y529036D01*
X919484Y526999D01*
X892516Y526999D01*
X887430Y529106D01*
X887426Y529108D01*
X887422Y529109D01*
X887095Y529223D01*
X886757Y529341D01*
X886753Y529342D01*
X886749Y529344D01*
X886407Y529421D01*
X886063Y529500D01*
X886058Y529500D01*
X886054Y529501D01*
X885708Y529540D01*
X885355Y529580D01*
X885350Y529580D01*
X885346Y529580D01*
X884988Y529579D01*
X884642Y529579D01*
X884638Y529579D01*
X884634Y529579D01*
X884271Y529537D01*
X883934Y529499D01*
X883930Y529498D01*
X883926Y529498D01*
X883581Y529419D01*
X883240Y529341D01*
X883236Y529339D01*
X883232Y529338D01*
X882570Y529106D01*
X877484Y526999D01*
X850516Y526999D01*
X845003Y529283D01*
X844490Y529796D01*
X844488Y529797D01*
X844488Y529798D01*
X844242Y530018D01*
X843958Y530271D01*
X843957Y530272D01*
X843956Y530273D01*
X843655Y530486D01*
X843377Y530683D01*
X843376Y530684D01*
X843375Y530685D01*
X843038Y530871D01*
X842754Y531028D01*
X842753Y531028D01*
X842751Y531029D01*
X842412Y531169D01*
X842096Y531300D01*
X842094Y531300D01*
X842093Y531301D01*
X841744Y531401D01*
X841411Y531497D01*
X841410Y531497D01*
X841408Y531498D01*
X841063Y531556D01*
X840709Y531616D01*
X840707Y531616D01*
X840706Y531616D01*
X840365Y531635D01*
X839997Y531656D01*
X839996Y531656D01*
X839994Y531656D01*
X839652Y531636D01*
X839286Y531616D01*
X839284Y531615D01*
X839283Y531615D01*
X838948Y531558D01*
X838584Y531496D01*
X838582Y531495D01*
X838581Y531495D01*
X838240Y531396D01*
X837899Y531298D01*
X837898Y531298D01*
X837896Y531297D01*
X837574Y531163D01*
X837241Y531025D01*
X837240Y531024D01*
X837239Y531024D01*
X836932Y530854D01*
X836618Y530680D01*
X836617Y530679D01*
X836615Y530679D01*
X836346Y530487D01*
X836037Y530267D01*
X836036Y530266D01*
X836035Y530266D01*
X835781Y530038D01*
X835506Y529792D01*
X835505Y529791D01*
X835504Y529790D01*
X835253Y529509D01*
X835032Y529261D01*
X835031Y529259D01*
X835030Y529258D01*
X834825Y528968D01*
X834621Y528679D01*
X834620Y528678D01*
X834619Y528677D01*
X834460Y528388D01*
X834277Y528055D01*
X834276Y528054D01*
X834275Y528053D01*
X834147Y527742D01*
X834005Y527397D01*
X834004Y527395D01*
X834004Y527394D01*
X833911Y527070D01*
X833808Y526712D01*
X833808Y526710D01*
X833808Y526709D01*
X833743Y526325D01*
X833690Y526009D01*
X833690Y526008D01*
X833689Y526007D01*
X833651Y525307D01*
X833651Y480000D01*
X833651Y479996D01*
X833651Y479991D01*
X833671Y479638D01*
X833691Y479289D01*
X833691Y479284D01*
X833692Y479280D01*
X833752Y478929D01*
X833810Y478586D01*
X833811Y478582D01*
X833812Y478578D01*
X833914Y478226D01*
X834007Y477902D01*
X834009Y477898D01*
X834010Y477894D01*
X834150Y477557D01*
X834280Y477244D01*
X834282Y477240D01*
X834284Y477236D01*
X834459Y476921D01*
X834625Y476620D01*
X834627Y476617D01*
X834630Y476613D01*
X834842Y476314D01*
X835038Y476039D01*
X835040Y476036D01*
X835043Y476033D01*
X835510Y475510D01*
X953651Y357370D01*
X953651Y190000D01*
X953651Y189996D01*
X953651Y189991D01*
X953671Y189638D01*
X953691Y189289D01*
X953691Y189284D01*
X953692Y189280D01*
X953752Y188929D01*
X953810Y188586D01*
X953811Y188582D01*
X953812Y188578D01*
X953914Y188225D01*
X954007Y187902D01*
X954009Y187898D01*
X954010Y187894D01*
X954146Y187568D01*
X954280Y187244D01*
X954282Y187240D01*
X954284Y187236D01*
X954454Y186929D01*
X954625Y186620D01*
X954627Y186617D01*
X954630Y186613D01*
X954842Y186314D01*
X955038Y186039D01*
X955040Y186036D01*
X955043Y186033D01*
X955510Y185510D01*
X1055510Y85510D01*
X1055514Y85508D01*
X1055516Y85504D01*
X1055779Y85270D01*
X1056042Y85036D01*
X1056045Y85033D01*
X1056048Y85030D01*
X1056333Y84829D01*
X1056623Y84624D01*
X1056626Y84621D01*
X1056630Y84619D01*
X1056940Y84448D01*
X1057246Y84279D01*
X1057250Y84277D01*
X1057254Y84275D01*
X1057579Y84141D01*
X1057905Y84007D01*
X1057909Y84005D01*
X1057913Y84004D01*
X1058251Y83907D01*
X1058589Y83810D01*
X1058593Y83809D01*
X1058598Y83808D01*
X1058954Y83748D01*
X1059292Y83690D01*
X1059296Y83690D01*
X1059300Y83689D01*
X1060000Y83651D01*
X1580000Y83651D01*
X1580003Y83651D01*
G37*
%LPC*%
G36*
X190688Y29739D02*
X190688Y29739D01*
X184288Y31454D01*
X178551Y34766D01*
X173866Y39451D01*
X170554Y45188D01*
X168839Y51588D01*
X168839Y58212D01*
X170554Y64612D01*
X173866Y70349D01*
X178551Y75034D01*
X184288Y78346D01*
X190688Y80061D01*
X197312Y80061D01*
X203712Y78346D01*
X209449Y75034D01*
X214134Y70349D01*
X217446Y64612D01*
X219161Y58212D01*
X219161Y51588D01*
X217446Y45188D01*
X214134Y39451D01*
X209449Y34766D01*
X203712Y31454D01*
X197312Y29739D01*
X190688Y29739D01*
G37*
%LPD*%
%LPC*%
G36*
X91515Y579512D02*
X91515Y579512D01*
X90779Y579816D01*
X90216Y580379D01*
X89912Y581115D01*
X89912Y610485D01*
X90216Y611221D01*
X90779Y611784D01*
X91515Y612088D01*
X120885Y612088D01*
X121621Y611784D01*
X122184Y611221D01*
X122488Y610485D01*
X122488Y581115D01*
X122184Y580379D01*
X121621Y579816D01*
X120885Y579512D01*
X91515Y579512D01*
G37*
%LPD*%
%LPC*%
G36*
X91515Y528712D02*
X91515Y528712D01*
X90779Y529016D01*
X90216Y529579D01*
X89912Y530315D01*
X89912Y559685D01*
X90216Y560421D01*
X90779Y560984D01*
X91515Y561288D01*
X120885Y561288D01*
X121621Y560984D01*
X122184Y560421D01*
X122488Y559685D01*
X122488Y530315D01*
X122184Y529579D01*
X121621Y529016D01*
X120885Y528712D01*
X91515Y528712D01*
G37*
%LPD*%
%LPC*%
G36*
X57102Y115399D02*
X57102Y115399D01*
X56367Y115704D01*
X55804Y116267D01*
X55499Y117002D01*
X55499Y138798D01*
X55804Y139533D01*
X56367Y140096D01*
X57102Y140401D01*
X78898Y140401D01*
X79633Y140096D01*
X80196Y139533D01*
X80501Y138798D01*
X80501Y117002D01*
X80196Y116267D01*
X79633Y115704D01*
X78898Y115399D01*
X57102Y115399D01*
G37*
%LPD*%
%LPC*%
G36*
X183102Y115399D02*
X183102Y115399D01*
X182367Y115704D01*
X181804Y116267D01*
X181499Y117002D01*
X181499Y138798D01*
X181804Y139533D01*
X182367Y140096D01*
X183102Y140401D01*
X204898Y140401D01*
X205633Y140096D01*
X206196Y139533D01*
X206501Y138798D01*
X206501Y117002D01*
X206196Y116267D01*
X205633Y115704D01*
X204898Y115399D01*
X183102Y115399D01*
G37*
%LPD*%
%LPC*%
G36*
X141102Y115399D02*
X141102Y115399D01*
X140367Y115704D01*
X139804Y116267D01*
X139499Y117002D01*
X139499Y138798D01*
X139804Y139533D01*
X140367Y140096D01*
X141102Y140401D01*
X162898Y140401D01*
X163633Y140096D01*
X164196Y139533D01*
X164501Y138798D01*
X164501Y117002D01*
X164196Y116267D01*
X163633Y115704D01*
X162898Y115399D01*
X141102Y115399D01*
G37*
%LPD*%
%LPC*%
G36*
X99102Y115399D02*
X99102Y115399D01*
X98367Y115704D01*
X97804Y116267D01*
X97499Y117002D01*
X97499Y138798D01*
X97804Y139533D01*
X98367Y140096D01*
X99102Y140401D01*
X120898Y140401D01*
X121633Y140096D01*
X122196Y139533D01*
X122501Y138798D01*
X122501Y117002D01*
X122196Y116267D01*
X121633Y115704D01*
X120898Y115399D01*
X99102Y115399D01*
G37*
%LPD*%
%LPC*%
G36*
X183102Y170399D02*
X183102Y170399D01*
X182367Y170704D01*
X181804Y171267D01*
X181499Y172002D01*
X181499Y193798D01*
X181804Y194533D01*
X182367Y195096D01*
X183102Y195401D01*
X204898Y195401D01*
X205633Y195096D01*
X206196Y194533D01*
X206501Y193798D01*
X206501Y172002D01*
X206196Y171267D01*
X205633Y170704D01*
X204898Y170399D01*
X183102Y170399D01*
G37*
%LPD*%
%LPC*%
G36*
X99102Y170399D02*
X99102Y170399D01*
X98367Y170704D01*
X97804Y171267D01*
X97499Y172002D01*
X97499Y193798D01*
X97804Y194533D01*
X98367Y195096D01*
X99102Y195401D01*
X120898Y195401D01*
X121633Y195096D01*
X122196Y194533D01*
X122501Y193798D01*
X122501Y172002D01*
X122196Y171267D01*
X121633Y170704D01*
X120898Y170399D01*
X99102Y170399D01*
G37*
%LPD*%
%LPC*%
G36*
X141102Y170399D02*
X141102Y170399D01*
X140367Y170704D01*
X139804Y171267D01*
X139499Y172002D01*
X139499Y193798D01*
X139804Y194533D01*
X140367Y195096D01*
X141102Y195401D01*
X162898Y195401D01*
X163633Y195096D01*
X164196Y194533D01*
X164501Y193798D01*
X164501Y172002D01*
X164196Y171267D01*
X163633Y170704D01*
X162898Y170399D01*
X141102Y170399D01*
G37*
%LPD*%
%LPC*%
G36*
X57102Y170399D02*
X57102Y170399D01*
X56367Y170704D01*
X55804Y171267D01*
X55499Y172002D01*
X55499Y193798D01*
X55804Y194533D01*
X56367Y195096D01*
X57102Y195401D01*
X78898Y195401D01*
X79633Y195096D01*
X80196Y194533D01*
X80501Y193798D01*
X80501Y172002D01*
X80196Y171267D01*
X79633Y170704D01*
X78898Y170399D01*
X57102Y170399D01*
G37*
%LPD*%
%LPC*%
G36*
X845877Y59174D02*
X845877Y59174D01*
X845142Y59479D01*
X844579Y60042D01*
X844274Y60777D01*
X844274Y80623D01*
X844579Y81358D01*
X845142Y81921D01*
X845877Y82226D01*
X865723Y82226D01*
X866458Y81921D01*
X867021Y81358D01*
X867326Y80623D01*
X867326Y60777D01*
X867021Y60042D01*
X866458Y59479D01*
X865723Y59174D01*
X845877Y59174D01*
G37*
%LPD*%
%LPC*%
G36*
X135660Y415749D02*
X135660Y415749D01*
X132260Y417158D01*
X129658Y419760D01*
X128249Y423160D01*
X128249Y426840D01*
X129658Y430240D01*
X132260Y432842D01*
X135660Y434251D01*
X139340Y434251D01*
X142740Y432842D01*
X145342Y430240D01*
X146751Y426840D01*
X146751Y423160D01*
X145342Y419760D01*
X142740Y417158D01*
X139340Y415749D01*
X135660Y415749D01*
G37*
%LPD*%
%LPC*%
G36*
X29380Y255849D02*
X29380Y255849D01*
X26017Y257242D01*
X23442Y259816D01*
X22376Y262391D01*
X22298Y262552D01*
X22230Y262718D01*
X22144Y262873D01*
X22067Y263033D01*
X21972Y263185D01*
X21885Y263341D01*
X21782Y263486D01*
X21688Y263636D01*
X21576Y263776D01*
X21472Y263922D01*
X21354Y264054D01*
X21243Y264193D01*
X21117Y264320D01*
X20998Y264453D01*
X20865Y264571D01*
X20740Y264697D01*
X20599Y264808D01*
X20466Y264928D01*
X20364Y265000D01*
X20475Y265080D01*
X20608Y265199D01*
X20748Y265311D01*
X20873Y265436D01*
X21006Y265555D01*
X21125Y265689D01*
X21251Y265815D01*
X21362Y265954D01*
X21480Y266087D01*
X21583Y266233D01*
X21694Y266373D01*
X21789Y266524D01*
X21891Y266669D01*
X21977Y266825D01*
X22072Y266977D01*
X22151Y267140D01*
X22235Y267293D01*
X22300Y267450D01*
X22376Y267609D01*
X23442Y270184D01*
X26017Y272758D01*
X29380Y274151D01*
X33020Y274151D01*
X36383Y272758D01*
X38958Y270183D01*
X40351Y266820D01*
X40351Y263180D01*
X38958Y259817D01*
X36383Y257242D01*
X33020Y255849D01*
X29380Y255849D01*
G37*
%LPD*%
%LPC*%
G36*
X126980Y255849D02*
X126980Y255849D01*
X123617Y257242D01*
X121042Y259817D01*
X119649Y263180D01*
X119649Y266820D01*
X121042Y270183D01*
X123617Y272758D01*
X126980Y274151D01*
X130620Y274151D01*
X133983Y272758D01*
X136558Y270183D01*
X137951Y266820D01*
X137951Y263180D01*
X136558Y259817D01*
X133983Y257242D01*
X130620Y255849D01*
X126980Y255849D01*
G37*
%LPD*%
%LPC*%
G36*
X451893Y500374D02*
X451893Y500374D01*
X448590Y501742D01*
X446062Y504270D01*
X444694Y507573D01*
X444694Y511147D01*
X446062Y514450D01*
X448590Y516978D01*
X451893Y518346D01*
X455467Y518346D01*
X458770Y516978D01*
X461298Y514450D01*
X462666Y511147D01*
X462666Y507573D01*
X461298Y504270D01*
X458770Y501742D01*
X455467Y500374D01*
X451893Y500374D01*
G37*
%LPD*%
%LPC*%
G36*
X619533Y500374D02*
X619533Y500374D01*
X616230Y501742D01*
X613702Y504270D01*
X612334Y507573D01*
X612334Y511147D01*
X613702Y514450D01*
X616230Y516978D01*
X619533Y518346D01*
X623107Y518346D01*
X626410Y516978D01*
X628938Y514450D01*
X630306Y511147D01*
X630306Y507573D01*
X628938Y504270D01*
X626410Y501742D01*
X623107Y500374D01*
X619533Y500374D01*
G37*
%LPD*%
%LPC*%
G36*
X1532349Y134249D02*
X1532349Y134249D01*
X1532349Y140941D01*
X1536750Y140941D01*
X1537241Y140843D01*
X1537704Y140652D01*
X1538120Y140373D01*
X1538473Y140020D01*
X1538752Y139604D01*
X1538943Y139141D01*
X1539041Y138650D01*
X1539041Y134249D01*
X1532349Y134249D01*
G37*
%LPD*%
%LPC*%
G36*
X32349Y134249D02*
X32349Y134249D01*
X32349Y140941D01*
X36750Y140941D01*
X37241Y140843D01*
X37704Y140652D01*
X38120Y140373D01*
X38473Y140020D01*
X38752Y139604D01*
X38943Y139141D01*
X39041Y138650D01*
X39041Y134249D01*
X32349Y134249D01*
G37*
%LPD*%
%LPC*%
G36*
X870349Y503849D02*
X870349Y503849D01*
X870349Y510541D01*
X874750Y510541D01*
X875241Y510443D01*
X875704Y510252D01*
X876120Y509973D01*
X876473Y509620D01*
X876752Y509204D01*
X876943Y508741D01*
X877041Y508250D01*
X877041Y503849D01*
X870349Y503849D01*
G37*
%LPD*%
%LPC*%
G36*
X912349Y503849D02*
X912349Y503849D01*
X912349Y510541D01*
X916750Y510541D01*
X917241Y510443D01*
X917704Y510252D01*
X918120Y509973D01*
X918473Y509620D01*
X918752Y509204D01*
X918943Y508741D01*
X919041Y508250D01*
X919041Y503849D01*
X912349Y503849D01*
G37*
%LPD*%
%LPC*%
G36*
X32349Y189249D02*
X32349Y189249D01*
X32349Y195941D01*
X36750Y195941D01*
X37241Y195843D01*
X37704Y195652D01*
X38120Y195373D01*
X38473Y195020D01*
X38752Y194604D01*
X38943Y194141D01*
X39041Y193650D01*
X39041Y189249D01*
X32349Y189249D01*
G37*
%LPD*%
%LPC*%
G36*
X1512959Y134249D02*
X1512959Y134249D01*
X1512959Y138650D01*
X1513057Y139141D01*
X1513248Y139604D01*
X1513527Y140020D01*
X1513880Y140373D01*
X1514296Y140652D01*
X1514759Y140843D01*
X1515250Y140941D01*
X1519651Y140941D01*
X1519651Y134249D01*
X1512959Y134249D01*
G37*
%LPD*%
%LPC*%
G36*
X1532349Y169859D02*
X1532349Y169859D01*
X1532349Y176551D01*
X1539041Y176551D01*
X1539041Y172150D01*
X1538943Y171659D01*
X1538752Y171196D01*
X1538473Y170780D01*
X1538120Y170427D01*
X1537704Y170148D01*
X1537241Y169957D01*
X1536750Y169859D01*
X1532349Y169859D01*
G37*
%LPD*%
%LPC*%
G36*
X850959Y503849D02*
X850959Y503849D01*
X850959Y508250D01*
X851057Y508741D01*
X851248Y509204D01*
X851527Y509620D01*
X851880Y509973D01*
X852296Y510252D01*
X852759Y510443D01*
X853250Y510541D01*
X857651Y510541D01*
X857651Y503849D01*
X850959Y503849D01*
G37*
%LPD*%
%LPC*%
G36*
X892959Y503849D02*
X892959Y503849D01*
X892959Y508250D01*
X893057Y508741D01*
X893248Y509204D01*
X893527Y509620D01*
X893880Y509973D01*
X894296Y510252D01*
X894759Y510443D01*
X895250Y510541D01*
X899651Y510541D01*
X899651Y503849D01*
X892959Y503849D01*
G37*
%LPD*%
%LPC*%
G36*
X912349Y484459D02*
X912349Y484459D01*
X912349Y491151D01*
X919041Y491151D01*
X919041Y486750D01*
X918943Y486259D01*
X918752Y485796D01*
X918473Y485380D01*
X918120Y485027D01*
X917704Y484748D01*
X917241Y484557D01*
X916750Y484459D01*
X912349Y484459D01*
G37*
%LPD*%
%LPC*%
G36*
X1554959Y134249D02*
X1554959Y134249D01*
X1554959Y138650D01*
X1555057Y139141D01*
X1555248Y139604D01*
X1555527Y140020D01*
X1555880Y140373D01*
X1556296Y140652D01*
X1556759Y140843D01*
X1557250Y140941D01*
X1561651Y140941D01*
X1561651Y134249D01*
X1554959Y134249D01*
G37*
%LPD*%
%LPC*%
G36*
X870349Y484459D02*
X870349Y484459D01*
X870349Y491151D01*
X877041Y491151D01*
X877041Y486750D01*
X876943Y486259D01*
X876752Y485796D01*
X876473Y485380D01*
X876120Y485027D01*
X875704Y484748D01*
X875241Y484557D01*
X874750Y484459D01*
X870349Y484459D01*
G37*
%LPD*%
%LPC*%
G36*
X32349Y169859D02*
X32349Y169859D01*
X32349Y176551D01*
X39041Y176551D01*
X39041Y172150D01*
X38943Y171659D01*
X38752Y171196D01*
X38473Y170780D01*
X38120Y170427D01*
X37704Y170148D01*
X37241Y169957D01*
X36750Y169859D01*
X32349Y169859D01*
G37*
%LPD*%
%LPC*%
G36*
X1532349Y114859D02*
X1532349Y114859D01*
X1532349Y121551D01*
X1539041Y121551D01*
X1539041Y117150D01*
X1538943Y116659D01*
X1538752Y116196D01*
X1538473Y115780D01*
X1538120Y115427D01*
X1537704Y115148D01*
X1537241Y114957D01*
X1536750Y114859D01*
X1532349Y114859D01*
G37*
%LPD*%
%LPC*%
G36*
X32349Y114859D02*
X32349Y114859D01*
X32349Y121551D01*
X39041Y121551D01*
X39041Y117150D01*
X38943Y116659D01*
X38752Y116196D01*
X38473Y115780D01*
X38120Y115427D01*
X37704Y115148D01*
X37241Y114957D01*
X36750Y114859D01*
X32349Y114859D01*
G37*
%LPD*%
%LPC*%
G36*
X895250Y484459D02*
X895250Y484459D01*
X894759Y484557D01*
X894296Y484748D01*
X893880Y485027D01*
X893527Y485380D01*
X893248Y485796D01*
X893057Y486259D01*
X892959Y486750D01*
X892959Y491151D01*
X899651Y491151D01*
X899651Y484459D01*
X895250Y484459D01*
G37*
%LPD*%
%LPC*%
G36*
X1515250Y114859D02*
X1515250Y114859D01*
X1514759Y114957D01*
X1514296Y115148D01*
X1513880Y115427D01*
X1513527Y115780D01*
X1513248Y116196D01*
X1513057Y116659D01*
X1512959Y117150D01*
X1512959Y121551D01*
X1519651Y121551D01*
X1519651Y114859D01*
X1515250Y114859D01*
G37*
%LPD*%
%LPC*%
G36*
X1557250Y114859D02*
X1557250Y114859D01*
X1556759Y114957D01*
X1556296Y115148D01*
X1555880Y115427D01*
X1555527Y115780D01*
X1555248Y116196D01*
X1555057Y116659D01*
X1554959Y117150D01*
X1554959Y121551D01*
X1561651Y121551D01*
X1561651Y114859D01*
X1557250Y114859D01*
G37*
%LPD*%
%LPC*%
G36*
X1557250Y169859D02*
X1557250Y169859D01*
X1556759Y169957D01*
X1556296Y170148D01*
X1555880Y170427D01*
X1555527Y170780D01*
X1555248Y171196D01*
X1555057Y171659D01*
X1554959Y172150D01*
X1554959Y176551D01*
X1561651Y176551D01*
X1561651Y169859D01*
X1557250Y169859D01*
G37*
%LPD*%
%LPC*%
G36*
X1515250Y169859D02*
X1515250Y169859D01*
X1514759Y169957D01*
X1514296Y170148D01*
X1513880Y170427D01*
X1513527Y170780D01*
X1513248Y171196D01*
X1513057Y171659D01*
X1512959Y172150D01*
X1512959Y176551D01*
X1519651Y176551D01*
X1519651Y169859D01*
X1515250Y169859D01*
G37*
%LPD*%
%LPC*%
G36*
X853250Y484459D02*
X853250Y484459D01*
X852759Y484557D01*
X852296Y484748D01*
X851880Y485027D01*
X851527Y485380D01*
X851248Y485796D01*
X851057Y486259D01*
X850959Y486750D01*
X850959Y491151D01*
X857651Y491151D01*
X857651Y484459D01*
X853250Y484459D01*
G37*
%LPD*%
%LPC*%
G36*
X862149Y153249D02*
X862149Y153249D01*
X862149Y158966D01*
X865575Y158966D01*
X866066Y158868D01*
X866529Y158677D01*
X866945Y158398D01*
X867298Y158045D01*
X867577Y157629D01*
X867768Y157166D01*
X867866Y156675D01*
X867866Y153249D01*
X862149Y153249D01*
G37*
%LPD*%
%LPC*%
G36*
X862149Y134834D02*
X862149Y134834D01*
X862149Y140551D01*
X867866Y140551D01*
X867866Y137125D01*
X867768Y136634D01*
X867577Y136171D01*
X867298Y135755D01*
X866945Y135402D01*
X866529Y135123D01*
X866066Y134932D01*
X865575Y134834D01*
X862149Y134834D01*
G37*
%LPD*%
%LPC*%
G36*
X843734Y153249D02*
X843734Y153249D01*
X843734Y156675D01*
X843832Y157166D01*
X844023Y157629D01*
X844302Y158045D01*
X844655Y158398D01*
X845071Y158677D01*
X845534Y158868D01*
X846025Y158966D01*
X849451Y158966D01*
X849451Y153249D01*
X843734Y153249D01*
G37*
%LPD*%
%LPC*%
G36*
X846025Y134834D02*
X846025Y134834D01*
X845534Y134932D01*
X845071Y135123D01*
X844655Y135402D01*
X844302Y135755D01*
X844023Y136171D01*
X843832Y136634D01*
X843734Y137125D01*
X843734Y140551D01*
X849451Y140551D01*
X849451Y134834D01*
X846025Y134834D01*
G37*
%LPD*%
%LPC*%
G36*
X281349Y561459D02*
X281349Y561459D01*
X281349Y564151D01*
X285041Y564151D01*
X285041Y563750D01*
X284943Y563259D01*
X284752Y562796D01*
X284473Y562380D01*
X284120Y562027D01*
X283704Y561748D01*
X283241Y561557D01*
X282750Y561459D01*
X281349Y561459D01*
G37*
%LPD*%
%LPC*%
G36*
X211349Y561459D02*
X211349Y561459D01*
X211349Y564151D01*
X215041Y564151D01*
X215041Y563750D01*
X214943Y563259D01*
X214752Y562796D01*
X214473Y562380D01*
X214120Y562027D01*
X213704Y561748D01*
X213241Y561557D01*
X212750Y561459D01*
X211349Y561459D01*
G37*
%LPD*%
%LPC*%
G36*
X267250Y561459D02*
X267250Y561459D01*
X266759Y561557D01*
X266296Y561748D01*
X265880Y562027D01*
X265527Y562380D01*
X265248Y562796D01*
X265057Y563259D01*
X264959Y563750D01*
X264959Y564151D01*
X268651Y564151D01*
X268651Y561459D01*
X267250Y561459D01*
G37*
%LPD*%
%LPC*%
G36*
X197250Y561459D02*
X197250Y561459D01*
X196759Y561557D01*
X196296Y561748D01*
X195880Y562027D01*
X195527Y562380D01*
X195248Y562796D01*
X195057Y563259D01*
X194959Y563750D01*
X194959Y564151D01*
X198651Y564151D01*
X198651Y561459D01*
X197250Y561459D01*
G37*
%LPD*%
%LPC*%
G36*
X584489Y124551D02*
X584489Y124551D01*
X586075Y124551D01*
X585796Y124186D01*
X584854Y123244D01*
X584489Y122965D01*
X584489Y124551D01*
G37*
%LPD*%
%LPC*%
G36*
X571426Y123244D02*
X571426Y123244D01*
X570484Y124186D01*
X570205Y124551D01*
X571791Y124551D01*
X571791Y122965D01*
X571426Y123244D01*
G37*
%LPD*%
%LPC*%
G36*
X68849Y431349D02*
X68849Y431349D01*
X68849Y432489D01*
X68878Y432468D01*
X69968Y431378D01*
X69989Y431349D01*
X68849Y431349D01*
G37*
%LPD*%
%LPC*%
G36*
X68849Y418651D02*
X68849Y418651D01*
X69989Y418651D01*
X69968Y418622D01*
X68878Y417532D01*
X68849Y417511D01*
X68849Y418651D01*
G37*
%LPD*%
%LPC*%
G36*
X55011Y431349D02*
X55011Y431349D01*
X55032Y431378D01*
X56122Y432468D01*
X56151Y432489D01*
X56151Y431349D01*
X55011Y431349D01*
G37*
%LPD*%
%LPC*%
G36*
X56122Y417532D02*
X56122Y417532D01*
X55032Y418622D01*
X55011Y418651D01*
X56151Y418651D01*
X56151Y417511D01*
X56122Y417532D01*
G37*
%LPD*%
D10*
X496860Y130900D03*
X578140Y130900D03*
D11*
X453680Y509360D03*
X621320Y509360D03*
D12*
X537500Y524600D03*
D13*
X194000Y127900D03*
X152000Y127900D03*
X110000Y127900D03*
X68000Y127900D03*
X26000Y127900D03*
X68000Y182900D03*
X26000Y182900D03*
X110000Y182900D03*
X152000Y182900D03*
X194000Y182900D03*
D14*
X137500Y425000D03*
X62500Y425000D03*
D15*
X178500Y305000D03*
X21500Y305000D03*
D16*
X128800Y265000D03*
X31200Y265000D03*
D13*
X906000Y497500D03*
X864000Y497500D03*
X864000Y552500D03*
X906000Y552500D03*
D17*
X275500Y610000D03*
X254500Y610000D03*
D18*
X275000Y570500D03*
X275000Y589500D03*
D19*
X1440000Y185000D03*
X1236800Y185000D03*
X1338400Y32600D03*
X855800Y70700D03*
X855800Y146900D03*
D17*
X204500Y610000D03*
X225500Y610000D03*
D18*
X205000Y570500D03*
X205000Y589500D03*
D13*
X1694000Y127900D03*
X1652000Y127900D03*
X1610000Y127900D03*
X1568000Y127900D03*
X1526000Y127900D03*
X1568000Y182900D03*
X1526000Y182900D03*
X1610000Y182900D03*
X1652000Y182900D03*
X1694000Y182900D03*
D20*
X30000Y595800D03*
X106200Y595800D03*
X106200Y545000D03*
X30000Y545000D03*
X1610000Y595800D03*
X1686200Y595800D03*
X1686200Y545000D03*
X1610000Y545000D03*
D21*
X1440000Y379200D03*
X1440000Y480800D03*
X1090000Y480800D03*
X1090000Y379200D03*
D22*
X1120000Y557000D03*
X1120000Y303000D03*
X1410000Y303000D03*
X1410000Y557000D03*
D21*
X1370000Y379200D03*
X1370000Y480800D03*
X1150000Y480800D03*
X1150000Y379200D03*
D23*
X275000Y589500D02*
X275000Y609500D01*
X275500Y610000D01*
X205000Y589500D02*
X204500Y590000D01*
X204500Y610000D01*
X178500Y498500D02*
X178500Y305000D01*
X178500Y498500D02*
X232700Y552700D01*
X232700Y602800D01*
X225500Y610000D01*
X254500Y610000D01*
D24*
X1526000Y182900D02*
X1568000Y182900D01*
X1568000Y127900D02*
X1526000Y127900D01*
X1526000Y182900D01*
X1526000Y127900D02*
X1427900Y127900D01*
X1410000Y110000D01*
X1000000Y403500D02*
X906000Y497500D01*
X1070000Y110000D02*
X1410000Y110000D01*
X1070000Y110000D02*
X1000000Y180000D01*
X1000000Y403500D01*
X906000Y497500D02*
X864000Y497500D01*
X1568000Y182900D02*
X1568000Y127900D01*
M02*
