G04 EAGLE Gerber RS-274X export*
G75*
%MOMM*%
%FSLAX34Y34*%
%LPD*%
%IN*%
%IPPOS*%
%AMOC8*
5,1,8,0,0,1.08239X$1,22.5*%
G01*
%ADD10C,0.254000*%


D10*
X0Y30000D02*
X114Y27385D01*
X456Y24791D01*
X1022Y22235D01*
X1809Y19739D01*
X2811Y17321D01*
X4019Y15000D01*
X5425Y12793D01*
X7019Y10716D01*
X8787Y8787D01*
X10716Y7019D01*
X12793Y5425D01*
X15000Y4019D01*
X17321Y2811D01*
X19739Y1809D01*
X22235Y1022D01*
X24791Y456D01*
X27385Y114D01*
X30000Y0D01*
X1690000Y0D01*
X1692615Y114D01*
X1695209Y456D01*
X1697765Y1022D01*
X1700261Y1809D01*
X1702679Y2811D01*
X1705000Y4019D01*
X1707207Y5425D01*
X1709284Y7019D01*
X1711213Y8787D01*
X1712981Y10716D01*
X1714575Y12793D01*
X1715981Y15000D01*
X1717189Y17321D01*
X1718191Y19739D01*
X1718978Y22235D01*
X1719544Y24791D01*
X1719886Y27385D01*
X1720000Y30000D01*
X1720000Y610000D01*
X1719886Y612615D01*
X1719544Y615209D01*
X1718978Y617765D01*
X1718191Y620261D01*
X1717189Y622679D01*
X1715981Y625000D01*
X1714575Y627207D01*
X1712981Y629284D01*
X1711213Y631213D01*
X1709284Y632981D01*
X1707207Y634575D01*
X1705000Y635981D01*
X1702679Y637189D01*
X1700261Y638191D01*
X1697765Y638978D01*
X1695209Y639544D01*
X1692615Y639886D01*
X1690000Y640000D01*
X950000Y640000D01*
X949924Y638257D01*
X949696Y636527D01*
X949319Y634824D01*
X948794Y633160D01*
X948126Y631548D01*
X947321Y630000D01*
X946383Y628528D01*
X945321Y627144D01*
X944142Y625858D01*
X942856Y624679D01*
X941472Y623617D01*
X940000Y622680D01*
X938452Y621874D01*
X936840Y621206D01*
X935176Y620681D01*
X933473Y620304D01*
X931743Y620076D01*
X930000Y620000D01*
X825000Y620000D01*
X823257Y620076D01*
X821527Y620304D01*
X819824Y620681D01*
X818160Y621206D01*
X816548Y621874D01*
X815000Y622680D01*
X813528Y623617D01*
X812144Y624679D01*
X810858Y625858D01*
X809679Y627144D01*
X808617Y628528D01*
X807680Y630000D01*
X806874Y631548D01*
X806206Y633160D01*
X805681Y634824D01*
X805304Y636527D01*
X805076Y638257D01*
X805000Y640000D01*
X30000Y640000D01*
X27385Y639886D01*
X24791Y639544D01*
X22235Y638978D01*
X19739Y638191D01*
X17321Y637189D01*
X15000Y635981D01*
X12793Y634575D01*
X10716Y632981D01*
X8787Y631213D01*
X7019Y629284D01*
X5425Y627207D01*
X4019Y625000D01*
X2811Y622679D01*
X1809Y620261D01*
X1022Y617765D01*
X456Y615209D01*
X114Y612615D01*
X0Y610000D01*
X0Y30000D01*
X270800Y194400D02*
X270543Y192942D01*
X270238Y190134D01*
X270180Y187310D01*
X270367Y184491D01*
X270800Y181700D01*
X271474Y178957D01*
X272385Y176283D01*
X273525Y173699D01*
X274887Y171224D01*
X276458Y168877D01*
X278229Y166676D01*
X280184Y164637D01*
X282310Y162777D01*
X284590Y161109D01*
X287006Y159646D01*
X289541Y158400D01*
X292174Y157379D01*
X294887Y156591D01*
X297658Y156043D01*
X300466Y155738D01*
X303290Y155680D01*
X306109Y155867D01*
X308900Y156300D01*
X766100Y156300D01*
X769421Y156445D01*
X772716Y156879D01*
X775961Y157598D01*
X779131Y158598D01*
X782202Y159870D01*
X785150Y161404D01*
X787953Y163190D01*
X790590Y165214D01*
X793041Y167459D01*
X795286Y169910D01*
X797310Y172547D01*
X799096Y175350D01*
X800630Y178298D01*
X801902Y181369D01*
X802902Y184539D01*
X803621Y187784D01*
X804055Y191079D01*
X804200Y194400D01*
X804200Y423000D01*
X804055Y426321D01*
X803621Y429616D01*
X802902Y432861D01*
X801902Y436031D01*
X800630Y439102D01*
X799096Y442050D01*
X797310Y444853D01*
X795286Y447490D01*
X793041Y449941D01*
X790590Y452186D01*
X787953Y454210D01*
X785150Y455996D01*
X782202Y457530D01*
X779131Y458802D01*
X775961Y459802D01*
X772716Y460521D01*
X769421Y460955D01*
X766100Y461100D01*
X308900Y461100D01*
X305579Y460955D01*
X302284Y460521D01*
X299039Y459802D01*
X295869Y458802D01*
X292798Y457530D01*
X289850Y455996D01*
X287047Y454210D01*
X284410Y452186D01*
X281959Y449941D01*
X279714Y447490D01*
X277690Y444853D01*
X275904Y442050D01*
X274370Y439102D01*
X273098Y436031D01*
X272098Y432861D01*
X271379Y429616D01*
X270945Y426321D01*
X270800Y423000D01*
X270800Y194400D01*
X270800Y194400D02*
X270945Y191079D01*
X271379Y187784D01*
X272098Y184539D01*
X273098Y181369D01*
X274370Y178298D01*
X275904Y175350D01*
X277690Y172547D01*
X279714Y169910D01*
X281959Y167459D01*
X284410Y165214D01*
X287047Y163190D01*
X289850Y161404D01*
X292798Y159870D01*
X295869Y158598D01*
X299039Y157598D01*
X302284Y156879D01*
X305579Y156445D01*
X308900Y156300D01*
X766100Y156300D01*
X769421Y156445D01*
X772716Y156879D01*
X775961Y157598D01*
X779131Y158598D01*
X782202Y159870D01*
X785150Y161404D01*
X787953Y163190D01*
X790590Y165214D01*
X793041Y167459D01*
X795286Y169910D01*
X797310Y172547D01*
X799096Y175350D01*
X800630Y178298D01*
X801902Y181369D01*
X802902Y184539D01*
X803621Y187784D01*
X804055Y191079D01*
X804200Y194400D01*
X804200Y423000D01*
X804055Y426321D01*
X803621Y429616D01*
X802902Y432861D01*
X801902Y436031D01*
X800630Y439102D01*
X799096Y442050D01*
X797310Y444853D01*
X795286Y447490D01*
X793041Y449941D01*
X790590Y452186D01*
X787953Y454210D01*
X785150Y455996D01*
X782202Y457530D01*
X779131Y458802D01*
X775961Y459802D01*
X772716Y460521D01*
X769421Y460955D01*
X766100Y461100D01*
X308900Y461100D01*
X305579Y460955D01*
X302284Y460521D01*
X299039Y459802D01*
X295869Y458802D01*
X292798Y457530D01*
X289850Y455996D01*
X287047Y454210D01*
X284410Y452186D01*
X281959Y449941D01*
X279714Y447490D01*
X277690Y444853D01*
X275904Y442050D01*
X274370Y439102D01*
X273098Y436031D01*
X272098Y432861D01*
X271379Y429616D01*
X270945Y426321D01*
X270800Y423000D01*
X270800Y194400D01*
X209000Y54364D02*
X208924Y53296D01*
X208771Y52235D01*
X208543Y51188D01*
X208241Y50160D01*
X207867Y49156D01*
X207422Y48181D01*
X206908Y47241D01*
X206329Y46340D01*
X205687Y45482D01*
X204985Y44672D01*
X204228Y43915D01*
X203418Y43213D01*
X202560Y42571D01*
X201659Y41992D01*
X200719Y41478D01*
X199744Y41033D01*
X198740Y40659D01*
X197712Y40357D01*
X196665Y40129D01*
X195604Y39976D01*
X194536Y39900D01*
X193464Y39900D01*
X192396Y39976D01*
X191335Y40129D01*
X190288Y40357D01*
X189260Y40659D01*
X188256Y41033D01*
X187281Y41478D01*
X186341Y41992D01*
X185440Y42571D01*
X184582Y43213D01*
X183772Y43915D01*
X183015Y44672D01*
X182313Y45482D01*
X181671Y46340D01*
X181092Y47241D01*
X180578Y48181D01*
X180133Y49156D01*
X179759Y50160D01*
X179457Y51188D01*
X179229Y52235D01*
X179076Y53296D01*
X179000Y54364D01*
X179000Y55436D01*
X179076Y56504D01*
X179229Y57565D01*
X179457Y58612D01*
X179759Y59640D01*
X180133Y60644D01*
X180578Y61619D01*
X181092Y62559D01*
X181671Y63460D01*
X182313Y64318D01*
X183015Y65128D01*
X183772Y65885D01*
X184582Y66587D01*
X185440Y67229D01*
X186341Y67808D01*
X187281Y68322D01*
X188256Y68767D01*
X189260Y69141D01*
X190288Y69443D01*
X191335Y69671D01*
X192396Y69824D01*
X193464Y69900D01*
X194536Y69900D01*
X195604Y69824D01*
X196665Y69671D01*
X197712Y69443D01*
X198740Y69141D01*
X199744Y68767D01*
X200719Y68322D01*
X201659Y67808D01*
X202560Y67229D01*
X203418Y66587D01*
X204228Y65885D01*
X204985Y65128D01*
X205687Y64318D01*
X206329Y63460D01*
X206908Y62559D01*
X207422Y61619D01*
X207867Y60644D01*
X208241Y59640D01*
X208543Y58612D01*
X208771Y57565D01*
X208924Y56504D01*
X209000Y55436D01*
X209000Y54364D01*
X41000Y54364D02*
X40924Y53296D01*
X40771Y52235D01*
X40543Y51188D01*
X40241Y50160D01*
X39867Y49156D01*
X39422Y48181D01*
X38908Y47241D01*
X38329Y46340D01*
X37687Y45482D01*
X36985Y44672D01*
X36228Y43915D01*
X35418Y43213D01*
X34560Y42571D01*
X33659Y41992D01*
X32719Y41478D01*
X31744Y41033D01*
X30740Y40659D01*
X29712Y40357D01*
X28665Y40129D01*
X27604Y39976D01*
X26536Y39900D01*
X25464Y39900D01*
X24396Y39976D01*
X23335Y40129D01*
X22288Y40357D01*
X21260Y40659D01*
X20256Y41033D01*
X19281Y41478D01*
X18341Y41992D01*
X17440Y42571D01*
X16582Y43213D01*
X15772Y43915D01*
X15015Y44672D01*
X14313Y45482D01*
X13671Y46340D01*
X13092Y47241D01*
X12578Y48181D01*
X12133Y49156D01*
X11759Y50160D01*
X11457Y51188D01*
X11229Y52235D01*
X11076Y53296D01*
X11000Y54364D01*
X11000Y55436D01*
X11076Y56504D01*
X11229Y57565D01*
X11457Y58612D01*
X11759Y59640D01*
X12133Y60644D01*
X12578Y61619D01*
X13092Y62559D01*
X13671Y63460D01*
X14313Y64318D01*
X15015Y65128D01*
X15772Y65885D01*
X16582Y66587D01*
X17440Y67229D01*
X18341Y67808D01*
X19281Y68322D01*
X20256Y68767D01*
X21260Y69141D01*
X22288Y69443D01*
X23335Y69671D01*
X24396Y69824D01*
X25464Y69900D01*
X26536Y69900D01*
X27604Y69824D01*
X28665Y69671D01*
X29712Y69443D01*
X30740Y69141D01*
X31744Y68767D01*
X32719Y68322D01*
X33659Y67808D01*
X34560Y67229D01*
X35418Y66587D01*
X36228Y65885D01*
X36985Y65128D01*
X37687Y64318D01*
X38329Y63460D01*
X38908Y62559D01*
X39422Y61619D01*
X39867Y60644D01*
X40241Y59640D01*
X40543Y58612D01*
X40771Y57565D01*
X40924Y56504D01*
X41000Y55436D01*
X41000Y54364D01*
X1709000Y54364D02*
X1708924Y53296D01*
X1708771Y52235D01*
X1708543Y51188D01*
X1708241Y50160D01*
X1707867Y49156D01*
X1707422Y48181D01*
X1706908Y47241D01*
X1706329Y46340D01*
X1705687Y45482D01*
X1704985Y44672D01*
X1704228Y43915D01*
X1703418Y43213D01*
X1702560Y42571D01*
X1701659Y41992D01*
X1700719Y41478D01*
X1699744Y41033D01*
X1698740Y40659D01*
X1697712Y40357D01*
X1696665Y40129D01*
X1695604Y39976D01*
X1694536Y39900D01*
X1693464Y39900D01*
X1692396Y39976D01*
X1691335Y40129D01*
X1690288Y40357D01*
X1689260Y40659D01*
X1688256Y41033D01*
X1687281Y41478D01*
X1686341Y41992D01*
X1685440Y42571D01*
X1684582Y43213D01*
X1683772Y43915D01*
X1683015Y44672D01*
X1682313Y45482D01*
X1681671Y46340D01*
X1681092Y47241D01*
X1680578Y48181D01*
X1680133Y49156D01*
X1679759Y50160D01*
X1679457Y51188D01*
X1679229Y52235D01*
X1679076Y53296D01*
X1679000Y54364D01*
X1679000Y55436D01*
X1679076Y56504D01*
X1679229Y57565D01*
X1679457Y58612D01*
X1679759Y59640D01*
X1680133Y60644D01*
X1680578Y61619D01*
X1681092Y62559D01*
X1681671Y63460D01*
X1682313Y64318D01*
X1683015Y65128D01*
X1683772Y65885D01*
X1684582Y66587D01*
X1685440Y67229D01*
X1686341Y67808D01*
X1687281Y68322D01*
X1688256Y68767D01*
X1689260Y69141D01*
X1690288Y69443D01*
X1691335Y69671D01*
X1692396Y69824D01*
X1693464Y69900D01*
X1694536Y69900D01*
X1695604Y69824D01*
X1696665Y69671D01*
X1697712Y69443D01*
X1698740Y69141D01*
X1699744Y68767D01*
X1700719Y68322D01*
X1701659Y67808D01*
X1702560Y67229D01*
X1703418Y66587D01*
X1704228Y65885D01*
X1704985Y65128D01*
X1705687Y64318D01*
X1706329Y63460D01*
X1706908Y62559D01*
X1707422Y61619D01*
X1707867Y60644D01*
X1708241Y59640D01*
X1708543Y58612D01*
X1708771Y57565D01*
X1708924Y56504D01*
X1709000Y55436D01*
X1709000Y54364D01*
X1541000Y54364D02*
X1540924Y53296D01*
X1540771Y52235D01*
X1540543Y51188D01*
X1540241Y50160D01*
X1539867Y49156D01*
X1539422Y48181D01*
X1538908Y47241D01*
X1538329Y46340D01*
X1537687Y45482D01*
X1536985Y44672D01*
X1536228Y43915D01*
X1535418Y43213D01*
X1534560Y42571D01*
X1533659Y41992D01*
X1532719Y41478D01*
X1531744Y41033D01*
X1530740Y40659D01*
X1529712Y40357D01*
X1528665Y40129D01*
X1527604Y39976D01*
X1526536Y39900D01*
X1525464Y39900D01*
X1524396Y39976D01*
X1523335Y40129D01*
X1522288Y40357D01*
X1521260Y40659D01*
X1520256Y41033D01*
X1519281Y41478D01*
X1518341Y41992D01*
X1517440Y42571D01*
X1516582Y43213D01*
X1515772Y43915D01*
X1515015Y44672D01*
X1514313Y45482D01*
X1513671Y46340D01*
X1513092Y47241D01*
X1512578Y48181D01*
X1512133Y49156D01*
X1511759Y50160D01*
X1511457Y51188D01*
X1511229Y52235D01*
X1511076Y53296D01*
X1511000Y54364D01*
X1511000Y55436D01*
X1511076Y56504D01*
X1511229Y57565D01*
X1511457Y58612D01*
X1511759Y59640D01*
X1512133Y60644D01*
X1512578Y61619D01*
X1513092Y62559D01*
X1513671Y63460D01*
X1514313Y64318D01*
X1515015Y65128D01*
X1515772Y65885D01*
X1516582Y66587D01*
X1517440Y67229D01*
X1518341Y67808D01*
X1519281Y68322D01*
X1520256Y68767D01*
X1521260Y69141D01*
X1522288Y69443D01*
X1523335Y69671D01*
X1524396Y69824D01*
X1525464Y69900D01*
X1526536Y69900D01*
X1527604Y69824D01*
X1528665Y69671D01*
X1529712Y69443D01*
X1530740Y69141D01*
X1531744Y68767D01*
X1532719Y68322D01*
X1533659Y67808D01*
X1534560Y67229D01*
X1535418Y66587D01*
X1536228Y65885D01*
X1536985Y65128D01*
X1537687Y64318D01*
X1538329Y63460D01*
X1538908Y62559D01*
X1539422Y61619D01*
X1539867Y60644D01*
X1540241Y59640D01*
X1540543Y58612D01*
X1540771Y57565D01*
X1540924Y56504D01*
X1541000Y55436D01*
X1541000Y54364D01*
M02*
