G04 EAGLE Gerber RS-274X export*
G75*
%MOMM*%
%FSLAX34Y34*%
%LPD*%
%INSolderpaste Bottom*%
%IPPOS*%
%AMOC8*
5,1,8,0,0,1.08239X$1,22.5*%
G01*
%ADD10R,1.300000X1.500000*%
%ADD11R,1.500000X1.300000*%
%ADD12R,1.300000X1.600000*%
%ADD13R,1.600000X1.300000*%
%ADD14R,1.800000X3.200000*%
%ADD15R,3.200000X1.800000*%


D10*
X560500Y360000D03*
X579500Y360000D03*
X1712000Y1022500D03*
X1693000Y1022500D03*
X547000Y307500D03*
X528000Y307500D03*
D11*
X1722500Y139500D03*
X1722500Y120500D03*
D10*
X1062000Y257500D03*
X1043000Y257500D03*
X969500Y237500D03*
X950500Y237500D03*
X835500Y255000D03*
X854500Y255000D03*
D12*
X1179500Y325000D03*
X1160500Y325000D03*
D13*
X1205000Y339500D03*
X1205000Y320500D03*
D14*
X1037000Y1435000D03*
X1093000Y1435000D03*
X1127000Y1435000D03*
X1183000Y1435000D03*
X1217000Y1435000D03*
X1273000Y1435000D03*
X1307000Y1435000D03*
X1363000Y1435000D03*
X1397000Y1435000D03*
X1453000Y1435000D03*
D15*
X1750000Y1648000D03*
X1750000Y1592000D03*
D14*
X1738000Y1550000D03*
X1682000Y1550000D03*
D15*
X1675000Y1508000D03*
X1675000Y1452000D03*
D14*
X1633000Y1435000D03*
X1577000Y1435000D03*
X1543000Y1435000D03*
X1487000Y1435000D03*
X958000Y1545000D03*
X902000Y1545000D03*
X868000Y1545000D03*
X812000Y1545000D03*
D15*
X800000Y1587000D03*
X800000Y1643000D03*
D14*
X788000Y1685000D03*
X732000Y1685000D03*
D15*
X720000Y1643000D03*
X720000Y1587000D03*
D14*
X492000Y1545000D03*
X548000Y1545000D03*
D15*
X560000Y1587000D03*
X560000Y1643000D03*
D14*
X572000Y1680000D03*
X628000Y1680000D03*
D15*
X640000Y1643000D03*
X640000Y1587000D03*
D14*
X652000Y1545000D03*
X708000Y1545000D03*
D13*
X810000Y340500D03*
X810000Y359500D03*
D12*
X790500Y315000D03*
X809500Y315000D03*
D10*
X849500Y205000D03*
X830500Y205000D03*
M02*
